<?xml version="1.0" encoding="UTF-8" standalone="no"?>
<svg
   xmlns:dc="http://purl.org/dc/elements/1.1/"
   xmlns:cc="http://creativecommons.org/ns#"
   xmlns:rdf="http://www.w3.org/1999/02/22-rdf-syntax-ns#"
   xmlns:svg="http://www.w3.org/2000/svg"
   xmlns="http://www.w3.org/2000/svg"
   xmlns:sodipodi="http://sodipodi.sourceforge.net/DTD/sodipodi-0.dtd"
   xmlns:inkscape="http://www.inkscape.org/namespaces/inkscape"
   height="100px"
   width="100px"
   fill="#000000"
   data-name="Layer 1"
   viewBox="0 0 80 80"
   x="0px"
   y="0px"
   version="1.1"
   id="svg6"
   sodipodi:docname="bilan_indiv.svg"
   inkscape:version="0.92.4 (5da689c313, 2019-01-14)">
  <metadata
     id="metadata12">
    <rdf:RDF>
      <cc:Work
         rdf:about="">
        <dc:format>image/svg+xml</dc:format>
        <dc:type
           rdf:resource="http://purl.org/dc/dcmitype/StillImage" />
        <dc:title>01_BO_search</dc:title>
      </cc:Work>
    </rdf:RDF>
  </metadata>
  <defs
     id="defs10" />
  <sodipodi:namedview
     pagecolor="#ffffff"
     bordercolor="#666666"
     borderopacity="1"
     objecttolerance="10"
     gridtolerance="10"
     guidetolerance="10"
     inkscape:pageopacity="0"
     inkscape:pageshadow="2"
     inkscape:window-width="1920"
     inkscape:window-height="1016"
     id="namedview8"
     showgrid="false"
     inkscape:zoom="6.675088"
     inkscape:cx="21.790656"
     inkscape:cy="53.565972"
     inkscape:window-x="0"
     inkscape:window-y="27"
     inkscape:window-maximized="1"
     inkscape:current-layer="svg6"
     inkscape:snap-global="false" />
  <title
     id="title2">01_BO_search</title>
  <path
     inkscape:connector-curvature="0"
     d="m 51.652033,41.705251 c 0.08673,-0.485571 0.208073,-0.936529 0.121344,-1.266144 -0.08672,-0.329616 -0.659031,-1.757484 -0.554996,-2.240271 0.104038,-0.482786 0.121343,-2.581424 0.121343,-3.0843 0,-0.502878 -0.5723,-1.248839 -0.5723,-1.248839 0,0 0.416345,-0.502878 0.537688,-0.867106 0.121344,-0.364228 -0.138848,-0.22538 -0.138848,-0.22538 0,0 0.05212,-0.450957 -0.329615,-0.797879 -0.381535,-0.346922 -1.231334,-0.641726 -1.231334,-0.641726 0,0 0.79788,0.612882 0.88461,1.266145 0.01333,0.100661 -0.22538,0.221202 -0.450958,0.31211 -0.468861,0.189374 -2.480172,-0.242885 -3.486125,-0.22538 -1.005954,0.01731 -2.896518,0.242885 -3.139204,0.156155 -0.242884,-0.08673 -1.005954,-0.537689 -1.248839,-0.76307 -0.242883,-0.225379 -1.578254,-0.381534 -1.578254,-0.381534 l -1.005953,-1.170661 c 0,0 -0.147403,0.04336 -0.468266,0 -0.320863,-0.04336 -0.884611,-0.433652 -0.988648,-0.763068 -0.104037,-0.329616 -0.02606,-0.901917 -0.06068,-1.162108 -0.03461,-0.260193 -0.546243,-1.02326 -0.546243,-1.02326 0,0 0.546243,0.607113 0.650478,0.919224 0.104234,0.312108 -0.07797,1.092682 0.06943,1.222778 0.147401,0.130097 0.624419,0.702397 0.901917,0.702397 0.277497,0 1.040565,-0.329615 0.650477,-1.179414 -0.390286,-0.8498 -1.092684,-1.248838 -1.196718,-1.53489 -0.104039,-0.286051 -0.520385,-0.494324 -0.520385,-0.494324 0,0 0.433652,-0.754513 0.71115,-0.780574 0.277498,-0.02607 1.309511,0.242886 1.309511,0.242886 0,0 -0.780574,-0.685092 -1.318064,-0.711151 -0.537492,-0.02605 -1.44816,0.927977 -1.44816,0.927977 0,0 -1.058072,-0.104037 -1.352877,-0.03461 -0.294803,0.06943 -0.338168,0.494324 -0.450957,0.615665 -0.112789,0.121345 -0.364228,0.546244 -0.312111,0.763071 0.05212,0.216825 0.121344,0.624419 0.11279,0.936529 -0.0088,0.312109 -0.08672,1.358644 -0.04336,1.581239 0.02924,0.149788 0.191961,0.240299 0.302164,0.305943 0.07141,-0.01392 0.13666,-0.02884 0.170477,-0.03998 0.0911,-0.03043 0.468265,-0.130096 0.55062,-0.164708 0.08235,-0.03461 0.329616,-0.251438 0.329616,-0.251438 0,0 -0.203698,0.31211 -0.281875,0.351297 -0.07819,0.03918 -0.229756,0.0911 -0.359852,0.130096 -0.07838,0.02347 -0.178632,0.05331 -0.261186,0.08196 0.113784,0.08733 0.305945,0.220606 0.417341,0.257805 0.138848,0.04635 0.682106,-0.208075 0.682106,-0.208075 0,0 0.416347,1.063841 0.578071,1.572487 0.161924,0.508845 0.624419,1.214028 0.739992,1.572486 0.115576,0.358459 -0.02308,1.214028 0.08096,1.526337 0.104038,0.31211 0.369999,1.375949 0.520384,1.664985 0.150386,0.289036 0.70538,0.635957 0.994415,0.70538 0.289035,0.06943 0.716919,0.566533 0.728457,0.797881 0.01153,0.231347 0.202303,1.086915 0.202303,1.503061 0,0.416148 -0.03461,0.884611 0,1.231334 0.03461,0.346921 0.364229,0.763068 0.260193,1.318062 -0.104039,0.554996 -0.693843,2.53229 -0.693843,2.53229 h 1.005953 c 0,0 0.294804,-0.416346 0.468265,-0.520383 0.17346,-0.104036 -0.08672,-0.416345 0,-0.659031 0.08672,-0.242884 0.156154,-0.416346 0.138848,-0.62442 -0.01731,-0.208073 -0.208074,-0.867104 -0.156155,-1.335568 0.05212,-0.468264 0.329616,-0.88461 0.364228,-1.179414 0.03461,-0.294803 -0.346921,-1.10999 -0.294804,-1.439606 0.05212,-0.329614 0.312111,-1.040565 0.572302,-1.179414 0.26019,-0.138847 0.537688,0.329616 1.092684,0.39884 0.554995,0.06943 2.358829,0.398842 3.24324,0.294805 0.88461,-0.104038 1.474218,-0.554995 1.595561,-0.62442 0.121343,-0.06943 0.450959,-0.988647 0.450959,-0.988647 0,0 0.62442,1.664985 0.936528,1.994602 0.312112,0.329615 0.832494,0.849797 0.919224,1.162107 0.08672,0.31211 0.277497,2.185367 0.156155,2.566901 -0.121342,0.381535 -0.601942,1.572487 -0.601942,1.572487 h 0.836074 c 0,0 0.11259,-0.826724 0.320863,-1.000186 0.208073,-0.17346 0.260191,-0.381534 0.364228,-0.520382 0.104037,-0.138848 -0.08713,-1.370379 -4.97e-4,-1.855951 z M 37.447341,28.523819 c -0.115576,0.06943 -0.456728,0 -0.456728,0 0,0 -0.01731,-0.341153 0.127113,-0.393071 0.144417,-0.05193 0.346921,-0.04038 0.375764,0.05212 0.02904,0.0923 0.06943,0.27153 -0.04616,0.340955 z"
     id="path10"
     style="opacity:0.65200004;fill:#8f230a;fill-opacity:1;stroke-width:0.19892301" />
  <path
     d="M49.36,9.08A21.24,21.24,0,0,0,33.22,44.16L30.41,47a6.07,6.07,0,0,0-7.26,1L11,60.1a6.08,6.08,0,0,0,8.6,8.6L31.76,56.55A6.09,6.09,0,0,0,32.6,49l2.73-2.73a21.25,21.25,0,1,0,14-37.2Zm0,39.53A18.26,18.26,0,1,1,67.63,30.35,18.28,18.28,0,0,1,49.36,48.61Z"
     id="path4"
     style="fill:#0a425a;fill-opacity:1" />
  <g
     transform="matrix(0.46315817,0,0,0.46315817,35.290096,13.625536)"
     id="g4"
     style="fill:#8f230a;fill-opacity:1">
    <path
       inkscape:connector-curvature="0"
       d="m 65,40.5 c 0.1,-3.6 -0.8,-7.1 -0.8,-10.6 0,-4.6 -2,-7.6 -6.1,-9.6 -3.7,-1.7 -7.4,-2.1 -11.4,-1.4 -3.4,0.6 -6.8,1.4 -10.3,1.4 -2.2,0 -4.2,-0.5 -5.8,-2.2 C 29.9,17.4 29.1,16.8 28.1,16.5 25.5,15.6 23.2,14.1 20.9,12.6 16.9,9.9 12.4,8.7 7.6,9 6.9,8.9 6.2,9 5.5,8.9 5.2,8.5 4.7,8 3.9,7.6 2.8,7 2.7,6 2.7,6 2.7,6 2,9 4.5,10.7 4.5,10.8 4.4,10.9 4.3,11.1 4.2,11.3 4,11.6 3.9,12 3.8,12.4 3.7,12.8 3.6,13.2 3.3,15.4 2.5,17.6 1.8,19.7 1.4,21 1,22.3 1,23.7 c 0,1 0.5,2.1 1.4,2.2 1,0.2 2.4,0.8 3.2,-0.6 1.4,-2.7 4,-4.2 6.2,-6.4 1.1,3.2 3.4,5.7 5,8.6 0,0 0,0 0,0 0.3,-1.4 0.8,-2.8 1.4,-4.2 0.1,-0.1 0.2,-0.2 0.4,-0.1 0.1,0.1 0.2,0.2 0.1,0.3 v 0 c -0.5,1.3 -0.9,2.7 -1.1,4.1 0,0.3 -0.1,0.6 -0.1,0.9 0,0.4 0,0.8 0,1.2 0.1,2 0.3,4 1.4,5.6 0.9,1.2 1.2,2.5 1.6,3.9 1.3,4.4 1.3,8.9 1.8,13.4 0.2,1.7 -0.2,3.3 -1.7,4.4 -0.4,0.3 -0.7,0.7 -0.9,1.1 -0.3,0.4 -0.3,0.8 0.3,0.9 2.3,0.3 4.6,-0.1 6.7,-1.1 2.1,-1 2.3,-3 1.7,-5 -0.4,-1.2 -0.6,-2.5 -0.4,-3.7 0.6,-3 0.4,-6.1 0.7,-9.2 0.1,-0.8 0.1,-1.5 -0.1,-2.1 -0.6,-0.3 -1.2,-0.6 -1.8,-1.1 -0.5,-0.5 -1,-1 -1.4,-1.6 -0.1,-0.1 0,-0.3 0.1,-0.3 0.1,-0.1 0.2,0 0.3,0.1 v 0 c 0.3,0.5 0.8,1 1.3,1.4 0.4,0.3 0.8,0.5 1.3,0.7 1.2,0.4 2.4,0.7 3.6,0.9 0.2,0 0.5,0.1 0.7,0.1 v 0 c 0.1,0 0.2,0.1 0.3,0.1 4.6,0.8 9.1,0.6 13.7,-1 0.9,-0.3 1.4,-0.5 1.5,-0.8 C 48.1,36 48.1,35.7 48,35.3 47.8,34.7 47.6,34.1 47.3,33.5 47,32.9 46.7,32.3 46.3,31.9 v 0 c -0.1,-0.1 -0.1,-0.2 0,-0.3 0.1,-0.1 0.2,-0.1 0.3,0 0.5,0.5 0.9,1.1 1.3,1.7 0.3,0.6 0.6,1.2 0.8,1.9 0.1,0.4 0.2,0.8 0.3,1.2 0,0 0,0.1 0.1,0.1 1.1,2.9 1.6,6 2.1,9.1 0.3,1.9 1,3.9 0.3,5.9 -0.9,2.7 -1.7,5.5 -3.9,7.6 -0.2,0.2 -0.5,0.4 -0.4,0.8 0.2,0.4 0.6,0.2 0.9,0.2 0.9,-0.2 1.8,-0.4 2.7,-0.6 1,-0.3 1.6,-0.9 1.9,-2 0.7,-3.1 1.4,-6.3 3,-9.1 0.4,-0.6 0.3,-1.3 0.2,-2 -0.4,-1.7 -0.6,-3.5 -0.7,-5.2 0,-0.1 0,-0.1 0,-0.2 -0.1,-0.7 -0.1,-1.4 0,-2.2 0.1,-0.7 0.4,-1.5 0.9,-2.1 0.2,-0.2 0.4,-0.4 0.6,-0.6 0,0 0,0 0,0 0.1,-0.1 0.3,-0.2 0.4,-0.3 0,0 0,0 0.1,0 0.3,-0.2 0.5,-0.4 0.8,-0.6 0,0 0,0 0.1,0 0.2,-0.2 0.4,-0.4 0.6,-0.6 0,0 0,-0.1 0.1,-0.1 0.2,-0.2 0.3,-0.4 0.5,-0.7 0,0 0,-0.1 0.1,-0.1 0.1,-0.2 0.3,-0.5 0.4,-0.8 0,0 0,0 0,0 0.4,-0.8 0.6,-1.8 0.7,-2.7 v 0 c 0,-0.1 0.1,-0.2 0.2,-0.2 0.1,0 0.2,0.1 0.2,0.2 -0.1,1.4 -0.5,2.8 -1.3,4 -0.4,0.6 -0.9,1.2 -1.4,1.6 -0.2,0.1 -0.3,0.2 -0.4,0.3 -0.2,0.2 -0.4,0.3 -0.6,0.5 -0.3,0.3 -0.6,0.6 -0.8,0.8 -0.5,0.9 -0.5,2 -0.4,3.1 0,0.1 0.1,0.2 0.1,0.3 0.6,1.4 1.2,2.8 1.5,4.3 1.1,4.7 2.3,9.4 -0.4,14 -0.1,0.2 -0.2,0.4 0.1,0.6 1,0.6 2.8,0 3.3,-1.1 0.4,-0.9 0.5,-1.9 0.4,-2.9 0,-1.4 0,-2.7 0.2,-3.9 0.5,-2.7 0.5,-5.4 -0.1,-8 -0.1,-0.5 -0.3,-1 -0.4,-1.5 0,0 0,-0.1 0,-0.1 0,-0.1 0,-0.1 0,-0.2 -0.2,-0.6 -0.2,-1.1 -0.1,-1.7 0,0 0,-0.1 0,-0.1 0,-1.4 0.1,-2.9 0.5,-4.2 0,-0.1 0.1,-0.1 0.1,-0.1 0.1,0 0.1,0.1 0.1,0.1 v 0 c -0.4,1.3 -0.5,2.8 -0.4,4.1 0,0.3 0,0.5 0.1,0.8 0.6,3.6 2.4,7 1.5,10.8 1.1,-2.1 2.4,-8 2.5,-11.2 z M 7.8,14 c -0.1,0.1 -0.3,0.2 -0.3,0.4 0,0 0,0 0,0 0,0 0,0.1 0,0.1 0,-0.1 -0.1,-0.1 -0.1,-0.2 -0.2,-0.2 -0.6,-0.2 -0.8,0.1 -0.1,0.1 -0.1,0.2 -0.1,0.3 0.1,0 0.2,0.1 0.2,0.2 0,0.1 0,0.2 -0.1,0.2 0,0 0,0.1 0.1,0.1 0.1,0.1 0.2,0.1 0.3,0.1 0,0 -0.1,0.1 -0.1,0.1 -0.1,0 -0.2,0 -0.3,0 -0.2,0 -0.3,0 -0.4,0 C 6,15.2 6,15 6,14.8 6,14.6 6,14.5 6.1,14.3 6.2,14.1 6.3,14 6.5,13.9 c 0.2,-0.1 0.4,-0.1 0.6,-0.1 0.1,0 0.1,0 0.2,0 0.2,0 0.5,0 0.7,0 0,0 0,0 0,0 0,0.1 -0.1,0.1 -0.2,0.2 z M 7.7,13.2 c -0.2,0 -0.4,0 -0.6,0 -0.4,-0.1 -0.7,0 -1,0.1 -0.3,0.2 -0.5,0.4 -0.7,0.7 -0.1,0.3 -0.1,0.7 0,1 C 5.1,14.7 5,14.3 5.1,13.9 c 0.1,-0.4 0.4,-0.8 0.8,-1 0.2,-0.1 0.4,-0.2 0.6,-0.2 0.2,0 0.4,0 0.6,0.1 0.4,0.1 0.7,0.2 1.1,0.1 -0.1,0.2 -0.3,0.3 -0.5,0.3 z m 16.9,43.4 c -1,-4 0,-7.8 0.2,-11.8 1.6,3.5 1.4,10.4 -0.2,11.8 z"
       id="path2"
       style="fill:#8f230a;fill-opacity:1" />
  </g>
</svg>
