<?xml version="1.0" encoding="UTF-8" standalone="no"?>
<svg
   xmlns:dc="http://purl.org/dc/elements/1.1/"
   xmlns:cc="http://creativecommons.org/ns#"
   xmlns:rdf="http://www.w3.org/1999/02/22-rdf-syntax-ns#"
   xmlns:svg="http://www.w3.org/2000/svg"
   xmlns="http://www.w3.org/2000/svg"
   xmlns:sodipodi="http://sodipodi.sourceforge.net/DTD/sodipodi-0.dtd"
   xmlns:inkscape="http://www.inkscape.org/namespaces/inkscape"
   height="100px"
   width="100px"
   fill="#000000"
   version="1.1"
   x="0px"
   y="0px"
   viewBox="0 0 100 100"
   style="enable-background:new 0 0 100 100;"
   xml:space="preserve"
   id="svg36"
   sodipodi:docname="dicro.svg"
   inkscape:version="0.92.4 (5da689c313, 2019-01-14)"><metadata
     id="metadata42"><rdf:RDF><cc:Work
         rdf:about=""><dc:format>image/svg+xml</dc:format><dc:type
           rdf:resource="http://purl.org/dc/dcmitype/StillImage" /><dc:title></dc:title></cc:Work></rdf:RDF></metadata><defs
     id="defs40" /><sodipodi:namedview
     pagecolor="#ffffff"
     bordercolor="#666666"
     borderopacity="1"
     objecttolerance="10"
     gridtolerance="10"
     guidetolerance="10"
     inkscape:pageopacity="0"
     inkscape:pageshadow="2"
     inkscape:window-width="1920"
     inkscape:window-height="1043"
     id="namedview38"
     showgrid="false"
     inkscape:zoom="2.36"
     inkscape:cx="50"
     inkscape:cy="50"
     inkscape:window-x="1920"
     inkscape:window-y="0"
     inkscape:window-maximized="1"
     inkscape:current-layer="svg36" /><path
     style="stroke-width:0.78280771;fill:#ffaf9c;fill-opacity:1"
     inkscape:connector-curvature="0"
     d="M 72.232556,29.053947 C 60.681551,18.02489 42.30982,18.44276 31.282716,30.002682 c -3.478339,3.643478 -5.95408,8.149111 -7.160503,13.030738 -0.207257,0.83899 0.305089,1.68793 1.144615,1.895757 0.840096,0.20729 1.68736,-0.304551 1.895757,-1.144614 1.075216,-4.352186 3.283096,-8.37058 6.384996,-11.620255 4.768121,-4.991308 11.188273,-7.827268 18.086769,-7.987303 6.897925,-0.159498 13.445745,2.376469 18.436613,7.140701 4.121865,3.935327 6.76865,9.002641 7.657528,14.533591 l -2.654796,-2.120966 c -0.675881,-0.539734 -1.661431,-0.431198 -2.200661,0.246359 -0.539735,0.675882 -0.429522,1.660927 0.246359,2.200662 l 5.526596,4.414955 c 0.02261,0.01849 0.04785,0.03019 0.07115,0.04696 0.03739,0.02714 0.07544,0.0526 0.115757,0.0759 0.04738,0.02741 0.09536,0.05209 0.144546,0.07457 0.03937,0.01774 0.07762,0.03547 0.118153,0.04997 0.05535,0.01989 0.11142,0.0348 0.168047,0.0481 0.0385,0.0089 0.07528,0.01939 0.114438,0.02549 0.06943,0.01091 0.138031,0.014 0.207746,0.01604 0.02494,1.52e-4 0.04856,0.0058 0.07404,0.0055 0.0054,2.92e-4 0.01054,-0.0013 0.0161,-0.0023 0.06765,-0.0025 0.133276,-0.01272 0.200596,-0.02349 0.02782,-0.0047 0.05661,-0.0049 0.08395,-0.01139 0.07915,-0.01762 0.156882,-0.04359 0.233605,-0.07292 0.03305,-0.01288 0.06395,-0.02804 0.09595,-0.04316 0.06344,-0.02971 0.12692,-0.06053 0.186733,-0.09865 0.05532,-0.03604 0.105874,-0.07942 0.156427,-0.122795 0.02099,-0.01764 0.04469,-0.03139 0.06459,-0.05017 0,0 4.56e-4,-4.3e-4 4.56e-4,-4.3e-4 0,0 4.55e-4,-4.3e-4 4.55e-4,-4.3e-4 4.56e-4,-4.29e-4 0.0018,-0.0017 0.0023,-0.0021 0.05182,-0.04888 0.100988,-0.10171 0.146965,-0.159066 l 4.411346,-5.516734 c 0.540269,-0.675312 0.430056,-1.660358 -0.245257,-2.200629 -0.675876,-0.539735 -1.66361,-0.43237 -2.200629,0.245252 L 80.82245,45.365002 C 79.82657,39.156936 76.85788,33.469967 72.232283,29.054205 Z"
     id="path2-18" /><path
     style="stroke-width:0.78280771;fill:#ffaf9c;fill-opacity:1"
     inkscape:connector-curvature="0"
     d="m 79.197681,55.078971 c -0.839526,-0.207827 -1.686791,0.304014 -1.896294,1.144045 -1.074678,4.352755 -3.283095,8.37058 -6.384424,11.619716 -9.862331,10.302025 -26.220552,10.681267 -36.522815,0.846066 -4.121865,-3.935326 -6.769187,-9.00321 -7.657528,-14.53359 l 2.654258,2.120396 c 0.617452,0.492618 1.492177,0.443419 2.050248,-0.08296 0.05296,-0.04995 0.103277,-0.104989 0.150414,-0.163395 0.539735,-0.675882 0.429522,-1.660927 -0.246359,-2.200662 l -5.526059,-4.414385 c -0.0206,-0.01609 -0.04352,-0.02675 -0.06413,-0.04174 -0.045,-0.03288 -0.09174,-0.06304 -0.140227,-0.09049 -0.04194,-0.02393 -0.08341,-0.04508 -0.126585,-0.06461 -0.04918,-0.02248 -0.09957,-0.04167 -0.151662,-0.05926 -0.04552,-0.01517 -0.09,-0.0281 -0.136751,-0.03888 -0.05279,-0.01262 -0.106789,-0.02195 -0.16142,-0.02853 -0.04745,-0.0058 -0.09387,-0.0094 -0.141449,-0.01078 -0.03098,-8.77e-4 -0.06013,-0.0078 -0.09061,-0.0071 -0.02716,8.77e-4 -0.05284,0.0079 -0.08003,0.0098 -0.04329,0.0032 -0.08499,0.0091 -0.127839,0.0162 -0.06176,0.0098 -0.121899,0.02135 -0.180528,0.03792 -0.03573,0.01003 -0.06989,0.02288 -0.105151,0.03569 -0.06043,0.02149 -0.119827,0.04523 -0.176062,0.0746 -0.03428,0.01727 -0.06699,0.03736 -0.0997,0.05745 -0.05244,0.03225 -0.103778,0.06453 -0.151956,0.102437 -0.03398,0.02672 -0.06529,0.05513 -0.09774,0.08462 -0.04265,0.0392 -0.08315,0.07955 -0.120984,0.122723 -0.01435,0.01673 -0.03245,0.02949 -0.04624,0.04681 l -4.412956,5.515026 c -0.540271,0.675312 -0.430629,1.660894 0.244146,2.200597 0.674743,0.540808 1.658779,0.427244 2.200597,-0.244146 l 1.991543,-2.48968 c 0.994296,6.206301 3.962954,11.894377 8.588551,16.310139 11.179827,10.674324 28.744638,10.619402 39.862201,0.133103 0.36958,-0.348594 0.732338,-0.710124 1.087641,-1.08184 3.477767,-3.642939 5.954078,-8.149109 7.160501,-13.030736 0.207257,-0.838989 -0.305658,-1.687393 -1.144647,-1.89465 z"
     id="path4-59" /><g
     id="g34"
     transform="matrix(0.73419626,0,0,0.73419626,14.138273,-6.6264092)"
     style="fill:#0a425a;fill-opacity:1"><g
       id="g32"
       style="fill:#0a425a;fill-opacity:1"><path
         d="m 64.64,62.2 c -0.62,1.8 -1.24,3.24 -1.94,4.54 -0.65,1.21 -1.47,2.31 -2.26,3.37 l -1.12,1.53 c -1.57,2.15 -3.19,4.38 -5.01,6.39 -0.09,0.1 -0.18,0.19 -0.27,0.28 0.41,-0.12 0.8,-0.31 1.14,-0.59 0.69,-0.56 1.51,-1.2 2.39,-1.9 4.34,-3.39 10.88,-8.52 11.43,-11.57 0.49,-2.73 0.05,-9.79 -0.32,-14.43 -1.4,4.48 -2.67,8.43 -4.04,12.38 z"
         id="path2"
         inkscape:connector-curvature="0"
         style="fill:#0a425a;fill-opacity:1" /><path
         d="m 31.68,37.11 c -0.43,0.03 -0.78,0.16 -1.07,0.4 -0.01,0.07 -0.02,0.15 -0.02,0.23 0,0.82 0.66,1.48 1.48,1.48 0.61,0 1.14,-0.37 1.37,-0.91 l -0.59,-0.68 c -0.3,-0.35 -0.73,-0.54 -1.17,-0.52 z"
         id="path4"
         inkscape:connector-curvature="0"
         style="fill:#0a425a;fill-opacity:1" /><path
         d="m 5.65,28.14 c -0.2,0.58 0.54,3.56 3.15,6.63 2.65,3.12 8.71,7.82 19.59,4.77 -0.47,-2.84 -0.34,-5.39 0.4,-7.59 -2.81,-2.06 -11.5,-7.29 -23.14,-3.81 z"
         id="path6"
         inkscape:connector-curvature="0"
         style="fill:#0a425a;fill-opacity:1" /><path
         d="m 59.45,69.69 c -0.01,0.05 -0.03,0.11 -0.05,0.16 l 0.24,-0.33 c 0,0 0,0 0,0 -0.06,0.05 -0.12,0.11 -0.19,0.17 z"
         id="path8"
         inkscape:connector-curvature="0"
         style="fill:#0a425a;fill-opacity:1" /><path
         d="m 50.06,77.26 c -0.02,0 -0.04,0 -0.06,0 -0.02,0 -0.04,0 -0.06,0 -2.07,-0.24 -3.7,-0.84 -4.98,-1.62 0.48,0.59 0.96,1.16 1.46,1.72 0.46,0.51 0.92,0.87 1.36,1.09 0.51,0.25 1,0.3 1.46,0.17 0.25,-0.07 0.5,-0.11 0.75,-0.11 0.25,0 0.5,0.04 0.75,0.11 0.46,0.13 0.96,0.08 1.46,-0.17 0.45,-0.22 0.91,-0.58 1.37,-1.09 0.5,-0.55 0.99,-1.13 1.46,-1.71 -1.28,0.77 -2.9,1.36 -4.97,1.61 z"
         id="path10"
         inkscape:connector-curvature="0"
         style="fill:#0a425a;fill-opacity:1" /><path
         d="m 40.64,71.59 -1.08,-1.48 c -0.79,-1.06 -1.6,-2.16 -2.26,-3.37 -0.7,-1.3 -1.33,-2.78 -1.94,-4.54 -1.37,-3.95 -2.64,-7.9 -4.04,-12.39 -0.37,4.64 -0.8,11.71 -0.32,14.43 0.54,3.05 7.09,8.18 11.42,11.57 0.89,0.69 1.7,1.33 2.39,1.9 0.34,0.28 0.73,0.47 1.14,0.59 -0.09,-0.09 -0.18,-0.18 -0.27,-0.28 -1.83,-2.01 -3.46,-4.26 -5.04,-6.43 z"
         id="path12"
         inkscape:connector-curvature="0"
         style="fill:#0a425a;fill-opacity:1" /><path
         d="m 40.55,69.69 c -0.07,-0.06 -0.13,-0.11 -0.2,-0.17 0,0 0,0 0,0 l 0.24,0.33 c -0.01,-0.06 -0.02,-0.11 -0.04,-0.16 z"
         id="path14"
         inkscape:connector-curvature="0"
         style="fill:#0a425a;fill-opacity:1" /><path
         d="M 43.23,71.12 C 43.11,71.08 42.99,71.04 42.88,71 c -0.34,-0.13 -0.66,-0.27 -0.96,-0.43 0.12,0.28 0.25,0.57 0.41,0.87 0.13,0.24 0.28,0.49 0.44,0.73 0.63,0.94 1.5,1.87 2.73,2.61 0.01,0.01 0.03,0.02 0.04,0.02 0.77,0.46 1.66,0.85 2.72,1.12 0.02,0.01 0.05,0.01 0.07,0.01 0.52,0.13 1.08,0.24 1.68,0.31 4.99,-0.61 7.15,-3.43 8.09,-5.68 -0.3,0.15 -0.63,0.3 -0.96,0.43 -0.11,0.04 -0.23,0.08 -0.35,0.12 -0.19,0.07 -0.38,0.14 -0.59,0.2 -1.69,3.9 -4.45,3.46 -5.58,3.08 -0.4,-0.13 -0.82,-0.13 -1.22,0 -1.13,0.38 -3.89,0.82 -5.58,-3.08 -0.21,-0.04 -0.4,-0.12 -0.59,-0.19 z"
         id="path16"
         inkscape:connector-curvature="0"
         style="fill:#0a425a;fill-opacity:1" /><path
         d="m 49.07,73.46 c 0.61,-0.21 1.25,-0.21 1.86,0 1.18,0.4 2.78,0.35 3.99,-1.82 -1.7,0.34 -3.37,0.36 -4.52,0.01 -0.26,-0.08 -0.53,-0.08 -0.79,0 -1.16,0.35 -2.82,0.34 -4.52,-0.01 1.2,2.17 2.79,2.22 3.98,1.82 z"
         id="path18"
         inkscape:connector-curvature="0"
         style="fill:#0a425a;fill-opacity:1" /><path
         d="m 67.37,28.05 c -0.83,-0.12 -3.72,-0.6 -4.44,-1.57 -0.35,-0.47 -2.77,-1.34 -4.82,-1.87 -0.27,-0.07 -0.43,-0.34 -0.36,-0.61 0.07,-0.27 0.34,-0.43 0.61,-0.36 0.77,0.2 4.63,1.25 5.37,2.25 0.34,0.46 2.28,0.97 3.88,1.19 0.07,0.01 0.13,0.03 0.19,0.07 0.08,0.05 1.83,1.17 3.01,3.85 2.23,-1.59 7.41,-4.66 14.5,-4.99 -2.96,-0.27 -5.88,-0.16 -7.4,0.78 -4.01,2.47 -7.18,1.16 -7.31,1.1 C 60.3,21.2 52.55,21.2 50.39,21.36 c -0.07,0.03 -0.14,0.06 -0.22,0.06 -0.02,0 -0.05,0 -0.07,-0.01 L 50,21.39 49.88,21.4 c -0.02,0 -0.05,0 -0.07,0 -0.08,0 -0.15,-0.02 -0.22,-0.06 -2.17,-0.16 -9.89,-0.15 -20.13,6.5 -0.21,0.1 -3.38,1.41 -7.39,-1.06 -1.53,-0.94 -4.44,-1.05 -7.41,-0.78 7.1,0.33 12.28,3.4 14.51,4.99 1.18,-2.68 2.93,-3.8 3.01,-3.85 0.06,-0.04 0.13,-0.06 0.19,-0.07 1.6,-0.22 3.55,-0.73 3.88,-1.19 0.74,-1 4.6,-2.05 5.37,-2.25 0.27,-0.07 0.54,0.09 0.61,0.36 0.07,0.27 -0.09,0.54 -0.36,0.61 -2.05,0.53 -4.47,1.4 -4.82,1.87 -0.72,0.98 -3.61,1.45 -4.44,1.57 -0.36,0.25 -1.86,1.43 -2.78,3.89 -0.83,2.23 -0.97,4.88 -0.4,7.88 0.17,0.9 0.4,1.84 0.7,2.8 l 1.37,4.46 c 1.71,5.53 3.18,10.16 4.79,14.81 0.59,1.71 1.2,3.15 1.88,4.4 0.13,0.24 0.27,0.48 0.42,0.72 -0.66,-1.78 -0.32,-3.56 0.4,-4.87 0.74,-1.34 1.18,-5.25 1.28,-6.65 0.02,-0.27 0.25,-0.48 0.54,-0.46 0.28,0.02 0.48,0.26 0.46,0.54 -0.02,0.21 -0.41,5.26 -1.41,7.06 -0.88,1.59 -1.07,4.01 1.02,6.06 0.13,0.12 0.26,0.24 0.4,0.35 0,0 0,0 0,0 0,0 0,0 0,0 0.76,0.59 1.8,1.08 3.02,1.42 1.83,0.52 3.8,0.62 5,0.26 0.45,-0.13 0.92,-0.13 1.37,0 1.2,0.36 3.17,0.26 5,-0.26 0,0 0,0 0,0 0,0 0,0 0,0 0.61,-0.17 1.18,-0.38 1.68,-0.62 0.01,-0.01 0.03,-0.02 0.04,-0.02 0.49,-0.23 0.93,-0.49 1.29,-0.78 0,0 0,0 0,0 0,0 0,0 0,0 0.14,-0.11 0.28,-0.23 0.4,-0.35 2.09,-2.05 1.9,-4.48 1.02,-6.06 -1,-1.8 -1.39,-6.84 -1.41,-7.06 -0.02,-0.28 0.19,-0.52 0.46,-0.54 0.28,-0.02 0.52,0.19 0.54,0.46 0.11,1.4 0.55,5.31 1.28,6.65 0.73,1.31 1.07,3.1 0.4,4.88 0.15,-0.24 0.29,-0.48 0.42,-0.72 0.67,-1.25 1.27,-2.65 1.87,-4.39 1.61,-4.65 3.08,-9.28 4.79,-14.81 v 0 c 0,0 0,0 0,0 l 1.37,-4.45 c 0.29,-0.95 0.52,-1.88 0.69,-2.76 0,-0.03 0,-0.05 0,-0.08 0,-0.01 0.01,-0.02 0.02,-0.03 0.55,-2.97 0.41,-5.59 -0.42,-7.8 -0.88,-2.51 -2.38,-3.67 -2.74,-3.92 z M 35.79,40.26 c -0.09,0.08 -0.21,0.12 -0.33,0.12 -0.14,0 -0.28,-0.06 -0.38,-0.17 l -0.94,-1.09 c -0.45,0.68 -1.21,1.11 -2.06,1.11 -1.22,0 -2.22,-0.88 -2.43,-2.04 -0.01,0 -0.02,0 -0.03,-0.01 -0.25,-0.11 -0.37,-0.4 -0.26,-0.65 0.01,-0.03 0.15,-0.33 0.46,-0.63 0,0 0,0 0,0 0,0 0,0 0,0 0,0 0,0 0,0 0,0 0,0 0,0 0.33,-0.32 0.9,-0.72 1.81,-0.78 0.76,-0.05 1.49,0.28 1.99,0.86 l 0.77,0.89 1.46,1.69 c 0.17,0.21 0.15,0.52 -0.06,0.7 z m 14.3,28.42 c -0.03,0.01 -0.06,0.01 -0.09,0.01 -0.03,0 -0.06,0 -0.09,-0.01 -5.96,-1.09 -6.59,-4.68 -6.44,-6.71 0,0 0,0 0,0 0.09,-1.18 1.08,-2.1 2.28,-2.02 1.14,0.05 2.46,0.36 3.38,0.61 0.57,0.16 1.17,0.16 1.74,0 0.91,-0.25 2.24,-0.56 3.38,-0.61 1.18,-0.06 2.19,0.84 2.28,2.02 0.15,2.04 -0.48,5.62 -6.44,6.71 z m 20.1,-31.79 c 0,0 0,0 0,0 0,0 0,0 0,0 0,0.01 0,0.01 0,0 0.31,0.31 0.44,0.6 0.46,0.63 0.11,0.25 0,0.55 -0.26,0.66 -0.01,0 -0.02,0 -0.03,0.01 -0.21,1.15 -1.22,2.03 -2.43,2.03 -0.85,0 -1.62,-0.43 -2.06,-1.11 l -0.94,1.09 c -0.1,0.11 -0.24,0.17 -0.38,0.17 -0.12,0 -0.23,-0.04 -0.33,-0.12 -0.21,-0.18 -0.23,-0.5 -0.05,-0.71 l 1.46,-1.69 0.77,-0.9 c 0.5,-0.58 1.24,-0.9 1.99,-0.86 0.9,0.08 1.48,0.48 1.8,0.8 0,0 0,0 0,0 z"
         id="path20"
         inkscape:connector-curvature="0"
         style="fill:#0a425a;fill-opacity:1" /><path
         d="m 67.15,37.63 -0.59,0.69 c 0.22,0.55 0.76,0.91 1.37,0.91 0.82,0 1.48,-0.67 1.48,-1.48 0,-0.08 -0.01,-0.16 -0.02,-0.23 -0.28,-0.24 -0.64,-0.37 -1.07,-0.4 -0.43,-0.03 -0.87,0.16 -1.17,0.51 z"
         id="path22"
         inkscape:connector-curvature="0"
         style="fill:#0a425a;fill-opacity:1" /><path
         d="m 94.36,28.14 c -11.64,-3.48 -20.33,1.75 -23.14,3.8 0.74,2.2 0.87,4.76 0.4,7.6 10.88,3.05 16.94,-1.65 19.59,-4.77 2.59,-3.06 3.33,-6.03 3.15,-6.63 z"
         id="path24"
         inkscape:connector-curvature="0"
         style="fill:#0a425a;fill-opacity:1" /><path
         d="m 54.29,60.94 c -1.05,0.04 -2.29,0.34 -3.15,0.57 -0.74,0.21 -1.53,0.21 -2.28,0 -0.86,-0.24 -2.11,-0.53 -3.15,-0.57 -0.65,-0.01 -1.19,0.46 -1.24,1.1 -0.03,0.34 -0.02,0.7 0.02,1.06 0.22,-0.32 0.93,-1.26 1.98,-1.24 1.1,0.02 2.11,0.99 3.09,2.95 0.11,0.22 0.04,0.48 -0.15,0.62 -0.09,0.07 -0.19,0.1 -0.3,0.1 -0.12,0 -0.25,-0.05 -0.34,-0.14 -0.61,-0.58 -2.48,-1.98 -3.72,-1.48 -0.13,0.05 -0.27,0.03 -0.39,-0.03 0.47,1.59 1.87,3.13 5.35,3.79 3.48,-0.66 4.89,-2.21 5.35,-3.79 -0.12,0.06 -0.26,0.08 -0.39,0.03 -1.25,-0.5 -3.11,0.9 -3.72,1.48 -0.1,0.09 -0.22,0.14 -0.34,0.14 -0.1,0 -0.21,-0.03 -0.3,-0.1 -0.2,-0.14 -0.26,-0.41 -0.15,-0.63 0.98,-1.96 1.98,-2.93 3.09,-2.95 1.1,-0.03 1.77,0.9 1.98,1.23 0.04,-0.36 0.05,-0.71 0.02,-1.05 -0.07,-0.63 -0.61,-1.1 -1.26,-1.09 z"
         id="path26"
         inkscape:connector-curvature="0"
         style="fill:#0a425a;fill-opacity:1" /><path
         d="m 46.26,62.88 c 0.31,0.06 0.61,0.16 0.9,0.28 -0.25,-0.19 -0.49,-0.3 -0.72,-0.3 -0.05,0 -0.12,0.01 -0.18,0.02 z"
         id="path28"
         inkscape:connector-curvature="0"
         style="fill:#0a425a;fill-opacity:1" /><path
         d="m 52.83,63.17 c 0.29,-0.12 0.59,-0.22 0.9,-0.28 -0.05,-0.01 -0.11,-0.02 -0.17,-0.02 -0.01,0 -0.01,0 -0.02,0 -0.22,0 -0.46,0.1 -0.71,0.3 z"
         id="path30"
         inkscape:connector-curvature="0"
         style="fill:#0a425a;fill-opacity:1" /></g></g><g
     transform="matrix(0.02966911,0,0,0.02966911,17.727463,58.045844)"
     id="g14"
     style="fill:#0a425a;fill-opacity:1"><path
       style="fill:#0a425a;fill-opacity:1"
       inkscape:connector-curvature="0"
       d="m 499.022,374.269 10.842,0.04 c -3.707,0 -7.572,-0.524 -11.58,-1.402 0.252,0.45 0.494,0.907 0.738,1.362 z"
       id="path2-1" /><path
       style="fill:#0a425a;fill-opacity:1"
       inkscape:connector-curvature="0"
       d="m 330.797,373.654 3.514,0.013 c 0.138,-0.251 0.271,-0.505 0.408,-0.754 -1.323,0.29 -2.63,0.535 -3.922,0.741 z"
       id="path4-5" /><path
       inkscape:connector-curvature="0"
       d="m 450.422,663.583 c 0.123,-0.162 0.244,-0.338 0.365,-0.501 H 382.22 c 0.123,0.163 0.243,0.339 0.365,0.501 -54.893,15.881 -95.377,69.322 -95.377,132.64 0,69.491 53.318,197.842 129.296,197.842 75.979,0 129.301,-128.351 129.301,-197.842 0,-63.318 -40.486,-116.76 -95.383,-132.64 z"
       id="path6-9"
       style="fill:#0a425a;fill-opacity:1" /><path
       inkscape:connector-curvature="0"
       d="M 330.797,373.654 316.108,373.6 c 4.625,0.974 9.529,0.876 14.689,0.054 z"
       id="path8-8"
       style="fill:#0a425a;fill-opacity:1" /><path
       inkscape:connector-curvature="0"
       d="m 498.286,372.906 c 4.006,0.878 7.871,1.402 11.578,1.402 6.955,0 13.367,-1.819 19.182,-6.468 11.594,-9.279 16.762,-26.913 16.762,-57.183 0,-45.142 -11.578,-86.514 -30.736,-118.489 30.834,-11.374 62.492,-14.59 95.617,-9.797 4.408,0.635 8.771,-1.367 11.488,-5.277 2.717,-3.906 3.373,-9.121 1.73,-13.707 -16.588,-46.22 -19.02,-91.958 -7.428,-139.833 1.795,-7.426 -2.15,-15.072 -8.816,-17.079 -6.641,-1.973 -13.529,2.392 -15.324,9.823 -11.119,45.948 -10.529,91.749 1.719,136.456 -32.568,-1.774 -64.467,3.738 -95.389,16.479 -22.354,-26.142 -50.988,-41.863 -82.164,-41.863 -31.171,0 -59.801,15.718 -82.153,41.857 -30.925,-12.747 -62.83,-18.257 -95.399,-16.473 12.249,-44.702 12.838,-90.502 1.719,-136.456 -1.805,-7.431 -8.692,-11.801 -15.325,-9.823 -6.664,2.007 -10.611,9.647 -8.816,17.079 11.587,47.88 9.156,93.619 -7.426,139.833 -1.644,4.585 -0.987,9.801 1.729,13.707 2.722,3.911 7.116,5.923 11.491,5.277 33.128,-4.797 64.788,-1.579 95.622,9.795 -19.159,31.976 -30.737,73.349 -30.737,118.491 0,30.27 5.168,47.903 16.76,57.183 3.795,3.038 7.849,4.856 12.14,5.759 l 14.689,0.054 c 1.292,-0.206 2.599,-0.451 3.922,-0.741 -0.139,0.25 -0.271,0.503 -0.407,0.754 l 164.71,0.602 c -0.246,-0.454 -0.488,-0.911 -0.738,-1.362 z"
       id="path10-4"
       style="fill:#0a425a;fill-opacity:1" /><path
       inkscape:connector-curvature="0"
       d="M 818.084,579.752 743.227,556.283 663.45,460.899 c -2.971,-3.546 -7.504,-5.151 -11.883,-4.178 l -146.352,32.271 c 2.379,-13.483 4.115,-25.558 5.186,-35.22 l 123.551,-74.985 108.162,-18.714 c 4.506,-0.778 8.256,-4.109 9.775,-8.687 l 38.506,-115.947 c 2.299,-6.919 -1.113,-14.509 -7.625,-16.946 -6.535,-2.438 -13.65,1.189 -15.945,8.104 L 730.78,335.121 627.706,352.953 c -1.475,0.255 -2.893,0.784 -4.191,1.573 l -112.709,68.4 c -1.668,-12.745 -5.754,-24.714 -11.781,-35.41 l -164.711,-0.575 c -6.206,10.841 -10.41,23.01 -12.108,35.984 l -112.708,-68.4 c -1.297,-0.789 -2.716,-1.319 -4.191,-1.573 L 102.23,335.121 66.185,226.597 c -2.294,-6.915 -9.441,-10.542 -15.947,-8.104 -6.511,2.437 -9.924,10.027 -7.625,16.946 l 38.51,115.947 c 1.521,4.577 5.27,7.908 9.776,8.687 l 108.157,18.714 123.551,74.985 c 1.068,9.662 2.805,21.737 5.185,35.22 L 181.44,456.72 c -4.375,-0.984 -8.906,0.632 -11.882,4.177 l -79.773,95.382 -74.864,23.472 c -6.623,2.079 -10.408,9.466 -8.454,16.498 1.607,5.785 6.587,9.53 11.984,9.53 1.17,0 2.36,-0.178 3.54,-0.546 l 78.298,-24.547 c 2.243,-0.703 4.252,-2.058 5.809,-3.913 l 77.342,-92.479 149.93,33.059 c 3.386,15.637 7.467,32.079 12.219,48.161 l -104.65,19.352 c -4.644,0.859 -8.434,4.417 -9.812,9.201 l -46.049,160.035 -91.971,56.037 c -5.993,3.651 -8.063,11.769 -4.629,18.133 2.309,4.282 6.521,6.681 10.855,6.681 2.111,0 4.247,-0.567 6.205,-1.762 l 96.264,-58.657 c 2.756,-1.68 4.806,-4.41 5.738,-7.638 l 45.25,-157.255 101.04,-18.683 c 8.061,22.647 17.552,43.122 28.388,57.683 h 68.568 c 10.836,-14.563 20.328,-35.035 28.389,-57.683 l 101.041,18.683 45.248,157.254 c 0.934,3.229 2.982,5.959 5.738,7.639 l 96.27,58.657 c 1.959,1.194 4.096,1.762 6.205,1.762 4.334,0 8.547,-2.398 10.855,-6.681 3.434,-6.363 1.361,-14.481 -4.629,-18.131 L 647.926,754.102 601.875,594.067 c -1.377,-4.783 -5.168,-8.339 -9.811,-9.201 L 487.418,565.515 c 4.75,-16.081 8.832,-32.524 12.219,-48.161 l 149.93,-33.059 77.348,92.479 c 1.555,1.856 3.564,3.213 5.809,3.914 l 78.291,24.547 c 1.182,0.368 2.371,0.546 3.541,0.546 5.398,0 10.377,-3.744 11.984,-9.529 1.953,-7.034 -1.831,-14.422 -8.456,-16.5 z"
       id="path12-8"
       style="fill:#0a425a;fill-opacity:1" /></g><g
     transform="matrix(0.46485642,0,0,0.46485642,61.688302,62.543379)"
     id="g22"
     style="fill:#0a425a;fill-opacity:1"><path
       inkscape:connector-curvature="0"
       d="m 30.1,16.1 c 1.4,1.3 2.5,2.8 3.3,4.8 3.9,-3.5 5.9,-8 6.3,-13.5 C 37.1,5.1 33.7,3.2 29.5,2 28.9,1.8 28.4,1.7 27.8,1.6 c 3.3,3.3 3.3,9.9 2.3,14.5 z"
       id="path2-0"
       style="fill:#0a425a;fill-opacity:1" /><path
       inkscape:connector-curvature="0"
       d="m 47.2,32.6 c -4.7,2.8 -10.4,4.6 -15.7,3.2 -1.1,1.4 -2.1,2.4 -3.5,3.3 5.9,3.1 12.4,3.8 18,0.8 0.7,-2.3 1.2,-4.8 1.5,-7.4 -0.1,0 -0.2,0 -0.3,0.1 z"
       id="path4-4"
       style="fill:#0a425a;fill-opacity:1" /><path
       inkscape:connector-curvature="0"
       d="m 21.1,12.6 c 0,0.1 0,0.1 0,0 0,0.1 0,0.1 0,0 2.7,0.1 5.4,0.9 7.7,2.5 1.3,-4.5 1.7,-9.8 -1.1,-13.6 -2.6,-0.6 -5.4,-0.7 -8,-0.3 -2.9,0.4 -5.5,1.3 -7.8,2.8 4.4,1 7.6,3.6 9.2,8.6 z"
       id="path6-4"
       style="fill:#0a425a;fill-opacity:1" /><path
       inkscape:connector-curvature="0"
       d="m 14.8,14.2 c 1.4,-0.8 2.8,-1.3 4.9,-1.4 C 18.6,8 15.8,5.4 11.9,4 8.1,6.4 5.6,10.1 3.9,14.3 6.6,11.9 11.5,13 14.8,14.2 Z"
       id="path8-4"
       style="fill:#0a425a;fill-opacity:1" /><path
       inkscape:connector-curvature="0"
       d="m 32.3,34.5 c 4.8,1.4 10.2,0.1 14.7,-2.2 0.2,-0.1 0.4,-0.2 0.5,-0.3 0.3,-3.3 0.2,-6.9 -0.6,-11 -0.1,-0.5 -0.2,-0.9 -0.3,-1.4 -1.4,2 -6.1,6.4 -12.3,9.4 v 0 c -0.4,2.3 -1.1,4 -2,5.5 z"
       id="path10-47"
       style="fill:#0a425a;fill-opacity:1" /><path
       inkscape:connector-curvature="0"
       d="m 33.9,22.4 c 0,0.1 0,0.1 0,0 0.4,1.6 0.6,3.3 0.5,4.9 6.2,-2.6 10.5,-6 12.1,-8.1 -1.2,-4.7 -3.4,-8.7 -6.8,-11.8 0.1,5.7 -1.5,10.8 -5.8,15 z"
       id="path12-6"
       style="fill:#0a425a;fill-opacity:1" /><path
       inkscape:connector-curvature="0"
       d="m 26.5,39.9 c -1.9,1 -4.1,1.6 -7.3,1.7 3.3,1.4 12.1,11.5 24.1,5.5 1,-2.3 1.9,-4.7 2.7,-7.1 -7.1,4.2 -15.9,2.3 -19.5,-0.1 z"
       id="path14-3"
       style="fill:#0a425a;fill-opacity:1" /><path
       inkscape:connector-curvature="0"
       d="M 30.4,18.2 C 28,15.5 24.7,14.1 21.1,14.1 14.2,14 10.7,19.1 10.2,23 c -0.2,1.7 0.1,3.4 0.8,4.9 1.1,2.1 4.3,5.3 8.2,5 C 28.3,32 24.1,18.5 17,21 c -3.4,1.2 -3.5,4.8 -2,6.7 5.3,6.3 8.4,-5 2.9,-4 -0.8,0.1 -1.5,0.7 -1.5,1.6 0,0.4 0.2,0.8 0.6,1 -0.4,-0.2 -0.6,-0.6 -0.7,-1 -0.1,-0.9 0.6,-1.6 1.5,-1.8 6.3,-1.6 2.8,11.9 -3.5,4.7 -2,-2.2 -1.8,-6.6 2.2,-8.2 9,-3.3 13.6,13.2 2.6,14.3 -3.8,0.3 -7.3,-2 -9.3,-5 -2.7,0.3 -3.8,1.9 -4,4.4 2.7,3.4 6.9,6.1 13,7.9 15,-1 17.7,-16.4 11.6,-23.4 z"
       id="path16-1"
       style="fill:#0a425a;fill-opacity:1" /><path
       inkscape:connector-curvature="0"
       d="m 9.7,19.6 c 0.8,-1.7 1.9,-3.2 3.6,-4.5 C 10.4,13.8 6.6,12.5 3.9,14.3 2.6,17.7 2,21.4 2.5,25 3.2,21.1 6.1,19.5 9.7,19.6 Z"
       id="path18-7"
       style="fill:#0a425a;fill-opacity:1" /><path
       inkscape:connector-curvature="0"
       d="M 9.2,28.1 C 9.3,28.1 9.4,28 9.5,28 8.6,25.9 8.4,23.5 9.2,21 5.7,20.5 3.6,22 2.5,25 c 0.1,0.6 0.2,1.2 0.3,1.8 0.6,2.5 1.7,4.8 3.3,6.9 -0.2,-2.5 0.4,-4.4 3.1,-5.6 z"
       id="path20-5"
       style="fill:#0a425a;fill-opacity:1" /></g></svg>