<?xml version="1.0" encoding="UTF-8" standalone="no"?>
<svg
   xmlns:dc="http://purl.org/dc/elements/1.1/"
   xmlns:cc="http://creativecommons.org/ns#"
   xmlns:rdf="http://www.w3.org/1999/02/22-rdf-syntax-ns#"
   xmlns:svg="http://www.w3.org/2000/svg"
   xmlns="http://www.w3.org/2000/svg"
   xmlns:sodipodi="http://sodipodi.sourceforge.net/DTD/sodipodi-0.dtd"
   xmlns:inkscape="http://www.inkscape.org/namespaces/inkscape"
   height="100px"
   width="100px"
   fill="#000000"
   version="1.1"
   x="0px"
   y="0px"
   viewBox="0 0 100 100"
   style="enable-background:new 0 0 100 100;"
   xml:space="preserve"
   id="svg4"
   sodipodi:docname="respiratoire.svg"
   inkscape:version="0.92.4 (5da689c313, 2019-01-14)"><metadata
     id="metadata10"><rdf:RDF><cc:Work
         rdf:about=""><dc:format>image/svg+xml</dc:format><dc:type
           rdf:resource="http://purl.org/dc/dcmitype/StillImage" /><dc:title></dc:title></cc:Work></rdf:RDF></metadata><defs
     id="defs8" /><sodipodi:namedview
     pagecolor="#ffffff"
     bordercolor="#666666"
     borderopacity="1"
     objecttolerance="10"
     gridtolerance="10"
     guidetolerance="10"
     inkscape:pageopacity="0"
     inkscape:pageshadow="2"
     inkscape:window-width="1920"
     inkscape:window-height="1043"
     id="namedview6"
     showgrid="false"
     inkscape:zoom="2.36"
     inkscape:cx="50"
     inkscape:cy="50"
     inkscape:window-x="1920"
     inkscape:window-y="0"
     inkscape:window-maximized="1"
     inkscape:current-layer="svg4" /><path
     d="M 71.081333,57.518163 44.364244,17.900537 46.425277,14.847156 c 1.450356,-2.213702 3.511389,-3.893062 5.954094,-4.9617455 L 63.600548,5 H 48.33364 C 44.440579,5 40.623852,6.5266908 37.875808,9.3510687 l -8.625802,8.5494683 h -0.07634 l -6.56477,-4.732741 c -0.763346,-0.534342 -1.67936,-0.83968 -2.671709,-0.83968 h -5.725091 l 4.732742,11.755519 c 0.610676,1.450356 2.061032,2.442705 3.587723,2.442705 h 6.71744 v 2.137367 h -6.71744 c -2.442705,0 -4.656407,-1.526691 -5.648756,-3.816727 L 14.059432,17.900537 H 7.8 v 55.800548 l 12.900537,-4.274734 h 32.136841 c 1.374022,1.374022 3.206051,2.137367 5.190749,2.137367 4.04573,0 7.938792,-1.52669 10.915839,-4.198399 l 0.992349,-0.916015 c 2.595374,-2.290036 3.053382,-6.106763 1.145018,-8.931141 z M 48.867982,37.900186 c -3.20605,0.992349 -6.641105,-0.68701 -7.786123,-3.816727 v -0.07633 h 6.106763 l 2.442706,3.587723 z m 16.335592,21.297337 v 3.129716 h -3.206051 c 0.07633,-1.67936 1.450356,-3.129716 3.206051,-3.129716 z"
     id="path2"
     inkscape:connector-curvature="0"
     style="stroke-width:0.76334542;fill:#0a425a;fill-opacity:1" /><g
     id="g854"
     transform="matrix(0.52932453,0,0,0.52932453,22.309162,5.629389)"
     style="fill:#0a425a;fill-opacity:1"><path
       style="fill:#0a425a;stroke-width:1.5625;fill-opacity:1"
       inkscape:connector-curvature="0"
       d="m 113.77859,134.96634 0.35313,-0.1 0.31562,-0.0563 0.20157,0.0297 c 0.22343,0.0328 0.44843,0.12187 0.64218,0.25937 0.36094,0.27032 0.74688,0.44063 1.22188,0.64844 0.27969,0.12188 0.55937,0.24375 0.83906,0.36563 0.59375,0.25781 1.18906,0.51562 1.78438,0.7875 0.86406,0.39531 1.62656,0.95312 2.26875,1.65625 0.83906,0.92187 1.20468,1.85312 1.00468,2.55937 -0.12656,0.44375 -0.46406,0.78281 -0.97812,0.97969 -0.41094,0.15937 -0.92813,0.19844 -1.49531,0.1125 -1.15157,-0.17188 -2.45469,-0.83125 -3.46094,-1.74219 -0.42031,-0.35312 -0.77656,-0.78125 -1.00313,-1.20937 -0.25468,-0.4875 -0.47343,-0.9625 -0.72187,-1.52188 -0.0828,-0.18594 -0.15469,-0.36875 -0.22656,-0.55156 -0.18594,-0.47969 -0.34688,-0.89531 -0.73438,-1.35156 -0.15469,-0.18125 -0.20156,-0.40157 -0.12656,-0.59063 z"
       id="path4" /><path
       style="fill:#0a425a;stroke-width:1.5625;fill-opacity:1"
       inkscape:connector-curvature="0"
       d="m 88.980162,128.66634 0.3625,-0.0969 0.30156,-0.0531 0.2,0.0297 c 0.22187,0.0328 0.44687,0.12187 0.63281,0.25469 0.32656,0.24531 0.68125,0.40156 1.12031,0.59375 0.25782,0.1125 0.51563,0.225 0.77344,0.33593 0.55469,0.24063 1.10938,0.48125 1.66563,0.73594 0.8125,0.37188 1.52812,0.89531 2.12968,1.55469 0.78907,0.86719 1.13438,1.74687 0.94375,2.4125 -0.12031,0.42344 -0.44375,0.74844 -0.93593,0.9375 -0.39532,0.15312 -0.88907,0.19062 -1.43125,0.10937 v 0 c -1.08594,-0.1625 -2.31094,-0.78125 -3.25625,-1.63593 -0.39688,-0.33282 -0.73125,-0.7375 -0.94375,-1.13907 -0.23907,-0.45625 -0.44219,-0.89687 -0.67188,-1.41562 -0.0781,-0.17344 -0.14375,-0.34375 -0.21094,-0.51406 -0.17187,-0.44219 -0.32031,-0.825 -0.67187,-1.23907 -0.15625,-0.18125 -0.20469,-0.40312 -0.12813,-0.59218 z"
       id="path6" /><path
       style="fill:#0a425a;stroke-width:1.5625;fill-opacity:1"
       inkscape:connector-curvature="0"
       d="m 127.08016,125.12572 0.3625,-0.0969 0.30156,-0.0516 0.2,0.0297 c 0.22344,0.0328 0.44688,0.12187 0.63281,0.25468 0.32657,0.24532 0.68125,0.40157 1.12032,0.59375 0.25781,0.1125 0.51562,0.225 0.77343,0.33594 0.55469,0.24063 1.10938,0.48125 1.66563,0.73594 0.8125,0.37187 1.52812,0.89531 2.12969,1.55469 0.78906,0.86718 1.13437,1.74687 0.94375,2.4125 -0.12032,0.42343 -0.44375,0.74843 -0.93594,0.9375 -0.39531,0.15312 -0.88906,0.19062 -1.43125,0.10937 v 0 c -1.08594,-0.1625 -2.31094,-0.78125 -3.25625,-1.63594 -0.39688,-0.33281 -0.73125,-0.7375 -0.94375,-1.13906 -0.23906,-0.45625 -0.44219,-0.89687 -0.67188,-1.41562 -0.0781,-0.17344 -0.14375,-0.34375 -0.21093,-0.51407 -0.17188,-0.44218 -0.32032,-0.825 -0.67188,-1.23906 -0.15625,-0.18125 -0.20469,-0.40312 -0.12812,-0.59219 z"
       id="path8" /><path
       style="fill:#0a425a;stroke-width:1.5625;fill-opacity:1"
       inkscape:connector-curvature="0"
       d="m 111.17547,115.89915 0.3625,-0.0969 0.30156,-0.0531 0.2,0.0297 c 0.22188,0.0328 0.44688,0.12188 0.63281,0.25469 0.32657,0.24687 0.68125,0.40156 1.12032,0.59375 0.25781,0.1125 0.51562,0.225 0.77343,0.33594 0.55469,0.24062 1.10938,0.48125 1.66563,0.73593 0.8125,0.37188 1.52812,0.89532 2.12969,1.55469 0.78906,0.86719 1.13437,1.74688 0.94375,2.4125 -0.12032,0.42344 -0.44375,0.74844 -0.93594,0.9375 -0.39531,0.15313 -0.88906,0.19063 -1.43125,0.10938 v 0 c -1.08594,-0.1625 -2.31094,-0.78125 -3.25625,-1.63594 -0.39688,-0.33281 -0.73125,-0.7375 -0.94375,-1.13906 -0.23906,-0.45625 -0.44219,-0.89688 -0.67188,-1.41563 -0.0781,-0.17344 -0.14375,-0.34375 -0.21093,-0.51406 -0.17188,-0.44219 -0.32032,-0.825 -0.67188,-1.23906 -0.15625,-0.18125 -0.20469,-0.40313 -0.12812,-0.59219 z"
       id="path10" /><path
       style="fill:#0a425a;stroke-width:1.5625;fill-opacity:1"
       inkscape:connector-curvature="0"
       d="m 131.97235,138.62259 c 0.425,0.0641 0.8625,-0.0531 1.12031,-0.33437 0.36875,-0.40157 0.22812,-0.9875 -0.31563,-1.30782 L 99.531722,117.37884 c -0.54063,-0.31875 -1.27969,-0.25312 -1.65,0.15 -0.36719,0.40156 -0.22656,0.9875 0.31562,1.30781 l 33.245318,19.60157 c 0.16406,0.0953 0.34531,0.15625 0.52969,0.18437 z"
       id="path12" /><path
       style="fill:#0a425a;stroke-width:1.5625;fill-opacity:1"
       inkscape:connector-curvature="0"
       d="m 109.56141,134.23353 c 0.425,0.0641 0.8625,-0.0531 1.12031,-0.33438 0.36875,-0.40156 0.22812,-0.9875 -0.31563,-1.30781 L 91.636412,121.80228 c -0.54063,-0.31875 -1.27969,-0.25313 -1.65,0.15 -0.36719,0.40156 -0.22657,0.9875 0.31562,1.30781 l 18.729688,10.78906 c 0.16406,0.0969 0.34531,0.15782 0.52969,0.18438 z"
       id="path14" /><path
       style="fill:#0a425a;stroke-width:1.5625;fill-opacity:1"
       inkscape:connector-curvature="0"
       d="m 115.79891,151.6679 c 0.425,0.0641 0.8625,-0.0531 1.12031,-0.33437 0.36875,-0.40156 0.22812,-0.9875 -0.31563,-1.30781 L 97.873912,139.23665 c -0.54063,-0.31875 -1.27969,-0.25312 -1.65,0.15 -0.36719,0.40157 -0.22657,0.9875 0.31562,1.30782 l 18.729688,10.78906 c 0.16406,0.0969 0.34531,0.15781 0.52969,0.18437 z"
       id="path16" /></g></svg>