<?xml version="1.0" encoding="UTF-8" standalone="no"?>
<svg
   xmlns:dc="http://purl.org/dc/elements/1.1/"
   xmlns:cc="http://creativecommons.org/ns#"
   xmlns:rdf="http://www.w3.org/1999/02/22-rdf-syntax-ns#"
   xmlns:svg="http://www.w3.org/2000/svg"
   xmlns="http://www.w3.org/2000/svg"
   xmlns:sodipodi="http://sodipodi.sourceforge.net/DTD/sodipodi-0.dtd"
   xmlns:inkscape="http://www.inkscape.org/namespaces/inkscape"
   width="100"
   height="100"
   version="1.1"
   viewBox="0 0 26.458 26.458"
   id="svg18"
   sodipodi:docname="taux_haem.svg"
   inkscape:version="0.92.4 (5da689c313, 2019-01-14)">
  <defs
     id="defs22" />
  <sodipodi:namedview
     pagecolor="#ffffff"
     bordercolor="#666666"
     borderopacity="1"
     objecttolerance="10"
     gridtolerance="10"
     guidetolerance="10"
     inkscape:pageopacity="0"
     inkscape:pageshadow="2"
     inkscape:window-width="888"
     inkscape:window-height="480"
     id="namedview20"
     showgrid="false"
     inkscape:zoom="2.36"
     inkscape:cx="50"
     inkscape:cy="50"
     inkscape:window-x="643"
     inkscape:window-y="224"
     inkscape:window-maximized="0"
     inkscape:current-layer="svg18" />
  <metadata
     id="metadata2">
    <rdf:RDF>
      <cc:Work
         rdf:about="">
        <dc:format>image/svg+xml</dc:format>
        <dc:type
           rdf:resource="http://purl.org/dc/dcmitype/StillImage" />
        <dc:title></dc:title>
      </cc:Work>
    </rdf:RDF>
  </metadata>
  <g
     transform="translate(0 -270.54)"
     id="g16">
    <path
       d="m7.092 281.13c-0.55358-0.17011-1.1289-0.76526-1.4045-1.4528-0.29307-0.73124-0.37409-1.3036-0.36961-2.611 0.00377-1.0984 0.018185-1.2541 0.16824-1.8174 0.20272-0.76096 0.6294-1.6406 0.99069-2.0425 1.5915-1.7701 3.6289 0.14514 3.7788 3.5522 0.07493 1.7031-0.25951 3.0791-0.92346 3.7994-0.40972 0.4445-0.76593 0.59422-1.4618 0.61443-0.32189 9e-3 -0.67217-0.01-0.77841-0.0424zm1.5355-0.17063c1.0263-0.45397 1.5224-1.6873 1.5287-3.8008 0.0044-1.4797-0.28599-2.6192-0.9049-3.5502-0.441-0.66336-0.92024-0.97787-1.4901-0.97787-1.4489 0-2.6012 2.5243-2.3645 5.1801 0.1703 1.9113 0.74091 2.9429 1.793 3.2416 0.37539 0.10655 1.0917 0.0603 1.4378-0.0928zm-1.4352-5e-3c-0.75986-0.24839-1.3039-1.0126-1.5395-2.1624-0.55891-2.728 0.34369-5.6586 1.8604-6.0405 1.1766-0.29627 2.3115 1.3646 2.5144 3.6797 0.14676 1.6741-0.21678 3.349-0.87386 4.0261-0.37079 0.38207-0.67802 0.50886-1.2834 0.52964-0.28801 0.01-0.59313-5e-3 -0.67806-0.0325zm1.2489-0.10458c0.879-0.29951 1.3909-1.3223 1.5209-3.0386 0.14536-1.9203-0.3361-3.7407-1.2097-4.5737-0.33168-0.31628-0.61497-0.44584-0.97441-0.4456-1.3001 9.3e-4 -2.3591 2.2571-2.2175 4.7245 0.1069 1.8624 0.6352 3.0128 1.529 3.3295 0.34353 0.12173 1.0003 0.1236 1.3518 4e-3zm-1.0647-0.26447c-0.13472-0.0722-0.26938-0.22135-0.36159-0.40043-0.12154-0.23605-0.17662-0.28536-0.3187-0.28536-0.19838 0-0.51417-0.24322-0.64548-0.49713-0.10326-0.19967-0.11619-0.47377-0.032722-0.69331 0.047158-0.12404 0.030448-0.17656-0.093101-0.29263-0.28701-0.26964-0.32568-0.76425-0.086093-1.1012 0.10225-0.14381 0.10199-0.15825-0.00539-0.30803-0.19436-0.2711-0.2061-0.55192-0.036964-0.88423 0.12731-0.25014 0.14083-0.32757 0.087541-0.50121-0.09443-0.30768-0.00957-0.62208 0.23351-0.86516 0.16334-0.16334 0.21266-0.26385 0.21266-0.43339 0-0.4361 0.37343-0.83067 0.78615-0.83067 0.1085 0 0.20111-0.0385 0.22168-0.0921 0.11201-0.2919 0.78586-0.43423 1.1541-0.24378 0.19872 0.10276 0.42485 0.42159 0.42523 0.59954 1.29e-4 0.0603 0.09691 0.19459 0.21509 0.29835 0.26924 0.23639 0.38359 0.57843 0.2865 0.85695-0.06298 0.18067-0.05297 0.21681 0.11214 0.40487 0.18694 0.2129 0.24902 0.42925 0.24563 0.85597-0.0012 0.13554 0.0156 0.38943 0.03706 0.56422 0.02879 0.23451 0.01187 0.37499-0.06455 0.53605-0.09497 0.20014-0.09543 0.22987-0.0056 0.35818 0.15991 0.2283 0.13002 0.74266-0.05601 0.96374-0.11246 0.13366-0.15412 0.25543-0.15442 0.45137-6.99e-4 0.4156-0.36828 0.85212-0.71857 0.85318-0.09688 2.3e-4 -0.14438 0.0489-0.17241 0.17657-0.03991 0.18169-0.27001 0.43428-0.5061 0.55558-0.20044 0.10298-0.51767 0.0838-0.75968-0.046zm0.78889-0.0639c0.23609-0.12121 0.48019-0.45222 0.4133-0.56044-0.02091-0.0338-0.09902-0.0615-0.1736-0.0615-0.07458 0-0.20724-0.0664-0.29479-0.14761-0.19238-0.17838-0.42636-0.17371-0.73284 0.0147-0.11859 0.0729-0.25027 0.13261-0.29263 0.13274-0.20871 7e-4 0.04427 0.45655 0.33995 0.61266 0.29183 0.15409 0.45489 0.15617 0.7406 9e-3zm-0.92485-0.77943c0.17602-0.12329 0.17255-0.17612-0.01724-0.26259-0.32644-0.14873-0.51731-0.78629-0.33652-1.1241 0.05596-0.10457 0.04276-0.11914-0.10781-0.11893-0.36259 4.6e-4 -0.75684 0.41755-0.75684 0.80064 0 0.22551 0.19441 0.56208 0.39551 0.6847 0.23067 0.14067 0.63673 0.15067 0.8229 0.0203zm1.8502-0.0289c0.21828-0.13308 0.38147-0.44153 0.3811-0.72031-4.66e-4 -0.37786-0.39551-0.75664-0.78903-0.75664-0.17744 0-0.17866 2e-3 -0.11699 0.2335 0.09676 0.36253 0.01371 0.64773-0.26081 0.89575-0.21943 0.19825-0.2309 0.22384-0.13687 0.30559 0.23106 0.20089 0.63215 0.21919 0.9226 0.0421zm-0.84752-0.40199c0.19184-0.18379 0.31999-0.52031 0.26448-0.69453-0.01809-0.0568-0.06039-0.1771-0.09403-0.26741l-0.06115-0.1642-0.21286 0.12559c-0.2561 0.1511-0.75585 0.12939-0.94415-0.041-0.11507-0.10414-0.12233-0.10002-0.215 0.12175-0.12354 0.29567-0.12094 0.44707 0.01191 0.69406 0.25615 0.47622 0.87312 0.58758 1.2508 0.22575zm1.4086-0.78961c0.22493-0.36394 0.13333-0.88602-0.19295-1.0998-0.36613-0.2399-0.84932-0.17934-0.84932 0.10643 0 0.0866-0.04158 0.25705-0.09241 0.37869-0.05082 0.12164-0.09224 0.22471-0.09203 0.22904 2.09e-4 4e-3 0.12446 0.0113 0.27612 0.0155 0.31865 9e-3 0.55477 0.143 0.69969 0.39774 0.05605 0.0985 0.10658 0.17932 0.11229 0.17953 0.0057 1.9e-4 0.06808-0.093 0.13861-0.2071zm-3.3617-0.19009c0.10899-0.0831 0.31146-0.16927 0.44992-0.19141l0.25175-0.0402-0.0902-0.18082c-0.0576-0.11546-0.082538-0.30791-0.068996-0.53246l0.021207-0.35164-0.20752-0.0199c-0.47255-0.0452-0.87058 0.30775-0.87058 0.77198 0 0.24587 0.18514 0.69561 0.28636 0.69561 0.016439 0 0.11907-0.068 0.22806-0.15116zm1.8631-0.12411c0.38678-0.25343 0.47455-0.79066 0.19011-1.1636-0.29016-0.38041-0.77922-0.43518-1.1441-0.12812-0.3483 0.29308-0.39713 0.751-0.11793 1.1059 0.25962 0.33005 0.7279 0.41121 1.072 0.18577zm1.6259-1.3487c-4.66e-4 -0.14026-0.02678-0.29586-0.05836-0.3458-0.04894-0.0774-0.07836-0.0717-0.19927 0.0385-0.32894 0.29982-0.73842 0.35445-1.0828 0.14446-0.11094-0.0676-0.2149-0.12298-0.23102-0.12298-0.08109 0-0.0095 0.16032 0.1555 0.34825 0.10165 0.11577 0.18482 0.23525 0.18482 0.2655 0 0.0303 0.1477 0.0398 0.32823 0.0211 0.23494-0.0242 0.37939-6e-3 0.50825 0.0634 0.16967 0.0917 0.18622 0.0899 0.28783-0.0301 0.0653-0.0771 0.10744-0.22791 0.10687-0.38235zm-3.2378 0.0738c0.27983-6e-3 0.28697-0.0105 0.25149-0.17202-0.020082-0.0914-0.00962-0.23697 0.023254-0.32343 0.057755-0.15191 0.050455-0.15825-0.21691-0.18839-0.17344-0.0195-0.33425-0.0853-0.43097-0.17613l-0.1543-0.14496-0.11772 0.15322c-0.14473 0.18838-0.1576 0.61117-0.026324 0.86503 0.089765 0.17359 0.10086 0.17764 0.23881 0.0873 0.079568-0.0521 0.27427-0.0974 0.43267-0.10058zm1.179-0.26725c0.36275 0 0.39639-0.0111 0.39639-0.13055 0-0.10154-0.04805-0.13835-0.2162-0.16564-0.11891-0.0193-0.29624-0.0921-0.39406-0.16173-0.1612-0.11478-0.19375-0.1184-0.34751-0.0386-0.09331 0.0484-0.19278 0.12449-0.22105 0.16907-0.06096 0.0961-0.06936 0.42951-0.01443 0.57267 0.03322 0.0866 0.06508 0.0761 0.21966-0.072 0.15992-0.15322 0.2266-0.17323 0.5772-0.17323zm1.4661 7e-3c0.25294-0.10568 0.45515-0.35631 0.50595-0.62709 0.07098-0.37833-0.25067-0.82552-0.66443-0.92376-0.16339-0.0388-0.16564-0.0354-0.10867 0.16323 0.1108 0.38634-0.11511 0.81685-0.54474 1.0381-0.12151 0.0626-0.13062 0.0879-0.06163 0.17098 0.09466 0.11406 0.40282 0.25761 0.56043 0.26108 0.06038 1e-3 0.20127-0.0358 0.31308-0.0825zm-0.7617-0.47237c0.21894-0.11237 0.38492-0.36811 0.41561-0.64038 0.06732-0.59728-0.48209-1.0304-1.0529-0.83002-0.19968 0.0701-0.25128 0.11667-0.23454 0.21171 0.08027 0.45573 0.07485 0.64945-0.02398 0.85772-0.10209 0.21514-0.1017 0.22778 0.0097 0.31329 0.24813 0.19051 0.61504 0.22681 0.88612 0.0877zm-1.2874-0.13656c0.2774-0.18476 0.45009-0.53892 0.39805-0.81633-0.15902-0.84763-1.3557-0.90534-1.579-0.0761-0.1883 0.69931 0.589 1.2867 1.1809 0.89247zm2.1994-1.2945c0.02324-0.35454-0.1087-0.62442-0.37171-0.76043-0.25358-0.13113-0.61629-0.13011-0.81838 2e-3 -0.14778 0.0968-0.39875 0.43883-0.39927 0.5441-1.3e-4 0.0254 0.1259 0.0462 0.28005 0.0462 0.3076 0 0.59073 0.11902 0.7191 0.30229 0.07363 0.10513 0.34115 0.18938 0.50996 0.16062 0.03388-6e-3 0.07-0.13857 0.08025-0.2951zm-1.8107-0.0357c0.0179-0.029-0.03511-0.11621-0.11779-0.19388-0.19496-0.18316-0.2996-0.50759-0.24962-0.77398 0.04503-0.24003 0.0093-0.25439-0.30535-0.1229-0.24793 0.10358-0.46084 0.41813-0.46122 0.68136-2.585e-4 0.18226 0.00378 0.18454 0.2924 0.16479 0.23349-0.016 0.33626 0.011 0.50829 0.13333 0.24166 0.1719 0.28656 0.18689 0.3333 0.11128zm0.39018-0.63899c0.18866-0.19893 0.50888-0.31704 0.7597-0.28023 0.21239 0.0312 0.22482-0.0323 0.05946-0.30346-0.23719-0.38901-0.74113-0.50072-1.1168-0.24756-0.28372 0.19119-0.37436 0.38581-0.34481 0.74029 0.01842 0.2209 0.06944 0.34227 0.20206 0.48069l0.17742 0.18519 0.05182-0.20347c0.0285-0.1119 0.12352-0.27906 0.21115-0.37145z"
       fill-opacity="0"
       stroke="#8f230a"
       stroke-width=".061606"
       id="path4" />
    <path
       d="m4.8777 293.15c-0.55922-0.17184-1.1404-0.77306-1.4188-1.4677-0.29606-0.7387-0.3779-1.3169-0.37337-2.6376 0.00381-1.1096 0.01837-1.2669 0.16995-1.8359 0.20478-0.76872 0.63581-1.6574 1.0008-2.0633 1.6077-1.7882 3.6659 0.14662 3.8173 3.5885 0.07569 1.7205-0.26216 3.1105-0.93288 3.8382-0.4139 0.44903-0.77374 0.60028-1.4767 0.62069-0.32517 9e-3 -0.67903-0.01-0.78634-0.0428zm1.5512-0.17237c1.0367-0.4586 1.5379-1.7045 1.5443-3.8396 0.0045-1.4948-0.28891-2.6459-0.91413-3.5864-0.4455-0.67012-0.92963-0.98784-1.5053-0.98784-1.4637 0-2.6277 2.55-2.3886 5.2329 0.17204 1.9308 0.74847 2.973 1.8112 3.2746 0.37922 0.10763 1.1028 0.0609 1.4525-0.0937zm-1.4498-5e-3c-0.76761-0.25093-1.3172-1.0229-1.5552-2.1845-0.56461-2.7558 0.34719-5.7163 1.8794-6.1021 1.1886-0.29929 2.335 1.3785 2.5401 3.7172 0.14826 1.6912-0.21899 3.3831-0.88277 4.0671-0.37457 0.38597-0.68493 0.51405-1.2965 0.53505-0.29094 0.01-0.59918-5e-3 -0.68498-0.0328zm1.2617-0.10565c0.88797-0.30256 1.4051-1.3358 1.5364-3.0696 0.14684-1.9399-0.33953-3.7788-1.222-4.6204-0.33506-0.31951-0.62124-0.45039-0.98435-0.45015-1.3134 9.4e-4 -2.3832 2.2801-2.2401 4.7727 0.10799 1.8814 0.64167 3.0435 1.5446 3.3635 0.34704 0.12297 1.0105 0.12486 1.3655 4e-3zm-1.0755-0.26716c-0.13609-0.073-0.27213-0.22361-0.36528-0.40453-0.12278-0.23845-0.17842-0.28826-0.32195-0.28826-0.2004 0-0.51942-0.2457-0.65206-0.5022-0.10431-0.20171-0.11738-0.4786-0.033056-0.70039 0.047639-0.1253 0.030759-0.17835-0.09405-0.29561-0.28994-0.27238-0.329-0.77205-0.086971-1.1125 0.10329-0.14527 0.10303-0.15986-0.00545-0.31117-0.19634-0.27345-0.2082-0.55713-0.037337-0.89283 0.12861-0.25269 0.14227-0.3309 0.088434-0.50632-0.095393-0.31082-0.00967-0.62842 0.23589-0.87398 0.165-0.165 0.21483-0.26654 0.21483-0.43781 0-0.44055 0.37724-0.83914 0.79417-0.83914 0.10961 0 0.20316-0.0389 0.22394-0.093 0.11316-0.29488 0.79387-0.43866 1.1659-0.24627 0.20075 0.10381 0.42918 0.4259 0.42956 0.60566 1.306e-4 0.0609 0.097903 0.19657 0.21728 0.30138 0.27199 0.23881 0.3875 0.58434 0.28942 0.8657-0.063623 0.18251-0.053511 0.21902 0.11329 0.40899 0.18885 0.21508 0.25156 0.43364 0.24814 0.86471-0.0012 0.13692 0.01576 0.3934 0.03744 0.56997 0.02909 0.23691 0.012 0.37881-0.06521 0.54152-0.09594 0.20218-0.09641 0.23221-0.0056 0.36183 0.16154 0.23063 0.13134 0.75024-0.05658 0.97357-0.11361 0.13502-0.1557 0.25803-0.15599 0.45597-7.057e-4 0.41984-0.37203 0.86081-0.72589 0.86189-0.097863 2.3e-4 -0.14585 0.0494-0.17417 0.17836-0.040313 0.18354-0.27276 0.43872-0.51126 0.56125-0.20249 0.10403-0.52295 0.0847-0.76743-0.0464zm0.79693-0.0645c0.23849-0.12245 0.48509-0.45683 0.41752-0.56616-0.021122-0.0342-0.10003-0.0621-0.17537-0.0621-0.075344 0-0.20935-0.0671-0.2978-0.14912-0.19434-0.1802-0.4307-0.17548-0.74031 0.0148-0.1198 0.0736-0.25283 0.13396-0.29561 0.13409-0.21084 7.1e-4 0.044721 0.46121 0.34342 0.61892 0.2948 0.15565 0.45953 0.15776 0.74816 0.01zm-0.93428-0.78738c0.17781-0.12454 0.17431-0.17791-0.017413-0.26526-0.32977-0.15026-0.52258-0.79432-0.33995-1.1356 0.056535-0.10564 0.043198-0.12035-0.10891-0.12015-0.36629 4.7e-4 -0.76456 0.42182-0.76456 0.80881 0 0.22781 0.19639 0.56781 0.39954 0.69169 0.23302 0.1421 0.64323 0.1522 0.83129 0.0205zm1.8691-0.0292c0.22051-0.13444 0.38536-0.44603 0.38499-0.72766-4.704e-4 -0.38171-0.39954-0.76436-0.79707-0.76436-0.17925 0-0.18049 2e-3 -0.11818 0.23589 0.097751 0.36622 0.013854 0.65433-0.26347 0.90489-0.22167 0.20027-0.23325 0.22611-0.13827 0.3087 0.23341 0.20294 0.6386 0.22143 0.93201 0.0425zm-0.85616-0.40609c0.19379-0.18566 0.32325-0.52561 0.26718-0.70161-0.018276-0.0574-0.06101-0.17891-0.094985-0.27014l-0.06177-0.16588-0.21503 0.12687c-0.25871 0.15264-0.76356 0.13071-0.95378-0.0414-0.11624-0.1052-0.12358-0.10104-0.21719 0.12299-0.1248 0.2987-0.12218 0.45164 0.012029 0.70114 0.25877 0.48108 0.88202 0.59357 1.2635 0.22806zm1.423-0.79766c0.22722-0.36765 0.13469-0.89506-0.19492-1.111-0.36986-0.24234-0.85798-0.18116-0.85798 0.10753 0 0.0875-0.04201 0.25966-0.093352 0.38254-0.051343 0.12288-0.09318 0.227-0.092971 0.23138 2.117e-4 4e-3 0.12573 0.0114 0.27894 0.0156 0.3219 9e-3 0.56043 0.14445 0.70683 0.4018 0.056623 0.0995 0.10767 0.18114 0.11343 0.18136 0.00576 1.8e-4 0.068779-0.0939 0.14003-0.20921zm-3.396-0.19162c0.11011-0.084 0.31464-0.171 0.45451-0.19336l0.25432-0.0407-0.091123-0.18266c-0.058188-0.11664-0.08338-0.31105-0.0697-0.53789l0.021423-0.35519-0.20964-0.0201c-0.47737-0.0457-0.87945 0.31089-0.87945 0.77985 0 0.24838 0.18703 0.7027 0.28928 0.7027 0.016606 0 0.12028-0.0687 0.23039-0.15269zm1.8821-0.12538c0.39072-0.25601 0.47939-0.79872 0.19205-1.1754-0.29312-0.3843-0.78716-0.43962-1.1558-0.12943-0.35185 0.29606-0.40118 0.75865-0.11913 1.1172 0.26227 0.33342 0.73533 0.4154 1.0829 0.18767zm1.6425-1.3625c-4.7e-4 -0.14168-0.02705-0.29887-0.05896-0.34932-0.04944-0.0782-0.07916-0.0724-0.20131 0.0389-0.3323 0.30288-0.74595 0.35807-1.0939 0.14594-0.11207-0.0683-0.21709-0.12424-0.23338-0.12424-0.081913 0-0.0096 0.16195 0.15709 0.3518 0.10269 0.11695 0.1867 0.23765 0.1867 0.26821 0 0.0306 0.14921 0.0402 0.33158 0.0214 0.23734-0.0245 0.38325-6e-3 0.51343 0.064 0.1714 0.0926 0.18812 0.0908 0.29077-0.0304 0.06596-0.0779 0.10853-0.23023 0.10796-0.38624zm-3.2708 0.0746c0.28269-6e-3 0.2899-0.0106 0.25406-0.17377-0.020287-0.0924-0.00971-0.2394 0.023491-0.32674 0.058344-0.15345 0.05097-0.15986-0.21912-0.1903-0.1752-0.0198-0.33766-0.0861-0.43537-0.17794l-0.15587-0.14643-0.11892 0.15478c-0.14621 0.1903-0.15921 0.61741-0.026593 0.87386 0.09068 0.17535 0.10189 0.17945 0.24124 0.0881 0.080379-0.0527 0.27707-0.0984 0.43709-0.1016zm1.191-0.26998c0.36645 0 0.40043-0.0112 0.40043-0.13188 0-0.10257-0.048545-0.13976-0.21841-0.16733-0.12013-0.0195-0.29926-0.093-0.39808-0.16337-0.16284-0.11596-0.19572-0.11961-0.35106-0.039-0.094263 0.0489-0.19475 0.12576-0.22331 0.17079-0.061584 0.0971-0.070068 0.43389-0.014574 0.57851 0.03356 0.0874 0.06574 0.0769 0.22191-0.0727 0.16155-0.15478 0.22891-0.175 0.58309-0.175zm1.4811 8e-3c0.25552-0.10676 0.45979-0.35994 0.51111-0.63348 0.0717-0.38219-0.25323-0.83395-0.6712-0.93319-0.16505-0.0392-0.16733-0.0358-0.10977 0.1649 0.11193 0.39028-0.11629 0.82518-0.55029 1.0487-0.12275 0.0632-0.13196 0.0888-0.062259 0.17273 0.095627 0.11522 0.40693 0.26024 0.56615 0.26374 0.060999 1e-3 0.20332-0.0362 0.31628-0.0834zm-0.76947-0.47719c0.22118-0.11351 0.38885-0.37186 0.41985-0.64691 0.068008-0.60337-0.48701-1.0409-1.0636-0.83848-0.20172 0.0708-0.25384 0.11786-0.23693 0.21387 0.081087 0.46037 0.075616 0.65607-0.024223 0.86647-0.10313 0.21733-0.10274 0.23009 0.00977 0.31648 0.25066 0.19245 0.62131 0.22912 0.89516 0.0886zm-1.3006-0.13839c0.28023-0.18665 0.45468-0.54442 0.40211-0.82465-0.16064-0.85628-1.3695-0.91458-1.5951-0.0769-0.19023 0.70644 0.59501 1.2999 1.193 0.90157zm2.2218-1.3077c0.023474-0.35814-0.10981-0.63078-0.3755-0.76818-0.25617-0.13247-0.62258-0.13144-0.82673 2e-3 -0.14928 0.0978-0.40281 0.44331-0.40334 0.54966-1.308e-4 0.0257 0.12718 0.0467 0.28291 0.0467 0.31074 0 0.59675 0.12024 0.72643 0.30538 0.074384 0.1062 0.34463 0.19131 0.51516 0.16225 0.034228-6e-3 0.07071-0.13998 0.081072-0.2981zm-1.8292-0.036c0.018079-0.0293-0.035466-0.11739-0.11899-0.19585-0.19695-0.18503-0.30265-0.51277-0.25217-0.78188 0.045489-0.24247 0.00944-0.25698-0.30846-0.12415-0.25045 0.10464-0.46554 0.42239-0.46592 0.68831-2.611e-4 0.18412 0.00382 0.18642 0.29538 0.16647 0.23587-0.0161 0.33969 0.0111 0.51347 0.13469 0.24412 0.17365 0.28949 0.18879 0.3367 0.11241zm0.39416-0.64551c0.19059-0.20095 0.51407-0.32027 0.76745-0.28308 0.21456 0.0315 0.22711-0.0326 0.060062-0.30655-0.23961-0.39298-0.74869-0.50583-1.1282-0.25009-0.28661 0.19314-0.37818 0.38975-0.34832 0.74784 0.018605 0.22315 0.070144 0.34576 0.20412 0.4856l0.17923 0.18707 0.052349-0.20554c0.028792-0.11305 0.12478-0.28191 0.2133-0.37525z"
       fill="#0a425a"
       stroke-width=".062234"
       id="path6" />
    <path
       d="m14.134 294.86c-0.55358-0.17011-1.1289-0.76526-1.4045-1.4528-0.29307-0.73124-0.37409-1.3036-0.3696-2.611 0.0038-1.0984 0.01818-1.2541 0.16824-1.8174 0.20272-0.76096 0.6294-1.6406 0.9907-2.0425 1.5915-1.7701 3.6289 0.14514 3.7788 3.5522 0.07493 1.7031-0.25951 3.0791-0.92346 3.7994-0.40972 0.4445-0.76593 0.59422-1.4618 0.61443-0.32189 9e-3 -0.67217-0.01-0.77841-0.0424zm1.5355-0.17063c1.0263-0.45397 1.5224-1.6873 1.5287-3.8008 0.0044-1.4797-0.28599-2.6192-0.9049-3.5502-0.441-0.66336-0.92024-0.97787-1.4901-0.97787-1.4489 0-2.6012 2.5243-2.3645 5.1801 0.1703 1.9113 0.74091 2.9429 1.793 3.2416 0.37539 0.10655 1.0917 0.0603 1.4378-0.0928zm-1.4352-5e-3c-0.75986-0.24839-1.3039-1.0126-1.5395-2.1624-0.5589-2.728 0.34369-5.6586 1.8604-6.0405 1.1766-0.29627 2.3115 1.3646 2.5144 3.6797 0.14676 1.6741-0.21678 3.349-0.87386 4.0261-0.37079 0.38207-0.67802 0.50886-1.2834 0.52964-0.28801 0.01-0.59313-5e-3 -0.67806-0.0325zm1.2489-0.10458c0.879-0.29951 1.3909-1.3223 1.5209-3.0386 0.14536-1.9203-0.3361-3.7407-1.2097-4.5737-0.33168-0.31628-0.61497-0.44584-0.97441-0.4456-1.3001 9.3e-4 -2.3591 2.2571-2.2175 4.7245 0.1069 1.8624 0.6352 3.0128 1.529 3.3295 0.34353 0.12173 1.0003 0.1236 1.3518 4e-3zm-1.0647-0.26447c-0.13472-0.0722-0.26938-0.22135-0.36159-0.40043-0.12154-0.23605-0.17662-0.28536-0.3187-0.28536-0.19838 0-0.51418-0.24322-0.64548-0.49713-0.10326-0.19967-0.11619-0.47377-0.03272-0.69331 0.04716-0.12404 0.03045-0.17656-0.0931-0.29263-0.28701-0.26964-0.32568-0.76425-0.08609-1.1012 0.10224-0.14381 0.10199-0.15825-0.0054-0.30803-0.19436-0.2711-0.2061-0.55192-0.03696-0.88423 0.12731-0.25014 0.14083-0.32757 0.08754-0.50121-0.09443-0.30768-0.0096-0.62208 0.23351-0.86516 0.16334-0.16334 0.21266-0.26385 0.21266-0.43339 0-0.4361 0.37343-0.83067 0.78615-0.83067 0.1085 0 0.20111-0.0385 0.22168-0.0921 0.11201-0.2919 0.78586-0.43423 1.1541-0.24378 0.19872 0.10276 0.42485 0.42159 0.42523 0.59954 1.29e-4 0.0603 0.09691 0.19459 0.21509 0.29835 0.26924 0.23639 0.38359 0.57843 0.2865 0.85695-0.06298 0.18067-0.05297 0.21681 0.11214 0.40487 0.18694 0.2129 0.24902 0.42925 0.24563 0.85597-0.0012 0.13554 0.0156 0.38943 0.03706 0.56422 0.02879 0.23451 0.01187 0.37499-0.06455 0.53605-0.09497 0.20014-0.09543 0.22987-0.0056 0.35818 0.15991 0.2283 0.13002 0.74266-0.05601 0.96374-0.11246 0.13366-0.15412 0.25543-0.15442 0.45137-6.88e-4 0.4156-0.36828 0.85212-0.71857 0.85318-0.09688 2.3e-4 -0.14438 0.0489-0.17241 0.17657-0.03991 0.18169-0.27001 0.43428-0.5061 0.55558-0.20044 0.10298-0.51767 0.0838-0.75968-0.046zm0.78889-0.0639c0.23609-0.12121 0.48019-0.45222 0.4133-0.56044-0.02091-0.0338-0.09902-0.0615-0.1736-0.0615-0.07458 0-0.20724-0.0664-0.29479-0.14761-0.19238-0.17838-0.42636-0.17371-0.73284 0.0147-0.11859 0.0729-0.25027 0.1326-0.29263 0.13273-0.20871 6.9e-4 0.04427 0.45656 0.33995 0.61267 0.29183 0.15408 0.45489 0.15616 0.7406 9e-3zm-0.92485-0.77943c0.17602-0.12329 0.17255-0.17612-0.01724-0.26259-0.32644-0.14873-0.51731-0.78629-0.33652-1.1241 0.05596-0.10457 0.04276-0.11914-0.10781-0.11893-0.36259 4.5e-4 -0.75684 0.41755-0.75684 0.80064 0 0.22551 0.19441 0.56208 0.39551 0.6847 0.23067 0.14067 0.63673 0.15067 0.8229 0.0203zm1.8502-0.0289c0.21828-0.13308 0.38147-0.44153 0.3811-0.72031-4.76e-4 -0.37786-0.39551-0.75664-0.78903-0.75664-0.17744 0-0.17866 2e-3 -0.11699 0.2335 0.09676 0.36253 0.01371 0.64773-0.26081 0.89575-0.21943 0.19825-0.2309 0.22384-0.13687 0.30559 0.23106 0.20089 0.63215 0.21919 0.9226 0.0421zm-0.84752-0.40199c0.19184-0.18379 0.31999-0.52031 0.26448-0.69453-0.01809-0.0568-0.06039-0.1771-0.09403-0.26741l-0.06115-0.1642-0.21286 0.12559c-0.2561 0.1511-0.75585 0.12939-0.94415-0.041-0.11507-0.10414-0.12233-0.10002-0.215 0.12175-0.12354 0.29567-0.12094 0.44707 0.01191 0.69406 0.25615 0.47622 0.87312 0.58758 1.2508 0.22575zm1.4086-0.78961c0.22493-0.36394 0.13333-0.88602-0.19295-1.0998-0.36613-0.2399-0.84932-0.17934-0.84932 0.10643 0 0.0866-0.04158 0.25705-0.09241 0.37869-0.05082 0.12164-0.09224 0.22471-0.09203 0.22904 2.09e-4 4e-3 0.12446 0.0113 0.27612 0.0155 0.31865 9e-3 0.55477 0.143 0.69969 0.39774 0.05605 0.0985 0.10658 0.17932 0.11229 0.17953 0.0057 1.9e-4 0.06808-0.093 0.13861-0.2071zm-3.3617-0.19009c0.109-0.0831 0.31146-0.16927 0.44992-0.19141l0.25175-0.0402-0.0902-0.18082c-0.0576-0.11546-0.08254-0.30791-0.069-0.53246l0.02121-0.35164-0.20752-0.0199c-0.47255-0.0452-0.87058 0.30775-0.87058 0.77198 0 0.24587 0.18514 0.69561 0.28636 0.69561 0.01644 0 0.11907-0.068 0.22806-0.15116zm1.8631-0.12411c0.38678-0.25343 0.47455-0.79066 0.19011-1.1636-0.29016-0.38041-0.77922-0.43518-1.1441-0.12812-0.3483 0.29308-0.39713 0.751-0.11793 1.1059 0.25962 0.33005 0.7279 0.41121 1.072 0.18577zm1.6259-1.3487c-4.77e-4 -0.14026-0.02678-0.29586-0.05836-0.3458-0.04894-0.0774-0.07836-0.0717-0.19927 0.0385-0.32894 0.29982-0.73842 0.35445-1.0828 0.14446-0.11094-0.0676-0.2149-0.12298-0.23102-0.12298-0.08109 0-0.0095 0.16032 0.1555 0.34825 0.10165 0.11577 0.18482 0.23525 0.18482 0.2655 0 0.0303 0.1477 0.0398 0.32823 0.0211 0.23494-0.0242 0.37938-6e-3 0.50825 0.0634 0.16967 0.0917 0.18622 0.0899 0.28783-0.0301 0.0653-0.0771 0.10744-0.22791 0.10687-0.38235zm-3.2378 0.0738c0.27983-6e-3 0.28697-0.0105 0.25149-0.17202-0.02008-0.0914-0.0096-0.23697 0.02325-0.32343 0.05776-0.15191 0.05046-0.15825-0.21691-0.18839-0.17344-0.0195-0.33425-0.0853-0.43098-0.17613l-0.1543-0.14496-0.11772 0.15322c-0.14473 0.18838-0.1576 0.61117-0.02632 0.86503 0.08976 0.17359 0.10086 0.17764 0.23881 0.0873 0.07957-0.0521 0.27427-0.0974 0.43267-0.10058zm1.179-0.26725c0.36275 0 0.39639-0.0111 0.39639-0.13055 0-0.10154-0.04805-0.13835-0.2162-0.16564-0.11891-0.0193-0.29624-0.0921-0.39406-0.16173-0.1612-0.11478-0.19375-0.1184-0.34751-0.0386-0.09331 0.0484-0.19278 0.12449-0.22105 0.16907-0.06096 0.0961-0.06936 0.42951-0.01443 0.57267 0.03322 0.0866 0.06508 0.0761 0.21966-0.072 0.15992-0.15322 0.2266-0.17323 0.5772-0.17323zm1.4661 7e-3c0.25294-0.10568 0.45515-0.35631 0.50595-0.62709 0.07098-0.37833-0.25067-0.82552-0.66443-0.92376-0.16339-0.0388-0.16564-0.0354-0.10867 0.16323 0.1108 0.38634-0.11511 0.81685-0.54474 1.0381-0.12151 0.0626-0.13062 0.0879-0.06163 0.17098 0.09466 0.11406 0.40282 0.25761 0.56043 0.26108 0.06038 1e-3 0.20127-0.0358 0.31308-0.0825zm-0.7617-0.47238c0.21894-0.11237 0.38492-0.36811 0.41561-0.64038 0.06732-0.59728-0.48209-1.0304-1.0529-0.83002-0.19968 0.0701-0.25128 0.11667-0.23454 0.21171 0.08027 0.45573 0.07485 0.64945-0.02398 0.85772-0.10209 0.21514-0.1017 0.22778 0.0097 0.31329 0.24813 0.19051 0.61504 0.22681 0.88612 0.0877zm-1.2874-0.13656c0.2774-0.18476 0.45009-0.53892 0.39805-0.81633-0.15902-0.84763-1.3557-0.90534-1.579-0.0761-0.1883 0.69931 0.589 1.2867 1.1809 0.89247zm2.1994-1.2945c0.02324-0.35454-0.1087-0.62442-0.37171-0.76043-0.25358-0.13113-0.61629-0.13011-0.81838 2e-3 -0.14778 0.0968-0.39875 0.43883-0.39927 0.5441-1.3e-4 0.0254 0.1259 0.0462 0.28005 0.0462 0.3076 0 0.59073 0.11902 0.7191 0.30229 0.07363 0.10513 0.34115 0.18938 0.50996 0.16062 0.03388-6e-3 0.07-0.13857 0.08025-0.2951zm-1.8107-0.0357c0.0179-0.029-0.03511-0.11621-0.11779-0.19388-0.19496-0.18316-0.2996-0.50759-0.24962-0.77398 0.04503-0.24003 0.0093-0.25439-0.30535-0.1229-0.24792 0.10358-0.46084 0.41813-0.46122 0.68136-2.59e-4 0.18226 0.0038 0.18454 0.2924 0.16479 0.23349-0.016 0.33626 0.011 0.50829 0.13333 0.24166 0.1719 0.28656 0.18689 0.3333 0.11128zm0.39018-0.63899c0.18866-0.19893 0.50888-0.31704 0.7597-0.28023 0.21239 0.0312 0.22482-0.0323 0.05946-0.30346-0.23719-0.38901-0.74113-0.50072-1.1168-0.24756-0.28372 0.19119-0.37436 0.38581-0.34481 0.74029 0.01842 0.2209 0.06944 0.34227 0.20206 0.48069l0.17742 0.18519 0.05182-0.20347c0.0285-0.1119 0.12352-0.27906 0.21115-0.37145z"
       fill-opacity="0"
       stroke="#8f230a"
       stroke-width=".061606"
       id="path8" />
    <path
       d="m20.407 281.27c-0.55922-0.17184-1.1404-0.77306-1.4188-1.4677-0.29606-0.7387-0.3779-1.3169-0.37338-2.6376 0.0038-1.1096 0.01837-1.2669 0.16995-1.8359 0.20478-0.76872 0.63581-1.6574 1.0008-2.0633 1.6077-1.7882 3.6659 0.14662 3.8173 3.5885 0.07569 1.7205-0.26216 3.1105-0.93288 3.8382-0.4139 0.44903-0.77374 0.60028-1.4767 0.62069-0.32517 9e-3 -0.67903-0.01-0.78634-0.0428zm1.5512-0.17237c1.0368-0.4586 1.5379-1.7045 1.5443-3.8396 0.0045-1.4948-0.28891-2.6459-0.91413-3.5864-0.4455-0.67012-0.92963-0.98784-1.5053-0.98784-1.4637 0-2.6277 2.55-2.3886 5.2329 0.17204 1.9308 0.74847 2.973 1.8112 3.2746 0.37922 0.10763 1.1028 0.0609 1.4525-0.0937zm-1.4498-5e-3c-0.76761-0.25093-1.3172-1.0229-1.5552-2.1845-0.5646-2.7558 0.34719-5.7163 1.8794-6.1021 1.1886-0.29929 2.335 1.3785 2.5401 3.7172 0.14826 1.6912-0.21899 3.3831-0.88277 4.0671-0.37457 0.38597-0.68493 0.51405-1.2965 0.53505-0.29094 0.01-0.59918-5e-3 -0.68498-0.0328zm1.2617-0.10565c0.88797-0.30256 1.4051-1.3358 1.5364-3.0696 0.14684-1.9399-0.33953-3.7788-1.222-4.6204-0.33506-0.31951-0.62124-0.45039-0.98435-0.45015-1.3134 9.4e-4 -2.3832 2.2801-2.2401 4.7727 0.10799 1.8814 0.64167 3.0435 1.5446 3.3635 0.34704 0.12297 1.0105 0.12486 1.3655 4e-3zm-1.0755-0.26716c-0.13609-0.073-0.27213-0.22361-0.36528-0.40453-0.12278-0.23845-0.17842-0.28826-0.32195-0.28826-0.2004 0-0.51942-0.2457-0.65206-0.5022-0.10431-0.20171-0.11738-0.4786-0.03306-0.70039 0.04764-0.1253 0.03076-0.17835-0.09405-0.29561-0.28994-0.27238-0.329-0.77205-0.08697-1.1125 0.10329-0.14527 0.10303-0.15986-0.0054-0.31117-0.19634-0.27345-0.2082-0.55713-0.03734-0.89283 0.12861-0.25269 0.14227-0.3309 0.08843-0.50632-0.09539-0.31082-0.0097-0.62842 0.23589-0.87398 0.165-0.165 0.21483-0.26654 0.21483-0.43781 0-0.44055 0.37724-0.83914 0.79417-0.83914 0.10961 0 0.20316-0.0389 0.22394-0.093 0.11316-0.29488 0.79387-0.43866 1.1659-0.24627 0.20075 0.10381 0.42918 0.4259 0.42956 0.60566 1.31e-4 0.0609 0.0979 0.19657 0.21728 0.30138 0.27199 0.23881 0.3875 0.58434 0.28942 0.8657-0.06362 0.18251-0.05351 0.21902 0.11329 0.40899 0.18884 0.21508 0.25156 0.43364 0.24814 0.86471-0.0012 0.13692 0.01576 0.3934 0.03744 0.56997 0.02909 0.23691 0.012 0.37881-0.06521 0.54152-0.09594 0.20218-0.09641 0.23221-0.0056 0.36183 0.16154 0.23063 0.13134 0.75024-0.05658 0.97357-0.11361 0.13502-0.1557 0.25803-0.156 0.45597-7.14e-4 0.41984-0.37203 0.86081-0.72589 0.86189-0.09786 2.3e-4 -0.14585 0.0494-0.17417 0.17836-0.04031 0.18354-0.27276 0.43872-0.51126 0.56125-0.20249 0.10403-0.52295 0.0847-0.76743-0.0464zm0.79693-0.0645c0.23849-0.12245 0.48509-0.45683 0.41752-0.56616-0.02112-0.0342-0.10003-0.0621-0.17537-0.0621-0.07534 0-0.20935-0.0671-0.2978-0.14912-0.19434-0.1802-0.4307-0.17548-0.74031 0.0148-0.1198 0.0736-0.25282 0.13397-0.29561 0.1341-0.21084 7.1e-4 0.04472 0.46121 0.34342 0.61891 0.2948 0.15566 0.45953 0.15776 0.74816 0.01zm-0.93428-0.78738c0.17781-0.12454 0.17431-0.17791-0.01741-0.26526-0.32977-0.15026-0.52258-0.79432-0.33995-1.1356 0.05654-0.10564 0.0432-0.12035-0.10891-0.12015-0.36629 4.8e-4 -0.76456 0.42182-0.76456 0.80881 0 0.22781 0.19639 0.56781 0.39954 0.69169 0.23302 0.1421 0.64322 0.1522 0.83129 0.0205zm1.8691-0.0292c0.22051-0.13444 0.38536-0.44603 0.38498-0.72766-4.76e-4 -0.38171-0.39954-0.76436-0.79707-0.76436-0.17925 0-0.18049 2e-3 -0.11818 0.23589 0.09775 0.36622 0.01385 0.65433-0.26347 0.90489-0.22167 0.20027-0.23325 0.22611-0.13826 0.3087 0.23341 0.20294 0.6386 0.22143 0.93201 0.0425zm-0.85616-0.40609c0.19379-0.18566 0.32325-0.52561 0.26718-0.70161-0.01827-0.0574-0.06101-0.17891-0.09498-0.27014l-0.06177-0.16588-0.21503 0.12687c-0.25871 0.15264-0.76356 0.13071-0.95378-0.0414-0.11624-0.1052-0.12358-0.10104-0.21719 0.12299-0.1248 0.2987-0.12218 0.45164 0.01203 0.70114 0.25876 0.48108 0.88202 0.59357 1.2635 0.22806zm1.423-0.79766c0.22722-0.36765 0.13469-0.89506-0.19492-1.111-0.36986-0.24234-0.85798-0.18116-0.85798 0.10753 0 0.0875-0.04201 0.25966-0.09335 0.38254s-0.09318 0.227-0.09297 0.23138c2.12e-4 4e-3 0.12573 0.0114 0.27894 0.0156 0.3219 9e-3 0.56043 0.14445 0.70682 0.4018 0.05662 0.0995 0.10767 0.18114 0.11343 0.18136 0.0058 1.8e-4 0.06878-0.0939 0.14003-0.20921zm-3.396-0.19162c0.11011-0.084 0.31464-0.171 0.45451-0.19336l0.25432-0.0407-0.09112-0.18266c-0.05819-0.11664-0.08338-0.31105-0.0697-0.53789l0.02142-0.35519-0.20964-0.0201c-0.47737-0.0457-0.87945 0.31089-0.87945 0.77985 0 0.24838 0.18703 0.7027 0.28928 0.7027 0.01661 0 0.12028-0.0687 0.23039-0.15269zm1.8821-0.12538c0.39072-0.25601 0.47939-0.79872 0.19204-1.1754-0.29312-0.3843-0.78716-0.43962-1.1558-0.12943-0.35185 0.29606-0.40118 0.75865-0.11913 1.1172 0.26227 0.33342 0.73533 0.4154 1.0829 0.18767zm1.6425-1.3625c-4.76e-4 -0.14168-0.02705-0.29887-0.05896-0.34932-0.04944-0.0782-0.07916-0.0724-0.20131 0.0389-0.3323 0.30288-0.74595 0.35807-1.0939 0.14594-0.11207-0.0683-0.21709-0.12424-0.23338-0.12424-0.08191 0-0.0096 0.16195 0.15709 0.3518 0.10269 0.11695 0.1867 0.23765 0.1867 0.26821 0 0.0306 0.14921 0.0402 0.33158 0.0214 0.23734-0.0245 0.38325-6e-3 0.51343 0.064 0.1714 0.0926 0.18812 0.0908 0.29077-0.0304 0.06596-0.0779 0.10853-0.23023 0.10796-0.38624zm-3.2708 0.0746c0.28269-6e-3 0.2899-0.0106 0.25406-0.17377-0.02029-0.0924-0.0097-0.2394 0.02349-0.32674 0.05834-0.15345 0.05097-0.15986-0.21912-0.1903-0.1752-0.0198-0.33766-0.0861-0.43537-0.17794l-0.15587-0.14643-0.11892 0.15478c-0.14621 0.1903-0.15921 0.61741-0.02659 0.87386 0.09068 0.17535 0.10189 0.17945 0.24124 0.0881 0.08038-0.0527 0.27707-0.0984 0.43709-0.1016zm1.191-0.26998c0.36645 0 0.40043-0.0112 0.40043-0.13188 0-0.10257-0.04855-0.13976-0.21841-0.16733-0.12012-0.0195-0.29926-0.093-0.39808-0.16337-0.16284-0.11596-0.19572-0.11961-0.35106-0.039-0.09426 0.0489-0.19475 0.12576-0.22331 0.17079-0.06158 0.0971-0.07007 0.43389-0.01457 0.57851 0.03356 0.0874 0.06574 0.0769 0.2219-0.0727 0.16155-0.15478 0.22891-0.175 0.58309-0.175zm1.4811 8e-3c0.25552-0.10676 0.45979-0.35994 0.5111-0.63348 0.0717-0.38219-0.25322-0.83395-0.6712-0.93319-0.16505-0.0392-0.16733-0.0358-0.10978 0.1649 0.11193 0.39028-0.11628 0.82518-0.55029 1.0487-0.12275 0.0632-0.13196 0.0888-0.06226 0.17273 0.09563 0.11522 0.40693 0.26024 0.56615 0.26374 0.061 1e-3 0.20332-0.0362 0.31628-0.0834zm-0.76947-0.4772c0.22118-0.11351 0.38884-0.37186 0.41985-0.64691 0.06801-0.60337-0.487-1.0409-1.0636-0.83848-0.20172 0.0708-0.25384 0.11786-0.23693 0.21387 0.08109 0.46037 0.07562 0.65607-0.02422 0.86647-0.10313 0.21733-0.10274 0.23009 0.0098 0.31648 0.25066 0.19245 0.62131 0.22912 0.89516 0.0886zm-1.3006-0.13839c0.28023-0.18665 0.45468-0.54442 0.40211-0.82465-0.16064-0.85628-1.3695-0.91458-1.5951-0.0769-0.19023 0.70644 0.59501 1.2999 1.193 0.90157zm2.2218-1.3077c0.02347-0.35814-0.10981-0.63078-0.3755-0.76818-0.25617-0.13247-0.62258-0.13144-0.82673 2e-3 -0.14928 0.0978-0.40282 0.44331-0.40334 0.54966-1.3e-4 0.0257 0.12718 0.0467 0.28291 0.0467 0.31074 0 0.59675 0.12024 0.72643 0.30538 0.07438 0.1062 0.34463 0.19131 0.51516 0.16225 0.03423-6e-3 0.07071-0.13998 0.08107-0.2981zm-1.8292-0.036c0.01808-0.0293-0.03547-0.11739-0.11899-0.19585-0.19695-0.18503-0.30265-0.51277-0.25217-0.78188 0.04549-0.24247 0.0094-0.25698-0.30846-0.12415-0.25045 0.10464-0.46554 0.42239-0.46592 0.68831-2.61e-4 0.18412 0.0038 0.18642 0.29538 0.16647 0.23587-0.0161 0.33969 0.0111 0.51347 0.13469 0.24412 0.17365 0.28949 0.18879 0.3367 0.11241zm0.39416-0.64551c0.19059-0.20095 0.51407-0.32027 0.76745-0.28308 0.21456 0.0315 0.22711-0.0326 0.06006-0.30655-0.23961-0.39298-0.74869-0.50583-1.1282-0.25009-0.28661 0.19314-0.37818 0.38975-0.34832 0.74784 0.0186 0.22315 0.07014 0.34576 0.20412 0.4856l0.17923 0.18707 0.05235-0.20554c0.02879-0.11305 0.12478-0.28191 0.2133-0.37525z"
       fill="#0a425a"
       stroke-width=".062234"
       id="path10" />
    <path
       d="m21.61 292.5c-0.55922-0.17184-1.1404-0.77306-1.4188-1.4677-0.29606-0.7387-0.3779-1.3169-0.37338-2.6376 0.0038-1.1096 0.01837-1.2669 0.16995-1.8359 0.20478-0.76872 0.63581-1.6574 1.0008-2.0633 1.6077-1.7882 3.6659 0.14662 3.8173 3.5885 0.07569 1.7205-0.26216 3.1105-0.93288 3.8382-0.4139 0.44903-0.77374 0.60028-1.4767 0.62069-0.32517 9e-3 -0.67903-0.01-0.78634-0.0428zm1.5512-0.17237c1.0368-0.4586 1.5379-1.7045 1.5443-3.8396 0.0045-1.4948-0.28891-2.6459-0.91413-3.5864-0.4455-0.67012-0.92963-0.98784-1.5053-0.98784-1.4637 0-2.6277 2.55-2.3886 5.2329 0.17204 1.9308 0.74847 2.973 1.8112 3.2746 0.37922 0.10763 1.1028 0.0609 1.4525-0.0937zm-1.4498-5e-3c-0.76761-0.25093-1.3172-1.0229-1.5552-2.1845-0.5646-2.7558 0.34719-5.7163 1.8794-6.1021 1.1886-0.29929 2.335 1.3785 2.5401 3.7172 0.14826 1.6912-0.21899 3.3831-0.88277 4.0671-0.37457 0.38597-0.68493 0.51405-1.2965 0.53505-0.29094 0.01-0.59918-5e-3 -0.68498-0.0328zm1.2617-0.10565c0.88797-0.30256 1.4051-1.3358 1.5364-3.0696 0.14684-1.9399-0.33953-3.7788-1.222-4.6204-0.33506-0.31951-0.62124-0.45039-0.98435-0.45015-1.3134 9.4e-4 -2.3832 2.2801-2.2401 4.7727 0.10799 1.8814 0.64167 3.0435 1.5446 3.3635 0.34704 0.12297 1.0105 0.12486 1.3655 4e-3zm-1.0755-0.26716c-0.13609-0.073-0.27213-0.22361-0.36528-0.40453-0.12278-0.23845-0.17842-0.28826-0.32195-0.28826-0.2004 0-0.51942-0.2457-0.65206-0.5022-0.10431-0.20171-0.11738-0.4786-0.03306-0.70039 0.04764-0.1253 0.03076-0.17835-0.09405-0.29561-0.28994-0.27238-0.329-0.77205-0.08697-1.1125 0.10329-0.14527 0.10303-0.15986-0.0055-0.31117-0.19634-0.27345-0.2082-0.55713-0.03734-0.89283 0.12861-0.25269 0.14227-0.3309 0.08843-0.50632-0.09539-0.31082-0.0097-0.62842 0.23589-0.87398 0.165-0.165 0.21483-0.26654 0.21483-0.43781 0-0.44055 0.37724-0.83914 0.79417-0.83914 0.10961 0 0.20316-0.0389 0.22394-0.093 0.11316-0.29488 0.79387-0.43866 1.1659-0.24627 0.20075 0.10381 0.42918 0.4259 0.42956 0.60566 1.31e-4 0.0609 0.0979 0.19657 0.21728 0.30138 0.27199 0.23881 0.3875 0.58434 0.28942 0.8657-0.06362 0.18251-0.05351 0.21902 0.11329 0.40899 0.18885 0.21508 0.25156 0.43364 0.24814 0.86471-0.0012 0.13692 0.01576 0.3934 0.03744 0.56997 0.02909 0.23691 0.012 0.37881-0.06521 0.54152-0.09594 0.20218-0.09641 0.23221-0.0056 0.36183 0.16154 0.23063 0.13134 0.75024-0.05658 0.97357-0.11361 0.13502-0.1557 0.25803-0.156 0.45597-7.14e-4 0.41984-0.37203 0.86081-0.72589 0.86189-0.09786 2.3e-4 -0.14585 0.0494-0.17417 0.17836-0.04031 0.18354-0.27276 0.43872-0.51126 0.56125-0.20249 0.10403-0.52295 0.0847-0.76743-0.0464zm0.79693-0.0645c0.2385-0.12245 0.48509-0.45683 0.41752-0.56616-0.02112-0.0342-0.10003-0.0621-0.17537-0.0621-0.07534 0-0.20935-0.0671-0.2978-0.14912-0.19434-0.1802-0.4307-0.17548-0.74031 0.0148-0.1198 0.0736-0.25283 0.13397-0.29561 0.1341-0.21084 7.1e-4 0.04472 0.46121 0.34342 0.61891 0.2948 0.15566 0.45953 0.15776 0.74816 0.01zm-0.93428-0.78738c0.17781-0.12454 0.17431-0.17791-0.01741-0.26526-0.32977-0.15026-0.52258-0.79432-0.33995-1.1356 0.05654-0.10564 0.0432-0.12035-0.10891-0.12015-0.36629 4.8e-4 -0.76456 0.42182-0.76456 0.80881 0 0.22781 0.1964 0.56781 0.39954 0.69169 0.23302 0.1421 0.64322 0.1522 0.83129 0.0205zm1.8691-0.0292c0.22051-0.13444 0.38536-0.44603 0.38499-0.72766-4.76e-4 -0.38171-0.39954-0.76436-0.79707-0.76436-0.17925 0-0.18049 2e-3 -0.11818 0.23589 0.09775 0.36622 0.01385 0.65433-0.26347 0.90489-0.22167 0.20027-0.23325 0.22611-0.13826 0.3087 0.23341 0.20294 0.6386 0.22143 0.93201 0.0425zm-0.85616-0.40609c0.19379-0.18566 0.32325-0.52561 0.26718-0.70161-0.01827-0.0574-0.06101-0.17891-0.09499-0.27014l-0.06177-0.16588-0.21503 0.12687c-0.25871 0.15264-0.76356 0.13071-0.95378-0.0414-0.11624-0.1052-0.12358-0.10104-0.21719 0.12299-0.1248 0.2987-0.12218 0.45164 0.01203 0.70114 0.25876 0.48108 0.88202 0.59357 1.2635 0.22806zm1.423-0.79766c0.22722-0.36765 0.13469-0.89506-0.19492-1.111-0.36986-0.24234-0.85798-0.18116-0.85798 0.10753 0 0.0875-0.04201 0.25966-0.09335 0.38254s-0.09318 0.227-0.09297 0.23138c2.12e-4 4e-3 0.12573 0.0114 0.27894 0.0156 0.3219 9e-3 0.56043 0.14445 0.70683 0.4018 0.05662 0.0995 0.10767 0.18114 0.11343 0.18136 0.0058 1.8e-4 0.06878-0.0939 0.14003-0.20921zm-3.396-0.19162c0.11011-0.084 0.31464-0.171 0.45451-0.19336l0.25432-0.0407-0.09112-0.18266c-0.05819-0.11664-0.08338-0.31105-0.0697-0.53789l0.02142-0.35519-0.20964-0.0201c-0.47737-0.0457-0.87945 0.31089-0.87945 0.77985 0 0.24838 0.18703 0.7027 0.28928 0.7027 0.01661 0 0.12028-0.0687 0.23039-0.15269zm1.8821-0.12538c0.39072-0.25601 0.47939-0.79872 0.19204-1.1754-0.29312-0.3843-0.78716-0.43962-1.1558-0.12943-0.35185 0.29606-0.40118 0.75865-0.11913 1.1172 0.26227 0.33342 0.73533 0.4154 1.0829 0.18767zm1.6425-1.3625c-4.76e-4 -0.14168-0.02705-0.29887-0.05896-0.34932-0.04944-0.0782-0.07916-0.0724-0.20131 0.0389-0.3323 0.30288-0.74595 0.35807-1.0939 0.14594-0.11207-0.0683-0.21709-0.12424-0.23338-0.12424-0.08191 0-0.0096 0.16195 0.15709 0.3518 0.10269 0.11695 0.1867 0.23765 0.1867 0.26821 0 0.0306 0.14921 0.0402 0.33158 0.0214 0.23734-0.0245 0.38326-6e-3 0.51343 0.064 0.1714 0.0926 0.18812 0.0908 0.29077-0.0304 0.06596-0.0779 0.10853-0.23023 0.10796-0.38624zm-3.2708 0.0746c0.28269-6e-3 0.2899-0.0106 0.25406-0.17377-0.02029-0.0924-0.0097-0.2394 0.02349-0.32674 0.05834-0.15345 0.05097-0.15986-0.21912-0.1903-0.1752-0.0198-0.33766-0.0861-0.43537-0.17794l-0.15587-0.14643-0.11892 0.15478c-0.14621 0.1903-0.15921 0.61741-0.02659 0.87386 0.09068 0.17535 0.10189 0.17945 0.24124 0.0881 0.08038-0.0527 0.27707-0.0984 0.43709-0.1016zm1.191-0.26998c0.36645 0 0.40043-0.0112 0.40043-0.13188 0-0.10257-0.04855-0.13976-0.21841-0.16733-0.12013-0.0195-0.29926-0.093-0.39808-0.16337-0.16284-0.11596-0.19572-0.11961-0.35106-0.039-0.09426 0.0489-0.19475 0.12576-0.22331 0.17079-0.06158 0.0971-0.07007 0.43389-0.01457 0.57851 0.03356 0.0874 0.06574 0.0769 0.22191-0.0727 0.16155-0.15478 0.22891-0.175 0.58309-0.175zm1.4811 8e-3c0.25552-0.10676 0.45979-0.35994 0.5111-0.63348 0.0717-0.38219-0.25322-0.83395-0.6712-0.93319-0.16505-0.0392-0.16733-0.0358-0.10978 0.1649 0.11193 0.39028-0.11628 0.82518-0.5503 1.0487-0.12275 0.0632-0.13196 0.0888-0.06226 0.17273 0.09563 0.11522 0.40693 0.26024 0.56615 0.26374 0.061 1e-3 0.20332-0.0362 0.31628-0.0834zm-0.76947-0.4772c0.22118-0.11351 0.38885-0.37186 0.41985-0.64691 0.06801-0.60337-0.48701-1.0409-1.0636-0.83848-0.20172 0.0708-0.25384 0.11786-0.23693 0.21387 0.08109 0.46037 0.07562 0.65607-0.02422 0.86647-0.10313 0.21733-0.10274 0.23009 0.0098 0.31648 0.25066 0.19245 0.62131 0.22912 0.89516 0.0886zm-1.3006-0.13839c0.28023-0.18665 0.45468-0.54442 0.40211-0.82465-0.16064-0.85628-1.3695-0.91458-1.5951-0.0769-0.19022 0.70644 0.59501 1.2999 1.193 0.90157zm2.2218-1.3077c0.02347-0.35814-0.10981-0.63078-0.3755-0.76818-0.25617-0.13247-0.62258-0.13144-0.82673 2e-3 -0.14928 0.0978-0.40282 0.44331-0.40334 0.54966-1.31e-4 0.0257 0.12718 0.0467 0.28291 0.0467 0.31074 0 0.59675 0.12024 0.72643 0.30538 0.07438 0.1062 0.34463 0.19131 0.51516 0.16225 0.03423-6e-3 0.07071-0.13998 0.08107-0.2981zm-1.8292-0.036c0.01808-0.0293-0.03547-0.11739-0.11899-0.19585-0.19695-0.18503-0.30265-0.51277-0.25217-0.78188 0.04549-0.24247 0.0094-0.25698-0.30846-0.12415-0.25045 0.10464-0.46554 0.42239-0.46592 0.68831-2.62e-4 0.18412 0.0038 0.18642 0.29538 0.16647 0.23587-0.0161 0.33969 0.0111 0.51347 0.13469 0.24412 0.17365 0.28949 0.18879 0.3367 0.11241zm0.39416-0.64551c0.19059-0.20095 0.51407-0.32027 0.76745-0.28308 0.21456 0.0315 0.22711-0.0326 0.06006-0.30655-0.23961-0.39298-0.74869-0.50583-1.1282-0.25009-0.28661 0.19314-0.37818 0.38975-0.34832 0.74784 0.0186 0.22315 0.07014 0.34576 0.20412 0.4856l0.17922 0.18707 0.05235-0.20554c0.02879-0.11305 0.12478-0.28191 0.2133-0.37525z"
       fill="#0a425a"
       stroke-width=".062234"
       id="path12" />
    <path
       d="m13.458 285.42c-0.55922-0.17184-1.1404-0.77306-1.4188-1.4677-0.29606-0.7387-0.3779-1.3169-0.37337-2.6376 0.0038-1.1096 0.01837-1.2669 0.16995-1.8359 0.20478-0.76872 0.63581-1.6574 1.0008-2.0633 1.6077-1.7882 3.6659 0.14662 3.8173 3.5885 0.07569 1.7205-0.26216 3.1105-0.93288 3.8382-0.4139 0.44903-0.77374 0.60028-1.4767 0.62069-0.32517 9e-3 -0.67903-0.01-0.78634-0.0428zm1.5512-0.17237c1.0368-0.4586 1.5379-1.7045 1.5443-3.8396 0.0045-1.4948-0.28891-2.6459-0.91413-3.5864-0.4455-0.67012-0.92963-0.98784-1.5053-0.98784-1.4637 0-2.6277 2.55-2.3886 5.2329 0.17204 1.9308 0.74847 2.973 1.8112 3.2746 0.37922 0.10763 1.1028 0.0609 1.4525-0.0937zm-1.4498-5e-3c-0.76761-0.25093-1.3172-1.0229-1.5552-2.1845-0.5646-2.7558 0.34719-5.7163 1.8794-6.1021 1.1886-0.29929 2.335 1.3785 2.5401 3.7172 0.14826 1.6912-0.21899 3.3831-0.88277 4.0671-0.37457 0.38597-0.68493 0.51405-1.2965 0.53505-0.29094 0.01-0.59918-5e-3 -0.68498-0.0328zm1.2617-0.10565c0.88797-0.30256 1.4051-1.3358 1.5364-3.0696 0.14684-1.9399-0.33953-3.7788-1.222-4.6204-0.33506-0.31951-0.62124-0.45039-0.98435-0.45015-1.3134 9.4e-4 -2.3832 2.2801-2.2401 4.7727 0.10799 1.8814 0.64167 3.0435 1.5446 3.3635 0.34704 0.12297 1.0105 0.12486 1.3655 4e-3zm-1.0755-0.26716c-0.13609-0.073-0.27213-0.22361-0.36528-0.40453-0.12278-0.23845-0.17842-0.28826-0.32195-0.28826-0.2004 0-0.51942-0.2457-0.65206-0.5022-0.10431-0.20171-0.11738-0.4786-0.03306-0.70039 0.04764-0.1253 0.03076-0.17835-0.09405-0.29561-0.28994-0.27238-0.329-0.77205-0.08697-1.1125 0.10329-0.14527 0.10303-0.15986-0.0054-0.31117-0.19634-0.27345-0.2082-0.55713-0.03734-0.89283 0.12861-0.25269 0.14227-0.3309 0.08843-0.50632-0.09539-0.31082-0.0097-0.62842 0.23589-0.87398 0.165-0.165 0.21483-0.26654 0.21483-0.43781 0-0.44055 0.37724-0.83914 0.79417-0.83914 0.10961 0 0.20316-0.0389 0.22394-0.093 0.11316-0.29488 0.79387-0.43866 1.1659-0.24627 0.20075 0.10381 0.42918 0.4259 0.42956 0.60566 1.31e-4 0.0609 0.0979 0.19657 0.21728 0.30138 0.27199 0.23881 0.3875 0.58434 0.28942 0.8657-0.06362 0.18251-0.05351 0.21902 0.11329 0.40899 0.18884 0.21508 0.25156 0.43364 0.24814 0.86471-0.0012 0.13692 0.01576 0.3934 0.03744 0.56997 0.02909 0.23691 0.012 0.37881-0.06521 0.54152-0.09594 0.20218-0.09641 0.23221-0.0056 0.36183 0.16154 0.23063 0.13134 0.75024-0.05658 0.97357-0.11361 0.13502-0.1557 0.25803-0.15599 0.45597-7.15e-4 0.41984-0.37203 0.86081-0.7259 0.86189-0.09786 2.3e-4 -0.14585 0.0494-0.17417 0.17836-0.04031 0.18354-0.27276 0.43872-0.51126 0.56125-0.20249 0.10403-0.52295 0.0847-0.76743-0.0464zm0.79693-0.0645c0.23849-0.12245 0.48509-0.45683 0.41752-0.56616-0.02112-0.0342-0.10003-0.0621-0.17537-0.0621-0.07534 0-0.20935-0.0671-0.2978-0.14912-0.19434-0.1802-0.4307-0.17548-0.74031 0.0148-0.1198 0.0736-0.25282 0.13397-0.29561 0.1341-0.21084 7.1e-4 0.04472 0.46121 0.34342 0.61891 0.2948 0.15566 0.45953 0.15776 0.74816 0.01zm-0.93428-0.78738c0.17781-0.12454 0.17431-0.17791-0.01741-0.26526-0.32977-0.15026-0.52258-0.79432-0.33995-1.1356 0.05654-0.10564 0.0432-0.12035-0.10891-0.12015-0.36629 4.8e-4 -0.76456 0.42182-0.76456 0.80881 0 0.22781 0.1964 0.56781 0.39954 0.69169 0.23302 0.1421 0.64322 0.1522 0.83129 0.0205zm1.8691-0.0292c0.22051-0.13444 0.38536-0.44603 0.38498-0.72766-4.76e-4 -0.38171-0.39954-0.76436-0.79707-0.76436-0.17925 0-0.18049 2e-3 -0.11818 0.23589 0.09775 0.36622 0.01385 0.65433-0.26347 0.90489-0.22167 0.20027-0.23325 0.22611-0.13826 0.3087 0.23342 0.20294 0.6386 0.22143 0.93201 0.0425zm-0.85616-0.40609c0.19379-0.18566 0.32325-0.52561 0.26718-0.70161-0.01828-0.0574-0.06101-0.17891-0.09499-0.27014l-0.06177-0.16588-0.21503 0.12687c-0.25871 0.15264-0.76356 0.13071-0.95378-0.0414-0.11624-0.1052-0.12358-0.10104-0.21719 0.12299-0.1248 0.2987-0.12218 0.45164 0.01203 0.70114 0.25877 0.48108 0.88202 0.59357 1.2635 0.22806zm1.423-0.79766c0.22722-0.36765 0.13469-0.89506-0.19492-1.111-0.36986-0.24234-0.85798-0.18116-0.85798 0.10753 0 0.0875-0.04201 0.25966-0.09335 0.38254s-0.09318 0.227-0.09297 0.23138c2.11e-4 4e-3 0.12573 0.0114 0.27894 0.0156 0.3219 9e-3 0.56043 0.14445 0.70682 0.4018 0.05662 0.0995 0.10767 0.18114 0.11343 0.18136 0.0058 1.8e-4 0.06878-0.0939 0.14003-0.20921zm-3.396-0.19162c0.11011-0.084 0.31464-0.171 0.45451-0.19336l0.25432-0.0407-0.09112-0.18266c-0.05819-0.11664-0.08338-0.31105-0.0697-0.53789l0.02142-0.35519-0.20964-0.0201c-0.47737-0.0457-0.87945 0.31089-0.87945 0.77985 0 0.24838 0.18703 0.7027 0.28928 0.7027 0.01661 0 0.12028-0.0687 0.23039-0.15269zm1.8821-0.12538c0.39072-0.25601 0.47939-0.79872 0.19205-1.1754-0.29312-0.3843-0.78716-0.43962-1.1558-0.12943-0.35185 0.29606-0.40118 0.75865-0.11913 1.1172 0.26227 0.33342 0.73533 0.4154 1.0829 0.18767zm1.6425-1.3625c-4.77e-4 -0.14168-0.02705-0.29887-0.05896-0.34932-0.04944-0.0782-0.07916-0.0724-0.20131 0.0389-0.3323 0.30288-0.74595 0.35807-1.0939 0.14594-0.11207-0.0683-0.21709-0.12424-0.23338-0.12424-0.08191 0-0.0096 0.16195 0.15709 0.3518 0.10269 0.11695 0.1867 0.23765 0.1867 0.26821 0 0.0306 0.14921 0.0402 0.33158 0.0214 0.23734-0.0245 0.38326-6e-3 0.51343 0.064 0.1714 0.0926 0.18812 0.0908 0.29077-0.0304 0.06596-0.0779 0.10853-0.23023 0.10796-0.38624zm-3.2708 0.0746c0.28269-6e-3 0.2899-0.0106 0.25406-0.17377-0.02029-0.0924-0.0097-0.2394 0.02349-0.32674 0.05834-0.15345 0.05097-0.15986-0.21912-0.1903-0.1752-0.0198-0.33766-0.0861-0.43537-0.17794l-0.15587-0.14643-0.11892 0.15478c-0.14621 0.1903-0.15921 0.61741-0.02659 0.87386 0.09068 0.17535 0.10189 0.17945 0.24124 0.0881 0.08038-0.0527 0.27707-0.0984 0.43709-0.1016zm1.191-0.26998c0.36645 0 0.40043-0.0112 0.40043-0.13188 0-0.10257-0.04855-0.13976-0.21841-0.16733-0.12013-0.0195-0.29926-0.093-0.39808-0.16337-0.16284-0.11596-0.19572-0.11961-0.35106-0.039-0.09426 0.0489-0.19475 0.12576-0.22331 0.17079-0.06158 0.0971-0.07007 0.43389-0.01457 0.57851 0.03356 0.0874 0.06574 0.0769 0.2219-0.0727 0.16155-0.15478 0.22891-0.175 0.58309-0.175zm1.4811 8e-3c0.25552-0.10676 0.45979-0.35994 0.51111-0.63348 0.0717-0.38219-0.25322-0.83395-0.6712-0.93319-0.16505-0.0392-0.16733-0.0358-0.10977 0.1649 0.11193 0.39028-0.11629 0.82518-0.5503 1.0487-0.12275 0.0632-0.13196 0.0888-0.06226 0.17273 0.09563 0.11522 0.40693 0.26024 0.56615 0.26374 0.061 1e-3 0.20332-0.0362 0.31628-0.0834zm-0.76947-0.4772c0.22118-0.11351 0.38884-0.37186 0.41985-0.64691 0.06801-0.60337-0.487-1.0409-1.0636-0.83848-0.20172 0.0708-0.25384 0.11786-0.23693 0.21387 0.08109 0.46037 0.07562 0.65607-0.02422 0.86647-0.10313 0.21733-0.10274 0.23009 0.0098 0.31648 0.25066 0.19245 0.62131 0.22912 0.89516 0.0886zm-1.3006-0.13839c0.28023-0.18665 0.45468-0.54442 0.40211-0.82465-0.16064-0.85628-1.3695-0.91458-1.5951-0.0769-0.19023 0.70644 0.59501 1.2999 1.193 0.90157zm2.2218-1.3077c0.02347-0.35814-0.10981-0.63078-0.3755-0.76818-0.25617-0.13247-0.62258-0.13144-0.82673 2e-3 -0.14928 0.0978-0.40282 0.44331-0.40334 0.54966-1.31e-4 0.0257 0.12718 0.0467 0.28291 0.0467 0.31074 0 0.59675 0.12024 0.72643 0.30538 0.07438 0.1062 0.34463 0.19131 0.51516 0.16225 0.03423-6e-3 0.07071-0.13998 0.08107-0.2981zm-1.8292-0.036c0.01808-0.0293-0.03547-0.11739-0.11899-0.19585-0.19695-0.18503-0.30265-0.51277-0.25217-0.78188 0.04549-0.24247 0.0094-0.25698-0.30846-0.12415-0.25045 0.10464-0.46554 0.42239-0.46592 0.68831-2.61e-4 0.18412 0.0038 0.18642 0.29538 0.16647 0.23587-0.0161 0.33969 0.0111 0.51347 0.13469 0.24412 0.17365 0.28949 0.18879 0.3367 0.11241zm0.39416-0.64551c0.19059-0.20095 0.51407-0.32027 0.76745-0.28308 0.21456 0.0315 0.22711-0.0326 0.06006-0.30655-0.23961-0.39298-0.74869-0.50583-1.1282-0.25009-0.28661 0.19314-0.37818 0.38975-0.34832 0.74784 0.01861 0.22315 0.07014 0.34576 0.20412 0.4856l0.17922 0.18707 0.05235-0.20554c0.02879-0.11305 0.12478-0.28191 0.2133-0.37525z"
       fill="#0a425a"
       stroke-width=".062234"
       id="path14" />
  </g>
</svg>
