<?xml version="1.0" encoding="UTF-8" standalone="no"?>
<svg
   xmlns:dc="http://purl.org/dc/elements/1.1/"
   xmlns:cc="http://creativecommons.org/ns#"
   xmlns:rdf="http://www.w3.org/1999/02/22-rdf-syntax-ns#"
   xmlns:svg="http://www.w3.org/2000/svg"
   xmlns="http://www.w3.org/2000/svg"
   xmlns:sodipodi="http://sodipodi.sourceforge.net/DTD/sodipodi-0.dtd"
   xmlns:inkscape="http://www.inkscape.org/namespaces/inkscape"
   height="135"
   width="171"
   version="1.1"
   x="0px"
   y="0px"
   viewBox="0 0 171 135"
   enable-background="new 0 0 100 100"
   xml:space="preserve"
   id="svg26"
   sodipodi:docname="idee.svg"
   inkscape:version="0.92.4 (5da689c313, 2019-01-14)"
   style="fill:#1a1a1a"><metadata
     id="metadata32"><rdf:RDF><cc:Work
         rdf:about=""><dc:format>image/svg+xml</dc:format><dc:type
           rdf:resource="http://purl.org/dc/dcmitype/StillImage" /><dc:title /></cc:Work></rdf:RDF></metadata><defs
     id="defs30" /><sodipodi:namedview
     pagecolor="#ffffff"
     bordercolor="#666666"
     borderopacity="1"
     objecttolerance="10"
     gridtolerance="10"
     guidetolerance="10"
     inkscape:pageopacity="0"
     inkscape:pageshadow="2"
     inkscape:window-width="1366"
     inkscape:window-height="745"
     id="namedview28"
     showgrid="false"
     inkscape:zoom="2.2627417"
     inkscape:cx="35.13371"
     inkscape:cy="45.63595"
     inkscape:window-x="-8"
     inkscape:window-y="-8"
     inkscape:window-maximized="1"
     inkscape:current-layer="svg26" /><g
     id="g851"
     transform="translate(35.301165,-7.8817125)"><path
       inkscape:connector-curvature="0"
       style="fill:#ffff00"
       id="path2"
       d="m 50.832,54.763 1.6,-4.921 c 0.226,-0.695 0.971,-1.076 1.666,-0.85 0.695,0.226 1.076,0.973 0.851,1.668 l -1.601,4.921 c -0.225,0.695 -0.972,1.076 -1.666,0.85 -0.696,-0.226 -1.077,-0.973 -0.85,-1.668 z" /><path
       inkscape:connector-curvature="0"
       style="fill:#ffff00"
       id="path4"
       d="m 38.598,48.992 c 0.695,-0.226 1.441,0.155 1.668,0.85 l 1.599,4.922 c 0.226,0.695 -0.155,1.442 -0.851,1.667 -0.694,0.226 -1.439,-0.155 -1.666,-0.851 l -1.6,-4.92 c -0.226,-0.696 0.153,-1.443 0.85,-1.668 z" /><path
       inkscape:connector-curvature="0"
       style="fill:#ffff00"
       id="path6"
       d="m 21.268,72.844 c 0,-0.731 0.593,-1.323 1.323,-1.323 h 5.173 c 0.731,0 1.324,0.592 1.324,1.323 0,0.731 -0.593,1.324 -1.324,1.324 H 22.591 C 21.86,74.167 21.268,73.575 21.268,72.844 Z" /><path
       inkscape:connector-curvature="0"
       style="fill:#ffff00"
       id="path8"
       d="m 32.091,84.837 -4.185,3.042 c -0.592,0.43 -1.419,0.299 -1.849,-0.292 -0.431,-0.592 -0.299,-1.419 0.293,-1.849 l 4.185,-3.042 c 0.593,-0.43 1.42,-0.3 1.849,0.292 0.429,0.593 0.299,1.42 -0.293,1.849 z" /><path
       inkscape:connector-curvature="0"
       style="fill:#ffff00"
       id="path10"
       d="m 32.384,62.701 c -0.429,0.591 -1.255,0.722 -1.847,0.292 L 26.35,59.952 c -0.593,-0.43 -0.724,-1.257 -0.293,-1.849 0.43,-0.592 1.257,-0.722 1.849,-0.292 l 4.186,3.042 c 0.591,0.428 0.722,1.256 0.292,1.848 z" /><path
       inkscape:connector-curvature="0"
       style="fill:#ffff00"
       id="path12"
       d="m 49.668,96.682 h -0.061 c 0.002,0.018 0.011,0.031 0.011,0.051 0,0.658 -0.533,1.19 -1.191,1.19 h -4.158 c -0.657,0 -1.189,-0.532 -1.189,-1.19 0,-0.02 0.01,-0.033 0.01,-0.051 h -0.062 c -0.657,0 -1.19,-0.533 -1.19,-1.193 0,-0.654 0.533,-1.189 1.19,-1.189 h 6.641 c 0.658,0 1.19,0.535 1.19,1.189 0,0.657 -0.533,1.193 -1.191,1.193 z" /><path
       inkscape:connector-curvature="0"
       style="fill:#ffff00"
       id="path14"
       d="m 50.803,93.469 h -8.91 c -0.657,0 -1.191,-0.533 -1.191,-1.189 0,-0.66 0.534,-1.192 1.191,-1.192 h 8.91 c 0.656,0 1.19,0.532 1.19,1.192 0,0.656 -0.534,1.189 -1.19,1.189 z" /><path
       inkscape:connector-curvature="0"
       style="fill:#ffff00"
       id="path16"
       d="m 53.814,82.659 c -0.852,1.104 -1.004,2.156 -1.151,3.173 -0.343,2.355 -0.938,3.786 -6.316,3.786 -5.376,0 -5.973,-1.431 -6.314,-3.786 -0.147,-1.018 -0.3,-2.07 -1.15,-3.173 -2.512,-3.262 -4.964,-6.734 -4.964,-10.185 0,-6.883 5.576,-12.483 12.429,-12.483 6.855,0 12.431,5.6 12.431,12.483 -0.002,3.447 -2.454,6.922 -4.965,10.185 z" /><path
       inkscape:connector-curvature="0"
       style="fill:#ffff00"
       id="path18"
       d="m 60.604,60.852 4.188,-3.042 c 0.591,-0.43 1.418,-0.3 1.848,0.292 0.43,0.592 0.299,1.419 -0.293,1.849 l -4.187,3.042 c -0.591,0.43 -1.418,0.298 -1.849,-0.292 -0.43,-0.593 -0.299,-1.42 0.293,-1.849 z" /><path
       inkscape:connector-curvature="0"
       style="fill:#ffff00"
       id="path20"
       d="m 66.637,87.587 c -0.429,0.593 -1.256,0.722 -1.847,0.292 l -4.185,-3.042 c -0.594,-0.43 -0.725,-1.256 -0.295,-1.848 0.431,-0.592 1.258,-0.722 1.85,-0.292 l 4.186,3.042 c 0.592,0.429 0.72,1.256 0.291,1.848 z" /><path
       inkscape:connector-curvature="0"
       style="fill:#ffff00"
       id="path22"
       d="M 70.104,74.167 H 64.93 c -0.729,0 -1.322,-0.593 -1.322,-1.324 0,-0.731 0.593,-1.323 1.322,-1.323 h 5.176 c 0.73,0 1.322,0.592 1.322,1.323 0,0.731 -0.592,1.324 -1.324,1.324 z" /><path
       inkscape:connector-curvature="0"
       style="fill:#4d4d4d"
       id="path24"
       d="m 89.924,86.792 c -0.99,-1.836 -2.357,-3.371 -3.679,-4.856 -2.173,-2.439 -4.05,-4.546 -4.05,-7.528 0,-1.185 0.259,-2.042 0.559,-3.035 0.355,-1.175 0.757,-2.506 0.757,-4.46 0,-5.067 -1.157,-9.291 -3.436,-12.553 C 73.328,44.697 62.451,40 46.823,40 33.33,40 21.393,45.582 14.89,54.931 c -4.265,6.135 -8.154,16.67 -2.465,31.986 1.848,5.3 5.202,9.051 7.895,12.065 2.484,2.779 4.447,4.974 4.447,7.267 0,2.562 -0.733,6.878 -2.371,10.748 -2.294,5.42 -3.231,7.235 -3.24,7.253 -0.73,1.402 -0.758,2.854 -0.075,3.979 0.682,1.125 1.981,1.771 3.561,1.771 h 37.862 c 0.079,0 0.157,-0.006 0.232,-0.018 0.078,0.012 0.157,0.018 0.233,0.018 0.467,0 0.928,-0.204 1.241,-0.596 1.808,-2.254 0.874,-7.598 0.545,-9.182 -0.153,-0.748 -0.032,-1.388 0.341,-1.804 0.375,-0.415 1.004,-0.601 1.76,-0.524 0.013,0 1.725,0.174 6.629,0.752 4.273,0.5 7.201,0.215 9.216,-0.898 5.104,-2.814 2.698,-7.488 1.542,-9.734 -0.202,-0.395 -0.467,-0.906 -0.578,-1.173 0.203,-0.135 0.555,-0.307 0.809,-0.43 1.039,-0.509 2.779,-1.359 2.779,-3.353 0,-0.895 -0.322,-1.518 -0.775,-1.957 1.073,-0.379 2.019,-1.098 2.019,-2.569 0,-1.5 -0.74,-2.437 -1.279,-3.119 -0.364,-0.461 -0.569,-0.735 -0.643,-1.089 0.304,-0.154 0.833,-0.34 1.213,-0.475 1.452,-0.514 3.26,-1.152 4.09,-2.81 0.713,-1.428 0.729,-2.976 0.046,-4.247 z m -2.892,2.824 c -0.255,0.508 -1.439,0.926 -2.304,1.231 -1.422,0.502 -3.367,1.189 -3.367,3.146 0,1.67 0.785,2.664 1.357,3.391 0.285,0.36 0.448,0.578 0.528,0.783 -0.371,0.096 -0.948,0.167 -1.302,0.211 -1.19,0.148 -3.406,0.426 -3.336,2.432 0.063,1.814 1.871,2.166 2.74,2.336 0.105,0.019 0.238,0.045 0.369,0.074 -0.21,0.117 -0.46,0.239 -0.644,0.329 -0.99,0.483 -2.646,1.292 -2.646,3.146 0,0.863 0.434,1.705 0.983,2.772 1.584,3.078 1.785,4.37 -0.25,5.492 -1.388,0.765 -3.776,0.937 -7.308,0.522 -4.957,-0.582 -6.678,-0.758 -6.679,-0.758 -1.763,-0.176 -3.387,0.392 -4.442,1.563 -1.057,1.171 -1.455,2.84 -1.096,4.58 0.467,2.258 0.58,4.751 0.321,5.947 H 22.641 c -0.549,0 -0.789,-0.154 -0.839,-0.237 -0.05,-0.082 -0.078,-0.367 0.176,-0.854 0.04,-0.074 0.988,-1.906 3.35,-7.484 1.936,-4.573 2.623,-9.316 2.623,-11.988 0,-3.508 -2.437,-6.232 -5.257,-9.389 C 20.058,93.913 17.07,90.57 15.42,85.84 11.288,74.714 12.009,64.654 17.505,56.75 23.411,48.255 34.372,43.183 46.823,43.183 c 14.511,0 24.534,4.253 30.646,13 1.897,2.718 2.86,6.328 2.86,10.73 0,1.484 -0.302,2.483 -0.619,3.541 -0.341,1.131 -0.694,2.299 -0.694,3.954 0,4.195 2.469,6.966 4.854,9.646 1.256,1.41 2.442,2.741 3.253,4.248 0.264,0.492 0.023,1.082 -0.091,1.314 z" /></g></svg>