<?xml version="1.0" encoding="UTF-8" standalone="no"?>
<svg
   xmlns:dc="http://purl.org/dc/elements/1.1/"
   xmlns:cc="http://creativecommons.org/ns#"
   xmlns:rdf="http://www.w3.org/1999/02/22-rdf-syntax-ns#"
   xmlns:svg="http://www.w3.org/2000/svg"
   xmlns="http://www.w3.org/2000/svg"
   xmlns:sodipodi="http://sodipodi.sourceforge.net/DTD/sodipodi-0.dtd"
   xmlns:inkscape="http://www.inkscape.org/namespaces/inkscape"
   height="135"
   width="171"
   version="1.1"
   x="0px"
   y="0px"
   viewBox="0 0 171 135"
   id="svg6"
   sodipodi:docname="landscaoe.svg"
   style="fill:#1a1a1a"
   inkscape:version="0.92.4 (5da689c313, 2019-01-14)">
  <metadata
     id="metadata12">
    <rdf:RDF>
      <cc:Work
         rdf:about="">
        <dc:format>image/svg+xml</dc:format>
        <dc:type
           rdf:resource="http://purl.org/dc/dcmitype/StillImage" />
        <dc:title></dc:title>
      </cc:Work>
    </rdf:RDF>
  </metadata>
  <defs
     id="defs10" />
  <sodipodi:namedview
     pagecolor="#ffffff"
     bordercolor="#666666"
     borderopacity="1"
     objecttolerance="10"
     gridtolerance="10"
     guidetolerance="10"
     inkscape:pageopacity="0"
     inkscape:pageshadow="2"
     inkscape:window-width="1366"
     inkscape:window-height="745"
     id="namedview8"
     showgrid="false"
     inkscape:zoom="1.9425549"
     inkscape:cx="55.046619"
     inkscape:cy="9.0267939"
     inkscape:window-x="-8"
     inkscape:window-y="-8"
     inkscape:window-maximized="1"
     inkscape:current-layer="g4" />
  <g
     transform="translate(0,-917.36218)"
     id="g4">
    <path
       d="m 86.035018,958.87892 v 2.16997 h -1.084825 v -2.16997 z m 2.135749,0.88153 0.779718,0.76285 -1.542458,1.54273 -0.762795,-0.77983 z m -5.356323,0 1.525535,1.52575 -0.762741,0.77983 -1.542512,-1.54273 z m 17.323296,1.06806 c 3.54646,2.32885 7.25515,4.68265 10.30584,6.67932 0,14.23795 0,28.35354 0,41.27307 -17.127054,0 -34.013765,0 -48.817124,0 0,-13.96352 0,-23.96212 0,-37.96723 h 2.16965 v 3.10239 c 1.388847,-0.17113 2.837305,-0.31683 4.3393,-0.4578 v -2.64459 h 2.16965 v 2.45811 c 1.420578,-0.11662 2.868602,-0.23069 4.3393,-0.32209 v -2.13602 h 2.16965 v 2.0174 c 1.080811,-0.0576 2.168185,-0.12524 3.254475,-0.16961 v -1.84779 h 2.169649 v 1.77998 c 1.093884,-0.0358 2.174369,-0.0622 3.254475,-0.0847 v -1.69526 h 2.16965 v 1.64438 c 0.733017,-0.009 1.45155,-0.0136 2.16965,-0.0168 0,-1.64443 0,-3.28887 0,-4.9333 3.67376,-2.40793 7.074525,-4.55578 10.305835,-6.67932 z m -14.645135,0.76285 c 0.898669,0 1.627238,0.72862 1.627238,1.62745 0,0.89884 -0.728569,1.62746 -1.627238,1.62746 -0.898669,0 -1.627237,-0.72862 -1.627237,-1.62746 0,-0.89883 0.728568,-1.62745 1.627237,-1.62745 z m 4.3393,1.08499 v 1.08499 h -2.16965 v -1.08499 z m -6.50895,0 v 1.08499 h -2.169649 v -1.08499 z m 16.814785,0.74592 -8.136185,5.25533 v 6.39125 c 1.250153,-0.13262 2.512294,-0.23921 3.796889,-0.32214 0,-1.85353 0,-3.70701 0,-5.56054 3.186619,0 5.780546,0 8.678596,0 0,1.77439 0,3.54884 0,5.32318 1.23627,0.009 2.50107,0.0331 3.79689,0.0678 v -5.89955 z m -12.729713,0.93241 1.542458,1.54268 -0.779718,0.7629 -1.525535,-1.52581 z m -3.830789,0 0.762741,0.77977 -1.525535,1.52581 -0.779718,-0.7629 z m 2.45778,1.03411 v 2.16992 h -1.084825 v -2.16992 z m 16.272372,5.96735 h -4.339296 v 3.27183 c 1.413853,-0.0619 2.859386,-0.10539 4.339296,-0.11862 z m -12.475485,3.25491 c -0.718859,0.005 -1.435115,0.008 -2.16965,0.0168 v 1.00027 c 0.717395,-0.11483 1.447048,-0.20959 2.16965,-0.30516 z m -4.3393,0.0679 c -1.07761,0.0228 -2.162869,0.0483 -3.254475,0.0847 v 1.94959 c 1.083741,-0.25385 2.17323,-0.49034 3.254475,-0.69504 z m -5.424124,0.15252 c -1.088568,0.045 -2.172308,0.11136 -3.254475,0.16956 v 3.18716 c 1.09448,-0.33814 2.177948,-0.64764 3.254475,-0.93246 z m -5.424125,0.30522 c -1.472596,0.0923 -2.921705,0.18767 -4.3393,0.30505 v 5.01802 c 1.475904,-0.57523 2.919752,-1.09779 4.3393,-1.57658 z m -6.50895,0.49159 c -1.507636,0.14281 -2.956908,0.30169 -4.3393,0.47466 v 7.12015 c 1.479701,-0.67395 2.932716,-1.30006 4.3393,-1.88175 z m 40.138524,1.91563 c -9.283008,1.75086 -19.758406,5.88009 -28.222373,10.5616 -5.418592,3.48039 -12.928293,7.6703 -16.255451,13.79949 v 4.7059 h 44.477824 z"
       style="color:#000000;text-indent:0;text-transform:none;direction:ltr;baseline-shift:baseline;display:inline;overflow:visible;visibility:visible;fill:#1a1a1a;fill-opacity:1;stroke:none;stroke-width:0.54241246;enable-background:accumulate"
       marker="none"
       visibility="visible"
       display="inline"
       overflow="visible"
       id="path2"
       inkscape:connector-curvature="0" />
  </g>
</svg>
