<?xml version="1.0" encoding="UTF-8" standalone="no"?>
<svg
   xmlns:dc="http://purl.org/dc/elements/1.1/"
   xmlns:cc="http://creativecommons.org/ns#"
   xmlns:rdf="http://www.w3.org/1999/02/22-rdf-syntax-ns#"
   xmlns:svg="http://www.w3.org/2000/svg"
   xmlns="http://www.w3.org/2000/svg"
   xmlns:sodipodi="http://sodipodi.sourceforge.net/DTD/sodipodi-0.dtd"
   xmlns:inkscape="http://www.inkscape.org/namespaces/inkscape"
   height="135"
   width="171"
   version="1.1"
   x="0px"
   y="0px"
   viewBox="0 0 171 135"
   enable-background="new 0 0 100 100"
   xml:space="preserve"
   id="svg4"
   sodipodi:docname="res_2.svg"
   style="fill:#1a1a1a"
   inkscape:version="0.92.4 (5da689c313, 2019-01-14)"><metadata
     id="metadata10"><rdf:RDF><cc:Work
         rdf:about=""><dc:format>image/svg+xml</dc:format><dc:type
           rdf:resource="http://purl.org/dc/dcmitype/StillImage" /><dc:title></dc:title></cc:Work></rdf:RDF></metadata><defs
     id="defs8" /><sodipodi:namedview
     pagecolor="#ffffff"
     bordercolor="#666666"
     borderopacity="1"
     objecttolerance="10"
     gridtolerance="10"
     guidetolerance="10"
     inkscape:pageopacity="0"
     inkscape:pageshadow="2"
     inkscape:window-width="1366"
     inkscape:window-height="745"
     id="namedview6"
     showgrid="false"
     inkscape:zoom="12.614785"
     inkscape:cx="158.92294"
     inkscape:cy="67.868638"
     inkscape:window-x="-8"
     inkscape:window-y="-8"
     inkscape:window-maximized="1"
     inkscape:current-layer="svg4" /><path
     d="m 70.428766,80.57828 c -2.292758,-0.188862 -3.993176,0.453665 -4.707022,0.790447 -0.01783,-0.09773 -0.04821,-0.209333 -0.08651,-0.326877 2.395773,-2.212194 1.568347,-5.365397 1.530706,-5.50143 l -0.183579,-0.662998 -0.313009,0.612811 c -0.947612,1.856262 -2.61105,3.505833 -3.015188,3.893462 -0.353951,-0.08321 -0.734317,-0.139335 -1.168831,-0.139335 -0.175655,0 -0.361876,0.0073 -0.558002,0.02179 -0.491965,0.03698 -0.917895,0.106317 -1.291657,0.196786 -0.485362,-0.238389 -3.171032,-1.637024 -4.460048,-3.979969 l -0.530927,-0.965442 0.0284,1.101475 c 0.0053,0.162448 0.140656,3.867709 2.632182,5.437376 -0.06207,0.12877 -0.107639,0.250936 -0.136694,0.359234 -1.66542,-1.069777 -3.46225,-1.082984 -3.542813,-1.082984 h -0.260841 l -0.0073,0.26084 c -0.02179,0.852521 0.409421,1.865508 0.74158,2.513318 -0.406779,-0.170372 -0.781202,-0.35131 -1.145718,-0.528286 -1.320053,-0.639885 -2.566807,-1.244112 -5.010786,-1.244112 -0.42527,0 -0.882237,0.01915 -1.359014,0.05547 -1.224301,0.09641 -2.614352,0.309708 -4.085626,0.53621 -2.55426,0.392912 -5.449263,0.838653 -8.503412,0.838653 -1.982391,0 -3.788466,-0.1849 -5.520581,-0.564605 -2.416905,-0.530266 -4.938147,-0.810918 -7.289677,-0.810918 -4.87013,0 -8.267664,1.160907 -9.319612,3.18556 -0.941009,1.810038 -1.16619,5.402378 -1.364958,8.572089 -0.154523,2.466432 -0.300462,4.79617 -0.752806,5.708123 -1.1173233,2.251822 -0.384988,3.692712 -0.353951,3.753472 l 0.103676,0.19612 0.211314,-0.066 c 2.218138,-0.68083 2.045124,-2.82435 1.980409,-3.283959 0.340744,-0.864406 0.61017,-3.05547 0.871671,-5.177856 0.171693,-1.396654 0.334801,-2.716707 0.507154,-3.596962 0.26018,-1.329958 0.565265,-1.38939 0.567907,-1.38939 0.02443,0 0.06339,0.02774 0.07066,0.03566 0.714505,0.941008 1.415144,2.225402 2.141536,7.528725 0.449703,3.279992 0.04689,4.573632 -0.380365,5.944532 -0.241691,0.7779 -0.492626,1.58155 -0.590359,2.75897 -0.138015,1.65221 0.09179,3.49659 0.293859,5.12305 0.188862,1.51816 0.367158,2.95245 0.179617,3.80893 -0.16575,0.75677 -0.11028,1.30157 0.176315,1.71561 0.454325,0.65771 1.411842,0.90667 3.132732,1.15959 1.182698,0.17301 1.830508,0.0297 2.061633,-0.45499 0.266124,-0.55602 -0.13009,-1.42505 -1.324675,-2.90425 -1.519481,-1.88532 -0.412063,-6.83931 -0.237729,-7.56702 3.591019,-2.73784 5.650011,-6.07595 6.201409,-7.046011 0.484041,0.344046 1.640326,1.104121 3.321594,1.800791 3.731014,1.54788 7.290997,1.73608 10.394673,0.55338 1.440237,-0.54942 2.776799,-0.82809 3.971384,-0.82809 0.957517,0 1.559763,0.18556 1.798812,0.27603 0.31499,1.96456 0.756768,2.94585 1.147699,3.81224 0.35065,0.77922 0.653093,1.44948 0.834691,2.6969 0.391592,2.70086 0.0026,6.64583 -0.0026,6.72639 0.05085,0.99318 0.639885,2.9267 2.510676,3.14066 0.472154,0.0528 1.176755,0.11754 1.850319,0.11754 1.276469,0 1.94541,-0.22188 2.105216,-0.69668 0.151222,-0.4464 -0.195465,-0.97006 -1.087607,-1.64957 -2.379265,-1.80673 -1.810037,-6.94761 -1.732776,-7.5591 1.283734,-1.92032 1.279111,-3.94893 1.233547,-4.62646 0.854501,-0.27206 3.891481,-1.47061 5.377283,-5.159364 1.62844,-4.040062 3.728374,-6.11028 3.764033,-6.145939 0.16641,-0.188202 0.349329,-0.279331 0.560643,-0.279331 0.27867,0 0.524983,0.159806 0.591679,0.206692 0.558662,0.661677 1.458728,1.024873 2.539071,1.024873 1.246754,0 2.614352,-0.498569 3.252257,-1.18468 0.269425,-0.289896 0.399515,-0.604886 0.377723,-0.909971 -0.09575,-1.308166 -1.378824,-1.784283 -1.831168,-1.912393 -0.715827,-2.168611 -0.97997,-4.069117 -1.05459,-4.701078 4.059212,-1.113361 4.376844,-3.127449 4.38873,-3.213956 l 0.03764,-0.279331 z m -3.662337,-4.164209 c 0.08915,0.979309 0.01255,2.751046 -1.367599,4.121946 -0.07924,-0.12943 -0.169712,-0.258859 -0.288576,-0.383667 -0.235747,-0.248954 -0.538851,-0.434514 -0.879595,-0.581774 0.538851,-0.532908 1.672683,-1.730795 2.53577,-3.156505 z m -10.421088,0.299802 c 1.156945,1.507594 2.731895,2.510016 3.570548,2.976888 -0.635923,0.254237 -1.049967,0.583755 -1.318072,0.911952 -1.454765,-0.918556 -2.032577,-2.715386 -2.252476,-3.88884 z m 9.581774,6.921858 -0.218578,0.05679 0.01915,0.225181 c 0.0079,0.09707 0.213955,2.412283 1.14902,5.187102 l 0.04953,0.146599 0.151221,0.03038 c 0.01453,0.0026 1.473256,0.309047 1.557782,1.465331 0.01387,0.193485 -0.120846,0.382347 -0.235748,0.506494 -0.53687,0.577812 -1.767114,1.014308 -2.860004,1.014308 -0.657715,0 -1.565705,-0.148581 -2.14748,-0.855162 l -0.03962,-0.03896 c -0.01717,-0.01387 -0.42659,-0.337442 -0.94431,-0.337442 -0.363196,0 -0.695355,0.159145 -0.946951,0.44508 -0.08981,0.08651 -2.199648,2.161347 -3.873652,6.31499 -1.597403,3.963458 -5.195686,4.894558 -5.231345,4.903808 l -0.233766,0.0568 0.03236,0.23839 c 0.0033,0.0231 0.303104,2.39247 -1.159586,4.53863 l -0.03566,0.0502 -0.0092,0.0621 c -0.03566,0.24499 -0.838653,6.01519 1.930222,8.12172 0.976007,0.74158 0.916575,1.0229 0.906009,1.05261 -0.0416,0.12415 -0.425269,0.3315 -1.598723,0.3315 -0.64781,0 -1.330619,-0.0621 -1.789566,-0.1149 -1.885318,-0.21396 -2.031257,-2.53577 -2.037861,-2.59388 0.01651,-0.16377 0.400176,-4.04997 -0.0013,-6.8162 -0.191504,-1.32204 -0.524324,-2.05966 -0.876294,-2.8402 -0.405459,-0.90006 -0.824785,-1.82985 -1.12987,-3.82016 l -0.01981,-0.13273 -0.120184,-0.0634 c -0.02972,-0.0152 -0.753467,-0.38829 -2.163989,-0.38829 -1.25996,0 -2.659916,0.2899 -4.162228,0.86441 -2.975566,1.13383 -6.394893,0.94827 -9.999779,-0.54809 -2.140877,-0.88752 -3.433855,-1.903809 -3.446402,-1.912393 l -0.255558,-0.204051 -0.14858,0.289897 c -0.02047,0.04028 -2.09333,4.036757 -6.275368,7.195237 l -0.07462,0.0568 -0.02311,0.0918 c -0.06141,0.23839 -1.483822,5.89039 0.318292,8.12437 1.298261,1.60995 1.345806,2.15673 1.257979,2.33832 -0.103676,0.21792 -0.651112,0.28264 -1.500991,0.15717 -1.534008,-0.22584 -2.429452,-0.44112 -2.770196,-0.93374 -0.196125,-0.28396 -0.225841,-0.69668 -0.09443,-1.29761 0.207352,-0.94695 0.03236,-2.35615 -0.171032,-3.98921 -0.199428,-1.60202 -0.42527,-3.41668 -0.291877,-5.01211 0.09377,-1.1193 0.335461,-1.89588 0.568567,-2.64538 0.425269,-1.36562 0.865067,-2.77813 0.399515,-6.175656 -0.745542,-5.439357 -1.458067,-6.74158 -2.253136,-7.788245 -0.01981,-0.02443 -0.204711,-0.239049 -0.490645,-0.239049 -0.660357,0 -0.940348,1.040061 -1.092891,1.821923 -0.175654,0.898746 -0.339423,2.228043 -0.513097,3.634603 -0.252256,2.047766 -0.53819,4.36958 -0.861765,5.101255 l -0.03236,0.07858 0.01717,0.08387 c 0.01717,0.08387 0.386309,1.969189 -1.366278,2.669829 -0.136033,-0.43716 -0.320933,-1.51684 0.441119,-3.051515 0.50055,-1.008364 0.643187,-3.281312 0.807616,-5.912833 0.194805,-3.116883 0.416685,-6.64913 1.305525,-8.358793 0.942989,-1.814 4.250054,-2.896985 8.845476,-2.896985 2.313889,0 4.794849,0.276029 7.175435,0.797711 1.769755,0.38829 3.613471,0.577152 5.634822,0.577152 3.095092,0 6.011227,-0.449043 8.585297,-0.845257 1.460048,-0.224521 2.840193,-0.436495 4.045344,-0.530926 0.46291,-0.03632 0.90667,-0.05481 1.316751,-0.05481 2.321154,0 3.514418,0.577812 4.776359,1.190623 0.575171,0.27867 1.169492,0.565925 1.889281,0.813559 l 0.719788,0.247634 -0.40744,-0.643848 c -0.0099,-0.01585 -0.906009,-1.442879 -1.01827,-2.59322 0.599604,0.05217 2.057011,0.272727 3.306406,1.211094 l 0.44508,0.331499 -0.01651,-0.55602 c -0.0026,-0.07462 -0.01585,-1.821924 3.329518,-2.071539 1.316751,-0.09641 2.206912,0.14858 2.747744,0.713846 0.533568,0.55734 0.509135,1.257318 0.509135,1.262601 l -0.02708,0.503852 0.432534,-0.261501 c 0.01651,-0.0099 1.771076,-1.053929 4.409861,-0.929782 -0.25952,0.554039 -1.155624,1.787585 -4.112701,2.548316 z"
     id="path2"
     inkscape:connector-curvature="0"
     style="stroke-width:0.66035658" /><path
     inkscape:connector-curvature="0"
     d="m 163.78973,64.006801 c 0,-5.122479 -1.45865,-7.072392 -1.70634,-7.365842 -0.23876,-0.426587 -2.34004,-3.915308 -7.41297,-4.491887 -0.64608,-0.07362 -1.2206,-0.141393 -1.73663,-0.202629 -3.58952,-0.424523 -4.44131,-0.524977 -6.974,0.214325 -2.98542,0.871063 -6.77584,0.848013 -10.14382,-0.06089 l -0.64882,-0.174419 c -3.43746,-0.921977 -6.68433,-1.792696 -8.21626,-3.589175 -1.49925,-1.757605 -4.56035,-4.443037 -10.62957,-7.253691 -1.70695,-0.790561 -3.05066,-1.244068 -4.10452,-1.493096 l -1.67332,-2.123945 c -0.16754,-0.212608 -0.44207,-0.292766 -0.6994,-0.204696 -0.25664,0.0891 -0.4228,0.322348 -0.4228,0.594125 v 0.653253 l -0.7651,-0.543854 c -0.29345,-0.165475 -0.64917,-0.131416 -0.9065,0.08876 -0.2563,0.21983 -0.34505,0.565916 -0.22602,0.882071 l 0.4566,1.213063 c -0.74506,0.501927 -1.58977,1.399393 -1.87156,2.975053 -1.41083,1.883174 -3.29504,4.497736 -4.04638,5.543561 -0.24219,0.337141 -0.33989,0.751343 -0.27556,1.166921 0.24047,1.540872 1.16554,2.454249 2.53853,2.505507 0.45755,0.01307 0.89033,-0.165818 1.21164,-0.499863 1.28252,-1.334459 2.47902,-1.404295 2.48831,-1.404983 0.0475,-0.0014 0.0939,-0.01239 0.13692,-0.03234 l 1.6802,-0.779897 c 0.47303,0.02546 1.57459,0.0289 2.09681,-0.411794 0.81258,0.498487 2.44806,3.695134 3.66383,6.071634 1.0503,2.05312 2.04245,3.992713 2.85985,5.122134 0.24081,0.333013 0.35847,0.730014 0.34024,1.147999 -0.065,1.514039 0.12728,5.32614 3.27543,8.217986 l 1.19994,5.20022 0.12006,6.0534 0.11387,0.77268 v 5.43278 c -0.20641,0.23463 -0.55215,0.77406 -0.2728,1.55498 0.19506,0.54769 -0.55766,1.04996 -0.56523,1.05477 -0.0385,0.0254 -0.0726,0.0585 -0.0987,0.0963 l -1.64407,2.40678 c -0.0158,0.0234 -0.0289,0.0488 -0.0389,0.075 -0.0213,0.0578 -0.20194,0.57315 0.087,0.9901 0.19575,0.28278 0.53426,0.4259 1.00626,0.4259 1.19926,0 2.70126,-0.89308 2.76455,-0.93092 0.10597,-0.0633 0.17099,-0.17821 0.17099,-0.30205 v -1.5997 l 0.88173,-1.37471 0.49917,-1.17449 c 0.0186,-0.0433 0.0282,-0.0901 0.0282,-0.13761 v -5.79125 c 0.0917,-0.1976 0.32915,-0.7489 0.50331,-1.46167 0.13098,0.45114 0.23156,0.68383 0.32337,0.80252 0.0926,0.46993 0.225,2.56227 0.30963,4.50462 -0.23119,0.2298 -0.54734,0.7534 -0.35332,1.82193 0.0416,0.22912 0.0599,0.54424 -0.0901,0.74171 -0.13382,0.17614 -0.35744,0.19953 -0.35606,0.19953 -0.11628,0.008 -0.22155,0.0722 -0.28106,0.1727 l -1.35373,2.29256 c -0.0544,0.0922 -0.064,0.20366 -0.0258,0.30412 0.0378,0.0998 0.11938,0.17751 0.22121,0.20985 0.0722,0.0234 1.78822,0.56488 3.01638,-0.0152 1.09192,-0.51741 0.99697,-1.57631 0.77955,-2.11229 l -0.14105,-1.2199 c 0.3884,-0.21673 0.83494,-0.65433 0.73174,-1.32517 -0.10734,-0.69699 0.009,-1.46897 0.0106,-1.47722 0.004,-0.0261 0.005,-0.053 0.003,-0.0791 l -0.30412,-4.14821 c 0.35124,-0.91441 0.5291,-1.87491 0.5291,-2.85606 v -7.34967 c 1.62035,0.02 8.10446,0.0358 10.69563,-0.96876 2.45356,-0.95157 6.60659,-1.11876 7.59049,-1.1456 l 4.10899,7.70127 c 0.01,0.0241 0.95501,2.39233 0.56763,4.38008 -0.34471,1.77653 -0.73207,3.6769 -0.84629,4.23628 -0.33026,0.2188 -0.68666,0.73827 -0.43965,1.67469 0.0826,0.31375 0.0894,0.4837 0.0833,0.56558 -0.075,0.0179 -0.1438,0.0599 -0.19403,0.12247 -0.007,0.009 -0.70318,0.87518 -1.72837,1.84327 -1.19857,1.13251 -0.93092,2.12949 -0.90271,2.21549 0.1555,0.35641 0.58828,0.91717 1.24123,0.91717 0.13486,0 0.27935,-0.0241 0.43278,-0.0791 0.46167,-0.16513 1.05752,-0.33026 1.47585,-0.43966 0.45067,-0.11697 0.82841,-0.42452 1.03688,-0.84285 l 0.32614,-0.65296 c 0.0323,-0.064 0.044,-0.13623 0.0337,-0.2071 l -0.16169,-1.1332 c 0.15344,-0.33577 0.52223,-1.02656 0.91441,-1.30109 0.76097,-0.53599 1.17312,-1.44352 1.07473,-2.36825 l -0.12179,-1.11601 0.22843,-3.97344 0.46718,-2.30769 0.0764,-0.32408 c 0.27177,-1.1559 0.22567,-2.3648 -0.13417,-3.49594 l -0.0998,-0.31366 c 1.16778,1.62283 2.8141,4.198 3.24206,6.33816 0.55869,2.79277 0.61924,3.34321 0.62542,3.43678 -6.8e-4,0.0103 -0.001,0.0213 -0.001,0.0323 v 1.57355 c -0.11834,0.29724 -0.4603,1.30591 0.14242,1.7607 0.22568,0.16995 0.27178,0.55182 0.27109,0.74515 l -0.59447,1.19444 -1.29214,2.0662 c -0.20847,0.33301 -0.25595,0.73689 -0.13142,1.10775 0.1266,0.37773 0.41489,0.67634 0.78987,0.81877 0.28829,0.11009 0.58209,0.19127 0.87451,0.24013 0.0654,0.011 0.13211,0.0159 0.20022,0.0159 1.1855,0 2.69644,-1.57768 2.87396,-1.7669 0.0798,-0.0853 0.11215,-0.20503 0.086,-0.31856 l -0.2993,-1.31623 c -0.11835,-0.38805 -0.24081,-0.88758 -0.26145,-1.10499 0.12728,-0.13968 0.30067,-0.43691 0.53529,-1.10638 0.45273,-0.94605 0.49126,-2.0483 0.10527,-3.02394 l -0.43137,-1.09124 -0.40457,-3.23724 -0.23256,-2.18454 0.004,-0.13761 c 0.0371,-1.54603 -0.3275,-3.08449 -1.05476,-4.44888 l -0.59103,-1.10431 c -0.0248,-0.0385 -2.24027,-3.55787 -0.82978,-9.232846 0.45617,4.779145 1.03,9.391096 2.28155,10.642646 1.39328,1.39329 2.20036,3.5503 2.20862,3.57163 0.0599,0.16444 0.22843,0.26077 0.40388,0.22224 0.17201,-0.0365 0.28966,-0.19335 0.27797,-0.3681 -0.006,-0.0846 -0.58622,-8.50421 -0.58622,-13.832073 z M 111.16517,39.393059 c -0.40324,-0.05375 -0.75178,-0.07512 -1.03933,-0.06962 v -1.249658 z m -2.98237,-0.706232 c -0.0144,-0.03853 -0.006,-0.0719 0.0255,-0.09873 0.0316,-0.02717 0.0664,-0.02717 0.0705,-0.02993 l 1.1425,0.81417 v 0.02353 c -0.36978,0.07426 -0.55843,0.182718 -0.61029,0.218453 -0.0526,0.03604 -0.0867,0.08562 -0.11181,0.138942 -0.0326,0.01402 -0.0641,0.02756 -0.0986,0.04348 z m 53.80082,35.228135 c -1.24398,-1.24398 -1.80818,-7.303576 -2.14531,-10.923712 l -0.10115,-1.073691 c -0.0159,-0.164098 -0.1438,-0.295514 -0.30755,-0.315468 -0.16101,-0.02408 -0.31994,0.07603 -0.37499,0.231526 -2.49622,7.011845 0.26971,11.371975 0.37292,11.527465 l 0.5752,1.07817 c 0.67016,1.25774 1.00661,2.67511 0.97221,4.10005 l -0.001,0.18301 0.23531,2.23683 0.41076,3.28816 c 0.004,0.0296 0.011,0.0585 0.022,0.086 l 0.44792,1.13252 c 0.31374,0.79401 0.28279,1.69121 -0.10046,2.49622 -0.12866,0.36397 -0.29792,0.74859 -0.38117,0.86969 -0.27659,0.13623 -0.31856,0.49608 0.0771,1.79097 l 0.25114,1.10637 c -0.63851,0.6447 -1.73937,1.50888 -2.31526,1.4043 -0.24564,-0.0413 -0.49471,-0.1094 -0.73965,-0.20297 -0.17752,-0.0681 -0.31375,-0.20848 -0.37293,-0.38531 -0.0585,-0.17269 -0.0365,-0.35365 0.0605,-0.50984 l 1.30866,-2.09578 0.64538,-1.29214 c 0.0206,-0.0406 0.0323,-0.0853 0.0358,-0.13004 0.008,-0.0984 0.0571,-0.96876 -0.54768,-1.42425 -0.13623,-0.10251 -0.0537,-0.61442 0.10871,-0.98665 0.0193,-0.044 0.0296,-0.0929 0.0296,-0.14105 v -1.40911 h -0.004 c 0.006,-0.70456 -0.18233,-1.46312 -0.63437,-3.72403 -0.66031,-3.30089 -3.89975,-7.43534 -4.51124,-8.18217 l 0.30248,-2.27118 c 0.16444,-1.21784 0.63919,-2.395981 1.37333,-3.38057 l 0.87931,-1.188702 c 0.11628,-0.156185 0.084,-0.380713 -0.0722,-0.496992 -0.15482,-0.114216 -0.37568,-0.08577 -0.49333,0.07041 l -0.87933,1.180453 c -0.80432,1.080227 -1.20957,2.356087 -1.38984,3.691581 l -0.20778,2.39393 c 0,0.002 0,0.005 0,0.007 0,0.0487 0,0.098 0,0.14547 0,4.3e-4 0,9.2e-4 0,10e-4 l 0.60307,2.2382 c 0.32132,1.01005 0.30808,2.08959 0.0659,3.12165 l -0.58251,2.70195 -0.24689,4.08009 0.11635,1.1738 c 0.0709,0.67154 -0.23115,1.32999 -0.80085,1.73043 -0.65089,0.45618 -1.12872,1.55429 -1.18101,1.67814 -0.0248,0.0592 -0.0339,0.12384 -0.0249,0.18646 l 0.16058,1.12426 -0.27749,0.55456 c -0.11835,0.23669 -0.33106,0.41008 -0.58494,0.47681 -0.4321,0.11285 -1.04864,0.28417 -1.5344,0.45756 -0.49539,0.17545 -0.76306,-0.39357 -0.77407,-0.40526 -0.006,-0.0261 -0.14313,-0.65433 0.7238,-1.4731 0.84974,-0.80295 1.46965,-1.52333 1.69878,-1.79854 0.0846,-0.0227 0.17201,-0.0674 0.24769,-0.14381 0.2298,-0.23255 0.25801,-0.63988 0.0894,-1.27976 -0.19678,-0.74928 0.15069,-0.91372 0.18164,-0.92679 0.11904,-0.0399 0.20848,-0.14036 0.23394,-0.26352 0,0 0.46993,-2.29187 0.88138,-4.40692 0.4259,-2.19141 -0.56419,-4.67456 -0.62199,-4.81285 l -4.22733,-7.926261 c -0.0619,-0.115571 -0.17684,-0.173366 -0.31513,-0.186439 -0.20848,0.0027 -5.14656,0.07224 -8.04941,1.19857 -2.77901,1.07679 -10.70595,0.91854 -10.78577,0.9151 -0.10079,0.003 -0.18645,0.0344 -0.25388,0.10045 -0.0678,0.0661 -0.10596,0.15688 -0.10596,0.25183 v 7.70745 c 0,0.91923 -0.17132,1.8185 -0.50915,2.67305 -0.0196,0.0488 -0.0279,0.10252 -0.0237,0.15481 l 0.30721,4.18949 c -0.0254,0.1844 -0.1149,0.93368 -0.005,1.65061 0.0702,0.45687 -0.50364,0.66121 -0.526,0.66878 -0.15825,0.053 -0.25802,0.20917 -0.23876,0.37499 l 0.17649,1.52608 c 0.004,0.0344 0.0141,0.0702 0.0278,0.10251 0.0633,0.14449 0.34023,0.88276 -0.41489,1.24055 -0.64986,0.30824 -1.54018,0.19884 -2.06413,0.0908 l 1.03309,-1.7497 c 0.18337,-0.0482 0.45412,-0.16237 0.66225,-0.42796 0.2532,-0.32407 0.33129,-0.76372 0.23255,-1.30796 -0.17579,-0.96602 0.18165,-1.21853 0.17924,-1.21853 h -3.4e-4 c 0.12315,-0.0626 0.1985,-0.19128 0.19265,-0.32957 -0.17476,-4.13996 -0.27969,-5.00414 -0.51638,-5.18441 -0.13462,-0.33989 -0.41539,-1.4712 -0.62683,-2.44921 v -5.59813 c 0,-0.19472 -0.15756,-0.35228 -0.35228,-0.35228 -0.19471,0 -0.35228,0.15756 -0.35228,0.35228 v 6.22335 c 0,1.42149 -0.66086,2.76524 -0.6674,2.77831 -0.0244,0.0488 -0.0371,0.10321 -0.0371,0.15756 v 5.8002 l -0.44275,1.05408 -0.90994,1.40911 c -0.0369,0.0571 -0.0564,0.12317 -0.0564,0.19128 v 1.49718 c -0.40284,0.2188 -1.43663,0.73414 -2.23097,0.73414 -0.21639,0 -0.37189,-0.044 -0.42625,-0.1211 -0.0564,-0.0798 -0.0389,-0.22705 -0.0172,-0.3103 l 1.57871,-2.31114 c 0.24941,-0.18095 1.11806,-0.89582 0.78161,-1.83844 -0.19849,-0.55526 0.14553,-0.86694 0.18199,-0.8979 0.0836,-0.0667 0.1321,-0.16788 0.1321,-0.27522 l -0.004,-5.6275 -0.11387,-0.77955 -0.11731,-6.04721 c -6.9e-4,-0.0241 -0.004,-0.0489 -0.009,-0.0722 l -1.23297,-5.34334 c -0.0165,-0.0709 -0.054,-0.13416 -0.10802,-0.18301 -3.00469,-2.699888 -3.18667,-6.311768 -3.12544,-7.739113 0.0251,-0.577956 -0.13864,-1.128046 -0.47303,-1.591099 -0.78574,-1.085731 -1.81161,-3.091032 -2.80377,-5.030281 -2.01597,-3.940076 -3.30433,-6.362331 -4.35118,-6.512324 -0.15275,-0.02064 -0.29724,0.05573 -0.36501,0.191275 -0.0967,0.19334 -0.93161,0.32682 -1.71564,0.273498 -0.0581,-3.45e-4 -0.11799,0.0069 -0.17201,0.03199 l -1.70359,0.790906 c -0.32579,0.03337 -1.58078,0.248383 -2.89356,1.614836 -0.17958,0.186803 -0.43072,0.292418 -0.67773,0.284162 -1.30556,-0.04919 -1.73662,-1.065778 -1.86838,-1.910007 -0.0361,-0.231527 0.0179,-0.461333 0.15172,-0.647792 0.59206,-0.824276 2.63692,-3.664516 4.08869,-5.59998 0.0341,-0.04541 0.0568,-0.09839 0.0661,-0.154466 0.42246,-2.588761 2.52478,-3.054566 2.61422,-3.073143 0.10231,-0.02112 0.18207,-0.08635 0.23067,-0.170377 0.76046,-0.125051 2.62867,-0.09985 6.39106,1.6421 5.95328,2.757331 8.9356,5.367766 10.38944,7.071704 1.67401,1.962986 5.0234,2.861226 8.56992,3.812445 l 0.64814,0.174419 c 3.48631,0.940898 7.42122,0.962228 10.52361,0.05677 2.39714,-0.698363 3.13679,-0.611326 6.69465,-0.190932 0.51672,0.06123 1.09193,0.129352 1.73937,0.202629 4.90781,0.558002 6.87218,4.124472 6.89144,4.160594 0.0137,0.02546 0.0323,0.05126 0.0516,0.07259 0.0159,0.0172 1.55154,1.770334 1.55154,6.924807 0,3.831366 0.29792,9.246949 0.46993,12.046599 -0.38943,-0.69286 -0.91715,-1.48411 -1.57148,-2.13844 z"
     id="path2-9"
     style="stroke-width:0.70455581" /><g
     transform="matrix(0.52626163,0,0,0.52626163,31.98357,22.060984)"
     id="g4"><path
       inkscape:connector-curvature="0"
       d="m 92.001,35.63 c -0.446,-1.5 -1.659,-2.764 -2.545,-3.687 -0.171,-0.178 -0.328,-0.342 -0.48,-0.51 -1.779,-1.966 -2.799,-3.301 -3.029,-3.969 -0.42,-1.217 -2.024,-5.206 -5.041,-5.421 -0.032,-0.002 -0.061,0.003 -0.093,0.001 -3.527,-6.601 -9.924,-5.351 -9.989,-5.336 -0.525,0.111 -0.869,0.619 -0.777,1.149 0.092,0.529 0.57,0.893 1.119,0.82 3.396,-0.458 5.637,2.569 6.544,4.108 -0.163,0.091 -0.329,0.175 -0.487,0.279 -1.019,-0.907 -2.863,-2.128 -5.031,-1.624 -0.476,0.111 -0.802,0.548 -0.771,1.035 0.02,0.315 0.225,2.834 1.78,4.229 -1.946,1.893 -5.213,4.906 -7.465,6.122 -2.905,1.567 -4.771,1.523 -5.625,1.357 -0.483,-0.094 -1.044,-0.236 -1.619,-0.381 -1.271,-0.321 -2.592,-0.653 -3.527,-0.617 -1.86,0.07 -2.58,0.305 -3.277,0.531 -0.53,0.173 -1.031,0.336 -2.212,0.441 -0.651,0.058 -1.33,0.124 -2.019,0.191 -2.279,0.223 -4.64,0.445 -6.505,0.43 -0.91,-0.011 -2.01,-0.133 -3.282,-0.273 -2.149,-0.237 -4.851,-0.543 -8.327,-0.523 l -1.374,10e-4 c -4.494,-0.015 -5.996,-0.004 -9.197,1.905 -0.775,0.462 -1.446,0.994 -2.047,1.546 -1.401,0.284 -6.787,1.555 -8.416,4.589 -0.791,1.473 -1.391,2.942 -0.439,3.714 0.196,0.159 0.463,0.287 0.812,0.287 0.454,0 1.048,-0.216 1.81,-0.857 0.345,-0.29 0.728,-0.554 1.115,-0.784 -0.151,0.932 0.154,2.109 1.323,3.805 2.24,3.252 3.636,6.137 3.83,7.916 0.199,1.831 0.167,4.06 -1.59,6.715 -1.479,2.236 -1.503,3.027 -1.415,4.602 0.022,0.418 0.051,0.915 0.041,1.56 -0.056,3.693 -0.313,7.374 -0.563,8.039 -0.584,1.559 0.875,4.899 1.678,5.835 0.14,0.163 0.327,0.276 0.537,0.324 0.497,0.113 1.8,0.381 2.986,0.381 0.573,0 1.119,-0.062 1.534,-0.234 0.445,-0.184 0.696,-0.66 0.597,-1.131 -0.041,-0.193 -0.436,-1.919 -1.677,-3.061 -0.757,-0.696 -1.172,-2.488 -1.135,-3.819 0.036,-1.319 0.381,-4.095 1.035,-6.139 0.13,-0.404 0.278,-0.793 0.426,-1.183 0.777,1.829 1.293,4.361 1.552,5.631 L 20.9,74.27 c 0.338,1.566 0.48,2.523 0.51,3.415 0.034,1.062 0.909,3.547 2.018,4.156 0.345,0.19 1.42,0.37 2.491,0.37 1.044,0 2.084,-0.171 2.435,-0.673 0.466,-0.666 0.167,-1.448 -0.122,-2.204 -0.072,-0.188 -0.148,-0.387 -0.218,-0.592 -0.184,-0.551 -0.589,-1.008 -1.059,-1.538 -0.543,-0.612 -1.158,-1.307 -1.601,-2.302 -0.722,-1.623 -1.035,-6.083 -0.699,-9.945 0.213,-2.455 1.552,-5.361 2.25,-6.735 1.616,0.702 3.92,1.593 5.96,1.966 0.581,0.106 1.148,0.229 1.716,0.351 1.635,0.352 3.301,0.71 5.289,0.71 1.44,0 3.051,-0.188 4.938,-0.706 3.006,-0.823 5.209,-1.076 6.773,-1.174 -0.328,1.743 -0.407,3.924 -0.466,5.624 l -0.028,0.796 c -0.077,1.941 -0.157,3.948 -0.589,5.477 -0.438,1.556 -0.891,3.573 -0.988,4.405 -0.055,0.467 0.417,5.054 2.217,5.275 0.02,0.002 1.115,0.131 2.193,0.131 0.794,0 1.579,-0.07 1.915,-0.312 0.828,-0.596 0.424,-1.612 0.13,-2.354 -0.092,-0.23 -0.188,-0.468 -0.248,-0.683 -0.127,-0.458 -0.428,-0.986 -0.776,-1.599 -0.247,-0.434 -0.659,-1.16 -0.699,-1.409 -0.067,-0.599 0.582,-3.963 1.072,-4.945 0.77,-1.542 1.302,-5.866 1.308,-5.91 0.019,-0.157 0.062,-0.345 0.114,-0.542 0.062,0.393 0.114,0.751 0.152,1.021 0.101,0.704 0.32,1.647 0.553,2.646 0.361,1.552 0.771,3.311 0.771,4.337 0,0.079 0.1,8.129 1.101,10.188 0.047,0.096 0.109,0.184 0.184,0.261 0.07,0.072 1.471,1.475 3.787,1.475 0.48,0 1.001,-0.061 1.557,-0.206 0.497,-0.13 0.814,-0.615 0.735,-1.122 -0.039,-0.247 -0.408,-2.445 -1.443,-3.629 -0.996,-1.138 -1.474,-2.325 -1.503,-3.737 -0.038,-1.82 0.214,-3.698 0.381,-4.94 l 0.026,-0.199 c 0.122,-0.914 -0.064,-1.744 -0.28,-2.705 -0.135,-0.602 -0.287,-1.283 -0.384,-2.088 -0.244,-2.033 0.204,-6.74 0.46,-7.442 0.074,-0.09 0.413,-0.27 0.66,-0.401 0.963,-0.512 2.418,-1.285 3.416,-3.402 0.729,-1.545 0.999,-2.667 1.216,-3.567 0.204,-0.845 0.351,-1.455 0.801,-2.147 0.898,-1.381 4.121,-5.533 5.853,-7.764 l 0.81,-1.045 c 1.19,-1.541 2.217,-2.08 3.087,-2.331 0.075,0.027 0.141,0.057 0.219,0.083 0.511,0.172 0.976,0.332 1.412,0.484 -0.194,1.442 -0.308,4.209 1.344,5.689 1.373,1.229 2.516,1.847 3.412,1.847 0.292,0 0.558,-0.065 0.797,-0.197 0.487,-0.268 1.017,-0.887 0.777,-2.311 -0.263,-1.563 -0.317,-2.449 -0.157,-3.081 0.064,0.023 0.126,0.043 0.19,0.066 0.966,0.347 1.96,0.706 2.878,0.429 1.646,-0.5 3.047,-1.904 2.453,-3.905 z m -81.947,7.369 c 0.005,-0.009 0.01,-0.019 0.015,-0.028 0.662,-1.234 2.522,-2.169 4.271,-2.792 -0.246,0.343 -0.475,0.674 -0.676,0.969 -0.116,0.17 -0.225,0.327 -0.328,0.477 -1.056,0.13 -2.285,0.704 -3.282,1.374 z m 15.401,35.534 c 0.27,0.304 0.604,0.682 0.659,0.844 0.077,0.234 0.164,0.461 0.246,0.675 0.018,0.046 0.036,0.096 0.056,0.146 -0.707,0.041 -1.725,0.015 -1.989,-0.083 C 24.086,79.834 23.429,78.322 23.406,77.622 23.374,76.6 23.218,75.542 22.853,73.85 L 22.724,73.227 C 22.319,71.24 21.59,67.71 20.222,65.673 c 0.499,-0.991 1.066,-1.964 1.732,-2.947 l 0.714,-1.058 c 0.505,-0.749 0.949,-1.402 1.383,-2.022 -0.627,1.532 -1.239,3.401 -1.391,5.141 -0.317,3.644 -0.122,8.713 0.863,10.93 0.569,1.278 1.357,2.167 1.932,2.816 z M 54.633,63.627 c -0.195,1.616 -0.685,4.404 -1.11,5.257 -0.583,1.168 -1.434,5.037 -1.259,6.144 0.097,0.615 0.505,1.333 0.937,2.092 0.234,0.413 0.526,0.926 0.587,1.145 0.07,0.253 0.177,0.533 0.284,0.805 -0.578,-0.002 -1.315,-0.035 -1.811,-0.077 -0.356,-0.656 -0.798,-2.599 -0.767,-3.087 0.076,-0.65 0.489,-2.54 0.928,-4.095 0.495,-1.756 0.579,-3.883 0.661,-5.94 l 0.029,-0.807 c 0.059,-1.706 0.145,-4.175 0.524,-5.788 0.833,-0.047 1.596,-0.119 2.141,-0.177 0.068,0.21 0.135,0.42 0.196,0.636 -0.365,0.787 -1.19,2.66 -1.34,3.892 z M 82.979,41.295 c -0.788,-0.705 -0.84,-2.324 -0.733,-3.515 0.957,0.339 1.689,0.592 2.296,0.759 -0.262,1.029 -0.164,2.243 0.117,3.917 0.003,0.016 0.005,0.031 0.008,0.046 -0.351,-0.166 -0.919,-0.519 -1.688,-1.207 z m 5.98,-3.67 C 88.687,37.709 87.844,37.408 87.342,37.228 86.971,37.094 86.593,36.973 86.219,36.876 86.17,36.861 86.124,36.848 86.074,36.841 85.96,36.815 85.843,36.776 85.73,36.759 85.081,36.663 84.135,36.328 82.57,35.774 81.74,35.48 80.744,35.128 79.528,34.717 79.5,34.707 79.476,34.697 79.448,34.688 79.294,34.564 79.11,34.492 78.908,34.476 77.01,33.645 77.094,32.62 77.105,32.532 c 0.108,-0.528 -0.223,-1.049 -0.75,-1.173 -0.535,-0.127 -1.076,0.207 -1.203,0.745 -0.021,0.093 -0.383,1.771 1.334,3.227 -0.886,0.535 -1.694,1.284 -2.484,2.308 l -0.808,1.042 c -1.872,2.412 -5.005,6.448 -5.948,7.899 -0.638,0.98 -0.848,1.849 -1.069,2.769 -0.206,0.854 -0.439,1.823 -1.08,3.184 -0.715,1.516 -1.688,2.033 -2.546,2.489 -0.637,0.338 -1.296,0.688 -1.57,1.42 -0.441,1.177 -0.859,6.244 -0.598,8.428 0.109,0.906 0.273,1.64 0.419,2.288 0.188,0.838 0.324,1.443 0.249,2.002 l -0.026,0.197 c -0.175,1.303 -0.439,3.273 -0.398,5.248 0.04,1.882 0.693,3.522 1.997,5.013 0.312,0.355 0.57,1.017 0.748,1.637 -1.203,0.026 -2.036,-0.53 -2.329,-0.766 -0.519,-1.427 -0.833,-6.628 -0.833,-9.154 0,-1.256 -0.418,-3.053 -0.822,-4.791 -0.223,-0.955 -0.433,-1.858 -0.521,-2.476 -0.34,-2.376 -0.818,-5.085 -1.794,-7.159 -0.738,-1.567 -0.843,-5.265 -0.821,-6.557 0.009,-0.552 -0.431,-1.007 -0.983,-1.017 -0.529,-0.008 -1.007,0.431 -1.017,0.983 -0.008,0.48 -0.047,4.449 0.777,6.85 -0.625,0.059 -1.401,0.12 -2.188,0.147 -1.628,0.057 -4.352,0.152 -8.562,1.305 -4.021,1.1 -6.575,0.551 -9.279,-0.031 -0.587,-0.126 -1.175,-0.253 -1.777,-0.363 -2.225,-0.407 -4.911,-1.543 -6.381,-2.218 2.146,-3.015 2.666,-6.08 2.688,-6.223 0.088,-0.545 -0.283,-1.058 -0.828,-1.146 -0.545,-0.088 -1.06,0.283 -1.146,0.829 -0.006,0.033 -0.566,3.381 -3.023,6.26 -1.282,1.502 -2.222,2.896 -3.521,4.826 L 20.3,61.607 c -0.829,1.223 -1.518,2.436 -2.11,3.681 -0.02,0.036 -0.034,0.073 -0.05,0.111 -0.48,1.024 -0.902,2.069 -1.256,3.172 -0.673,2.101 -1.085,5.018 -1.131,6.695 -0.047,1.743 0.489,4.159 1.781,5.347 0.295,0.271 0.519,0.619 0.685,0.948 -0.583,-0.025 -1.312,-0.12 -1.972,-0.25 -0.598,-0.935 -1.293,-3.048 -1.142,-3.583 0.575,-1.534 0.685,-8.419 0.689,-8.711 0.011,-0.704 -0.02,-1.245 -0.045,-1.701 -0.07,-1.269 -0.089,-1.609 1.087,-3.387 2.12,-3.205 2.135,-5.978 1.91,-8.035 -0.298,-2.729 -2.433,-6.31 -4.172,-8.834 -1.472,-2.137 -1.127,-2.504 -0.282,-3.404 0.316,-0.336 0.629,-0.795 1.025,-1.376 0.969,-1.422 2.296,-3.368 4.477,-4.668 2.728,-1.626 3.768,-1.633 8.173,-1.623 l 1.381,-10e-4 c 3.347,-0.007 6.004,0.279 8.102,0.511 1.325,0.146 2.469,0.272 3.477,0.285 1.978,0.018 4.391,-0.211 6.725,-0.439 0.683,-0.067 1.355,-0.132 2.002,-0.19 1.406,-0.125 2.069,-0.341 2.653,-0.531 0.618,-0.201 1.152,-0.375 2.732,-0.434 0.67,-0.026 1.882,0.284 2.965,0.557 0.613,0.154 1.21,0.304 1.725,0.404 1.931,0.377 4.399,-0.179 6.957,-1.56 2.585,-1.395 6.145,-4.706 8.336,-6.866 0.941,0.374 1.861,0.6 2.59,0.773 0.394,0.093 0.738,0.172 1.006,0.264 0.106,0.036 0.216,0.054 0.322,0.054 0.416,0 0.805,-0.262 0.946,-0.678 0.179,-0.523 -0.102,-1.091 -0.624,-1.269 -0.316,-0.107 -0.724,-0.206 -1.188,-0.316 -0.448,-0.106 -0.95,-0.229 -1.464,-0.385 0,0 -0.873,-0.084 -1.967,-0.881 -0.554,-0.426 -0.889,-1.227 -1.062,-1.928 0.795,0.114 1.517,0.561 2.045,0.984 0,0 0.563,0.663 1.485,1.358 0.559,0.384 1.289,0.745 1.768,0.963 0.504,0.229 1.096,0.007 1.325,-0.496 0.229,-0.502 0.007,-1.095 -0.495,-1.325 -0.282,-0.129 -0.577,-0.277 -0.841,-0.419 0.602,-0.298 1.206,-0.43 1.896,-0.381 1.526,0.109 2.788,2.615 3.293,4.079 0.424,1.228 1.976,3.044 3.454,4.678 0.146,0.163 0.318,0.341 0.504,0.534 0.743,0.775 1.763,1.837 2.069,2.871 0.256,0.858 -0.595,1.258 -1.125,1.42 z"
       id="path2-5" /></g><path
     inkscape:connector-curvature="0"
     d="m 84.47376,90.284095 a 1.6075317,1.6075317 0 0 0 -0.57584,0.599825 1.3616033,1.3616033 0 0 0 0,1.184655 1.925439,1.925439 0 0 0 -0.80676,1.664517 1.0227021,1.0227021 0 0 0 0.45887,0.79177 1.8564591,1.8564591 0 0 0 0.26991,1.91644 1.3466076,1.3466076 0 0 0 0.73779,0.48886 1.1816557,1.1816557 0 0 0 0.13497,0.89973 1.8204696,1.8204696 0 0 0 1.16665,0.7048 c 0.39289,0.41388 2.69922,2.942138 3.03812,5.746318 a 32.690476,32.690476 0 0 1 0.23993,5.36544 0.29991262,0.29991262 0 0 0 0.29991,0.31791 h 3.0981 a 1.6225273,1.6225273 0 0 0 1.62253,-1.66152 l -0.10797,-4.22877 c 0.15295,-0.25492 0.6538,-1.10367 1.14567,-2.11738 a 24.997717,24.997717 0 0 0 3.86287,0.47386 4.5436762,4.5436762 0 0 0 0.6748,-0.042 3.3380275,3.3380275 0 0 0 0.45287,0.51285 c 1.41259,1.27763 1.87145,3.31704 1.44258,4.49869 -1.27463,0.55484 -1.29562,2.20436 -1.29562,2.27634 a 0.29991262,0.29991262 0 0 0 0.29991,0.29991 h 2.37531 a 0.29991262,0.29991262 0 0 0 0.19494,-0.072 c 0.98671,-0.83975 0.95072,-2.83117 0.89974,-5.1345 v -0.69879 c 0,-0.18895 0,-0.3689 0,-0.54285 0.6778,0.21594 2.17136,0.82776 2.44429,2.0844 0.36889,1.7065 -0.68381,3.89886 -0.6958,3.93485 a 0.29991262,0.29991262 0 0 0 0.26992,0.43187 h 2.22535 a 0.29991262,0.29991262 0 0 0 0.25493,-0.14396 c 0.051,-0.081 1.22064,-2.0214 0.3449,-4.11479 -0.087,-0.20694 -0.17995,-0.42588 -0.28192,-0.65681 -0.72879,-1.68851 -1.79947,-4.15979 -1.31362,-5.746328 0.31791,0.37489 0.6778,0.64481 1.0437,0.64481 v 0 c 0.24892,0 0.59982,-0.12296 0.80376,-0.69579 0.65681,-1.76349 -0.26992,-4.44471 -1.26563,-5.59637 a 1.2956225,1.2956225 0 0 0 0.24893,-1.475574 1.2686304,1.2686304 0 0 0 -1.25064,-0.584829 1.4995631,1.4995631 0 0 0 -0.35989,-1.259633 1.2716295,1.2716295 0 0 0 -1.09768,-0.332903 1.9434338,1.9434338 0 0 0 -1.08869,-1.118674 2.1743665,2.1743665 0 0 0 -1.54155,-0.07498 1.3676016,1.3676016 0 0 0 -0.77377,-0.572834 1.9554303,1.9554303 0 0 0 -1.42159,0.158954 c -0.35389,-0.416878 -1.0227,-0.599825 -1.58354,-0.599825 a 1.7394932,1.7394932 0 0 0 -1.26862,0.473862 1.5985343,1.5985343 0 0 0 -1.09469,-0.248927 1.7694845,1.7694845 0 0 0 -1.07968,0.491856 1.4215858,1.4215858 0 0 0 -1.07069,-0.191944 1.949432,1.949432 0 0 0 -1.30162,0.956721 c -0.49185,-0.428875 -0.71979,-1.520557 -0.79477,-2.144375 a 2.660225,2.660225 0 0 0 0.91773,-0.347898 1.7274967,1.7274967 0 0 0 0.78877,-1.199651 1.091682,1.091682 0 0 0 -0.3389,-1.112675 c -0.78277,-0.635815 -2.66922,-0.05698 -3.46999,0.233931 -0.16195,-0.599825 -0.69879,-1.598534 -2.3993,-1.565543 a 3.7878964,3.7878964 0 0 0 -2.02741,0.647811 c -1.38859,-0.245929 -2.69921,-0.689799 -2.78618,-0.941726 a 0.48285933,0.48285933 0 0 0 -0.3509,-0.473862 c -0.31791,-0.07198 -0.71979,0.188945 -0.96272,0.61782 -0.3569,0.644812 -0.21294,1.391595 0.38389,1.997418 a 3.0920991,3.0920991 0 0 0 1.31062,0.869747 c -0.37489,0.335902 -0.77678,0.6838 -1.22965,1.025701 -1.29562,0.977714 -1.0197,1.868455 -0.83975,2.207357 0.45586,0.848752 1.80847,1.328613 3.02312,1.178656 z m 5.02353,13.945935 c -0.26992,-2.23435 -1.64951,-4.246758 -2.53126,-5.329448 1.21765,0.6988 4.1028,2.579248 4.07582,4.678638 -0.03,2.33632 0,4.93656 0,5.8063 h -1.28963 a 34.70289,34.70289 0 0 0 -0.25493,-5.15549 z m 18.62758,1.07968 c 0.099,0.22794 0.19194,0.44687 0.27892,0.65082 0.62981,1.49956 0,2.97213 -0.22494,3.42499 h -1.58953 c 0.29991,-0.77377 0.86674,-2.44728 0.55483,-3.89886 -0.35689,-1.65252 -2.25834,-2.35731 -2.96913,-2.56725 a 5.6773459,5.6773459 0 0 1 0.98671,-2.54026 l 1.66151,-1.346608 c -0.62381,1.793478 0.47687,4.354728 1.30163,6.268178 z M 82.63229,84.588754 c -0.44387,-0.452868 -0.43487,-0.872746 -0.3449,-1.133669 a 0.89973785,0.89973785 0 0 1 0.29992,-0.428876 c 0.20694,0.617821 1.56554,1.025702 2.69921,1.259634 -0.35689,0.299912 -0.71679,0.623818 -1.09768,0.980714 v 0 c -0.17695,0.13496 -0.71679,0.155954 -1.54755,-0.6868 z m 0.015,2.795186 a 24.217945,24.217945 0 0 0 1.93744,-1.670514 13.547053,13.547053 0 0 1 1.58354,-1.340609 v 0 a 3.2600502,3.2600502 0 0 1 1.79947,-0.599825 c 1.7485,-0.03599 1.84147,1.238639 1.84747,1.382597 a 0.29991262,0.29991262 0 0 0 0.41388,0.269921 c 1.0437,-0.422877 2.7262,-0.842754 3.20906,-0.452867 0.048,0.03899 0.18895,0.152955 0.11697,0.551838 a 1.1366688,1.1366688 0 0 1 -0.52485,0.79177 2.279336,2.279336 0 0 1 -0.92973,0.299912 h -0.021 a 7.0899341,7.0899341 0 0 1 -2.22535,-0.161952 0.3000513,0.3000513 0 0 0 -0.14695,0.58183 7.8547114,7.8547114 0 0 0 2.13237,0.200942 c 0.081,0.71979 0.38389,2.399301 1.43058,2.780189 a 0.29991262,0.29991262 0 0 0 0.38689,-0.191943 1.355605,1.355605 0 0 1 0.99571,-0.899739 0.79776757,0.79776757 0 0 1 0.78877,0.236931 0.29991262,0.29991262 0 0 0 0.26393,0.101971 0.29991262,0.29991262 0 0 0 0.23093,-0.164952 1.0556924,1.0556924 0 0 1 0.83076,-0.464865 0.95972036,0.95972036 0 0 1 0.87274,0.299913 0.29991262,0.29991262 0 0 0 0.51585,-0.08997 c 0.10797,-0.314908 0.56984,-0.431874 0.93273,-0.437872 0.55184,0 1.08568,0.218936 1.19965,0.515849 a 0.29991262,0.29991262 0 0 0 0.46187,0.134961 1.379598,1.379598 0 0 1 1.16965,-0.230933 0.76177805,0.76177805 0 0 1 0.52485,0.494856 0.29991262,0.29991262 0 0 0 0.44088,0.152955 1.4995631,1.4995631 0 0 1 1.28662,-0.02399 1.3616033,1.3616033 0 0 1 0.81276,0.983714 0.29991262,0.29991262 0 0 0 0.37789,0.224934 0.77377458,0.77377458 0 0 1 0.79777,0.116966 c 0.21594,0.218936 0.26093,0.638814 0.11396,1.124672 a 0.29991262,0.29991262 0 0 0 0.3719,0.374891 c 0.47386,-0.13796 0.87874,-0.05398 1.0257,0.212938 0.14696,0.266923 0.012,0.644812 -0.3539,0.944723 a 0.29991262,0.29991262 0 0 0 0,0.44387 c 0.84876,0.78277 1.96443,3.443 1.32262,5.1675 -0.033,0.093 -0.12597,0.29991 -0.24293,0.29991 v 0 c -0.3389,0 -1.08269,-0.92373 -1.52956,-2.09939 a 0.29991262,0.29991262 0 0 0 -0.56083,0.20994 7.7107535,7.7107535 0 0 0 0.41088,0.89074 l -1.96143,1.58654 -0.039,0.039 c -0.051,0.06 -1.25663,1.514558 -1.22064,4.111798 v 0.7018 c 0.036,1.99142 0.072,3.87787 -0.62082,4.59465 h -1.91645 c 0.066,-0.43487 0.28493,-1.19964 0.99572,-1.46357 a 0.29991262,0.29991262 0 0 0 0.17395,-0.16495 c 0.6688,-1.54455 -0.027,-3.91986 -1.54456,-5.29346 a 3.9408519,3.9408519 0 0 1 -0.97771,-1.61353 0.30069887,0.30069887 0 0 0 -0.56683,0.20095 5.9412691,5.9412691 0 0 0 0.3449,0.78577 c -1.01071,0.063 -2.88816,-0.22494 -3.92586,-0.41388 0.075,-0.16495 0.14696,-0.33291 0.21893,-0.50086 a 0.30048942,0.30048942 0 0 0 -0.55483,-0.23093 26.245354,26.245354 0 0 1 -1.63153,3.16408 0.29991262,0.29991262 0 0 0 -0.045,0.16495 l 0.11097,4.31574 a 1.0227021,1.0227021 0 0 1 -1.0227,1.0467 h -0.89974 c 0,-0.86375 -0.027,-3.46399 0,-5.79731 0.039,-3.02612 -4.73862,-5.413428 -4.94256,-5.512398 a 0.29991262,0.29991262 0 0 0 -0.12896,-0.03 c -0.27292,0 -1.11268,-0.10797 -1.3676,-0.51285 a 0.81576236,0.81576236 0 0 1 0.063,-0.79177 0.29991262,0.29991262 0 0 0 -0.38989,-0.40188 c -0.20094,0.084 -0.43787,-0.09 -0.58183,-0.26992 a 1.2446374,1.2446374 0 0 1 -0.066,-1.49956 0.29991262,0.29991262 0 0 0 -0.17395,-0.46487 0.43187418,0.43187418 0 0 1 -0.35989,-0.41688 1.3346112,1.3346112 0 0 1 0.74078,-1.199647 0.29991262,0.29991262 0 0 0 0.13496,-0.422877 0.91473351,0.91473351 0 0 1 -0.12896,-0.881743 c 0.25793,-0.518849 1.21765,-0.75278 1.59553,-0.806765 q 0.17695,0 0.3539,0 a 5.3714351,5.3714351 0 0 0 1.3856,-0.179947 0.29991262,0.29991262 0 1 0 -0.15596,-0.578832 4.7356203,4.7356203 0 0 1 -2.56125,-0.03599 0.29991262,0.29991262 0 0 0 -0.18595,0 c -1.13067,0.386887 -2.53126,-0.09297 -2.88216,-0.75578 -0.29391,-0.54884 0.20394,-1.082685 0.67181,-1.44258 z"
     id="path4"
     style="stroke-width:0.2999126" /><path
     inkscape:connector-curvature="0"
     d="m 49.743675,44.236758 c 0.05897,0.541601 -0.129412,1.155378 1.245305,1.155378 1.055493,0 1.4708,-0.43436 1.910589,-0.894184 0.212973,-0.222641 0.433024,-0.452805 0.725897,-0.64403 0.278984,-0.147715 0.328283,-0.336877 0.106005,-0.413207 -0.08731,-0.02999 -0.33347,-0.08127 -0.734905,0.08879 -0.385021,0.157194 -0.700766,0.47773 -1.005879,0.787605 -0.277137,0.281317 -0.484303,0.634681 -0.898606,0.634681 -0.314251,0 -0.178496,-0.312727 -0.196535,-0.52005 -0.0474,-0.548351 -0.112479,-1.299478 -1.391222,-1.299478 -1.951498,0 -2.103263,1.220938 -2.103263,1.595202 0,0.213811 0.260639,0.311045 0.502614,0.311045 a 0.42890074,0.17281358 0 0 0 0.363436,-0.09243 1.019464,0.41076458 0 0 0 0.123721,-0.218613 c -0.04124,-0.753291 0.618607,-1.179785 0.980426,-1.178356 0.37057,0.0015 0.339269,0.381273 0.372417,0.687647 z"
     id="path4-5"
     style="fill:#0000ff;fill-opacity:1;stroke-width:0.0523557" /><path
     inkscape:connector-curvature="0"
     d="m 53.52697,48.522505 c 0.05897,0.541601 -0.129412,1.155378 1.245305,1.155378 1.055493,0 1.4708,-0.43436 1.910589,-0.894184 0.212973,-0.222641 0.433024,-0.452805 0.725897,-0.64403 0.278984,-0.147715 0.328283,-0.336877 0.106005,-0.413207 -0.08731,-0.02999 -0.33347,-0.08127 -0.734905,0.08879 -0.385021,0.157194 -0.700766,0.47773 -1.005879,0.787605 -0.277137,0.281317 -0.484303,0.634681 -0.898606,0.634681 -0.314251,0 -0.178496,-0.312727 -0.196535,-0.52005 -0.0474,-0.548351 -0.112479,-1.299478 -1.391222,-1.299478 -1.951498,0 -2.103263,1.220938 -2.103263,1.595202 0,0.213811 0.260639,0.311045 0.502614,0.311045 a 0.42890074,0.17281358 0 0 0 0.363436,-0.09243 1.019464,0.41076458 0 0 0 0.123721,-0.218613 c -0.04124,-0.753291 0.618607,-1.179785 0.980426,-1.178356 0.37057,0.0015 0.339269,0.381273 0.372417,0.687647 z"
     id="path4-5-4"
     style="fill:#0000ff;fill-opacity:1;stroke-width:0.0523557" /><path
     inkscape:connector-curvature="0"
     d="m 58.16808,44.97342 c 0.05897,0.541601 -0.129412,1.155378 1.245305,1.155378 1.055493,0 1.4708,-0.43436 1.910589,-0.894184 0.212973,-0.222641 0.433024,-0.452805 0.725897,-0.64403 0.278984,-0.147715 0.328283,-0.336877 0.106005,-0.413207 -0.08731,-0.02999 -0.33347,-0.08127 -0.734905,0.08879 -0.385021,0.157194 -0.700766,0.47773 -1.005879,0.787605 -0.277137,0.281317 -0.484303,0.634681 -0.898606,0.634681 -0.314251,0 -0.178496,-0.312727 -0.196535,-0.52005 -0.0474,-0.548351 -0.112479,-1.299478 -1.391222,-1.299478 -1.951498,0 -2.103263,1.220938 -2.103263,1.595202 0,0.213811 0.260639,0.311045 0.502614,0.311045 a 0.42890074,0.17281358 0 0 0 0.363436,-0.09243 1.019464,0.41076458 0 0 0 0.123721,-0.218613 c -0.04124,-0.753291 0.618607,-1.179785 0.980426,-1.178356 0.37057,0.0015 0.339269,0.381273 0.372417,0.687647 z"
     id="path4-5-5"
     style="fill:#d40000;fill-opacity:1;stroke-width:0.0523557" /><path
     inkscape:connector-curvature="0"
     d="m 38.86948,91.202519 c 0.05897,0.541601 -0.129412,1.155378 1.245305,1.155378 1.055493,0 1.4708,-0.43436 1.910589,-0.894184 0.212973,-0.222641 0.433024,-0.452805 0.725897,-0.64403 0.278984,-0.147715 0.328283,-0.336877 0.106005,-0.413207 -0.08731,-0.02999 -0.33347,-0.08127 -0.734905,0.08879 -0.385021,0.157194 -0.700766,0.47773 -1.005879,0.787605 -0.277137,0.281317 -0.484303,0.634681 -0.898606,0.634681 -0.314251,0 -0.178496,-0.312727 -0.196535,-0.52005 -0.0474,-0.548351 -0.112479,-1.299478 -1.391222,-1.299478 -1.951498,0 -2.103263,1.220938 -2.103263,1.595202 0,0.213811 0.260639,0.311045 0.502614,0.311045 a 0.42890074,0.17281358 0 0 0 0.363436,-0.09243 1.019464,0.41076458 0 0 0 0.123721,-0.218613 c -0.04124,-0.753291 0.618607,-1.179785 0.980426,-1.178356 0.37057,0.0015 0.339269,0.381273 0.372417,0.687647 z"
     id="path4-5-2"
     style="fill:#d40000;fill-opacity:1;stroke-width:0.0523557" /><path
     inkscape:connector-curvature="0"
     d="m 36.503423,95.661625 c 0.05897,0.541601 -0.129412,1.155378 1.245305,1.155378 1.055493,0 1.4708,-0.43436 1.910589,-0.894184 0.212973,-0.222641 0.433024,-0.452805 0.725897,-0.64403 0.278984,-0.147715 0.328283,-0.336877 0.106005,-0.413207 -0.08731,-0.02999 -0.33347,-0.08127 -0.734905,0.08879 -0.385021,0.157194 -0.700766,0.47773 -1.005879,0.787605 -0.277137,0.281317 -0.484303,0.634681 -0.898606,0.634681 -0.314251,0 -0.178496,-0.312727 -0.196535,-0.52005 -0.0474,-0.548351 -0.112479,-1.299478 -1.391222,-1.299478 -1.951498,0 -2.103263,1.220938 -2.103263,1.595202 0,0.213811 0.260639,0.311045 0.502614,0.311045 a 0.42890074,0.17281358 0 0 0 0.363436,-0.09243 1.019464,0.41076458 0 0 0 0.123721,-0.218613 c -0.04124,-0.753291 0.618607,-1.179785 0.980426,-1.178356 0.37057,0.0015 0.339269,0.381273 0.372417,0.687647 z"
     id="path4-5-8"
     style="fill:#0000ff;fill-opacity:1;stroke-width:0.0523557" /><path
     inkscape:connector-curvature="0"
     d="m 30.224274,91.020515 c 0.05897,0.541601 -0.129412,1.155378 1.245305,1.155378 1.055493,0 1.4708,-0.43436 1.910589,-0.894184 0.212973,-0.222641 0.433024,-0.452805 0.725897,-0.64403 0.278984,-0.147715 0.328283,-0.336877 0.106005,-0.413207 -0.08731,-0.02999 -0.33347,-0.08127 -0.734905,0.08879 -0.385021,0.157194 -0.700766,0.47773 -1.005879,0.787605 -0.277137,0.281317 -0.484303,0.634681 -0.898606,0.634681 -0.314251,0 -0.178496,-0.312727 -0.196535,-0.52005 -0.0474,-0.548351 -0.112479,-1.299478 -1.391222,-1.299478 -1.951498,0 -2.103263,1.220938 -2.103263,1.595202 0,0.213811 0.260639,0.311045 0.502614,0.311045 a 0.42890074,0.17281358 0 0 0 0.363436,-0.09243 1.019464,0.41076458 0 0 0 0.123721,-0.218613 c -0.04124,-0.753291 0.618607,-1.179785 0.980426,-1.178356 0.37057,0.0015 0.339269,0.381273 0.372417,0.687647 z"
     id="path4-5-54"
     style="fill:#0000ff;fill-opacity:1;stroke-width:0.0523557" /><path
     inkscape:connector-curvature="0"
     d="m 45.512637,92.93156 c 0.05897,0.541601 -0.129412,1.155378 1.245305,1.155378 1.055493,0 1.4708,-0.43436 1.910589,-0.894184 0.212973,-0.222641 0.433024,-0.452805 0.725897,-0.64403 0.278984,-0.147715 0.328283,-0.336877 0.106005,-0.413207 -0.08731,-0.02999 -0.33347,-0.08127 -0.734905,0.08879 -0.385021,0.157194 -0.700766,0.47773 -1.005879,0.787605 -0.277137,0.281317 -0.484303,0.634681 -0.898606,0.634681 -0.314251,0 -0.178496,-0.312727 -0.196535,-0.52005 -0.0474,-0.548351 -0.112479,-1.299478 -1.391222,-1.299478 -1.951498,0 -2.103263,1.220938 -2.103263,1.595202 0,0.213811 0.260639,0.311045 0.502614,0.311045 a 0.42890074,0.17281358 0 0 0 0.363436,-0.09243 1.019464,0.41076458 0 0 0 0.123721,-0.218613 c -0.04124,-0.753291 0.618607,-1.179785 0.980426,-1.178356 0.37057,0.0015 0.339269,0.381273 0.372417,0.687647 z"
     id="path4-5-6"
     style="fill:#0000ff;fill-opacity:1;stroke-width:0.0523557" /><path
     inkscape:connector-curvature="0"
     d="m 139.20551,59.67027 c 0.059,0.541601 -0.12942,1.155378 1.2453,1.155378 1.05549,0 1.4708,-0.43436 1.91059,-0.894184 0.21297,-0.222641 0.43302,-0.452805 0.7259,-0.64403 0.27898,-0.147715 0.32828,-0.336877 0.106,-0.413207 -0.0873,-0.02999 -0.33347,-0.08127 -0.7349,0.08879 -0.38502,0.157194 -0.70077,0.47773 -1.00588,0.787605 -0.27714,0.281317 -0.4843,0.634681 -0.89861,0.634681 -0.31425,0 -0.17849,-0.312727 -0.19653,-0.52005 -0.0474,-0.548351 -0.11248,-1.299478 -1.39122,-1.299478 -1.9515,0 -2.10327,1.220938 -2.10327,1.595202 0,0.213811 0.26064,0.311045 0.50262,0.311045 a 0.42890074,0.17281358 0 0 0 0.36343,-0.09243 1.019464,0.41076458 0 0 0 0.12372,-0.218613 c -0.0412,-0.753291 0.61861,-1.179785 0.98043,-1.178356 0.37057,0.0015 0.33927,0.381273 0.37242,0.687647 z"
     id="path4-5-2-6"
     style="fill:#0000ff;fill-opacity:1;stroke-width:0.0523557" /><path
     inkscape:connector-curvature="0"
     d="m 136.83945,64.129376 c 0.059,0.541601 -0.12941,1.155378 1.2453,1.155378 1.0555,0 1.4708,-0.43436 1.91059,-0.894184 0.21298,-0.222641 0.43303,-0.452805 0.7259,-0.64403 0.27898,-0.147715 0.32828,-0.336877 0.10601,-0.413207 -0.0873,-0.02999 -0.33347,-0.08127 -0.73491,0.08879 -0.38502,0.157194 -0.70077,0.47773 -1.00588,0.787605 -0.27714,0.281317 -0.4843,0.634681 -0.8986,0.634681 -0.31426,0 -0.1785,-0.312727 -0.19654,-0.52005 -0.0474,-0.548351 -0.11248,-1.299478 -1.39122,-1.299478 -1.9515,0 -2.10326,1.220938 -2.10326,1.595202 0,0.213811 0.26063,0.311045 0.50261,0.311045 a 0.42890074,0.17281358 0 0 0 0.36344,-0.09243 1.019464,0.41076458 0 0 0 0.12372,-0.218613 c -0.0412,-0.753291 0.6186,-1.179785 0.98042,-1.178356 0.37057,0.0015 0.33927,0.381273 0.37242,0.687647 z"
     id="path4-5-8-7"
     style="fill:#0000ff;fill-opacity:1;stroke-width:0.0523557" /><path
     inkscape:connector-curvature="0"
     d="m 145.84866,61.399311 c 0.059,0.541601 -0.12941,1.155378 1.24531,1.155378 1.05549,0 1.4708,-0.43436 1.91059,-0.894184 0.21297,-0.222641 0.43302,-0.452805 0.72589,-0.64403 0.27899,-0.147715 0.32829,-0.336877 0.10601,-0.413207 -0.0873,-0.02999 -0.33347,-0.08127 -0.73491,0.08879 -0.38502,0.157194 -0.70076,0.47773 -1.00587,0.787605 -0.27714,0.281317 -0.48431,0.634681 -0.89861,0.634681 -0.31425,0 -0.1785,-0.312727 -0.19654,-0.52005 -0.0474,-0.548351 -0.11247,-1.299478 -1.39122,-1.299478 -1.9515,0 -2.10326,1.220938 -2.10326,1.595202 0,0.213811 0.26064,0.311045 0.50261,0.311045 a 0.42890074,0.17281358 0 0 0 0.36344,-0.09243 1.019464,0.41076458 0 0 0 0.12372,-0.218613 c -0.0412,-0.753291 0.61861,-1.179785 0.98043,-1.178356 0.37057,0.0015 0.33927,0.381273 0.37241,0.687647 z"
     id="path4-5-6-2"
     style="fill:#d40000;fill-opacity:1;stroke-width:0.0523557" /><path
     inkscape:connector-curvature="0"
     d="m 98.345535,94.069087 c 0.05897,0.541601 -0.129412,1.155378 1.245305,1.155378 1.05549,0 1.4708,-0.43436 1.91059,-0.894184 0.21297,-0.222641 0.43302,-0.452805 0.7259,-0.64403 0.27898,-0.147715 0.32828,-0.336877 0.106,-0.413207 -0.0873,-0.02999 -0.33347,-0.08127 -0.7349,0.08879 -0.38502,0.157194 -0.70077,0.47773 -1.00588,0.787605 -0.27714,0.281317 -0.48431,0.634681 -0.898609,0.634681 -0.314251,0 -0.178496,-0.312727 -0.196535,-0.52005 -0.0474,-0.548351 -0.112479,-1.299478 -1.391222,-1.299478 -1.951498,0 -2.103263,1.220938 -2.103263,1.595202 0,0.213811 0.260639,0.311045 0.502614,0.311045 a 0.42890074,0.17281358 0 0 0 0.363436,-0.09243 1.019464,0.41076458 0 0 0 0.123721,-0.218613 c -0.04124,-0.753291 0.618607,-1.179785 0.980426,-1.178356 0.37057,0.0015 0.339269,0.381273 0.372417,0.687647 z"
     id="path4-5-2-7"
     style="fill:#d40000;fill-opacity:1;stroke-width:0.0523557" /><path
     inkscape:connector-curvature="0"
     d="m 93.704424,96.526145 c 0.05897,0.541601 -0.129412,1.155378 1.245305,1.155378 1.055493,0 1.4708,-0.43436 1.910589,-0.894184 0.212973,-0.222641 0.433024,-0.452805 0.725897,-0.64403 0.278984,-0.147715 0.328283,-0.336877 0.106005,-0.413207 -0.08731,-0.02999 -0.33347,-0.08127 -0.734905,0.08879 -0.385021,0.157194 -0.700766,0.47773 -1.005879,0.787605 -0.277137,0.281317 -0.484303,0.634681 -0.898606,0.634681 -0.314251,0 -0.178496,-0.312727 -0.196535,-0.52005 -0.0474,-0.548351 -0.112479,-1.299478 -1.391222,-1.299478 -1.951498,0 -2.103263,1.220938 -2.103263,1.595202 0,0.213811 0.260639,0.311045 0.502614,0.311045 a 0.42890074,0.17281358 0 0 0 0.363436,-0.09243 1.019464,0.41076458 0 0 0 0.123721,-0.218613 c -0.04124,-0.753291 0.618607,-1.179785 0.980426,-1.178356 0.37057,0.0015 0.339269,0.381273 0.372417,0.687647 z"
     id="path4-5-8-2"
     style="fill:#0000ff;fill-opacity:1;stroke-width:0.0523557" /></svg>