<?xml version="1.0" encoding="UTF-8" standalone="no"?>
<!-- Created with Inkscape (http://www.inkscape.org/) -->

<svg
   xmlns:dc="http://purl.org/dc/elements/1.1/"
   xmlns:cc="http://creativecommons.org/ns#"
   xmlns:rdf="http://www.w3.org/1999/02/22-rdf-syntax-ns#"
   xmlns:svg="http://www.w3.org/2000/svg"
   xmlns="http://www.w3.org/2000/svg"
   xmlns:sodipodi="http://sodipodi.sourceforge.net/DTD/sodipodi-0.dtd"
   xmlns:inkscape="http://www.inkscape.org/namespaces/inkscape"
   version="1.1"
   id="svg2"
   width="42.702759"
   height="17.908855"
   viewBox="0 0 42.702759 17.908855"
   sodipodi:docname="fibl-logo.svg"
   inkscape:version="0.92.4 (5da689c313, 2019-01-14)">
  <metadata
     id="metadata8">
    <rdf:RDF>
      <cc:Work
         rdf:about="">
        <dc:format>image/svg+xml</dc:format>
        <dc:type
           rdf:resource="http://purl.org/dc/dcmitype/StillImage" />
        <dc:title></dc:title>
      </cc:Work>
    </rdf:RDF>
  </metadata>
  <defs
     id="defs6" />
  <sodipodi:namedview
     pagecolor="#ffffff"
     bordercolor="#666666"
     borderopacity="1"
     objecttolerance="10"
     gridtolerance="10"
     guidetolerance="10"
     inkscape:pageopacity="0"
     inkscape:pageshadow="2"
     inkscape:window-width="1920"
     inkscape:window-height="1016"
     id="namedview4"
     showgrid="false"
     inkscape:zoom="3.0469742"
     inkscape:cx="-24.170787"
     inkscape:cy="1.9731325"
     inkscape:window-x="0"
     inkscape:window-y="27"
     inkscape:window-maximized="1"
     inkscape:current-layer="svg2"
     fit-margin-top="0"
     fit-margin-left="0"
     fit-margin-right="0"
     fit-margin-bottom="0" />
  <g
     id="g817"
     transform="matrix(0.0180714,0,0,0.0180714,3.8946397e-5,0)">
    <path
       style="fill:#fefefe"
       d="M 0,495.5 V 0 H 1181.5 2363 V 495.5 991 H 1181.5 0 Z"
       id="path833"
       inkscape:connector-curvature="0" />
    <path
       style="fill:#cddce2"
       d="M 0,530.01905 V 69.038104 L 2.25,68.495945 C 3.4875,68.197758 122.4,68.076684 266.5,68.226893 L 528.5,68.5 V 171 273.5 L 384.75,273.75339 241,274.00678 V 349.00339 424 h 129.8 c 99.62222,0 130.07899,0.27899 131,1.2 1.74077,1.74077 1.74077,201.85923 0,203.6 -0.92101,0.92101 -31.37778,1.2 -131,1.2 H 241 v 179.3 c 0,138.12222 -0.27559,179.57559 -1.2,180.5 -0.91992,0.91992 -29.04444,1.2 -120.5,1.2 H 0 Z M 650.60699,989.41821 C 650.27314,988.54823 650,847.78823 650,676.61821 650,435.89294 650.27181,365.12819 651.2,364.2 c 0.91868,-0.91868 26.80405,-1.2 110.41821,-1.2 60.07002,0 109.93002,0.27314 110.8,0.60699 1.43771,0.5517 1.58179,29.00965 1.58179,312.41821 0,171.49617 -0.27314,312.52303 -0.60699,313.39301 C 872.84457,990.84742 862.09987,991 762,991 661.90013,991 651.15543,990.84742 650.60699,989.41821 Z M 1027.4964,988.75 c -0.298,-1.2375 -0.4191,-208.8 -0.2691,-461.25 l 0.2727,-459 h 194 c 211.462,0 201.7146,-0.23358 234.5,5.619418 39.4312,7.039446 73.7164,20.705741 102,40.657912 12.3603,8.71936 35.4758,31.82851 44.2347,44.22267 12.503,17.69207 24.2283,42.79731 30.5916,65.5 12.786,45.61768 14.4759,106.76309 4.2394,153.39123 -10.7491,48.96293 -38.5288,87.61663 -83.807,116.61198 -6.3792,4.08516 -7.5546,5.49679 -4.5767,5.49679 4.0413,0 34.1008,7.6159 47.7592,12.10032 29.2656,9.60872 49.7329,21.49138 69.1196,40.12873 18.951,18.21835 31.9225,37.29215 43.1525,63.45281 19.4999,45.42608 26.6048,105.26622 18.7262,157.72082 -6.1546,40.97707 -21.1534,77.34092 -45.0633,109.25412 -7.8108,10.42536 -27.6405,30.74719 -38.8514,39.81572 -37.5677,30.38843 -88.2962,52.03518 -145.0248,61.88459 -35.5822,6.17791 -55.7078,6.65452 -280.7309,6.64821 l -189.731,-0.005 -0.5417,-2.25 z m 332.674,-187.7956 c 39.4655,-2.69188 69.6718,-9.79551 85.673,-20.14779 17.3613,-11.2322 31.0409,-30.4525 37.3786,-52.51811 1.8613,-6.48032 2.2254,-10.13998 2.1676,-21.7885 -0.061,-12.2118 -0.4151,-15.14956 -2.7762,-23 -11.0678,-36.79952 -36.101,-58.82378 -75.6134,-66.52481 -18.1406,-3.53562 -33.8138,-4.32887 -87,-4.40321 l -51.5,-0.072 -0.2579,93.5 c -0.1419,51.425 -0.043,94.0625 0.2186,94.75 0.6108,1.60222 68.9823,1.7546 91.7097,0.2044 z M 1344,428.55473 c 14.5125,-2.7483 23.1259,-5.45275 33.5,-10.51833 21.7317,-10.61145 34.3932,-25.90416 40.6231,-49.0653 1.9539,-7.26414 2.2828,-10.96449 2.3083,-25.9711 0.025,-14.94515 -0.3014,-18.81392 -2.239,-26.5 -6.6634,-26.43313 -22.8146,-44.25082 -49.0419,-54.10218 -18.5851,-6.98084 -41.3843,-9.68281 -77.6505,-9.20246 l -23,0.30464 -0.2581,87.5 c -0.142,48.125 -0.024,88.11478 0.2632,88.86617 0.7793,2.04232 63.5425,0.95204 75.4949,-1.31144 z M 1836.2,989.8 c -1.7494,-1.74943 -1.7494,-918.850573 0,-920.6 1.8764,-1.876352 238.1171,-1.727721 239.6762,0.150792 0.8224,0.990965 1.188,96.555678 1.3724,358.749998 L 2077.5,785.5 2220,786.00856 c 78.375,0.27971 142.6125,0.61721 142.75,0.75 C 2362.8875,786.89135 2363,832.9 2363,889 v 102 h -262.8 c -203.0667,0 -263.0728,-0.27275 -264,-1.2 z M 739.17842,248.49304 C 716.23621,244.33658 691.64709,231.45799 674.68467,214.71434 656.2979,196.5647 644.22881,174.31223 638.8987,148.73367 636.12352,135.4159 635.88051,113.50027 638.36636,100.72512 648.71524,47.540561 692.71231,6.2593103 744.54607,1.0995701 758.99756,-0.33898926 766.83115,-0.26398717 782,1.45817 c 65.65706,7.4542082 114.53088,73.024933 104.5889,140.31992 -8.00992,54.21733 -51.36155,98.51294 -104.92108,107.20575 -8.58575,1.39349 -33.68938,1.10351 -42.4894,-0.4908 z"
       id="path831"
       inkscape:connector-curvature="0" />
    <path
       style="fill:#afc6d0"
       d="M 0,529.50218 V 68.996262 L 263.75,69.248131 527.5,69.5 V 171 272.5 L 384,273 240.5,273.5 V 349 424.5 L 371,425 501.5,425.5 V 527 628.5 L 371,629 l -130.5,0.5 -0.5,180 -0.5,180 -119.75,0.25405 L 0,990.0081 Z M 651.24842,677.25 651.5,364.5 H 762 872.5 l 0.25158,312.75 0.25158,312.75 H 762 650.99684 Z m 376.45868,312.12374 c -0.9927,-0.9927 -0.858,-917.587714 0.1351,-919.152649 0.6556,-1.033137 38.3666,-1.219688 196.2347,-0.970746 180.0142,0.283863 196.4876,0.447535 208.9231,2.07577 67.82,8.879943 115.8053,30.400375 151.629,68.002585 26.8855,28.22027 43.4494,61.96982 52.3529,106.6713 4.5095,22.64028 5.5059,34.66173 5.4288,65.5 -0.076,30.44451 -1.3861,44.6393 -6.0406,65.452 -8.6419,38.64267 -26.8056,70.27443 -54.3701,94.6844 -8.4211,7.45736 -22.5441,18.15629 -31.3592,23.7563 -3.2226,2.04721 -5.6874,3.89404 -5.4774,4.10408 0.2101,0.21004 7.4058,1.95542 15.9906,3.87863 52.9019,11.85139 81.5115,26.10225 108.9856,54.28732 19.5643,20.07073 34.3955,45.57857 44.8537,77.14297 13.6674,41.25038 18.182,89.17752 12.4994,132.6943 -10.69,81.8622 -56.3423,146.19257 -130.5712,183.99283 -36.0658,18.36608 -73.3948,29.17272 -124.9425,36.17049 -11.331,1.53823 -32.3071,1.72734 -228.0219,2.05579 -118.5486,0.19894 -215.8611,0.0435 -216.25,-0.34537 z M 1371.5,801.03523 c 25.313,-2.57538 47.3057,-7.12071 61.3102,-12.67126 34.3223,-13.6033 57.8775,-53.85534 53.3174,-91.11103 -3.9668,-32.40842 -23.5211,-59.52032 -52.4307,-72.69486 -23.3012,-10.6187 -42.0296,-12.71928 -115.1969,-12.92054 l -50,-0.13754 -0.2579,94.5 c -0.1418,51.975 -0.022,95.11781 0.2658,95.87291 0.4376,1.14729 8.0392,1.28323 46.2579,0.82719 25.1538,-0.30014 50.6842,-1.04933 56.7342,-1.66487 z M 1329,430.98536 c 54.8289,-4.75594 85.0232,-28.16989 91.5418,-70.98536 1.8344,-12.04836 1.8348,-22.92384 0,-35.08729 -6.2133,-41.21736 -33.6383,-64.38369 -84.043,-70.99241 -4.95,-0.64901 -22.275,-1.23408 -38.5,-1.30016 L 1268.5,252.5 1268.2419,341 c -0.1419,48.675 -0.043,89.0625 0.2186,89.75 0.5992,1.5711 43.2298,1.73684 60.5395,0.23536 z M 1836.4629,988.75 c -0.2609,-0.6875 -0.3593,-207.8 -0.2186,-460.25 l 0.2557,-459 h 119.5 119.5 l 0.5,358 0.5,358 143,0.50853 c 78.65,0.27969 143.1125,0.61719 143.25,0.75 0.1375,0.13281 0.25,45.91647 0.25,101.74147 V 990 h -263.0314 c -209.5054,0 -263.1279,-0.25437 -263.5057,-1.25 z M 747.09888,248.88229 C 672.3858,240.2185 621.88088,164.57126 641.59052,90.849861 650.31619,58.212625 674.35714,28.992556 705.36076,13.341661 719.28415,6.3130159 730.39955,3.1054912 747.25,1.2538555 c 13.62067,-1.49672679 15.89489,-1.49575688 29.70328,0.012668 17.35013,1.8953233 28.05083,5.070749 42.93582,12.7411775 31.42273,16.192531 54.13945,44.76968 63.31866,79.653521 2.90652,11.045668 3.12115,13.044648 3.20373,29.838778 0.0703,14.30085 -0.29584,19.64407 -1.78172,26 -6.16922,26.38925 -17.56875,46.55779 -36.68662,64.90758 -11.29357,10.83984 -19.92482,16.7957 -34.27364,23.64998 -20.42174,9.75525 -43.47171,13.5033 -66.57063,10.82473 z"
       id="path829"
       inkscape:connector-curvature="0" />
    <path
       style="fill:#97b5c1"
       d="M 0.24892243,529.75 0.5,69.5 262,69.226891 c 143.825,-0.15021 262.5125,-0.02914 263.75,0.269052 L 528,70.038104 V 170.91206 c 0,91.06137 -0.15387,100.93301 -1.58179,101.48095 C 525.54823,272.72686 460.79637,273 382.5252,273 c -128.84673,0 -142.36865,0.14966 -142.91821,1.58179 -0.79315,2.06692 -0.79315,146.7695 0,148.83642 0.54918,1.43113 12.95943,1.58179 130.3,1.58179 99.53901,0 129.97201,0.279 130.89301,1.2 1.74066,1.74066 1.74066,199.85934 0,201.6 -0.921,0.921 -31.354,1.2 -130.89301,1.2 -117.34057,0 -129.75082,0.15066 -130.3,1.58179 C 239.27314,631.45177 239,712.67677 239,811.08179 V 990 H 119.49892 -0.00215514 Z M 651.24842,677.75 651.5,365.5 H 762 872.5 l 0.25158,312.25 0.25158,312.25 H 762 650.99684 Z M 1028.2489,529.78282 1028.5,69.5 l 179,-0.297367 c 181.1479,-0.300935 204.5019,0.0419 230.3212,3.38116 109.8217,14.203392 177.3573,71.977037 198.0422,169.416207 4.9114,23.13564 5.6201,31.7108 5.6201,68 0,36.29332 -0.7784,45.68779 -5.5927,67.5 -10.6287,48.15461 -37.2521,85.69259 -81.3908,114.75807 -4.95,3.25959 -9,6.42357 -9,7.03108 0,0.61476 7.5382,2.77792 17,4.87828 19.8522,4.40686 42.2682,11.3786 54.96,17.09343 38.1803,17.19163 65.6854,44.42508 85.0797,84.23914 8.154,16.73923 12.6989,29.2146 17.5023,48.04166 7.0139,27.49127 8.3696,39.56562 8.4167,74.95834 0.045,33.97188 -0.7613,42.16088 -6.5499,66.5 -4.2033,17.67324 -9.0431,31.3422 -16.8183,47.5 -11.838,24.60042 -24.6819,42.92443 -43.0905,61.47593 -19.9096,20.06409 -41.3153,35.17257 -69.5,49.05411 -37.7986,18.61663 -71.4102,27.776 -129,35.15336 -6.4653,0.82822 -69.0597,1.25562 -222.2511,1.51758 l -213.2511,0.36466 z M 1380,800.596 c 27.8964,-3.50056 51.2728,-9.68141 63.1892,-16.70754 20.8815,-12.31221 37.1467,-35.46284 42.2226,-60.0963 6.5835,-31.95071 -7.404,-69.30953 -33.3046,-88.95207 -7.4357,-5.63914 -19.1173,-11.59349 -30.1759,-15.3813 -19.1162,-6.54767 -48.3217,-8.71382 -111.4313,-8.26476 l -43,0.30597 -0.2579,94.5 c -0.1418,51.975 -0.027,95.10504 0.2549,95.84454 0.8023,2.10359 94.0349,1.06892 112.503,-1.24854 z m -44.7892,-369.70108 c 31.7613,-3.41122 58.3773,-16.17772 71.0866,-34.09708 11.0203,-15.53786 14.7088,-27.39169 15.4436,-49.63078 0.5751,-17.40383 -0.5099,-26.35718 -4.7136,-38.8969 -8.5185,-25.41109 -28.7781,-42.75244 -59.2799,-50.74085 -16.6048,-4.3488 -24.3008,-5.01221 -58.2475,-5.02101 l -32,-0.008 -0.2581,88.5 c -0.1419,48.675 -0.043,89.0625 0.2186,89.75 0.6221,1.63115 52.8717,1.74291 67.7503,0.14492 z M 1837.2489,529.75 1837.5,69.5 1955.6242,69.245916 c 98.3865,-0.211629 118.312,-0.02769 119.2486,1.100792 0.8269,0.996394 1.1909,95.918072 1.3758,358.754082 L 2076.5,786.5 l 143.25,0.2534 143.25,0.2534 V 888.5034 990 H 2099.9989 1836.9978 Z M 740.5,247.40477 c -17.51829,-3.1002 -37.35289,-11.6728 -52.39904,-22.64708 -8.00354,-5.83759 -20.83154,-19.03073 -26.99872,-27.76722 -10.53691,-14.92671 -18.51371,-33.93986 -21.55429,-51.37584 -2.00442,-11.49421 -2.00585,-32.91588 -0.003,-43.75416 C 647.8636,56.846803 680.27358,20.14309 724,6.2167263 c 12.97309,-4.1317812 23.14798,-5.6038137 38.5,-5.56991616 21.55589,0.0475958 37.99985,3.98687446 56.87526,13.62490986 22.88517,11.685475 41.34206,30.019696 53.05955,52.706923 25.0591,48.519037 16.06902,106.571577 -22.47234,145.112937 -18.76041,18.76042 -42.04897,30.94872 -67.67252,35.41709 -10.58852,1.84648 -31.05649,1.79559 -41.78995,-0.1039 z"
       id="path827"
       inkscape:connector-curvature="0" />
    <path
       style="fill:#87aab8"
       d="M 0,529.99813 V 69.996262 L 263.75,70.248131 527.5,70.5 V 171 271.5 l -142.90166,0.25342 c -103.59393,0.18372 -143.27255,0.56123 -144.25,1.37245 -1.87136,1.55309 -2.01636,149.80611 -0.14834,151.67413 0.92101,0.92101 31.37778,1.2 131,1.2 H 501 V 527 628 H 371.2 c -99.62222,0 -130.07899,0.27899 -131,1.2 -0.92443,0.92443 -1.2,42.48889 -1.2,181 V 990 H 119.5 0 Z M 652,677.5 V 365 h 109.89301 c 99.52311,0 109.95059,0.15003 110.50313,1.58994 0.33557,0.87447 0.60587,141.49947 0.60069,312.5 L 872.9874,990 H 762.4937 652 Z M 1028.2489,530.25 1028.5,70.5 H 1224 c 206.1453,0 200.3223,-0.115953 228,4.540139 115.1339,19.368451 179.6576,89.855481 189.0747,206.548901 1.4855,18.407 0.6586,57.42242 -1.5557,73.41096 -6.3543,45.8798 -21.0165,78.04621 -48.4846,106.36702 -12.1268,12.50317 -22.186,20.87832 -37.2689,31.02941 -5.0004,3.36539 -9.0536,6.56544 -9.007,7.11123 0.047,0.54579 3.6076,1.76802 7.9131,2.71608 30.0116,6.6083 51.4576,13.15669 67.7706,20.69331 53.1274,24.54493 89.2466,76.02288 102.9261,146.69239 4.3035,22.23236 5.1359,32.24298 5.0633,60.89056 -0.057,22.67318 -0.4242,29.30052 -2.2881,41.35558 -6.517,42.1486 -20.9117,77.53474 -44.3358,108.98907 -9.2521,12.42398 -32.567,35.73166 -45.0193,45.0054 -50.0983,37.31017 -111.7186,57.70098 -190.7884,63.13387 -8.8776,0.60998 -92.7299,1.00014 -216.2511,1.00619 l -201.7511,0.01 0.2511,-459.75 z M 1372,801.61377 c 52.5995,-5.34737 76.5049,-14.92029 94.8233,-37.97201 15.257,-19.19938 22.7708,-43.81831 20.101,-65.86051 -1.9533,-16.12605 -8.1583,-32.23273 -17.4812,-45.37658 -14.7057,-20.73274 -40.1988,-34.27687 -73.4431,-39.01932 -9.2387,-1.31795 -23.0521,-1.73217 -70.25,-2.10662 l -58.75,-0.4661 v 96.01035 c 0,75.83218 0.2627,96.13229 1.25,96.59055 2.5618,1.18908 89.1201,-0.31246 103.75,-1.79976 z m -48.9329,-369.5889 c 36.395,-2.13325 59.3406,-10.48633 76.9834,-28.02487 7.138,-7.09587 9.3184,-10.06933 13.1986,-18 5.494,-11.22893 7.3691,-18.08937 8.8929,-32.53606 1.9938,-18.90342 -1.3168,-39.91806 -8.5521,-54.28542 -12.0921,-24.01171 -33.4701,-38.16799 -67.5899,-44.75719 -6.495,-1.25431 -16.8149,-1.75618 -43.75,-2.1276 L 1267,251.80765 v 90.01284 c 0,71.0746 0.263,90.11896 1.25,90.51723 2.1226,0.85649 38.3994,0.64945 54.8171,-0.31285 z M 1837,530 V 70 h 119 119 v 356.91821 c 0,196.30502 0.2731,357.63002 0.607,358.5 0.5496,1.43221 14.1668,1.58179 144,1.58179 H 2363 V 888.5 990 H 2100 1837 Z M 743.5,247.55161 C 717.59404,243.50215 695.97252,232.69984 676.92251,214.2889 660.92343,198.82654 650.36643,182.06843 644.1734,162.3032 639.15282,146.27988 638.51239,141.80257 638.55148,123 c 0.0303,-14.58575 0.40089,-18.95819 2.22521,-26.256359 3.13434,-12.538878 8.07109,-25.106089 13.4679,-34.284495 C 673.08951,30.409416 703.52524,9.2269552 740.5,2.4276708 c 13.51074,-2.48448746 39.56073,-1.53179475 52.5,1.9200148 45.44141,12.1224024 77.75007,44.7441104 89.69811,90.5672214 3.09348,11.864113 4.21959,34.382423 2.35659,47.123553 -7.83755,53.60132 -51.48432,97.4419 -105.05054,105.517 -11.35556,1.71185 -25.53774,1.71035 -36.50416,-0.004 z"
       id="path825"
       inkscape:connector-curvature="0" />
    <path
       style="fill:#6390a3"
       d="M 0,529.99813 V 69.996255 L 263.25,70.248127 526.5,70.5 V 171 271.5 L 383,272 239.5,272.5 V 349 425.5 L 370,426 500.5,426.5 V 527 627.5 l -129.95376,0.25376 c -71.47457,0.13957 -130.30967,0.60967 -130.74467,1.04467 -0.435,0.435 -0.79814,81.88331 -0.80697,180.99624 L 238.97854,990 H 119.48927 0 Z M 652.24842,677.75 652.5,365.5 H 762 871.5 l 0.5,312.25001 0.5,312.25001 -110.25158,-10e-6 L 651.99684,990 Z M 1028.7522,530 l 0.2521,-460 185.2479,0.0088 c 112.0394,0.0053 190.7805,0.399958 199.2478,0.998624 112.5937,7.960739 185.0362,56.411066 213.9659,143.102626 16.5689,49.65101 19.0153,117.90946 6.0721,169.42058 -11.5257,45.86977 -35.8949,78.85258 -80.244,108.6076 -9.7753,6.55848 -10.4868,7.24767 -8.7748,8.4995 1.0247,0.74926 2.6536,1.36229 3.6198,1.36229 0.9662,0 8.4177,1.53884 16.5589,3.41965 48.3309,11.16563 76.4197,25.03196 102.1453,50.42509 21.3548,21.07881 36.6797,47.34173 47.9393,82.15526 16.0769,49.7086 18.2558,110.53654 5.7296,159.9523 -22.7941,89.92229 -91.9175,153.31434 -194.7058,178.56184 -24.7699,6.08413 -41.6443,8.63828 -82.3063,12.45802 -7.1483,0.6715 -81.7317,1.03237 -213,1.03059 l -202,-0.003 z m 330.7649,272.96092 c 29.6521,-1.92773 55.832,-6.65219 72.6915,-13.118 24.3197,-9.32693 43.9457,-31.61138 52.4555,-59.56108 2.3746,-7.79927 2.6728,-10.4042 2.6645,-23.28184 -0.011,-17.40892 -1.802,-25.24817 -9.2606,-40.5383 -5.8878,-12.07011 -13.9477,-22.65548 -22.9305,-30.11583 -7.8396,-6.51079 -27.1949,-16.28247 -38.1891,-19.28008 -18.7841,-5.12151 -48.225,-7.04215 -108.1632,-7.05623 -39.2353,-0.009 -40.7525,0.0607 -41.75,1.9247 C 1266.3429,613.22787 1266,644.71446 1266,707 c 0,62.28554 0.3429,93.77213 1.0352,95.06574 0.9954,1.85988 2.4861,1.93426 38.7671,1.93426 20.7525,0 44.9242,-0.46758 53.7148,-1.03908 z M 1343.5298,430.6444 c 42.7083,-7.4806 67.8133,-27.54402 76.5087,-61.1444 2.741,-10.59149 3.6664,-30.40653 1.9942,-42.70046 -4.8423,-35.59977 -25.522,-58.98087 -61.2106,-69.20649 -15.9836,-4.57969 -27.1127,-5.73661 -60.7402,-6.3142 -29.5898,-0.50824 -31.4955,-0.43365 -32.75,1.28188 -1.7631,2.41123 -1.9907,175.33977 -0.2351,178.62021 1.0803,2.01857 1.5966,2.0419 34.25,1.54727 23.7791,-0.36019 35.7064,-0.9494 42.183,-2.08381 z M 1837.2532,530.25 1837.5,70.5 h 118.5 118.5 l 0.2514,357.71556 c 0.2485,353.62103 0.2737,357.72751 2.2033,358.76017 1.3371,0.71564 46.6869,0.96269 143.9986,0.78445 L 2363.0001,787.5 2363,888.75 V 990 H 2100.0032 1837.0064 Z M 737.23077,245.96484 C 690.51568,235.88578 654.51452,201.4053 642.45591,155.19325 621.98199,76.731338 680.92079,1 762.4586,1 c 32.18566,0 62.23592,12.142567 85.46291,34.533451 34.5818,33.336948 46.73123,83.052729 31.39435,128.466549 -13.06441,38.68486 -46.89131,70.05022 -87.0219,80.68942 -8.43688,2.23674 -12.28809,2.64355 -27.79396,2.93592 -15.13129,0.2853 -19.47726,0.0207 -27.26923,-1.6605 z"
       id="path823"
       inkscape:connector-curvature="0" />
    <path
       style="fill:#447a92"
       d="M 0.99998457,530.25 0.99996914,70.5 263.74998,71 526.5,71.5 v 99.5 99.5 l -142.90166,0.25342 c -103.59393,0.18372 -143.27255,0.56123 -144.25,1.37245 -1.87154,1.55324 -2.01658,151.80589 -0.14834,153.67413 0.92101,0.92101 31.37778,1.2 131,1.2 H 500 V 527 627 H 370.12244 c -108.23779,0 -130.06547,0.22643 -131.00542,1.359 -0.83005,1.00015 -1.06042,48.92573 -0.87244,181.50002 L 238.5,990.00004 119.75,990.00002 1,990 Z M 652.75316,677.99558 653.00631,365.99115 762.25316,366.24558 871.5,366.5 l 0.24528,311.75 0.24529,311.75 -109.74529,10e-6 H 652.5 Z M 1028.7522,530.5072 1029.0043,71 l 189.2479,0.01032 c 121.0059,0.0066 193.5749,0.380849 201.2478,1.037872 41.2237,3.529967 76.929,12.579513 106.3787,26.961778 22.6537,11.06333 38.3011,22.02538 54.1428,37.93045 32.2518,32.381 51.2564,74.41478 58.6526,129.72601 2.1807,16.30775 2.4994,67.41918 0.5197,83.33357 -3.4153,27.45514 -9.4307,48.77737 -19.6071,69.5 -8.4625,17.2326 -16.5749,28.47285 -31.0867,43.07311 -12.2431,12.31774 -20.743,19.22399 -37.3627,30.35782 -7.7795,5.21159 -9.1323,6.49087 -8,7.56522 0.7495,0.71114 6.9897,2.45616 13.8671,3.87781 46.3124,9.57344 76.6862,22.92368 101.9428,44.80703 34.9694,30.29901 58.1804,79.28731 66.721,140.81901 2.1872,15.75816 2.479,58.37221 0.5066,74 -5.5962,44.34084 -21.8815,85.89859 -45.9749,117.32162 -43.1763,56.31114 -114.2532,92.47045 -203.6999,103.62927 -35.6671,4.44961 -36.1262,4.45849 -246.5,4.76752 l -201.5,0.296 z m 322.2157,273.48242 c 49.1447,-2.48199 78.9633,-9.36114 98.7134,-22.7732 8.1625,-5.54307 19.8425,-18.29502 25.6984,-28.05688 6.177,-10.29721 11.2217,-25.01142 12.6543,-36.90954 2.6489,-22.00045 -4.5365,-46.84984 -19.1577,-66.2537 -16.0825,-21.34302 -41.1294,-33.78635 -76.8763,-38.19212 -7.4763,-0.92145 -27.0583,-1.29557 -68,-1.29915 l -57.5,-0.005 -0.255,95.89146 c -0.1863,70.02243 0.049,96.25795 0.8724,97.25 1.3912,1.67624 53.2871,1.89172 83.8505,0.34816 z m -27.1047,-371.0027 c 18.3964,-1.11885 32.3996,-3.64403 44.3077,-7.98996 28.3892,-10.36077 45.2941,-28.35008 52.5556,-55.92713 2.172,-8.24832 2.5274,-11.77929 2.5742,-25.56983 0.058,-17.25778 -1.3081,-26.16047 -5.88,-38.30703 -8.6844,-23.07218 -27.6664,-39.455 -55.6838,-48.05906 -15.9139,-4.88711 -23.0723,-5.5519 -60.2369,-5.59413 l -35,-0.0398 -0.2554,89.89107 c -0.1863,65.58573 0.05,90.2585 0.8725,91.25 1.3941,1.67987 31.7681,1.86499 56.7461,0.34585 z M 1837.7522,530.5 1838.0043,71 H 1956.0022 2074 v 357.37756 c 0,300.18449 0.2178,357.55827 1.3607,358.50681 1.0001,0.83003 39.1559,1.0612 144,0.87244 L 2362.0001,787.5 2362,888.75 V 990 h -262.25 l -262.25,10e-6 z M 746.17627,246.99562 c -56.14231,-7.90637 -99.09437,-51.82569 -106.24536,-108.63794 -4.79129,-38.06521 8.8777,-75.906568 37.16055,-102.875619 4.6247,-4.409867 11.63956,-10.160994 15.58857,-12.780283 14.18495,-9.408533 35.27246,-17.7384795 48.98557,-19.3501865 2.96485,-0.34846 5.62954,-1.0201198 5.92153,-1.4925775 0.71138,-1.15102484 26.97142,-1.10470995 29.17644,0.051459 0.95504,0.5007599 4.80303,1.4172906 8.55109,2.0367348 15.71721,2.5975883 37.30619,11.8625522 50.18534,21.5371562 47.69319,35.826334 63.13309,99.918466 36.90362,153.189556 -16.7427,34.00379 -48.844,58.80808 -86.56599,66.88851 -8.7737,1.87942 -30.83255,2.67653 -39.66136,1.43319 z"
       id="path821"
       inkscape:connector-curvature="0" />
    <path
       style="fill:#2e6b85"
       d="m 1.0153128,529.75 c 0.00842,-253.1375 0.345922,-459.8 0.75,-459.25 0.4865424,0.662244 89.0578122,1 262.2346872,1 h 261.5 v 99.5 99.5 l -143.44309,0.25341 c -113.23185,0.20005 -143.60982,0.51597 -144.23469,1.5 -1.03443,1.62901 -1.03463,151.86386 -2.1e-4,153.49284 0.62388,0.98246 28.40281,1.29997 131.23469,1.5 L 499.5,427.5 v 99.5 99.5 l -130.4433,0.25375 c -102.83188,0.20003 -130.61081,0.51754 -131.23469,1.5 -0.43526,0.68544 -0.79828,81.90875 -0.8067,180.49625 L 237,988 119.25,988.24388 1.5,988.48775 120.5,989 l 119,0.51225 -119.25,0.24387 L 1,990 Z M 706.75,989.25017 c 30.3875,-0.1469 80.1125,-0.1469 110.5,0 30.3875,0.14691 5.525,0.26711 -55.25,0.26711 -60.775,0 -85.6375,-0.1202 -55.25,-0.26711 z m 421.5,-1.2e-4 c 55.4125,-0.14279 146.0875,-0.14279 201.5,0 55.4125,0.1428 10.075,0.25962 -100.75,0.25962 -110.825,0 -156.1625,-0.11682 -100.75,-0.25962 z M 2099,989 2361.5,988.49436 2100.25,988.24718 1839,988 V 529.49587 70.991737 l 117.25,0.254132 117.25,0.254131 0.2514,357.94184 c 0.2,284.83165 0.5064,358.10378 1.5,358.73469 0.6867,0.43606 65.2236,0.79974 143.4153,0.80816 112.8091,0.0122 142.2708,-0.24282 142.671,-1.23469 0.2774,-0.6875 0.5399,44.5375 0.5834,100.5 L 2362,990 2099.25,989.75282 1836.5,989.50564 Z M 653,677.5 V 367 H 762 871 V 677.5 988 H 762 653 Z M 1030,529.45466 V 70.909316 l 190.75,0.370856 c 198.7679,0.386445 196.2919,0.334171 225.5945,4.762836 103.8923,15.701799 168.8579,73.753382 187.5878,167.623482 4.8614,24.36438 5.5711,33.0739 5.5279,67.83351 -0.042,33.43684 -0.9759,44.40455 -5.4941,64.5 -11.2847,50.19121 -37.168,86.52209 -82.147,115.30501 -9.6714,6.18892 -11.6993,8.21477 -9.9621,9.95194 0.5073,0.50739 7.0349,2.19488 14.5056,3.74999 51.6405,10.74947 82.8022,25.50418 109.4806,51.8378 28.5226,28.15401 48.6949,70.63946 57.0501,120.15526 4.8543,28.76749 5.37,68.73957 1.235,95.71322 -18.0918,118.01818 -107.53,194.01609 -249.1283,211.6906 -26.9035,3.35814 -41.7085,3.57641 -243.25,3.58629 L 1030,988 Z m 351.5,273.20466 c 25.2761,-3.32893 46.4311,-8.58732 58,-14.41675 14.7712,-7.44302 27.8944,-19.98236 36.8835,-35.24257 20.0342,-34.01046 16.039,-76.42735 -10.127,-107.51739 -7.3226,-8.70063 -16.9877,-16.05436 -28.6067,-21.7656 -25.1583,-12.36642 -44.5293,-14.67623 -123.2928,-14.70154 -42.9868,-0.0138 -48.208,0.15394 -48.75,1.56632 -0.8156,2.12526 -0.7817,190.79949 0.035,192.92674 0.5915,1.54141 4.6757,1.63534 52.25,1.20167 39.055,-0.35601 54.5273,-0.85487 63.6084,-2.05088 z m -34.7569,-371.04833 c 40.5346,-7.93787 63.8537,-26.63948 73.9592,-59.3144 2.5951,-8.391 2.7206,-9.76484 2.7206,-29.79659 0,-20.11249 -0.1169,-21.37827 -2.7652,-29.95066 -11.0069,-35.62798 -37.5103,-55.12184 -82.9589,-61.01827 -8.3007,-1.07692 -20.6531,-1.53107 -41.643,-1.53107 -26.2894,0 -29.9141,0.1883 -30.4488,1.58179 -0.8162,2.12686 -0.7813,178.80043 0.036,180.92948 0.5895,1.5361 3.6339,1.63504 36.75,1.1944 27.5634,-0.36675 38.0578,-0.86241 44.3504,-2.09468 z M 744.52015,245.88531 C 698.34206,239.16069 659.78879,206.04268 645.50624,160.83042 638.53727,138.7697 638.22146,111.42722 644.6766,89 653.44478,58.536567 677.45538,30.075499 706.66659,15.519914 721.06418,8.3457724 739.53311,3.224663 752.36047,2.8498063 L 757.5,2.6996126 753,2 c -2.91905,-0.4538235 0.24284,-0.6996126 9,-0.6996126 7.59363,0 11.53121,0.2695209 9,0.6160351 -4.08806,0.5596421 -3.72189,0.6787098 4,1.3006921 46.1769,3.7194515 88.74598,37.9254634 103.42244,83.1041884 8.01869,24.684037 7.6246,54.572507 -1.0405,78.912367 -15.06898,42.32807 -54.50359,74.53059 -98.81627,80.69391 -8.91063,1.23936 -25.38502,1.2189 -34.04552,-0.0423 z"
       id="path819"
       inkscape:connector-curvature="0" />
  </g>
</svg>
