<?xml version="1.0" encoding="UTF-8" standalone="no"?>
<svg
   xmlns:dc="http://purl.org/dc/elements/1.1/"
   xmlns:cc="http://creativecommons.org/ns#"
   xmlns:rdf="http://www.w3.org/1999/02/22-rdf-syntax-ns#"
   xmlns:svg="http://www.w3.org/2000/svg"
   xmlns="http://www.w3.org/2000/svg"
   xmlns:sodipodi="http://sodipodi.sourceforge.net/DTD/sodipodi-0.dtd"
   xmlns:inkscape="http://www.inkscape.org/namespaces/inkscape"
   width="112.21mm"
   height="30.806mm"
   version="1.1"
   viewBox="0 0 112.21 30.806"
   id="svg42"
   sodipodi:docname="logo.svg"
   inkscape:version="0.92.4 (5da689c313, 2019-01-14)">
  <defs
     id="defs46" />
  <sodipodi:namedview
     pagecolor="#ffffff"
     bordercolor="#666666"
     borderopacity="1"
     objecttolerance="10"
     gridtolerance="10"
     guidetolerance="10"
     inkscape:pageopacity="0"
     inkscape:pageshadow="2"
     inkscape:window-width="888"
     inkscape:window-height="480"
     id="namedview44"
     showgrid="false"
     inkscape:zoom="1.0610685"
     inkscape:cx="212.05039"
     inkscape:cy="58.216063"
     inkscape:window-x="386"
     inkscape:window-y="90"
     inkscape:window-maximized="0"
     inkscape:current-layer="svg42" />
  <metadata
     id="metadata2">
    <rdf:RDF>
      <cc:Work
         rdf:about="">
        <dc:format>image/svg+xml</dc:format>
        <dc:type
           rdf:resource="http://purl.org/dc/dcmitype/StillImage" />
        <dc:title></dc:title>
      </cc:Work>
    </rdf:RDF>
  </metadata>
  <g
     transform="translate(-25.536 -46.648)"
     id="g40">
    <g
       id="g38">
      <path
         d="m82.041 74.625c-1.2766 0.48609-2.7739 0.7107-4.6321 0.69484-1.8841-0.01606-3.3624-0.25031-5.9167-0.93759-0.77255-0.20786-4.0003-1.4917-5.0611-2.013-0.45674-0.22446-1.1202-0.5452-1.4743-0.71274-0.35413-0.16755-0.74799-0.3871-0.87526-0.48789-0.12726-0.1008-0.2972-0.19124-0.37762-0.20098-0.13075-0.0158-2.4312-1.4305-3.5117-2.1596-1.3675-0.92264-4.1818-3.498-5.6267-5.149-0.7289-0.83285-2.3042-2.3344-3.4956-3.3319-0.9931-0.83149-1.4968-1.2064-3.8295-2.8502-0.58226-0.41032-1.9945-1.5103-3.1383-2.4445-2.5317-2.0676-3.4294-2.7602-4.2036-3.2428-0.81213-0.50629-1.3526-0.93228-1.2463-0.98232 0.04865-0.0229 0.1787 0.03759 0.28901 0.13449 0.1103 0.09685 0.22993 0.16228 0.26585 0.14537 0.03592-0.01685 0.11962 0.0289 0.18602 0.10181 0.06639 0.07288 0.28382 0.20183 0.48319 0.28654 0.19937 0.0847 0.42059 0.21186 0.49159 0.28259 0.071 0.07072 0.16836 0.11011 0.21634 0.08754 0.04798-0.02261 0.1203 0.02922 0.16071 0.1151 0.0404 0.08584 0.1774 0.1553 0.30444 0.15428 0.12703-0.0011 0.28026 0.0723 0.34051 0.16294 0.08839 0.13301 0.08139 0.14735-0.03629 0.0743-0.23776-0.14758-0.2086 0.0249 0.03397 0.20089 0.12271 0.08902 0.73548 0.57802 1.3617 1.0867 0.62622 0.50863 1.2199 0.9839 1.3193 1.0561 0.09938 0.07229 0.57427 0.45735 1.0553 0.85579 0.48104 0.39845 0.92495 0.74993 0.98647 0.78107 0.06152 0.03117 0.402 0.28476 0.75661 0.56358 0.35462 0.27883 0.99669 0.74659 1.4268 1.0395 0.43014 0.29288 0.79299 0.55572 0.80633 0.58407 0.01333 0.02833 0.1809 0.13744 0.37233 0.2424 0.19144 0.10496 0.35953 0.21519 0.37354 0.24496 0.01401 0.02976 0.5635 0.50597 1.2211 1.0582 0.6576 0.55225 1.2057 1.0255 1.218 1.0516 0.01227 0.02614 0.21068 0.21149 0.44085 0.4119 0.69558 0.60564 1.3658 1.2838 1.8966 1.9192 0.27681 0.33132 0.73476 0.82071 1.0177 1.0876 0.2829 0.26683 0.73383 0.72206 1.0021 1.0116 0.45445 0.4906 1.1228 1.0979 1.4521 1.3196 0.07806 0.05256 0.63131 0.49813 1.2295 0.99022 1.0739 0.88345 1.4923 1.1715 3.0806 2.1207 1.8744 1.1202 2.7671 1.5951 4.1212 2.1926 2.9729 1.3118 4.0973 1.7489 5.247 2.0393 0.54814 0.13848 1.1735 0.30187 1.3897 0.36312 0.75184 0.21297 3.4291 0.53567 4.2388 0.51091 2.61-0.0798 3.6796-0.29691 5.3283-1.0815 1.333-0.63435 2.6013-1.5163 3.1532-2.1928 0.20008-0.24525 0.40073-0.46329 0.44587-0.48453 0.04515-0.02127 0.06333-0.07851 0.04041-0.12719-0.02293-0.04874 0.0034-0.1098 0.05856-0.13574 0.17702-0.08325 0.96299-1.2135 1.305-1.8766 0.44061-0.8542 0.94013-2.2488 1.0523-2.9379 0.04981-0.30607 0.11716-0.569 0.14966-0.58429 0.0325-0.01534 0.05651-0.59863 0.05335-1.2963-0.0032-0.69766-0.0039-1.3911-0.0016-1.5409 0.01157-0.77018-0.85721-2.9246-1.6077-3.9869-0.34184-0.48382-0.52655-0.67834-1.2182-1.2828-0.72157-0.63061-2.1534-1.432-2.2581-1.2638-0.02517 0.04045-0.12917 0.03094-0.23113-0.0211-0.15937-0.08138-0.16267-0.09259-0.02352-0.08008 0.22996 0.02073 0.0095-0.0538-0.58137-0.19666-0.2713-0.06557-0.86112-0.13342-1.3107-0.15076-1.4477-0.05586-2.3997 0.0987-4.3929 0.71323-0.59548 0.18359-1.4759 0.43676-1.9565 0.5626-0.48765 0.12768-1.3113 0.43443-1.8637 0.69411-1.0416 0.4899-1.3148 0.45473-0.41757-0.05349 0.76835-0.43522 4.7197-1.6618 6.4002-1.9868 1.4241-0.27539 3.2803-0.19286 4.3441 0.19314 0.74775 0.27133 1.6694 0.8053 2.4995 1.4482 0.58978 0.45675 1.5993 1.811 2.024 2.7154 0.61453 1.3081 0.97828 2.8944 0.90713 3.9547-0.01444 0.21505-0.0378 0.61551-0.05193 0.88992-0.02464 0.47829-0.27404 1.6895-0.5466 2.6543-0.22685 0.80307-1.048 2.3147-1.8092 3.3306-1.3484 1.7996-2.7676 2.8718-4.851 3.6651zm-0.90889-0.10565c-0.70387 0.22136-1.214 0.18108-1.3934-0.11012-0.11407-0.1851-0.20128-0.19942-0.64259-0.10555-0.28084 0.05972-0.57432 0.06113-0.6522 0.0031-0.12224-0.09104-0.14271-0.07127-0.14978 0.14488-0.0071 0.21626-0.05848 0.26591-0.37767 0.36473-0.45459 0.14077-2.1606 0.07009-2.7039-0.11199-0.317-0.10623-0.41727-0.19079-0.48487-0.40892-0.07813-0.25212-0.12716-0.27434-0.59013-0.26665-0.48891 0.0081-1.1146-0.17076-1.3082-0.37391-0.07242-0.07599-0.11785-0.04099-0.19471 0.1502-0.17891 0.44494-0.60757 0.39317-2.4576-0.29677-0.75774-0.28259-0.99967-0.53751-0.87215-0.91898 0.05684-0.17005 0.03039-0.18441-0.2339-0.12705-0.17873 0.03874-0.56655-0.03908-0.96902-0.19457-0.53864-0.20808-0.69856-0.31706-0.8105-0.55227-0.07647-0.16128-0.14867-0.24004-0.15993-0.17523-0.05693 0.32773-0.19292 0.47486-0.43628 0.47206-0.22033-0.0025-0.54542-0.16481-1.9269-0.96191-0.26997-0.15577-0.46919-0.35164-0.57674-0.56704-0.10953-0.21942-0.27493-0.37956-0.49627-0.48059-0.49079-0.22402-0.99903-0.59132-1.0922-0.7893-0.11423-0.24277-0.22153-0.26347-0.3601-0.06945-0.19003 0.26607-0.43945 0.23273-1.0507-0.1405-0.90814-0.55454-1.3658-0.98365-1.6114-1.5108-0.11955-0.25614-0.23891-0.45557-0.26568-0.44298-0.15571 0.07327-1.2865-1.1005-1.3095-1.3592-0.01211-0.13596-0.06516-0.12998-0.3187 0.03582-0.35284 0.23083-0.42039 0.19383-1.1359-0.62173-0.24016-0.27377-0.59968-0.64014-0.79893-0.81415-0.43623-0.381-0.62614-0.74182-0.49281-0.93631 0.07706-0.11242 0.06131-0.17031-0.07306-0.26852-0.37394-0.27333-1.2082-1.0637-1.3893-1.3162-0.13262-0.18492-0.18212-0.36192-0.16053-0.57358 0.03108-0.3042 0.03064-0.30465-0.06831-0.06993-0.22018 0.52222-0.43112 0.44989-1.6357-0.56091-0.90473-0.7592-1.0746-0.97434-0.98529-1.2478 0.04239-0.12976 0.01591-0.17025-0.13297-0.20341-0.29908-0.06661-1.1066-0.7594-1.0295-0.88328 0.07151-0.11492-0.13564-0.37245-0.25458-0.31647-0.04009 0.01886-0.02247 0.08414 0.03916 0.14508 0.24108 0.23838-0.18369 0.11032-0.756-0.22794-0.69896-0.4131-1.0845-0.84485-0.81085-0.90804 0.11744-0.02714 0.20119 0.03251 0.26278 0.18702 0.0717 0.17989 0.12823 0.20687 0.27318 0.13037 0.10053-0.05302 0.21423-0.147 0.25268-0.20878 0.04647-0.0747 0.07469-0.05831 0.08419 0.04881 0.0081 0.09108 0.05897 0.14016 0.11699 0.11286 0.05648-0.02654 0.10878 0.02032 0.11622 0.10414 0.0074 0.08381 0.06103 0.15887 0.11906 0.16674 0.05803 0.0078 0.06801-0.06547 0.02217-0.16286-0.1945-0.41338 0.26751-0.43788 0.70078-0.03717 0.11418 0.10561 0.40599 0.21912 0.64847 0.25225 0.28535 0.03903 0.64183 0.20419 1.0106 0.46832 0.31335 0.22446 0.57701 0.38631 0.58591 0.35968 0.05549-0.16603-2.491-1.8094-2.8972-1.8697-0.07801-0.01158-0.13774-0.06481-0.13273-0.11821 5e-3 -0.05346-0.12344-0.1309-0.28544-0.17213-0.16199-0.04119-0.32479-0.13925-0.36176-0.21782-0.03696-0.07859-0.20314-0.18471-0.36927-0.23589-0.16613-0.05117-0.32615-0.14424-0.3556-0.20682-0.02944-0.06256-0.15346-0.12088-0.2756-0.12957-0.12468-0.0089-0.22772-0.07942-0.23495-0.16086-0.0071-0.07982-0.07356-0.1543-0.14829-0.16534-0.07449-0.0112-0.28306-0.13742-0.4635-0.28058-0.39817-0.31591-0.52354-0.34636-0.40709-0.09887 0.04815 0.10235 0.19849 0.2335 0.33409 0.29146 0.13559 0.05792 0.30142 0.17264 0.36851 0.25483 0.09851 0.12071 0.07668 0.17077-0.11331 0.26015-0.18112 0.08525-0.29632 0.05955-0.50052-0.11172-0.14588-0.12234-0.26118-0.2658-0.25621-0.31882 0.02259-0.2412-0.17066-0.6397-0.4258-0.87804-0.38629-0.36086-0.53186-0.3564-0.25391 0.0078 0.12413 0.16264 0.2171 0.3214 0.20661 0.35279-0.0105 0.03136-0.04092 0.0109-0.06771-0.04624-0.02675-0.05684-0.09152-0.07101-0.14394-0.03145-0.05242 0.03956-0.10972 0.01403-0.12722-0.05599-0.01751-0.07033-0.13826-0.15957-0.26826-0.19833-0.13-0.03874-0.28397-0.14135-0.34215-0.22797-0.05817-0.08665-0.23435-0.20843-0.39149-0.27068-0.15714-0.06221-0.31469-0.17477-0.35012-0.25007-0.03542-0.07525-0.09649-0.12179-0.1357-0.10334-0.03921 0.01845-0.24378-0.10438-0.45461-0.27294-0.21082-0.16857-0.41164-0.29316-0.44625-0.27687-0.09662 0.04541-0.73527-0.43423-0.86638-0.65072-0.06403-0.1057-0.16004-0.20657-0.21338-0.22416-0.05334-0.01753-0.04195 0.02492 0.02526 0.09428 0.0869 0.08978 0.08011 0.12871-0.02347 0.13471-0.08018 0.0045-0.17755-0.05918-0.21642-0.14179-0.03887-0.08259-0.28873-0.23977-0.55524-0.34925-0.26652-0.10947-0.67285-0.31737-0.90296-0.46198-0.23011-0.14462-0.47031-0.23851-0.53376-0.20865-0.06346 0.02989-0.13612 0.01012-0.16146-0.04367-0.03975-0.0845-0.23228-0.20049-0.8673-0.52256-0.07351-0.03729-0.15319-0.10932-0.17708-0.1601-0.07161-0.1522 0.10517-0.17671 0.23516-0.03295 0.06647 0.07368 0.23918 0.15063 0.38379 0.17102 0.14461 0.02039 0.58829 0.20043 0.98595 0.40011 0.39766 0.19966 0.93755 0.45681 1.1998 0.57146 1.9547 0.85461 3.6531 1.8445 9.2948 5.4175 1.4232 0.90134 2.5275 1.7592 3.6427 2.8299 0.31196 0.29948 0.76612 0.71868 1.0093 0.93156 0.24313 0.21286 0.5942 0.55887 0.78015 0.76888 0.18596 0.21001 0.69404 0.72556 1.1291 1.1456 0.43503 0.42008 0.98847 0.96298 1.2299 1.2064 1.1032 1.1126 3.8919 3.1973 5.4742 4.0923 1.2804 0.72422 4.0133 2.0121 5.9996 2.8274 2.8036 1.1507 6.1164 1.7798 8.5088 1.6159 1.2757-0.0874 2.3249-0.35989 3.4984-0.90863 0.82559-0.38597 1.0656-0.54266 1.5767-1.0287 0.33155-0.31536 0.65679-0.66161 0.72276-0.76943 0.06597-0.10783 0.20159-0.26956 0.30137-0.3594 0.24333-0.21908 0.82986-1.142 1.1873-1.8681 0.62267-1.2651 0.99131-3.3798 0.79642-4.5688-0.16115-0.98318-0.43143-1.5614-1.1247-2.4062-1.0034-1.2227-1.6597-1.7325-2.5609-1.9894-0.80877-0.23051-1.7372-0.27916-2.4881-0.13034-0.8566 0.16977-2.0543 0.31407-2.1373 0.25776-0.19136-0.13031 0.07821-0.21122 1.3117-0.39373 0.71717-0.10609 1.5946-0.24862 1.9498-0.31657 0.35885-0.06868 0.61529-0.07405 0.57695-0.01291-0.05265 0.0846-0.03837 0.11489 0.06055 0.12828 0.07121 0.0097 0.1399-0.01359 0.15264-0.05175 0.01274-0.03807 0.13674-0.03003 0.27555 0.01804 0.13881 0.04807 0.27484 0.05126 0.3023 0.0071 0.02746-0.04415 0.08119-0.01367 0.11935 0.0673 0.04302 0.09147 0.10667 0.1075 0.16731 0.04227 0.05382-0.05795 0.1704-0.06927 0.25899-0.02571 0.08865 0.04406 0.21586 0.05433 0.28268 0.02283 0.06683-0.0314 0.1167-0.0068 0.11094 0.05581-0.0058 0.06212 0.18138 0.18095 0.41601 0.26405 0.30619 0.10846 0.49115 0.24964 0.65531 0.50018 0.20256 0.30914 0.20866 0.35059 0.05338 0.36224-0.16495 0.01253-0.16132 0.01968 0.06155 0.123 0.1303 0.06046 0.33063 0.25434 0.44519 0.43094 0.11458 0.1766 0.35925 0.45513 0.54375 0.61893 0.39028 0.34649 0.81874 1.1681 0.98701 1.8928 0.06228 0.26821 0.16922 0.69492 0.23764 0.94824 0.13819 0.51164 0.01414 1.2271-0.42325 2.4412-0.14255 0.39564-0.22984 0.78169-0.19399 0.85788 0.06702 0.14245-0.25865 1.0837-0.39759 1.1491-0.04273 0.02008-0.06211 0.06971-0.04306 0.11016 0.04093 0.08698-0.1064 0.27861-0.68898 0.89613-0.23696 0.25118-0.41645 0.48726-0.39886 0.52465 0.01758 0.03739-0.02888 0.09658-0.10326 0.13159-0.25381 0.11945-0.57725 0.61785-0.50314 0.77536 0.05601 0.11904-0.05182 0.25787-0.46394 0.59731-0.2953 0.24323-0.56414 0.41282-0.59744 0.37687-0.08373-0.09036-1.6284 0.7033-1.951 1.0025-0.32478 0.30123-1.3749 0.59321-1.8203 0.50612-0.18459-0.03609-0.35769-0.0031-0.46514 0.08875-0.1093 0.09344-0.16715 0.10363-0.16013 0.02807 0.01472-0.15714-0.56179-0.13384-0.713 0.02875-0.06555 0.07052-0.10558 0.08756-0.08897 0.03785 0.01661-0.04971-0.06051-0.11181-0.17139-0.13801-0.23336-0.05517-0.38018-0.01549-0.25593 0.06915 0.04686 0.0319-0.0044 0.07364-0.11399 0.09268-0.12421 0.02179-0.17423-0.0054-0.13287-0.07184 0.03747-0.06024-0.32122-0.12016-0.82488-0.13783-0.49016-0.01723-0.93346-0.06006-0.98512-0.09524-0.05165-0.03516-0.16782-0.02922-0.25812 0.01322-0.0903 0.04254-0.1785 0.04748-0.19602 0.01109-0.01734-0.03641-0.22102-0.0984-0.45226-0.1378-0.23124-0.03941-0.46923-0.1036-0.52888-0.14268-0.05965-0.03904-0.2482-0.0667-0.41902-0.06153-0.17081 0.0053-0.57223-0.07983-0.89204-0.18898-0.31981-0.10915-0.62036-0.15759-0.66788-0.10762-0.04752 0.04995-0.11168 0.03713-0.14259-0.02859-0.06031-0.12818-1.6595-0.68934-1.7898-0.62804-0.05128 0.02411 0.25162 0.49886 0.36955 0.57914 0.05621 0.03824 0.03137 0.06868-0.06058 0.07406-0.22454 0.01296-0.1058 0.1961 0.1384 0.21348 0.1492 0.01058 0.2026-0.02103 0.19584-0.11539-0.0055-0.07669 0.02334-0.06762 0.07029 0.02187 0.04376 0.08352 0.11197 0.13664 0.1515 0.11804 0.03954-0.01859 0.29336 0.01321 0.56403 0.07064 0.33926 0.07202 0.46938 0.14102 0.41891 0.22211-0.04816 0.07742-0.03403 0.12295 0.04129 0.13316 0.06298 0.0085 0.11973-0.0404 0.12614-0.10873 0.01744-0.1862 0.39603-0.22126 1.0988-0.10174 0.34618 0.0589 0.76062 0.11832 0.921 0.13212 0.50259 0.04322 0.90955 0.18384 1.1105 0.38372 0.10654 0.10597 0.24343 0.17238 0.30418 0.14756 0.06079-0.02474 0.03519 0.04184-0.05684 0.14824-0.15432 0.17834-0.11674 0.18407 0.48403 0.07383 0.35825-0.06569 0.69309-0.09517 0.74412-0.06528 0.13267 0.0775 0.76202 0.0086 1.0169-0.11166 0.11895-0.05601 0.37836-0.10614 0.57644-0.11163 0.1981-0.0054 0.56469-0.05354 0.81467-0.10689 0.64113-0.13684 0.96491-0.06863 1.0413 0.21949 0.05381 0.20291 0.09522 0.21808 0.33075 0.12101 0.36463-0.15023 0.83628-0.41946 0.86185-0.49191 0.01148-0.03248-0.0447-0.068-0.12479-0.07884-0.23134-0.03135 0.33021-0.40534 1.426-0.94976 0.89858-0.44642 1.1546-0.51072 0.99178-0.249-0.03289 0.05285-0.02431 0.12024 0.01899 0.14978 0.04336 0.02949 0.18786-0.08494 0.32122-0.2541 0.13331-0.16928 0.35302-0.39375 0.48825-0.49885 0.13523-0.10508 0.22734-0.23045 0.20469-0.27858-0.02302-0.04893-0.10805-0.02383-0.19283 0.05683-0.10206 0.09711-0.14781 0.10335-0.13997 0.01863 0.0064-0.06894 0.0657-0.15069 0.13168-0.18173 0.06598-0.03099 0.13464-0.17905 0.15261-0.32892 0.01797-0.14986 0.14972-0.46498 0.29278-0.70027 0.14306-0.23527 0.24665-0.45638 0.2302-0.49134-0.02944-0.06257 0.61733-0.60241 0.85674-0.71506 0.0675-0.03178 0.15085 2e-3 0.18523 0.07509 0.08908 0.18932 0.15606 0.12798 0.2254-0.2064 0.03319-0.16007 0.17992-0.40591 0.32605-0.54631 0.14614-0.1404 0.3177-0.32588 0.38124-0.41219 0.10988-0.14924 0.10442-0.16186-0.11151-0.25785-0.26748-0.1189-0.3931-0.08278-0.31194 0.0897 0.04844 0.10295-0.05926 0.30992-0.19433 0.37347-0.10478 0.0493-0.10391-0.19881 0.0016-0.45372 0.06648-0.16062 0.09866-0.33926 0.0715-0.39698-0.08542-0.18155 0.07924-0.75553 0.29028-1.0119 0.11144-0.13537 0.24259-0.30937 0.29145-0.38669 0.04886-0.0773 0.14577-0.19396 0.21536-0.25922 0.06958-0.06526 0.11649-0.24907 0.10424-0.40846-0.01386-0.18033 0.01454-0.25247 0.07519-0.19096 0.05361 0.05436 0.07613 0.16303 0.04972 0.24165-0.02625 0.07854-0.01856 0.20484 0.0171 0.28063 0.0365 0.07754-0.07007 0.30699-0.2438 0.52483-0.33033 0.41421-0.43207 0.77774-0.34079 1.2178 0.05674 0.27352 0.05772 0.27365 0.39399 0.05363 0.42971-0.28112 0.47318-0.42467 0.25832-0.85314-0.16242-0.32386-0.15823-0.35481 0.06171-0.45829 0.12973-0.06102 0.23162-0.16984 0.22644-0.24177-0.0074-0.1033 0.0031-0.10783 0.05011-0.02156 0.03949 0.07245 0.12114 0.05772 0.24229-0.04367 0.17024-0.14244 0.18966-0.13197 0.28396 0.15305 0.05567 0.16826 0.10928 0.43349 0.11912 0.58938 0.01982 0.31366-0.2061 0.70043-0.39428 0.67495-0.06898-0.0093-0.09131 0.04639-0.0519 0.1302 0.09111 0.19364-0.01047 0.81236-0.14367 0.87503-0.05767 0.02709-0.0969 0.24286-0.08719 0.47941 0.01872 0.45589-0.3222 1.3042-0.69383 1.7264-0.17117 0.19448-0.26451 0.24206-0.42941 0.21893-0.17377-0.02438-0.2281 0.01691-0.30995 0.23575-0.05459 0.14592-0.11923 0.27833-0.14365 0.29424-0.43977 0.28655-0.61446 0.55252-0.46194 0.70332 0.1996 0.19736-0.27691 0.92112-1.0226 1.5532-0.54308 0.46034-0.98609 0.63032-1.0865 0.41692-0.04342-0.09233-0.18612-0.05111-0.61292 0.1768-0.45802 0.24456-0.55498 0.33397-0.54862 0.50588 0.01276 0.34506-0.43581 0.617-1.645 0.99726zm1.3342-1.0763c-0.05284-0.1123-0.26004-0.24666-0.48319-0.31333-0.40451-0.12084-0.74177-0.05327-0.61369 0.1229 0.0403 0.05544-0.0029 0.13659-0.09593 0.18038-0.09305 0.04377-0.18304 0.02576-0.20012-0.04109-0.01704-0.06635-0.069-0.10276-0.11553-0.08084-0.04653 0.02184-0.06173 0.0899-0.03379 0.15113 0.03851 0.08394 0.02299 0.09294-0.06235 0.0363-0.13954-0.09248-0.77528 0.25465-0.87332 0.47685-0.2293 0.51966 0.73824 0.50224 1.9115-0.0344 0.62601-0.28628 0.65422-0.31128 0.56637-0.49797zm2.3814-1.2503c0.49642-0.42811 0.97991-1.0497 0.96317-1.2382-0.04285-0.48294-0.94929-0.09839-1.5904 0.67471-0.24741 0.29833-0.33345 0.76791-0.17028 0.92925 0.13798 0.13644 0.30301 0.0607 0.79755-0.36575zm-1.1529-0.01993c0.07581-0.25095 0.10224-0.49462 0.05873-0.54152-0.10698-0.1153-2.087 0.81145-2.0664 0.9672 0.01763 0.13326 0.63621 0.38573 0.92002 0.37549 0.11173-0.0042 0.37117-0.08324 0.57648-0.17611 0.32197-0.14559 0.39224-0.23152 0.51114-0.62505zm-3.7647 1.3694c0.09103-0.11484 0.1313-0.30225 0.09186-0.4275-0.0631-0.2004-0.09463-0.20655-0.31238-0.06009-0.13319 0.08963-0.25472 0.13627-0.27001 0.10376-0.03816-0.08107-0.81736 0.03148-0.84779 0.1225-0.01344 0.04016 0.01999 0.05221 0.07426 0.02663s0.11608-0.0098 0.13745 0.03595c0.0238 0.05055-0.0805 0.10019-0.27 0.12853-0.22231 0.03344-0.313 0.08549-0.32372 0.18693-0.02377 0.22473 0.01892 0.26086 0.41775 0.35352 0.58723 0.13642 0.91587 0.01781 1.3026-0.47018zm-1.8923 0.62892c-0.03669-0.11662-0.10744-0.19287-0.15721-0.16945-0.04976 0.02343-0.12342-0.02744-0.1637-0.11306-0.17504-0.37202-1.4341-0.52788-2.0295-0.25124-0.13979 0.06523-0.34842 0.16088-0.46351 0.21286-0.32881 0.14887-0.33332 0.32625-0.0131 0.51477 0.34794 0.20485 2.4071 0.31148 2.6926 0.13942 0.13972-0.08426 0.18082-0.18609 0.13447-0.33331zm8.3386-4.4134c0.12535-0.17302 0.17127-0.36779 0.12724-0.53969-0.0379-0.14792-0.09454-0.39016-0.1259-0.5383-0.0908-0.42897-0.30175-0.32071-0.80204 0.4116-0.52163 0.76354-0.64522 1.0256-0.56458 1.1969 0.14157 0.3009 1.0064-0.03519 1.3653-0.53055zm0.96481-0.734c0.24097-0.41436 0.56581-1.3637 0.50839-1.4858-0.07739-0.16449-0.33424-0.23346-0.52622-0.14129-0.14235 0.06856-0.1434 0.08752-0.0055 0.10911 0.14869 0.02323 0.1538 0.03411 0.04597 0.09771-0.06671 0.03934-0.1533 0.08043-0.19245 0.09112-0.03912 0.01069-0.06486 0.09018-0.05721 0.17637 0.0077 0.08619-0.03573 0.1801-0.0964 0.20865-0.13499 0.06346-0.29865 0.70339-0.2554 0.99857 0.01981 0.13551 0.08756 0.22383 0.18221 0.23776 0.20387 0.02998 0.21308 0.02314 0.39657-0.29231zm-12.12 4.1885c0.0085-0.25884-0.20366-0.3777-0.65603-0.36754-0.18274 0.0041-0.35544-0.04179-0.3838-0.10208-0.02835-0.06028-0.16842-0.08623-0.31127-0.05771-0.14284 0.02854-0.37781 0.01273-0.52213-0.03499-0.17105-0.05663-0.26639-0.04451-0.27386 0.03453-0.01437 0.15341-0.2411 0.26631-0.29687 0.14778-0.02293-0.04874 0.01542-0.11544 0.0852-0.14828 0.06978-0.03285 0.11047-0.09458 0.09042-0.1372-0.05892-0.12523-0.45262 0.10459-0.496 0.28949-0.03063 0.13057 0.0072 0.19038 0.16492 0.26048 0.11258 0.05008 0.21119 0.11228 0.21914 0.13828 0.05478 0.17922 0.34654 0.36725 0.59078 0.3807 0.15945 0.0088 0.32282 0.03428 0.36303 0.0566 0.39639 0.22001 1.4149-0.10866 1.4264-0.46037zm12.766-6.3951c-0.0073-0.08291-0.05586-0.17971-0.10774-0.21505-0.14689-0.10003-0.30483 0.13306-0.21685 0.32007 0.09244 0.19646 0.34411 0.11502 0.32459-0.105zm-15.562 6.6824c-0.06065-0.29241-0.4831-0.79906-0.78793-0.945-0.37409-0.1791-0.98397-0.22277-1.5019-0.10757-0.4143 0.09219-0.49322 0.1374-0.55344 0.31763-0.06505 0.19462-0.03217 0.22177 0.44487 0.3674 0.28332 0.08649 0.74287 0.24483 1.0212 0.35187 0.59407 0.22845 1.1696 0.35648 1.3194 0.2935 0.05844-0.02446 0.0844-0.14957 0.0578-0.27782zm16.108-8.0212c-0.08992-0.19112-0.28423-0.35815-0.3698-0.31788-0.11002 0.05173-0.05184 0.53189 0.08026 0.66252 0.1366 0.13507 0.37931-0.15382 0.28953-0.34464zm-18.511 6.2449c0.01556-0.15618-0.03893-0.21967-0.26272-0.30612-0.15529-0.06001-0.25941-0.06034-0.2314-8.26e-4 0.02801 0.05951-0.01082 0.13732-0.0863 0.17284-0.11365 0.05347-0.12973 0.03252-0.09355-0.12165 0.03612-0.15397 0.0055-0.19517-0.17679-0.23794-0.31607-0.07416-0.34568-0.03751-0.17581 0.2179 0.14467 0.2175 0.14216 0.2222-0.06261 0.11697-0.11733-0.06029-0.23471-0.15506-0.26083-0.2106-0.02613-0.05551-0.17877-0.10821-0.33919-0.11707-0.16043-0.0088-0.33278-0.03995-0.38301-0.06908-0.05021-0.02918-0.17826 0.02016-0.28461 0.10871-0.25525 0.2136-0.14543 0.42529 0.37834 0.72925 0.31868 0.18494 0.4552 0.21224 0.57019 0.11398 0.10392-0.08877 0.17118-0.08668 0.21509 0.0066 0.14557 0.30939 1.1562-0.03201 1.1932-0.40305zm-1.7941 0.0042c-0.02293-0.04874-0.0036-0.10649 0.04292-0.12837 0.04651-0.02194 0.10334 1.8e-5 0.12626 0.04875 0.02293 0.04874 0.0036 0.10649-0.04292 0.12837-0.04652 0.02194-0.10334-1.7e-5 -0.12626-0.04875zm1.8317-0.7181c-0.06279-0.13344-1.1655-0.46167-1.2257-0.36485-0.04092 0.06578-0.06021 0.05246-0.05195-0.03583 0.0083-0.0888-0.17136-0.20746-0.48882-0.32288-0.27608-0.10037-0.68057-0.28201-0.89886-0.40364-0.54815-0.30541-1.6609-0.70672-1.8368-0.66246-0.07988 0.02006-0.11782 0.09485-0.08431 0.16605 0.03351 0.07125 0.06662 0.19363 0.07358 0.27199 7e-3 0.07832 0.19645 0.22444 0.42109 0.3246 0.22464 0.10017 0.49356 0.26378 0.59761 0.36358 0.16746 0.16063 0.19176 0.15972 0.21176-8e-3 0.02039-0.17102 0.0478-0.18533 0.28178-0.1472 0.14256 0.02326 0.27809 0.08241 0.30118 0.13148 0.02436 0.05179-0.03087 0.06862-0.13157 0.04009-0.22151-0.06262-0.36021 0.12856-0.16393 0.22605 0.09564 0.04745 0.12206 0.11668 0.08588 0.22493-0.07015 0.20986 0.18508 0.24813 0.54391 0.08154 0.33413-0.15523 0.93335-0.17505 1.1754-0.03904 0.10171 0.05711 0.36344 0.11276 0.58163 0.1236 0.21818 0.01085 0.4125 0.05329 0.43181 0.09433 0.01931 0.04101 0.07318 0.05677 0.1197 0.03483 0.04652-0.02194 0.072-0.06655 0.0566-0.09927zm-3.2849-0.04947c-0.29443-0.43059-0.53082-0.58371-0.68082-0.44096-0.14668 0.13961-0.36526 0.01295-0.26254-0.15214 0.04204-0.06753 0.02272-0.15362-0.04478-0.19959-0.09097-0.06191-0.12676-0.03379-0.15322 0.12056-0.02004 0.11685-0.0736 0.17478-0.12761 0.138-0.05119-0.03491-0.06504-0.10847-0.03075-0.16355 0.10905-0.17525-0.72148-0.15648-0.94834 0.02145-0.2557 0.20052-0.23021 0.2624 0.1809 0.43941 0.17814 0.07673 0.33713 0.16758 0.35331 0.20196 0.03452 0.07334 1.4684 0.75503 1.6459 0.78245 0.06659 0.01032 0.15959-0.07987 0.20667-0.20039 0.06809-0.17426 0.03971-0.28622-0.13872-0.54717zm-1.6559-1.3376c-0.032-0.21863-0.85747-0.78868-1.0267-0.70906-0.05204 0.02451-0.08246 0.0078-0.06753-0.03659 0.0362-0.10828-0.27457-0.34343-0.38513-0.2914-0.04958 0.02331-0.02429 0.11664 0.0585 0.21589 0.12954 0.15532 0.12671 0.16195-0.02536 0.05951-0.09415-0.06344-0.17679-0.17862-0.18364-0.25592-0.02002-0.22551-0.77976-0.543-0.95043-0.39718-0.11543 0.0986-0.10829 0.2005 0.03544 0.50599 0.24931 0.52987 0.50784 0.76041 1.084 0.96662 0.48973 0.17527 1.1915 0.26916 1.3883 0.18576 0.05605-0.02367 0.08866-0.13337 0.0725-0.24363zm-0.27651-0.97521c-0.3605-0.19148-0.8501-0.45699-1.088-0.59002-0.2379-0.13303-0.52165-0.26676-0.63056-0.29718-0.10891-0.03037-0.2127-0.0865-0.23063-0.12462-0.01793-0.03815-0.62447-0.48734-1.3479-0.99826-0.72338-0.51092-1.3313-0.96305-1.3509-1.0047-0.05938-0.12622-1.1995-0.91575-1.2746-0.88264-0.1473 0.06492 0.75767 0.8389 1.4673 1.2549 0.30727 0.18011 0.53167 0.49567 0.52693 0.74098-0.0044 0.22712 0.67756 0.77013 0.80195 0.63855 0.05263-0.05569 0.12269-0.01492 0.17984 0.10475 0.20707 0.43312 0.37278 0.55276 0.55508 0.4002 0.21586-0.18063 0.64659-0.01382 2.3029 0.89202 0.36 0.19687 0.67467 0.32561 0.69927 0.28609 0.02462-0.03948-0.25023-0.22854-0.61073-0.42002zm19.552-9.9893c-0.03438-0.07306-0.11842-0.10657-0.18674-0.0744-0.07567 0.03557-0.08076 0.10143-0.01302 0.16841 0.06115 0.06051 0.1452 0.09397 0.18674 0.0744 0.04155-0.01953 0.04741-0.09535 0.01303-0.1684zm-22.22 10.289c0.17503-0.24506-0.09656-0.75569-0.61718-1.1603-0.5574-0.43322-1.0131-0.61801-1.4872-0.60308-0.35093 0.01105-0.38278 0.02661-0.36914 0.18028 0.01933 0.21796 0.76185 0.9138 1.3149 1.2322 0.23784 0.13695 0.54896 0.31917 0.69141 0.40493 0.29406 0.17706 0.30295 0.17603 0.46723-0.05446zm21.99-10.559c-0.21622-0.03385-0.30598 0.0084-0.25376 0.11945 0.02293 0.04874 0.12704 0.04766 0.23136-0.0023 0.15345-0.0734 0.15767-0.09596 0.0224-0.11708zm-23.563 8.3279c0.04089-0.17433-0.1136-0.32609-0.40956-0.40231-0.04087-0.01056-0.22276-0.14402-0.40421-0.29666-0.18145-0.15263-0.37046-0.24626-0.42003-0.20807-0.04956 0.03821-0.13882-0.01715-0.19836-0.12304-0.21272-0.37826-0.26488-0.44692-0.47258-0.62192-0.35784-0.30149-0.95325-0.26241-0.64505 0.04234 0.05984 0.05916 0.06165 0.12981 4e-3 0.15692-0.14085 0.06627 0.25975 0.69633 0.52034 0.81838 0.10599 0.04965 0.19951 0.1527 0.20783 0.22904 0.02515 0.23047 0.43019 0.47835 0.97882 0.59893 0.57358 0.12607 0.77463 0.07966 0.83873-0.19363zm-2.3782-1.3216c-0.02427-0.0516 0.0055-0.08706 0.06622-0.07886 0.06069 0.0082 0.11862 0.03254 0.12872 0.054 0.0101 0.02146-0.01969 0.05692-0.06621 0.07886s-0.10445-0.0024-0.12872-0.054zm-0.45585-0.05411c0.04047-0.09906-0.24371-0.81079-0.3695-0.92538-0.07743-0.07056-0.16539-0.16536-0.19547-0.2107-0.29347-0.4425-1.4093-1.0138-1.7067-0.87389-0.24963 0.11745-0.13122 0.28626 0.94142 1.3421 0.52922 0.52094 0.96873 0.96101 0.9767 0.97795 0.01494 0.03176 0.32496-0.24019 0.35352-0.31011zm-0.82896-0.38513c-0.1053-0.10466-0.10038-0.11939 0.02402-0.07183 0.08608 0.03288 0.1457 0.09214 0.13248 0.13165-0.01321 0.03953-0.0836 0.01295-0.1565-0.05977zm1.1313-1.123c-0.35318-0.32965-0.67709-0.57134-0.71981-0.53708-0.04273 0.03428-0.08415-0.01075-0.09208-0.10003-0.0079-0.08929-0.18202-0.31105-0.38684-0.49285-0.20483-0.1818-0.5863-0.5809-0.84771-0.8869-0.43258-0.50636-0.67225-0.68223-0.72297-0.53047-0.01046 0.03135 0.2222 0.30532 0.51701 0.60898 0.56016 0.57698 0.76731 1.0324 0.52206 1.1478-0.06889 0.03245-0.1107 0.08988-0.09286 0.12781 0.06287 0.13363 0.48504 0.33966 0.53418 0.26069 0.04514-0.07253 0.54424 0.37176 0.75451 0.67164 0.04706 0.06712 0.13711 0.13279 0.20013 0.14596 0.07449 0.01553 0.10693 0.10436 0.09275 0.25386-0.0201 0.21172-0.0017 0.22045 0.23265 0.1102 0.13996-0.06586 0.35445-0.08014 0.47664-0.03181 0.37802 0.14957 0.21578-0.1098-0.46766-0.74775zm-1.4065-0.58232c-0.04629-0.01787-0.10355-0.07371-0.12724-0.12404-0.02612-0.05551 0.01575-0.06884 0.10633-0.03387 0.08218 0.03173 0.13943 0.08756 0.12724 0.12405-0.01219 0.03649-0.06005 0.05164-0.10634 0.03377zm-0.65027-0.57693c-0.18116-0.38504-1.8577-1.9574-2.0104-1.8856-0.1264 0.05952-0.15069 0.58613-0.03807 0.82549 0.06301 0.13392 0.15368 0.20197 0.22462 0.1686 0.07732-0.03637 0.13266 0.01335 0.15807 0.14198 0.02149 0.10889 0.07668 0.1803 0.12258 0.15871 0.04591-0.02156 0.21304 0.11425 0.37141 0.30189 0.44589 0.52826 0.82933 0.75593 1.0769 0.63944 0.17707-0.08336 0.19297-0.14205 0.09487-0.35054zm-1.2158-2.0629c-0.23798-0.2044-0.61551-0.55339-0.83894-0.77552-0.4483-0.44567-0.78487-0.73778-0.88915-0.77169-0.03739-0.01218-0.23587-0.16218-0.44106-0.3334-0.33802-0.28204-0.3622-0.28814-0.25724-0.06493 0.0639 0.1359 0.07027 0.29544 0.01422 0.35573-0.07871 0.08467-0.06269 0.13947 0.07101 0.24292 0.09496 0.07352 0.18345 0.10129 0.19665 0.06185 0.0132-0.03943 0.1686 0.04 0.34532 0.17655 0.26009 0.20101 0.35818 0.3524 0.51467 0.79436l0.19333 0.54604 0.18654-0.1561c0.23473-0.19642 0.5494-0.17792 0.74927 0.04405 0.22655 0.2516 0.61918 0.48666 0.60251 0.36073-8e-3 -0.05988-0.20913-0.27617-0.44711-0.48057zm-1.3964 0.21703c-0.38484-0.94165-0.94028-1.4542-1.6168-1.4919-0.16148-9e-3 -0.36492-0.04157-0.45211-0.07244-0.08717-0.03084-0.20144-0.0099-0.2539 0.04656-0.07794 0.08387-0.05618 0.13712 0.11883 0.2911 0.64628 0.5685 1.03 0.8324 1.1372 0.78199 0.09682-0.04553 0.1121-0.02137 0.07805 0.12376-0.0351 0.14962 0.0032 0.17761 0.2247 0.1641 0.1577-0.0097 0.35459 0.07566 0.48092 0.20827 0.25225 0.26479 0.40126 0.23772 0.28309-0.05143zm-1.4589-0.78658c-0.06548-0.04459-0.10748-0.11575-0.09332-0.15812 0.0384-0.1149 0.1758-0.03718 0.19535 0.11055 0.01369 0.10349-0.0063 0.11279-0.10195 0.04775zm0.82401 0.75672c-0.10311-0.03982-0.12348-0.01817-0.07655 0.08159 0.08285 0.17608 0.25263 0.24166 0.23253 0.08983-0.0085-0.06444-0.07872-0.14154-0.15597-0.17139zm-0.70558-1.9141c-0.02404-0.05112-0.3089-0.26129-0.63303-0.46711-0.32413-0.20582-0.60402-0.40545-0.62197-0.4436-0.01795-0.03815-0.1784-0.13213-0.35654-0.20882-0.17814-0.07673-0.34168-0.17726-0.36342-0.22346-0.02175-0.04626-0.0776-0.06611-0.12411-0.04418-0.04653 0.02184-0.10924-0.0095-0.13937-0.06965-0.03023-0.06016-0.15294-0.16064-0.2729-0.2232-0.2157-0.11249-0.21661-0.11181-0.08247 0.06065 0.07461 0.09592 0.10481 0.20465 0.06713 0.2416-0.03838 0.03769 0.0077 0.16243 0.1048 0.28374 0.12876 0.16085 0.20573 0.1857 0.29932 0.09664 0.07475-0.07111 0.17058-0.07584 0.23563-0.01146 0.07128 0.07049 0.06222 0.11114-0.02594 0.11624-0.07462 0.0038-0.14067 0.06222-0.1469 0.12873-0.0062 0.0665 0.02899 0.10191 0.07826 0.07872 0.04927-0.02317 0.12709 0.03758 0.17293 0.135 0.04585 0.09744 0.12142 0.15925 0.16794 0.13736 0.04652-0.02194 0.11415 0.023 0.1503 0.09988 0.03615 0.07687 0.24121 0.20748 0.45571 0.29034 0.31395 0.12128 0.39326 0.11926 0.40678-0.01043 0.01373-0.13162 0.02998-0.13364 0.08895-0.01108 0.03945 0.08263 0.15789 0.15929 0.26267 0.17063 0.24712 0.02675 0.3304-0.01143 0.27623-0.12655zm-2.9152-1.3046c-0.27602-0.24768-0.51956-0.34794-0.53164-0.21887-0.0052 0.0557 0.07039 0.12381 0.16797 0.15142 0.09759 0.02759 0.20953 0.11839 0.24875 0.20175 0.08524 0.18116 0.2143 0.24364 0.2812 0.13613 0.02664-0.04274-0.04822-0.16447-0.16627-0.27042zm-2.5451-2.3958c-0.02293-0.04874-0.05844-0.08067-0.07898-0.07098-0.02054 0.0095-0.04208 0.06844-0.0479 0.13072-0.0058 0.06222 0.02972 0.09415 0.07898 0.07098s0.07082-0.08202 0.0479-0.13073zm-2.0102-1.6374c-0.02012-0.04273-0.11702-0.10049-0.21534-0.1283-0.19405-0.05491-0.1978-0.01821-0.01643 0.16116 0.12413 0.12274 0.29367 0.09871 0.2318-0.03255zm-0.76145-0.52047c-0.02293-0.04874-0.07974-0.07069-0.12626-0.04876-0.04652 0.02194-0.10905-0.0095-0.13896-0.06981-0.02991-0.0603-0.2346-0.19524-0.45488-0.29987l-0.40051-0.1902 0.31495 0.24268c0.49777 0.38356 0.7139 0.51737 0.78309 0.48481 0.03533-0.01658 0.04549-0.07005 0.02256-0.11881zm29.616 21.334c-0.05166-0.03516-0.05364-0.08295-0.0043-0.10614 0.04927-0.02317 0.10833-0.0023 0.13126 0.04645 0.02293 0.04874 0.02491 0.09644 0.0043 0.10614-0.02052 0.0095-0.07959-0.0113-0.13126-0.04645zm-0.54981-0.18044c-0.02427-0.0516 0.0055-0.08706 0.06622-0.07886 0.06068 0.0082 0.11862 0.03254 0.12872 0.054 0.0101 0.02146-0.01969 0.05702-0.06621 0.07885-0.04652 0.02194-0.10445-0.0024-0.12873-0.054zm2.687-1.5309c-0.25212-0.12518-0.17116-0.19146 0.10778-0.08822 0.13244 0.04903 0.20074 0.10797 0.15177 0.131-0.04897 0.02303-0.16576 0.0038-0.25955-0.0428zm11.633-8.2164c-0.02011-0.04273 1e-3 -0.16223 0.04696-0.26552 0.07574-0.17028 0.08282-0.16474 0.0759 0.05927-0.0079 0.25546-0.05918 0.34158-0.12285 0.20628zm0.33118-0.6136c-0.03459-0.07353-0.04021-0.2388-0.01252-0.36735 0.0484-0.22459 0.05223-0.22404 0.09837 0.0142 0.05926 0.30591 0.0023 0.54041-0.08585 0.35316zm-19.49 8.7495c-0.05166-0.03515-0.05363-0.08296-0.0043-0.10613 0.04926-0.02317 0.10833-0.0023 0.13126 0.04645 0.02293 0.04874 0.02491 0.09643 0.0043 0.10613-0.02051 0.0095-0.07957-0.0112-0.13125-0.04645zm19.204-9.4752c0.0055-0.05845 0.06482-0.13213 0.13186-0.16368 0.06704-0.03152 0.09376-0.11714 0.05937-0.19022-0.03438-0.07306-0.10284-0.1139-0.1521-0.09071-0.04927 0.02317-0.08485-0.0083-0.07908-0.06987 0.0069-0.07342 0.06014-0.09717 0.1545-0.06889 0.07917 0.02363 0.24102 0.06141 0.35967 0.08374 0.12674 0.02392 0.21042 0.09723 0.20287 0.17779-0.0094 0.10031-0.06331 0.10834-0.20098 0.0299-0.16274-0.09279-0.18631-0.08565-0.17454 0.05285 0.0075 0.08803-0.05953 0.20184-0.14893 0.25284-0.08939 0.05099-0.15805 0.04485-0.15258-0.01361zm0.26889-0.84757c-0.04339-0.09223-0.06146-0.2691-0.04023-0.39315 0.03566-0.20801 0.04801-0.20108 0.15885 0.08915 0.1251 0.32758 0.0196 0.59785-0.11866 0.304zm-0.46402-0.54704c-0.04125-0.08765-0.13823-0.18386-0.21548-0.2137-0.07725-0.0298-0.14788-0.11024-0.15694-0.17866-0.02673-0.20223 0.39928 0.0103 0.51539 0.25708 0.05568 0.11832 0.06315 0.23303 0.01663 0.25492-0.04651 0.02194-0.11835-0.03197-0.1596-0.11964zm0.20027-0.33696c-0.04943-0.03361-0.08516-0.11129-0.07928-0.1726 0.01476-0.15754-0.58483-1.4472-0.80546-1.7324l-0.18405-0.23796 0.2329 0.16089c0.1281 0.08848 0.32222 0.34722 0.4314 0.57498 0.1091 0.2278 0.25056 0.42116 0.3142 0.42978 0.08057 0.01088 0.10478 0.06218 0.07972 0.16902-0.01978 0.08432 0.03581 0.27027 0.12354 0.41321 0.157 0.25578 0.07973 0.5262-0.11287 0.39504zm0.25972-0.44203c-0.02293-0.04874 0.01542-0.11544 0.08521-0.14828 0.06978-0.03286 0.14557-0.0203 0.16855 0.02893 0.02293 0.04874-0.01541 0.11544-0.0852 0.14828-0.06978 0.03285-0.14558 0.0203-0.16856-0.02893zm-0.98929 0.09318c-0.03302-0.0702-0.03358-0.17018-0.0012-0.22218 0.03236-0.05198 0.09745-0.01244 0.14464 0.08784 0.04719 0.10031 0.04775 0.20029 0.0012 0.22217-0.04654 0.02184-0.11162-0.01766-0.14465-0.08784zm-0.34678-0.67626c-0.22298-0.145-0.44701-0.35207-0.49786-0.46012-0.05084-0.10806-0.14721-0.25988-0.21412-0.33739-0.06693-0.07755 0.0047-0.04214 0.15904 0.0786 0.1544 0.12074 0.31187 0.20486 0.34996 0.18695 0.03808-0.01791 0.13547 0.10817 0.21642 0.28022 0.09237 0.19633 0.20335 0.30956 0.29804 0.30408 0.08297-0.0048 0.16762 0.02683 0.18809 0.07042 0.0826 0.17556-0.11585 0.1268-0.49957-0.12273zm-0.55-1.587c-0.23946-0.28992-0.25356-0.38068-0.06993-0.45002 0.18642-0.07037 0.27309 0.0034 0.17989 0.15316-0.03096 0.0497-0.01067 0.1355 0.04507 0.1906 0.05573 0.05512 0.07604 0.14081 0.04518 0.19043-0.03087 0.04969-0.12103 0.01135-0.20021-0.08417zm0.02775-1.1207c-0.03438-0.07306-0.04757-0.1399-0.02927-0.1485 0.01833-0.0082 0.08329 0.03382 0.14445 0.09431 0.06115 0.06051 0.07431 0.12732 0.02927 0.14852-0.04507 0.02116-0.11007-0.02127-0.14444-0.09432zm-1.6477 0.01547c-0.14246-0.0707-0.14333-0.08615-0.0053-0.09413 0.09087-0.0047 0.18184 0.02604 0.20231 0.06953 0.05359 0.11391-0.0029 0.12095-0.19705 0.0244zm-25.43 10.723c-0.02293-0.04874-0.0014-0.10755 0.0479-0.13073 0.04927-0.02317 0.0848 0.0088 0.07898 0.07098-0.0058 0.06222-0.02739 0.12107-0.0479 0.13072-0.02052 0.0095-0.05606-0.02235-0.07897-0.07098zm18.7-9.7711c-0.27428 0.02088-1.0441 0.16342-1.7106 0.31674-1.5267 0.35117-2.325 0.44177-2.6235 0.29776-0.26489-0.1278-0.50426-0.55885-0.40178-0.72353 0.04839-0.07775 0.08975-0.02455 0.14336 0.1845 0.0908 0.35402 0.33556 0.45903 0.81503 0.34966 0.17961-0.04096 0.44768-0.06825 0.59571-0.06065 0.14804 0.0076 0.53668-0.05566 0.86362-0.14069 0.32696-0.08494 1.0771-0.23918 1.6669-0.34272 0.58984-0.10356 1.0919-0.1974 1.1158-0.20859 0.02387-0.01089 0.07145 0.03945 0.10583 0.11248 0.07563 0.16074 0.05826 0.16729-0.5703 0.21517zm-28.452-1.8951c-0.16178-0.14701-0.3271-0.25179-0.36738-0.23284-0.04027 0.01898-0.2024-0.07516-0.36028-0.20914-0.15788-0.13397-0.24866-0.26165-0.20173-0.28374 0.04692-0.02209 0.17088 0.04497 0.27546 0.14902 0.10458 0.10403 0.26365 0.22223 0.35349 0.26267 0.43688 0.19666 0.51952 0.25818 0.55562 0.41359 0.02724 0.11727-0.04956 0.08725-0.25518-0.09956zm-0.44914 0.06712c-0.04452-0.10508-0.03432-0.13552 0.02592-0.0776 0.05451 0.05244 0.08746 0.13026 0.0732 0.17291-0.01426 0.04268-0.05884-6.5e-5 -0.09912-0.09535zm-1.1715 0.01431c-0.27743-0.13759-0.38955-0.24866-0.41307-0.40922-0.02515-0.17197-0.05538-0.19554-0.13742-0.10728-0.05881 0.06327-0.15206 0.06669-0.21166 0.0077-0.06279-0.06213-0.05553-0.12932 0.01771-0.16378 0.06832-0.03218 0.09499-0.12059 0.05925-0.19654-0.03573-0.07592-0.02-0.132 0.03501-0.12456 0.05499 0.0075 0.11758 0.10258 0.13908 0.21142 0.02148 0.10883 0.07684 0.18011 0.12297 0.1584 0.04613-0.02169 0.16298 0.06937 0.25966 0.20239 0.09668 0.13302 0.21956 0.22125 0.27306 0.19609 0.06264-0.02949 0.03562-0.1306-0.07591-0.28405-0.13051-0.17957-0.13981-0.24019-0.03777-0.24609 0.08314-0.0048 0.17784 0.10533 0.24543 0.28542 0.06049 0.1613 0.13869 0.36496 0.17371 0.45261 0.09113 0.22816-0.01671 0.23234-0.45002 0.01747zm0.59951-0.11478c-0.02293-0.04874 0.04426-0.12826 0.14928-0.17677 0.15434-0.07149 0.17442-0.06028 0.10448 0.05738-0.11178 0.18814-0.20154 0.23038-0.25376 0.11945zm-1.834-0.7689c-0.25366-0.11144-0.37873-0.30604-0.28918-0.44995 0.03236-0.05198 0.03069-0.15433-0.0037-0.2274-0.03438-0.07306-0.08943-0.08968-0.12231-0.03684s-0.02043 0.12289 0.02764 0.15565c0.0481 0.03276 0.03007 0.08656-0.04009 0.11958-0.07432 0.035-0.35801-0.13631-0.67979-0.41041-0.30373-0.25874-0.59262-0.46833-0.64199-0.46576-0.04933 0.0028-0.07196-0.07121-0.05021-0.1639 0.03147-0.13414-0.01399-0.16531-0.22246-0.1526-0.14406 9e-3 -0.28994-0.04342-0.3241-0.11601-0.03415-0.07258-0.26501-0.26681-0.51301-0.4316-0.248-0.16478-0.47668-0.35439-0.50817-0.42132-0.03149-0.06695-0.25323-0.24178-0.49275-0.38854-0.4773-0.29245-0.66182-0.51395-0.3561-0.42747 0.09832 0.0278 0.2046 0.10548 0.23618 0.17258 0.03158 0.06714 0.09474 0.10446 0.14039 0.08303 0.04564-0.02143 0.1517 0.04684 0.23569 0.15175 0.084 0.10493 0.21652 0.1871 0.29451 0.18258 0.07803-0.0042 0.18035 0.07375 0.22748 0.17394 0.05366 0.11403 0.18208 0.17625 0.34352 0.1664 0.1926-0.01179 0.26502 0.03339 0.28627 0.1784 0.01929 0.13191 0.07725 0.18263 0.18079 0.15827 0.16998-0.04002 0.6922 0.46415 0.712 0.68736 0.0076 0.0853 0.06778 0.11753 0.14867 0.07953 0.07477-0.03516 0.11608-0.10612 0.09179-0.15776-0.02427-0.0516 0.0033-0.0874 0.0614-0.07949 0.05803 0.0078 0.11162 0.08292 0.11906 0.16674 0.0085 0.09506 0.06473 0.12835 0.14946 0.0885 0.07477-0.03516 0.15465-0.0244 0.17761 0.02463 0.02293 0.04874 0.0011 0.10767-0.04853 0.13102-0.04962 0.02331-0.02804 0.1433 0.04795 0.26659 0.10077 0.16356 0.19141 0.20378 0.33511 0.1488 0.2743-0.10497 0.32654-0.06596 0.35707 0.26676 0.01925 0.20962 0.06568 0.30493 0.16677 0.34223 0.1018 0.03756 0.11545 0.01892 0.04995-0.06816-0.04958-0.06591-0.06673-0.14305-0.03771-0.17158 0.02885-0.0284 0.06183-0.03181 0.07325-0.0077 0.01145 0.02432 0.06772 0.14393 0.12503 0.26572 0.1225 0.26034 0.05532 0.30371-0.25754 0.16626z"
         fill="#de8787"
         stroke-width=".095662"
         id="path4" />
      <g
         transform="translate(74.083)"
         fill="#2e6b85"
         id="g12">
        <path
           d="m27.464 72.259c5.1e-5 -1.7344 0.0023-3.1504 0.0052-3.1467 0.0034 0.0046 0.6102 0.0069 1.7968 0.0069h1.7917v1.3635l-0.98284 0.0017c-0.77584 0.0011-0.98398 0.0034-0.98826 0.01025-0.0071 0.01117-0.0071 1.0405-6e-6 1.0517 4e-3 0.0068 0.19462 0.0089 0.89919 0.01025l0.89377 0.0017v1.3635l-0.89377 0.0017c-0.70458 0.0011-0.89491 0.0034-0.89919 0.01025-0.0029 0.0046-0.0057 0.56122-0.0057 1.2367l-1.2e-4 1.2282-1.6136 0.0034 1.6307 0.0068-1.6341 0.0034zm4.8355 3.1484c0.20821-0.0011 0.54892-0.0011 0.75712 0s0.03786 0.0017-0.37856 0.0017c-0.41642 0-0.58677-5.73e-4 -0.37856-0.0017zm2.888 0c0.37968-0.0011 1.001-0.0011 1.3806 0 0.37967 0.0011 0.06903 0.0017-0.69032 0.0017-0.75935 0-1.07-5.73e-4 -0.69032-0.0017zm6.6514-0.0017 1.7986-0.0034-3.58-0.0034v-6.2831l1.6067 0.0034 0.0017 2.4525c0.0011 1.9516 0.0034 2.4536 0.01025 2.458 0.0046 0.0029 0.4469 0.0057 0.98265 0.0057 0.77294 5.7e-5 0.9748-0.0017 0.97755-0.0085 0.0017-0.0046 0.0034 0.30516 4e-3 0.6886l5.39e-4 0.69717-3.6006-0.0034zm-9.9077-2.1343v-2.1275h1.4937v4.255h-1.4937zm2.5831-1.0144v-3.1418l1.307 0.0023c1.3619 0.0029 1.3449 0.0023 1.5457 0.03265 0.71184 0.10758 1.157 0.50534 1.2853 1.1485 0.03311 0.16586 0.03815 0.22709 0.03815 0.46136 0 0.22122-4e-3 0.27607-0.03173 0.41453-0.07099 0.35729-0.2515 0.61771-0.569 0.82088-0.06627 0.04239-0.08016 0.05631-0.06826 0.06819 0.0034 0.0034 0.04823 0.01506 0.09939 0.02572 0.35383 0.07365 0.56734 0.17474 0.75013 0.35518 0.22336 0.22048 0.36661 0.55664 0.40922 0.96032 0.01495 0.14157 0.01025 0.38827-0.0098 0.51877-0.11644 0.75652-0.66304 1.2652-1.5289 1.4229-0.28476 0.05184-0.2909 0.05201-1.8448 0.05213l-1.3823 5.7e-5zm2.4084 1.8719c0.29279-0.03855 0.43391-0.09274 0.54969-0.21102 0.06823-0.0697 0.10619-0.12727 0.14393-0.2183 0.06472-0.15607 0.05591-0.3524-0.0228-0.5093-0.03769-0.07512-0.07022-0.12038-0.12635-0.17588-0.1103-0.10905-0.262-0.17209-0.47936-0.19918-0.03992-0.0052-0.21722-0.0094-0.45823-0.01134-0.32545-0.0029-0.39416-0.0017-0.39901 6e-3 -0.0067 0.0106-0.0084 1.3074-0.0017 1.3249 4e-3 0.01054 0.03202 0.01123 0.358 0.0082 0.2676-0.0023 0.3736-0.0058 0.43583-0.01403zm-0.23638-2.5426c0.07819-0.01524 0.19209-0.0539 0.24666-0.08376 0.12994-0.07106 0.21246-0.17403 0.25833-0.32236 0.01776-0.05749 0.01862-0.0669 0.01862-0.20416 0-0.13781-5.73e-4 -0.14648-0.01896-0.20522-0.07542-0.24412-0.25701-0.37768-0.56841-0.41808-0.05688-0.0074-0.14151-0.01048-0.28533-0.01048-0.18013 0-0.20496 0.0011-0.20863 0.01083-0.0057 0.01455-0.0052 1.2251 2.41e-4 1.2397 4e-3 0.01054 0.02492 0.01123 0.2518 0.0082 0.19156-0.0023 0.26054-0.0058 0.30564-0.01466zm-4.0974-1.2678c-0.0057-0.0011-0.03339-0.0062-0.06167-0.01083-0.22789-0.03689-0.44358-0.18838-0.57032-0.4006-0.11419-0.1912-0.14606-0.44829-0.0828-0.66804 0.05654-0.19653 0.20858-0.38473 0.39496-0.48896 0.09554-0.05344 0.2481-0.0987 0.34147-0.10132l0.0366-0.0011-0.03082-0.0046c-0.01999-0.0029 0.0017-0.0046 0.06167-0.0046 0.05201 0 0.07901 0.0017 0.06166 4e-3 -0.02801 4e-3 -0.02549 0.0046 0.02738 0.0089 0.27154 0.02188 0.53123 0.19983 0.66007 0.45232 0.05905 0.11572 0.08724 0.23642 0.08764 0.37526 4.18e-4 0.14162-0.02411 0.24752-0.08661 0.37342-0.06659 0.13422-0.1644 0.24487-0.29094 0.32911-0.13859 0.09226-0.2668 0.1326-0.43526 0.13694-0.05654 0.0017-0.1074 0.0017-0.11305 1.54e-4z"
           stroke-width=".0068518"
           id="path6" />
        <text
           x="45.273788"
           y="75.396713"
           font-family="Roboto"
           font-size="4.2333px"
           letter-spacing="0px"
           stroke-width=".26458"
           word-spacing="0px"
           style="line-height:3.25"
           xml:space="preserve"
           id="text10"><tspan
             x="45.273788"
             y="75.396713"
             fill="#2e6b85"
             font-family="Roboto"
             font-size="5.6444px"
             stroke-width=".26458"
             id="tspan8">france</tspan></text>
      </g>
      <g
         transform="matrix(.26458 0 0 .26458 -10.963 -93.049)"
         fill="#2e6b85"
         aria-label="Parasit'Lab"
         id="g36">
        <path
           d="m150.51 575.34v25.208h-5v-60.667h20.917q9.5417 0 14.75 4.875 5.25 4.875 5.25 12.833 0 8.0833-5.25 12.917-5.2083 4.8333-14.75 4.8333zm0-4.25h15.917q7.5 0 11.25-3.7917 3.75-3.8333 3.75-9.625 0-5.8333-3.75-9.6667-3.75-3.875-11.25-3.875h-15.917z"
           id="path14" />
        <path
           d="m225.05 600.55q-0.45833-2.375-0.70833-4.0833-0.20834-1.7083-0.20834-3.5-2.3333 3.6667-6.5417 6.0833-4.2083 2.375-9.6667 2.375-6.625 0-10.292-3.5-3.625-3.5417-3.625-9.5833 0-6.0417 5.2917-9.7917t13.75-3.75h11.083v-5.5833q0-4.8333-3.0833-7.5833-3.0417-2.75-8.625-2.75-5.125 0-8.2917 2.5-3.125 2.5-3.125 6.2917h-4.625l-0.0833-0.25q-0.25-5.0833 4.3333-8.9167 4.625-3.875 12.042-3.875t11.917 3.7917q4.5 3.7917 4.5 10.875v22.167q0 2.375 0.25 4.625 0.29166 2.25 0.91666 4.4583zm-16.583-3.5417q5.75 0 9.9583-2.7083 4.2083-2.75 5.7083-7.0417v-8.625h-11.125q-6.0833 0-10.042 2.9167-3.9583 2.875-3.9583 6.9583 0 3.8333 2.5 6.1667 2.5417 2.3333 6.9583 2.3333z"
           id="path16" />
        <path
           d="m262.92 559.76-3.5417-0.25q-4.7083 0-7.75 2.6667-3 2.625-4.2917 7.25v31.125h-5v-45.083h4.375l0.625 7.5v0.5q1.9583-4.1667 5.25-6.5 3.2917-2.3333 7.8333-2.3333 0.91667 0 1.75 0.16666 0.83333 0.125 1.375 0.29167z"
           id="path18" />
        <path
           d="m300.05 600.55q-0.45834-2.375-0.70834-4.0833-0.20833-1.7083-0.20833-3.5-2.3333 3.6667-6.5417 6.0833-4.2083 2.375-9.6667 2.375-6.625 0-10.292-3.5-3.625-3.5417-3.625-9.5833 0-6.0417 5.2917-9.7917 5.2917-3.75 13.75-3.75h11.083v-5.5833q0-4.8333-3.0833-7.5833-3.0417-2.75-8.625-2.75-5.125 0-8.2917 2.5-3.125 2.5-3.125 6.2917h-4.625l-0.0833-0.25q-0.25-5.0833 4.3333-8.9167 4.625-3.875 12.042-3.875 7.4167 0 11.917 3.7917 4.5 3.7917 4.5 10.875v22.167q0 2.375 0.25 4.625 0.29167 2.25 0.91667 4.4583zm-16.583-3.5417q5.75 0 9.9583-2.7083 4.2083-2.75 5.7083-7.0417v-8.625h-11.125q-6.0833 0-10.042 2.9167-3.9583 2.875-3.9583 6.9583 0 3.8333 2.5 6.1667 2.5417 2.3333 6.9583 2.3333z"
           id="path20" />
        <path
           d="m344.34 589.01q0-3.1667-2.625-5.5-2.5833-2.375-9.375-3.875-8-1.6667-11.917-4.5417-3.875-2.9167-3.875-8.125 0-5.1667 4.3333-8.75 4.375-3.5833 11.542-3.5833 7.5417 0 12.042 3.8333 4.5 3.7917 4.2917 9.375l-0.0833 0.25h-4.625q0-3.7083-3.2083-6.4583-3.1667-2.75-8.4167-2.75-5.4167 0-8.1667 2.375t-2.75 5.5417q0 3.0833 2.3333 5.125 2.375 2 9.4167 3.5417 7.9167 1.75 11.958 4.875 4.0833 3.125 4.0833 8.4167 0 5.625-4.5833 9.1667-4.5417 3.5-12.042 3.5-8.2083 0-12.917-3.9167-4.6667-3.9167-4.4167-9.3333l0.0833-0.25h4.5833q0.29167 4.875 3.9583 7.0833 3.7083 2.2083 8.7083 2.2083 5.4167 0 8.5417-2.4167 3.125-2.4167 3.125-5.7917z"
           id="path22" />
        <path
           d="m366.42 600.55h-4.9583v-45.083h4.9583zm0-58h-4.9583v-7h4.9583z"
           id="path24" />
        <path
           d="m387.97 543.93v11.542h9.9167v4.0833h-9.9167v29.375q0 4.4167 1.5833 6.2917 1.625 1.8333 4.2917 1.8333 0.91666 0 1.75-0.0833 0.875-0.125 2.0417-0.375l0.75 3.7083q-1 0.5-2.5 0.79166-1.4583 0.33334-2.9167 0.33334-4.75 0-7.4167-3-2.625-3-2.625-9.5v-29.375h-7.7917v-4.0833h7.7917v-11.542z"
           id="path26" />
        <path
           d="m413.05 548.01-3.0417 11.458h-3l1.0417-11.083v-8.5h5z"
           id="path28" />
        <path
           d="m431.51 596.34h31.333v4.2083h-36.333v-60.667h5z"
           id="path30" />
        <path
           d="m500.88 600.55q-0.45833-2.375-0.70833-4.0833-0.20833-1.7083-0.20833-3.5-2.3333 3.6667-6.5417 6.0833-4.2083 2.375-9.6667 2.375-6.625 0-10.292-3.5-3.625-3.5417-3.625-9.5833 0-6.0417 5.2917-9.7917 5.2917-3.75 13.75-3.75h11.083v-5.5833q0-4.8333-3.0833-7.5833-3.0417-2.75-8.625-2.75-5.125 0-8.2917 2.5-3.125 2.5-3.125 6.2917h-4.625l-0.0833-0.25q-0.25-5.0833 4.3333-8.9167 4.625-3.875 12.042-3.875 7.4167 0 11.917 3.7917 4.5 3.7917 4.5 10.875v22.167q0 2.375 0.25 4.625 0.29167 2.25 0.91667 4.4583zm-16.583-3.5417q5.75 0 9.9583-2.7083 4.2083-2.75 5.7083-7.0417v-8.625h-11.125q-6.0833 0-10.042 2.9167-3.9583 2.875-3.9583 6.9583 0 3.8333 2.5 6.1667 2.5417 2.3333 6.9583 2.3333z"
           id="path32" />
        <path
           d="m554.51 579.26q0 10.125-4.5833 16.167-4.5833 6-12.625 6-4.9167 0-8.5417-1.9583-3.5833-2-5.8333-5.6667l-0.83333 6.75h-3.9167v-65h5v26.833q2.25-3.7083 5.75-5.7083 3.5-2.0417 8.2917-2.0417 8.125 0 12.708 6.5 4.5833 6.4583 4.5833 17.25zm-5.0417-0.875q0-8.625-3.3333-14-3.3333-5.4167-9.875-5.4167-5.1667 0-8.3333 2.5417-3.1667 2.5-4.75 6.5v20.625q1.6667 3.9167 4.9167 6.2083 3.2917 2.25 8.25 2.25 6.5417 0 9.8333-4.8333t3.2917-13z"
           id="path34" />
      </g>
    </g>
  </g>
</svg>
