<?xml version="1.0" encoding="UTF-8" standalone="no"?>
<!-- Created with Inkscape (http://www.inkscape.org/) -->

<svg
   xmlns:dc="http://purl.org/dc/elements/1.1/"
   xmlns:cc="http://creativecommons.org/ns#"
   xmlns:rdf="http://www.w3.org/1999/02/22-rdf-syntax-ns#"
   xmlns:svg="http://www.w3.org/2000/svg"
   xmlns="http://www.w3.org/2000/svg"
   xmlns:sodipodi="http://sodipodi.sourceforge.net/DTD/sodipodi-0.dtd"
   xmlns:inkscape="http://www.inkscape.org/namespaces/inkscape"
   width="112.21458mm"
   height="30.80621mm"
   viewBox="0 0 112.21459 30.80621"
   version="1.1"
   id="svg5071"
   inkscape:version="0.92.4 (5da689c313, 2019-01-14)"
   sodipodi:docname="logo-clair.svg">
  <defs
     id="defs5065" />
  <sodipodi:namedview
     id="base"
     pagecolor="#ffffff"
     bordercolor="#666666"
     borderopacity="1.0"
     inkscape:pageopacity="0.0"
     inkscape:pageshadow="2"
     inkscape:zoom="1.0693045"
     inkscape:cx="553.55825"
     inkscape:cy="17.971628"
     inkscape:document-units="mm"
     inkscape:current-layer="g5723"
     showgrid="false"
     showguides="true"
     inkscape:guide-bbox="true"
     inkscape:window-width="1920"
     inkscape:window-height="1016"
     inkscape:window-x="0"
     inkscape:window-y="27"
     inkscape:window-maximized="1"
     inkscape:snap-global="false"
     fit-margin-top="2"
     fit-margin-left="2"
     fit-margin-right="2"
     fit-margin-bottom="2">
    <sodipodi:guide
       position="96.205826,2.0645357"
       orientation="0,1"
       id="guide850"
       inkscape:locked="false" />
  </sodipodi:namedview>
  <metadata
     id="metadata5068">
    <rdf:RDF>
      <cc:Work
         rdf:about="">
        <dc:format>image/svg+xml</dc:format>
        <dc:type
           rdf:resource="http://purl.org/dc/dcmitype/StillImage" />
        <dc:title />
      </cc:Work>
    </rdf:RDF>
  </metadata>
  <g
     inkscape:label="Calque 1"
     inkscape:groupmode="layer"
     id="layer1"
     transform="translate(-25.535565,-46.648382)">
    <g
       id="g5755">
      <path
         style="fill:#ffaf9c;fill-opacity:1;stroke-width:0.09566171"
         d="m 82.041483,74.624982 c -1.276606,0.486088 -2.773922,0.710702 -4.632108,0.694842 -1.884114,-0.01606 -3.362369,-0.250308 -5.916748,-0.937586 -0.772547,-0.207855 -4.000321,-1.491667 -5.061137,-2.013013 -0.456741,-0.22446 -1.120175,-0.545195 -1.4743,-0.712736 -0.354131,-0.16755 -0.747994,-0.387099 -0.875264,-0.487888 -0.127265,-0.100799 -0.297196,-0.191237 -0.377619,-0.200984 -0.130747,-0.0158 -2.431171,-1.430496 -3.51174,-2.159572 -1.367474,-0.922643 -4.181759,-3.497998 -5.626708,-5.149016 -0.728905,-0.832848 -2.30424,-2.334413 -3.495552,-3.331856 -0.993101,-0.831492 -1.496777,-1.206368 -3.829457,-2.850192 -0.58226,-0.410319 -1.994503,-1.510342 -3.138317,-2.444492 -2.53167,-2.067601 -3.429441,-2.760173 -4.203596,-3.242783 -0.81213,-0.50629 -1.352591,-0.932285 -1.246263,-0.982319 0.04865,-0.0229 0.178704,0.03759 0.289006,0.134487 0.110297,0.09685 0.22993,0.162275 0.265852,0.145372 0.03592,-0.01685 0.119625,0.0289 0.186016,0.101811 0.06639,0.07288 0.283823,0.201828 0.483192,0.286535 0.199369,0.0847 0.420586,0.211865 0.491587,0.282587 0.071,0.07072 0.168356,0.110111 0.216336,0.08754 0.04798,-0.02261 0.120305,0.02922 0.160714,0.115096 0.0404,0.08584 0.177403,0.155299 0.304435,0.154276 0.127027,-0.0011 0.280263,0.0723 0.340508,0.162944 0.08839,0.133008 0.08139,0.147353 -0.03629,0.0743 -0.237765,-0.147579 -0.208596,0.0249 0.03397,0.200886 0.122713,0.08902 0.735476,0.578016 1.361698,1.086658 0.626222,0.508632 1.2199,0.983898 1.319282,1.056146 0.09938,0.07229 0.574266,0.457349 1.055309,0.855788 0.481044,0.398448 0.924954,0.749927 0.986473,0.781071 0.06152,0.03117 0.401995,0.284765 0.75661,0.563584 0.354617,0.278829 0.996688,0.746587 1.426827,1.039461 0.430138,0.292883 0.79299,0.55572 0.806334,0.584074 0.01333,0.02833 0.180896,0.137443 0.37233,0.242397 0.191441,0.104963 0.359529,0.215186 0.373539,0.244962 0.01401,0.02976 0.5635,0.505967 1.221092,1.058215 0.657599,0.552247 1.205691,1.025473 1.21799,1.051615 0.01227,0.02614 0.210678,0.211488 0.440847,0.411901 0.695584,0.605642 1.365795,1.28382 1.896624,1.919171 0.276813,0.331318 0.734759,0.820713 1.017657,1.087553 0.282901,0.26683 0.733831,0.722065 1.002069,1.011631 0.454454,0.490596 1.122829,1.097947 1.452123,1.319552 0.07806,0.05256 0.63131,0.498129 1.229464,0.990224 1.073859,0.883454 1.49229,1.171504 3.080602,2.120678 1.874421,1.120167 2.767139,1.595117 4.121245,2.192649 2.972851,1.31183 4.097344,1.748872 5.247005,2.039284 0.54814,0.138476 1.17352,0.301869 1.389732,0.363117 0.751839,0.212972 3.42914,0.535666 4.238823,0.510911 2.609964,-0.0798 3.679644,-0.296912 5.328349,-1.081498 1.333026,-0.634353 2.601261,-1.516345 3.153178,-2.192847 0.200082,-0.245248 0.400728,-0.463293 0.445872,-0.484533 0.04515,-0.02127 0.06333,-0.07851 0.04041,-0.12719 -0.02293,-0.04874 0.0034,-0.109799 0.05856,-0.13574 0.177023,-0.08325 0.962991,-1.213509 1.305009,-1.876593 0.440606,-0.854199 0.940127,-2.248842 1.052269,-2.937908 0.04981,-0.306067 0.117162,-0.569 0.149659,-0.584288 0.0325,-0.01534 0.05651,-0.598626 0.05335,-1.296299 -0.0032,-0.697662 -0.0039,-1.391061 -0.0016,-1.540871 0.01157,-0.770175 -0.857209,-2.924619 -1.607721,-3.986879 -0.341836,-0.483815 -0.526554,-0.678335 -1.218245,-1.282817 -0.721573,-0.630612 -2.153422,-1.43202 -2.258072,-1.26385 -0.02517,0.04045 -0.129174,0.03094 -0.231133,-0.0211 -0.159371,-0.08138 -0.162671,-0.09259 -0.02352,-0.08008 0.229961,0.02073 0.0095,-0.0538 -0.58137,-0.196665 -0.271303,-0.06557 -0.861116,-0.133423 -1.310697,-0.150763 -1.447697,-0.05586 -2.399672,0.0987 -4.392902,0.71323 -0.595485,0.183591 -1.475921,0.436761 -1.956527,0.562597 -0.487652,0.127679 -1.31127,0.434434 -1.863668,0.694107 -1.041633,0.489903 -1.314764,0.454727 -0.417568,-0.05349 0.768347,-0.435225 4.719687,-1.661829 6.400247,-1.986816 1.424075,-0.275393 3.280341,-0.192862 4.34413,0.19314 0.747753,0.27133 1.669353,0.805297 2.499451,1.44815 0.589782,0.456746 1.599276,1.811041 2.024038,2.715372 0.61453,1.308136 0.978285,2.894374 0.907127,3.954717 -0.01444,0.215052 -0.0378,0.615509 -0.05193,0.889918 -0.02464,0.47829 -0.274039,1.689477 -0.546595,2.654347 -0.226853,0.803074 -1.047967,2.314695 -1.8092,3.330631 -1.348407,1.799562 -2.767589,2.871805 -4.851016,3.665101 z m -0.90889,-0.105648 c -0.70387,0.221362 -1.213988,0.181079 -1.393426,-0.110118 -0.114067,-0.185103 -0.201282,-0.199421 -0.642589,-0.105551 -0.280835,0.05972 -0.57432,0.06113 -0.652195,0.0031 -0.122237,-0.09104 -0.142709,-0.07127 -0.149775,0.144877 -0.0071,0.216262 -0.05848,0.265909 -0.377674,0.364727 -0.45459,0.140773 -2.160607,0.07009 -2.703909,-0.111988 -0.317003,-0.10623 -0.417269,-0.190789 -0.484873,-0.40892 -0.07813,-0.252118 -0.127159,-0.274343 -0.590128,-0.26665 -0.488911,0.0081 -1.11463,-0.170758 -1.308235,-0.37391 -0.07242,-0.07599 -0.117852,-0.04099 -0.194711,0.150201 -0.178911,0.444935 -0.607571,0.393168 -2.457611,-0.296773 -0.757739,-0.282591 -0.999669,-0.537508 -0.872154,-0.91898 0.05684,-0.170047 0.03039,-0.184409 -0.233901,-0.127052 -0.178729,0.03874 -0.566547,-0.03908 -0.969022,-0.194569 -0.538638,-0.208081 -0.698565,-0.317058 -0.810504,-0.552271 -0.07647,-0.161281 -0.148669,-0.240038 -0.159933,-0.175228 -0.05693,0.327727 -0.192921,0.474865 -0.436281,0.472065 -0.220334,-0.0025 -0.545422,-0.16481 -1.926892,-0.961908 -0.269968,-0.15577 -0.469186,-0.35164 -0.576735,-0.567043 -0.109531,-0.219417 -0.274932,-0.379565 -0.496267,-0.480587 -0.490789,-0.224023 -0.99903,-0.591318 -1.09218,-0.789297 -0.114226,-0.242767 -0.221534,-0.263471 -0.360103,-0.06945 -0.190033,0.266068 -0.439454,0.23273 -1.050657,-0.140498 -0.908143,-0.554537 -1.365829,-0.983653 -1.611355,-1.510764 -0.11955,-0.256142 -0.238911,-0.455571 -0.265683,-0.442978 -0.155706,0.07327 -1.286502,-1.100489 -1.30946,-1.359216 -0.01211,-0.13596 -0.06516,-0.129985 -0.318699,0.03582 -0.352844,0.230826 -0.420388,0.193831 -1.135878,-0.621728 -0.240164,-0.273766 -0.599681,-0.640138 -0.798929,-0.814152 -0.436233,-0.380999 -0.626141,-0.741817 -0.492806,-0.936312 0.07706,-0.112419 0.06131,-0.170306 -0.07306,-0.26852 -0.373937,-0.273333 -1.208231,-1.06373 -1.389314,-1.316213 -0.132618,-0.184915 -0.182116,-0.361924 -0.160529,-0.573585 0.03108,-0.304195 0.03064,-0.304647 -0.06831,-0.06993 -0.220185,0.522219 -0.431117,0.449892 -1.635684,-0.560911 -0.904731,-0.759196 -1.074612,-0.974339 -0.985293,-1.247786 0.04239,-0.129762 0.01591,-0.170253 -0.132969,-0.203413 -0.299085,-0.06661 -1.106553,-0.759404 -1.029476,-0.883275 0.07151,-0.114921 -0.135643,-0.372446 -0.254584,-0.316474 -0.04009,0.01886 -0.02247,0.08414 0.03916,0.145076 0.241085,0.238381 -0.183686,0.110324 -0.756005,-0.227945 -0.698957,-0.413101 -1.084492,-0.844851 -0.810848,-0.908041 0.117444,-0.02714 0.201189,0.03251 0.262777,0.187015 0.0717,0.179892 0.128231,0.206866 0.273184,0.130374 0.100534,-0.05302 0.214233,-0.147001 0.252676,-0.208784 0.04647,-0.0747 0.07469,-0.05831 0.08419,0.04881 0.0081,0.09108 0.05897,0.140156 0.116993,0.112855 0.05648,-0.02654 0.108779,0.02032 0.116215,0.104136 0.0074,0.08381 0.06103,0.158873 0.119056,0.166737 0.05803,0.0078 0.06801,-0.06547 0.02217,-0.16286 -0.194499,-0.413383 0.26751,-0.43788 0.700783,-0.03717 0.114182,0.105606 0.405993,0.219116 0.648468,0.252251 0.285349,0.03903 0.64183,0.204189 1.010591,0.468318 0.313348,0.224455 0.577012,0.38631 0.58591,0.359676 0.05549,-0.16603 -2.490951,-1.809401 -2.897166,-1.869713 -0.07801,-0.01158 -0.137741,-0.06481 -0.132731,-0.118207 0.005,-0.05346 -0.123443,-0.1309 -0.285441,-0.17213 -0.161993,-0.04119 -0.324789,-0.139252 -0.361756,-0.217821 -0.03696,-0.07859 -0.20314,-0.18471 -0.36927,-0.235892 -0.166132,-0.05117 -0.326151,-0.144236 -0.355596,-0.206822 -0.02944,-0.06256 -0.153464,-0.120881 -0.275605,-0.129572 -0.124679,-0.0089 -0.227722,-0.07942 -0.234951,-0.160864 -0.0071,-0.07982 -0.07356,-0.154303 -0.148289,-0.165341 -0.07449,-0.0112 -0.283056,-0.137419 -0.463495,-0.280585 -0.398172,-0.315913 -0.523535,-0.346356 -0.407089,-0.09887 0.04815,0.102347 0.198491,0.233498 0.334092,0.291456 0.135587,0.05792 0.301425,0.172639 0.36851,0.254834 0.09851,0.120708 0.07668,0.170771 -0.113306,0.260151 -0.181123,0.08525 -0.296316,0.05955 -0.500524,-0.111722 -0.145883,-0.122335 -0.261185,-0.265803 -0.256211,-0.318819 0.02259,-0.241195 -0.170664,-0.639701 -0.425799,-0.878035 -0.386292,-0.360857 -0.531862,-0.356405 -0.253912,0.0078 0.124132,0.162641 0.217105,0.321397 0.20661,0.352793 -0.0105,0.03136 -0.04092,0.0109 -0.06771,-0.04624 -0.02675,-0.05684 -0.09152,-0.07101 -0.143936,-0.03145 -0.05242,0.03956 -0.109715,0.01403 -0.127221,-0.05599 -0.01751,-0.07033 -0.138262,-0.159574 -0.268262,-0.198328 -0.130003,-0.03874 -0.283971,-0.141349 -0.342148,-0.227974 -0.05817,-0.08665 -0.234351,-0.208426 -0.39149,-0.270675 -0.157135,-0.06221 -0.314689,-0.17477 -0.350116,-0.250069 -0.03542,-0.07525 -0.09649,-0.121794 -0.135696,-0.103344 -0.03921,0.01845 -0.243781,-0.104378 -0.454606,-0.27294 -0.210819,-0.168572 -0.411636,-0.293156 -0.446247,-0.276873 -0.09662,0.04541 -0.735266,-0.434227 -0.866376,-0.650721 -0.06403,-0.105699 -0.160038,-0.206573 -0.213384,-0.224157 -0.05334,-0.01753 -0.04195,0.02492 0.02526,0.09428 0.0869,0.08978 0.08011,0.128713 -0.02347,0.134707 -0.08018,0.0045 -0.177548,-0.05918 -0.216416,-0.141786 -0.03887,-0.08259 -0.288728,-0.239774 -0.555239,-0.349248 -0.266516,-0.109474 -0.672847,-0.317372 -0.902958,-0.461983 -0.230112,-0.14462 -0.470307,-0.238509 -0.53376,-0.20865 -0.06346,0.02989 -0.136125,0.01012 -0.16146,-0.04367 -0.03975,-0.0845 -0.232285,-0.200494 -0.867305,-0.522558 -0.07351,-0.03729 -0.153194,-0.109322 -0.177085,-0.1601 -0.07161,-0.152199 0.10517,-0.176711 0.235157,-0.03295 0.06647,0.07368 0.239176,0.150634 0.38379,0.171018 0.14461,0.02039 0.588288,0.200434 0.985952,0.400106 0.397659,0.199663 0.937546,0.456809 1.19975,0.571457 1.954689,0.854613 3.653075,1.844544 9.294775,5.417543 1.4232,0.901335 2.527534,1.759238 3.642739,2.829863 0.311959,0.299482 0.766125,0.718683 1.009253,0.931556 0.243127,0.212862 0.594199,0.558867 0.780153,0.76888 0.185956,0.210012 0.69404,0.725559 1.12907,1.145643 0.435032,0.420084 0.988467,0.962975 1.229853,1.206416 1.103178,1.112565 3.891934,3.197338 5.474214,4.092325 1.280384,0.724216 4.013285,2.012127 5.999635,2.827393 2.803633,1.150705 6.116373,1.779805 8.508773,1.615853 1.275689,-0.0874 2.324892,-0.359889 3.498384,-0.908628 0.825594,-0.38597 1.065643,-0.542662 1.576667,-1.028746 0.331548,-0.315365 0.656791,-0.661613 0.722765,-0.769432 0.06597,-0.107829 0.201589,-0.269555 0.301372,-0.359395 0.243328,-0.219083 0.829859,-1.141975 1.187287,-1.868145 0.622669,-1.265058 0.991308,-3.379803 0.796421,-4.568769 -0.161151,-0.983178 -0.431431,-1.561417 -1.124745,-2.406224 -1.003424,-1.222703 -1.659704,-1.73253 -2.560905,-1.989389 -0.808769,-0.230512 -1.737233,-0.279155 -2.488086,-0.13034 -0.856596,0.169768 -2.054277,0.314068 -2.13726,0.257758 -0.191357,-0.13031 0.07821,-0.211223 1.311719,-0.393733 0.717173,-0.106087 1.59459,-0.248619 1.949835,-0.316573 0.35885,-0.06868 0.61529,-0.07405 0.576952,-0.01291 -0.05265,0.0846 -0.03837,0.114894 0.06055,0.128285 0.07121,0.0097 0.139901,-0.01359 0.152637,-0.05175 0.01274,-0.03807 0.136741,-0.03003 0.275552,0.01804 0.13881,0.04807 0.274843,0.05126 0.3023,0.0071 0.02746,-0.04415 0.08119,-0.01367 0.119346,0.0673 0.04302,0.09147 0.106668,0.107505 0.167309,0.04227 0.05382,-0.05795 0.170404,-0.06927 0.258989,-0.02571 0.08865,0.04406 0.215856,0.05433 0.282683,0.02283 0.06683,-0.0314 0.1167,-0.0068 0.110941,0.05581 -0.0058,0.06212 0.181384,0.180949 0.416007,0.264049 0.306186,0.10846 0.491147,0.24964 0.655311,0.500183 0.202555,0.309137 0.208658,0.350587 0.05338,0.362244 -0.164949,0.01253 -0.16132,0.01968 0.06155,0.123002 0.130296,0.06046 0.330629,0.254336 0.445186,0.430942 0.114579,0.176604 0.359253,0.455132 0.543751,0.618934 0.390278,0.346486 0.818736,1.168135 0.987006,1.892781 0.06228,0.268208 0.169224,0.694916 0.237641,0.948237 0.13819,0.511636 0.01414,1.2271 -0.423253,2.44115 -0.142554,0.395644 -0.229843,0.781687 -0.193993,0.857882 0.06702,0.142452 -0.258651,1.083689 -0.397594,1.149064 -0.04273,0.02008 -0.06211,0.06971 -0.04306,0.110165 0.04093,0.08698 -0.106397,0.278606 -0.688978,0.896132 -0.236962,0.251177 -0.416449,0.487263 -0.398859,0.52465 0.01758,0.03739 -0.02888,0.09658 -0.103265,0.131592 -0.253808,0.119454 -0.577246,0.617849 -0.503136,0.775361 0.05601,0.119037 -0.05182,0.257867 -0.463935,0.597308 -0.295296,0.243229 -0.564145,0.412816 -0.597439,0.37687 -0.08373,-0.09036 -1.628396,0.703295 -1.950987,1.002481 -0.324782,0.301229 -1.374911,0.593214 -1.820298,0.506123 -0.184586,-0.03609 -0.357686,-0.0031 -0.465137,0.08875 -0.109302,0.09344 -0.167151,0.103628 -0.160134,0.02807 0.01472,-0.157141 -0.56179,-0.133844 -0.712999,0.02875 -0.06555,0.07052 -0.105578,0.08756 -0.08897,0.03785 0.01661,-0.04971 -0.06051,-0.111806 -0.171394,-0.138007 -0.233358,-0.05517 -0.380182,-0.01549 -0.25593,0.06915 0.04686,0.0319 -0.0044,0.07364 -0.113986,0.09268 -0.124214,0.02179 -0.174226,-0.0054 -0.13287,-0.07184 0.03747,-0.06024 -0.321225,-0.120159 -0.824881,-0.137827 -0.490161,-0.01723 -0.933458,-0.06006 -0.98512,-0.09524 -0.05165,-0.03516 -0.167822,-0.02922 -0.258124,0.01322 -0.0903,0.04254 -0.178505,0.04748 -0.19602,0.01109 -0.01734,-0.03641 -0.221025,-0.0984 -0.452264,-0.137804 -0.231235,-0.03941 -0.469231,-0.103605 -0.528884,-0.142675 -0.05965,-0.03904 -0.248198,-0.0667 -0.419018,-0.06153 -0.170806,0.0053 -0.572232,-0.07983 -0.892039,-0.188976 -0.319812,-0.109149 -0.620358,-0.157586 -0.667877,-0.107625 -0.04752,0.04995 -0.111681,0.03713 -0.142588,-0.02859 -0.06031,-0.128184 -1.659532,-0.689336 -1.789811,-0.62804 -0.05128,0.02411 0.251621,0.498855 0.369552,0.579143 0.05621,0.03824 0.03137,0.06868 -0.06058,0.07406 -0.224537,0.01296 -0.105805,0.196101 0.138405,0.213482 0.149196,0.01058 0.202596,-0.02103 0.195837,-0.115392 -0.0055,-0.07669 0.02334,-0.06762 0.07029,0.02187 0.04376,0.08352 0.111969,0.136643 0.151504,0.118042 0.03954,-0.01859 0.293358,0.01321 0.564026,0.07064 0.339258,0.07202 0.469382,0.141018 0.418914,0.222113 -0.04816,0.07742 -0.03403,0.12295 0.04129,0.133162 0.06298,0.0085 0.119733,-0.0404 0.126135,-0.108728 0.01744,-0.186205 0.396034,-0.221262 1.09878,-0.101744 0.34618,0.0589 0.760624,0.118315 0.921001,0.132115 0.502588,0.04322 0.90955,0.183845 1.110484,0.383721 0.106545,0.105968 0.243428,0.172385 0.304184,0.147559 0.06079,-0.02474 0.03519,0.04184 -0.05684,0.148235 -0.154321,0.178336 -0.116743,0.184066 0.484034,0.07383 0.358248,-0.06569 0.693092,-0.09517 0.744123,-0.06528 0.132672,0.0775 0.762023,0.0086 1.016875,-0.111657 0.118948,-0.05601 0.37836,-0.106145 0.576439,-0.111634 0.198096,-0.0054 0.564689,-0.05354 0.814674,-0.106887 0.64113,-0.136837 0.964911,-0.06863 1.041307,0.219491 0.05381,0.202912 0.09522,0.218075 0.330748,0.121012 0.364628,-0.150233 0.836281,-0.419463 0.861853,-0.491913 0.01148,-0.03248 -0.0447,-0.068 -0.124792,-0.07884 -0.231339,-0.03135 0.330206,-0.405345 1.42598,-0.949761 0.898576,-0.446416 1.154641,-0.510721 0.991778,-0.248997 -0.03289,0.05285 -0.02431,0.120245 0.01899,0.149776 0.04336,0.02949 0.187859,-0.08494 0.321215,-0.2541 0.133307,-0.169275 0.353019,-0.393752 0.488246,-0.498847 0.135227,-0.105075 0.227338,-0.230448 0.204691,-0.278584 -0.02302,-0.04893 -0.108048,-0.02383 -0.192834,0.05683 -0.102057,0.09711 -0.14781,0.103346 -0.139966,0.01863 0.0064,-0.06894 0.0657,-0.150686 0.131676,-0.18173 0.06598,-0.03099 0.134642,-0.179052 0.152611,-0.328915 0.01797,-0.149863 0.149721,-0.464983 0.292784,-0.700269 0.143058,-0.235266 0.24665,-0.45638 0.230197,-0.491344 -0.02944,-0.06257 0.617333,-0.602408 0.856743,-0.715058 0.0675,-0.03178 0.150848,0.002 0.185228,0.07509 0.08908,0.189319 0.156057,0.127985 0.225401,-0.206401 0.03319,-0.160069 0.179919,-0.405911 0.326053,-0.546308 0.146135,-0.140397 0.317696,-0.325885 0.381235,-0.412188 0.109884,-0.149235 0.104425,-0.161859 -0.111506,-0.257853 -0.267484,-0.118905 -0.393103,-0.08278 -0.311945,0.0897 0.04844,0.102947 -0.05926,0.309917 -0.194327,0.373473 -0.10478,0.0493 -0.103912,-0.198806 0.0016,-0.453722 0.06648,-0.160618 0.09866,-0.339257 0.0715,-0.396977 -0.08542,-0.181546 0.07924,-0.75553 0.290277,-1.011867 0.111442,-0.135372 0.242594,-0.309366 0.291453,-0.386686 0.04886,-0.0773 0.145767,-0.193956 0.215357,-0.259215 0.06958,-0.06526 0.116491,-0.24907 0.10424,-0.408458 -0.01386,-0.180334 0.01454,-0.252474 0.07519,-0.190965 0.05361,0.05436 0.07613,0.163031 0.04972,0.241653 -0.02625,0.07854 -0.01856,0.204836 0.0171,0.28063 0.0365,0.07754 -0.07007,0.306992 -0.243797,0.524831 -0.330333,0.414211 -0.432072,0.77774 -0.340792,1.217758 0.05674,0.273518 0.05772,0.273653 0.393992,0.05363 0.429708,-0.281118 0.473175,-0.424674 0.258316,-0.853142 -0.162417,-0.323861 -0.158228,-0.354811 0.06171,-0.458291 0.129727,-0.06102 0.231624,-0.16984 0.226438,-0.24177 -0.0074,-0.103305 0.0031,-0.107826 0.05011,-0.02156 0.03949,0.07245 0.121135,0.05772 0.242291,-0.04367 0.170235,-0.142442 0.189664,-0.131969 0.28396,0.153052 0.05567,0.16826 0.109275,0.43349 0.119121,0.589376 0.01982,0.313661 -0.206103,0.700432 -0.394278,0.674948 -0.06898,-0.0093 -0.09131,0.04639 -0.0519,0.130197 0.09111,0.193639 -0.01047,0.812359 -0.143667,0.875028 -0.05767,0.02709 -0.0969,0.242857 -0.08719,0.479412 0.01872,0.455893 -0.322202,1.304158 -0.693827,1.726373 -0.17117,0.194476 -0.264509,0.242061 -0.429411,0.21893 -0.173767,-0.02438 -0.228098,0.01691 -0.309949,0.235754 -0.05459,0.145923 -0.119229,0.278326 -0.143646,0.294236 -0.439766,0.286552 -0.614455,0.55252 -0.461945,0.703323 0.199603,0.197365 -0.276908,0.921117 -1.022607,1.553205 -0.543081,0.460344 -0.986089,0.630325 -1.086503,0.416915 -0.04342,-0.09233 -0.186121,-0.05111 -0.612924,0.1768 -0.458019,0.244561 -0.554975,0.333974 -0.548615,0.505883 0.01276,0.345063 -0.435808,0.617 -1.645012,0.997264 z m 1.334229,-1.076337 c -0.05284,-0.112304 -0.260045,-0.246664 -0.483193,-0.313332 -0.404511,-0.120835 -0.741769,-0.05327 -0.613694,0.122905 0.0403,0.05544 -0.0029,0.136593 -0.09593,0.180378 -0.09305,0.04377 -0.183045,0.02576 -0.200125,-0.04109 -0.01704,-0.06635 -0.069,-0.102763 -0.115532,-0.08084 -0.04653,0.02184 -0.06173,0.0899 -0.03379,0.151127 0.03851,0.08394 0.02299,0.09294 -0.06235,0.0363 -0.139537,-0.09248 -0.775275,0.254653 -0.873322,0.476851 -0.229296,0.519655 0.738235,0.502242 1.91154,-0.0344 0.626011,-0.286277 0.654217,-0.311276 0.566374,-0.497972 z m 2.381369,-1.250287 c 0.496423,-0.428108 0.979907,-1.04967 0.963171,-1.238222 -0.04285,-0.482936 -0.949293,-0.09839 -1.590443,0.674711 -0.247409,0.298327 -0.333454,0.767906 -0.170278,0.929254 0.137979,0.136435 0.303006,0.0607 0.797546,-0.365753 z m -1.152854,-0.01993 c 0.07581,-0.250947 0.102243,-0.494622 0.05873,-0.54152 -0.106978,-0.115302 -2.086986,0.811452 -2.066365,0.967197 0.01763,0.133261 0.636213,0.385727 0.920019,0.375488 0.111729,-0.0042 0.37117,-0.08324 0.576478,-0.176109 0.321971,-0.145592 0.392245,-0.231515 0.511139,-0.625046 z m -3.764703,1.369358 c 0.09103,-0.114842 0.131297,-0.302246 0.09186,-0.427501 -0.0631,-0.200399 -0.09463,-0.206554 -0.31238,-0.06009 -0.133192,0.08963 -0.254716,0.136269 -0.270013,0.103755 -0.03816,-0.08107 -0.817363,0.03148 -0.847793,0.1225 -0.01344,0.04016 0.01999,0.05221 0.07426,0.02663 0.05427,-0.02558 0.116083,-0.0098 0.13745,0.03595 0.0238,0.05055 -0.0805,0.100188 -0.269997,0.128526 -0.222309,0.03344 -0.312995,0.08549 -0.32372,0.186926 -0.02377,0.22473 0.01892,0.260858 0.41775,0.353517 0.587234,0.136423 0.915871,0.01781 1.302647,-0.470177 z m -1.892308,0.628919 c -0.03669,-0.116618 -0.107436,-0.19287 -0.157209,-0.169449 -0.04976,0.02343 -0.123422,-0.02744 -0.163697,-0.11306 -0.175038,-0.372019 -1.434067,-0.52788 -2.029509,-0.251244 -0.139787,0.06523 -0.348421,0.160877 -0.463508,0.212857 -0.32881,0.148871 -0.333325,0.32625 -0.0131,0.514774 0.347943,0.20485 2.407139,0.311476 2.692552,0.139419 0.139723,-0.08426 0.180816,-0.186094 0.134472,-0.333307 z m 8.338634,-4.413403 c 0.125351,-0.173024 0.171271,-0.367786 0.127241,-0.539694 -0.0379,-0.147923 -0.09454,-0.390165 -0.125898,-0.538301 -0.0908,-0.428967 -0.301752,-0.320714 -0.802035,0.411601 -0.521627,0.763539 -0.645221,1.025567 -0.564585,1.196945 0.141574,0.300899 1.006421,-0.03519 1.365279,-0.530551 z m 0.964809,-0.733999 c 0.24097,-0.414357 0.565812,-1.363723 0.508386,-1.485764 -0.07739,-0.164493 -0.33424,-0.233455 -0.526217,-0.14129 -0.142353,0.06856 -0.143395,0.08752 -0.0055,0.109108 0.148694,0.02323 0.153799,0.03411 0.04597,0.09771 -0.06671,0.03934 -0.153296,0.08043 -0.19245,0.09112 -0.03912,0.01069 -0.06486,0.09018 -0.05721,0.176374 0.0077,0.08619 -0.03573,0.180098 -0.0964,0.208649 -0.134992,0.06346 -0.29865,0.703393 -0.255398,0.998572 0.01981,0.135509 0.08756,0.223829 0.182208,0.237758 0.203871,0.02998 0.213085,0.02314 0.39657,-0.29231 z M 75.22196,73.21217 c 0.0085,-0.258844 -0.203661,-0.377695 -0.656026,-0.367535 -0.182743,0.0041 -0.355445,-0.04179 -0.383801,-0.102085 -0.02835,-0.06028 -0.16842,-0.08623 -0.311268,-0.05771 -0.142839,0.02854 -0.377806,0.01273 -0.522126,-0.03499 -0.171047,-0.05663 -0.266389,-0.04451 -0.273855,0.03453 -0.01437,0.153414 -0.241098,0.26631 -0.296869,0.147778 -0.02293,-0.04874 0.01542,-0.115443 0.0852,-0.148279 0.06978,-0.03285 0.110471,-0.09458 0.09042,-0.137196 -0.05892,-0.125226 -0.452615,0.104588 -0.495996,0.289492 -0.03063,0.130571 0.0072,0.190383 0.164921,0.260484 0.112577,0.05008 0.211187,0.112276 0.219137,0.13828 0.05478,0.179222 0.346539,0.367248 0.590779,0.380698 0.159449,0.0088 0.322819,0.03428 0.363028,0.0566 0.396387,0.220014 1.414914,-0.108661 1.426407,-0.460369 z m 12.766351,-6.395103 c -0.0073,-0.08291 -0.05586,-0.179708 -0.107744,-0.215047 -0.146888,-0.100031 -0.304832,0.133064 -0.216849,0.320066 0.09244,0.196463 0.344109,0.115025 0.324587,-0.104998 z m -15.56221,6.682408 c -0.06065,-0.292408 -0.483105,-0.799059 -0.787934,-0.945 -0.374094,-0.179097 -0.983967,-0.222774 -1.501896,-0.107573 -0.414301,0.09219 -0.493221,0.137404 -0.553445,0.31763 -0.06505,0.194616 -0.03217,0.221769 0.444872,0.367397 0.283318,0.08649 0.74287,0.24483 1.021227,0.351872 0.594067,0.228448 1.169621,0.356479 1.319374,0.293496 0.05844,-0.02446 0.0844,-0.149573 0.0578,-0.277822 z m 16.107994,-8.021206 c -0.08992,-0.191122 -0.284229,-0.35815 -0.369801,-0.317881 -0.110016,0.05173 -0.05184,0.531891 0.08026,0.662518 0.136602,0.135068 0.379312,-0.153819 0.289527,-0.344635 z m -18.511113,6.244892 c 0.01556,-0.156183 -0.03893,-0.219673 -0.262717,-0.306123 -0.155288,-0.06001 -0.259413,-0.06034 -0.231402,-8.26e-4 0.02801,0.05951 -0.01082,0.137323 -0.0863,0.172839 -0.113648,0.05347 -0.129734,0.03252 -0.09355,-0.12165 0.03612,-0.153972 0.0055,-0.19517 -0.176788,-0.237937 -0.316068,-0.07416 -0.345677,-0.03751 -0.175809,0.217895 0.144673,0.217501 0.142161,0.2222 -0.06261,0.116966 -0.117332,-0.06029 -0.234706,-0.155062 -0.260834,-0.210599 -0.02613,-0.05551 -0.178766,-0.10821 -0.339194,-0.117069 -0.160427,-0.0088 -0.332784,-0.03995 -0.383012,-0.06908 -0.05021,-0.02918 -0.178257,0.02016 -0.284606,0.10871 -0.25525,0.213601 -0.145427,0.42529 0.378338,0.729253 0.318682,0.18494 0.455203,0.212236 0.570194,0.113985 0.103922,-0.08877 0.171177,-0.08668 0.215089,0.0066 0.145568,0.309387 1.156243,-0.03201 1.193196,-0.403046 z m -1.794106,0.0042 c -0.02293,-0.04874 -0.0036,-0.10649 0.04292,-0.128374 0.04651,-0.02194 0.103336,1.8e-5 0.126261,0.04875 0.02293,0.04874 0.0036,0.106491 -0.04292,0.128374 -0.04652,0.02194 -0.103336,-1.7e-5 -0.126259,-0.04875 z m 1.8317,-0.718105 c -0.06279,-0.133439 -1.165487,-0.461671 -1.225733,-0.364854 -0.04092,0.06578 -0.06021,0.05246 -0.05195,-0.03583 0.0083,-0.0888 -0.171358,-0.207455 -0.488817,-0.322875 -0.276083,-0.100372 -0.68057,-0.282014 -0.898859,-0.403638 -0.54815,-0.305409 -1.660906,-0.706725 -1.836831,-0.662457 -0.07988,0.02006 -0.117819,0.09485 -0.08431,0.166047 0.03351,0.07125 0.06662,0.193626 0.07358,0.271993 0.007,0.07832 0.196446,0.224436 0.421088,0.324601 0.224637,0.100167 0.493563,0.263784 0.59761,0.363584 0.167457,0.160629 0.191763,0.159717 0.211761,-0.008 0.02039,-0.171017 0.0478,-0.185327 0.281784,-0.147196 0.142562,0.02326 0.278093,0.08241 0.301185,0.13148 0.02436,0.05179 -0.03087,0.06862 -0.131568,0.04009 -0.221511,-0.06262 -0.360214,0.128562 -0.163926,0.226052 0.09564,0.04745 0.122065,0.116683 0.08588,0.224934 -0.07015,0.209863 0.185085,0.248131 0.543909,0.08154 0.334131,-0.155233 0.933351,-0.175053 1.175427,-0.03904 0.101711,0.05711 0.363443,0.11276 0.581631,0.123604 0.218185,0.01085 0.412499,0.05329 0.43181,0.09433 0.01931,0.04101 0.07318,0.05677 0.119701,0.03483 0.04652,-0.02194 0.072,-0.06655 0.0566,-0.09927 z m -3.284884,-0.04947 c -0.294429,-0.430593 -0.530822,-0.583712 -0.680819,-0.440964 -0.14668,0.139606 -0.365256,0.01295 -0.262538,-0.15214 0.04204,-0.06753 0.02272,-0.15362 -0.04478,-0.199593 -0.09097,-0.06191 -0.126756,-0.03379 -0.153221,0.120564 -0.02004,0.116847 -0.0736,0.174775 -0.127611,0.137996 -0.05119,-0.03491 -0.06504,-0.108468 -0.03075,-0.163554 0.109051,-0.175248 -0.721476,-0.156477 -0.948339,0.02145 -0.255696,0.200522 -0.230214,0.2624 0.180902,0.439408 0.178144,0.07673 0.337129,0.167575 0.353308,0.201957 0.03452,0.07334 1.468427,0.755033 1.645895,0.782453 0.06659,0.01032 0.159594,-0.07987 0.206666,-0.200391 0.06809,-0.174263 0.03971,-0.286217 -0.138723,-0.547172 z m -1.65589,-1.337626 c -0.032,-0.218632 -0.857467,-0.788683 -1.026703,-0.709057 -0.05204,0.02451 -0.08246,0.0078 -0.06753,-0.03659 0.0362,-0.108283 -0.274573,-0.343426 -0.385134,-0.291399 -0.04958,0.02331 -0.02429,0.116637 0.0585,0.215889 0.129537,0.155322 0.126707,0.161952 -0.02536,0.05951 -0.09415,-0.06344 -0.176786,-0.178615 -0.183643,-0.255915 -0.02002,-0.225512 -0.779765,-0.543001 -0.950433,-0.397184 -0.115433,0.0986 -0.108294,0.200505 0.03544,0.505991 0.249311,0.529873 0.507842,0.760413 1.084014,0.966616 0.48973,0.175269 1.191451,0.269158 1.388348,0.185764 0.05605,-0.02367 0.08866,-0.133372 0.0725,-0.243626 z m -0.276507,-0.975213 c -0.360496,-0.191477 -0.850103,-0.456989 -1.088002,-0.590021 -0.237898,-0.133032 -0.521654,-0.266762 -0.630564,-0.297185 -0.108906,-0.03037 -0.212696,-0.0865 -0.230634,-0.12462 -0.01793,-0.03815 -0.624474,-0.487339 -1.347856,-0.998263 -0.723378,-0.510924 -1.331285,-0.963051 -1.350899,-1.00474 -0.05938,-0.126219 -1.199505,-0.915746 -1.274589,-0.882644 -0.147299,0.06492 0.757668,0.838899 1.467305,1.254901 0.307272,0.180112 0.531669,0.495668 0.526934,0.740977 -0.0044,0.227121 0.677562,0.770133 0.801947,0.638552 0.05263,-0.05569 0.122686,-0.01492 0.179841,0.104749 0.207072,0.433119 0.372777,0.552758 0.555078,0.400203 0.215862,-0.180628 0.646594,-0.01382 2.302901,0.892023 0.359999,0.196872 0.674671,0.325614 0.699267,0.286088 0.02462,-0.03948 -0.250228,-0.228544 -0.610729,-0.42002 z m 19.551793,-9.989338 c -0.03438,-0.07306 -0.118418,-0.106573 -0.186744,-0.0744 -0.07567,0.03557 -0.08076,0.101427 -0.01302,0.168408 0.06115,0.06051 0.145196,0.09397 0.186739,0.0744 0.04155,-0.01953 0.04741,-0.09535 0.01303,-0.1684 z M 62.174786,68.946397 c 0.175031,-0.245063 -0.09656,-0.755686 -0.617178,-1.160322 -0.557397,-0.43322 -1.013095,-0.618007 -1.487237,-0.603076 -0.350934,0.01105 -0.382777,0.02661 -0.369136,0.180284 0.01933,0.217961 0.761847,0.913798 1.314866,1.232244 0.237836,0.136947 0.548965,0.319168 0.691411,0.404934 0.294063,0.177057 0.302949,0.176033 0.467233,-0.05446 z M 84.164634,58.387386 c -0.216216,-0.03385 -0.305981,0.0084 -0.253759,0.119448 0.02293,0.04874 0.127035,0.04766 0.231365,-0.0023 0.153451,-0.0734 0.157666,-0.09596 0.0224,-0.117078 z m -23.562979,8.327878 c 0.04089,-0.174326 -0.113605,-0.326091 -0.40956,-0.402312 -0.04087,-0.01056 -0.222756,-0.144024 -0.404211,-0.296657 -0.181452,-0.152633 -0.370463,-0.246263 -0.420027,-0.208074 -0.04956,0.03821 -0.138824,-0.01715 -0.198358,-0.123044 -0.212717,-0.378261 -0.264881,-0.44692 -0.472579,-0.621915 -0.35784,-0.301486 -0.953246,-0.262412 -0.645049,0.04234 0.05984,0.05916 0.06165,0.129807 0.004,0.156917 -0.14085,0.06627 0.259754,0.696334 0.520341,0.818384 0.105993,0.04965 0.199514,0.152705 0.20783,0.229037 0.02515,0.230472 0.430191,0.47835 0.978824,0.598933 0.573581,0.12607 0.774634,0.07966 0.83873,-0.193628 z m -2.378162,-1.321616 c -0.02427,-0.0516 0.0055,-0.08706 0.06622,-0.07886 0.06069,0.0082 0.118616,0.03254 0.128722,0.054 0.0101,0.02146 -0.01969,0.05692 -0.06621,0.07886 -0.04652,0.02194 -0.104446,-0.0024 -0.128724,-0.054 z m -0.455849,-0.05411 c 0.04047,-0.09906 -0.243711,-0.810793 -0.369505,-0.925382 -0.07743,-0.07056 -0.165393,-0.165355 -0.195468,-0.210696 -0.293472,-0.442499 -1.409253,-1.013824 -1.706667,-0.873886 -0.249628,0.117448 -0.131216,0.286265 0.94142,1.342126 0.529224,0.520942 0.968734,0.961008 0.976703,0.977946 0.01494,0.03176 0.324957,-0.240194 0.353517,-0.310108 z m -0.82896,-0.38513 c -0.105302,-0.104656 -0.100375,-0.11939 0.02402,-0.07183 0.08608,0.03288 0.145699,0.09214 0.132485,0.13165 -0.01321,0.03953 -0.0836,0.01295 -0.156499,-0.05977 z m 1.13129,-1.123008 c -0.353178,-0.329653 -0.677093,-0.571342 -0.719813,-0.537077 -0.04273,0.03428 -0.08415,-0.01075 -0.09208,-0.100033 -0.0079,-0.08929 -0.182015,-0.311051 -0.386836,-0.492853 -0.204833,-0.1818 -0.5863,-0.580902 -0.847713,-0.886898 -0.432575,-0.506365 -0.672249,-0.682227 -0.722972,-0.530469 -0.01046,0.03135 0.222195,0.305325 0.517006,0.608977 0.560159,0.576977 0.767314,1.032391 0.522059,1.147779 -0.06889,0.03245 -0.110697,0.08988 -0.09286,0.127809 0.06287,0.13363 0.48504,0.339657 0.534183,0.260693 0.04514,-0.07253 0.544243,0.371762 0.754509,0.671645 0.04706,0.06712 0.137111,0.132792 0.200131,0.145955 0.07449,0.01553 0.106929,0.104362 0.09275,0.253865 -0.0201,0.211716 -0.0017,0.220453 0.232651,0.110201 0.139963,-0.06586 0.354451,-0.08014 0.476638,-0.03181 0.378018,0.149569 0.215785,-0.109804 -0.467661,-0.747752 z m -1.406522,-0.582317 c -0.04629,-0.01787 -0.103552,-0.07371 -0.127238,-0.124045 -0.02612,-0.05551 0.01575,-0.06884 0.106331,-0.03387 0.08218,0.03173 0.139433,0.08756 0.127241,0.124054 -0.01219,0.03649 -0.06005,0.05164 -0.106343,0.03377 z M 56.013184,62.67215 c -0.181164,-0.385038 -1.857671,-1.95744 -2.010408,-1.885573 -0.1264,0.05952 -0.150691,0.586132 -0.03807,0.825494 0.06301,0.133916 0.153681,0.201971 0.22462,0.168595 0.07732,-0.03637 0.132658,0.01335 0.158074,0.141985 0.02149,0.108887 0.07668,0.180298 0.122575,0.158707 0.04591,-0.02156 0.213038,0.114251 0.371412,0.301889 0.445892,0.528258 0.829332,0.755932 1.076926,0.639441 0.177069,-0.08336 0.192968,-0.142049 0.09487,-0.350538 z m -1.215829,-2.062859 c -0.237976,-0.2044 -0.615507,-0.553387 -0.838945,-0.775515 -0.448296,-0.445668 -0.784873,-0.737777 -0.889153,-0.77169 -0.03739,-0.01218 -0.235872,-0.162184 -0.441062,-0.333398 -0.338017,-0.282038 -0.362198,-0.28814 -0.257236,-0.06493 0.0639,0.135895 0.07027,0.295436 0.01422,0.355734 -0.07871,0.08467 -0.06269,0.139473 0.07101,0.242923 0.09496,0.07352 0.183448,0.10129 0.196652,0.06185 0.0132,-0.03943 0.1686,0.04 0.345324,0.176551 0.260094,0.201009 0.358181,0.352402 0.514669,0.794365 l 0.193328,0.546037 0.186536,-0.1561 c 0.234731,-0.196422 0.549401,-0.177919 0.749266,0.04405 0.226546,0.251597 0.619185,0.486658 0.60251,0.360726 -0.008,-0.05988 -0.20913,-0.276172 -0.447112,-0.480571 z m -1.396361,0.21703 c -0.384843,-0.941648 -0.940275,-1.454182 -1.616789,-1.491901 -0.161482,-0.009 -0.364922,-0.04157 -0.452107,-0.07244 -0.08717,-0.03084 -0.201439,-0.0099 -0.253904,0.04656 -0.07794,0.08387 -0.05618,0.137119 0.118826,0.291102 0.646277,0.568505 1.030028,0.832395 1.137168,0.781993 0.09682,-0.04553 0.112102,-0.02137 0.07805,0.123761 -0.0351,0.149621 0.0032,0.177608 0.224705,0.164104 0.157701,-0.0097 0.354589,0.07566 0.480922,0.208267 0.252247,0.264789 0.401257,0.237723 0.283089,-0.05143 z M 51.94205,60.03974 c -0.06548,-0.04459 -0.107475,-0.115747 -0.09332,-0.158121 0.0384,-0.114899 0.175799,-0.03718 0.195353,0.110551 0.01369,0.103487 -0.0063,0.112794 -0.101948,0.04775 z m 0.824009,0.756715 c -0.103114,-0.03982 -0.123479,-0.01817 -0.07655,0.08159 0.08285,0.176081 0.252633,0.241662 0.232532,0.08983 -0.0085,-0.06444 -0.07872,-0.141536 -0.155968,-0.171388 z m -0.705585,-1.914067 c -0.02404,-0.05112 -0.308899,-0.261286 -0.633032,-0.467109 -0.324133,-0.205824 -0.60402,-0.40545 -0.621972,-0.4436 -0.01795,-0.03815 -0.178396,-0.13213 -0.356538,-0.208824 -0.178144,-0.07673 -0.34168,-0.177255 -0.36342,-0.223455 -0.02175,-0.04626 -0.0776,-0.06611 -0.124109,-0.04418 -0.04653,0.02184 -0.109244,-0.0095 -0.139374,-0.06965 -0.03023,-0.06016 -0.152942,-0.16064 -0.272902,-0.223204 -0.215697,-0.112486 -0.216612,-0.111813 -0.08247,0.06065 0.07461,0.09592 0.104807,0.204651 0.06713,0.241601 -0.03838,0.03769 0.0077,0.162426 0.104801,0.283743 0.128758,0.160853 0.205731,0.185702 0.299318,0.09664 0.07475,-0.07111 0.170575,-0.07584 0.235626,-0.01146 0.07128,0.07049 0.06222,0.11114 -0.02594,0.116238 -0.07462,0.0038 -0.140666,0.06222 -0.146897,0.128726 -0.0062,0.0665 0.02899,0.101913 0.07826,0.07872 0.04927,-0.02317 0.127086,0.03758 0.172929,0.135005 0.04585,0.09744 0.121416,0.159247 0.167943,0.137359 0.04652,-0.02194 0.114153,0.023 0.150305,0.09988 0.03615,0.07687 0.241214,0.20748 0.455706,0.290342 0.313953,0.121284 0.393259,0.11926 0.406778,-0.01043 0.01373,-0.131616 0.02998,-0.133635 0.08895,-0.01108 0.03945,0.08263 0.157888,0.159288 0.262668,0.170634 0.24712,0.02675 0.330402,-0.01143 0.276231,-0.126547 z m -2.915226,-1.304573 c -0.276015,-0.247678 -0.519557,-0.347936 -0.531645,-0.218871 -0.0052,0.0557 0.07039,0.123806 0.167969,0.151415 0.09759,0.02759 0.209533,0.118393 0.248751,0.201751 0.08524,0.181155 0.214302,0.243635 0.281199,0.136129 0.02664,-0.04274 -0.04822,-0.164473 -0.166274,-0.270424 z M 46.60013,55.182001 c -0.02293,-0.04874 -0.05844,-0.08067 -0.07898,-0.07098 -0.02054,0.0095 -0.04208,0.06844 -0.0479,0.130719 -0.0058,0.06222 0.02972,0.09415 0.07898,0.07098 0.04926,-0.02317 0.07082,-0.08202 0.0479,-0.130729 z m -2.010179,-1.637409 c -0.02012,-0.04273 -0.117017,-0.100486 -0.215336,-0.128299 -0.194047,-0.05491 -0.197796,-0.01821 -0.01643,0.161161 0.124133,0.122742 0.293672,0.09871 0.231804,-0.03255 z M 43.828499,53.02412 c -0.02293,-0.04874 -0.07974,-0.07069 -0.126258,-0.04876 -0.04652,0.02194 -0.109053,-0.0095 -0.138955,-0.06981 -0.02991,-0.0603 -0.2346,-0.195245 -0.454877,-0.299866 l -0.400507,-0.190201 0.314949,0.242683 c 0.49777,0.383563 0.713895,0.517367 0.783093,0.484813 0.03533,-0.01658 0.04549,-0.07005 0.02256,-0.118809 z m 29.615778,21.334112 c -0.05166,-0.03516 -0.05364,-0.08295 -0.0043,-0.106139 0.04927,-0.02317 0.108331,-0.0023 0.131257,0.04645 0.02293,0.04874 0.02491,0.09644 0.0043,0.106139 -0.02052,0.0095 -0.07959,-0.0113 -0.131257,-0.04645 z m -0.54981,-0.180442 c -0.02427,-0.0516 0.0055,-0.08706 0.06622,-0.07886 0.06068,0.0082 0.118617,0.03254 0.128722,0.054 0.0101,0.02146 -0.01969,0.05702 -0.06621,0.07885 -0.04652,0.02194 -0.104452,-0.0024 -0.128726,-0.054 z m 2.686951,-1.530929 c -0.252122,-0.12518 -0.171157,-0.191457 0.107776,-0.08822 0.13244,0.04903 0.200737,0.107968 0.151768,0.131001 -0.04897,0.02303 -0.165765,0.0038 -0.259549,-0.0428 z m 11.63316,-8.216401 c -0.02011,-0.04273 10e-4,-0.162231 0.04696,-0.265517 0.07574,-0.170277 0.08282,-0.164742 0.0759,0.05927 -0.0079,0.255462 -0.05918,0.341579 -0.122849,0.206281 z m 0.331178,-0.613601 c -0.03459,-0.07353 -0.04021,-0.238805 -0.01252,-0.367346 0.0484,-0.224592 0.05223,-0.224039 0.09837,0.0142 0.05926,0.305907 0.0023,0.540412 -0.08585,0.353163 z M 68.055382,72.56632 c -0.05166,-0.03515 -0.05363,-0.08296 -0.0043,-0.106129 0.04926,-0.02317 0.108332,-0.0023 0.131257,0.04645 0.02293,0.04874 0.02491,0.09643 0.0043,0.106128 -0.02051,0.0095 -0.07957,-0.0112 -0.131253,-0.04645 z m 19.204433,-9.475173 c 0.0055,-0.05845 0.06482,-0.132132 0.131858,-0.163676 0.06704,-0.03152 0.09376,-0.117139 0.05937,-0.190215 -0.03438,-0.07306 -0.102835,-0.113901 -0.152099,-0.09071 -0.04927,0.02317 -0.08485,-0.0083 -0.07908,-0.06987 0.0069,-0.07342 0.06014,-0.09717 0.154495,-0.06889 0.07917,0.02363 0.241021,0.06141 0.359666,0.08374 0.126745,0.02392 0.210419,0.09723 0.202874,0.177793 -0.0094,0.100308 -0.06331,0.108339 -0.200984,0.0299 -0.162736,-0.09279 -0.18631,-0.08565 -0.174542,0.05285 0.0075,0.08803 -0.05953,0.201845 -0.148926,0.25284 -0.08939,0.05099 -0.158054,0.04485 -0.152575,-0.01361 z m 0.268887,-0.847569 c -0.04339,-0.09223 -0.06146,-0.2691 -0.04023,-0.393149 0.03566,-0.208014 0.04801,-0.201082 0.158853,0.08915 0.1251,0.327576 0.0196,0.597849 -0.118661,0.303999 z m -0.464016,-0.547042 c -0.04125,-0.08765 -0.138228,-0.183856 -0.215481,-0.213697 -0.07725,-0.0298 -0.147881,-0.110245 -0.156936,-0.178665 -0.02673,-0.202229 0.399279,0.0103 0.515391,0.257084 0.05568,0.118321 0.06315,0.23303 0.01663,0.254917 -0.04651,0.02194 -0.118347,-0.03197 -0.159604,-0.119639 z m 0.200267,-0.336959 c -0.04943,-0.03361 -0.08516,-0.111286 -0.07928,-0.172597 0.01476,-0.157539 -0.584826,-1.447157 -0.805458,-1.732396 l -0.18405,-0.237962 0.232902,0.160886 c 0.128098,0.08848 0.322224,0.347224 0.431404,0.574981 0.109105,0.227796 0.250564,0.421158 0.314199,0.429776 0.08057,0.01088 0.104781,0.06218 0.07972,0.169021 -0.01978,0.08432 0.03581,0.270273 0.123545,0.413207 0.157,0.255785 0.07973,0.5262 -0.112869,0.39504 z m 0.259719,-0.442031 c -0.02293,-0.04874 0.01542,-0.115442 0.08521,-0.148278 0.06978,-0.03286 0.145572,-0.0203 0.168554,0.02893 0.02293,0.04874 -0.01541,0.115441 -0.0852,0.148278 -0.06978,0.03285 -0.145578,0.0203 -0.168561,-0.02893 z m -0.989286,0.09318 c -0.03302,-0.0702 -0.03358,-0.170179 -0.0012,-0.222176 0.03236,-0.05198 0.09745,-0.01244 0.144641,0.08784 0.04719,0.100306 0.04775,0.200288 0.0012,0.222174 -0.04654,0.02184 -0.111618,-0.01766 -0.144646,-0.08784 z m -0.346783,-0.676264 c -0.222976,-0.145005 -0.447014,-0.352067 -0.497855,-0.460117 -0.05084,-0.108059 -0.147213,-0.259877 -0.214116,-0.337391 -0.06693,-0.07755 0.0047,-0.04214 0.159039,0.0786 0.154395,0.12074 0.311873,0.204862 0.349957,0.186947 0.03808,-0.01791 0.135471,0.108174 0.21642,0.28022 0.09237,0.19633 0.203346,0.309557 0.298038,0.304085 0.08297,-0.0048 0.167615,0.02683 0.188091,0.07042 0.0826,0.175557 -0.115852,0.126802 -0.499571,-0.122731 z m -0.549997,-1.586991 c -0.239455,-0.289922 -0.253556,-0.380683 -0.06993,-0.450024 0.186425,-0.07037 0.273087,0.0034 0.179892,0.153161 -0.03096,0.0497 -0.01067,0.135503 0.04507,0.190605 0.05573,0.05512 0.07604,0.140808 0.04518,0.190432 -0.03087,0.04969 -0.121029,0.01135 -0.200211,-0.08417 z m 0.02775,-1.120746 c -0.03438,-0.07306 -0.04757,-0.139897 -0.02927,-0.148505 0.01833,-0.0082 0.08329,0.03382 0.144448,0.09431 0.06115,0.06051 0.07431,0.127318 0.02927,0.148515 -0.04507,0.02116 -0.110067,-0.02127 -0.144444,-0.09432 z m -1.647691,0.01547 c -0.142458,-0.0707 -0.143326,-0.08615 -0.0053,-0.09413 0.09087,-0.0047 0.181845,0.02604 0.202313,0.06953 0.05359,0.113906 -0.0029,0.120946 -0.197051,0.0244 z M 58.58868,68.365601 c -0.02293,-0.04874 -0.0014,-0.107548 0.0479,-0.130729 0.04927,-0.02317 0.0848,0.0088 0.07898,0.07098 -0.0058,0.06222 -0.02739,0.121073 -0.0479,0.130719 -0.02052,0.0095 -0.05606,-0.02235 -0.07897,-0.07098 z m 18.699715,-9.771145 c -0.274283,0.02088 -1.044052,0.163422 -1.710607,0.316741 -1.526722,0.351173 -2.325025,0.441766 -2.623542,0.297764 -0.264892,-0.127803 -0.504256,-0.558851 -0.401785,-0.723529 0.04839,-0.07775 0.08975,-0.02455 0.143361,0.184496 0.0908,0.354024 0.335555,0.459032 0.81503,0.349665 0.179607,-0.04096 0.447675,-0.06825 0.595714,-0.06065 0.148037,0.0076 0.536676,-0.05566 0.863623,-0.140693 0.32696,-0.08494 1.07707,-0.239183 1.666919,-0.342722 0.589842,-0.103558 1.091941,-0.197405 1.115767,-0.208592 0.02387,-0.01089 0.07145,0.03945 0.105828,0.112479 0.07563,0.160745 0.05826,0.167288 -0.570295,0.215172 z M 48.836047,56.699371 c -0.161777,-0.147013 -0.3271,-0.251794 -0.367383,-0.232843 -0.04027,0.01898 -0.202405,-0.07516 -0.360279,-0.209135 -0.157879,-0.133972 -0.248656,-0.261651 -0.201734,-0.283736 0.04692,-0.02209 0.170877,0.04497 0.275462,0.149015 0.104583,0.104026 0.263653,0.222227 0.353491,0.262668 0.436882,0.196658 0.519515,0.258176 0.555619,0.413593 0.02724,0.117266 -0.04956,0.08725 -0.255176,-0.09956 z m -0.449139,0.06712 c -0.04452,-0.105085 -0.03432,-0.135518 0.02592,-0.0776 0.05451,0.05244 0.08746,0.130258 0.0732,0.172906 -0.01426,0.04268 -0.05884,-6.5e-5 -0.09912,-0.09535 z m -1.171515,0.01431 c -0.277432,-0.137593 -0.38955,-0.24866 -0.413074,-0.409217 -0.02515,-0.171974 -0.05538,-0.195535 -0.137421,-0.107277 -0.05881,0.06327 -0.152056,0.06669 -0.211657,0.0077 -0.06279,-0.06213 -0.05553,-0.129315 0.01771,-0.16378 0.06832,-0.03218 0.09499,-0.120589 0.05925,-0.196535 -0.03573,-0.07592 -0.02,-0.132003 0.03501,-0.124556 0.05499,0.0075 0.117576,0.102584 0.139081,0.211418 0.02148,0.108826 0.07684,0.180107 0.122968,0.158398 0.04613,-0.02169 0.162984,0.06937 0.25966,0.20239 0.09668,0.13302 0.219559,0.221249 0.273062,0.196086 0.06264,-0.02949 0.03562,-0.1306 -0.07591,-0.284052 -0.13051,-0.179567 -0.139814,-0.240192 -0.03777,-0.246093 0.08314,-0.0048 0.177843,0.105329 0.245429,0.285417 0.06049,0.161304 0.138691,0.364955 0.173708,0.452608 0.09113,0.228157 -0.01671,0.232339 -0.450021,0.01747 z m 0.599513,-0.114777 c -0.02293,-0.04874 0.04426,-0.128261 0.149283,-0.176771 0.154341,-0.07149 0.174417,-0.06028 0.104484,0.05738 -0.111779,0.18814 -0.201545,0.230377 -0.253756,0.119449 z m -1.833989,-0.768897 c -0.253661,-0.111444 -0.37873,-0.306036 -0.289185,-0.449946 0.03236,-0.05198 0.03069,-0.154334 -0.0037,-0.227402 -0.03438,-0.07306 -0.08943,-0.08968 -0.12231,-0.03684 -0.03288,0.05284 -0.02043,0.122886 0.02764,0.155646 0.0481,0.03276 0.03007,0.08656 -0.04009,0.119581 -0.07432,0.035 -0.358008,-0.136306 -0.679787,-0.410413 -0.303731,-0.258737 -0.592624,-0.468331 -0.641989,-0.465764 -0.04933,0.0028 -0.07196,-0.07121 -0.05021,-0.163903 0.03147,-0.134135 -0.01399,-0.165314 -0.222459,-0.152599 -0.144065,0.009 -0.289944,-0.04342 -0.324097,-0.116011 -0.03415,-0.07258 -0.265009,-0.266809 -0.513011,-0.431601 -0.247999,-0.164783 -0.476678,-0.354386 -0.508174,-0.42132 -0.03149,-0.06695 -0.253233,-0.241782 -0.492752,-0.388539 -0.477297,-0.292451 -0.661824,-0.513952 -0.356101,-0.42747 0.09832,0.0278 0.204599,0.105475 0.236175,0.172581 0.03158,0.06714 0.09474,0.104459 0.140393,0.08303 0.04564,-0.02143 0.151704,0.04684 0.235691,0.151752 0.084,0.10493 0.21652,0.1871 0.294506,0.182585 0.07803,-0.0042 0.180351,0.07375 0.227485,0.173944 0.05366,0.11403 0.182082,0.176254 0.343518,0.166404 0.192601,-0.01179 0.265018,0.03339 0.286266,0.178396 0.01929,0.131906 0.07725,0.182627 0.180793,0.15827 0.169978,-0.04002 0.692195,0.464154 0.712005,0.687365 0.0076,0.0853 0.06778,0.11753 0.148668,0.07953 0.07477,-0.03516 0.116075,-0.106124 0.09179,-0.157761 -0.02427,-0.0516 0.0033,-0.0874 0.0614,-0.07949 0.05803,0.0078 0.111619,0.08292 0.119057,0.166737 0.0085,0.09506 0.06473,0.128353 0.149458,0.0885 0.07477,-0.03516 0.154649,-0.0244 0.177608,0.02463 0.02293,0.04874 0.0011,0.107672 -0.04853,0.131025 -0.04962,0.02331 -0.02804,0.143305 0.04795,0.266586 0.100774,0.16356 0.191408,0.203776 0.33511,0.148802 0.274302,-0.10497 0.326536,-0.06596 0.357067,0.266755 0.01925,0.209623 0.06568,0.304934 0.166773,0.342226 0.101798,0.03756 0.115452,0.01892 0.04995,-0.06816 -0.04958,-0.06591 -0.06673,-0.143051 -0.03771,-0.171581 0.02885,-0.0284 0.06183,-0.03181 0.07325,-0.0077 0.01145,0.02432 0.06772,0.143931 0.125028,0.265724 0.122496,0.260344 0.05532,0.303706 -0.257543,0.166261 z"
         id="path6532"
         inkscape:connector-curvature="0" />
      <g
         style="fill:#76a6bb;fill-opacity:1"
         transform="translate(74.083374)"
         id="g5723">
        <path
           inkscape:connector-curvature="0"
           id="path5690"
           d="m 27.463952,72.259188 c 5.1e-5,-1.734438 0.0023,-3.150439 0.0052,-3.14667 0.0034,0.0046 0.610204,0.0069 1.79677,0.0069 h 1.791741 v 0.681747 0.681752 l -0.982839,0.0017 c -0.77584,0.0011 -0.983984,0.0034 -0.988263,0.01025 -0.0071,0.01117 -0.0071,1.040536 -6e-6,1.0517 0.004,0.0068 0.194615,0.0089 0.899193,0.01025 l 0.893768,0.0017 v 0.681752 0.681752 l -0.893768,0.0017 c -0.704578,0.0011 -0.894914,0.0034 -0.899193,0.01025 -0.0029,0.0046 -0.0057,0.561223 -0.0057,1.23672 l -1.2e-4,1.228181 -0.806794,0.0017 -0.806795,0.0017 0.815364,0.0034 0.815358,0.0034 -0.817071,0.0017 -0.817076,0.0017 z m 4.83553,3.148389 c 0.208208,-0.0011 0.548915,-0.0011 0.757122,0 0.208207,0.0011 0.03786,0.0017 -0.378558,0.0017 -0.41642,0 -0.586771,-5.73e-4 -0.378564,-0.0017 z m 2.888017,0 c 0.379675,-0.0011 1.000963,-0.0011 1.380637,0 0.379669,0.0011 0.06903,0.0017 -0.690315,0.0017 -0.75935,0 -1.069991,-5.73e-4 -0.690322,-0.0017 z m 6.651353,-0.0017 1.798591,-0.0034 -1.790022,-0.0017 -1.790028,-0.0017 v -3.141561 -3.141561 l 0.803374,0.0017 0.803369,0.0017 0.0017,2.452534 c 0.0011,1.951604 0.0034,2.453646 0.01025,2.457971 0.0046,0.0029 0.446898,0.0057 0.98265,0.0057 0.772941,5.7e-5 0.974802,-0.0017 0.977546,-0.0085 0.0017,-0.0046 0.0034,0.305159 0.004,0.688603 l 5.39e-4,0.697166 -1.800305,-0.0017 -1.800298,-0.0017 z M 31.931201,73.27155 v -2.127476 h 0.746845 0.746839 v 2.127476 2.127476 h -0.746839 -0.746845 z m 2.583115,-1.014371 v -3.141848 l 1.306975,0.0023 c 1.361912,0.0029 1.344946,0.0023 1.545723,0.03265 0.711842,0.107583 1.15697,0.505341 1.285306,1.148515 0.03311,0.165855 0.03815,0.227087 0.03815,0.461356 0,0.221216 -0.004,0.276067 -0.03173,0.41453 -0.07099,0.357289 -0.251505,0.617707 -0.568997,0.820879 -0.06627,0.04239 -0.08016,0.05631 -0.06826,0.06819 0.0034,0.0034 0.04823,0.01506 0.09939,0.02572 0.35383,0.07365 0.567341,0.174744 0.750133,0.355176 0.223357,0.220477 0.366609,0.556641 0.409219,0.960316 0.01495,0.141574 0.01025,0.388267 -0.0098,0.518768 -0.116439,0.75652 -0.663039,1.265235 -1.528878,1.422915 -0.284756,0.05184 -0.290902,0.05201 -1.844839,0.05213 l -1.382344,5.7e-5 z m 2.408395,1.871933 c 0.292786,-0.03855 0.433913,-0.09274 0.549693,-0.21102 0.06823,-0.0697 0.106186,-0.12727 0.143933,-0.218305 0.06472,-0.156071 0.05591,-0.352398 -0.0228,-0.5093 -0.03769,-0.07512 -0.07022,-0.120385 -0.126349,-0.175878 -0.110298,-0.109049 -0.262004,-0.172086 -0.479364,-0.19918 -0.03992,-0.0052 -0.217217,-0.0094 -0.458234,-0.01134 -0.325448,-0.0029 -0.394156,-0.0017 -0.399013,0.006 -0.0067,0.0106 -0.0084,1.307428 -0.0017,1.324858 0.004,0.01054 0.03202,0.01123 0.358005,0.0082 0.267595,-0.0023 0.373603,-0.0058 0.435827,-0.01403 z m -0.236383,-2.54263 c 0.07819,-0.01524 0.192094,-0.0539 0.246659,-0.08376 0.129939,-0.07106 0.212457,-0.174028 0.258333,-0.322355 0.01776,-0.05749 0.01862,-0.0669 0.01862,-0.204157 0,-0.13781 -5.73e-4,-0.146482 -0.01896,-0.205217 -0.07542,-0.244116 -0.25701,-0.377681 -0.568412,-0.418081 -0.05688,-0.0074 -0.141511,-0.01048 -0.285329,-0.01048 -0.180129,0 -0.204965,0.0011 -0.208631,0.01083 -0.0057,0.01455 -0.0052,1.225104 2.41e-4,1.239688 0.004,0.01054 0.02492,0.01123 0.251802,0.0082 0.191562,-0.0023 0.260544,-0.0058 0.305641,-0.01466 z m -4.097358,-1.26775 c -0.0057,-0.0011 -0.03339,-0.0062 -0.06167,-0.01083 -0.227894,-0.03689 -0.443582,-0.188382 -0.570325,-0.400599 -0.114188,-0.191195 -0.146058,-0.44829 -0.0828,-0.668045 0.05654,-0.196533 0.208585,-0.384732 0.394963,-0.488959 0.09554,-0.05344 0.248096,-0.0987 0.341468,-0.101323 l 0.0366,-0.0011 -0.03082,-0.0046 c -0.01999,-0.0029 0.0017,-0.0046 0.06167,-0.0046 0.05201,0 0.07901,0.0017 0.06166,0.004 -0.02801,0.004 -0.02549,0.0046 0.02738,0.0089 0.271542,0.02188 0.531232,0.199827 0.660066,0.452317 0.05905,0.115723 0.08724,0.236424 0.08764,0.375259 4.18e-4,0.141625 -0.02411,0.247524 -0.08661,0.37342 -0.06659,0.134224 -0.164405,0.244871 -0.290937,0.329107 -0.138589,0.09226 -0.266798,0.132598 -0.435259,0.13694 -0.05654,0.0017 -0.1074,0.0017 -0.113053,1.54e-4 z"
           style="fill:#76a6bb;fill-opacity:1;stroke-width:0.00685176" />
        <g
           aria-label="france"
           style="font-style:normal;font-variant:normal;font-weight:normal;font-stretch:normal;font-size:4.23333311px;line-height:3.25;font-family:Roboto;-inkscape-font-specification:Roboto;letter-spacing:0px;word-spacing:0px;fill:#76a6bb;fill-opacity:1;stroke:none;stroke-width:0.26458332"
           id="text5716">
          <path
             d="m 49.214978,73.208389 -0.303169,-0.0028 q -0.159852,0 -0.261827,0.06063 -0.101975,0.05788 -0.151584,0.165365 v 1.965082 h -0.931554 v -2.982074 h 0.876432 l 0.03307,0.438216 q 0.09371,-0.234267 0.248047,-0.363802 0.15434,-0.129536 0.361046,-0.129536 0.06339,0 0.112999,0.0083 0.04961,0.0083 0.104731,0.02481 z"
             style="font-style:normal;font-variant:normal;font-weight:normal;font-stretch:normal;font-size:5.64444447px;font-family:Roboto;-inkscape-font-specification:Roboto;fill:#76a6bb;fill-opacity:1;stroke-width:0.26458332"
             id="path832" />
          <path
             d="m 51.284791,75.393957 q -0.05237,-0.09371 -0.09095,-0.212218 -0.03583,-0.118511 -0.05512,-0.248047 -0.121267,0.237023 -0.300412,0.380339 -0.176389,0.14056 -0.463021,0.14056 -0.468533,0 -0.73036,-0.239779 -0.259072,-0.242535 -0.259072,-0.658702 0,-0.443728 0.333486,-0.683507 0.333485,-0.242535 1.01148,-0.242535 h 0.383094 V 73.41785 q 0,-0.190169 -0.09095,-0.292144 -0.09095,-0.101975 -0.278364,-0.101975 -0.162609,0 -0.242535,0.07717 -0.07717,0.07441 -0.07717,0.234266 l -0.903993,-0.0028 -0.0055,-0.01654 q -0.01929,-0.4079 0.338997,-0.680751 0.361046,-0.275608 0.950847,-0.275608 0.553971,0 0.895724,0.275608 0.34451,0.275607 0.34451,0.788238 v 1.124479 q 0,0.237022 0.03858,0.440972 0.04134,0.20395 0.121267,0.407899 z m -0.655946,-0.603581 q 0.170877,0 0.300412,-0.07993 0.132292,-0.07993 0.184657,-0.190169 v -0.394119 h -0.374826 q -0.223242,0 -0.322461,0.107487 -0.09922,0.107487 -0.09922,0.272852 0,0.126779 0.08544,0.206705 0.08819,0.07717 0.225998,0.07717 z"
             style="font-style:normal;font-variant:normal;font-weight:normal;font-stretch:normal;font-size:5.64444447px;font-family:Roboto;-inkscape-font-specification:Roboto;fill:#76a6bb;fill-opacity:1;stroke-width:0.26458332"
             id="path834" />
          <path
             d="m 53.417994,72.414639 0.03583,0.418923 q 0.146072,-0.223242 0.361046,-0.347265 0.214974,-0.12678 0.479558,-0.12678 0.438216,0 0.683507,0.297656 0.248047,0.297657 0.248047,0.945335 v 1.794205 h -0.931554 v -1.796962 q 0,-0.283875 -0.09095,-0.402387 -0.09095,-0.121267 -0.264583,-0.121267 -0.148828,0 -0.26734,0.05236 -0.118511,0.05237 -0.198437,0.148829 v 2.119422 h -0.928798 v -2.982074 z"
             style="font-style:normal;font-variant:normal;font-weight:normal;font-stretch:normal;font-size:5.64444447px;font-family:Roboto;-inkscape-font-specification:Roboto;fill:#76a6bb;fill-opacity:1;stroke-width:0.26458332"
             id="path836" />
          <path
             d="m 57.011918,74.738011 q 0.190169,0 0.283876,-0.101975 0.09371,-0.104731 0.09371,-0.300412 h 0.848871 l 0.0055,0.01654 q 0.01102,0.487826 -0.338997,0.796506 -0.347266,0.305925 -0.892969,0.305925 -0.680751,0 -1.050065,-0.418924 -0.366558,-0.421679 -0.366558,-1.096918 v -0.06339 q 0,-0.672483 0.366558,-1.094162 0.366558,-0.42168 1.044553,-0.42168 0.567752,0 0.906749,0.316949 0.341754,0.314193 0.330729,0.862652 l -0.0055,0.01654 h -0.848871 q 0,-0.212218 -0.09646,-0.344509 -0.09646,-0.135048 -0.286632,-0.135048 -0.270095,0 -0.377582,0.21773 -0.104731,0.214974 -0.104731,0.581532 v 0.06339 q 0,0.374826 0.104731,0.587044 0.107487,0.212218 0.383094,0.212218 z"
             style="font-style:normal;font-variant:normal;font-weight:normal;font-stretch:normal;font-size:5.64444447px;font-family:Roboto;-inkscape-font-specification:Roboto;fill:#76a6bb;fill-opacity:1;stroke-width:0.26458332"
             id="path838" />
          <path
             d="m 59.947139,75.454591 q -0.677995,0 -1.063845,-0.410656 -0.383095,-0.410655 -0.383095,-1.03904 v -0.104731 q 0,-0.683507 0.361046,-1.113455 0.363802,-0.429948 1.050065,-0.427192 0.603581,0 0.93431,0.361046 0.333485,0.361046 0.333485,0.989432 v 0.487825 h -1.708767 l -0.0055,0.01654 q 0.02205,0.234267 0.173633,0.380339 0.151584,0.143316 0.43546,0.143316 0.267339,0 0.443728,-0.0441 0.179145,-0.0441 0.407899,-0.14056 l 0.223242,0.567752 q -0.192925,0.14056 -0.518142,0.237022 -0.325217,0.09646 -0.683507,0.09646 z m -0.03583,-2.378494 q -0.223242,0 -0.330729,0.143316 -0.104731,0.14056 -0.121267,0.383095 l 0.0055,0.01378 H 60.2696 v -0.07166 q 0,-0.231511 -0.08268,-0.350022 -0.07993,-0.118511 -0.275608,-0.118511 z"
             style="font-style:normal;font-variant:normal;font-weight:normal;font-stretch:normal;font-size:5.64444447px;font-family:Roboto;-inkscape-font-specification:Roboto;fill:#76a6bb;fill-opacity:1;stroke-width:0.26458332"
             id="path840" />
        </g>
        <path
           inkscape:connector-curvature="0"
           id="path5690-5"
           d="m 44.863798,73.196759 c 3.6e-5,-1.21201 0.0016,-2.201498 0.0036,-2.198865 0.0024,0.0032 0.426405,0.0048 1.255567,0.0048 h 1.252052 v 0.476399 0.476402 l -0.686799,0.0012 c -0.54215,7.68e-4 -0.687599,0.0024 -0.690589,0.0072 -0.005,0.0078 -0.005,0.727117 -4e-6,0.734919 0.0028,0.0048 0.135995,0.0062 0.628348,0.0072 l 0.624556,0.0012 v 0.476402 0.476402 l -0.624556,0.0012 c -0.492353,7.69e-4 -0.625358,0.0024 -0.628348,0.0072 -0.002,0.0032 -0.004,0.392178 -0.004,0.864209 l -8.4e-5,0.858241 -0.563781,0.0012 -0.563781,0.0012 0.569769,0.0024 0.569765,0.0024 -0.570962,0.0012 -0.570965,0.0012 z"
           style="fill:#76a6bb;fill-opacity:1;stroke-width:0.00478795"
           sodipodi:nodetypes="ccsccccccccccccccccccccc" />
      </g>
      <g
         aria-label="Parasit'Lab"
         transform="matrix(0.26458333,0,0,0.26458333,-10.963377,-93.049428)"
         style="font-style:normal;font-variant:normal;font-weight:normal;font-stretch:normal;font-size:16px;line-height:3.25;font-family:'DIN Pro';-inkscape-font-specification:'DIN Pro';letter-spacing:0px;word-spacing:0px;display:inline;fill:#2e6b85;fill-opacity:1;stroke:none"
         id="flowRoot4531">
        <path
           d="m 150.50781,575.34245 v 25.20834 h -5 v -60.66667 h 20.91667 q 9.54167,0 14.75,4.875 5.25,4.875 5.25,12.83333 0,8.08333 -5.25,12.91667 -5.20833,4.83333 -14.75,4.83333 z m 0,-4.25 h 15.91667 q 7.5,0 11.25,-3.79166 3.75,-3.83334 3.75,-9.62501 0,-5.83333 -3.75,-9.66666 -3.75,-3.875 -11.25,-3.875 h -15.91667 z"
           style="font-style:normal;font-variant:normal;font-weight:300;font-stretch:normal;font-size:85.33333588px;font-family:Roboto;-inkscape-font-specification:'Roboto Light';fill:#76a6bb;fill-opacity:1"
           id="path4492" />
        <path
           d="m 225.04948,600.55079 q -0.45833,-2.375 -0.70833,-4.08334 -0.20834,-1.70833 -0.20834,-3.5 -2.33333,3.66667 -6.54166,6.08334 -4.20834,2.375 -9.66667,2.375 -6.625,0 -10.29167,-3.5 -3.625,-3.54167 -3.625,-9.58334 0,-6.04166 5.29167,-9.79166 5.29167,-3.75 13.75,-3.75 h 11.08333 v -5.58334 q 0,-4.83333 -3.08333,-7.58333 -3.04167,-2.75 -8.625,-2.75 -5.125,0 -8.29167,2.5 -3.125,2.5 -3.125,6.29167 h -4.625 l -0.0833,-0.25 q -0.25,-5.08334 4.33333,-8.91667 4.625,-3.875 12.04167,-3.875 7.41667,0 11.91667,3.79166 4.5,3.79167 4.5,10.87501 v 22.16666 q 0,2.375 0.25,4.625 0.29166,2.25 0.91666,4.45834 z m -16.58333,-3.54167 q 5.75,0 9.95833,-2.70833 4.20833,-2.75 5.70833,-7.04167 v -8.625 h -11.125 q -6.08333,0 -10.04166,2.91667 -3.95834,2.875 -3.95834,6.95833 0,3.83333 2.5,6.16667 2.54167,2.33333 6.95834,2.33333 z"
           style="font-style:normal;font-variant:normal;font-weight:300;font-stretch:normal;font-size:85.33333588px;font-family:Roboto;-inkscape-font-specification:'Roboto Light';fill:#76a6bb;fill-opacity:1"
           id="path4494" />
        <path
           d="m 262.92448,559.75912 -3.54167,-0.25 q -4.70833,0 -7.75,2.66666 -3,2.625 -4.29166,7.25001 v 31.125 h -5 v -45.08334 h 4.375 l 0.625,7.5 v 0.5 q 1.95833,-4.16667 5.25,-6.5 3.29166,-2.33333 7.83333,-2.33333 0.91667,0 1.75,0.16666 0.83333,0.125 1.375,0.29167 z"
           style="font-style:normal;font-variant:normal;font-weight:300;font-stretch:normal;font-size:85.33333588px;font-family:Roboto;-inkscape-font-specification:'Roboto Light';fill:#76a6bb;fill-opacity:1"
           id="path4496" />
        <path
           d="m 300.04949,600.55079 q -0.45834,-2.375 -0.70834,-4.08334 -0.20833,-1.70833 -0.20833,-3.5 -2.33333,3.66667 -6.54167,6.08334 -4.20833,2.375 -9.66667,2.375 -6.625,0 -10.29166,-3.5 -3.625,-3.54167 -3.625,-9.58334 0,-6.04166 5.29166,-9.79166 5.29167,-3.75 13.75,-3.75 h 11.08334 v -5.58334 q 0,-4.83333 -3.08333,-7.58333 -3.04167,-2.75 -8.62501,-2.75 -5.125,0 -8.29166,2.5 -3.125,2.5 -3.125,6.29167 h -4.625 l -0.0833,-0.25 q -0.25,-5.08334 4.33334,-8.91667 4.625,-3.875 12.04166,-3.875 7.41667,0 11.91667,3.79166 4.5,3.79167 4.5,10.87501 v 22.16666 q 0,2.375 0.25,4.625 0.29167,2.25 0.91667,4.45834 z m -16.58334,-3.54167 q 5.75,0 9.95834,-2.70833 4.20833,-2.75 5.70833,-7.04167 v -8.625 h -11.125 q -6.08334,0 -10.04167,2.91667 -3.95833,2.875 -3.95833,6.95833 0,3.83333 2.5,6.16667 2.54166,2.33333 6.95833,2.33333 z"
           style="font-style:normal;font-variant:normal;font-weight:300;font-stretch:normal;font-size:85.33333588px;font-family:Roboto;-inkscape-font-specification:'Roboto Light';fill:#76a6bb;fill-opacity:1"
           id="path4498" />
        <path
           d="m 344.34115,589.00912 q 0,-3.16667 -2.625,-5.5 -2.58334,-2.375 -9.375,-3.875 -8,-1.66667 -11.91667,-4.54167 -3.875,-2.91666 -3.875,-8.125 0,-5.16667 4.33333,-8.75 4.375,-3.58333 11.54167,-3.58333 7.54167,0 12.04167,3.83333 4.5,3.79167 4.29166,9.375 l -0.0833,0.25 h -4.625 q 0,-3.70833 -3.20833,-6.45833 -3.16667,-2.75 -8.41667,-2.75 -5.41667,0 -8.16667,2.375 -2.75,2.375 -2.75,5.54167 0,3.08333 2.33334,5.125 2.375,2 9.41666,3.54166 7.91667,1.75 11.95834,4.875 4.08333,3.125 4.08333,8.41667 0,5.625 -4.58333,9.16667 -4.54167,3.5 -12.04167,3.5 -8.20833,0 -12.91667,-3.91667 -4.66666,-3.91667 -4.41666,-9.33333 l 0.0833,-0.25 h 4.58333 q 0.29167,4.875 3.95834,7.08333 3.70833,2.20833 8.70833,2.20833 5.41667,0 8.54167,-2.41666 3.125,-2.41667 3.125,-5.79167 z"
           style="font-style:normal;font-variant:normal;font-weight:300;font-stretch:normal;font-size:85.33333588px;font-family:Roboto;-inkscape-font-specification:'Roboto Light';fill:#76a6bb;fill-opacity:1"
           id="path4500" />
        <path
           d="m 366.42448,600.55079 h -4.95833 v -45.08334 h 4.95833 z m 0,-58.00001 h -4.95833 v -7 h 4.95833 z"
           style="font-style:normal;font-variant:normal;font-weight:300;font-stretch:normal;font-size:85.33333588px;font-family:Roboto;-inkscape-font-specification:'Roboto Light';fill:#76a6bb;fill-opacity:1"
           id="path4502" />
        <path
           d="m 387.96616,543.92578 v 11.54167 h 9.91666 v 4.08333 h -9.91666 v 29.37501 q 0,4.41666 1.58333,6.29166 1.625,1.83334 4.29167,1.83334 0.91666,0 1.75,-0.0833 0.875,-0.125 2.04166,-0.375 l 0.75,3.70834 q -1,0.5 -2.5,0.79166 -1.45833,0.33334 -2.91666,0.33334 -4.75,0 -7.41667,-3 -2.625,-3 -2.625,-9.5 v -29.37501 h -7.79167 v -4.08333 h 7.79167 v -11.54167 z"
           style="font-style:normal;font-variant:normal;font-weight:300;font-stretch:normal;font-size:85.33333588px;font-family:Roboto;-inkscape-font-specification:'Roboto Light';fill:#76a6bb;fill-opacity:1"
           id="path4504" />
        <path
           d="m 413.04949,548.00912 -3.04167,11.45833 h -3 l 1.04167,-11.08333 v -8.5 h 5 z"
           style="font-style:normal;font-variant:normal;font-weight:300;font-stretch:normal;font-size:85.33333588px;font-family:Roboto;-inkscape-font-specification:'Roboto Light';fill:#76a6bb;fill-opacity:1"
           id="path4506" />
        <path
           d="m 431.50781,596.34245 h 31.33334 v 4.20834 h -36.33334 v -60.66667 h 5 z"
           style="font-style:normal;font-variant:normal;font-weight:300;font-stretch:normal;font-size:85.33333588px;font-family:Roboto;-inkscape-font-specification:'Roboto Light';fill:#76a6bb;fill-opacity:1"
           id="path4508" />
        <path
           d="m 500.88281,600.55079 q -0.45833,-2.375 -0.70833,-4.08334 -0.20833,-1.70833 -0.20833,-3.5 -2.33334,3.66667 -6.54167,6.08334 -4.20833,2.375 -9.66667,2.375 -6.625,0 -10.29166,-3.5 -3.625,-3.54167 -3.625,-9.58334 0,-6.04166 5.29166,-9.79166 5.29167,-3.75 13.75,-3.75 h 11.08334 v -5.58334 q 0,-4.83333 -3.08334,-7.58333 -3.04166,-2.75 -8.625,-2.75 -5.125,0 -8.29166,2.5 -3.125,2.5 -3.125,6.29167 h -4.625 l -0.0833,-0.25 q -0.25,-5.08334 4.33334,-8.91667 4.625,-3.875 12.04166,-3.875 7.41667,0 11.91667,3.79166 4.5,3.79167 4.5,10.87501 v 22.16666 q 0,2.375 0.25,4.625 0.29167,2.25 0.91667,4.45834 z m -16.58333,-3.54167 q 5.75,0 9.95833,-2.70833 4.20834,-2.75 5.70834,-7.04167 v -8.625 h -11.125 q -6.08334,0 -10.04167,2.91667 -3.95833,2.875 -3.95833,6.95833 0,3.83333 2.5,6.16667 2.54166,2.33333 6.95833,2.33333 z"
           style="font-style:normal;font-variant:normal;font-weight:300;font-stretch:normal;font-size:85.33333588px;font-family:Roboto;-inkscape-font-specification:'Roboto Light';fill:#76a6bb;fill-opacity:1"
           id="path4510" />
        <path
           d="m 554.50782,579.25912 q 0,10.125 -4.58333,16.16667 -4.58333,6 -12.625,6 -4.91667,0 -8.54167,-1.95834 -3.58333,-2 -5.83333,-5.66666 l -0.83333,6.75 h -3.91667 v -65.00001 h 5 v 26.83334 q 2.25,-3.70834 5.75,-5.70834 3.5,-2.04166 8.29167,-2.04166 8.125,0 12.70833,6.5 4.58333,6.45833 4.58333,17.25 z m -5.04166,-0.875 q 0,-8.625 -3.33334,-14 -3.33333,-5.41667 -9.875,-5.41667 -5.16666,0 -8.33333,2.54167 -3.16667,2.5 -4.75,6.5 v 20.625 q 1.66667,3.91667 4.91667,6.20833 3.29166,2.25 8.25,2.25 6.54166,0 9.83333,-4.83333 3.29167,-4.83333 3.29167,-13 z"
           style="font-style:normal;font-variant:normal;font-weight:300;font-stretch:normal;font-size:85.33333588px;font-family:Roboto;-inkscape-font-specification:'Roboto Light';fill:#76a6bb;fill-opacity:1"
           id="path4512" />
      </g>
    </g>
  </g>
</svg>
