<?xml version="1.0" encoding="UTF-8" standalone="no"?>
<svg
   xmlns:dc="http://purl.org/dc/elements/1.1/"
   xmlns:cc="http://creativecommons.org/ns#"
   xmlns:rdf="http://www.w3.org/1999/02/22-rdf-syntax-ns#"
   xmlns:svg="http://www.w3.org/2000/svg"
   xmlns="http://www.w3.org/2000/svg"
   xmlns:sodipodi="http://sodipodi.sourceforge.net/DTD/sodipodi-0.dtd"
   xmlns:inkscape="http://www.inkscape.org/namespaces/inkscape"
   width="86.975"
   height="146.62"
   version="1.1"
   viewBox="0 0 23.012 38.792"
   id="svg20"
   sodipodi:docname="oeuf.svg"
   inkscape:version="0.92.4 (5da689c313, 2019-01-14)">
  <defs
     id="defs24" />
  <sodipodi:namedview
     pagecolor="#ffffff"
     bordercolor="#666666"
     borderopacity="1"
     objecttolerance="10"
     gridtolerance="10"
     guidetolerance="10"
     inkscape:pageopacity="0"
     inkscape:pageshadow="2"
     inkscape:window-width="888"
     inkscape:window-height="480"
     id="namedview22"
     showgrid="false"
     inkscape:zoom="1.6096031"
     inkscape:cx="43.487499"
     inkscape:cy="73.309998"
     inkscape:window-x="0"
     inkscape:window-y="27"
     inkscape:window-maximized="0"
     inkscape:current-layer="svg20" />
  <metadata
     id="metadata2">
    <rdf:RDF>
      <cc:Work
         rdf:about="">
        <dc:format>image/svg+xml</dc:format>
        <dc:type
           rdf:resource="http://purl.org/dc/dcmitype/StillImage" />
        <dc:title></dc:title>
      </cc:Work>
    </rdf:RDF>
  </metadata>
  <path
     d="m8.7272 37.755c-5.5067-1.6811-8.2231-8.1734-7.8655-18.798 0.19151-5.6902 1.2368-9.4827 3.6999-13.424 6.8279-10.926 17.66-1.7198 17.657 15.008-5.2e-4 3.2876-0.53875 7.5394-1.2225 9.6573-1.1836 3.6662-3.5776 6.5168-6.1786 7.3568-1.4384 0.46455-4.8572 0.57736-6.0901 0.20097zm5.8803-0.55008c3.3366-0.95484 6.0162-5.2626 6.7986-10.929 0.41808-3.0284 0.35739-9.268-0.11433-11.755-1.482-7.8122-5.5203-13.295-9.792-13.295-2.3342 0-4.2755 1.2625-6.2376 4.0564-3.0908 4.4011-4.5507 11.129-3.9502 18.204 0.69566 8.1955 3.1226 12.57 7.6798 13.844 1.5402 0.43042 3.8566 0.37919 5.6157-0.12421zm-6.5691-0.63016c-3.5987-1.6757-5.5942-5.802-6.2508-12.926-0.54585-5.9219 0.34006-11.455 2.5523-15.942 2.0603-4.1782 4.2376-6.062 7.0227-6.0762 1.871-0.01 3.1987 0.63583 4.8643 2.3644 3.3488 3.4753 5.5486 11.527 5.0621 18.528-0.71028 10.222-3.6732 14.667-9.7837 14.676-1.6778 3e-3 -2.3966-0.12712-3.4669-0.62551zm6.3156-0.0474c4.574-1.5585 6.7612-7.3811 6.4778-17.245-0.15074-5.2469-0.82557-8.3049-2.5746-11.667-2.015-3.873-4.2124-5.7277-6.743-5.6911-4.8432 0.07-8.7139 6.7174-9.5298 16.366-0.20703 2.4481 0.21803 7.6903 0.82596 10.186 0.9572 3.9303 3.2361 7.1514 5.6665 8.0095 1.5411 0.5441 4.3423 0.56335 5.8771 0.0404zm-4.5684-1.1064c-0.57814-0.31055-1.1248-0.91291-1.4552-1.6033-0.35864-0.74951-0.74233-1.1518-1.1906-1.2482-2.6208-0.564-4.0666-2.9374-3.1915-5.2392 0.1992-0.52394 0.13985-0.749-0.3011-1.1417-0.65157-0.58028-1.2699-1.9466-1.2699-2.8059 0-0.3377 0.23732-1.0795 0.52738-1.6484l0.52738-1.0344-0.55924-1.1552c-0.64836-1.3393-0.55131-2.6745 0.27572-3.7931 0.44379-0.60026 0.479-0.84296 0.23679-1.6322-0.41171-1.3415-0.05548-2.7777 0.9275-3.7393 0.60499-0.59185 0.85042-1.0866 0.88187-1.7776 0.08766-1.9262 1.6511-3.6693 3.2931-3.6717 0.37763-5.6e-4 0.91313-0.2513 1.19-0.55724 1.2146-1.3421 3.2738-1.7245 4.8625-0.90297 0.86872 0.44924 1.8572 1.8136 1.8588 2.5657 5.5e-4 0.24475 0.3489 0.69274 0.77413 0.99553 1.107 0.78823 1.7828 2.6804 1.4297 4.003-0.24426 0.91515-0.20902 1.0797 0.34224 1.5976 0.80916 0.76016 1.2552 2.1731 1.064 3.3709-0.0904 0.56658 8e-3 1.4338 0.23748 2.1002 0.41223 1.1954 0.31622 2.1052-0.34359 3.2558-0.35547 0.61986-0.34767 0.75713 0.0801 1.4099 0.71477 1.0909 0.61715 2.8192-0.2317 4.1019-0.45026 0.68039-0.70591 1.4272-0.70654 2.064-2e-3 1.7613-1.5771 3.5114-3.1609 3.5114-0.36935 0-0.54231 0.17203-0.54231 0.53941 0 0.29667-0.45427 1.0264-1.0095 1.6216-0.86404 0.9263-1.1976 1.0987-2.3151 1.1967-0.9437 0.0827-1.5623-0.0234-2.2316-0.38299z"
     fill="#202020"
     stroke-width=".26458"
     id="path4" />
  <path
     d="m8.5591 37.729c-2.3775-0.73056-4.8485-3.2866-6.032-6.2397-1.2587-3.1405-1.6066-5.5985-1.5874-11.214 0.01618-4.7172 0.0781-5.3861 0.72253-7.8052 0.87062-3.2682 2.7031-7.0462 4.2548-8.772 6.8351-7.6023 15.585 0.62335 16.229 15.256 0.32179 7.3146-1.1145 13.224-3.9661 16.318-1.7597 1.909-3.2895 2.5521-6.2779 2.6388-1.3824 0.0401-2.8868-0.0417-3.3431-0.18192zm6.5947-0.7328c4.4077-1.9497 6.5382-7.2468 6.5655-16.324 0.0191-6.3549-1.2283-11.249-3.8864-15.247-1.894-2.849-3.9522-4.1997-6.3995-4.1997-6.2228 0-11.171 10.841-10.155 22.247 0.73141 8.2087 3.1821 12.639 7.7004 13.922 1.6122 0.4576 4.6885 0.25906 6.1751-0.39854zm-6.1638-0.0195c-3.2634-1.0668-5.5999-4.3488-6.6117-9.2872-2.4004-11.716 1.4761-24.302 7.9901-25.943 5.0532-1.2724 9.9272 5.8605 10.799 15.804 0.6303 7.1898-0.93102 14.383-3.753 17.291-1.5924 1.6409-2.9119 2.1854-5.512 2.2747-1.2369 0.0425-2.5474-0.0204-2.9121-0.13957zm5.3639-0.44916c3.7751-1.2863 5.9738-5.6791 6.5317-13.05 0.62427-8.2474-1.4435-16.065-5.1954-19.643-1.4245-1.3584-2.6412-1.9148-4.1849-1.9138-5.5837 4e-3 -10.132 9.6938-9.5236 20.291 0.4591 7.9986 2.728 12.939 6.5667 14.3 1.4754 0.52279 4.2961 0.53082 5.8055 0.0165zm-4.5725-1.1358c-0.57858-0.31017-1.1569-0.95066-1.553-1.7198-0.522-1.0138-0.75854-1.2256-1.3688-1.2256-0.852 0-2.2083-1.0446-2.7722-2.135-0.44347-0.85757-0.49903-2.0348-0.14053-2.9776 0.20254-0.53271 0.13077-0.75828-0.39985-1.2568-1.2327-1.158-1.3987-3.2823-0.36975-4.7296 0.43912-0.61762 0.43804-0.67962-0.02315-1.3229-0.83473-1.1643-0.88515-2.3704-0.15875-3.7976 0.54678-1.0743 0.60486-1.4068 0.37597-2.1526-0.40556-1.3214-0.04111-2.6717 1.0029-3.7157 0.7015-0.7015 0.91332-1.1332 0.91332-1.8613 0-1.8729 1.6038-3.5676 3.3764-3.5676 0.46599 0 0.86374-0.16517 0.95207-0.39536 0.48108-1.2537 3.3751-1.865 4.9568-1.047 0.85347 0.44134 1.8246 1.8107 1.8263 2.5749 5.5e-4 0.25911 0.41623 0.8357 0.92376 1.2813 1.1563 1.0153 1.6474 2.4842 1.2304 3.6804-0.27049 0.77594-0.2275 0.93116 0.48163 1.7388 0.80286 0.9144 1.0695 1.8436 1.0549 3.6762-5e-3 0.58209 0.067 1.6725 0.15918 2.4232 0.12367 1.0072 0.051 1.6105-0.27722 2.3022-0.40788 0.85956-0.40987 0.98725-0.0239 1.5383 0.68678 0.98051 0.55839 3.1896-0.24055 4.1391-0.48301 0.57403-0.66193 1.097-0.6632 1.9385-3e-3 1.7849-1.5817 3.6597-3.0861 3.6642-0.41606 1e-3 -0.62008 0.2102-0.74046 0.75831-0.17139 0.78032-1.1596 1.8652-2.1736 2.3861-0.86087 0.44228-2.2233 0.35988-3.2627-0.19733zm3.3881-0.27433c1.0139-0.52057 2.0623-1.9422 1.7751-2.407-0.0898-0.14522-0.42527-0.26404-0.74559-0.26404s-0.89005-0.28528-1.2661-0.63394c-0.82624-0.76613-1.8311-0.74606-3.1474 0.0629-0.50932 0.313-1.0749 0.56954-1.2568 0.57009-0.89636 3e-3 0.19013 1.9608 1.46 2.6313 1.2533 0.66175 1.9537 0.67072 3.1807 0.0407zm-3.972-3.3475c0.75595-0.52949 0.74105-0.75639-0.07403-1.1278-1.402-0.6388-2.2217-3.377-1.4453-4.8278 0.24035-0.4491 0.18366-0.51165-0.46302-0.51078-1.5572 2e-3 -3.2505 1.7933-3.2505 3.4386 0 0.96851 0.83496 2.414 1.6986 2.9407 0.99068 0.60412 2.7346 0.64707 3.5342 0.0871zm7.9461-0.12408c0.93747-0.57155 1.6383-1.8963 1.6367-3.0936-2e-3 -1.6228-1.6986-3.2496-3.3887-3.2496-0.76208 0-0.76733 0.0105-0.50245 1.0028 0.41558 1.557 0.0589 2.7819-1.1201 3.8471-0.94242 0.85143-0.99165 0.96132-0.58783 1.3124 0.99235 0.86278 2.7149 0.9414 3.9624 0.18086zm-3.6399-1.7265c0.82389-0.78933 1.3743-2.2346 1.1359-2.9828-0.0777-0.2438-0.25938-0.76063-0.40382-1.1485l-0.26261-0.70522-0.91418 0.53939c-1.0999 0.64895-3.2462 0.55572-4.0549-0.17613-0.49419-0.44724-0.5254-0.42957-0.92336 0.52289-0.53058 1.2699-0.51943 1.9201 0.05114 2.9808 1.1001 2.0453 3.7499 2.5235 5.3719 0.96956zm6.0498-3.3912c0.96601-1.563 0.57263-3.8053-0.82868-4.7234-1.5724-1.0303-3.6477-0.77023-3.6477 0.45713 0 0.37208-0.1786 1.1039-0.39688 1.6264s-0.39615 0.96508-0.39526 0.98369c9e-4 0.0186 0.53454 0.0485 1.1859 0.0664 1.3685 0.0377 2.3826 0.61414 3.005 1.7082 0.24073 0.42316 0.45774 0.77013 0.48225 0.77105 0.0245 7.9e-4 0.29241-0.39933 0.59532-0.88945zm-14.438-0.81638c0.46811-0.35705 1.3377-0.72698 1.9323-0.82207l1.0812-0.17289-0.3874-0.77657c-0.24738-0.49589-0.35448-1.3224-0.29632-2.2868l0.09108-1.5102-0.89127-0.0853c-2.0295-0.19412-3.7389 1.3217-3.7389 3.3155 0 1.056 0.79514 2.9875 1.2299 2.9875 0.0706 0 0.51136-0.29213 0.97947-0.64917zm8.0014-0.53305c1.6611-1.0884 2.0381-3.3957 0.81647-4.9974-1.2462-1.6338-3.3466-1.869-4.9138-0.55024-1.4959 1.2587-1.7056 3.2254-0.50649 4.7498 1.115 1.4175 3.1262 1.766 4.6038 0.79785zm6.9831-5.7924c-2e-3 -0.60235-0.11502-1.2706-0.25065-1.4851-0.21019-0.33237-0.33655-0.30796-0.85584 0.16537-1.4127 1.2877-3.1714 1.5223-4.6505 0.62045-0.47646-0.29049-0.92294-0.52817-0.99219-0.52817-0.34825 0-0.0408 0.68852 0.66785 1.4956 0.43657 0.49722 0.79375 1.0104 0.79375 1.1403s0.63435 0.17079 1.4097 0.0908c1.009-0.10414 1.6294-0.0268 2.1828 0.27216 0.72869 0.39363 0.79978 0.38619 1.2362-0.12929 0.28043-0.33126 0.46142-0.97881 0.45897-1.6421zm-13.906 0.31721c1.2018-0.0241 1.2325-0.0451 1.0801-0.73879-0.08625-0.39267-0.0413-1.0178 0.09987-1.3891 0.24805-0.65241 0.21669-0.67964-0.93159-0.80907-0.74487-0.084-1.4356-0.36624-1.8509-0.75648l-0.66267-0.62255-0.5056 0.65805c-0.6216 0.80903-0.67686 2.6248-0.11306 3.7151 0.38552 0.74551 0.43317 0.76292 1.0256 0.37473 0.34173-0.22391 1.1779-0.41828 1.8582-0.43193zm5.0636-1.1478c1.5579 0 1.7024-0.0476 1.7024-0.56069 0-0.43607-0.20639-0.59419-0.92856-0.71138-0.51071-0.0829-1.2723-0.39544-1.6924-0.69459-0.69231-0.49297-0.8321-0.50851-1.4925-0.16589-0.40075 0.20791-0.82797 0.53467-0.94938 0.72612-0.26182 0.41289-0.29789 1.8447-0.06196 2.4595 0.14268 0.37181 0.27949 0.32699 0.94342-0.30909 0.68683-0.65803 0.97319-0.74397 2.479-0.74397zm6.2967 0.0321c1.0863-0.45388 1.9548-1.5303 2.1729-2.6932 0.30483-1.6249-1.0766-3.5454-2.8536-3.9674-0.70171-0.16662-0.71138-0.15209-0.4667 0.70107 0.47586 1.6592-0.49438 3.5082-2.3395 4.4584-0.52187 0.26874-0.561 0.3773-0.26469 0.73432 0.40655 0.48987 1.73 1.1064 2.4069 1.1213 0.25933 6e-3 0.86442-0.15381 1.3446-0.35446zm-3.2714-2.0287c0.94032-0.4826 1.6532-1.581 1.785-2.7503 0.28913-2.5652-2.0705-4.4253-4.5219-3.5648-0.85758 0.30104-1.0792 0.50109-1.0073 0.90927 0.34474 1.9572 0.32148 2.7892-0.10298 3.6837-0.43845 0.92397-0.43677 0.97825 0.04155 1.3455 1.0656 0.81819 2.6414 0.97412 3.8057 0.37658zm-5.5292-0.5865c1.1914-0.79352 1.933-2.3146 1.7095-3.506-0.68294-3.6404-5.8225-3.8883-6.7814-0.32703-0.80873 3.0034 2.5296 5.5263 5.0719 3.833zm9.4458-5.5596c0.0998-1.5226-0.46684-2.6818-1.5964-3.2659-1.0891-0.56319-2.6468-0.5588-3.5148 0.01-0.63467 0.41586-1.7125 1.8847-1.7148 2.3368-5.56e-4 0.10914 0.5407 0.19844 1.2028 0.19844 1.3211 0 2.5371 0.51117 3.0884 1.2983 0.31624 0.45149 1.4652 0.81336 2.1902 0.68981 0.14552-0.0248 0.30062-0.59512 0.34467-1.2674zm-7.7768-0.1531c0.07686-0.12437-0.15078-0.49907-0.50587-0.83266-0.83731-0.78662-1.2867-2.18-1.0721-3.3241 0.19339-1.0309 0.04014-1.0926-1.3114-0.52784-1.0648 0.44489-1.9792 1.7958-1.9808 2.9263-0.0011 0.78277 0.01624 0.79256 1.2558 0.70771 1.0028-0.0686 1.4442 0.0471 2.183 0.57265 1.0379 0.73824 1.2307 0.80263 1.4314 0.4779zm1.6757-2.7443c0.81028-0.85435 2.1855-1.3616 3.2628-1.2035 0.91217 0.13388 0.96554-0.13853 0.25535-1.3033-1.0187-1.6707-3.183-2.1505-4.7964-1.0632-1.2185 0.82115-1.6078 1.657-1.4809 3.1794 0.0791 0.94869 0.29822 1.47 0.86778 2.0645l0.76196 0.79532 0.22256-0.87383c0.12241-0.48061 0.53048-1.1985 0.90683-1.5953z"
     fill="#b9b9b9"
     stroke-width=".26458"
     id="path6" />
  <path
     d="m8.0458 37.458c-2.6187-1.0075-4.6018-3.3333-5.7628-6.7588-1.1202-3.3049-1.3623-5.2155-1.3381-10.556 0.02069-4.5598 0.08802-5.2713 0.72435-7.654 0.8701-3.2581 2.6796-7.0028 4.2318-8.7573 7.383-8.3458 16.876 2.3426 16.221 18.263-0.35908 8.7287-2.7134 13.785-7.2 15.464-1.924 0.71985-5.0042 0.71947-6.8765-8e-4zm7.2203-0.50037c2.8986-1.2603 4.924-4.4327 5.8596-9.1774 1.7256-8.7515 0.27917-17.656-3.7318-22.975-1.7751-2.3539-3.3695-3.3752-5.5108-3.5301-3.1417-0.22725-5.9123 1.9796-8.0533 6.4144-2.2172 4.5927-3.0759 9.9446-2.5496 15.889 0.71064 8.0268 3.0619 12.332 7.5328 13.794 1.612 0.52688 4.7515 0.32507 6.4531-0.41481zm-6.066 0.0338c-0.24923-0.0989 0.78812-0.17984 2.3052-0.17984 1.5171 0 2.5545 0.0809 2.3052 0.17984-0.24924 0.0989-1.2866 0.17984-2.3052 0.17984s-2.056-0.0809-2.3052-0.17984zm-2.2286-1.0665c-1.345-0.9743-2.3427-2.172-3.171-3.8066-0.69686-1.3752-1.7036-4.9212-1.6655-5.8662 0.01227-0.30414 0.24833 0.44884 0.52458 1.6733 0.89372 3.9614 2.416 6.5402 4.7252 8.0046 0.64981 0.4121 1.057 0.74927 0.90479 0.74927-0.15218 0-0.7453-0.33947-1.3181-0.75437zm8.3836 0.23431c0.87877-0.46465 2.6028-2.1724 3.3656-3.3338 0.28777-0.43815 0.29284-0.41662 0.0352 0.14966-0.60345 1.3266-3.3 3.7383-4.1286 3.6925-0.11637-6e-3 0.21111-0.23519 0.72773-0.50836zm-5.5959-0.82299c-0.96352-0.57422-1.8257-1.7233-1.8257-2.4332 0-0.25342-0.37494-0.43765-1.0843-0.5328-2.2536-0.30227-3.87-3.1097-2.8682-4.9815 0.23042-0.43054 0.14188-0.68274-0.49392-1.4069-1.1299-1.2868-1.2928-2.5626-0.52525-4.1135 0.6181-1.249 0.6185-1.2562 0.10615-1.9424-0.69177-0.92656-0.6775-2.7528 0.03091-3.9534 0.46985-0.79635 0.50601-1.0707 0.26172-1.986-0.23175-0.86827-0.19774-1.2864 0.18646-2.2924 0.25845-0.67675 0.75584-1.4178 1.1053-1.6468 0.49624-0.32515 0.63538-0.64906 0.63538-1.4791 0-1.9185 1.6629-3.6388 3.5174-3.6388 0.36262 0 0.72758-0.17791 0.81102-0.39536 0.50436-1.3143 3.5919-1.9006 5.0269-0.95457 0.8851 0.58353 1.753 1.8108 1.7554 2.4825 9.5e-4 0.25911 0.4168 0.83553 0.9241 1.2809 1.1188 0.98236 1.5589 2.3614 1.1853 3.7145-0.2398 0.86849-0.19366 1.026 0.5261 1.7966 0.81226 0.86953 1.0706 1.7466 1.056 3.5848-5e-3 0.58209 0.0678 1.6838 0.16088 2.4483 0.13569 1.1142 0.0667 1.5639-0.34789 2.2665-0.50473 0.85545-0.50534 0.89116-0.0256 1.4836 0.76746 0.94778 0.67652 3.1985-0.16988 4.2044-0.43299 0.51458-0.66146 1.1097-0.66146 1.7229 0 0.51523-0.10507 1.2124-0.23348 1.5493-0.36244 0.95087-1.592 2.038-2.5082 2.2177-0.63876 0.1253-0.95229 0.41346-1.3594 1.2494-0.67601 1.3881-1.6245 2.0692-3.0786 2.2107-0.8551 0.0832-1.4018-0.0349-2.1071-0.45527zm3.3364-0.0962c0.8481-0.35436 1.9784-1.7433 1.9807-2.4339 5.5e-4 -0.16571-0.39938-0.37639-0.88873-0.4682-0.48934-0.0918-1.1031-0.4027-1.3639-0.6909-0.67938-0.7507-2.1063-0.68715-3.0863 0.13747-0.43236 0.3638-0.95556 0.66146-1.1627 0.66146-1.0722 0 0.16218 2.1793 1.5854 2.7989 1.0644 0.46343 1.8178 0.46218 2.9356-5e-3zm-3.826-3.4623c0.42934-0.22201 0.78061-0.45043 0.78061-0.50758 0-0.0572-0.40404-0.35364-0.89787-0.65884-1.4981-0.92588-2.2345-3.3764-1.4533-4.8362 0.28233-0.52753 0.24622-0.54415-0.8599-0.39582-2.9788 0.39947-3.84 4.4939-1.3045 6.2026 1.0457 0.70471 2.5939 0.7859 3.7349 0.19585zm7.6518 0.0652c0.93865-0.47496 1.86-1.9715 1.86-3.0211 0-1.9159-1.4758-3.5196-3.239-3.5196-0.89277 0-1.024 0.0697-0.87184 0.46302 0.68591 1.773 0.31263 3.3334-1.0925 4.5672-0.51572 0.45281-0.8954 0.85542-0.84374 0.89471 1.3386 1.0178 2.93 1.2519 4.187 0.6158zm-3.8115-1.5241c0.56559-0.34955 1.0302-0.95065 1.3187-1.706 0.44141-1.1558 0.42105-1.3895-0.26902-3.087-0.13567-0.33373 0.0121-0.47967 0.62134-0.61347 1.1264-0.2474 3.0523 0.65234 3.7095 1.733l0.51689 0.84995 0.54752-0.8981c1.5982-2.6216-0.56911-5.973-3.5064-5.4219-0.8452 0.15856-0.91249 0.24811-1.0406 1.3847-0.16339 1.4496-0.83134 2.443-2.066 3.0726-1.1925 0.60807-2.5563 0.58521-3.6156-0.0606l-0.85626-0.52207-0.40051 0.7745c-1.6129 3.1191 2.0218 6.36 5.0405 4.4944zm-8.1602-4.4865c0.75896-0.597 2.5986-1.165 2.9899-0.92317 0.366 0.2262 0.3219-0.0397-0.16169-0.97485-0.28088-0.54316-0.39052-1.3063-0.33073-2.302l0.08944-1.4895-1.2322-0.0796c-1.0631-0.0687-1.3618 0.0341-2.1764 0.74937-1.516 1.3311-1.724 3.1474-0.56323 4.919 0.49941 0.7622 0.54023 0.76517 1.3849 0.10073zm7.3983-0.2831c2.5186-0.95426 3.1398-4.2136 1.1262-5.908-2.2182-1.8665-5.4287-0.56606-5.7251 2.319-0.14309 1.3926 0.56327 2.7308 1.7882 3.3877 1.0301 0.55245 1.7481 0.60386 2.8107 0.20126zm7.4492-4.625c0.35132-0.77107 0.40295-2.7341 0.0851-3.235-0.16219-0.25557-0.337-0.19881-0.72355 0.23496-1.1652 1.3074-3.0735 1.6146-4.743 0.76348-1.2354-0.62983-1.1906-0.6238-1.1906-0.16027 0 0.20289 0.35718 0.75126 0.79374 1.2186 0.43657 0.46734 0.79375 1.0199 0.79375 1.2279 0 0.29193 0.11675 0.31573 0.51178 0.10431 0.71663-0.38353 2.1434-0.33434 2.9278 0.10094 0.96411 0.53497 1.2031 0.49554 1.545-0.25499zm-13.434-1.1782c1.0492 0 1.0959-0.0337 0.96858-0.69958-0.07355-0.38477-0.03621-1.0396 0.08298-1.4552 0.20705-0.72194 0.17789-0.75563-0.65394-0.75563-0.4959 0-1.2967-0.28909-1.8604-0.67165-1.145-0.77698-1.5724-0.60253-1.9596 0.7997-0.2773 1.0043-0.11381 2.1381 0.42886 2.9741 0.35776 0.55118 0.43007 0.5638 1.1366 0.19843 0.41501-0.21461 1.2506-0.39019 1.8569-0.39019zm3.8516-1.2225c0.35946-0.0902 1.1242-0.0888 1.6994 3e-3 1.0327 0.16514 1.1484 0.0706 1.0169-0.8312-0.01591-0.10914-0.5271-0.3437-1.136-0.52124-0.60888-0.17755-1.34-0.54612-1.6247-0.81906-0.47407-0.45446-0.57337-0.46226-1.1791-0.0926-0.3638 0.22202-0.81029 0.58359-0.99219 0.80348-0.34133 0.41263-0.46132 2.4611-0.16172 2.7607 0.09296 0.093 0.51885-0.12536 0.94643-0.48514 0.42758-0.35979 1.0715-0.72798 1.431-0.81819zm7.9289-0.22428c1.5344-1.0054 2.0851-3.1355 1.1826-4.5749-0.5627-0.89749-1.9759-1.9136-2.6622-1.9141-0.31168-2.3e-4 -0.39688 0.36509-0.39688 1.7018 0 1.5273-0.0808 1.7864-0.78642 2.5226-0.43253 0.45126-1.0576 0.88855-1.3891 0.97173-0.72492 0.18195-0.7556 0.40262-0.13418 0.965 1.1383 1.0301 2.9033 1.1684 4.186 0.32793zm-4.1358-1.6226c3.4401-1.3764 2.3964-6.7202-1.3125-6.7202-1.2046 0-2.4694 0.71934-2.2412 1.2747 0.48761 1.1863 0.4489 2.6813-0.09323 3.6002l-0.54848 0.9296 0.71384 0.50649c0.66937 0.47493 1.3376 0.73047 2.0975 0.80216 0.17896 0.0169 0.80175-0.15991 1.384-0.39288zm-5.3742-0.53888c1.0237-0.48578 1.945-2.0116 1.945-3.2212 0-1.8191-2.3028-3.7118-4.1048-3.3737-1.8737 0.3515-3.2917 2.365-2.9051 4.125 0.20565 0.93632 1.3069 2.3286 2.0935 2.6468 0.87986 0.35594 1.9874 0.28999 2.9714-0.17694zm9.6633-5.268c0.4671-1.7466-0.67581-3.6021-2.5348-4.1154-1.6814-0.46425-3.7409 0.672-4.2455 2.3422-0.1687 0.55842-0.1028 0.59531 1.0635 0.59531 1.2808 0 2.8398 0.72167 3.1165 1.4427 0.12527 0.32643 1.425 0.65751 2.1437 0.54603 0.13759-0.0213 0.34306-0.3862 0.45662-0.8108zm-7.8743-0.61027c0.07686-0.12437-0.15557-0.50357-0.51652-0.84267-0.7991-0.75071-1.2413-2.26-1.0064-3.4346l0.17418-0.87092-0.90124 0.17292c-1.3237 0.25397-2.621 1.7462-2.621 3.0147v0.99607h1.4358c1.0749 0 1.6236 0.14595 2.1828 0.58062 0.83335 0.64772 1.0486 0.71369 1.2524 0.38389zm1.7599-2.834c0.74309-0.79098 2.1792-1.2765 3.1823-1.0759 0.95634 0.19127 1.002-0.20405 0.16681-1.4434-0.76064-1.1287-1.5992-1.5555-3.0659-1.5604-0.99212-3e-3 -1.3009 0.14143-2.1828 1.0233-0.91343 0.91343-1.0272 1.1707-1.0272 2.3224 0 1.2737 0.43856 2.2529 1.3016 2.9062 0.33032 0.25006 0.45503 0.14218 0.71719-0.6204 0.17454-0.5077 0.58313-1.206 0.90797-1.5518zm6.8734 24.722c-6e-3 -0.0914 0.18315-0.62715 0.41995-1.1906 0.23679-0.56347 0.64513-2.0365 0.90742-3.2734 0.26229-1.2369 0.48527-1.9406 0.4955-1.5637 0.0249 0.91482-0.91213 4.534-1.4129 5.4574-0.21966 0.40505-0.40414 0.6617-0.40997 0.57033zm-17.129-7.9037c0-0.80036 0.0496-1.1278 0.11022-0.7276 0.06062 0.40018 0.06062 1.055 0 1.4552-0.06062 0.40018-0.11022 0.0728-0.11022-0.72761zm19.053-0.66146c1e-3 -0.87312 0.0509-1.1984 0.10976-0.72286 0.0589 0.47555 0.0577 1.1899-3e-3 1.5875-0.0604 0.39758-0.10855 8e-3 -0.10706-0.86464zm-19.306-3.4396c9.53e-4 -1.1642 0.04748-1.6075 0.10337-0.98519 0.05589 0.62231 0.05511 1.5748-0.0017 2.1167-0.05685 0.54186-0.10258 0.0327-0.10162-1.1315zm19.509-0.0221c0.0127-0.30822 0.0754-0.37092 0.15986-0.15985 0.0764 0.191 0.067 0.4192-0.0209 0.50712-0.0879 0.0879-0.15046-0.0684-0.13897-0.34727zm-0.20979-2.8884c2e-3 -0.7276 0.0534-0.99385 0.11418-0.59167 0.0608 0.40218 0.0592 0.9975-4e-3 1.3229-0.0628 0.32542-0.11256-4e-3 -0.11057-0.73125zm-18.98-1.0583c0.06592-1.0186 0.2363-2.2093 0.37863-2.6458 0.27466-0.84249 0.2555-0.63771-0.28483 3.0427-0.20129 1.3711-0.20671 1.3482-0.09379-0.39688zm18.544-1.6236c-0.0936-0.68255-0.11912-1.292-0.0568-1.3543 0.0623-0.0623 0.19612 0.43889 0.29733 1.1138 0.1012 0.6749 0.12676 1.2844 0.0568 1.3543-0.07 0.07-0.20377-0.43123-0.29732-1.1138zm-0.41207-2.1026c0.0127-0.30823 0.0754-0.37092 0.15985-0.15986 0.0764 0.191 0.067 0.4192-0.0209 0.50712-0.0879 0.0879-0.15045-0.0684-0.13896-0.34726zm-17.462-0.26459c0.01269-0.30822 0.07539-0.37092 0.15985-0.15985 0.07643 0.191 0.06703 0.4192-0.02089 0.50712-0.08792 0.0879-0.15045-0.0684-0.13896-0.34727zm16.943-1.461c-0.61593-2.1043-2.1104-4.9006-3.3644-6.2954-1.3746-1.5289-2.2605-2.0737-4.2071-2.5874l-1.3229-0.34911 1.1488 0.13897c3.0486 0.36882 5.8417 3.2797 7.5811 7.9011 0.37625 0.99959 0.64378 1.9383 0.59453 2.0861-0.0493 0.14776-0.24271-0.25462-0.42992-0.89416zm-16.668 0.55697c-0.0045-0.21828 0.15536-0.75406 0.35526-1.1906 0.46789-1.0218 0.47476-0.54654 0.0096 0.66146-0.19614 0.50933-0.3603 0.74745-0.36481 0.52917zm0.76992-2.2103c-0.0045-0.12424 0.41635-1.0339 0.9353-2.0214 0.96405-1.8346 2.7472-3.926 3.8511-4.5167 0.3389-0.18138-0.11126 0.34371-1.0004 1.1669-1.1063 1.0242-1.9577 2.1438-2.6972 3.5469-0.59434 1.1277-1.0843 1.9486-1.0889 1.8244zm5.8126-7.0502c0.21828-0.14106 0.57547-0.24993 0.79375-0.24193 0.26169 0.01 0.21662 0.092-0.13229 0.24193-0.72736 0.31256-1.1451 0.31256-0.66146 0z"
     fill="#a3a3a3"
     stroke-width=".26458"
     id="path8" />
  <path
     d="m8.3048 37.519c-3.7675-1.3023-6.1548-5.197-7.1231-11.621-1.3097-8.6886 0.77751-17.984 5.0323-22.412 5.7904-6.0264 12.894-1.1934 15.394 10.473 0.56478 2.6357 0.63241 10.17 0.11606 12.931-1.1128 5.9492-3.5991 9.6289-7.2358 10.709-1.7958 0.5333-4.5114 0.49828-6.1835-0.0797zm6.9612-0.56121c3.6966-1.6073 5.7605-5.7866 6.4331-13.027 1.0957-11.793-3.7707-22.693-10.137-22.703-3.0613-5e-3 -5.6452 2.1517-7.7417 6.4617-2.2325 4.5895-3.0829 9.8524-2.558 15.83 0.71817 8.1777 3.0008 12.366 7.55 13.853 1.612 0.52688 4.7515 0.32507 6.4531-0.41481zm-4.7459 0.0568c0.62231-0.0559 1.5748-0.0551 2.1167 2e-3 0.54186 0.0568 0.03269 0.10258-1.1315 0.10162-1.1642-1e-3 -1.6075-0.0475-0.98519-0.10337zm-2.9991-0.74656c-0.48427-0.38798-0.47583-0.39349 0.14787-0.0965 0.8099 0.38571 0.96 0.50792 0.62383 0.50792-0.14196 0-0.48923-0.18516-0.7717-0.41147zm7.0491 0.31502c0.0606-0.0531 0.4079-0.23821 0.7717-0.41147 0.6237-0.29704 0.63214-0.29153 0.14787 0.0965-0.42148 0.33767-1.2827 0.63269-0.91957 0.31502zm-8.9654-1.8616c-0.59028-0.64038-1.3198-1.6477-1.6212-2.2384-0.84153-1.6495-0.64059-1.6777 0.26277-0.0368 0.44063 0.80036 1.2365 1.9017 1.7687 2.4474 0.53215 0.54571 0.89902 0.99219 0.81526 0.99219s-0.63525-0.52394-1.2255-1.1643zm5.5699 0.98193c0.25466-0.0665 0.67138-0.0665 0.92604 0 0.25466 0.0666 0.0463 0.12101-0.46302 0.12101-0.50932 0-0.71768-0.0545-0.46302-0.12101zm5.887-0.87594c0.56839-0.58209 1.093-1.0583 1.1657-1.0583 0.0728 0-0.33275 0.47625-0.90114 1.0583-0.56839 0.58208-1.093 1.0583-1.1657 1.0583-0.0728 0 0.33275-0.47625 0.90114-1.0583zm-8.1009-0.23346c-0.56496-0.56496-1.0272-1.2793-1.0272-1.5875 0-0.43386-0.16419-0.56121-0.7276-0.56434-0.40018-2e-3 -0.88651-0.10479-1.0807-0.2279-0.20695-0.13119 0.18562-0.17208 0.94837-0.0988 0.8949 0.086 1.5632-0.0102 2.1391-0.30806 0.86698-0.44834 1.1139-0.9487 0.4681-0.9487-0.50242 0-1.9647-1.7048-2.1725-2.5328-0.14914-0.59422-0.08031-1.5328 0.20209-2.756 0.06804-0.29472-0.109-0.37263-0.70279-0.30923-1.0502 0.11212-1.8901 0.67602-2.5467 1.7098-0.31923 0.50262-0.47406 0.62373-0.38178 0.29863 0.107-0.37694-0.05107-0.74068-0.50868-1.1706-0.36516-0.34305-0.66392-0.73809-0.66392-0.87787 0-0.13977 0.24677 0.0596 0.54837 0.443 0.5146 0.6542 1.3037 0.95055 1.3037 0.4896 0-0.39883 1.5704-1.1308 2.5011-1.1658 1.086-0.0408 1.0644 3e-3 0.51835-1.0529-0.28088-0.54316-0.39052-1.3063-0.33073-2.302l0.08944-1.4895-1.0583-0.0881c-1.4727-0.12257-2.741 0.61267-3.3431 1.9381-0.26495 0.58322-0.4839 0.8818-0.48655 0.66352-0.0027-0.21828 0.21701-0.76064 0.48814-1.2052 0.48097-0.78871 0.48094-0.82321-9.79e-4 -1.4184-0.27167-0.3355-0.48371-0.8647-0.4712-1.176 0.01844-0.45901 0.06499-0.42526 0.24623 0.17852 0.39555 1.3177 0.73036 1.5485 1.5966 1.1006 0.41469-0.21445 1.2251-0.3899 1.801-0.3899h1.047l0.09063-1.4556c0.08393-1.348 0.0479-1.4556-0.48746-1.4552-0.8228 5e-4 -1.9746-0.47682-2.6286-1.0894l-0.56086-0.5253-0.56341 1.1382c-0.30988 0.62602-0.5629 0.95963-0.56226 0.74135 6.35e-4 -0.21828 0.2834-0.86317 0.62838-1.4331 0.59075-0.97594 0.644-1.0049 0.91554-0.49751 0.358 0.66893 1.8551 1.4014 2.8643 1.4014 1.9993 0 3.6523-1.8821 3.4422-3.9191-0.35286-3.4202-4.7173-4.2824-6.5406-1.2921-0.28355 0.46504-0.51599 0.72319-0.51654 0.57366-0.0014-0.38171 0.80645-1.5134 1.3748-1.926 0.32301-0.23446 0.47632-0.68968 0.47632-1.4144 0-1.8458 1.2573-3.2953 3.1161-3.5922 0.54172-0.0865 1.141-0.37687 1.3317-0.64516 1.263-1.7765 4.588-1.6668 5.9989 0.19791 0.71087 0.93952 0.40911 0.85052-0.62605-0.18464-0.89978-0.89978-1.1804-1.0272-2.2621-1.0272-2.2521 0-3.662 1.3243-3.662 3.4396 0 1.1105 0.66508 2.5197 1.3663 2.895 0.42401 0.22692 0.5184 0.14722 0.65917-0.55666 0.18311-0.91554 1.809-2.6062 2.4973-2.5969 0.25014 3e-3 0.0692 0.19087-0.41406 0.42913-0.85576 0.42187-1.9206 1.8126-1.9191 2.5065 5.82e-4 0.26625 0.39219 0.36564 1.4406 0.36564 1.2506 0 1.5548 0.10887 2.3143 0.82836 0.50467 0.47805 1.2957 0.90301 1.8705 1.0049 0.87196 0.15455 1.0292 0.10081 1.2629-0.43148 0.25468-0.5803 0.26061-0.57605 0.13003 0.0933-0.1032 0.52897 0.0578 0.90968 0.65537 1.5493 0.4357 0.46642 0.79219 1.042 0.79219 1.279 0 0.23701-0.21756 0.0252-0.48347-0.47055-0.47876-0.8927-1.8935-1.8684-2.7092-1.8684-0.34778 0-0.403 0.2464-0.31129 1.3891 0.0912 1.1358-2e-3 1.5579-0.50991 2.3151-0.34176 0.50933-1.0044 1.1046-1.4725 1.3229-1.0167 0.47407-0.98141 0.72735 0.21508 1.5447 1.2865 0.87887 2.8751 0.68207 4.1033-0.50834 0.49687-0.48158 0.90862-1.0606 0.91501-1.2867 6e-3 -0.22612 0.18319 0.0651 0.39289 0.64721 0.52745 1.4641 0.4814 3.0206-0.11848 4.0044-0.38971 0.63911-0.43501 0.90831-0.19745 1.1733 0.16956 0.18913-0.0758 0.0343-0.54526-0.34397-0.99991-0.80578-2.1374-1.1088-3.2475-0.86497-0.63807 0.14015-0.79489 0.31293-0.79956 0.88092-3e-3 0.38862-0.23106 1.2027-0.50636 1.809l-0.50055 1.1024h1.1383c1.4284 0 2.5684 0.57819 3.244 1.6452l0.5237 0.82713 0.56687-0.72065c0.31177-0.39636 0.56686-0.60398 0.56686-0.46139s-0.23812 0.47476-0.52917 0.73815c-0.36323 0.32872-0.53043 0.81863-0.53321 1.5624-2e-3 0.59591-0.0915 1.2209-0.19844 1.3889-0.10691 0.168-0.19439-0.39526-0.19439-1.2517 0-1.3872-0.0891-1.6463-0.81703-2.3742-0.81537-0.81537-2.4476-1.3986-2.9848-1.0666-0.2009 0.12416-0.19616 0.46047 0.0162 1.1526 0.4228 1.3776-0.0696 2.8834-1.251 3.8261-0.50408 0.40221-0.91652 0.81753-0.91652 0.92293-1.5e-5 0.38841 1.5949 1 2.6988 1.035 0.62569 0.0198 0.89169 0.0848 0.59111 0.1443-0.33188 0.0657-0.67444 0.46208-0.87228 1.0092-0.32857 0.90863-1.6651 2.2509-2.2395 2.2491-0.17074-5.3e-4 0.07074-0.23341 0.53662-0.51747 0.78692-0.47981 1.6665-1.7354 1.6665-2.3788 0-0.15275-0.22151-0.27772-0.49225-0.27772-0.27073 0-0.93086-0.29766-1.467-0.66146-1.0768-0.73077-2.5623-0.87376-3.0443-0.29305-0.16816 0.20262-0.65899 0.51472-1.0907 0.69356-0.43174 0.17883-0.78498 0.52233-0.78498 0.76334 0 0.64052 0.73634 1.5869 1.6845 2.1651 0.45596 0.27803 0.66618 0.50595 0.46716 0.5065-0.19902 5.3e-4 -0.8241-0.46126-1.3891-1.0262zm4.1533-4.2342c0.85735-0.52281 1.6986-1.9705 1.6986-2.923 0-0.3101-0.1737-0.97956-0.38602-1.4877l-0.38601-0.92387-0.99913 0.5355c-1.2462 0.66791-2.3326 0.6794-3.5907 0.038-1.212-0.61791-1.5427-0.32857-1.7128 1.4985-0.20002 2.1485 1.2938 3.7506 3.5028 3.7566 0.58208 2e-3 1.425-0.22072 1.8733-0.49403zm-0.12645-5.1288c2.3415-1.5642 2.288-4.565-0.10754-6.0256-2.2606-1.3784-5.2092 0.35044-5.2092 3.0544 0 2.8016 3.0333 4.4967 5.3167 2.9713zm6.7131-4.1488c0.43228-0.83594 0.53647-2.8337 0.17731-3.3999-0.16546-0.26085-0.42506-0.15089-1.0732 0.45459-1.3873 1.2959-3.2336 1.3917-4.8358 0.25076l-0.74374-0.52959v0.65117c0 0.35814 0.17877 0.71977 0.39726 0.80361 0.2185 0.0838 0.59485 0.56677 0.83633 1.0732 0.36006 0.75505 0.52348 0.87554 0.90825 0.66962 0.94987-0.50835 1.8526-0.32766 3.8706 0.7748 0.0326 0.0178 0.241-0.31885 0.46302-0.74819zm-9.2665-2.5417c0.49366-0.0926 1.2641-0.0879 1.712 0.0105 0.48483 0.10648 0.81443 0.072 0.81443-0.0851 0-0.14518 0.06603-0.43604 0.14674-0.64635 0.1074-0.27987-0.13539-0.42751-0.90557-0.55066-0.57877-0.0925-1.3889-0.45024-1.8004-0.79487l-0.74808-0.62659-0.99219 0.6303c-0.92206 0.58575-0.99219 0.72041-0.99219 1.9053 0 0.70124 0.07605 1.351 0.16901 1.444 0.09296 0.093 0.51318-0.12058 0.93383-0.47454 0.42065-0.35395 1.1687-0.71932 1.6624-0.81194zm4.2784-2.147c2.0752-1.3597 1.8049-4.8848-0.46462-6.0584-0.61718-0.31916-1.2132-0.39828-2.1577-0.28642-1.1792 0.13966-1.3762 0.0833-2.0444-0.58491-0.92126-0.92126-1.3613-2.404-1.043-3.5141l0.2357-0.82184-0.98323 0.15629c-1.4043 0.22322-2.703 1.6785-2.703 3.029v1.0101l1.3891-0.014c1.0485-0.0106 1.6022 0.13799 2.2583 0.60602 0.49637 0.35404 1.0516 0.55007 1.2942 0.45696 0.33973-0.13036 0.36323-0.0887 0.11721 0.2077-0.21983 0.26488-0.23052 0.57375-0.03742 1.0816 0.40078 1.0541 0.33013 2.0346-0.22507 3.1236-0.45862 0.89955-0.46312 1.0008-0.0607 1.3649 1.1174 1.0112 3.0875 1.1196 4.4247 0.24352zm3.8043 16.582c0.15576-0.29104 0.34273-0.52916 0.41549-0.52916 0.0728 0 5e-3 0.23812-0.15091 0.52916-0.15576 0.29104-0.34273 0.52917-0.41549 0.52917-0.0728 0-5e-3 -0.23813 0.15091-0.52917zm-1.8287-0.85989c0.0614-0.0364 0.52769-0.42334 1.0363-0.8599l0.92472-0.79375-0.7771 0.8599c-0.42741 0.47294-0.89374 0.85989-1.0363 0.85989s-0.20897-0.0298-0.14761-0.0661zm-12.038-1.0125c-0.37674-0.44773-0.68136-0.95374-0.67693-1.1245 0.0044-0.17074 0.13975-0.0723 0.30072 0.21874 0.16097 0.29104 0.53529 0.79706 0.83182 1.1245s0.46945 0.59531 0.38426 0.59531c-0.08519 0-0.46313-0.36632-0.83987-0.81405zm14.669 0.41717c0-0.14552 0.11542-0.44317 0.25648-0.66145 0.14107-0.21829 0.25648-0.27782 0.25648-0.1323 0 0.14553-0.11541 0.44318-0.25648 0.66146-0.14106 0.21828-0.25648 0.27782-0.25648 0.13229zm-16.247-1.0686c-0.09074-0.23646-0.15743-0.56901-0.14821-0.73901 0.0092-0.17 0.13084-0.0239 0.27027 0.32463 0.13942 0.34855 0.20612 0.68111 0.14821 0.73902-0.05791 0.0579-0.17953-0.0882-0.27027-0.32464zm16.789-0.54098c0.0127-0.30823 0.0754-0.37092 0.15985-0.15986 0.0764 0.191 0.067 0.4192-0.0209 0.50712-0.0879 0.0879-0.15045-0.0684-0.13896-0.34726zm-16.099-1.1686c0-0.50932 0.05445-0.71768 0.121-0.46302s0.06655 0.67138 0 0.92604-0.121 0.0463-0.121-0.46302zm-1.3634-0.94809c0.0127-0.30823 0.07539-0.37092 0.15985-0.15985 0.07643 0.19099 0.06703 0.41919-0.02089 0.50712-0.08792 0.0879-0.15045-0.0684-0.13896-0.34727zm17.992 0c0.0127-0.30823 0.0754-0.37092 0.15986-0.15985 0.0764 0.19099 0.067 0.41919-0.0209 0.50712-0.0879 0.0879-0.15046-0.0684-0.13897-0.34727zm-18.235-1.4332c0-0.3638 0.06005-0.51263 0.13345-0.33073 0.0734 0.1819 0.0734 0.47956 0 0.66146s-0.13345 0.0331-0.13345-0.33073zm18.531-0.13229c5e-3 -0.43656 0.0647-0.58313 0.13177-0.3257 0.0671 0.25744 0.0627 0.61462-0.01 0.79375-0.0725 0.17913-0.12736-0.0315-0.12197-0.46805zm-0.50507-1.5875c2e-3 -0.72761 0.0534-0.99386 0.11418-0.59168 0.0608 0.40219 0.0592 0.9975-4e-3 1.3229-0.0628 0.32542-0.11256-4e-3 -0.11057-0.73124zm-18.265-0.26461c0.0029-0.58208 0.05712-0.78905 0.12041-0.45993 0.06329 0.32912 0.06088 0.80537-0.0053 1.0583-0.06622 0.25297-0.118-0.0163-0.11507-0.5984zm19.059-0.52916c2e-3 -0.72761 0.0534-0.99386 0.11418-0.59168 0.0608 0.40219 0.0592 0.9975-4e-3 1.3229-0.0628 0.32542-0.11256-4e-3 -0.11057-0.73124zm-18.311 0.50712c0.01269-0.30823 0.07539-0.37092 0.15985-0.15986 0.07643 0.191 0.06703 0.4192-0.02089 0.50712-0.08792 0.0879-0.15045-0.0684-0.13896-0.34726zm-0.99724-3.9467c0.0015-0.87312 0.05088-1.1984 0.10977-0.72286 0.05889 0.47555 0.05767 1.1899-0.0027 1.5875s-0.10855 8e-3 -0.10707-0.86464zm19.305-3.3073c0-0.65484 0.0516-0.92273 0.11467-0.59531 0.0631 0.32742 0.0631 0.8632 0 1.1906-0.0631 0.32742-0.11467 0.0595-0.11467-0.59532zm-19.055-0.39687c0.0029-0.58209 0.05712-0.78906 0.12041-0.45994 0.06329 0.32912 0.06088 0.80537-0.0053 1.0583-0.06622 0.25296-0.118-0.0163-0.11507-0.5984zm17.977-1.3229c5e-3 -0.43656 0.0647-0.58312 0.13177-0.32569 0.0671 0.25743 0.0627 0.61462-0.01 0.79375-0.0725 0.17913-0.12736-0.0315-0.12197-0.46806zm0.78394-0.39687c0-0.36381 0.0601-0.51263 0.13346-0.33073 0.0734 0.1819 0.0734 0.47955 0 0.66146-0.0734 0.1819-0.13346 0.0331-0.13346-0.33073zm-18.521-0.26459c0-0.3638 0.06005-0.51263 0.13345-0.33073 0.0734 0.1819 0.0734 0.47956 0 0.66146s-0.13345 0.0331-0.13345-0.33073zm18.235-1.2127c0.0127-0.30822 0.0754-0.37092 0.15986-0.15985 0.0764 0.19099 0.067 0.4192-0.0209 0.50712-0.0879 0.0879-0.15046-0.0684-0.13897-0.34727zm-17.992-0.26458c0.0127-0.30823 0.07539-0.37092 0.15985-0.15986 0.07643 0.191 0.06703 0.4192-0.02089 0.50712-0.08792 0.0879-0.15045-0.0683-0.13896-0.34726zm0.82444-0.24254c0.0054-0.43656 0.06469-0.58312 0.13177-0.32569 0.06708 0.25743 0.06267 0.61462-0.0098 0.79375-0.07248 0.17913-0.12736-0.0315-0.12197-0.46806zm16.903-0.55121c0.0127-0.30823 0.0754-0.37092 0.15985-0.15986 0.0764 0.191 0.067 0.4192-0.0209 0.50712-0.0879 0.0879-0.15045-0.0684-0.13896-0.34726zm-17.462-0.26459c0.01269-0.30822 0.07539-0.37092 0.15985-0.15985 0.07643 0.191 0.06703 0.4192-0.02089 0.50712-0.08792 0.0879-0.15045-0.0684-0.13896-0.34727zm17.198-0.79375c0.0127-0.30822 0.0754-0.37092 0.15985-0.15985 0.0764 0.191 0.067 0.4192-0.0209 0.50712-0.0879 0.0879-0.15045-0.0683-0.13896-0.34727zm-0.64966-1.8403c-0.25532-0.66535-0.18-0.83702 0.1319-0.30066 0.15443 0.26558 0.22505 0.5386 0.15693 0.60673-0.0681 0.0681-0.1981-0.0696-0.28883-0.30607zm-0.95873-0.51476c0-0.77627-1.4518-2.0352-2.787-2.4168-1.1-0.31434-1.155-0.35626-0.33753-0.2574 0.7553 0.0914 1.003 0.0176 1.0938-0.32573 0.10493-0.39701 0.12055-0.39827 0.148-0.012 0.0169 0.23754 0.50694 0.90814 1.089 1.4902 0.89755 0.89755 1.3894 1.9143 0.92604 1.9143-0.0728 0-0.13229-0.17672-0.13229-0.3927zm-14.552 0.0311c0-0.28666 1.3149-2.8134 1.4641-2.8134 0.07276 0-0.18169 0.62507-0.56545 1.3891-0.73806 1.4693-0.89867 1.7239-0.89867 1.4244zm14.437-1.9421c-0.14359-0.37708-0.1132-0.40747 0.14811-0.14811 0.18082 0.17948 0.26211 0.39297 0.18065 0.47443-0.0815 0.0815-0.2294-0.0654-0.32876-0.32632zm-0.93594-1.5212c-0.31086-0.50298-1.1838-1.4736-1.9398-2.1568s-1.1315-1.1142-0.83435-0.95772c0.65796 0.34658 2.842 2.6513 3.2696 3.4501 0.49165 0.91865 0.12716 0.67174-0.49542-0.33561zm-10.987-0.93755c0.26339-0.29105 0.53842-0.52917 0.61118-0.52917s-0.08321 0.23812-0.3466 0.52917c-0.26339 0.29104-0.53842 0.52916-0.61118 0.52916s0.08321-0.23812 0.3466-0.52916zm1.5875-1.5875c0.26339-0.29105 0.53842-0.52917 0.61118-0.52917s-0.08321 0.23812-0.3466 0.52917c-0.26339 0.29104-0.53842 0.52916-0.61118 0.52916s0.08321-0.23812 0.3466-0.52916zm5.0271-1.0583c-0.34892-0.14993-0.39398-0.23234-0.13229-0.24193 0.21828-8e-3 0.57547 0.10087 0.79375 0.24193 0.48365 0.31256 0.0659 0.31256-0.66146 0zm-2.8277-0.18074c0.191-0.0764 0.4192-0.067 0.50712 0.0209 0.08792 0.0879-0.06835 0.15045-0.34727 0.13897-0.30822-0.0127-0.37092-0.0754-0.15985-0.15986zm1.3229-0.26458c0.191-0.0764 0.4192-0.067 0.50712 0.0209 0.08792 0.0879-0.06835 0.15045-0.34726 0.13896-0.30822-0.0127-0.37092-0.0754-0.15985-0.15985z"
     fill="#8c8c8c"
     stroke-width=".26458"
     id="path10" />
  <path
     d="m8.5675 37.642c-4.7205-1.5434-7.2902-6.7842-7.6723-15.647-0.19416-4.5045 0.27232-8.0026 1.5742-11.805 2.0412-5.9618 5.2727-9.267 9.0603-9.267 3.0406 0 5.6972 2.2236 7.7898 6.5201 2.345 4.8147 3.2059 9.9603 2.6881 16.066-0.64 7.5467-2.612 11.79-6.3232 13.606-1.2083 0.59117-1.9205 0.74381-3.7609 0.80608-1.3907 0.0471-2.691-0.0607-3.3561-0.27818zm6.7971-0.66276c3.8752-1.8593 5.9966-6.6191 6.4641-14.504 0.32126-5.4181-0.60091-10.561-2.6482-14.768-2.0722-4.2586-4.7392-6.5201-7.6893-6.5201-1.9775 0-3.4916 0.77964-5.217 2.6864-3.5416 3.9136-5.5187 10.996-5.1271 18.366 0.46619 8.7743 2.9822 13.67 7.8447 15.266 1.2685 0.41615 5.0618 0.10314 6.3728-0.52588zm-5.3806 0.0538c0.1819-0.0734 0.47956-0.0734 0.66146 0s0.03307 0.13345-0.33073 0.13345c-0.3638 0-0.51263-0.0601-0.33073-0.13345zm2.3812 0c0.1819-0.0734 0.47956-0.0734 0.66146 0s0.03307 0.13345-0.33073 0.13345c-0.3638 0-0.51263-0.0601-0.33073-0.13345zm2.712-0.72251c0-0.0572 0.18478-0.17489 0.41062-0.26155 0.23545-0.0904 0.34166-0.046 0.24896 0.10398-0.15538 0.25141-0.65958 0.37186-0.65958 0.15757zm-9.4052-1.5497-1.0459-1.1245 1.1245 1.0459c1.0458 0.97266 1.2461 1.2031 1.0459 1.2031-0.04323 0-0.54924-0.50602-1.1245-1.1245zm5.5026 0.94209c0.25466-0.0665 0.67138-0.0665 0.92604 0 0.25466 0.0666 0.0463 0.12101-0.46302 0.12101-0.50932 0-0.71768-0.0545-0.46302-0.12101zm4.9609 0.0825c0-0.0549 0.20836-0.2633 0.46302-0.46302 0.41965-0.3291 0.429-0.31975 0.0999 0.0999-0.34565 0.44073-0.56292 0.58089-0.56292 0.36312zm-3.0427-0.47345c0.29104-0.16097 0.77303-0.48477 1.0711-0.71956 0.29805-0.23478 0.20688-0.0995-0.20261 0.30072-0.40949 0.40018-0.89147 0.72399-1.0711 0.71956-0.1796-4e-3 -0.08843-0.13975 0.20261-0.30072zm-4.2307-0.74681c-0.4168-0.43504-0.70696-0.83324-0.64481-0.88488 0.06215-0.0516 0.45215 0.30431 0.86667 0.79099 0.9359 1.0988 0.7972 1.1576-0.22185 0.0939zm8.5963-0.10265c0-0.0549 0.20836-0.2633 0.46302-0.46302 0.41964-0.32911 0.429-0.31975 0.0999 0.0999-0.34564 0.44073-0.56291 0.58089-0.56291 0.36313zm-2.4669-1.2892c0.11713-0.59581 0.0487-0.7276-0.37789-0.7276-0.28651 0-0.95955-0.29766-1.4956-0.66146-1.1387-0.77277-2.4136-0.85307-3.1507-0.19844-0.50737 0.45062-0.51154 0.44708-0.15563-0.13229 0.28372-0.46186 0.61008-0.59531 1.4558-0.59531 0.72839 0 1.4157-0.22097 2.0714-0.66598 0.53976-0.36629 0.90057-0.53523 0.8018-0.37543-0.0988 0.1598-0.54095 0.51032-0.98264 0.77893l-0.80308 0.48838 0.89809 0.54752c0.51293 0.3127 1.4087 0.56339 2.0887 0.58453 0.65485 0.0204 0.94378 0.0859 0.64207 0.14556-0.3017 0.0597-0.68058 0.43043-0.84196 0.82386l-0.2934 0.71533zm-8.4471-0.90283c0.1819-0.0734 0.47956-0.0734 0.66146 0s0.03307 0.13345-0.33073 0.13345c-0.3638 0-0.51263-0.06-0.33073-0.13345zm1.3229 0c0.1819-0.0734 0.47956-0.0734 0.66146 0s0.03307 0.13345-0.33073 0.13345c-0.3638 0-0.51263-0.06-0.33073-0.13345zm-3.2176-1.168c-0.37674-0.44773-0.68136-0.95374-0.67693-1.1245 0.0044-0.17074 0.13975-0.0723 0.30072 0.21874 0.16097 0.29104 0.53529 0.79706 0.83182 1.1245s0.46945 0.59531 0.38426 0.59531c-0.08519 0-0.46313-0.36632-0.83987-0.81405zm13.073 0.15259c0.34178-0.3638 0.68094-0.66146 0.7537-0.66146 0.0728 0-0.14734 0.29766-0.48912 0.66146-0.34177 0.3638-0.68093 0.66146-0.75369 0.66146-0.0728 0 0.14734-0.29766 0.48911-0.66146zm-9.1812-1.2567c-1.2162-1.3353-1.4435-2.6582-0.74414-4.3319 0.27695-0.66283 0.3161-1.0859 0.13229-1.4293-0.1436-0.26831-0.25632-0.58496-0.25049-0.70367 0.0058-0.1187 0.19135 0.11755 0.41227 0.52503 0.22092 0.40746 0.7817 0.97257 1.2462 1.2558s0.72217 0.51537 0.57265 0.51591c-0.14952 5.3e-4 -0.52371-0.17541-0.83154-0.39102-0.70158-0.49141-1.0977-0.10816-1.3229 1.2801-0.20147 1.2415 0.03346 2.0753 0.86228 3.0603 0.78963 0.93843 0.73115 1.1056-0.07655 0.21883zm10.286-1.216c-0.0613-1.5239-0.72014-2.572-2.022-3.2164-0.58682-0.29048-0.90241-0.52824-0.70131-0.52836 0.61721-2.6e-4 2.0288 1.0027 2.4078 1.7109 0.34666 0.64773 0.37802 0.65489 0.90944 0.20748 0.53849-0.45336 0.54078-0.45192 0.10581 0.0663-0.24453 0.2913-0.49162 1.0652-0.54909 1.7198l-0.10449 1.1901zm-15.066-0.0408c0-0.50932 0.05445-0.71768 0.121-0.46302s0.06655 0.67138 0 0.92604-0.121 0.0463-0.121-0.46302zm10.715-0.0212c0.0936-0.35777 0.2135-0.47771 0.27955-0.27955 0.0636 0.19089-0.0101 0.47286-0.16386 0.62661-0.19634 0.19634-0.23077 0.093-0.11569-0.34706zm5.9128-0.92688c0.0127-0.30823 0.0754-0.37092 0.15986-0.15985 0.0764 0.19099 0.067 0.41919-0.0209 0.50712-0.0879 0.0879-0.15046-0.0684-0.13897-0.34727zm-5.5354-0.37482c0-0.3638 0.0601-0.51263 0.13345-0.33073 0.0734 0.1819 0.0734 0.47956 0 0.66146s-0.13345 0.0331-0.13345-0.33073zm-12.721-0.94809c0.0127-0.30822 0.07539-0.37092 0.15985-0.15985 0.07643 0.19099 0.06703 0.4192-0.02089 0.50712-0.08792 0.0879-0.15045-0.0684-0.13896-0.34727zm1.5461-0.31649-0.62728-0.71979 0.64381 0.59182 0.64381 0.59183 0.73568-0.70483c0.40462-0.38765 0.77793-0.65398 0.82957-0.59183 0.05164 0.0622-0.28685 0.43691-0.75221 0.8328l-0.8461 0.71979zm16.996 0.20625c0-0.3638 0.0601-0.51263 0.13346-0.33073 0.0734 0.1819 0.0734 0.47956 0 0.66146s-0.13346 0.0331-0.13346-0.33073zm-6.3176-0.54715c-0.27673-0.73315-0.36559-0.78296-0.9179-0.51457-0.52216 0.25374-0.54875 0.24602-0.18198-0.0528 0.23624-0.19251 0.68228-0.76462 0.9912-1.2714 0.64806-1.0631 0.75664-0.87142 0.15998 0.2824-0.30944 0.59839-0.32488 0.78073-0.0661 0.78114 0.1861 2.6e-4 0.36242 0.35639 0.39302 0.79375 0.0699 0.99878 5e-3 0.99558-0.37817-0.0185zm-4.0209 0.18668c0.06063-0.0527 0.63984-0.16364 1.2871-0.24644 0.76136-0.0974 1.0416-0.065 0.79375 0.0918-0.35359 0.2237-2.3291 0.37047-2.0809 0.1546zm9.7884-0.58762c0.0127-0.30823 0.0754-0.37092 0.15985-0.15985 0.0764 0.19099 0.067 0.41919-0.0209 0.50712-0.0879 0.0879-0.15045-0.0684-0.13896-0.34727zm-13.564-0.29098c0.191-0.0764 0.4192-0.067 0.50712 0.0209 0.08792 0.0879-0.06835 0.15045-0.34726 0.13897-0.30822-0.0127-0.37092-0.0754-0.15985-0.15985zm-4.6613-0.74531c0.0054-0.43656 0.06469-0.58312 0.13177-0.32569 0.06708 0.25743 0.06267 0.61462-0.0098 0.79375-0.07248 0.17913-0.12736-0.0315-0.12197-0.46806zm19.065-0.52916c3e-3 -0.58209 0.0571-0.78906 0.12041-0.45994 0.0633 0.32912 0.0609 0.80537-5e-3 1.0583-0.0662 0.25296-0.118-0.0163-0.11507-0.5984zm-0.83958-0.022c0.0127-0.30823 0.0754-0.37092 0.15985-0.15986 0.0764 0.191 0.067 0.4192-0.0209 0.50712-0.0879 0.0879-0.15045-0.0684-0.13896-0.34726zm-12.654-1.5655c0.0029-0.58209 0.05712-0.78906 0.12041-0.45994 0.06329 0.32912 0.06088 0.80537-0.0053 1.0583-0.06622 0.25296-0.118-0.0163-0.11507-0.5984zm7.3803 0c-0.0432-0.84468-0.89737-2.4415-1.5684-2.9322-0.28683-0.20973-0.35594-0.53801-0.23771-1.1292 0.14598-0.72988 0.09354-0.83727-0.42201-0.86415-0.44908-0.0234-0.4787-0.0594-0.12488-0.15184 0.28529-0.0745 0.7945 0.21581 1.3229 0.75426 0.79961 0.8148 0.80871 0.84321 0.13149 0.41033-0.72438-0.46303-0.7276-0.46213-0.7276 0.20247 0 0.36716 0.11231 0.66756 0.24958 0.66756 0.13727 0 0.52423 0.45734 0.8599 1.0163 0.37624 0.62655 0.76251 0.97397 1.0072 0.9059 0.26729-0.0744 0.29669-0.0388 0.09 0.10903-0.16877 0.12069-0.35929 0.57624-0.42338 1.0123l-0.11652 0.79289zm4.5783 0.11084c-0.0972-0.15731-0.55074-0.51405-1.0078-0.79276-0.45707-0.2787-0.70869-0.50717-0.55917-0.50772s0.5386 0.18585 0.86463 0.41421c0.57498 0.40273 0.60834 0.38089 1.1114-0.72761 0.28524-0.62854 0.52079-0.9642 0.52344-0.74592 3e-3 0.21828-0.22276 0.77011-0.50092 1.2263-0.372 0.61007-0.42772 0.90744-0.21068 1.1245 0.16229 0.16229 0.21875 0.29507 0.12548 0.29507-0.0933 0-0.24914-0.12871-0.34637-0.28603zm-15.908-1.4756c0.09575-0.0958 0.0263-0.36364-0.15434-0.59531-0.29013-0.37209-0.27477-0.37915 0.13167-0.0605 0.41392 0.32449 0.41961 0.82991 0.0093 0.82991-0.08843 0-0.08243-0.0783 0.01332-0.17409zm4.207-0.22278c0.06261-0.45551-0.10096-0.54034-1.175-0.60944-0.68627-0.0442-1.5197 0.0517-1.8521 0.21303-0.57859 0.28082-0.58245 0.27579-0.09073-0.11816 0.28304-0.22677 1.0171-0.41147 1.6352-0.41147 0.95283 0 1.1389-0.0896 1.2363-0.59532 0.09831-0.51042 0.1198-0.49155 0.15069 0.1323 0.04211 0.8504 0.19449 0.89324 0.94124 0.26458 0.53666-0.45179 0.53967-0.45019 0.12402 0.0661-0.23429 0.29105-0.56468 0.7673-0.73419 1.0583l-0.30821 0.52916zm8.4733 0.21449c0.25466-0.0666 0.67138-0.0666 0.92604 0 0.25466 0.0665 0.0463 0.121-0.46302 0.121s-0.71768-0.0545-0.46302-0.121zm-14.597-0.76571c0.0127-0.30822 0.07539-0.37092 0.15985-0.15985 0.07643 0.191 0.06703 0.4192-0.02089 0.50712-0.08792 0.0879-0.15045-0.0684-0.13896-0.34727zm7.8184-1.1506c0.16428-0.17835 0.81912-0.37114 1.4552-0.42841l1.1565-0.10414-1.1285 0.24421c-0.6207 0.13431-1.2755 0.32709-1.4552 0.42841-0.24536 0.13836-0.25232 0.1035-0.02797-0.14007zm6.5194 0.0633c0.25743-0.0671 0.61462-0.0627 0.79375 0.01 0.17913 0.0725-0.0315 0.12736-0.46806 0.12197-0.43656-5e-3 -0.58312-0.0647-0.32569-0.13177zm4.183-0.50016c0.0127-0.30822 0.0754-0.37092 0.15985-0.15985 0.0764 0.191 0.067 0.4192-0.0209 0.50712-0.0879 0.0879-0.15045-0.0684-0.13896-0.34727zm-1.4076-0.6163c0.47166-0.47166 0.85756-1.0468 0.85756-1.2782 0-0.59434 0.1596-0.33668 0.3677 0.59361 0.13285 0.59393 0.1077 0.69384-0.0999 0.39688-0.24269-0.34714-0.31142-0.33926-0.54853 0.0629-0.14909 0.25288-0.53282 0.59986-0.85272 0.77107-0.41171 0.22033-0.33109 0.0607 0.27591-0.54628zm-11.256-0.34001c0.1148-0.63458 0.03809-0.72528-0.69143-0.81755-0.75611-0.0956-0.74224-0.1071 0.17667-0.14612 0.96032-0.0408 0.99077-0.0154 0.82268 0.68526-0.23212 0.96758-0.47179 1.1843-0.30791 0.27841zm13.498-0.47685c0-0.50932 0.0545-0.71768 0.121-0.46302 0.0666 0.25466 0.0666 0.67138 0 0.92604-0.0665 0.25467-0.121 0.0463-0.121-0.46302zm-19.06-0.39687c0.0054-0.43656 0.06469-0.58313 0.13177-0.3257 0.06708 0.25744 0.06267 0.61462-0.0098 0.79375-0.07248 0.17914-0.12736-0.0315-0.12197-0.46805zm0.74217 0.22696c0-0.14196 0.18516-0.48923 0.41147-0.7717 0.38798-0.48427 0.39349-0.47583 0.09645 0.14786-0.38571 0.8099-0.50792 0.96-0.50792 0.62384zm7.7525-0.46519c-0.66858-0.56257-0.81265-0.59279-1.2615-0.26458-0.27869 0.20378-0.63279 0.36575-0.78688 0.35992-0.15409-6e-3 0.05323-0.19134 0.4607-0.41226 0.40747-0.22092 0.97257-0.7817 1.2558-1.2462 0.28321-0.46448 0.51537-0.72217 0.51592-0.57265 5.56e-4 0.14952-0.17383 0.52144-0.38749 0.82649-0.34661 0.49486-0.3389 0.5995 0.07159 0.97098 0.25304 0.229 0.75527 0.53414 1.1161 0.6781 0.42616 0.17003 0.5009 0.26762 0.2133 0.27851-0.2435 9e-3 -0.78237-0.26902-1.1975-0.61833zm3.0954 0.53367c0-0.0558 0.23829-0.16375 0.52953-0.23991 0.29124-0.0762 0.46281-0.0305 0.38126 0.10143-0.14241 0.23043-0.91079 0.34726-0.91079 0.13848zm-8.3325-0.68929c-0.09269-0.14998 0.01351-0.19433 0.24897-0.10398 0.45837 0.17589 0.54223 0.36554 0.16165 0.36554-0.13693 0-0.32171-0.1177-0.41062-0.26156zm10.284-0.63526c0.46958-0.69557 0.70917-1.4245 0.73923-2.249 0.0439-1.2029 0.0459-1.2056 0.15029-0.19362 0.12142 1.1776-0.26906 2.2936-1.046 2.9895-0.41271 0.36967-0.37621 0.24207 0.15646-0.54696zm-11.209-0.0263c-0.17983-0.21668-0.43117-0.32956-0.55853-0.25084-0.12737 0.0787-0.16067-0.0417-0.07401-0.2675 0.20532-0.53505 0.22825-0.52725 0.73808 0.25084 0.47596 0.72642 0.41131 0.89027-0.10554 0.2675zm15.66-0.2675c5e-3 -0.43656 0.0647-0.58312 0.13177-0.32569 0.0671 0.25743 0.0627 0.61462-0.01 0.79375-0.0725 0.17913-0.12736-0.0315-0.12197-0.46806zm0.76306-0.28663c0.0127-0.30822 0.0754-0.37092 0.15985-0.15985 0.0764 0.19099 0.067 0.4192-0.0209 0.50712-0.0879 0.0879-0.15045-0.0684-0.13896-0.34727zm-18.521-0.52917c0.0127-0.30822 0.07539-0.37092 0.15985-0.15985 0.07643 0.191 0.06703 0.4192-0.02089 0.50712-0.08792 0.0879-0.15045-0.0684-0.13896-0.34727zm8.4854-1.3498c-0.05699-1.2114-0.45858-2.1192-1.2937-2.9244l-0.7303-0.70411 0.74898 0.46976c0.95337 0.59796 1.8985 0.36163 1.0186-0.2547-0.31505-0.22067-0.71126-0.663-0.88046-0.98296-0.18874-0.3569 0.02969-0.22383 0.56516 0.3443 0.81614 0.86591 0.88632 0.89168 1.0808 0.39688 0.18843-0.47952 0.20969-0.4835 0.22654-0.0424 0.01023 0.26771-0.22427 0.68443-0.52111 0.92604-0.47063 0.38307-0.50201 0.54694-0.24521 1.2805 0.16197 0.46268 0.24408 1.177 0.18247 1.5875-0.10983 0.73166-0.1128 0.72977-0.15167-0.0964zm9.7708 0.29146c0.0127-0.30822 0.0754-0.37092 0.15986-0.15985 0.0764 0.19099 0.067 0.4192-0.0209 0.50712-0.0879 0.0879-0.15046-0.0684-0.13897-0.34727zm-17.167-0.50712c0.0054-0.43656 0.06469-0.58312 0.13177-0.32569 0.06708 0.25743 0.06267 0.61462-0.0098 0.79375-0.07248 0.17913-0.12736-0.0315-0.12197-0.46806zm15.842 0.16678c-0.32385-0.6051-2.023-1.446-2.6232-1.2982-0.26485 0.0652-0.74667-0.26506-1.219-0.83559l-0.78102-0.94343 0.78102 0.69556c1.0349 0.92168 2.6204 1.2213 3.0156 0.56983 0.23949-0.39466 0.2608-0.35874 0.13058 0.22011-0.10789 0.4796-0.0332 0.73873 0.24364 0.84495 0.37894 0.14541 1.1288 1.2414 0.84936 1.2414-0.0728 0-0.25143-0.22261-0.39703-0.49468zm-14.27-3.12c0.23348-0.26751 0.4698-0.62348 0.52517-0.79104 0.07438-0.2251 0.17755-0.22091 0.39503 0.016 0.22217 0.24205 0.09337 0.43605-0.52517 0.79104-0.79402 0.45571-0.80631 0.45521-0.39503-0.016zm7.9019-0.0895-1.1906-0.1851 1.0583-0.0357c0.58208-0.0196 1.2369 0.0797 1.4552 0.22079 0.21829 0.14107 0.27782 0.24042 0.1323 0.2208-0.14552-0.0196-0.80037-0.11899-1.4552-0.2208zm-6.0142-0.71252c0.25743-0.0671 0.61462-0.0627 0.79375 0.01 0.17913 0.0725-0.03149 0.12736-0.46806 0.12197-0.43656-5e-3 -0.58312-0.0647-0.32569-0.13178zm11.57-0.17784c0-0.58952-1.085-1.7913-1.9619-2.1731-0.4489-0.19545-0.67609-0.36003-0.50486-0.36572 0.17123-6e-3 0.36578-0.21872 0.43233-0.47338 0.10263-0.39273 0.12566-0.39746 0.15169-0.0311 0.0169 0.23754 0.50694 0.90814 1.089 1.4902 0.89755 0.89755 1.3894 1.9143 0.92604 1.9143-0.0728 0-0.13229-0.16254-0.13229-0.3612zm-6.8711-0.30754c-0.01323-0.44713 0.77202-1.4235 1.3946-1.734 0.48414-0.24146 0.46441-0.18631-0.1176 0.32868-0.38464 0.34035-0.8275 0.85694-0.98414 1.148-0.15664 0.29105-0.28842 0.40684-0.29285 0.25731zm-6.0726-0.80852c0.0127-0.30822 0.07539-0.37092 0.15985-0.15985 0.07643 0.19099 0.06703 0.4192-0.02089 0.50712-0.08792 0.0879-0.15045-0.0684-0.13896-0.34727zm3.7042-0.26458c0.01269-0.30823 0.07539-0.37092 0.15985-0.15986 0.07643 0.191 0.06703 0.4192-0.02089 0.50712-0.08792 0.0879-0.15045-0.0684-0.13896-0.34726zm-4.2542-0.904c0.15576-0.29104 0.34273-0.52916 0.41549-0.52916s0.0048 0.23812-0.15091 0.52916c-0.15576 0.29104-0.34273 0.52917-0.41549 0.52917-0.07276 0-0.0048-0.23813 0.15091-0.52917zm0.79375 0.34108c0-0.15196 0.20836-0.43969 0.46302-0.63941 0.4283-0.33589 0.43391-0.32344 0.07487 0.16604-0.21348 0.29104-0.42184 0.57878-0.46302 0.63941-0.04118 0.0606-0.07487-0.0141-0.07487-0.16604zm8.9297-0.78089c0.1819-0.0734 0.47955-0.0734 0.66145 0s0.0331 0.13345-0.33073 0.13345c-0.3638 0-0.51263-0.06-0.33072-0.13345zm-5.3894-0.53756c0.08498-0.46285-0.03508-0.59852-0.59238-0.6694-0.59312-0.0754-0.55181-0.10933 0.27283-0.22388 0.81305-0.11294 0.93774-0.0684 0.76336 0.27252-0.11464 0.22413-0.28537 0.5861-0.37941 0.80438-0.09663 0.22431-0.12464 0.14447-0.0644-0.18362zm-3.2757-0.71002c0-0.0549 0.20836-0.2633 0.46302-0.46302 0.41964-0.32911 0.429-0.31975 0.0999 0.0999-0.34564 0.44073-0.56292 0.58089-0.56292 0.36313zm9.9094-1.2892-1.0459-1.1245 1.1245 1.0459c1.0458 0.97266 1.2461 1.2031 1.0459 1.2031-0.0432 0-0.54925-0.50602-1.1245-1.1245zm-1.2949-0.0746c-0.28248-0.21365-0.38635-0.38846-0.23084-0.38846 0.15552 0 0.43098 0.17859 0.61213 0.39687 0.41202 0.49645 0.2824 0.49359-0.38129-8e-3zm-3.4707-0.23655c0.28248-0.22907 0.75872-0.40626 1.0583-0.39375 0.43712 0.0182 0.40509 0.0649-0.16213 0.23616-0.38878 0.11737-0.86503 0.29456-1.0583 0.39375-0.1933 0.0992-0.12034-7e-3 0.16213-0.23616zm-3.2917-0.2518c0-0.0549 0.20836-0.26331 0.46302-0.46303 0.41964-0.3291 0.429-0.31974 0.09989 0.0999-0.34564 0.44073-0.56292 0.58089-0.56292 0.36313zm5.2255-0.0753c0.1819-0.0734 0.47956-0.0734 0.66145 0 0.18191 0.0734 0.0331 0.13345-0.33072 0.13345-0.3638 0-0.51263-0.06-0.33073-0.13345z"
     fill="#767676"
     stroke-width=".26458"
     id="path12" />
  <path
     d="m10.507 37.811c0.4697-0.0584 1.3031-0.0594 1.8521-2e-3 0.54895 0.0573 0.16465 0.1051-0.854 0.10627-1.0186 1e-3 -1.4678-0.0457-0.99809-0.10413zm-1.5651-0.25437c0.191-0.0764 0.4192-0.067 0.50712 0.0209 0.08792 0.0879-0.06835 0.15045-0.34726 0.13896-0.30822-0.0127-0.37092-0.0754-0.15985-0.15985zm4.5696 0.0857c0.0606-0.0523 0.46743-0.17497 0.90399-0.27262 0.57968-0.12966 0.68671-0.10512 0.39687 0.091-0.35728 0.24178-1.5664 0.41057-1.3009 0.1816zm-5.8429-0.43409c-0.21828-0.14107-0.27781-0.25648-0.13229-0.25648s0.44318 0.11541 0.66146 0.25648c0.21828 0.14106 0.27781 0.25648 0.13229 0.25648s-0.44318-0.11542-0.66146-0.25648zm8.9077-0.91592c0.76335-0.51407 1.739-1.5008 2.2238-2.249 0.89522-1.3816 1.2924-1.776 0.74273-0.73773-0.63488 1.1993-1.6741 2.3712-2.7734 3.1276-0.61955 0.42627-1.2225 0.77504-1.3398 0.77504s0.39865-0.41217 1.1467-0.91592zm-10.51-0.0162c-0.50121-0.36713-1.2486-1.1113-1.6609-1.6536-0.81541-1.0727-1.8559-2.9668-1.7099-3.1127 0.05003-0.05 0.43152 0.55949 0.84775 1.3545 0.41624 0.795 1.4052 2.0381 2.1978 2.7624 1.599 1.4614 1.6948 1.6526 0.32527 0.64945zm8.0845-1.7137c0.26339-0.29104 0.53842-0.52916 0.61118-0.52916 0.0728 0-0.0832 0.23812-0.3466 0.52916-0.26339 0.29104-0.53842 0.52917-0.61118 0.52917-0.0728 0 0.0832-0.23813 0.3466-0.52917zm-8.8973-0.19843c-0.32911-0.41965-0.31975-0.42901 0.0999-0.0999 0.25466 0.19972 0.46302 0.40808 0.46302 0.46302 0 0.21776-0.21727 0.0776-0.56292-0.36312zm2.8946-2.099c0.191-0.0764 0.4192-0.067 0.50712 0.0209 0.08792 0.0879-0.06835 0.15045-0.34726 0.13897-0.30822-0.0127-0.37092-0.0754-0.15985-0.15985zm6.0854 0c0.19099-0.0764 0.4192-0.067 0.50712 0.0209 0.0879 0.0879-0.0684 0.15045-0.34727 0.13897-0.30822-0.0127-0.37092-0.0754-0.15985-0.15985zm5.7521-0.21614c0.1079-0.29104 0.46994-1.4221 0.80453-2.5135s0.61472-1.7886 0.62252-1.5492c0.0191 0.58722-0.96943 3.6994-1.3325 4.1951-0.23456 0.32019-0.25283 0.29463-0.0945-0.13229zm-15.248-0.85989-0.64143-0.72761 0.7276 0.64143c0.40018 0.35279 0.7276 0.68022 0.7276 0.72761 0 0.2075-0.21426 0.0386-0.81378-0.64143zm5.0733 0.26458c0.20114-0.32742 0.5355-0.59531 0.74304-0.59531s0.32772 0.031 0.26708 0.069c-0.06063 0.0379-0.395 0.30582-0.74304 0.59531l-0.63279 0.52635zm3.0051 0.17989c-0.09624-0.15571-0.43069-0.38629-0.74322-0.51239-0.38773-0.15644-0.43418-0.2346-0.14622-0.24604 0.23211-9e-3 0.63751 0.22135 0.9009 0.51239s0.40793 0.52917 0.3212 0.52917c-0.08673 0-0.23642-0.12741-0.33266-0.28313zm-10.818-1.8555c-0.22818-0.76837-0.40639-1.5838-0.39602-1.812 0.01037-0.22825 0.23955 0.35793 0.50929 1.3026 0.26974 0.94469 0.44795 1.7601 0.39602 1.812-0.05193 0.0519-0.2811-0.53425-0.50929-1.3026zm6.4443 0.0881-0.64143-0.72761 0.7276 0.64144c0.40018 0.35279 0.7276 0.68021 0.7276 0.7276 0 0.20751-0.21426 0.0386-0.81378-0.64143zm5.1794 0.19844c0.26339-0.29105 0.53842-0.52917 0.61118-0.52917 0.0728 0-0.0832 0.23812-0.3466 0.52917-0.26339 0.29104-0.53842 0.52916-0.61118 0.52916-0.07276 0 0.08321-0.23812 0.3466-0.52916zm5.1803-1.7418c0.0127-0.30823 0.0754-0.37092 0.15986-0.15986 0.0764 0.191 0.067 0.4192-0.0209 0.50712-0.0879 0.0879-0.15046-0.0684-0.13897-0.34726zm-11.337-0.904c0-0.50932 0.05445-0.71768 0.121-0.46302s0.06655 0.67138 0 0.92604c-0.06655 0.25467-0.121 0.0463-0.121-0.46302zm11.157-0.0661c-0.10468-0.1819-0.0916-0.24118 0.0291-0.13172 0.12066 0.10946 0.46717-0.01 0.77002-0.26458 0.55019-0.46322 0.55023-0.46312 0.0466 0.13171-0.58811 0.69463-0.59667 0.69731-0.84569 0.26459zm-17.252-0.59532c0.0054-0.43656 0.06469-0.58312 0.13177-0.32569 0.06708 0.25743 0.06267 0.61462-0.0098 0.79375-0.07248 0.17913-0.12736-0.0315-0.12197-0.46806zm20.108 0c5e-3 -0.43656 0.0647-0.58312 0.13177-0.32569 0.0671 0.25743 0.0627 0.61462-0.01 0.79375-0.0725 0.17913-0.12736-0.0315-0.12197-0.46806zm-17.799-0.59531-0.64143-0.7276 0.68109 0.59773c0.3746 0.32875 0.78064 0.50735 0.90232 0.39688 0.12168-0.11048 0.13558-0.052 0.0309 0.12987-0.25052 0.43532-0.23289 0.44251-0.97287-0.39688zm7.235-0.2495c0.25743-0.0671 0.61462-0.0627 0.79375 0.01 0.17913 0.0725-0.03149 0.12736-0.46806 0.12197-0.43656-5e-3 -0.58312-0.0647-0.32569-0.13177zm-9.794-1.0073c0.0029-0.58208 0.05712-0.78905 0.12041-0.45993 0.06329 0.32911 0.06088 0.80536-0.0053 1.0583-0.06622 0.25296-0.118-0.0163-0.11507-0.5984zm6.8124 0.42927c0-0.16334 0.12609-0.29698 0.2802-0.29698 0.15411 0 0.19079-0.14883 0.0815-0.33073-0.13501-0.22472-0.05521-0.21434 0.24897 0.0324 0.24622 0.19972 0.44766 0.42792 0.44766 0.50712s-0.07834 0.0657-0.17409-0.0301c-0.09575-0.0957-0.33388-0.0415-0.52917 0.12059-0.26117 0.21676-0.35507 0.21615-0.35507-2e-3zm13.834-0.95844c2e-3 -0.7276 0.0534-0.99385 0.11418-0.59167 0.0608 0.40218 0.0592 0.9975-4e-3 1.3229-0.0628 0.32542-0.11256-4e-3 -0.11057-0.73125zm-7.879 0.66449c-0.0927-0.14998 0.0135-0.19433 0.24896-0.10398 0.45837 0.17589 0.54224 0.36554 0.16165 0.36554-0.13693 0-0.32171-0.1177-0.41061-0.26156zm-6.0982-1.079c-0.09592-0.15521-0.11766-0.33893-0.0483-0.40829 0.06936-0.0694 0.1966 0.0576 0.28277 0.28219 0.17891 0.46622 0.02642 0.54823-0.23447 0.1261zm-0.31927-1.7022c0.0029-0.58209 0.05712-0.78906 0.12041-0.45994 0.06329 0.32912 0.06088 0.80537-0.0053 1.0583-0.06622 0.25296-0.118-0.0163-0.11507-0.5984zm-6.5834-1.9844c0-1.528 0.04373-2.153 0.09718-1.3891s0.05345 2.0141 0 2.7781c-0.05345 0.76398-0.09718 0.1389-0.09718-1.3891zm18.138 1.6617c-0.35279-0.39578-0.45188-0.57541-0.22021-0.39918 0.23167 0.17624 0.49956 0.26193 0.59531 0.19044 0.0958-0.0715 0.1156-0.0517 0.0441 0.0441s3e-3 0.33388 0.16469 0.52917c0.55188 0.66498 0.0601 0.35798-0.58389-0.36452zm3.0212-1.5294c9.5e-4 -1.1642 0.0475-1.6075 0.10337-0.98519 0.0559 0.62231 0.0551 1.5748-2e-3 2.1167-0.0568 0.54185-0.10258 0.0327-0.10162-1.1315zm-7.3848 0.89689c-0.092-0.14885-0.0958-0.34209-8e-3 -0.42942 0.0873-0.0873 0.15878-0.0236 0.15878 0.14159 0 0.16521 0.1786 0.23185 0.39688 0.14808 0.21828-0.0838 0.39687-0.0928 0.39687-0.02 0 0.28268-0.78589 0.41567-0.94406 0.15975zm-11.141-0.40952c0.09575-0.0958 0.0263-0.36364-0.15434-0.59531-0.29013-0.37209-0.27477-0.37915 0.13167-0.0605 0.41392 0.32449 0.41961 0.82991 0.0093 0.82991-0.08843 0-0.08243-0.0783 0.01332-0.17409zm4.2188-0.33674c0.02116-0.28096 0.12763-0.45574 0.23658-0.38841 0.10896 0.0673 0.13103 0.29722 0.04906 0.51084-0.2067 0.53866-0.33142 0.4852-0.28564-0.12243zm8.5937 0.3356c0.1819-0.0734 0.47956-0.0734 0.66146 0s0.0331 0.13346-0.33073 0.13346c-0.3638 0-0.51263-0.0601-0.33073-0.13346zm-11.911-0.65135c0.17948-0.18082 0.39297-0.26211 0.47443-0.18065 0.08146 0.0815-0.06538 0.2294-0.32632 0.32876-0.37708 0.14359-0.40748 0.1132-0.14811-0.14811zm1.0793-0.41249c0.191-0.0764 0.4192-0.067 0.50712 0.0209 0.08792 0.0879-0.06835 0.15045-0.34727 0.13896-0.30822-0.0127-0.37092-0.0754-0.15985-0.15985zm2.6954 0.0808c0-0.0549 0.20836-0.2633 0.46302-0.46302 0.41964-0.3291 0.429-0.31975 0.09989 0.0999-0.34564 0.44073-0.56292 0.58089-0.56292 0.36312zm-0.77286-0.58361c0.01269-0.30822 0.07539-0.37092 0.15985-0.15985 0.07643 0.191 0.06703 0.4192-0.02089 0.50712-0.08792 0.0879-0.15045-0.0683-0.13896-0.34727zm8.517-0.29359c0.25743-0.0671 0.61462-0.0627 0.79375 0.01 0.17913 0.0725-0.0315 0.12736-0.46806 0.12197-0.43656-5e-3 -0.58312-0.0647-0.32569-0.13177zm-5.0271-0.52917c0.25743-0.0671 0.61462-0.0627 0.79375 0.01 0.17913 0.0725-0.03149 0.12736-0.46806 0.12197-0.43656-5e-3 -0.58312-0.0647-0.32569-0.13177zm10.849-1.9333c0-0.65485 0.0516-0.92274 0.11467-0.59532 0.0631 0.32743 0.0631 0.86321 0 1.1906s-0.11467 0.0595-0.11467-0.59531zm-9.1175 0.61301c0.191-0.0764 0.4192-0.067 0.50712 0.0209 0.08792 0.0879-0.06835 0.15046-0.34727 0.13897-0.30822-0.0127-0.37092-0.0754-0.15985-0.15985zm-11.525-1.0099c0.0029-0.58208 0.05712-0.78905 0.12041-0.45993 0.06329 0.32911 0.06088 0.80536-0.0053 1.0583-0.06622 0.25296-0.118-0.0163-0.11507-0.5984zm5.7541 0.66146-0.92604-0.19492 0.99219-0.0348c0.5457-0.0192 0.99219 0.0842 0.99219 0.22975 0 0.14552-0.02976 0.24891-0.06615 0.22975-0.03638-0.0191-0.48286-0.12254-0.99219-0.22975zm1.3229-0.36857c0-0.0572 0.18478-0.17489 0.41062-0.26155 0.23546-0.0904 0.34166-0.046 0.24897 0.10398-0.15538 0.25141-0.65958 0.37186-0.65958 0.15757zm1.8545-0.28998c-0.17983-0.21667-0.4623-0.31288-0.62771-0.21379-0.16541 0.0991-0.13734-0.0213 0.06238-0.2675 0.19972-0.24621 0.42792-0.44766 0.50712-0.44766 0.0792 0 0.06436 0.0796-0.03297 0.17697-0.09733 0.0973 0.02034 0.39498 0.26149 0.66145s0.37505 0.4845 0.29756 0.4845c-0.0775 0-0.28803-0.17729-0.46786-0.39397zm5.157-0.1352c0.26339-0.29104 0.53842-0.52917 0.61118-0.52917 0.0728 0-0.0832 0.23813-0.3466 0.52917-0.26339 0.29104-0.53842 0.52917-0.61118 0.52917-0.0728 0 0.0832-0.23813 0.3466-0.52917zm-11.114-0.53079c-0.2642-0.29193-0.43148-0.57793-0.37174-0.63554 0.05974-0.0576 0.32254 0.18124 0.58399 0.53078 0.57742 0.77198 0.44895 0.83539-0.21226 0.10476zm17.373-0.79213c0-0.3638 0.0601-0.51263 0.13346-0.33073 0.0734 0.1819 0.0734 0.47956 0 0.66146s-0.13346 0.0331-0.13346-0.33073zm-20.108-0.26458c0-0.3638 0.06005-0.51263 0.13345-0.33073 0.0734 0.1819 0.0734 0.47956 0 0.66146s-0.13345 0.0331-0.13345-0.33073zm19.844-1.0583c0-0.36381 0.0601-0.51263 0.13345-0.33073 0.0734 0.1819 0.0734 0.47955 0 0.66146-0.0734 0.1819-0.13345 0.0331-0.13345-0.33073zm-19.579-0.26459c0-0.3638 0.06005-0.51263 0.13345-0.33073 0.0734 0.1819 0.0734 0.47956 0 0.66146s-0.13345 0.0331-0.13345-0.33073zm9.0056-0.13229c0.0054-0.43656 0.06469-0.58312 0.13177-0.32569 0.06708 0.25743 0.06267 0.61462-0.0098 0.79375-0.07248 0.17913-0.12736-0.0315-0.12197-0.46806zm5.5256-0.28663c0.0127-0.30822 0.0754-0.37092 0.15985-0.15985 0.0764 0.19099 0.067 0.4192-0.0209 0.50712-0.0879 0.0879-0.15045-0.0684-0.13896-0.34727zm4.4972-1.3569c-0.17176-0.6968-0.8575-2.3949-1.5239-3.7735-0.91406-1.8911-1.6173-2.9124-2.864-4.159-0.90883-0.90883-1.4449-1.5414-1.1912-1.4056 1.0224 0.54719 3.2145 3.3156 4.2269 5.3383 1.0583 2.1144 2.0275 4.9037 1.7873 5.1439-0.0675 0.0675-0.26334-0.4473-0.4351-1.1441zm-18.792 0.79123c-0.02784-0.6809 1.5825-4.6483 2.4993-6.1576 1.7205-2.8322 4.492-5.0592 6.2361-5.0108 0.40432 0.0112 0.18174 0.14232-0.59794 0.35222-1.3697 0.36874-1.671 0.56086-3.3392 2.1288-1.5272 1.4354-2.835 3.641-3.9034 6.5829-0.48492 1.3352-0.88762 2.2822-0.89489 2.1045zm13.361-1.1147-0.78102-0.94343 0.78102 0.70188c0.42957 0.38603 1.0192 0.74804 1.3102 0.80445l0.52916 0.10257-0.52916 0.13898c-0.3808 0.10001-0.74816-0.12554-1.3102-0.80445zm-4.4513-0.87122c0.14656-0.18523 0.3326-0.51538 0.41341-0.73366 0.10029-0.2709 0.15356-0.21689 0.16782 0.17013 0.01149 0.31185-0.17455 0.642-0.41341 0.73366-0.32489 0.12467-0.36717 0.0818-0.16782-0.17013zm-5.688-0.35762c0.2512-0.26226 0.51367-0.41989 0.58328-0.35028 0.06961 0.0696-0.13592 0.28419-0.45672 0.47684-0.55729 0.33468-0.56293 0.32904-0.12656-0.12656zm4.8098-0.44219-0.50403-0.59531 0.59531 0.50403c0.55945 0.47366 0.71576 0.68659 0.50403 0.68659-0.05021 0-0.3181-0.26789-0.59531-0.59531zm2.3402 0.41293c0.25466-0.0666 0.67138-0.0666 0.92604 0s0.0463 0.121-0.46302 0.121c-0.50932 0-0.71768-0.0545-0.46302-0.121zm-5.4074-0.52752c0.191-0.0764 0.4192-0.067 0.50712 0.0209 0.08792 0.0879-0.06835 0.15046-0.34727 0.13897-0.30822-0.0127-0.37092-0.0754-0.15985-0.15985zm4.5475-0.5974c0-0.13693 0.1177-0.32171 0.26155-0.41062 0.14998-0.0927 0.19434 0.0135 0.10398 0.24897-0.17589 0.45837-0.36554 0.54224-0.36554 0.16165zm5.928-1.1401-0.50403-0.59532 0.59531 0.50403c0.55945 0.47366 0.71576 0.6866 0.50403 0.6866-0.0502 0-0.3181-0.26789-0.59531-0.59531zm-5.3988 0.23083c0-0.0549 0.20836-0.2633 0.46302-0.46302 0.41964-0.32911 0.429-0.31975 0.0999 0.0999-0.34564 0.44072-0.56292 0.58088-0.56292 0.36312zm4.3356-0.89634c-0.16729-0.11038-0.21406-0.41988-0.10822-0.71616 0.16516-0.46234 0.20208-0.43974 0.32407 0.19844 0.0757 0.39611 0.12442 0.71838 0.10822 0.71615-0.0162-2e-3 -0.16203-0.0915-0.32407-0.19843zm-7.704-1.833c0.25743-0.0671 0.61462-0.0627 0.79375 0.01 0.17913 0.0725-0.03149 0.12737-0.46806 0.12197-0.43656-5e-3 -0.58312-0.0647-0.32569-0.13177zm7.8326-0.54425c-0.32911-0.41964-0.31975-0.429 0.0999-0.0999 0.44073 0.34565 0.58089 0.56292 0.36313 0.56292-0.0549 0-0.26331-0.20836-0.46302-0.46302zm-3.8027-3.2412c-0.73226-0.18633-0.74251-0.20408-0.13229-0.22922 0.3638-0.015 0.84005 0.0882 1.0583 0.22922 0.4503 0.29101 0.21761 0.29101-0.92604 0z"
     fill="#606060"
     stroke-width=".26458"
     id="path14" />
  <path
     d="m10.507 37.811c0.4697-0.0584 1.3031-0.0594 1.8521-2e-3 0.54895 0.0573 0.16465 0.1051-0.854 0.10627-1.0186 1e-3 -1.4678-0.0457-0.99809-0.10413zm-4.324-1.4418c-1.0749-0.80899-1.3833-1.1275-0.76328-0.78838 0.68823 0.37645 1.8994 1.3494 1.6893 1.357-0.08952 3e-3 -0.50624-0.25262-0.92604-0.56857zm11.156-0.63725c0.58951-0.57049 1.3425-1.3944 1.6733-1.831 0.33078-0.43656 0.51173-0.61515 0.40211-0.39687-0.44183 0.87977-1.551 2.1675-2.326 2.7004-0.6701 0.46079-0.62398 0.37383 0.25061-0.47253zm-13.003-1.2357-0.50403-0.59532 0.59531 0.50403c0.55945 0.47367 0.71576 0.6866 0.50403 0.6866-0.05021 0-0.3181-0.26789-0.59531-0.59531zm-1.1786-1.8116c-0.30415-0.59618-0.50762-1.1294-0.45216-1.1848 0.05547-0.0555 0.35988 0.43232 0.67648 1.084 0.72107 1.4842 0.52611 1.5718-0.22432 0.10085zm16.955-0.9004c0-0.14552 0.11542-0.44318 0.25648-0.66146 0.14107-0.21828 0.25648-0.27781 0.25648-0.13229s-0.11541 0.44317-0.25648 0.66146c-0.14106 0.21828-0.25648 0.27781-0.25648 0.13229zm0.54196-1.6096c0.0127-0.30823 0.0754-0.37092 0.15985-0.15985 0.0764 0.19099 0.067 0.41919-0.0209 0.50712-0.0879 0.0879-0.15045-0.0684-0.13896-0.34727zm-19.05-2.1167c0.0127-0.30822 0.07539-0.37092 0.15985-0.15985 0.07643 0.19099 0.06703 0.4192-0.02089 0.50712-0.08792 0.0879-0.15045-0.0684-0.13896-0.34727zm19.579 0c0.0127-0.30822 0.0754-0.37092 0.15986-0.15985 0.0764 0.19099 0.067 0.4192-0.0209 0.50712-0.0879 0.0879-0.15046-0.0684-0.13897-0.34727zm-19.844-1.3229c0.0127-0.30823 0.07539-0.37092 0.15985-0.15986 0.07643 0.191 0.06703 0.4192-0.02089 0.50712-0.08792 0.0879-0.15045-0.0683-0.13896-0.34726zm20.129-0.11025c0-0.3638 0.0601-0.51263 0.13346-0.33073 0.0734 0.1819 0.0734 0.47956 0 0.66146s-0.13346 0.0331-0.13346-0.33073zm-20.353-1.8521c0-0.50932 0.05445-0.71768 0.121-0.46302s0.06655 0.67138 0 0.92604-0.121 0.0463-0.121-0.46302zm20.643-0.13229c3e-3 -0.58209 0.0571-0.78906 0.12041-0.45994 0.0633 0.32912 0.0609 0.80537-5e-3 1.0583-0.0662 0.25296-0.118-0.0163-0.11507-0.5984zm-20.873-4.3656c0-1.3824 0.04459-1.948 0.0991-1.2568 0.0545 0.69123 0.0545 1.8223 0 2.5135-0.0545 0.69123-0.0991 0.12568-0.0991-1.2568zm21.147-0.13229c2e-3 -0.7276 0.0534-0.99386 0.11418-0.59167 0.0608 0.40218 0.0592 0.99749-4e-3 1.3229-0.0628 0.32542-0.11256-4e-3 -0.11057-0.73124zm-0.27887-3.5719c0-0.50933 0.0545-0.71769 0.121-0.46302 0.0666 0.25466 0.0666 0.67138 0 0.92604-0.0665 0.25466-0.121 0.0463-0.121-0.46302zm-20.647-0.39688c0.0054-0.43656 0.06469-0.58312 0.13177-0.32569 0.06708 0.25743 0.06267 0.61462-0.0098 0.79375-0.07248 0.17913-0.12736-0.0315-0.12197-0.46806zm20.363-1.4552c0-0.3638 0.0601-0.51263 0.13346-0.33073 0.0734 0.1819 0.0734 0.47956 0 0.66146s-0.13346 0.0331-0.13346-0.33073zm-20.129-0.41892c0.0127-0.30822 0.07539-0.37092 0.15985-0.15985 0.07643 0.19099 0.06703 0.4192-0.02089 0.50712-0.08792 0.0879-0.15045-0.0684-0.13896-0.34727zm19.844-1.0583c0.0127-0.30823 0.0754-0.37092 0.15986-0.15986 0.0764 0.191 0.067 0.4192-0.0209 0.50712-0.0879 0.0879-0.15046-0.0683-0.13897-0.34726zm-0.26458-1.0583c0.0127-0.30822 0.0754-0.37092 0.15985-0.15985 0.0764 0.191 0.067 0.4192-0.0209 0.50712-0.0879 0.0879-0.15045-0.0684-0.13896-0.34727zm-18.269-2.6238c0-0.14552 0.11542-0.44318 0.25648-0.66146s0.25648-0.27781 0.25648-0.13229-0.11542 0.44318-0.25648 0.66146-0.25648 0.27781-0.25648 0.13229zm16.451-2.1252c-0.46414-0.94121-0.78718-1.7113-0.71787-1.7113 0.17731 0 1.7771 3.2073 1.6588 3.3256-0.0534 0.0534-0.47676-0.67307-0.94089-1.6143zm-14.42-1.936c0.51988-0.97082 3.6238-4.0086 4.0958-4.0086 0.16203 0-0.16975 0.33767-0.73728 0.75038-1.0257 0.74592-2.4513 2.2253-3.3585 3.4853-0.45634 0.63379-0.45634 0.62508 0-0.22709zm11.688-1.9148c-1.9819-2.0698-2.1193-2.3596-0.34177-0.72118 1.0067 0.92795 2.465 2.6512 2.1775 2.5733-0.0463-0.0126-0.87238-0.84599-1.8358-1.8521zm-6.3844-2.5336c0.1819-0.0734 0.47956-0.0734 0.66146 0s0.03307 0.13346-0.33073 0.13346c-0.3638 0-0.51263-0.0601-0.33073-0.13346zm2.3978-6e-3c0.191-0.0764 0.4192-0.067 0.50712 0.0209 0.08792 0.0879-0.06835 0.15046-0.34727 0.13897-0.30822-0.0127-0.37092-0.0754-0.15985-0.15986z"
     fill="#494949"
     stroke-width=".26458"
     id="path16" />
  <path
     d="m10.782 37.811c0.47555-0.0589 1.1899-0.0577 1.5875 3e-3 0.39758 0.0604 0.0085 0.10855-0.86463 0.10707-0.87312-2e-3 -1.1984-0.0509-0.72287-0.10977zm-4.7348-1.5942c-0.32911-0.41965-0.31975-0.429 0.0999-0.0999 0.25466 0.19972 0.46302 0.40808 0.46302 0.46302 0 0.21777-0.21727 0.0776-0.56292-0.36312zm11.411-0.43063c0-0.0549 0.20836-0.2633 0.46302-0.46302 0.41964-0.3291 0.429-0.31975 0.0999 0.0999-0.34564 0.44073-0.56291 0.58089-0.56291 0.36312zm-13.263-1.4214c-0.32911-0.41965-0.31975-0.42901 0.09989-0.0999 0.25466 0.19972 0.46302 0.40808 0.46302 0.46302 0 0.21776-0.21727 0.0776-0.56292-0.36312zm-2.8558-7.6288c0.0127-0.30823 0.07539-0.37092 0.15985-0.15986 0.07643 0.191 0.06703 0.4192-0.02089 0.50712-0.08792 0.0879-0.15045-0.0683-0.13896-0.34726zm20.108 0c0.0127-0.30823 0.0754-0.37092 0.15985-0.15986 0.0764 0.191 0.067 0.4192-0.0209 0.50712-0.0879 0.0879-0.15045-0.0683-0.13896-0.34726zm-20.342-1.83c0.0054-0.43656 0.06469-0.58312 0.13177-0.32569 0.06708 0.25743 0.06267 0.61462-0.0098 0.79375-0.07248 0.17913-0.12736-0.0315-0.12197-0.46806zm20.637-0.26458c5e-3 -0.43656 0.0647-0.58313 0.13178-0.3257 0.0671 0.25744 0.0627 0.61462-0.01 0.79375-0.0725 0.17913-0.12736-0.0315-0.12197-0.46805zm-20.863-4.2333c9.53e-4 -1.1642 0.04748-1.6075 0.10337-0.98519 0.05589 0.62231 0.05511 1.5748-0.0017 2.1167-0.05685 0.54185-0.10258 0.0327-0.10162-1.1315zm20.853-3.8364c0-0.36381 0.0601-0.51263 0.13345-0.33073 0.0734 0.1819 0.0734 0.47955 0 0.66146-0.0734 0.1819-0.13345 0.0331-0.13345-0.33073zm-20.638-0.52917c0-0.3638 0.06005-0.51263 0.13345-0.33073 0.0734 0.1819 0.0734 0.47956 0 0.66146s-0.13345 0.0331-0.13345-0.33073zm20.352-1.4773c0.0127-0.30822 0.0754-0.37092 0.15985-0.15985 0.0764 0.191 0.067 0.4192-0.0209 0.50712-0.0879 0.0879-0.15045-0.0684-0.13896-0.34727zm-20.108-0.26458c0.0127-0.30822 0.07539-0.37092 0.15985-0.15985 0.07643 0.19099 0.06703 0.4192-0.02089 0.50712-0.08792 0.0879-0.15045-0.0684-0.13896-0.34727zm4.3447-10.164c0.26339-0.29104 0.53842-0.52917 0.61118-0.52917 0.07276 0-0.08321 0.23813-0.3466 0.52917-0.26339 0.29104-0.53842 0.52917-0.61118 0.52917-0.07276 0 0.08321-0.23813 0.3466-0.52917zm10.716-0.66146c-0.64268-0.65484-1.109-1.1906-1.0362-1.1906 0.0728 0 0.65812 0.53578 1.3008 1.1906 0.64268 0.65485 1.109 1.1906 1.0362 1.1906-0.0728 0-0.65812-0.53578-1.3008-1.1906zm-9.2604-0.76135c0-0.0549 0.20836-0.2633 0.46302-0.46302 0.41964-0.32911 0.429-0.31975 0.0999 0.0999-0.34564 0.44073-0.56292 0.58089-0.56292 0.36313z"
     fill="#333"
     stroke-width=".26458"
     id="path18" />
</svg>
