<?xml version="1.0" encoding="UTF-8" standalone="no"?>
<svg
   xmlns:dc="http://purl.org/dc/elements/1.1/"
   xmlns:cc="http://creativecommons.org/ns#"
   xmlns:rdf="http://www.w3.org/1999/02/22-rdf-syntax-ns#"
   xmlns:svg="http://www.w3.org/2000/svg"
   xmlns="http://www.w3.org/2000/svg"
   xmlns:sodipodi="http://sodipodi.sourceforge.net/DTD/sodipodi-0.dtd"
   xmlns:inkscape="http://www.inkscape.org/namespaces/inkscape"
   id="svg8"
   version="1.1"
   viewBox="0 0 23.012105 38.792357"
   height="146.61678"
   width="86.974884"
   sodipodi:docname="oeuf_leger.svg"
   inkscape:version="0.92.4 (5da689c313, 2019-01-14)">
  <sodipodi:namedview
     pagecolor="#ffffff"
     bordercolor="#666666"
     borderopacity="1"
     objecttolerance="10"
     gridtolerance="10"
     guidetolerance="10"
     inkscape:pageopacity="0"
     inkscape:pageshadow="2"
     inkscape:window-width="1600"
     inkscape:window-height="836"
     id="namedview15"
     showgrid="false"
     inkscape:zoom="1.6096385"
     inkscape:cx="-134.67413"
     inkscape:cy="69.835106"
     inkscape:window-x="0"
     inkscape:window-y="27"
     inkscape:window-maximized="1"
     inkscape:current-layer="svg8" />
  <defs
     id="defs2" />
  <metadata
     id="metadata5">
    <rdf:RDF>
      <cc:Work
         rdf:about="">
        <dc:format>image/svg+xml</dc:format>
        <dc:type
           rdf:resource="http://purl.org/dc/dcmitype/StillImage" />
        <dc:title></dc:title>
      </cc:Work>
    </rdf:RDF>
  </metadata>
  <path
     id="path53"
     d="m 8.50038,37.758186 c -2.37749,-0.73056 -4.848479,-3.2866 -6.032048,-6.23967 -1.258691,-3.14051 -1.60663603,-5.59851 -1.58737703,-11.21375 0.01618,-4.71722 0.0781,-5.38611 0.72253403,-7.80521 0.870625,-3.2681603 2.70312,-7.0461603 4.254825,-8.7720303 6.83512,-7.6023 15.585405,0.62335 16.229145,15.2561003 0.32179,7.31459 -1.11454,13.22411 -3.96607,16.31765 -1.75967,1.90902 -3.28949,2.55206 -6.277922,2.63883 -1.382448,0.0401 -2.886837,-0.0417 -3.343087,-0.18192 z m 6.594739,-0.7328 c 4.40767,-1.94972 6.53817,-7.24677 6.5655,-16.32374 0.0191,-6.35492 -1.22827,-11.2488003 -3.88637,-15.2471503 -1.894,-2.84898 -3.95225,-4.19973 -6.399501,-4.19973 -6.222831,0 -11.17146603,10.8412303 -10.155156,22.2474103 0.731408,8.20868 3.182059,12.63929 7.700378,13.92175 1.612229,0.4576 4.688539,0.25906 6.175149,-0.39854 z m -6.163781,-0.0195 c -3.263444,-1.0668 -5.599941,-4.34879 -6.611726,-9.28725 -2.40038003,-11.71609 1.476059,-24.3023203 7.990067,-25.9425603 5.0532,-1.27241004 9.9272,5.86046 10.79886,15.8036303 0.6303,7.18984 -0.93102,14.38316 -3.75303,17.29104 -1.59245,1.64092 -2.91194,2.18545 -5.512042,2.27473 -1.236927,0.0425 -2.547385,-0.0204 -2.912129,-0.13957 z m 5.363861,-0.44916 c 3.77514,-1.28632 5.97381,-5.67912 6.53174,-13.04997 0.62427,-8.24741 -1.4435,-16.0653503 -5.19545,-19.6432003 -1.42448,-1.35838 -2.641167,-1.91478 -4.184897,-1.91378 -5.58372,0.004 -10.131876,9.6937903 -9.523631,20.2908203 0.459102,7.99861 2.728032,12.93941 6.566708,14.29961 1.475403,0.52279 4.29614,0.53082 5.80553,0.0165 z m -4.572527,-1.13583 c -0.578577,-0.31017 -1.156928,-0.95066 -1.552966,-1.71979 -0.521999,-1.01376 -0.75854,-1.22555 -1.368763,-1.22555 -0.852002,0 -2.208272,-1.04456 -2.772187,-2.13505 -0.443469,-0.85757 -0.499027,-2.03475 -0.140534,-2.97765 0.202535,-0.53271 0.130769,-0.75828 -0.399848,-1.25677 -1.232665,-1.15803 -1.398739,-3.28231 -0.369752,-4.72956 0.439121,-0.61762 0.438036,-0.67962 -0.02315,-1.32292 -0.834731,-1.16433 -0.885148,-2.37037 -0.158754,-3.79758 0.546778,-1.0743 0.604855,-1.40682 0.375972,-2.15259 -0.405556,-1.32142 -0.04111,-2.67168 1.002877,-3.71567 0.7015,-0.7015003 0.913321,-1.1331903 0.913321,-1.8613303 0,-1.87294 1.603791,-3.56755 3.37636,-3.56755 0.465992,0 0.86374,-0.16517 0.952072,-0.39536 0.481076,-1.25366 3.375088,-1.86495 4.956819,-1.047 0.85347,0.44134 1.82465,1.81066 1.82626,2.57492 5.5e-4,0.25911 0.41623,0.8357 0.92376,1.28131 1.15633,1.01527 1.64743,2.48425 1.23044,3.6804303 -0.27049,0.77594 -0.2275,0.93116 0.48163,1.73882 0.80286,0.9144 1.0695,1.84358 1.05494,3.67625 -0.005,0.58209 0.067,1.67252 0.15918,2.42319 0.12367,1.00719 0.051,1.61048 -0.27722,2.30221 -0.40788,0.85956 -0.40987,0.98725 -0.0239,1.5383 0.68678,0.98051 0.55839,3.1896 -0.24055,4.13909 -0.48301,0.57403 -0.66193,1.097 -0.6632,1.93853 -0.003,1.7849 -1.58167,3.65967 -3.08609,3.66423 -0.41606,10e-4 -0.62008,0.2102 -0.74046,0.75831 -0.17139,0.78032 -1.15962,1.86517 -2.173584,2.38611 -0.860867,0.44228 -2.2233,0.35988 -3.262668,-0.19733 z m 3.388106,-0.27433 c 1.013941,-0.52057 2.062331,-1.94217 1.775061,-2.40697 -0.0898,-0.14522 -0.42527,-0.26404 -0.74559,-0.26404 -0.32032,0 -0.890051,-0.28528 -1.266072,-0.63394 -0.826235,-0.76613 -1.831101,-0.74606 -3.147376,0.0629 -0.509323,0.313 -1.07487,0.56954 -1.256771,0.57009 -0.896361,0.003 0.190129,1.96078 1.460007,2.63127 1.253343,0.66175 1.95367,0.67072 3.180741,0.0407 z m -3.972016,-3.34747 c 0.755947,-0.52949 0.741053,-0.75639 -0.07403,-1.12776 -1.402,-0.6388 -2.221731,-3.37697 -1.445291,-4.82776 0.240353,-0.4491 0.183655,-0.51165 -0.463021,-0.51078 -1.557239,0.002 -3.250455,1.79331 -3.250455,3.43859 0,0.96851 0.834959,2.41401 1.698616,2.94066 0.990685,0.60412 2.734627,0.64707 3.534179,0.0871 z m 7.946147,-0.12408 c 0.93747,-0.57155 1.63834,-1.89627 1.63674,-3.09357 -0.002,-1.62282 -1.69862,-3.24964 -3.3887,-3.24964 -0.76208,0 -0.76733,0.0105 -0.50245,1.00285 0.41558,1.55698 0.0589,2.78186 -1.12014,3.84708 -0.942425,0.85143 -0.991648,0.96132 -0.587826,1.31242 0.992346,0.86278 2.714946,0.9414 3.962376,0.18086 z m -3.6399,-1.72646 c 0.82389,-0.78933 1.37427,-2.23461 1.1359,-2.98285 -0.0777,-0.2438 -0.25938,-0.76063 -0.40382,-1.14849 l -0.26261,-0.70522 -0.914184,0.53939 c -1.099897,0.64895 -3.246222,0.55572 -4.054916,-0.17613 -0.494189,-0.44724 -0.525398,-0.42957 -0.923361,0.52289 -0.530585,1.26987 -0.519431,1.92009 0.05114,2.98085 1.100124,2.04527 3.749868,2.52352 5.371851,0.96956 z m 6.0498,-3.39121 c 0.96601,-1.56304 0.57263,-3.80526 -0.82868,-4.72343 -1.57244,-1.0303 -3.64766,-0.77023 -3.64766,0.45713 0,0.37208 -0.1786,1.10394 -0.39688,1.62636 -0.21828,0.52242 -0.39615,0.96508 -0.39526,0.98369 9e-4,0.0186 0.53454,0.0485 1.18589,0.0664 1.36853,0.0377 2.38262,0.61414 3.00502,1.70821 0.24073,0.42316 0.45774,0.77013 0.48225,0.77105 0.0245,7.9e-4 0.29241,-0.39933 0.59532,-0.88945 z M 5.056966,25.740966 c 0.46811,-0.35705 1.337653,-0.72698 1.932318,-0.82207 l 1.081208,-0.17289 -0.387405,-0.77657 c -0.24738,-0.49589 -0.354485,-1.32243 -0.296325,-2.28679 l 0.09108,-1.51022 -0.89127,-0.0853 c -2.0295,-0.19412 -3.738938,1.32171 -3.738938,3.31547 0,1.05598 0.795143,2.98749 1.229858,2.98749 0.0706,0 0.511365,-0.29213 0.979474,-0.64917 z m 8.001426,-0.53305 c 1.661137,-1.08841 2.038097,-3.39572 0.816467,-4.99736 -1.246162,-1.63381 -3.346564,-1.869 -4.913828,-0.55024 -1.495869,1.25869 -1.705583,3.22535 -0.506488,4.74975 1.115011,1.41751 3.126195,1.76605 4.603849,0.79785 z m 6.983107,-5.7924 c -0.002,-0.60235 -0.11502,-1.27065 -0.25065,-1.48511 -0.21019,-0.33237 -0.33655,-0.30796 -0.85584,0.16537 -1.41274,1.28768 -3.17137,1.52231 -4.65054,0.62045 -0.47646,-0.29049 -0.922945,-0.52817 -0.992189,-0.52817 -0.348249,0 -0.0408,0.68852 0.667849,1.49563 0.43657,0.49722 0.79375,1.01035 0.79375,1.14029 0,0.12994 0.63435,0.17079 1.40967,0.0908 1.00903,-0.10414 1.62938,-0.0268 2.18281,0.27216 0.72869,0.39363 0.79978,0.38619 1.23617,-0.12929 0.28043,-0.33126 0.46142,-0.97881 0.45897,-1.6421 z m -13.905686,0.31721 c 1.20183,-0.0241 1.232474,-0.0451 1.080112,-0.73879 -0.08625,-0.39267 -0.0413,-1.01777 0.09987,-1.38909 0.248047,-0.65241 0.216693,-0.67964 -0.931589,-0.80907 -0.74487,-0.084 -1.43555,-0.36624 -1.850945,-0.75648 l -0.66267,-0.62255 -0.505597,0.65805 c -0.621605,0.80903 -0.676863,2.62485 -0.113058,3.71513 0.38552,0.74551 0.433174,0.76292 1.025628,0.37473 0.341727,-0.22391 1.177937,-0.41828 1.858245,-0.43193 z m 5.063569,-1.1478 c 1.557938,0 1.702418,-0.0476 1.702418,-0.56069 0,-0.43607 -0.206388,-0.59419 -0.928555,-0.71138 -0.510706,-0.0829 -1.272289,-0.39544 -1.692407,-0.69459 -0.692308,-0.49297 -0.832096,-0.50851 -1.49249,-0.16589 -0.400752,0.20791 -0.827971,0.53467 -0.949375,0.72612 -0.26182,0.41289 -0.29789,1.84467 -0.06196,2.45949 0.142678,0.37181 0.279491,0.32699 0.943415,-0.30909 0.686834,-0.65803 0.973191,-0.74397 2.478954,-0.74397 z m 6.296697,0.0321 c 1.08631,-0.45388 1.95476,-1.53029 2.17293,-2.69323 0.30483,-1.62486 -1.07657,-3.54545 -2.85357,-3.96738 -0.70171,-0.16662 -0.71138,-0.15209 -0.4667,0.70107 0.47586,1.65923 -0.49438,3.5082 -2.33954,4.4584 -0.52187,0.26874 -0.561,0.3773 -0.26469,0.73432 0.40655,0.48987 1.73003,1.10641 2.40694,1.12128 0.25933,0.006 0.86442,-0.15381 1.34463,-0.35446 z m -3.27136,-2.02874 c 0.94032,-0.4826 1.65315,-1.58095 1.78495,-2.75031 0.28913,-2.56518 -2.07047,-4.4253103 -4.521937,-3.56476 -0.857578,0.30104 -1.079194,0.50109 -1.007301,0.90927 0.344735,1.95725 0.321476,2.78925 -0.102981,3.68372 -0.43845,0.92397 -0.436774,0.97825 0.04155,1.3455 1.065649,0.81819 2.641448,0.97412 3.805719,0.37658 z m -5.529233,-0.5865 c 1.191371,-0.79352 1.933039,-2.31456 1.709532,-3.50595 -0.682944,-3.6404103 -5.822503,-3.8882603 -6.781442,-0.32703 -0.80873,3.0034 2.529637,5.52629 5.07191,3.83298 z m 9.445773,-5.55963 c 0.0998,-1.5226403 -0.46684,-2.6817503 -1.5964,-3.2658703 -1.08908,-0.56319 -2.64684,-0.5588 -3.514776,0.01 -0.634673,0.41586 -1.71254,1.8847 -1.714793,2.33681 -5.56e-4,0.10914 0.540704,0.19844 1.202775,0.19844 1.321084,0 2.537054,0.5111703 3.088374,1.2982903 0.31624,0.45149 1.46516,0.81336 2.19015,0.68981 0.14552,-0.0248 0.30062,-0.59512 0.34467,-1.26737 z m -7.77677,-0.1531 c 0.07686,-0.12437 -0.150779,-0.4990703 -0.505873,-0.8326603 -0.837313,-0.78662 -1.286709,-2.18001 -1.072078,-3.32409 0.193392,-1.03087 0.04014,-1.09255 -1.3114,-0.52784 -1.064785,0.44489 -1.979203,1.79578 -1.980846,2.92633 -0.0011,0.78277 0.01624,0.79256 1.255781,0.70771 1.00279,-0.0686 1.444176,0.0471 2.182978,0.57265 1.037859,0.7382403 1.230739,0.8026303 1.431438,0.4779003 z m 1.675743,-2.7443303 c 0.810276,-0.85435 2.185517,-1.36162 3.262767,-1.20352 0.91217,0.13388 0.96554,-0.13853 0.25535,-1.30329 -1.0187,-1.67071 -3.183006,-2.15049 -4.796379,-1.06324 -1.218497,0.82115 -1.607815,1.65701 -1.480875,3.17943 0.0791,0.94869 0.298215,1.46996 0.867785,2.06446 l 0.761964,0.7953203 0.22256,-0.8738303 c 0.122408,-0.48061 0.530481,-1.19851 0.906828,-1.59533 z"
     style="fill:#0a425a;fill-opacity:1;stroke-width:0.26458332"
     inkscape:connector-curvature="0" />
</svg>
