<?xml version="1.0" encoding="UTF-8" standalone="no"?>
<svg
   xmlns:dc="http://purl.org/dc/elements/1.1/"
   xmlns:cc="http://creativecommons.org/ns#"
   xmlns:rdf="http://www.w3.org/1999/02/22-rdf-syntax-ns#"
   xmlns:svg="http://www.w3.org/2000/svg"
   xmlns="http://www.w3.org/2000/svg"
   xmlns:sodipodi="http://sodipodi.sourceforge.net/DTD/sodipodi-0.dtd"
   xmlns:inkscape="http://www.inkscape.org/namespaces/inkscape"
   id="svg8"
   version="1.1"
   viewBox="0 0 23.012105 38.792357"
   height="146.61678"
   width="86.974884"
   sodipodi:docname="oeuf.svg"
   inkscape:version="0.92.4 (5da689c313, 2019-01-14)">
  <sodipodi:namedview
     pagecolor="#ffffff"
     bordercolor="#666666"
     borderopacity="1"
     objecttolerance="10"
     gridtolerance="10"
     guidetolerance="10"
     inkscape:pageopacity="0"
     inkscape:pageshadow="2"
     inkscape:window-width="1600"
     inkscape:window-height="836"
     id="namedview15"
     showgrid="false"
     inkscape:zoom="1.6096385"
     inkscape:cx="-23.469037"
     inkscape:cy="72.320134"
     inkscape:window-x="0"
     inkscape:window-y="27"
     inkscape:window-maximized="1"
     inkscape:current-layer="svg8" />
  <defs
     id="defs2" />
  <metadata
     id="metadata5">
    <rdf:RDF>
      <cc:Work
         rdf:about="">
        <dc:format>image/svg+xml</dc:format>
        <dc:type
           rdf:resource="http://purl.org/dc/dcmitype/StillImage" />
        <dc:title />
      </cc:Work>
    </rdf:RDF>
  </metadata>
  <path
     id="path55"
     d="M 8.727233,37.75493 C 3.22055,36.0738 0.504096,29.58153 0.861698,18.95645 1.05321,13.26625 2.098465,9.47375 4.561585,5.53213 c 6.827902,-10.92636 17.6595,-1.71983 17.65677,15.00772 -5.2e-4,3.28758 -0.53875,7.53935 -1.22248,9.65729 -1.18357,3.66625 -3.57757,6.51679 -6.17857,7.35682 -1.438385,0.46455 -4.857152,0.57736 -6.090072,0.20097 z m 5.880292,-0.55008 c 3.33664,-0.95484 6.01625,-5.26261 6.79857,-10.92946 0.41808,-3.02843 0.35739,-9.26801 -0.11433,-11.75472 -1.48195,-7.81222 -5.5203,-13.29541 -9.792021,-13.29541 -2.334167,0 -4.275524,1.26248 -6.237584,4.05636 -3.090776,4.4011 -4.55072,11.12892 -3.950193,18.20357 0.695665,8.19546 3.122579,12.57028 7.67985,13.84387 1.540156,0.43042 3.856618,0.37919 5.615708,-0.12421 z M 8.038415,36.57469 C 4.439708,34.89902 2.444248,30.77274 1.787633,23.64911 1.241787,17.72721 2.127692,12.19394 4.339956,7.70755 6.400269,3.52933 8.577527,1.64551 11.36268,1.63133 c 1.870989,-0.01 3.198655,0.63583 4.864345,2.36445 3.34877,3.47529 5.54857,11.52707 5.06208,18.52844 -0.71028,10.22225 -3.67316,14.66667 -9.783747,14.67598 -1.677843,0.003 -2.396603,-0.12712 -3.466943,-0.62551 z m 6.31555,-0.0474 c 4.57401,-1.55853 6.7612,-7.38108 6.47784,-17.24474 -0.15074,-5.24693 -0.82557,-8.30493 -2.57458,-11.66674 -2.01497,-3.87304 -4.21243,-5.7277 -6.742995,-5.69113 -4.843193,0.07 -8.713876,6.71739 -9.529848,16.36623 -0.207029,2.44811 0.218028,7.69026 0.825963,10.18646 0.9572,3.93027 3.236072,7.15144 5.666479,8.00953 1.541104,0.5441 4.342323,0.56335 5.877141,0.0404 z M 9.785567,35.42084 C 9.207431,35.11029 8.660721,34.50793 8.330358,33.81751 7.971722,33.068 7.588029,32.66573 7.139733,32.56926 4.518935,32.00526 3.073141,29.63181 3.948261,27.33007 4.147463,26.80613 4.088109,26.58107 3.647161,26.18836 2.995595,25.60808 2.377233,24.2418 2.377233,23.38243 c 0,-0.3377 0.237322,-1.0795 0.527382,-1.64844 L 3.431997,20.69956 2.872762,19.54434 C 2.224401,18.205 2.321456,16.86983 3.148487,15.75121 3.592279,15.15095 3.627488,14.90825 3.385274,14.11904 2.97356,12.77756 3.329794,11.34138 4.312776,10.37974 4.917766,9.78789 5.163198,9.29317 5.194647,8.60212 5.282307,6.67591 6.845705,4.9328 8.487788,4.93044 8.865417,4.92988 9.400917,4.67914 9.677789,4.3732 10.89238,3.03109 12.951626,2.64869 14.540315,3.47023 c 0.86872,0.44924 1.85717,1.81355 1.85885,2.56568 5.5e-4,0.24475 0.3489,0.69274 0.77413,0.99553 1.10696,0.78823 1.78275,2.68035 1.42971,4.00301 -0.24426,0.91515 -0.20902,1.07968 0.34224,1.59756 0.80916,0.76016 1.25516,2.17312 1.06404,3.37093 -0.0904,0.56658 0.008,1.43375 0.23748,2.10018 0.41223,1.19539 0.31622,2.10522 -0.34359,3.25575 -0.35547,0.61986 -0.34767,0.75713 0.0801,1.40992 0.71477,1.09089 0.61715,2.81921 -0.2317,4.1019 -0.45026,0.68039 -0.70591,1.42723 -0.70654,2.06402 -0.002,1.76131 -1.57714,3.51141 -3.16087,3.51141 -0.36935,0 -0.54231,0.17203 -0.54231,0.53941 0,0.29667 -0.45427,1.02642 -1.0095,1.62164 -0.86404,0.9263 -1.197617,1.09873 -2.3151,1.19666 -0.9437,0.0827 -1.5623,-0.0234 -2.231648,-0.38299 z"
     style="fill:#202020;fill-opacity:1;stroke-width:0.26458332"
     inkscape:connector-curvature="0" />
  <path
     id="path53"
     d="M 8.559146,37.72868 C 6.181656,36.99812 3.710667,34.44208 2.527098,31.48901 1.268407,28.3485 0.920462,25.8905 0.939721,20.27526 0.955901,15.55804 1.017821,14.88915 1.662255,12.47005 2.53288,9.20189 4.365375,5.42389 5.91708,3.69802 c 6.83512,-7.6023 15.585405,0.62335 16.229145,15.2561 0.32179,7.31459 -1.11454,13.22411 -3.96607,16.31765 -1.75967,1.90902 -3.28949,2.55206 -6.277922,2.63883 -1.382448,0.0401 -2.886837,-0.0417 -3.343087,-0.18192 z m 6.594739,-0.7328 c 4.40767,-1.94972 6.53817,-7.24677 6.5655,-16.32374 0.0191,-6.35492 -1.22827,-11.2488 -3.88637,-15.24715 -1.894,-2.84898 -3.95225,-4.19973 -6.399501,-4.19973 -6.222831,0 -11.171466,10.84123 -10.155156,22.24741 0.731408,8.20868 3.182059,12.63929 7.700378,13.92175 1.612229,0.4576 4.688539,0.25906 6.175149,-0.39854 z M 8.990104,36.97638 C 5.72666,35.90958 3.390163,32.62759 2.378378,27.68913 -0.022002,15.97304 3.854437,3.38681 10.368445,1.74657 c 5.0532,-1.27241 9.9272,5.86046 10.79886,15.80363 0.6303,7.18984 -0.93102,14.38316 -3.75303,17.29104 -1.59245,1.64092 -2.91194,2.18545 -5.512042,2.27473 -1.236927,0.0425 -2.547385,-0.0204 -2.912129,-0.13957 z m 5.363861,-0.44916 c 3.77514,-1.28632 5.97381,-5.67912 6.53174,-13.04997 0.62427,-8.24741 -1.4435,-16.06535 -5.19545,-19.6432 -1.42448,-1.35838 -2.641167,-1.91478 -4.184897,-1.91378 -5.58372,0.004 -10.131876,9.69379 -9.523631,20.29082 0.459102,7.99861 2.728032,12.93941 6.566708,14.29961 1.475403,0.52279 4.29614,0.53082 5.80553,0.0165 z M 9.781438,35.39139 C 9.202861,35.08122 8.62451,34.44073 8.228472,33.6716 7.706473,32.65784 7.469932,32.44605 6.859709,32.44605 6.007707,32.44605 4.651437,31.40149 4.087522,30.311 3.644053,29.45343 3.588495,28.27625 3.946988,27.33335 4.149523,26.80064 4.077757,26.57507 3.54714,26.07658 2.314475,24.91855 2.148401,22.79427 3.177388,21.34702 3.616509,20.7294 3.615424,20.6674 3.154238,20.0241 2.319507,18.85977 2.26909,17.65373 2.995484,16.22652 3.542262,15.15222 3.600339,14.8197 3.371456,14.07393 2.9659,12.75251 3.330346,11.40225 4.374333,10.35826 c 0.7015,-0.7015 0.913321,-1.13319 0.913321,-1.86133 0,-1.87294 1.603791,-3.56755 3.37636,-3.56755 0.465992,0 0.86374,-0.16517 0.952072,-0.39536 0.481076,-1.25366 3.375088,-1.86495 4.956819,-1.047 0.85347,0.44134 1.82465,1.81066 1.82626,2.57492 5.5e-4,0.25911 0.41623,0.8357 0.92376,1.28131 1.15633,1.01527 1.64743,2.48425 1.23044,3.68043 -0.27049,0.77594 -0.2275,0.93116 0.48163,1.73882 0.80286,0.9144 1.0695,1.84358 1.05494,3.67625 -0.005,0.58209 0.067,1.67252 0.15918,2.42319 0.12367,1.00719 0.051,1.61048 -0.27722,2.30221 -0.40788,0.85956 -0.40987,0.98725 -0.0239,1.5383 0.68678,0.98051 0.55839,3.1896 -0.24055,4.13909 -0.48301,0.57403 -0.66193,1.097 -0.6632,1.93853 -0.003,1.7849 -1.58167,3.65967 -3.08609,3.66423 -0.41606,0.001 -0.62008,0.2102 -0.74046,0.75831 -0.17139,0.78032 -1.15962,1.86517 -2.173584,2.38611 -0.860867,0.44228 -2.2233,0.35988 -3.262668,-0.19733 z m 3.388106,-0.27433 c 1.013941,-0.52057 2.062331,-1.94217 1.775061,-2.40697 -0.0898,-0.14522 -0.42527,-0.26404 -0.74559,-0.26404 -0.32032,0 -0.890051,-0.28528 -1.266072,-0.63394 -0.826235,-0.76613 -1.831101,-0.74606 -3.147376,0.0629 -0.509323,0.313 -1.07487,0.56954 -1.256771,0.57009 -0.896361,0.003 0.190129,1.96078 1.460007,2.63127 1.253343,0.66175 1.95367,0.67072 3.180741,0.0407 z M 9.197528,31.76959 c 0.755947,-0.52949 0.741053,-0.75639 -0.07403,-1.12776 -1.402,-0.6388 -2.221731,-3.37697 -1.445291,-4.82776 0.240353,-0.4491 0.183655,-0.51165 -0.463021,-0.51078 -1.557239,0.002 -3.250455,1.79331 -3.250455,3.43859 0,0.96851 0.834959,2.41401 1.698616,2.94066 0.990685,0.60412 2.734627,0.64707 3.534179,0.0871 z m 7.946147,-0.12408 c 0.93747,-0.57155 1.63834,-1.89627 1.63674,-3.09357 -0.002,-1.62282 -1.69862,-3.24964 -3.3887,-3.24964 -0.76208,0 -0.76733,0.0105 -0.50245,1.00285 0.41558,1.55698 0.0589,2.78186 -1.12014,3.84708 -0.942425,0.85143 -0.991648,0.96132 -0.587826,1.31242 0.992346,0.86278 2.714946,0.9414 3.962376,0.18086 z m -3.6399,-1.72646 c 0.82389,-0.78933 1.37427,-2.23461 1.1359,-2.98285 -0.0777,-0.2438 -0.25938,-0.76063 -0.40382,-1.14849 l -0.26261,-0.70522 -0.914184,0.53939 C 11.959164,26.27083 9.812839,26.1776 9.004145,25.44575 8.509956,24.99851 8.478747,25.01618 8.080784,25.96864 c -0.530585,1.26987 -0.519431,1.92009 0.05114,2.98085 1.100124,2.04527 3.749868,2.52352 5.371851,0.96956 z m 6.0498,-3.39121 c 0.96601,-1.56304 0.57263,-3.80526 -0.82868,-4.72343 -1.57244,-1.0303 -3.64766,-0.77023 -3.64766,0.45713 0,0.37208 -0.1786,1.10394 -0.39688,1.62636 -0.21828,0.52242 -0.39615,0.96508 -0.39526,0.98369 9e-4,0.0186 0.53454,0.0485 1.18589,0.0664 1.36853,0.0377 2.38262,0.61414 3.00502,1.70821 0.24073,0.42316 0.45774,0.77013 0.48225,0.77105 0.0245,7.9e-4 0.29241,-0.39933 0.59532,-0.88945 z M 5.115732,25.71146 C 5.583842,25.35441 6.453385,24.98448 7.04805,24.88939 L 8.129258,24.7165 7.741853,23.93993 C 7.494473,23.44404 7.387368,22.6175 7.445528,21.65314 l 0.09108,-1.51022 -0.89127,-0.0853 C 4.615838,19.8635 2.9064,21.37933 2.9064,23.37309 c 0,1.05598 0.795143,2.98749 1.229858,2.98749 0.0706,0 0.511365,-0.29213 0.979474,-0.64917 z m 8.001426,-0.53305 c 1.661137,-1.08841 2.038097,-3.39572 0.816467,-4.99736 -1.246162,-1.63381 -3.346564,-1.869 -4.913828,-0.55024 -1.495869,1.25869 -1.705583,3.22535 -0.506488,4.74975 1.115011,1.41751 3.126195,1.76605 4.603849,0.79785 z m 6.983107,-5.7924 c -0.002,-0.60235 -0.11502,-1.27065 -0.25065,-1.48511 -0.21019,-0.33237 -0.33655,-0.30796 -0.85584,0.16537 -1.41274,1.28768 -3.17137,1.52231 -4.65054,0.62045 -0.47646,-0.29049 -0.922945,-0.52817 -0.992189,-0.52817 -0.348249,0 -0.0408,0.68852 0.667849,1.49563 0.43657,0.49722 0.79375,1.01035 0.79375,1.14029 0,0.12994 0.63435,0.17079 1.40967,0.0908 1.00903,-0.10414 1.62938,-0.0268 2.18281,0.27216 0.72869,0.39363 0.79978,0.38619 1.23617,-0.12929 0.28043,-0.33126 0.46142,-0.97881 0.45897,-1.6421 z M 6.194579,19.70322 c 1.20183,-0.0241 1.232474,-0.0451 1.080112,-0.73879 -0.08625,-0.39267 -0.0413,-1.01777 0.09987,-1.38909 0.248047,-0.65241 0.216693,-0.67964 -0.931589,-0.80907 -0.74487,-0.084 -1.43555,-0.36624 -1.850945,-0.75648 L 3.929357,15.38724 3.42376,16.04529 c -0.621605,0.80903 -0.676863,2.62485 -0.113058,3.71513 0.38552,0.74551 0.433174,0.76292 1.025628,0.37473 0.341727,-0.22391 1.177937,-0.41828 1.858245,-0.43193 z m 5.063569,-1.1478 c 1.557938,0 1.702418,-0.0476 1.702418,-0.56069 0,-0.43607 -0.206388,-0.59419 -0.928555,-0.71138 -0.510706,-0.0829 -1.272289,-0.39544 -1.692407,-0.69459 -0.692308,-0.49297 -0.832096,-0.50851 -1.49249,-0.16589 -0.400752,0.20791 -0.827971,0.53467 -0.949375,0.72612 -0.26182,0.41289 -0.29789,1.84467 -0.06196,2.45949 0.142678,0.37181 0.279491,0.32699 0.943415,-0.30909 0.686834,-0.65803 0.973191,-0.74397 2.478954,-0.74397 z m 6.296697,0.0321 c 1.08631,-0.45388 1.95476,-1.53029 2.17293,-2.69323 0.30483,-1.62486 -1.07657,-3.54545 -2.85357,-3.96738 -0.70171,-0.16662 -0.71138,-0.15209 -0.4667,0.70107 0.47586,1.65923 -0.49438,3.5082 -2.33954,4.4584 -0.52187,0.26874 -0.561,0.3773 -0.26469,0.73432 0.40655,0.48987 1.73003,1.10641 2.40694,1.12128 0.25933,0.006 0.86442,-0.15381 1.34463,-0.35446 z m -3.27136,-2.02874 c 0.94032,-0.4826 1.65315,-1.58095 1.78495,-2.75031 0.28913,-2.56518 -2.07047,-4.42531 -4.521937,-3.56476 -0.857578,0.30104 -1.079194,0.50109 -1.007301,0.90927 0.344735,1.95725 0.321476,2.78925 -0.102981,3.68372 -0.43845,0.92397 -0.436774,0.97825 0.04155,1.3455 1.065649,0.81819 2.641448,0.97412 3.805719,0.37658 z M 8.754252,15.97228 C 9.945623,15.17876 10.687291,13.65772 10.463784,12.46633 9.78084,8.82592 4.641281,8.57807 3.682342,12.1393 c -0.80873,3.0034 2.529637,5.52629 5.07191,3.83298 z m 9.445773,-5.55963 c 0.0998,-1.52264 -0.46684,-2.68175 -1.5964,-3.26587 -1.08908,-0.56319 -2.64684,-0.5588 -3.514776,0.01 -0.634673,0.41586 -1.71254,1.8847 -1.714793,2.33681 -5.56e-4,0.10914 0.540704,0.19844 1.202775,0.19844 1.321084,0 2.537054,0.51117 3.088374,1.29829 0.31624,0.45149 1.46516,0.81336 2.19015,0.68981 0.14552,-0.0248 0.30062,-0.59512 0.34467,-1.26737 z m -7.77677,-0.1531 C 10.500115,10.13518 10.272476,9.76048 9.917382,9.42689 9.080069,8.64027 8.630673,7.24688 8.845304,6.1028 9.038696,5.07193 8.885444,5.01025 7.533904,5.57496 6.469119,6.01985 5.554701,7.37074 5.553058,8.50129 c -0.0011,0.78277 0.01624,0.79256 1.255781,0.70771 1.00279,-0.0686 1.444176,0.0471 2.182978,0.57265 1.037859,0.73824 1.230739,0.80263 1.431438,0.4779 z M 12.098998,7.51522 C 12.909274,6.66087 14.284515,6.1536 15.361765,6.3117 16.273935,6.44558 16.327305,6.17317 15.617115,5.00841 14.598415,3.3377 12.434109,2.85792 10.820736,3.94517 9.602239,4.76632 9.212921,5.60218 9.339861,7.1246 c 0.0791,0.94869 0.298215,1.46996 0.867785,2.06446 l 0.761964,0.79532 0.22256,-0.87383 c 0.122408,-0.48061 0.530481,-1.19851 0.906828,-1.59533 z"
     style="fill:#b9b9b9;fill-opacity:1;stroke-width:0.26458332"
     inkscape:connector-curvature="0" />
  <path
     id="path51"
     d="M 8.045752,37.45811 C 5.427037,36.45062 3.443936,34.12479 2.282937,30.69935 1.162781,27.39441 0.920601,25.48384 0.944832,20.14297 0.965522,15.58317 1.032852,14.87171 1.669184,12.48894 2.53928,9.23085 4.348808,5.48618 5.900968,3.73161 c 7.382973,-8.34578 16.876157,2.34259 16.221217,18.26344 -0.35908,8.72874 -2.71339,13.78526 -7.19997,15.46391 -1.923976,0.71985 -5.004172,0.71947 -6.876463,-8e-4 z m 7.220333,-0.50037 c 2.89856,-1.26032 4.92405,-4.43268 5.85959,-9.17738 1.72557,-8.7515 0.27917,-17.6565 -3.73178,-22.97516 C 15.618765,2.45132 14.024385,1.42999 11.883085,1.27511 8.741411,1.04786 5.970741,3.25467 3.82981,7.68947 1.612633,12.2822 0.753863,17.63406 1.28017,23.57884 c 0.710639,8.02685 3.061919,12.33238 7.532834,13.79371 1.611966,0.52688 4.751471,0.32507 6.453081,-0.41481 z m -6.065961,0.0338 c -0.249233,-0.0989 0.788123,-0.17984 2.305234,-0.17984 1.517112,0 2.554467,0.0809 2.305237,0.17984 -0.24924,0.0989 -1.286591,0.17984 -2.305237,0.17984 -1.018646,0 -2.056001,-0.0809 -2.305234,-0.17984 z M 6.971507,35.92504 C 5.626522,34.95074 4.628806,33.75304 3.800473,32.11841 3.103618,30.74323 2.096838,27.19719 2.134956,26.25219 c 0.01227,-0.30414 0.248327,0.44884 0.524576,1.67331 0.893715,3.96136 2.416024,6.54018 4.725238,8.00464 0.649814,0.4121 1.056972,0.74927 0.904794,0.74927 -0.152177,0 -0.745302,-0.33947 -1.318057,-0.75437 z m 8.383578,0.23431 c 0.87877,-0.46465 2.60285,-2.17244 3.36557,-3.33377 0.28777,-0.43815 0.29284,-0.41662 0.0352,0.14966 -0.60345,1.32659 -3.29995,3.73827 -4.12855,3.69247 -0.11637,-0.006 0.21111,-0.23519 0.72773,-0.50836 z M 9.759163,35.33636 c -0.963525,-0.57422 -1.82568,-1.7233 -1.82568,-2.43325 0,-0.25342 -0.374937,-0.43765 -1.08434,-0.5328 C 4.595545,32.06804 2.979111,29.26065 3.980897,27.38879 4.211315,26.95825 4.122773,26.70605 3.48698,25.98192 2.357123,24.69508 2.194216,23.41927 2.961733,21.8684 3.579831,20.61945 3.580228,20.6122 3.067885,19.92597 2.376111,18.99941 2.39039,17.17321 3.098795,15.97255 3.568648,15.1762 3.604807,14.90182 3.360513,13.98657 3.128759,13.1183 3.16277,12.70016 3.546973,11.69414 3.805427,11.01739 4.30281,10.27634 4.652268,10.04737 5.148508,9.72222 5.287647,9.39831 5.287647,8.56823 c 0,-1.91853 1.66289,-3.63882 3.517408,-3.63882 0.36262,0 0.727582,-0.17791 0.811024,-0.39536 0.504361,-1.31434 3.591899,-1.90065 5.026896,-0.95457 0.8851,0.58353 1.75295,1.81082 1.75543,2.48249 9.5e-4,0.25911 0.4168,0.83553 0.9241,1.28094 1.11884,0.98236 1.55891,2.36145 1.18531,3.71453 -0.2398,0.86849 -0.19366,1.02604 0.5261,1.79655 0.81226,0.86953 1.07062,1.74657 1.05602,3.58479 -0.005,0.58209 0.0678,1.68383 0.16088,2.44831 0.13569,1.11418 0.0667,1.56389 -0.34789,2.26651 -0.50473,0.85545 -0.50534,0.89116 -0.0256,1.48361 0.76746,0.94778 0.67652,3.19847 -0.16988,4.20436 -0.43299,0.51458 -0.66146,1.10967 -0.66146,1.72287 0,0.51523 -0.10507,1.21241 -0.23348,1.54931 -0.36244,0.95087 -1.59197,2.03803 -2.50815,2.21774 -0.63876,0.1253 -0.95229,0.41346 -1.35941,1.24944 -0.67601,1.3881 -1.624515,2.0692 -3.078634,2.2107 -0.855102,0.0832 -1.401829,-0.0349 -2.107148,-0.45527 z m 3.3364,-0.0962 c 0.848102,-0.35436 1.978412,-1.74329 1.980682,-2.43387 5.5e-4,-0.16571 -0.39938,-0.37639 -0.88873,-0.4682 -0.48934,-0.0918 -1.10311,-0.4027 -1.363923,-0.6909 -0.679376,-0.7507 -2.106281,-0.68715 -3.086277,0.13747 -0.432355,0.3638 -0.955558,0.66146 -1.162674,0.66146 -1.072199,0 0.162178,2.17926 1.58536,2.79891 1.064365,0.46343 1.817763,0.46218 2.935562,-0.005 z m -3.826024,-3.4623 c 0.429336,-0.22201 0.780611,-0.45043 0.780611,-0.50758 0,-0.0572 -0.404043,-0.35364 -0.897874,-0.65884 C 7.654178,29.68556 6.917788,27.235 7.699015,25.77526 7.981341,25.24773 7.945237,25.23111 6.839119,25.37944 c -2.978842,0.39947 -3.839977,4.49392 -1.304508,6.20257 1.045716,0.70471 2.593913,0.7859 3.734928,0.19585 z m 7.651836,0.0652 c 0.93865,-0.47496 1.86002,-1.97148 1.86002,-3.02107 0,-1.91591 -1.47583,-3.51961 -3.23898,-3.51961 -0.89277,0 -1.024,0.0697 -0.87184,0.46302 0.68591,1.77296 0.31263,3.33343 -1.09249,4.56715 -0.515719,0.45281 -0.895403,0.85542 -0.843741,0.89471 1.338611,1.01783 2.929971,1.25188 4.187031,0.6158 z m -3.811457,-1.52414 c 0.565587,-0.34955 1.030207,-0.95065 1.318687,-1.70602 0.44141,-1.15583 0.42105,-1.38954 -0.26902,-3.08696 -0.13567,-0.33373 0.0121,-0.47967 0.62134,-0.61347 1.12641,-0.2474 3.05229,0.65234 3.70949,1.73302 l 0.51689,0.84995 0.54752,-0.8981 c 1.59825,-2.62161 -0.56911,-5.97297 -3.50641,-5.42193 -0.8452,0.15856 -0.91249,0.24811 -1.04061,1.38472 -0.16339,1.44962 -0.83134,2.44297 -2.066046,3.07257 -1.192519,0.60807 -2.556341,0.58521 -3.615574,-0.0606 l -0.856257,-0.52207 -0.400514,0.7745 c -1.612935,3.11908 2.021837,6.36005 5.040504,4.49442 z M 4.949729,25.83244 c 0.758957,-0.597 2.59856,-1.165 2.989859,-0.92317 0.365999,0.2262 0.321897,-0.0397 -0.161687,-0.97485 C 7.497022,23.39126 7.387384,22.62815 7.447172,21.63246 L 7.536612,20.143 6.304416,20.0634 C 5.24132,19.9947 4.942643,20.0975 4.12803,20.81277 c -1.516006,1.33107 -1.723982,3.14745 -0.563227,4.91898 0.49941,0.7622 0.540231,0.76517 1.38493,0.10073 z m 7.398301,-0.2831 c 2.518565,-0.95426 3.139845,-4.21357 1.126175,-5.90797 -2.218181,-1.86648 -5.428679,-0.56606 -5.725116,2.31897 -0.14309,1.3926 0.563273,2.7308 1.788209,3.38774 1.030112,0.55245 1.748126,0.60386 2.810732,0.20126 z m 7.449235,-4.62504 c 0.35132,-0.77107 0.40295,-2.73409 0.0851,-3.23495 -0.16219,-0.25557 -0.337,-0.19881 -0.72355,0.23496 -1.16515,1.30745 -3.07353,1.61464 -4.74302,0.76348 -1.235372,-0.62983 -1.190625,-0.6238 -1.190625,-0.16027 0,0.20289 0.357185,0.75126 0.793745,1.21861 0.43657,0.46734 0.79375,1.0199 0.79375,1.22791 0,0.29193 0.11675,0.31573 0.51178,0.10431 0.71663,-0.38353 2.14336,-0.33434 2.92781,0.10094 0.96411,0.53497 1.20307,0.49554 1.54503,-0.25499 z M 6.363688,19.7461 c 1.049153,0 1.095867,-0.0337 0.968584,-0.69958 -0.07355,-0.38477 -0.03621,-1.03962 0.08298,-1.45521 0.207047,-0.72194 0.177887,-0.75563 -0.653939,-0.75563 -0.495903,0 -1.296651,-0.28909 -1.860376,-0.67165 -1.144952,-0.77698 -1.572425,-0.60253 -1.959601,0.7997 -0.277296,1.00429 -0.113811,2.13806 0.428857,2.97413 0.357758,0.55118 0.430074,0.5638 1.136623,0.19843 0.415007,-0.21461 1.2506,-0.39019 1.856874,-0.39019 z m 3.851638,-1.22252 c 0.359457,-0.0902 1.124187,-0.0888 1.699399,0.003 1.032741,0.16514 1.148374,0.0706 1.016916,-0.8312 -0.01591,-0.10914 -0.527102,-0.3437 -1.135984,-0.52124 C 11.186776,16.99659 10.455652,16.62802 10.170938,16.35508 9.696871,15.90062 9.597569,15.89282 8.991817,16.26248 8.628014,16.4845 8.18153,16.84607 7.999629,17.06596 7.658301,17.47859 7.538304,19.5271 7.837911,19.8267 c 0.09296,0.093 0.518851,-0.12536 0.946434,-0.48514 0.427582,-0.35979 1.071524,-0.72798 1.430981,-0.81819 z m 7.928919,-0.22428 c 1.53442,-1.0054 2.08507,-3.13553 1.18264,-4.57489 -0.5627,-0.89749 -1.97593,-1.91362 -2.66215,-1.91413 -0.31168,-2.3e-4 -0.39688,0.36509 -0.39688,1.70179 0,1.52726 -0.0808,1.78636 -0.78642,2.52257 -0.43253,0.45126 -1.0576,0.88855 -1.38906,0.97173 -0.724918,0.18195 -0.755603,0.40262 -0.13418,0.965 1.13829,1.03014 2.90331,1.16841 4.18605,0.32793 z m -4.13578,-1.62261 c 3.4401,-1.37645 2.39645,-6.72018 -1.312482,-6.72018 -1.204645,0 -2.469427,0.71934 -2.241173,1.27466 0.487612,1.1863 0.448899,2.68131 -0.09323,3.60015 l -0.54848,0.9296 0.713835,0.50649 c 0.669367,0.47493 1.337577,0.73047 2.097544,0.80216 0.178956,0.0169 0.801748,-0.15991 1.383986,-0.39288 z M 8.634299,16.13781 c 1.023711,-0.48578 1.945018,-2.01159 1.945018,-3.22121 0,-1.81913 -2.302758,-3.71178 -4.104759,-3.37372 -1.873659,0.3515 -3.29168,2.36499 -2.905106,4.12505 0.20565,0.93632 1.306867,2.3286 2.093493,2.64682 0.879857,0.35594 1.987372,0.28999 2.971354,-0.17694 z m 9.663256,-5.26798 c 0.4671,-1.74656 -0.67581,-3.60214 -2.53482,-4.11544 -1.68136,-0.46425 -3.740901,0.672 -4.245482,2.34223 -0.168701,0.55842 -0.102795,0.59531 1.063525,0.59531 1.280847,0 2.839817,0.72167 3.116487,1.44267 0.12527,0.32643 1.42505,0.65751 2.14367,0.54603 0.13759,-0.0213 0.34306,-0.3862 0.45662,-0.8108 z m -7.8743,-0.61027 C 10.500115,10.13519 10.267683,9.75599 9.906731,9.41689 9.107635,8.66618 8.665386,7.1569 8.900315,5.98225 L 9.074499,5.11133 8.173262,5.28425 C 6.849577,5.53822 5.552233,7.03044 5.552233,8.29898 V 9.29505 H 6.98804 c 1.074886,0 1.623581,0.14595 2.182812,0.58062 0.833352,0.64772 1.048571,0.71369 1.252403,0.38389 z m 1.759915,-2.834 c 0.743086,-0.79098 2.179205,-1.2765 3.182335,-1.07587 0.95634,0.19127 1.00202,-0.20405 0.16681,-1.44342 C 14.771675,3.77756 13.933155,3.35078 12.466418,3.34583 11.474303,3.34283 11.165486,3.48726 10.283606,4.36914 9.370176,5.28257 9.2564,5.5398 9.2564,6.69151 c 0,1.27367 0.438558,2.25289 1.301605,2.90624 0.33032,0.25006 0.455029,0.14218 0.717192,-0.6204 0.17454,-0.5077 0.583127,-1.206 0.907973,-1.55179 z m 6.873405,24.72212 c -0.006,-0.0914 0.18315,-0.62715 0.41995,-1.19063 0.23679,-0.56347 0.64513,-2.03653 0.90742,-3.27345 0.26229,-1.23693 0.48527,-1.94058 0.4955,-1.56368 0.0249,0.91482 -0.91213,4.53398 -1.4129,5.45743 -0.21966,0.40505 -0.40414,0.6617 -0.40997,0.57033 z M 1.927353,24.24401 c 0,-0.80036 0.0496,-1.12778 0.110222,-0.7276 0.06062,0.40018 0.06062,1.05502 0,1.45521 -0.06062,0.40018 -0.110222,0.0728 -0.110222,-0.72761 z m 19.052702,-0.66146 c 0.001,-0.87312 0.0509,-1.19841 0.10976,-0.72286 0.0589,0.47555 0.0577,1.18992 -0.003,1.5875 -0.0604,0.39758 -0.10855,0.008 -0.10706,-0.86464 z M 1.674185,20.14297 c 9.53e-4,-1.16417 0.04748,-1.6075 0.103369,-0.98519 0.05589,0.62231 0.05511,1.57481 -0.0017,2.11666 -0.05685,0.54186 -0.102584,0.0327 -0.101623,-1.13147 z m 19.50935,-0.0221 c 0.0127,-0.30822 0.0754,-0.37092 0.15986,-0.15985 0.0764,0.191 0.067,0.4192 -0.0209,0.50712 -0.0879,0.0879 -0.15046,-0.0684 -0.13897,-0.34727 z m -0.20979,-2.88837 c 0.002,-0.7276 0.0534,-0.99385 0.11418,-0.59167 0.0608,0.40218 0.0592,0.9975 -0.004,1.32292 -0.0628,0.32542 -0.11256,-0.004 -0.11057,-0.73125 z M 1.993405,16.17417 c 0.06592,-1.01864 0.236299,-2.20927 0.378626,-2.64583 0.274665,-0.84249 0.255495,-0.63771 -0.284834,3.04271 -0.201294,1.3711 -0.206714,1.34816 -0.09379,-0.39688 z m 18.54387,-1.62358 c -0.0936,-0.68255 -0.11912,-1.292 -0.0568,-1.35432 0.0623,-0.0623 0.19612,0.43889 0.29733,1.11379 0.1012,0.6749 0.12676,1.28435 0.0568,1.35432 -0.07,0.07 -0.20377,-0.43123 -0.29732,-1.11379 z m -0.41207,-2.10263 c 0.0127,-0.30823 0.0754,-0.37092 0.15985,-0.15986 0.0764,0.191 0.067,0.4192 -0.0209,0.50712 -0.0879,0.0879 -0.15045,-0.0684 -0.13896,-0.34726 z m -17.4625,-0.26459 c 0.01269,-0.30822 0.07539,-0.37092 0.159852,-0.15985 0.07643,0.191 0.06703,0.4192 -0.02089,0.50712 -0.08792,0.0879 -0.150453,-0.0684 -0.138964,-0.34727 z m 16.94339,-1.46096 c -0.61593,-2.10426 -2.11038,-4.90064 -3.36443,-6.29544 -1.37459,-1.52888 -2.26048,-2.07371 -4.20714,-2.58741 l -1.322917,-0.34911 1.148759,0.13897 c 3.048618,0.36882 5.841658,3.27973 7.581118,7.90107 0.37625,0.99959 0.64378,1.93832 0.59453,2.08608 -0.0493,0.14776 -0.24271,-0.25462 -0.42992,-0.89416 z M 2.938463,11.27938 C 2.933963,11.0611 3.093821,10.52532 3.29372,10.08875 3.761611,9.06692 3.768477,9.54221 3.30332,10.75021 3.10718,11.25954 2.943015,11.49766 2.938507,11.27938 Z M 3.708387,9.06911 C 3.703887,8.94487 4.124741,8.03522 4.643686,7.04767 5.607735,5.21308 7.390885,3.12172 8.494778,2.53094 8.83368,2.34956 8.383516,2.87465 7.494416,3.6978 6.388144,4.72201 5.536763,5.84162 4.797246,7.24472 4.202903,8.37238 3.712917,9.19335 3.708387,9.06911 Z M 9.520983,2.01896 c 0.218281,-0.14106 0.575469,-0.24993 0.79375,-0.24193 0.261688,0.01 0.216625,0.092 -0.132291,0.24193 -0.727363,0.31256 -1.145108,0.31256 -0.661459,0 z"
     style="fill:#a3a3a3;fill-opacity:1;stroke-width:0.26458332"
     inkscape:connector-curvature="0" />
  <path
     id="path49"
     d="M 8.304842,37.51895 C 4.537339,36.21663 2.15005,32.32191 1.18176,25.89807 -0.1279,17.2095 1.959273,7.91377 6.214037,3.4856 c 5.790398,-6.02639 12.894068,-1.19342 15.394038,10.47332 0.56478,2.63569 0.63241,10.17047 0.11606,12.93093 -1.1128,5.94919 -3.59909,9.62886 -7.23577,10.70884 -1.795809,0.5333 -4.511374,0.49828 -6.183523,-0.0797 z m 6.961243,-0.56121 c 3.69655,-1.6073 5.76047,-5.78655 6.43314,-13.02656 1.09574,-11.79347 -3.77067,-22.6931 -10.136517,-22.70343 -3.061299,-0.005 -5.64517,2.15169 -7.741725,6.46172 -2.232512,4.58952 -3.082926,9.85244 -2.55795,15.83025 0.718173,8.17773 3.000792,12.36592 7.549971,13.85283 1.611966,0.52688 4.751471,0.32507 6.453081,-0.41481 z m -4.745921,0.0568 c 0.62231,-0.0559 1.57481,-0.0551 2.116667,0.002 0.541857,0.0568 0.03269,0.10258 -1.131473,0.10162 -1.164166,-0.001 -1.607504,-0.0475 -0.985194,-0.10337 z M 7.521032,36.26798 C 7.036764,35.88 7.045206,35.87449 7.6689,36.17148 c 0.809898,0.38571 0.959998,0.50792 0.623833,0.50792 -0.14196,0 -0.489226,-0.18516 -0.771701,-0.41147 z m 7.049083,0.31502 c 0.0606,-0.0531 0.4079,-0.23821 0.7717,-0.41147 0.6237,-0.29704 0.63214,-0.29153 0.14787,0.0965 -0.42148,0.33767 -1.28266,0.63269 -0.91957,0.31502 z M 5.604727,34.72138 C 5.014448,34.081 4.284909,33.07371 3.98353,32.48296 3.142002,30.83343 3.342943,30.80525 4.246302,32.44616 c 0.440631,0.80036 1.236544,1.90169 1.768695,2.44739 0.53215,0.54571 0.899015,0.99219 0.815255,0.99219 -0.08376,0 -0.635246,-0.52394 -1.225525,-1.16432 z m 5.569902,0.98193 c 0.254661,-0.0665 0.67138,-0.0665 0.926042,0 0.254661,0.0666 0.0463,0.12101 -0.463021,0.12101 -0.509323,0 -0.717682,-0.0545 -0.463021,-0.12101 z m 5.886976,-0.87594 c 0.56839,-0.58209 1.09297,-1.05834 1.16573,-1.05834 0.0728,0 -0.33275,0.47625 -0.90114,1.05834 -0.56839,0.58208 -1.09297,1.05833 -1.16573,1.05833 -0.0728,0 0.33275,-0.47625 0.90114,-1.05833 z M 8.960689,34.59391 c -0.564963,-0.56496 -1.027206,-1.27934 -1.027206,-1.5875 0,-0.43386 -0.16419,-0.56121 -0.727604,-0.56434 -0.400182,-0.002 -0.886513,-0.10479 -1.080734,-0.2279 -0.206954,-0.13119 0.185619,-0.17208 0.948371,-0.0988 0.894905,0.086 1.563163,-0.0102 2.139068,-0.30806 0.866979,-0.44834 1.113866,-0.9487 0.4681,-0.9487 -0.502418,0 -1.964729,-1.70477 -2.172541,-2.53276 C 7.359005,27.73163 7.427833,26.79302 7.710232,25.56983 7.778272,25.27511 7.60123,25.1972 7.007442,25.2606 5.957261,25.37272 5.117362,25.93662 4.460787,26.97038 4.141556,27.473 3.986724,27.59411 4.079002,27.26901 4.185999,26.89207 4.027932,26.52833 3.570317,26.09842 3.205162,25.75537 2.9064,25.36033 2.9064,25.22055 c 0,-0.13977 0.246766,0.0596 0.54837,0.443 0.514596,0.6542 1.303713,0.95055 1.303713,0.4896 0,-0.39883 1.570385,-1.13085 2.501064,-1.16584 1.086011,-0.0408 1.064412,0.003 0.518354,-1.05291 C 7.497022,23.39124 7.387384,22.62813 7.447172,21.63244 l 0.08944,-1.48946 -1.058333,-0.0881 c -1.472719,-0.12257 -2.740973,0.61267 -3.343107,1.93811 -0.264951,0.58322 -0.4839,0.8818 -0.486552,0.66352 -0.0027,-0.21828 0.21701,-0.76064 0.488136,-1.20525 0.480967,-0.78871 0.480943,-0.82321 -9.79e-4,-1.41837 -0.27167,-0.3355 -0.483713,-0.8647 -0.471205,-1.176 0.01844,-0.45901 0.06499,-0.42526 0.246226,0.17852 0.39555,1.31774 0.730356,1.54854 1.596591,1.10059 0.414688,-0.21445 1.22513,-0.3899 1.800972,-0.3899 h 1.046985 l 0.09063,-1.45557 c 0.08393,-1.34798 0.0479,-1.45555 -0.487455,-1.45521 -0.822795,5e-4 -1.974606,-0.47682 -2.628604,-1.08935 l -0.560858,-0.5253 -0.563412,1.13824 c -0.309877,0.62602 -0.562896,0.95963 -0.562265,0.74135 6.35e-4,-0.21828 0.283401,-0.86317 0.628378,-1.43309 0.590746,-0.97594 0.644001,-1.00488 0.915537,-0.49751 0.358001,0.66893 1.855095,1.40144 2.86426,1.40144 1.999273,0 3.652328,-1.88208 3.442175,-3.91908 C 10.140873,9.23179 5.776415,8.36962 3.953092,11.35995 3.669542,11.82499 3.437101,12.08314 3.436557,11.93361 3.435157,11.5519 4.243011,10.42017 4.811336,10.00766 5.134349,9.7732 5.287651,9.31798 5.287651,8.59327 c 0,-1.84584 1.257304,-3.29526 3.116087,-3.59224 0.541725,-0.0865 1.14101,-0.37687 1.331745,-0.64516 1.262969,-1.77649 4.588012,-1.6668 5.998932,0.19791 0.71087,0.93952 0.40911,0.85052 -0.62605,-0.18464 -0.89978,-0.89978 -1.18041,-1.02721 -2.262101,-1.02721 -2.252124,0 -3.662022,1.32426 -3.662022,3.43958 0,1.11049 0.665075,2.51974 1.366257,2.895 0.424013,0.22692 0.518397,0.14722 0.659171,-0.55666 0.18311,-0.91554 1.808981,-2.60623 2.497335,-2.5969 0.25014,0.003 0.0692,0.19087 -0.41406,0.42913 -0.855755,0.42187 -1.92058,1.81262 -1.919095,2.5065 5.82e-4,0.26625 0.392189,0.36564 1.440638,0.36564 1.250617,0 1.554787,0.10887 2.314317,0.82836 0.50467,0.47805 1.29567,0.90301 1.87048,1.00489 0.87196,0.15455 1.02925,0.10081 1.26286,-0.43148 0.25468,-0.5803 0.26061,-0.57605 0.13003,0.0933 -0.1032,0.52897 0.0578,0.90968 0.65537,1.54933 0.4357,0.46642 0.79219,1.04195 0.79219,1.27895 0,0.23701 -0.21756,0.0252 -0.48347,-0.47055 -0.47876,-0.8927 -1.89352,-1.8684 -2.70917,-1.8684 -0.34778,0 -0.403,0.2464 -0.31129,1.38906 0.0912,1.13583 -0.002,1.55788 -0.50991,2.3151 -0.34176,0.50933 -1.00439,1.10464 -1.47251,1.32292 -1.016681,0.47407 -0.981414,0.72735 0.21508,1.54472 1.28653,0.87887 2.87511,0.68207 4.10329,-0.50834 0.49687,-0.48158 0.90862,-1.06061 0.91501,-1.28672 0.006,-0.22612 0.18319,0.0651 0.39289,0.64721 0.52745,1.46408 0.4814,3.02063 -0.11848,4.00441 -0.38971,0.63911 -0.43501,0.90831 -0.19745,1.17328 0.16956,0.18913 -0.0758,0.0343 -0.54526,-0.34397 -0.99991,-0.80578 -2.13745,-1.10877 -3.24748,-0.86497 -0.63807,0.14015 -0.79489,0.31293 -0.79956,0.88092 -0.003,0.38862 -0.23106,1.20268 -0.50636,1.80902 l -0.50055,1.10242 h 1.13832 c 1.42838,0 2.56844,0.57819 3.24405,1.64524 l 0.5237,0.82713 0.56687,-0.72065 c 0.31177,-0.39636 0.56686,-0.60398 0.56686,-0.46139 0,0.14259 -0.23812,0.47476 -0.52917,0.73815 -0.36323,0.32872 -0.53043,0.81863 -0.53321,1.56236 -0.002,0.59591 -0.0915,1.22093 -0.19844,1.38894 -0.10691,0.168 -0.19439,-0.39526 -0.19439,-1.25169 0,-1.38725 -0.0891,-1.64629 -0.81703,-2.37418 -0.81537,-0.81537 -2.44757,-1.39865 -2.98477,-1.06664 -0.2009,0.12416 -0.19616,0.46047 0.0162,1.15256 0.4228,1.37762 -0.0696,2.8834 -1.25104,3.82611 -0.504082,0.40221 -0.916518,0.81753 -0.916523,0.92293 -1.5e-5,0.38841 1.594853,1.00005 2.698833,1.03501 0.62569,0.0198 0.89169,0.0848 0.59111,0.1443 -0.33188,0.0657 -0.67444,0.46208 -0.87228,1.00921 -0.32857,0.90863 -1.665139,2.25089 -2.239533,2.24906 -0.170736,-5.3e-4 0.07074,-0.23341 0.536622,-0.51747 0.786921,-0.47981 1.666491,-1.73535 1.666491,-2.37882 0,-0.15275 -0.22151,-0.27772 -0.49225,-0.27772 -0.27073,0 -0.93086,-0.29766 -1.466954,-0.66146 -1.076843,-0.73077 -2.562308,-0.87376 -3.044256,-0.29305 -0.168164,0.20262 -0.658992,0.51472 -1.09073,0.69356 -0.431738,0.17883 -0.784977,0.52233 -0.784977,0.76334 0,0.64052 0.736343,1.58694 1.684526,2.16512 0.455958,0.27803 0.66618,0.50595 0.467159,0.5065 -0.199022,5.3e-4 -0.8241,-0.46126 -1.389063,-1.02622 z m 4.153345,-4.23421 c 0.857351,-0.52281 1.698611,-1.97047 1.698611,-2.92301 0,-0.3101 -0.1737,-0.97956 -0.38602,-1.4877 l -0.38601,-0.92387 -0.999129,0.5355 c -1.246183,0.66791 -2.3326,0.6794 -3.590719,0.038 -1.212,-0.61791 -1.542738,-0.32857 -1.712837,1.49848 -0.200023,2.14848 1.29383,3.75057 3.502845,3.75665 0.582083,0.002 1.42505,-0.22072 1.873259,-0.49403 z m -0.126449,-5.12875 c 2.34153,-1.56425 2.28797,-4.56501 -0.10754,-6.02564 -2.260639,-1.3784 -5.209167,0.35044 -5.209167,3.05435 0,2.80156 3.033265,4.49672 5.316707,2.97129 z m 6.71306,-4.14878 c 0.43228,-0.83594 0.53647,-2.83371 0.17731,-3.39993 -0.16546,-0.26085 -0.42506,-0.15089 -1.07323,0.45459 -1.38731,1.29594 -3.23357,1.39167 -4.83583,0.25076 L 13.22515,17.858 v 0.65117 c 0,0.35814 0.17877,0.71977 0.397265,0.80361 0.2185,0.0838 0.59485,0.56677 0.83633,1.07316 0.36006,0.75505 0.52348,0.87554 0.90825,0.66962 0.94987,-0.50835 1.85257,-0.32766 3.87063,0.7748 0.0326,0.0178 0.241,-0.31885 0.46302,-0.74819 z M 10.43413,18.54045 c 0.493663,-0.0926 1.264064,-0.0879 1.712003,0.0105 0.484829,0.10648 0.814433,0.072 0.814433,-0.0851 0,-0.14518 0.06603,-0.43604 0.146737,-0.64635 0.107395,-0.27987 -0.13539,-0.42751 -0.905566,-0.55066 -0.578767,-0.0925 -1.388939,-0.45024 -1.800383,-0.79487 L 9.653275,15.84738 8.661087,16.47768 C 7.739027,17.06343 7.6689,17.19809 7.6689,18.38294 c 0,0.70124 0.07605,1.35103 0.169011,1.44398 0.09296,0.093 0.51318,-0.12058 0.93383,-0.47454 0.420651,-0.35395 1.168725,-0.71932 1.662389,-0.81194 z m 4.278375,-2.14702 c 2.07522,-1.35974 1.80488,-4.88483 -0.46462,-6.05843 -0.61718,-0.31916 -1.213224,-0.39828 -2.157708,-0.28642 -1.179175,0.13966 -1.376242,0.0833 -2.044427,-0.58491 C 9.124493,8.54241 8.684415,7.05963 9.002784,5.94954 L 9.238484,5.1277 8.255255,5.28399 C 6.850915,5.50721 5.552233,6.96251 5.552233,8.313 v 1.01007 l 1.389063,-0.014 c 1.048548,-0.0106 1.602159,0.13799 2.258349,0.60602 0.496372,0.35404 1.051568,0.55007 1.294195,0.45696 0.339728,-0.13036 0.363226,-0.0887 0.117213,0.2077 -0.219828,0.26488 -0.230515,0.57375 -0.03742,1.08162 0.400778,1.05412 0.330129,2.03462 -0.225073,3.12361 -0.458617,0.89955 -0.463118,1.00075 -0.0607,1.36493 1.117371,1.01121 3.087528,1.11964 4.424655,0.24352 z m 3.80431,16.58185 c 0.15576,-0.29104 0.34273,-0.52916 0.41549,-0.52916 0.0728,0 0.005,0.23812 -0.15091,0.52916 -0.15576,0.29104 -0.34273,0.52917 -0.41549,0.52917 -0.0728,0 -0.005,-0.23813 0.15091,-0.52917 z m -1.82871,-0.85989 c 0.0614,-0.0364 0.52769,-0.42334 1.03628,-0.8599 l 0.92472,-0.79375 -0.7771,0.8599 c -0.42741,0.47294 -0.89374,0.85989 -1.03629,0.85989 -0.14255,0 -0.20897,-0.0298 -0.14761,-0.0661 z M 4.649711,31.1029 C 4.272973,30.65517 3.968354,30.14916 3.972779,29.97842 c 0.0044,-0.17074 0.139748,-0.0723 0.300717,0.21874 0.16097,0.29104 0.535291,0.79706 0.831825,1.12448 0.296534,0.32742 0.469452,0.59531 0.384261,0.59531 -0.08519,0 -0.463133,-0.36632 -0.839871,-0.81405 z m 14.668954,0.41717 c 0,-0.14552 0.11542,-0.44317 0.25648,-0.66145 0.14107,-0.21829 0.25648,-0.27782 0.25648,-0.1323 0,0.14553 -0.11541,0.44318 -0.25648,0.66146 -0.14106,0.21828 -0.25648,0.27782 -0.25648,0.13229 z M 3.071378,30.45151 C 2.980638,30.21505 2.913947,29.8825 2.923171,29.7125 c 0.0092,-0.17 0.130844,-0.0239 0.270267,0.32463 0.139423,0.34855 0.206116,0.68111 0.148207,0.73902 -0.05791,0.0579 -0.179529,-0.0882 -0.270267,-0.32464 z m 16.789247,-0.54098 c 0.0127,-0.30823 0.0754,-0.37092 0.15985,-0.15986 0.0764,0.191 0.067,0.4192 -0.0209,0.50712 -0.0879,0.0879 -0.15045,-0.0684 -0.13896,-0.34726 z M 3.761534,28.74195 c 0,-0.50932 0.05445,-0.71768 0.121,-0.46302 0.06655,0.25466 0.06655,0.67138 0,0.92604 -0.06655,0.25466 -0.121,0.0463 -0.121,-0.46302 z M 2.398121,27.79386 c 0.0127,-0.30823 0.07539,-0.37092 0.159853,-0.15985 0.07643,0.19099 0.06703,0.41919 -0.02089,0.50712 -0.08792,0.0879 -0.150453,-0.0684 -0.138963,-0.34727 z m 17.991664,0 c 0.0127,-0.30823 0.0754,-0.37092 0.15986,-0.15985 0.0764,0.19099 0.067,0.41919 -0.0209,0.50712 -0.0879,0.0879 -0.15046,-0.0684 -0.13897,-0.34727 z M 2.154426,26.3607 c 0,-0.3638 0.06005,-0.51263 0.133452,-0.33073 0.0734,0.1819 0.0734,0.47956 0,0.66146 -0.0734,0.1819 -0.133452,0.0331 -0.133452,-0.33073 z m 18.530639,-0.13229 c 0.005,-0.43656 0.0647,-0.58313 0.13177,-0.3257 0.0671,0.25744 0.0627,0.61462 -0.01,0.79375 -0.0725,0.17913 -0.12736,-0.0315 -0.12197,-0.46805 z m -0.50507,-1.5875 c 0.002,-0.72761 0.0534,-0.99386 0.11418,-0.59168 0.0608,0.40219 0.0592,0.9975 -0.004,1.32292 -0.0628,0.32542 -0.11256,-0.004 -0.11057,-0.73124 z M 1.91479,24.3763 c 0.0029,-0.58208 0.05712,-0.78905 0.120406,-0.45993 0.06329,0.32912 0.06088,0.80537 -0.0053,1.05833 -0.06622,0.25297 -0.118004,-0.0163 -0.115067,-0.5984 z m 19.058955,-0.52916 c 0.002,-0.72761 0.0534,-0.99386 0.11418,-0.59168 0.0608,0.40219 0.0592,0.9975 -0.004,1.32292 -0.0628,0.32542 -0.11256,-0.004 -0.11057,-0.73124 z m -18.31104,0.50712 c 0.01269,-0.30823 0.07539,-0.37092 0.159852,-0.15986 0.07643,0.191 0.06703,0.4192 -0.02089,0.50712 -0.08792,0.0879 -0.150453,-0.0684 -0.138964,-0.34726 z M 1.665469,20.40755 c 0.0015,-0.87312 0.05088,-1.19841 0.109766,-0.72286 0.05889,0.47555 0.05767,1.18992 -0.0027,1.5875 -0.06037,0.39758 -0.108552,0.008 -0.107066,-0.86464 z m 19.304656,-3.30729 c 0,-0.65484 0.0516,-0.92273 0.11467,-0.59531 0.0631,0.32742 0.0631,0.8632 0,1.19063 -0.0631,0.32742 -0.11467,0.0595 -0.11467,-0.59532 z M 1.91479,16.70339 c 0.0029,-0.58209 0.05712,-0.78906 0.120406,-0.45994 0.06329,0.32912 0.06088,0.80537 -0.0053,1.05834 -0.06622,0.25296 -0.118004,-0.0163 -0.115067,-0.5984 z m 17.976525,-1.32292 c 0.005,-0.43656 0.0647,-0.58312 0.13177,-0.32569 0.0671,0.25743 0.0627,0.61462 -0.01,0.79375 -0.0725,0.17913 -0.12736,-0.0315 -0.12197,-0.46806 z m 0.78394,-0.39687 c 0,-0.36381 0.0601,-0.51263 0.13346,-0.33073 0.0734,0.1819 0.0734,0.47955 0,0.66146 -0.0734,0.1819 -0.13346,0.0331 -0.13346,-0.33073 z M 2.154426,14.71901 c 0,-0.3638 0.06005,-0.51263 0.133452,-0.33073 0.0734,0.1819 0.0734,0.47956 0,0.66146 -0.0734,0.1819 -0.133452,0.0331 -0.133452,-0.33073 z m 18.235359,-1.21267 c 0.0127,-0.30822 0.0754,-0.37092 0.15986,-0.15985 0.0764,0.19099 0.067,0.4192 -0.0209,0.50712 -0.0879,0.0879 -0.15046,-0.0684 -0.13897,-0.34727 z M 2.398121,13.24176 c 0.0127,-0.30823 0.07539,-0.37092 0.159853,-0.15986 0.07643,0.191 0.06703,0.4192 -0.02089,0.50712 -0.08792,0.0879 -0.150453,-0.0683 -0.138963,-0.34726 z m 0.824443,-0.24254 c 0.0054,-0.43656 0.06469,-0.58312 0.131773,-0.32569 0.06708,0.25743 0.06267,0.61462 -0.0098,0.79375 -0.07248,0.17913 -0.127363,-0.0315 -0.12197,-0.46806 z m 16.902641,-0.55121 c 0.0127,-0.30823 0.0754,-0.37092 0.15985,-0.15986 0.0764,0.191 0.067,0.4192 -0.0209,0.50712 -0.0879,0.0879 -0.15045,-0.0684 -0.13896,-0.34726 z m -17.4625,-0.26459 c 0.01269,-0.30822 0.07539,-0.37092 0.159852,-0.15985 0.07643,0.191 0.06703,0.4192 -0.02089,0.50712 -0.08792,0.0879 -0.150453,-0.0684 -0.138964,-0.34727 z m 17.19792,-0.79375 c 0.0127,-0.30822 0.0754,-0.37092 0.15985,-0.15985 0.0764,0.191 0.067,0.4192 -0.0209,0.50712 -0.0879,0.0879 -0.15045,-0.0683 -0.13896,-0.34727 z m -0.64966,-1.84026 c -0.25532,-0.66535 -0.18,-0.83702 0.1319,-0.30066 0.15443,0.26558 0.22505,0.5386 0.15693,0.60673 -0.0681,0.0681 -0.1981,-0.0696 -0.28883,-0.30607 z m -0.95873,-0.51476 c 0,-0.77627 -1.45184,-2.03524 -2.78703,-2.41679 -1.09999,-0.31434 -1.15497,-0.35626 -0.33753,-0.2574 0.7553,0.0914 1.00305,0.0176 1.09378,-0.32573 0.10493,-0.39701 0.12055,-0.39827 0.148,-0.012 0.0169,0.23754 0.50694,0.90814 1.08903,1.49023 0.89755,0.89755 1.38941,1.91434 0.92604,1.91434 -0.0728,0 -0.13229,-0.17672 -0.13229,-0.3927 z M 3.70015,9.06575 c 0,-0.28666 1.314941,-2.81342 1.464123,-2.81342 0.07276,0 -0.181694,0.62507 -0.565454,1.38906 C 3.860758,9.11071 3.70015,9.36527 3.70015,9.06575 Z M 18.136955,7.12363 c -0.14359,-0.37708 -0.1132,-0.40747 0.14811,-0.14811 0.18082,0.17948 0.26211,0.39297 0.18065,0.47443 -0.0815,0.0815 -0.2294,-0.0654 -0.32876,-0.32632 z m -0.93594,-1.52125 c -0.31086,-0.50298 -1.18378,-1.47355 -1.93981,-2.15681 -0.75603,-0.68326 -1.13148,-1.11424 -0.83435,-0.95772 0.65796,0.34658 2.84204,2.65127 3.26958,3.45014 0.49165,0.91865 0.12716,0.67174 -0.49542,-0.33561 z M 6.213692,4.66483 c 0.263389,-0.29105 0.53842,-0.52917 0.61118,-0.52917 0.07276,0 -0.08321,0.23812 -0.346597,0.52917 -0.263389,0.29104 -0.538421,0.52916 -0.611181,0.52916 -0.07276,0 0.08321,-0.23812 0.346598,-0.52916 z m 1.5875,-1.5875 c 0.263389,-0.29105 0.53842,-0.52917 0.61118,-0.52917 0.07276,0 -0.08321,0.23812 -0.346597,0.52917 -0.263389,0.29104 -0.538421,0.52916 -0.611181,0.52916 -0.07276,0 0.08321,-0.23812 0.346598,-0.52916 z M 12.828275,2.01899 C 12.479358,1.86906 12.434296,1.78665 12.695983,1.77706 c 0.218281,-0.008 0.575469,0.10087 0.793752,0.24193 0.48365,0.31256 0.0659,0.31256 -0.66146,0 z M 10.00054,1.83825 c 0.190997,-0.0764 0.4192,-0.067 0.507119,0.0209 0.08792,0.0879 -0.06835,0.15045 -0.347266,0.13897 C 9.852168,1.98542 9.789474,1.92272 10.00054,1.83826 Z m 1.322917,-0.26458 c 0.190996,-0.0764 0.419199,-0.067 0.507118,0.0209 0.08792,0.0879 -0.06835,0.15045 -0.347265,0.13896 -0.308225,-0.0127 -0.37092,-0.0754 -0.159853,-0.15985 z"
     style="fill:#8c8c8c;fill-opacity:1;stroke-width:0.26458332"
     inkscape:connector-curvature="0" />
  <path
     id="path47"
     d="M 8.567505,37.64229 C 3.846965,36.09885 1.277269,30.85807 0.89524,21.99505 0.701079,17.49054 1.167556,13.99242 2.469467,10.1899 4.510695,4.22805 7.742147,0.92288 11.529809,0.92288 c 3.040566,0 5.697236,2.22365 7.789766,6.52009 2.34495,4.81472 3.20589,9.9603 2.68811,16.06592 -0.64,7.54669 -2.61198,11.7898 -6.32316,13.6055 -1.2083,0.59117 -1.92047,0.74381 -3.760902,0.80608 -1.390723,0.0471 -2.69102,-0.0607 -3.356118,-0.27818 z m 6.79708,-0.66276 c 3.87524,-1.85932 5.99657,-6.61906 6.46408,-14.5038 0.32126,-5.41812 -0.60091,-10.56084 -2.64815,-14.76818 -2.07216,-4.25855 -4.73923,-6.52008 -7.689256,-6.52008 -1.977454,0 -3.491558,0.77964 -5.217049,2.68637 -3.541632,3.91363 -5.518704,10.99571 -5.127121,18.36588 0.466186,8.77433 2.982229,13.6705 7.844728,15.26569 1.26854,0.41615 5.061758,0.10314 6.372768,-0.52588 z m -5.380581,0.0538 c 0.181901,-0.0734 0.479557,-0.0734 0.661458,0 0.181901,0.0734 0.03307,0.13345 -0.330729,0.13345 -0.363802,0 -0.51263,-0.0601 -0.330729,-0.13345 z m 2.38125,0 c 0.181901,-0.0734 0.479557,-0.0734 0.661458,0 0.181901,0.0734 0.03307,0.13345 -0.330729,0.13345 -0.363802,0 -0.51263,-0.0601 -0.330729,-0.13345 z m 2.711981,-0.72251 c 0,-0.0572 0.18478,-0.17489 0.41062,-0.26155 0.23545,-0.0904 0.34166,-0.046 0.24896,0.10398 -0.15538,0.25141 -0.65958,0.37186 -0.65958,0.15757 z M 5.672076,34.76116 4.626192,33.63668 5.750671,34.68257 c 1.045754,0.97266 1.246062,1.20307 1.045884,1.20307 -0.04323,0 -0.549243,-0.50602 -1.124479,-1.12448 z m 5.502553,0.94209 c 0.254661,-0.0665 0.67138,-0.0665 0.926042,0 0.254661,0.0666 0.0463,0.12101 -0.463021,0.12101 -0.509323,0 -0.717682,-0.0545 -0.463021,-0.12101 z m 4.960936,0.0825 c 0,-0.0549 0.20836,-0.2633 0.46302,-0.46302 0.41965,-0.3291 0.429,-0.31975 0.0999,0.0999 -0.34565,0.44073 -0.56292,0.58089 -0.56292,0.36312 z M 13.092858,35.3123 c 0.291042,-0.16097 0.773027,-0.48477 1.071077,-0.71956 0.29805,-0.23478 0.20688,-0.0995 -0.20261,0.30072 -0.40949,0.40018 -0.891473,0.72399 -1.071079,0.71956 -0.179605,-0.004 -0.08843,-0.13975 0.202612,-0.30072 z M 8.862169,34.56549 C 8.44537,34.13045 8.155204,33.73225 8.217355,33.68061 c 0.06215,-0.0516 0.452152,0.30431 0.866667,0.79099 0.935904,1.09885 0.7972,1.15755 -0.221853,0.0939 z m 8.596316,-0.10265 c 0,-0.0549 0.20836,-0.2633 0.46302,-0.46302 0.41964,-0.32911 0.429,-0.31975 0.0999,0.0999 -0.34564,0.44073 -0.56291,0.58089 -0.56291,0.36313 z m -2.46692,-1.28917 c 0.11713,-0.59581 0.0487,-0.7276 -0.37789,-0.7276 -0.28651,0 -0.95955,-0.29766 -1.495645,-0.66146 -1.13874,-0.77277 -2.413602,-0.85307 -3.150672,-0.19844 -0.507372,0.45062 -0.51154,0.44708 -0.155626,-0.13229 0.283721,-0.46186 0.610081,-0.59531 1.455766,-0.59531 0.728388,0 1.415667,-0.22097 2.071429,-0.66598 0.539758,-0.36629 0.900568,-0.53523 0.801798,-0.37543 -0.0988,0.1598 -0.54095,0.51032 -0.982641,0.77893 l -0.803079,0.48838 0.898093,0.54752 c 0.512927,0.3127 1.408727,0.56339 2.088717,0.58453 0.65485,0.0204 0.94378,0.0859 0.64207,0.14556 -0.3017,0.0597 -0.68058,0.43043 -0.84196,0.82386 l -0.2934,0.71533 z M 6.544421,32.27084 c 0.181901,-0.0734 0.479557,-0.0734 0.661458,0 0.181901,0.0734 0.03307,0.13345 -0.330729,0.13345 -0.363802,0 -0.51263,-0.06 -0.330729,-0.13345 z m 1.322916,0 c 0.181901,-0.0734 0.479558,-0.0734 0.661459,0 0.181901,0.0734 0.03307,0.13345 -0.330729,0.13345 -0.363803,0 -0.512631,-0.06 -0.33073,-0.13345 z M 4.649711,31.10285 C 4.272973,30.65512 3.968354,30.14911 3.972779,29.97837 c 0.0044,-0.17074 0.139748,-0.0723 0.300717,0.21874 0.16097,0.29104 0.535291,0.79706 0.831825,1.12448 0.296534,0.32742 0.469452,0.59531 0.384261,0.59531 -0.08519,0 -0.463133,-0.36632 -0.839871,-0.81405 z m 13.073354,0.15259 c 0.34178,-0.3638 0.68094,-0.66146 0.7537,-0.66146 0.0728,0 -0.14734,0.29766 -0.48912,0.66146 -0.34177,0.3638 -0.68093,0.66146 -0.75369,0.66146 -0.0728,0 0.14734,-0.29766 0.48911,-0.66146 z M 8.541834,29.9987 C 7.325605,28.66339 7.098361,27.34052 7.797691,25.66679 8.074639,25.00396 8.113793,24.58093 7.929983,24.23747 7.786387,23.96916 7.673667,23.65251 7.679493,23.5338 c 0.0058,-0.1187 0.191347,0.11755 0.412267,0.52503 0.220921,0.40746 0.781701,0.97257 1.246178,1.25578 0.464477,0.28321 0.722168,0.51537 0.572646,0.51591 C 9.761062,25.83105 9.386872,25.65511 9.079049,25.4395 8.377466,24.94809 7.98138,25.33134 7.7561,26.71958 c -0.201469,1.24151 0.03346,2.07529 0.862284,3.06029 0.789634,0.93843 0.73115,1.10561 -0.07655,0.21883 z m 10.285791,-1.21595 c -0.0613,-1.52391 -0.72014,-2.57201 -2.02198,-3.21642 -0.58682,-0.29048 -0.90241,-0.52824 -0.70131,-0.52836 0.61721,-2.6e-4 2.0288,1.00266 2.40784,1.71091 0.34666,0.64773 0.37802,0.65489 0.90944,0.20748 0.53849,-0.45336 0.54078,-0.45192 0.10581,0.0663 -0.24453,0.2913 -0.49162,1.06521 -0.54909,1.71979 l -0.10449,1.19014 z M 3.761534,28.74195 c 0,-0.50932 0.05445,-0.71768 0.121,-0.46302 0.06655,0.25466 0.06655,0.67138 0,0.92604 -0.06655,0.25466 -0.121,0.0463 -0.121,-0.46302 z m 10.715411,-0.0212 c 0.0936,-0.35777 0.2135,-0.47771 0.27955,-0.27955 0.0636,0.19089 -0.0101,0.47286 -0.16386,0.62661 -0.19634,0.19634 -0.23077,0.093 -0.11569,-0.34706 z m 5.91284,-0.92688 c 0.0127,-0.30823 0.0754,-0.37092 0.15986,-0.15985 0.0764,0.19099 0.067,0.41919 -0.0209,0.50712 -0.0879,0.0879 -0.15046,-0.0684 -0.13897,-0.34727 z m -5.53536,-0.37482 c 0,-0.3638 0.0601,-0.51263 0.13345,-0.33073 0.0734,0.1819 0.0734,0.47956 0,0.66146 -0.0734,0.1819 -0.13345,0.0331 -0.13345,-0.33073 z M 2.133538,26.47096 c 0.0127,-0.30822 0.07539,-0.37092 0.159853,-0.15985 0.07643,0.19099 0.06703,0.4192 -0.02089,0.50712 -0.08792,0.0879 -0.150453,-0.0684 -0.138965,-0.34727 z M 3.679598,26.15447 3.05232,25.43468 3.696127,26.0265 4.339934,26.61833 5.075615,25.9135 c 0.404625,-0.38765 0.777933,-0.65398 0.829573,-0.59183 0.05164,0.0622 -0.286854,0.43691 -0.752211,0.8328 l -0.846102,0.71979 z m 16.995657,0.20625 c 0,-0.3638 0.0601,-0.51263 0.13346,-0.33073 0.0734,0.1819 0.0734,0.47956 0,0.66146 -0.0734,0.1819 -0.13346,0.0331 -0.13346,-0.33073 z m -6.31757,-0.54715 c -0.27673,-0.73315 -0.36559,-0.78296 -0.917901,-0.51457 -0.52216,0.25374 -0.548749,0.24602 -0.18198,-0.0528 0.236241,-0.19251 0.682281,-0.76462 0.991201,-1.27137 0.64806,-1.06309 0.75664,-0.87142 0.15998,0.2824 -0.30944,0.59839 -0.32488,0.78073 -0.0661,0.78114 0.1861,2.6e-4 0.36242,0.35639 0.39302,0.79375 0.0699,0.99878 0.005,0.99558 -0.37817,-0.0185 z m -4.020903,0.18668 c 0.06063,-0.0527 0.639836,-0.16364 1.287117,-0.24644 0.761361,-0.0974 1.041606,-0.065 0.79375,0.0918 -0.353594,0.2237 -2.329052,0.37047 -2.080867,0.1546 z m 9.788423,-0.58762 c 0.0127,-0.30823 0.0754,-0.37092 0.15985,-0.15985 0.0764,0.19099 0.067,0.41919 -0.0209,0.50712 -0.0879,0.0879 -0.15045,-0.0684 -0.13896,-0.34727 z M 6.560957,25.12165 c 0.190996,-0.0764 0.419199,-0.067 0.507118,0.0209 0.08792,0.0879 -0.06835,0.15045 -0.347265,0.13897 -0.308225,-0.0127 -0.37092,-0.0754 -0.159853,-0.15985 z m -4.66131,-0.74531 c 0.0054,-0.43656 0.06469,-0.58312 0.131773,-0.32569 0.06708,0.25743 0.06267,0.61462 -0.0098,0.79375 -0.07248,0.17913 -0.127363,-0.0315 -0.121971,-0.46806 z m 19.065138,-0.52916 c 0.003,-0.58209 0.0571,-0.78906 0.12041,-0.45994 0.0633,0.32912 0.0609,0.80537 -0.005,1.05834 -0.0662,0.25296 -0.118,-0.0163 -0.11507,-0.5984 z m -0.83958,-0.022 c 0.0127,-0.30823 0.0754,-0.37092 0.15985,-0.15986 0.0764,0.191 0.067,0.4192 -0.0209,0.50712 -0.0879,0.0879 -0.15045,-0.0684 -0.13896,-0.34726 z M 7.47104,22.25972 c 0.0029,-0.58209 0.05712,-0.78906 0.120406,-0.45994 0.06329,0.32912 0.06088,0.80537 -0.0053,1.05834 -0.06622,0.25296 -0.118004,-0.0163 -0.115067,-0.5984 z m 7.380265,0 c -0.0432,-0.84468 -0.89737,-2.44153 -1.568369,-2.93218 -0.286827,-0.20973 -0.355935,-0.53801 -0.237706,-1.12916 0.145977,-0.72988 0.09354,-0.83727 -0.422007,-0.86415 -0.449079,-0.0234 -0.478696,-0.0594 -0.124879,-0.15184 0.285288,-0.0745 0.7945,0.21581 1.322921,0.75426 0.79961,0.8148 0.80871,0.84321 0.13149,0.41033 -0.724385,-0.46303 -0.727605,-0.46213 -0.727605,0.20247 0,0.36716 0.112314,0.66756 0.249585,0.66756 0.13727,0 0.52423,0.45734 0.8599,1.01631 0.37624,0.62655 0.76251,0.97397 1.00718,0.9059 0.26729,-0.0744 0.29669,-0.0388 0.09,0.10903 -0.16877,0.12069 -0.35929,0.57624 -0.42338,1.01233 l -0.11652,0.79289 z m 4.5783,0.11084 c -0.0972,-0.15731 -0.55074,-0.51405 -1.0078,-0.79276 -0.45707,-0.2787 -0.70869,-0.50717 -0.55917,-0.50772 0.14952,-5.5e-4 0.5386,0.18585 0.86463,0.41421 0.57498,0.40273 0.60834,0.38089 1.11139,-0.72761 0.28524,-0.62854 0.52079,-0.9642 0.52344,-0.74592 0.003,0.21828 -0.22276,0.77011 -0.50092,1.22628 -0.372,0.61007 -0.42772,0.90744 -0.21068,1.12448 0.16229,0.16229 0.21875,0.29507 0.12548,0.29507 -0.0933,0 -0.24914,-0.12871 -0.34637,-0.28603 z M 3.521465,20.895 c 0.09575,-0.0958 0.0263,-0.36364 -0.15434,-0.59531 -0.290127,-0.37209 -0.27477,-0.37915 0.131674,-0.0605 0.41392,0.32449 0.419612,0.82991 0.0093,0.82991 -0.08843,0 -0.08243,-0.0783 0.01332,-0.17409 z m 4.206993,-0.22278 c 0.06261,-0.45551 -0.100955,-0.54034 -1.175031,-0.60944 -0.686271,-0.0442 -1.519708,0.0517 -1.852083,0.21303 -0.578592,0.28082 -0.582454,0.27579 -0.09073,-0.11816 0.283044,-0.22677 1.017089,-0.41147 1.635243,-0.41147 0.952833,0 1.138911,-0.0896 1.236316,-0.59532 0.09831,-0.51042 0.1198,-0.49155 0.150693,0.1323 0.04211,0.8504 0.194488,0.89324 0.94124,0.26458 0.536661,-0.45179 0.539668,-0.45019 0.124017,0.0661 -0.234291,0.29105 -0.564677,0.7673 -0.734192,1.05834 l -0.308208,0.52916 z m 8.473257,0.21449 c 0.25466,-0.0666 0.67138,-0.0666 0.92604,0 0.25466,0.0665 0.0463,0.121 -0.46302,0.121 -0.50932,0 -0.71768,-0.0545 -0.46302,-0.121 z M 1.604371,20.121 c 0.0127,-0.30822 0.07539,-0.37092 0.159853,-0.15985 0.07643,0.191 0.06703,0.4192 -0.02089,0.50712 -0.08792,0.0879 -0.150453,-0.0684 -0.138963,-0.34727 z m 7.81843,-1.15064 c 0.16428,-0.17835 0.819124,-0.37114 1.455208,-0.42841 l 1.156516,-0.10414 -1.128544,0.24421 c -0.620698,0.13431 -1.275542,0.32709 -1.455208,0.42841 -0.245358,0.13836 -0.25232,0.1035 -0.02797,-0.14007 z m 6.519364,0.0633 c 0.25743,-0.0671 0.61462,-0.0627 0.79375,0.01 0.17913,0.0725 -0.0315,0.12736 -0.46806,0.12197 -0.43656,-0.005 -0.58312,-0.0647 -0.32569,-0.13177 z m 4.18304,-0.50016 c 0.0127,-0.30822 0.0754,-0.37092 0.15985,-0.15985 0.0764,0.191 0.067,0.4192 -0.0209,0.50712 -0.0879,0.0879 -0.15045,-0.0684 -0.13896,-0.34727 z m -1.40762,-0.6163 c 0.47166,-0.47166 0.85756,-1.04684 0.85756,-1.27818 0,-0.59434 0.1596,-0.33668 0.3677,0.59361 0.13285,0.59393 0.1077,0.69384 -0.0999,0.39688 -0.24269,-0.34714 -0.31142,-0.33926 -0.54853,0.0629 -0.14909,0.25288 -0.53282,0.59986 -0.85272,0.77107 -0.41171,0.22033 -0.33109,0.0607 0.27591,-0.54628 z M 7.461104,17.57719 c 0.114801,-0.63458 0.03809,-0.72528 -0.691434,-0.81755 -0.756112,-0.0956 -0.742236,-0.1071 0.176667,-0.14612 0.960315,-0.0408 0.990767,-0.0154 0.822675,0.68526 -0.232123,0.96758 -0.471788,1.18429 -0.307908,0.27841 z m 13.498351,-0.47685 c 0,-0.50932 0.0545,-0.71768 0.121,-0.46302 0.0666,0.25466 0.0666,0.67138 0,0.92604 -0.0665,0.25467 -0.121,0.0463 -0.121,-0.46302 z M 1.899647,16.70347 c 0.0054,-0.43656 0.06469,-0.58313 0.131773,-0.3257 0.06708,0.25744 0.06267,0.61462 -0.0098,0.79375 -0.07248,0.17914 -0.127363,-0.0315 -0.121971,-0.46805 z m 0.74217,0.22696 c 0,-0.14196 0.185162,-0.48923 0.411471,-0.7717 0.387979,-0.48427 0.393486,-0.47583 0.09645,0.14786 -0.385712,0.8099 -0.507923,0.96 -0.507923,0.62384 z m 7.752489,-0.46519 C 9.725725,15.90267 9.581659,15.87245 9.132811,16.20066 c -0.278694,0.20378 -0.632789,0.36575 -0.786877,0.35992 -0.154087,-0.006 0.05323,-0.19134 0.460695,-0.41226 0.407469,-0.22092 0.972571,-0.7817 1.255781,-1.24618 0.283211,-0.46448 0.515374,-0.72217 0.515917,-0.57265 5.56e-4,0.14952 -0.173826,0.52144 -0.387489,0.82649 -0.346614,0.49486 -0.338899,0.5995 0.07159,0.97098 0.253035,0.229 0.755272,0.53414 1.116082,0.6781 0.426163,0.17003 0.500898,0.26762 0.213297,0.27851 -0.243496,0.009 -0.78237,-0.26902 -1.197498,-0.61833 z m 3.095429,0.53367 c 0,-0.0558 0.23829,-0.16375 0.52953,-0.23991 0.29124,-0.0762 0.46281,-0.0305 0.38126,0.10143 -0.14241,0.23043 -0.91079,0.34726 -0.91079,0.13848 z M 5.157231,16.30962 c -0.09269,-0.14998 0.01351,-0.19433 0.248969,-0.10398 0.458368,0.17589 0.542233,0.36554 0.161648,0.36554 -0.136933,0 -0.32171,-0.1177 -0.410617,-0.26156 z m 10.283584,-0.63526 c 0.46958,-0.69557 0.70917,-1.42448 0.73923,-2.24896 0.0439,-1.20294 0.0459,-1.20562 0.15029,-0.19362 0.12142,1.17758 -0.26906,2.29363 -1.04598,2.98954 -0.41271,0.36967 -0.37621,0.24207 0.15646,-0.54696 z M 4.231734,15.64806 C 4.051907,15.43138 3.800567,15.3185 3.673202,15.39722 c -0.127366,0.0787 -0.160668,-0.0417 -0.07401,-0.2675 0.205318,-0.53505 0.228254,-0.52725 0.738082,0.25084 0.475965,0.72642 0.411314,0.89027 -0.105544,0.2675 z m 15.659581,-0.2675 c 0.005,-0.43656 0.0647,-0.58312 0.13177,-0.32569 0.0671,0.25743 0.0627,0.61462 -0.01,0.79375 -0.0725,0.17913 -0.12736,-0.0315 -0.12197,-0.46806 z m 0.76306,-0.28663 c 0.0127,-0.30822 0.0754,-0.37092 0.15985,-0.15985 0.0764,0.19099 0.067,0.4192 -0.0209,0.50712 -0.0879,0.0879 -0.15045,-0.0684 -0.13896,-0.34727 z M 2.133538,14.56476 c 0.0127,-0.30822 0.07539,-0.37092 0.159853,-0.15985 0.07643,0.191 0.06703,0.4192 -0.02089,0.50712 -0.08792,0.0879 -0.150453,-0.0684 -0.138965,-0.34727 z M 10.61896,13.21497 C 10.56197,12.00352 10.160385,11.09575 9.325241,10.29056 L 8.594942,9.58645 9.343921,10.05621 c 0.953369,0.59796 1.898482,0.36163 1.018553,-0.2547 C 10.047426,9.58084 9.651218,9.13851 9.48201,8.81855 9.293265,8.46165 9.5117,8.59472 10.047174,9.16285 c 0.81614,0.86591 0.886319,0.89168 1.080758,0.39688 0.188431,-0.47952 0.209687,-0.4835 0.226538,-0.0424 0.01023,0.26771 -0.22427,0.68443 -0.521106,0.92604 -0.470631,0.38307 -0.502013,0.54694 -0.245208,1.28051 0.161972,0.46268 0.244084,1.17705 0.182471,1.5875 -0.10983,0.73166 -0.112801,0.72977 -0.151667,-0.0964 z m 9.770825,0.29146 c 0.0127,-0.30822 0.0754,-0.37092 0.15986,-0.15985 0.0764,0.19099 0.067,0.4192 -0.0209,0.50712 -0.0879,0.0879 -0.15046,-0.0684 -0.13897,-0.34727 z M 3.222564,12.99931 c 0.0054,-0.43656 0.06469,-0.58312 0.131773,-0.32569 0.06708,0.25743 0.06267,0.61462 -0.0098,0.79375 -0.07248,0.17913 -0.127363,-0.0315 -0.12197,-0.46806 z m 15.841881,0.16678 c -0.32385,-0.6051 -2.02297,-1.44597 -2.62321,-1.29818 -0.26485,0.0652 -0.74667,-0.26506 -1.21899,-0.83559 l -0.78102,-0.94343 0.78102,0.69556 c 1.03493,0.92168 2.62037,1.22126 3.01565,0.56983 0.23949,-0.39466 0.2608,-0.35874 0.13058,0.22011 -0.10789,0.4796 -0.0332,0.73873 0.24364,0.84495 0.37894,0.14541 1.12881,1.24143 0.84936,1.24143 -0.0728,0 -0.25143,-0.22261 -0.39703,-0.49468 z M 4.794099,10.04611 C 5.027575,9.7786 5.263902,9.42263 5.319271,9.25507 c 0.07438,-0.2251 0.177546,-0.22091 0.395026,0.016 0.222168,0.24205 0.09337,0.43605 -0.525172,0.79104 -0.794017,0.45571 -0.806314,0.45521 -0.395026,-0.016 z m 7.901884,-0.0895 -1.190625,-0.1851 1.058333,-0.0357 c 0.582084,-0.0196 1.236924,0.0797 1.455204,0.22079 0.21829,0.14107 0.27782,0.24042 0.1323,0.2208 -0.14552,-0.0196 -0.800368,-0.11899 -1.455212,-0.2208 z M 6.681748,9.24409 c 0.257431,-0.0671 0.614618,-0.0627 0.79375,0.01 C 7.654629,9.32659 7.444008,9.38145 7.007442,9.37606 6.570879,9.37106 6.424317,9.31136 6.681748,9.24428 Z M 18.252235,9.06625 c 0,-0.58952 -1.085,-1.79132 -1.96194,-2.17314 -0.4489,-0.19545 -0.67609,-0.36003 -0.50486,-0.36572 0.17123,-0.006 0.36578,-0.21872 0.43233,-0.47338 0.10263,-0.39273 0.12566,-0.39746 0.15169,-0.0311 0.0169,0.23754 0.50694,0.90814 1.08903,1.49023 0.89755,0.89755 1.38941,1.91434 0.92604,1.91434 -0.0728,0 -0.13229,-0.16254 -0.13229,-0.3612 z M 11.381112,8.75871 C 11.367882,8.31158 12.153129,7.33523 12.775698,7.02474 13.259841,6.78328 13.240111,6.83843 12.658101,7.35342 12.273464,7.69377 11.8306,8.21036 11.673959,8.5014 11.517318,8.79245 11.385537,8.90824 11.381112,8.75871 Z M 5.308538,7.95019 C 5.321238,7.64197 5.383928,7.57927 5.46839,7.79034 5.54482,7.98133 5.53542,8.20954 5.4475,8.29746 5.35958,8.38536 5.297047,8.22906 5.308535,7.95019 Z M 9.012705,7.68561 c 0.01269,-0.30823 0.07539,-0.37092 0.159852,-0.15986 0.07643,0.191 0.06703,0.4192 -0.02089,0.50712 C 9.063747,8.12077 9.001214,7.96447 9.012703,7.68561 Z M 4.758483,6.78161 C 4.914244,6.49057 5.101216,6.25245 5.173976,6.25245 c 0.07276,0 0.0048,0.23812 -0.150909,0.52916 -0.155761,0.29104 -0.342733,0.52917 -0.415494,0.52917 -0.07276,0 -0.0048,-0.23813 0.15091,-0.52917 z m 0.79375,0.34108 c 0,-0.15196 0.20836,-0.43969 0.463021,-0.63941 C 6.44355,6.14739 6.449165,6.15984 6.090124,6.64932 5.87664,6.94036 5.66828,7.2281 5.627103,7.28873 5.585923,7.34933 5.552233,7.27463 5.552233,7.12269 Z M 14.481925,6.3418 c 0.1819,-0.0734 0.47955,-0.0734 0.66145,0 0.1819,0.0734 0.0331,0.13345 -0.33073,0.13345 -0.3638,0 -0.51263,-0.06 -0.33072,-0.13345 z M 9.092531,5.80424 C 9.177511,5.34139 9.057451,5.20572 8.500152,5.13484 7.907031,5.05944 7.948343,5.02551 8.77298,4.91096 9.586031,4.79802 9.710722,4.84256 9.536337,5.18348 9.421699,5.40761 9.250965,5.76958 9.156927,5.98786 9.060297,6.21217 9.032292,6.13233 9.092527,5.80424 Z M 5.816817,5.09422 c 0,-0.0549 0.208359,-0.2633 0.46302,-0.46302 C 6.699481,4.30209 6.70884,4.31145 6.379737,4.7311 6.034094,5.17183 5.816822,5.31199 5.816822,5.09423 Z m 9.909428,-1.28917 -1.04589,-1.12448 1.12448,1.04589 c 1.04576,0.97266 1.24606,1.20307 1.04589,1.20307 -0.0432,0 -0.54925,-0.50602 -1.12448,-1.12448 z m -1.29489,-0.0746 c -0.28248,-0.21365 -0.38635,-0.38846 -0.23084,-0.38846 0.15552,0 0.43098,0.17859 0.61213,0.39687 0.41202,0.49645 0.2824,0.49359 -0.38129,-0.008 z M 10.960615,3.4939 c 0.282475,-0.22907 0.758725,-0.40626 1.058334,-0.39375 0.437124,0.0182 0.405094,0.0649 -0.162133,0.23616 -0.388782,0.11737 -0.865032,0.29456 -1.058334,0.39375 -0.193301,0.0992 -0.120342,-0.007 0.162133,-0.23616 z M 7.6689,3.2421 c 0,-0.0549 0.208359,-0.26331 0.463021,-0.46303 0.419644,-0.3291 0.429002,-0.31974 0.09989,0.0999 C 7.886168,3.3197 7.668896,3.45986 7.668896,3.2421 Z m 5.225521,-0.0753 c 0.181901,-0.0734 0.479557,-0.0734 0.661454,0 0.18191,0.0734 0.0331,0.13345 -0.330725,0.13345 -0.363802,0 -0.51263,-0.06 -0.330729,-0.13345 z"
     style="fill:#767676;fill-opacity:1;stroke-width:0.26458332"
     inkscape:connector-curvature="0" />
  <path
     id="path45"
     d="m 10.507269,37.81139 c 0.469697,-0.0584 1.303135,-0.0594 1.852084,-0.002 0.548948,0.0573 0.164651,0.1051 -0.853995,0.10627 -1.018646,10e-4 -1.467786,-0.0457 -0.998089,-0.10413 z M 8.942207,37.55702 c 0.190996,-0.0764 0.419199,-0.067 0.507118,0.0209 0.08792,0.0879 -0.06835,0.15045 -0.347265,0.13896 -0.308225,-0.0127 -0.37092,-0.0754 -0.159853,-0.15985 z m 4.569578,0.0857 c 0.0606,-0.0523 0.46743,-0.17497 0.90399,-0.27262 0.57968,-0.12966 0.68671,-0.10512 0.39687,0.091 -0.35728,0.24178 -1.566369,0.41057 -1.30086,0.1816 z M 7.6689,37.20863 C 7.450619,37.06756 7.391087,36.95215 7.536608,36.95215 c 0.145521,0 0.443177,0.11541 0.661459,0.25648 0.218281,0.14106 0.277812,0.25648 0.132291,0.25648 -0.145521,0 -0.443177,-0.11542 -0.661458,-0.25648 z m 8.907745,-0.91592 c 0.76335,-0.51407 1.73904,-1.50078 2.22384,-2.24896 0.89522,-1.38155 1.29237,-1.77603 0.74273,-0.73773 -0.63488,1.19933 -1.67406,2.37121 -2.7734,3.12757 -0.61955,0.42627 -1.22249,0.77504 -1.33985,0.77504 -0.11736,0 0.39865,-0.41217 1.14668,-0.91592 z M 6.066657,36.27651 C 5.565443,35.90938 4.818029,35.16524 4.405737,34.62287 3.590328,33.5502 2.549878,31.65611 2.695861,31.51013 c 0.05003,-0.05 0.431517,0.55949 0.847753,1.35449 0.416235,0.795 1.405235,2.0381 2.197777,2.76244 1.599029,1.46142 1.694788,1.65262 0.325266,0.64945 z m 8.084538,-1.71372 c 0.26339,-0.29104 0.53842,-0.52916 0.61118,-0.52916 0.0728,0 -0.0832,0.23812 -0.3466,0.52916 -0.26339,0.29104 -0.53842,0.52917 -0.61118,0.52917 -0.0728,0 0.0832,-0.23813 0.3466,-0.52917 z M 5.253901,34.36436 c -0.329108,-0.41965 -0.319749,-0.42901 0.0999,-0.0999 0.254661,0.19972 0.463021,0.40808 0.463021,0.46302 0,0.21776 -0.217273,0.0776 -0.562916,-0.36312 z m 2.894556,-2.09897 c 0.190996,-0.0764 0.419199,-0.067 0.507118,0.0209 0.08792,0.0879 -0.06835,0.15045 -0.347265,0.13897 -0.308225,-0.0127 -0.37092,-0.0754 -0.159853,-0.15985 z m 6.085418,0 c 0.19099,-0.0764 0.4192,-0.067 0.50712,0.0209 0.0879,0.0879 -0.0684,0.15045 -0.34727,0.13897 -0.30822,-0.0127 -0.37092,-0.0754 -0.15985,-0.15985 z m 5.75213,-0.21614 c 0.1079,-0.29104 0.46994,-1.42213 0.80453,-2.51354 0.33459,-1.09141 0.61472,-1.78856 0.62252,-1.54923 0.0191,0.58722 -0.96943,3.69945 -1.3325,4.19506 -0.23456,0.32019 -0.25283,0.29463 -0.0945,-0.13229 z M 4.738458,31.18936 4.097025,30.46175 4.824629,31.10318 c 0.400182,0.35279 0.727604,0.68022 0.727604,0.72761 0,0.2075 -0.214259,0.0386 -0.813775,-0.64143 z m 5.073274,0.26458 c 0.201139,-0.32742 0.535505,-0.59531 0.743035,-0.59531 0.20753,0 0.327718,0.031 0.267084,0.069 -0.06063,0.0379 -0.394999,0.30582 -0.743035,0.59531 l -0.632791,0.52635 z m 3.005084,0.17989 c -0.09624,-0.15571 -0.430688,-0.38629 -0.743219,-0.51239 -0.38773,-0.15644 -0.434181,-0.2346 -0.146225,-0.24604 0.232107,-0.009 0.637514,0.22135 0.900903,0.51239 0.263389,0.29104 0.407931,0.52917 0.321205,0.52917 -0.08673,0 -0.236425,-0.12741 -0.332664,-0.28313 z M 1.998358,29.77837 C 1.770177,29.01 1.591966,28.19458 1.602333,27.96633 c 0.01037,-0.22825 0.239546,0.35793 0.509286,1.30263 0.26974,0.94469 0.447951,1.76011 0.396025,1.81203 -0.05193,0.0519 -0.281104,-0.53425 -0.509286,-1.30262 z m 6.444267,0.0881 -0.641433,-0.72761 0.727604,0.64144 c 0.400182,0.35279 0.727604,0.68021 0.727604,0.7276 0,0.20751 -0.214259,0.0386 -0.813775,-0.64143 z m 5.1794,0.19844 c 0.26339,-0.29105 0.53842,-0.52917 0.61118,-0.52917 0.0728,0 -0.0832,0.23812 -0.3466,0.52917 -0.26339,0.29104 -0.538417,0.52916 -0.611178,0.52916 -0.07276,0 0.08321,-0.23812 0.346598,-0.52916 z m 5.18026,-1.74184 c 0.0127,-0.30823 0.0754,-0.37092 0.15986,-0.15986 0.0764,0.191 0.067,0.4192 -0.0209,0.50712 -0.0879,0.0879 -0.15046,-0.0684 -0.13897,-0.34726 z m -11.336584,-0.904 c 0,-0.50932 0.05445,-0.71768 0.121,-0.46302 0.06655,0.25466 0.06655,0.67138 0,0.92604 -0.06655,0.25467 -0.121,0.0463 -0.121,-0.46302 z m 11.156604,-0.0661 c -0.10468,-0.1819 -0.0916,-0.24118 0.0291,-0.13172 0.12066,0.10946 0.46717,-0.01 0.77002,-0.26458 0.55019,-0.46322 0.55023,-0.46312 0.0466,0.13171 -0.58811,0.69463 -0.59667,0.69731 -0.84569,0.26459 z M 1.37048,26.75765 c 0.0054,-0.43656 0.06469,-0.58312 0.131774,-0.32569 0.06708,0.25743 0.06267,0.61462 -0.0098,0.79375 -0.07248,0.17913 -0.127363,-0.0315 -0.121971,-0.46806 z m 20.108335,0 c 0.005,-0.43656 0.0647,-0.58312 0.13177,-0.32569 0.0671,0.25743 0.0627,0.61462 -0.01,0.79375 -0.0725,0.17913 -0.12736,-0.0315 -0.12197,-0.46806 z m -17.79869,-0.59531 -0.641433,-0.7276 0.681087,0.59773 c 0.374597,0.32875 0.780639,0.50735 0.902315,0.39688 0.121675,-0.11048 0.135581,-0.052 0.0309,0.12987 C 4.402477,26.99454 4.4201,27.00173 3.680123,26.16234 Z m 7.234956,-0.2495 c 0.257431,-0.0671 0.614619,-0.0627 0.79375,0.01 0.179132,0.0725 -0.03149,0.12736 -0.468056,0.12197 -0.436563,-0.005 -0.583125,-0.0647 -0.325694,-0.13177 z M 1.12104,24.90557 c 0.0029,-0.58208 0.05712,-0.78905 0.120406,-0.45993 0.06329,0.32911 0.06088,0.80536 -0.0053,1.05833 -0.06622,0.25296 -0.118004,-0.0163 -0.115067,-0.5984 z m 6.812443,0.42927 c 0,-0.16334 0.12609,-0.29698 0.280198,-0.29698 0.154109,0 0.190786,-0.14883 0.0815,-0.33073 -0.135011,-0.22472 -0.05521,-0.21434 0.248969,0.0324 0.246215,0.19972 0.447664,0.42792 0.447664,0.50712 0,0.0792 -0.07834,0.0657 -0.174094,-0.0301 C 8.72197,25.12085 8.483844,25.17505 8.288553,25.33714 8.027379,25.5539 7.93348,25.55329 7.93348,25.33514 Z M 21.767495,24.3764 c 0.002,-0.7276 0.0534,-0.99385 0.11418,-0.59167 0.0608,0.40218 0.0592,0.9975 -0.004,1.32292 -0.0628,0.32542 -0.11256,-0.004 -0.11057,-0.73125 z m -7.87901,0.66449 c -0.0927,-0.14998 0.0135,-0.19433 0.24896,-0.10398 0.45837,0.17589 0.54224,0.36554 0.16165,0.36554 -0.13693,0 -0.32171,-0.1177 -0.41061,-0.26156 z M 7.790312,23.96193 c -0.09592,-0.15521 -0.117656,-0.33893 -0.0483,-0.40829 0.06936,-0.0694 0.196603,0.0576 0.282774,0.28219 0.178907,0.46622 0.02642,0.54823 -0.234473,0.1261 z M 7.47104,22.25974 c 0.0029,-0.58209 0.05712,-0.78906 0.120406,-0.45994 0.06329,0.32912 0.06088,0.80537 -0.0053,1.05834 -0.06622,0.25296 -0.118004,-0.0163 -0.115067,-0.5984 z M 0.88762,20.27536 c 0,-1.52797 0.04373,-2.15304 0.09718,-1.38906 0.05345,0.76398 0.05345,2.01414 0,2.77813 -0.05345,0.76398 -0.09718,0.1389 -0.09718,-1.38907 z m 18.138335,1.66166 c -0.35279,-0.39578 -0.45188,-0.57541 -0.22021,-0.39918 0.23167,0.17624 0.49956,0.26193 0.59531,0.19044 0.0958,-0.0715 0.1156,-0.0517 0.0441,0.0441 -0.0715,0.0958 0.003,0.33388 0.16469,0.52917 0.55188,0.66498 0.0601,0.35798 -0.58389,-0.36452 z m 3.02115,-1.52937 c 9.5e-4,-1.16416 0.0475,-1.6075 0.10337,-0.98519 0.0559,0.62231 0.0551,1.57481 -0.002,2.11667 -0.0568,0.54185 -0.10258,0.0327 -0.10162,-1.13148 z m -7.38477,0.89689 c -0.092,-0.14885 -0.0958,-0.34209 -0.008,-0.42942 0.0873,-0.0873 0.15878,-0.0236 0.15878,0.14159 0,0.16521 0.1786,0.23185 0.39688,0.14808 0.21828,-0.0838 0.39687,-0.0928 0.39687,-0.02 0,0.28268 -0.78589,0.41567 -0.94406,0.15975 z M 3.521465,20.89502 c 0.09575,-0.0958 0.0263,-0.36364 -0.15434,-0.59531 -0.290127,-0.37209 -0.27477,-0.37915 0.131674,-0.0605 0.41392,0.32449 0.419612,0.82991 0.0093,0.82991 -0.08843,0 -0.08243,-0.0783 0.01332,-0.17409 z m 4.218802,-0.33674 c 0.02116,-0.28096 0.127627,-0.45574 0.236585,-0.38841 0.108957,0.0673 0.131034,0.29722 0.04906,0.51084 -0.206701,0.53866 -0.331416,0.4852 -0.285645,-0.12243 z m 8.593738,0.3356 c 0.1819,-0.0734 0.47956,-0.0734 0.66146,0 0.1819,0.0734 0.0331,0.13346 -0.33073,0.13346 -0.3638,0 -0.51263,-0.0601 -0.33073,-0.13346 z M 4.423344,20.24253 c 0.179476,-0.18082 0.39297,-0.26211 0.474432,-0.18065 0.08146,0.0815 -0.06538,0.2294 -0.326319,0.32876 -0.377084,0.14359 -0.407475,0.1132 -0.148113,-0.14811 z m 1.07928,-0.41249 c 0.190996,-0.0764 0.419199,-0.067 0.507118,0.0209 0.08792,0.0879 -0.06835,0.15045 -0.347266,0.13896 C 5.354252,19.9772 5.291557,19.9145 5.502624,19.83005 Z m 2.695443,0.0808 c 0,-0.0549 0.208359,-0.2633 0.46302,-0.46302 0.419644,-0.3291 0.429003,-0.31975 0.09989,0.0999 -0.345643,0.44073 -0.562915,0.58089 -0.562915,0.36312 z M 7.425205,19.32723 c 0.01269,-0.30822 0.07539,-0.37092 0.159852,-0.15985 0.07643,0.191 0.06703,0.4192 -0.02089,0.50712 -0.08792,0.0879 -0.150453,-0.0683 -0.138964,-0.34727 z m 8.51696,-0.29359 c 0.25743,-0.0671 0.61462,-0.0627 0.79375,0.01 0.17913,0.0725 -0.0315,0.12736 -0.46806,0.12197 -0.43656,-0.005 -0.58312,-0.0647 -0.32569,-0.13177 z m -5.027084,-0.52917 c 0.257431,-0.0671 0.614619,-0.0627 0.79375,0.01 0.179132,0.0725 -0.03149,0.12736 -0.468056,0.12197 -0.436563,-0.005 -0.583125,-0.0647 -0.325694,-0.13177 z m 10.848794,-1.93331 c 0,-0.65485 0.0516,-0.92274 0.11467,-0.59532 0.0631,0.32743 0.0631,0.86321 0,1.19063 -0.0631,0.32742 -0.11467,0.0595 -0.11467,-0.59531 z m -9.117501,0.61301 c 0.190996,-0.0764 0.419199,-0.067 0.507118,0.0209 0.08792,0.0879 -0.06835,0.15046 -0.347266,0.13897 -0.308224,-0.0127 -0.370919,-0.0754 -0.159852,-0.15985 z M 1.12104,16.17428 c 0.0029,-0.58208 0.05712,-0.78905 0.120406,-0.45993 0.06329,0.32911 0.06088,0.80536 -0.0053,1.05833 -0.06622,0.25296 -0.118004,-0.0163 -0.115067,-0.5984 z m 5.75411,0.66146 -0.926042,-0.19492 0.992188,-0.0348 c 0.545703,-0.0192 0.992187,0.0842 0.992187,0.22975 0,0.14552 -0.02976,0.24891 -0.06615,0.22975 -0.03638,-0.0191 -0.482864,-0.12254 -0.992187,-0.22975 z m 1.322917,-0.36857 c 0,-0.0572 0.184777,-0.17489 0.410616,-0.26155 0.23546,-0.0904 0.341663,-0.046 0.248969,0.10398 -0.155379,0.25141 -0.659585,0.37186 -0.659585,0.15757 z m 1.854501,-0.28998 C 9.87274,15.96052 9.590271,15.86431 9.424858,15.9634 c -0.165412,0.0991 -0.137343,-0.0213 0.06238,-0.2675 0.199719,-0.24621 0.427923,-0.44766 0.507118,-0.44766 0.0792,0 0.06436,0.0796 -0.03297,0.17697 -0.09733,0.0973 0.02034,0.39498 0.261493,0.66145 0.241153,0.26647 0.375054,0.4845 0.297558,0.4845 -0.0775,0 -0.288034,-0.17729 -0.467861,-0.39397 z m 5.156957,-0.1352 c 0.26339,-0.29104 0.53842,-0.52917 0.61118,-0.52917 0.0728,0 -0.0832,0.23813 -0.3466,0.52917 -0.26339,0.29104 -0.53842,0.52917 -0.61118,0.52917 -0.0728,0 0.0832,-0.23813 0.3466,-0.52917 z M 4.095557,15.5112 C 3.83136,15.21927 3.664079,14.93327 3.723821,14.87566 c 0.05974,-0.0576 0.322538,0.18124 0.583993,0.53078 0.577423,0.77198 0.448952,0.83539 -0.212257,0.10476 z m 17.373448,-0.79213 c 0,-0.3638 0.0601,-0.51263 0.13346,-0.33073 0.0734,0.1819 0.0734,0.47956 0,0.66146 -0.0734,0.1819 -0.13346,0.0331 -0.13346,-0.33073 z M 1.360676,14.45449 c 0,-0.3638 0.06005,-0.51263 0.133452,-0.33073 0.0734,0.1819 0.0734,0.47956 0,0.66146 -0.0734,0.1819 -0.133452,0.0331 -0.133452,-0.33073 z m 19.843749,-1.05833 c 0,-0.36381 0.0601,-0.51263 0.13345,-0.33073 0.0734,0.1819 0.0734,0.47955 0,0.66146 -0.0734,0.1819 -0.13345,0.0331 -0.13345,-0.33073 z M 1.62526,13.13157 c 0,-0.3638 0.06005,-0.51263 0.133452,-0.33073 0.0734,0.1819 0.0734,0.47956 0,0.66146 -0.0734,0.1819 -0.133452,0.0331 -0.133452,-0.33073 z m 9.005637,-0.13229 c 0.0054,-0.43656 0.06469,-0.58312 0.131773,-0.32569 0.06708,0.25743 0.06267,0.61462 -0.0098,0.79375 -0.07248,0.17913 -0.127363,-0.0315 -0.121971,-0.46806 z m 5.525558,-0.28663 c 0.0127,-0.30822 0.0754,-0.37092 0.15985,-0.15985 0.0764,0.19099 0.067,0.4192 -0.0209,0.50712 -0.0879,0.0879 -0.15045,-0.0684 -0.13896,-0.34727 z m 4.49724,-1.35688 c -0.17176,-0.6968 -0.8575,-2.39487 -1.52386,-3.77349 -0.91406,-1.89108 -1.61734,-2.91236 -2.86399,-4.15901 -0.90883,-0.90883 -1.44489,-1.54135 -1.19125,-1.40561 1.02244,0.54719 3.21446,3.31562 4.22687,5.33834 1.0583,2.11444 2.02749,4.90371 1.78733,5.14387 -0.0675,0.0675 -0.26334,-0.4473 -0.4351,-1.1441 z M 1.861276,12.147 C 1.833436,11.4661 3.443802,7.4987 4.360619,5.98945 6.081091,3.15725 8.852637,0.93024 10.596706,0.9786 11.001027,0.9898 10.778451,1.12092 9.998769,1.33082 8.629099,1.69956 8.327741,1.89168 6.659608,3.45961 5.132453,4.89503 3.824581,7.10065 2.756166,10.04247 2.271242,11.37767 1.868542,12.32471 1.861276,12.147 Z m 13.360969,-1.11471 -0.78102,-0.94343 0.78102,0.70188 c 0.42957,0.38603 1.01915,0.74804 1.3102,0.80445 l 0.52916,0.10257 -0.52916,0.13898 c -0.3808,0.10001 -0.74816,-0.12554 -1.3102,-0.80445 z M 10.77095,10.16107 c 0.146564,-0.18523 0.332599,-0.51538 0.41341,-0.73366 0.10029,-0.2709 0.153561,-0.21689 0.167818,0.17013 0.01149,0.31185 -0.174546,0.642 -0.41341,0.73366 -0.324893,0.12467 -0.367169,0.0818 -0.167818,-0.17013 z M 5.082913,9.80345 C 5.334109,9.54119 5.596585,9.38356 5.666192,9.45317 5.735802,9.52277 5.530275,9.73736 5.209471,9.93001 4.652177,10.26469 4.646539,10.25905 5.082913,9.80345 Z M 9.89272,9.36126 9.388692,8.76595 9.984004,9.26998 c 0.559447,0.47366 0.715762,0.68659 0.504028,0.68659 -0.05021,0 -0.318097,-0.26789 -0.595312,-0.59531 z m 2.340242,0.41293 c 0.254662,-0.0666 0.671381,-0.0666 0.926042,0 0.254661,0.0666 0.0463,0.121 -0.463021,0.121 -0.509323,0 -0.717682,-0.0545 -0.463021,-0.121 z M 6.825541,9.24667 C 7.016537,9.17027 7.24474,9.17967 7.332659,9.26757 7.420579,9.35547 7.264309,9.41803 6.985393,9.40654 6.677169,9.39384 6.614474,9.33114 6.825541,9.24669 Z m 4.547525,-0.5974 c 0,-0.13693 0.117699,-0.32171 0.261553,-0.41062 0.149982,-0.0927 0.194339,0.0135 0.103984,0.24897 -0.175892,0.45837 -0.365537,0.54224 -0.365537,0.16165 z m 5.927989,-1.14009 -0.50403,-0.59532 0.59531,0.50403 c 0.55945,0.47366 0.71576,0.6866 0.50403,0.6866 -0.0502,0 -0.3181,-0.26789 -0.59531,-0.59531 z m -5.398822,0.23083 c 0,-0.0549 0.20836,-0.2633 0.463021,-0.46302 0.419644,-0.32911 0.429002,-0.31975 0.0999,0.0999 -0.345644,0.44072 -0.562916,0.58088 -0.562916,0.36312 z m 4.335592,-0.89634 c -0.16729,-0.11038 -0.21406,-0.41988 -0.10822,-0.71616 0.16516,-0.46234 0.20208,-0.43974 0.32407,0.19844 0.0757,0.39611 0.12442,0.71838 0.10822,0.71615 -0.0162,-0.002 -0.16203,-0.0915 -0.32407,-0.19843 z M 8.533831,5.01072 c 0.257431,-0.0671 0.614619,-0.0627 0.79375,0.01 C 9.506713,5.09322 9.296091,5.14809 8.859525,5.14269 8.422962,5.13769 8.2764,5.07799 8.533831,5.01092 Z m 7.832574,-0.54425 c -0.32911,-0.41964 -0.31975,-0.429 0.0999,-0.0999 0.44073,0.34565 0.58089,0.56292 0.36313,0.56292 -0.0549,0 -0.26331,-0.20836 -0.46302,-0.46302 z M 12.563691,1.22532 C 11.831429,1.03899 11.821181,1.02124 12.4314,0.9961 c 0.363802,-0.015 0.840052,0.0882 1.058335,0.22922 0.4503,0.29101 0.21761,0.29101 -0.926044,0 z"
     style="fill:#606060;fill-opacity:1;stroke-width:0.26458332"
     inkscape:connector-curvature="0" />
  <path
     id="path43"
     d="m 10.507269,37.81139 c 0.469697,-0.0584 1.303135,-0.0594 1.852084,-0.002 0.548948,0.0573 0.164651,0.1051 -0.853995,0.10627 -1.018646,10e-4 -1.467786,-0.0457 -0.998089,-0.10413 z M 6.183227,36.36956 c -1.074911,-0.80899 -1.3833,-1.12751 -0.763285,-0.78838 0.688232,0.37645 1.899445,1.34935 1.689327,1.35695 -0.08952,0.003 -0.506235,-0.25262 -0.926042,-0.56857 z m 11.156478,-0.63725 c 0.58951,-0.57049 1.34248,-1.39444 1.67327,-1.83101 0.33078,-0.43656 0.51173,-0.61515 0.40211,-0.39687 -0.44183,0.87977 -1.55101,2.1675 -2.32599,2.70041 -0.6701,0.46079 -0.62398,0.37383 0.25061,-0.47253 z M 4.33647,34.49662 3.832442,33.9013 4.427754,34.40533 c 0.559447,0.47367 0.715762,0.6866 0.504028,0.6866 -0.05021,0 -0.318097,-0.26789 -0.595312,-0.59531 z M 3.157903,32.68504 C 2.853752,32.08886 2.650282,31.55569 2.705748,31.50022 c 0.05547,-0.0555 0.359881,0.43232 0.676478,1.08397 0.721067,1.48418 0.526111,1.57182 -0.224323,0.10085 z m 16.954512,-0.9004 c 0,-0.14552 0.11542,-0.44318 0.25648,-0.66146 0.14107,-0.21828 0.25648,-0.27781 0.25648,-0.13229 0,0.14552 -0.11541,0.44317 -0.25648,0.66146 -0.14106,0.21828 -0.25648,0.27781 -0.25648,0.13229 z m 0.54196,-1.60955 c 0.0127,-0.30823 0.0754,-0.37092 0.15985,-0.15985 0.0764,0.19099 0.067,0.41919 -0.0209,0.50712 -0.0879,0.0879 -0.15045,-0.0684 -0.13896,-0.34727 z M 1.604371,28.05842 c 0.0127,-0.30822 0.07539,-0.37092 0.159853,-0.15985 0.07643,0.19099 0.06703,0.4192 -0.02089,0.50712 -0.08792,0.0879 -0.150453,-0.0684 -0.138963,-0.34727 z m 19.579164,0 c 0.0127,-0.30822 0.0754,-0.37092 0.15986,-0.15985 0.0764,0.19099 0.067,0.4192 -0.0209,0.50712 -0.0879,0.0879 -0.15046,-0.0684 -0.13897,-0.34727 z M 1.339788,26.73551 c 0.0127,-0.30823 0.07539,-0.37092 0.159853,-0.15986 0.07643,0.191 0.06703,0.4192 -0.02089,0.50712 -0.08792,0.0879 -0.150453,-0.0683 -0.138965,-0.34726 z m 20.129217,-0.11025 c 0,-0.3638 0.0601,-0.51263 0.13346,-0.33073 0.0734,0.1819 0.0734,0.47956 0,0.66146 -0.0734,0.1819 -0.13346,0.0331 -0.13346,-0.33073 z M 1.115701,24.77318 c 0,-0.50932 0.05445,-0.71768 0.121,-0.46302 0.06655,0.25466 0.06655,0.67138 0,0.92604 -0.06655,0.25466 -0.121,0.0463 -0.121,-0.46302 z m 20.642834,-0.13229 c 0.003,-0.58209 0.0571,-0.78906 0.12041,-0.45994 0.0633,0.32912 0.0609,0.80537 -0.005,1.05834 -0.0662,0.25296 -0.118,-0.0163 -0.11507,-0.5984 z M 0.885115,20.27526 c 0,-1.38244 0.04459,-1.94799 0.0991,-1.25677 0.0545,0.69123 0.0545,1.82232 0,2.51354 -0.0545,0.69123 -0.0991,0.12568 -0.0991,-1.25677 z m 21.14696,-0.13229 c 0.002,-0.7276 0.0534,-0.99386 0.11418,-0.59167 0.0608,0.40218 0.0592,0.99749 -0.004,1.32291 -0.0628,0.32542 -0.11256,-0.004 -0.11057,-0.73124 z m -0.27887,-3.57187 c 0,-0.50933 0.0545,-0.71769 0.121,-0.46302 0.0666,0.25466 0.0666,0.67138 0,0.92604 -0.0665,0.25466 -0.121,0.0463 -0.121,-0.46302 z M 1.105897,16.17422 c 0.0054,-0.43656 0.06469,-0.58312 0.131773,-0.32569 0.06708,0.25743 0.06267,0.61462 -0.0098,0.79375 -0.07248,0.17913 -0.127363,-0.0315 -0.121971,-0.46806 z m 20.363108,-1.45521 c 0,-0.3638 0.0601,-0.51263 0.13346,-0.33073 0.0734,0.1819 0.0734,0.47956 0,0.66146 -0.0734,0.1819 -0.13346,0.0331 -0.13346,-0.33073 z M 1.339788,14.30009 c 0.0127,-0.30822 0.07539,-0.37092 0.159853,-0.15985 0.07643,0.19099 0.06703,0.4192 -0.02089,0.50712 -0.08792,0.0879 -0.150453,-0.0684 -0.138965,-0.34727 z m 19.843747,-1.05833 c 0.0127,-0.30823 0.0754,-0.37092 0.15986,-0.15986 0.0764,0.191 0.067,0.4192 -0.0209,0.50712 -0.0879,0.0879 -0.15046,-0.0683 -0.13897,-0.34726 z m -0.26458,-1.05834 c 0.0127,-0.30822 0.0754,-0.37092 0.15985,-0.15985 0.0764,0.191 0.067,0.4192 -0.0209,0.50712 -0.0879,0.0879 -0.15045,-0.0684 -0.13896,-0.34727 z M 2.64992,9.55964 C 2.64992,9.41412 2.765336,9.11646 2.9064,8.89818 3.047464,8.6799 3.16288,8.62037 3.16288,8.76589 3.16288,8.91141 3.047464,9.20907 2.9064,9.42735 2.765336,9.64563 2.64992,9.70516 2.64992,9.55964 Z M 19.101055,7.43447 c -0.46414,-0.94121 -0.78718,-1.71129 -0.71787,-1.71129 0.17731,0 1.77706,3.20727 1.65876,3.32557 -0.0534,0.0534 -0.47676,-0.67307 -0.94089,-1.61428 z M 4.68081,5.49847 C 5.200691,4.52765 8.30456,1.48985 8.776611,1.48985 8.938642,1.48985 8.606864,1.82752 8.039327,2.24023 7.013592,2.98615 5.58807,4.46549 4.68081,5.72556 c -0.456341,0.63379 -0.456341,0.62508 0,-0.22709 z M 16.368355,3.58368 c -1.98194,-2.06981 -2.11929,-2.35964 -0.34177,-0.72118 1.0067,0.92795 2.46498,2.65125 2.17752,2.57326 -0.0463,-0.0126 -0.87238,-0.84599 -1.83575,-1.85208 z M 9.984004,1.05003 c 0.181901,-0.0734 0.479557,-0.0734 0.661458,0 0.181901,0.0734 0.03307,0.13346 -0.330729,0.13346 -0.363802,0 -0.51263,-0.0601 -0.330729,-0.13346 z m 2.397786,-0.006 c 0.190997,-0.0764 0.4192,-0.067 0.507119,0.0209 0.08792,0.0879 -0.06835,0.15046 -0.347266,0.13897 C 12.233418,1.1912 12.170724,1.1285 12.38179,1.04404 Z"
     style="fill:#494949;fill-opacity:1;stroke-width:0.26458332"
     inkscape:connector-curvature="0" />
  <path
     id="path41"
     d="m 10.782492,37.81059 c 0.475549,-0.0589 1.189924,-0.0577 1.5875,0.003 0.397577,0.0604 0.0085,0.10855 -0.864634,0.10707 -0.873125,-0.002 -1.198414,-0.0509 -0.722866,-0.10977 z M 6.047651,36.21641 c -0.329108,-0.41965 -0.319749,-0.429 0.0999,-0.0999 0.254661,0.19972 0.463021,0.40808 0.463021,0.46302 0,0.21777 -0.217273,0.0776 -0.562916,-0.36312 z m 11.410834,-0.43063 c 0,-0.0549 0.20836,-0.2633 0.46302,-0.46302 0.41964,-0.3291 0.429,-0.31975 0.0999,0.0999 -0.34564,0.44073 -0.56291,0.58089 -0.56291,0.36312 z M 4.195568,34.36433 c -0.329108,-0.41965 -0.31975,-0.42901 0.09989,-0.0999 0.254662,0.19972 0.463021,0.40808 0.463021,0.46302 0,0.21776 -0.217272,0.0776 -0.562915,-0.36312 z m -2.85578,-7.62882 c 0.0127,-0.30823 0.07539,-0.37092 0.159853,-0.15986 0.07643,0.191 0.06703,0.4192 -0.02089,0.50712 -0.08792,0.0879 -0.150453,-0.0683 -0.138965,-0.34726 z m 20.108337,0 c 0.0127,-0.30823 0.0754,-0.37092 0.15985,-0.15986 0.0764,0.191 0.067,0.4192 -0.0209,0.50712 -0.0879,0.0879 -0.15045,-0.0683 -0.13896,-0.34726 z M 1.105897,24.90547 c 0.0054,-0.43656 0.06469,-0.58312 0.131773,-0.32569 0.06708,0.25743 0.06267,0.61462 -0.0098,0.79375 -0.07248,0.17913 -0.127363,-0.0315 -0.121971,-0.46806 z m 20.637498,-0.26458 c 0.005,-0.43656 0.0647,-0.58313 0.13178,-0.3257 0.0671,0.25744 0.0627,0.61462 -0.01,0.79375 -0.0725,0.17913 -0.12736,-0.0315 -0.12197,-0.46805 z M 0.880435,20.40755 c 9.53e-4,-1.16416 0.04748,-1.6075 0.103369,-0.98519 0.05589,0.62231 0.05511,1.57481 -0.0017,2.11667 -0.05685,0.54185 -0.102584,0.0327 -0.101623,-1.13148 z m 20.85316,-3.83645 c 0,-0.36381 0.0601,-0.51263 0.13345,-0.33073 0.0734,0.1819 0.0734,0.47955 0,0.66146 -0.0734,0.1819 -0.13345,0.0331 -0.13345,-0.33073 z M 1.096093,16.04193 c 0,-0.3638 0.06005,-0.51263 0.133452,-0.33073 0.0734,0.1819 0.0734,0.47956 0,0.66146 -0.0734,0.1819 -0.133452,0.0331 -0.133452,-0.33073 z m 20.352032,-1.47726 c 0.0127,-0.30822 0.0754,-0.37092 0.15985,-0.15985 0.0764,0.191 0.067,0.4192 -0.0209,0.50712 -0.0879,0.0879 -0.15045,-0.0684 -0.13896,-0.34727 z M 1.339788,14.30009 c 0.0127,-0.30822 0.07539,-0.37092 0.159853,-0.15985 0.07643,0.19099 0.06703,0.4192 -0.02089,0.50712 -0.08792,0.0879 -0.150453,-0.0684 -0.138965,-0.34727 z M 5.684525,4.13568 c 0.263389,-0.29104 0.53842,-0.52917 0.611181,-0.52917 0.07276,0 -0.08321,0.23813 -0.346598,0.52917 -0.263389,0.29104 -0.53842,0.52917 -0.611181,0.52917 -0.07276,0 0.08321,-0.23813 0.346598,-0.52917 z m 10.71562,-0.66146 c -0.64268,-0.65484 -1.10897,-1.19062 -1.03621,-1.19062 0.0728,0 0.65812,0.53578 1.3008,1.19062 0.64268,0.65485 1.10898,1.19063 1.03622,1.19063 -0.0728,0 -0.65812,-0.53578 -1.30081,-1.19063 z M 7.139733,2.71287 c 0,-0.0549 0.20836,-0.2633 0.463021,-0.46302 C 8.022398,1.92074 8.031756,1.9301 7.702654,2.34975 7.35701,2.79048 7.139738,2.93064 7.139738,2.71288 Z"
     style="fill:#333333;fill-opacity:1;stroke-width:0.26458332"
     inkscape:connector-curvature="0" />
</svg>
