<?xml version="1.0" encoding="UTF-8" standalone="no"?>
<svg
   xmlns:dc="http://purl.org/dc/elements/1.1/"
   xmlns:cc="http://creativecommons.org/ns#"
   xmlns:rdf="http://www.w3.org/1999/02/22-rdf-syntax-ns#"
   xmlns:svg="http://www.w3.org/2000/svg"
   xmlns="http://www.w3.org/2000/svg"
   xmlns:sodipodi="http://sodipodi.sourceforge.net/DTD/sodipodi-0.dtd"
   xmlns:inkscape="http://www.inkscape.org/namespaces/inkscape"
   height="100px"
   width="100px"
   fill="#000000"
   version="1.1"
   x="0px"
   y="0px"
   viewBox="0 0 100 100"
   enable-background="new 0 0 100 100"
   xml:space="preserve"
   id="svg14"
   sodipodi:docname="acte.svg"
   inkscape:version="0.92.4 (5da689c313, 2019-01-14)"><metadata
     id="metadata20"><rdf:RDF><cc:Work
         rdf:about=""><dc:format>image/svg+xml</dc:format><dc:type
           rdf:resource="http://purl.org/dc/dcmitype/StillImage" /><dc:title></dc:title></cc:Work></rdf:RDF></metadata><defs
     id="defs18" /><sodipodi:namedview
     pagecolor="#ffffff"
     bordercolor="#666666"
     borderopacity="1"
     objecttolerance="10"
     gridtolerance="10"
     guidetolerance="10"
     inkscape:pageopacity="0"
     inkscape:pageshadow="2"
     inkscape:window-width="779"
     inkscape:window-height="480"
     id="namedview16"
     showgrid="false"
     inkscape:zoom="2.36"
     inkscape:cx="50"
     inkscape:cy="50"
     inkscape:window-x="0"
     inkscape:window-y="27"
     inkscape:window-maximized="0"
     inkscape:current-layer="svg14" /><rect
     x="5"
     y="5"
     fill="none"
     width="90"
     height="90"
     id="rect2" /><g
     id="g12"
     style="fill:#8f230a;fill-opacity:1"><path
       d="M49.999,43.67c4.238,0,7.686-3.449,7.686-7.687c0-4.237-3.448-7.687-7.686-7.687c-4.238,0-7.687,3.449-7.687,7.687   C42.312,40.222,45.76,43.67,49.999,43.67z"
       id="path4"
       style="fill:#8f230a;fill-opacity:1" /><path
       d="M37.88,48.528c-1.724,1.341-2.712,3.357-2.712,5.542v9.047c0,0.328,0.27,0.598,0.601,0.598h4.594   c0.092,1.328,0.368,4.725,0.909,7.502c0.055,0.283,0.302,0.486,0.59,0.486h16.275c0.285,0,0.534-0.201,0.589-0.486   c0.541-2.775,0.817-6.174,0.907-7.502h4.6c0.329,0,0.6-0.27,0.6-0.598V54.07c0-1.949-0.819-3.823-2.249-5.147   c-0.535-0.496-1.142-0.905-1.797-1.214c-1.048-0.623-2.168-1.157-3.334-1.588c-0.185-0.067-0.385-0.043-0.544,0.066   c-2.045,1.389-4.437,2.123-6.91,2.123c-2.484,0-4.884-0.74-6.934-2.139c-0.158-0.109-0.363-0.136-0.545-0.068   c-1.33,0.489-2.601,1.111-3.776,1.848C38.441,48.122,38.152,48.315,37.88,48.528z"
       id="path6"
       style="fill:#8f230a;fill-opacity:1" /><path
       d="M93.518,27.573c-1.296-0.639-2.863-0.106-3.502,1.189l-1.616,3.281c0,0,0,0.001-0.001,0.001l-1.9,3.852   c-1.65-4.291-4.015-8.214-7.038-11.68c-3.444-3.945-7.597-7.12-12.341-9.434c-4.752-2.318-9.819-3.636-15.059-3.917   c-5.058-0.274-10.063,0.428-14.874,2.086c-4.81,1.655-9.186,4.183-13.005,7.512c-3.955,3.448-7.137,7.605-9.454,12.359   c-1.446,2.962-2.513,6.088-3.172,9.289c-0.292,1.413,0.618,2.795,2.032,3.087c1.413,0.292,2.797-0.618,3.088-2.033   c0.572-2.772,1.498-5.482,2.75-8.052c3.977-8.15,10.889-14.267,19.465-17.219c8.574-2.952,17.786-2.389,25.937,1.585   c7.869,3.839,13.842,10.418,16.905,18.585l-4.518-2.175c-0.001,0-0.001,0-0.001,0l-3.295-1.589c-1.3-0.626-2.862-0.08-3.491,1.221   c-0.625,1.3-0.08,2.862,1.223,3.49l3.297,1.589h0.001l9.316,4.489c0.444,0.333,0.993,0.525,1.569,0.525   c0.167,0,0.335-0.015,0.505-0.047c0.019-0.004,0.035-0.009,0.052-0.013c0.784-0.144,1.495-0.643,1.874-1.415l6.441-13.069   C95.345,29.778,94.813,28.211,93.518,27.573z"
       id="path8"
       style="fill:#8f230a;fill-opacity:1" /><path
       d="M86.311,54.719c-1.416-0.287-2.796,0.623-3.084,2.039c-0.51,2.498-1.306,4.945-2.369,7.281   c-0.129,0.281-0.262,0.564-0.396,0.846c-8.207,16.826-28.575,23.838-45.402,15.631c-8.005-3.9-13.988-10.58-16.98-18.764   l7.988,3.896c1.298,0.633,2.863,0.096,3.497-1.201c0.633-1.299,0.094-2.867-1.203-3.496l-3.289-1.605c0,0,0,0-0.002-0.002   l-9.841-4.801c-0.537-0.26-1.119-0.32-1.662-0.211c-0.011,0.002-0.021,0.004-0.031,0.004c-1,0.193-1.756,0.936-2.019,1.85   l-4.622,9.412c-0.029,0.057-0.053,0.115-0.077,0.176l-1.528,3.117c-0.636,1.295-0.1,2.859,1.196,3.496   c0.372,0.18,0.764,0.268,1.15,0.268c0.966,0,1.895-0.539,2.349-1.465l3.438-7.01c1.304,3.354,3.062,6.533,5.219,9.398   c3.74,4.977,8.494,8.893,14.125,11.639c4.753,2.316,9.819,3.637,15.06,3.918c0.706,0.035,1.411,0.057,2.115,0.057   c4.336,0,8.62-0.719,12.757-2.145c4.811-1.656,9.187-4.182,13.004-7.512c3.957-3.447,7.139-7.607,9.456-12.359   c0.159-0.32,0.312-0.648,0.459-0.971c1.225-2.695,2.144-5.521,2.73-8.402C88.639,56.389,87.727,55.006,86.311,54.719z"
       id="path10"
       style="fill:#8f230a;fill-opacity:1" /></g></svg>