<?xml version="1.0" encoding="UTF-8" standalone="no"?>
<svg
   xmlns:dc="http://purl.org/dc/elements/1.1/"
   xmlns:cc="http://creativecommons.org/ns#"
   xmlns:rdf="http://www.w3.org/1999/02/22-rdf-syntax-ns#"
   xmlns:svg="http://www.w3.org/2000/svg"
   xmlns="http://www.w3.org/2000/svg"
   xmlns:sodipodi="http://sodipodi.sourceforge.net/DTD/sodipodi-0.dtd"
   xmlns:inkscape="http://www.inkscape.org/namespaces/inkscape"
   height="100px"
   width="100px"
   fill="#000000"
   version="1.1"
   x="0px"
   y="0px"
   viewBox="0 0 100 100"
   style="enable-background:new 0 0 100 100;"
   xml:space="preserve"
   id="svg30"
   sodipodi:docname="action.svg"
   inkscape:version="0.92.4 (5da689c313, 2019-01-14)"><metadata
     id="metadata36"><rdf:RDF><cc:Work
         rdf:about=""><dc:format>image/svg+xml</dc:format><dc:type
           rdf:resource="http://purl.org/dc/dcmitype/StillImage" /><dc:title></dc:title></cc:Work></rdf:RDF></metadata><defs
     id="defs34" /><sodipodi:namedview
     pagecolor="#ffffff"
     bordercolor="#666666"
     borderopacity="1"
     objecttolerance="10"
     gridtolerance="10"
     guidetolerance="10"
     inkscape:pageopacity="0"
     inkscape:pageshadow="2"
     inkscape:window-width="1920"
     inkscape:window-height="1016"
     id="namedview32"
     showgrid="false"
     inkscape:zoom="2.09"
     inkscape:cx="61.120967"
     inkscape:cy="11.511302"
     inkscape:window-x="0"
     inkscape:window-y="27"
     inkscape:window-maximized="1"
     inkscape:current-layer="svg30" /><g
     id="g24"
     style="fill:#0a425a;fill-opacity:1"><path
       d="m 44.6,59.3 -15.3,24 c -1.6,2.5 -0.9,5.9 1.7,7.5 0.9,0.6 1.9,0.9 2.9,0.9 1.8,0 3.6,-0.9 4.6,-2.5 l 15,-23.5 -4.1,-1.9 c -2,-1 -3.7,-2.6 -4.8,-4.5 z"
       id="path12"
       inkscape:connector-curvature="0"
       style="fill:#0a425a;fill-opacity:1" /><circle
       cx="81.300003"
       cy="17.9"
       r="9.6000004"
       id="circle14"
       style="fill:#0a425a;fill-opacity:1" /><path
       d="M 97.3,44.9 C 96.6,42.5 94.1,41.1 91.7,41.7 L 85,43.6 81.7,36.2 C 80.7,34 79.1,32.1 77.1,30.8 L 69.3,25.7 C 67,24.2 64.2,23.5 61.5,23.7 L 50,24.6 c -1.2,0.1 -2.3,0.7 -3.1,1.6 l -7.8,9.2 c -1.6,1.9 -1.4,4.8 0.5,6.4 1.9,1.6 4.8,1.4 6.4,-0.5 l 6.6,-7.8 6.9,-0.5 -9.9,17.8 c -0.7,1.3 -0.9,2.9 -0.4,4.3 0.5,1.4 1.5,2.6 2.9,3.3 l 15.3,7.2 -8.5,11.6 c -1.8,2.4 -1.2,5.8 1.2,7.6 1,0.7 2.1,1.1 3.2,1.1 1.7,0 3.3,-0.8 4.4,-2.2 l 12.4,-17 c 1,-1.3 1.3,-3 0.9,-4.6 -0.4,-1.6 -1.5,-2.9 -3,-3.6 l -10.7,-5.1 7.4,-10.9 3.7,8.3 c 0.7,1.7 2.4,2.7 4.2,2.7 0.4,0 0.8,-0.1 1.2,-0.2 l 10.5,-2.9 c 2.3,-0.6 3.7,-3.1 3,-5.5 z"
       id="path16"
       inkscape:connector-curvature="0"
       style="fill:#0a425a;fill-opacity:1" /><path
       d="m 13,31.7 h 18.5 c 2.2,0 4,-1.8 4,-4 0,-2.2 -1.8,-4 -4,-4 H 13 c -2.2,0 -4,1.8 -4,4 0,2.2 1.8,4 4,4 z"
       id="path18"
       inkscape:connector-curvature="0"
       style="fill:#0a425a;fill-opacity:1" /><path
       d="m 9.7,49.6 h 18.5 c 2.2,0 4,-1.8 4,-4 0,-2.2 -1.8,-4 -4,-4 H 9.7 c -2.2,0 -4,1.8 -4,4 0.1,2.2 1.8,4 4,4 z"
       id="path20"
       inkscape:connector-curvature="0"
       style="fill:#0a425a;fill-opacity:1" /><path
       d="M 24.9,59.5 H 6.5 c -2.2,0 -4,1.8 -4,4 0,2.2 1.8,4 4,4 H 25 c 2.2,0 4,-1.8 4,-4 0,-2.2 -1.9,-4 -4.1,-4 z"
       id="path22"
       inkscape:connector-curvature="0"
       style="fill:#0a425a;fill-opacity:1" /></g></svg>