<?xml version="1.0" encoding="UTF-8" standalone="no"?>
<svg
   xmlns:i="http://ns.adobe.com/AdobeIllustrator/10.0/"
   xmlns:dc="http://purl.org/dc/elements/1.1/"
   xmlns:cc="http://creativecommons.org/ns#"
   xmlns:rdf="http://www.w3.org/1999/02/22-rdf-syntax-ns#"
   xmlns:svg="http://www.w3.org/2000/svg"
   xmlns="http://www.w3.org/2000/svg"
   xmlns:sodipodi="http://sodipodi.sourceforge.net/DTD/sodipodi-0.dtd"
   xmlns:inkscape="http://www.inkscape.org/namespaces/inkscape"
   height="100px"
   width="100px"
   fill="#000000"
   version="1.1"
   x="0px"
   y="0px"
   viewBox="0 0 100 100"
   style="enable-background:new 0 0 100 100;"
   xml:space="preserve"
   id="svg18"
   sodipodi:docname="ajouter.svg"
   inkscape:version="0.92.4 (5da689c313, 2019-01-14)"><metadata
     id="metadata24"><rdf:RDF><cc:Work
         rdf:about=""><dc:format>image/svg+xml</dc:format><dc:type
           rdf:resource="http://purl.org/dc/dcmitype/StillImage" /><dc:title></dc:title></cc:Work></rdf:RDF></metadata><defs
     id="defs22" /><sodipodi:namedview
     pagecolor="#ffffff"
     bordercolor="#666666"
     borderopacity="1"
     objecttolerance="10"
     gridtolerance="10"
     guidetolerance="10"
     inkscape:pageopacity="0"
     inkscape:pageshadow="2"
     inkscape:window-width="1600"
     inkscape:window-height="836"
     id="namedview20"
     showgrid="false"
     inkscape:zoom="4.72"
     inkscape:cx="96.595164"
     inkscape:cy="40.470612"
     inkscape:window-x="0"
     inkscape:window-y="27"
     inkscape:window-maximized="1"
     inkscape:current-layer="g14" /><g
     id="g14"
     i:extraneous="self"><g
       id="g10" /><path
       inkscape:connector-curvature="0"
       id="path12"
       d="M 50,2.5 C 23.8,2.5 2.5,23.8 2.5,50 2.5,76.2 23.8,97.5 50,97.5 76.2,97.5 97.5,76.2 97.5,50 97.5,23.8 76.2,2.5 50,2.5 Z M 69.6,55.2 H 55.2 v 14.3 c 0,2.9 -2.3,5.2 -5.2,5.2 -2.9,0 -5.2,-2.3 -5.2,-5.2 V 55.2 H 30.4 c -2.9,0 -5.2,-2.3 -5.2,-5.2 0,-2.9 2.3,-5.2 5.2,-5.2 H 44.7 V 30.4 c 0,-2.9 2.3,-5.2 5.2,-5.2 2.9,0 5.2,2.3 5.2,5.2 v 14.3 h 14.3 c 2.9,0 5.2,2.3 5.2,5.2 0,2.9 -2.1,5.3 -5,5.3 z"
       style="fill:#0a425a;fill-opacity:1" /></g></svg>