<?xml version="1.0" encoding="UTF-8" standalone="no"?>
<svg
   xmlns:dc="http://purl.org/dc/elements/1.1/"
   xmlns:cc="http://creativecommons.org/ns#"
   xmlns:rdf="http://www.w3.org/1999/02/22-rdf-syntax-ns#"
   xmlns:svg="http://www.w3.org/2000/svg"
   xmlns="http://www.w3.org/2000/svg"
   xmlns:sodipodi="http://sodipodi.sourceforge.net/DTD/sodipodi-0.dtd"
   xmlns:inkscape="http://www.inkscape.org/namespaces/inkscape"
   inkscape:version="1.0 (4035a4fb49, 2020-05-01)"
   sodipodi:docname="analyse_nouvelle.svg"
   id="svg84"
   xml:space="preserve"
   style="enable-background:new 0 0 1000 1000;"
   viewBox="0 0 1000 1000"
   y="0px"
   x="0px"
   version="1.1"
   fill="#000000"
   width="100px"
   height="100px"><metadata
     id="metadata90"><rdf:RDF><cc:Work
         rdf:about=""><dc:format>image/svg+xml</dc:format><dc:type
           rdf:resource="http://purl.org/dc/dcmitype/StillImage" /><dc:title></dc:title></cc:Work></rdf:RDF></metadata><defs
     id="defs88" /><sodipodi:namedview
     inkscape:document-rotation="0"
     inkscape:current-layer="svg84"
     inkscape:window-maximized="1"
     inkscape:window-y="-8"
     inkscape:window-x="-8"
     inkscape:cy="55.177517"
     inkscape:cx="62.368541"
     inkscape:zoom="3.337544"
     showgrid="false"
     id="namedview86"
     inkscape:window-height="1017"
     inkscape:window-width="1920"
     inkscape:pageshadow="2"
     inkscape:pageopacity="0"
     guidetolerance="10"
     gridtolerance="10"
     objecttolerance="10"
     borderopacity="1"
     bordercolor="#666666"
     pagecolor="#ffffff" /><style
     id="style2"
     type="text/css">
	.st0{fill:none;stroke:#000000;stroke-width:50;stroke-miterlimit:10;}
</style><g
     transform="translate(-92.88267,-2.9962152)"
     style="fill:#0a425a;fill-opacity:1"
     id="g82"><g
       style="fill:#0a425a;fill-opacity:1"
       id="g10"><g
         style="fill:#0a425a;fill-opacity:1"
         id="g8"><g
           style="fill:#0a425a;fill-opacity:1"
           id="g6"><path
             style="fill:#0a425a;fill-opacity:1"
             id="path4"
             d="M 479.1,338.5"
             class="st0" /></g></g></g><g
       style="fill:#0a425a;fill-opacity:1"
       id="g28"><g
         style="fill:#0a425a;fill-opacity:1"
         id="g26"><g
           style="fill:#0a425a;fill-opacity:1"
           id="g24"><g
             style="fill:#0a425a;fill-opacity:1"
             id="g14"><path
               style="fill:#0a425a;fill-opacity:1"
               id="path12"
               d="m 832.3,450.2 v 55.1 c -10.9,-14.1 -28,-23.2 -47.1,-23.2 -15.9,0 -30.4,6.3 -41,16.5 V 486.3 C 728.5,472.8 696.5,448.8 647.1,426 613.7,410.6 568.6,394.3 511.6,382.8 v 49.7 c -1.3,-0.3 -2.7,-0.5 -4.1,-0.5 -1,0 -2,0.1 -3,0.2 l -126.8,20.5 c -3.4,0.5 -6.5,2 -8.9,4 v -89 c -0.2,0 -0.5,0 -0.7,0 -41.8,-0.8 -76.1,-33.4 -78.7,-75.2 l -0.5,-7.6 c -0.5,-3.5 -0.8,-7.2 -0.8,-10.8 0,-50.5 47.7,-91.5 106.5,-91.5 8.7,0 17,0.9 25.1,2.6 l 84,-97.3 59,53.6 -75.5,87.4 c 8.8,13.3 13.9,28.8 13.9,45.2 0,5.7 -0.6,11.3 -1.8,16.6 217.7,35.4 316.4,141.2 321.6,146.9 z" /></g><g
             style="fill:#0a425a;fill-opacity:1"
             id="g18"><polygon
               style="fill:#0a425a;fill-opacity:1"
               id="polygon16"
               points="574,128.5 569.3,133.9 510.3,80.3 515,74.9 " /></g><g
             style="fill:#0a425a;fill-opacity:1"
             id="g22"><path
               style="fill:#0a425a;fill-opacity:1"
               id="path20"
               d="m 587.5,112.9 -6.9,8 -59,-53.6 5.6,-6.5 c 4.9,-5.7 13.6,-6.3 19.3,-1.4 L 586,93.6 c 5.7,4.9 6.4,13.6 1.5,19.3 z" /></g></g></g></g><g
       style="fill:#0a425a;fill-opacity:1"
       id="g36"><g
         style="fill:#0a425a;fill-opacity:1"
         id="g34"><g
           style="fill:#0a425a;fill-opacity:1"
           id="g32"><path
             style="fill:#0a425a;fill-opacity:1"
             id="path30"
             d="m 619.7,796.6 -139.2,8.1 c -8.4,0.5 -15.3,-8.8 -15.4,-20.6 L 465,764.9 c -0.1,-11.8 6.8,-21.9 15.2,-22.4 l 139.2,-8.1 c 8.4,-0.5 15.3,8.8 15.4,20.7 l 0.1,19.2 c 0,11.7 -6.8,21.8 -15.2,22.3 z" /></g></g></g><g
       style="fill:#0a425a;fill-opacity:1"
       id="g46"><g
         style="fill:#0a425a;fill-opacity:1"
         id="g44"><g
           style="fill:#0a425a;fill-opacity:1"
           id="g42"><path
             style="fill:#0a425a;fill-opacity:1"
             id="path38"
             d="m 832.7,813.3 v 40.9 l -669.3,33.4 v -39.1 c 0,-11.6 9.5,-21.1 21.2,-21.1 L 744.2,795.9 V 687.4 H 286.4 c -11.9,0 -22.1,-9.3 -22.5,-21.2 -0.5,-12.5 9.6,-22.9 22,-22.9 h 458.3 v -58.6 c 10.7,10.2 25.2,16.5 41,16.5 19.1,0 36.2,-9.1 47.1,-23.2 v 231.2 c 0.3,1.3 0.4,2.7 0.4,4.1 z" /><path
             style="fill:#0a425a;fill-opacity:1"
             id="path40"
             d="m 163.4,902.7 669.3,-33.4 v 53.5 c 0,11.6 -9.5,21.1 -21.1,21.1 h -627 c -11.6,0 -21.2,-9.5 -21.2,-21.1 v -20.1 z" /></g></g></g><g
       style="fill:#0a425a;fill-opacity:1"
       id="g58"><g
         style="fill:#0a425a;fill-opacity:1"
         id="g56"><g
           style="fill:#0a425a;fill-opacity:1"
           id="g50"><path
             style="fill:#0a425a;fill-opacity:1"
             id="path48"
             d="m 404.2,552.4 h 44 c -0.6,8.7 -5.6,15.6 -11.7,15.6 h -20.6 c -6.1,0 -11.1,-6.9 -11.7,-15.6 z" /></g><g
           style="fill:#0a425a;fill-opacity:1"
           id="g54"><path
             style="fill:#0a425a;fill-opacity:1"
             id="path52"
             d="m 508.5,538.6 -17.2,-12.6 3.8,9.3 -39.4,16.4 -7.5,-18.1 v 16.1 h -44.1 v -47.1 c 0,-2 0.2,-4 0.7,-5.8 l -19.6,3.2 c -0.8,0.1 -1.6,0.2 -2.4,0.2 -7.3,0 -13.9,-5.4 -15.1,-12.8 L 365.5,474 c -0.7,-4.5 0.6,-8.9 3.3,-12.1 2.3,-2.8 5.5,-4.8 9.4,-5.4 L 505,435.7 c 0.8,-0.1 1.6,-0.2 2.4,-0.2 1.4,0 2.8,0.2 4.1,0.6 5.5,1.6 10,6.2 11,12.3 l 2.2,13.4 c 1.3,8.3 -4.4,16.2 -12.6,17.5 l -9.2,1.5 31.3,23 z" /></g></g></g><g
       style="fill:#0a425a;fill-opacity:1"
       id="g66"><g
         style="fill:#0a425a;fill-opacity:1"
         id="g64"><g
           style="fill:#0a425a;fill-opacity:1"
           id="g62"><path
             style="fill:#0a425a;fill-opacity:1"
             id="path60"
             d="m 456.9,554.2 39.3,-16.3 c 2.7,8 0.7,16 -4.7,18.3 l -18.4,7.6 c -5.4,2.2 -12.5,-2.1 -16.2,-9.6 z" /></g></g></g><g
       style="fill:#0a425a;fill-opacity:1"
       id="g74"><g
         style="fill:#0a425a;fill-opacity:1"
         id="g72"><g
           style="fill:#0a425a;fill-opacity:1"
           id="g70"><path
             style="fill:#0a425a;fill-opacity:1"
             id="path68"
             d="m 510.9,540.3 25.6,-34.8 c 6.5,5.5 9,13.5 5.5,18.3 l -12,16.3 c -3.6,4.8 -11.9,4.8 -19.1,0.2 z" /></g></g></g><g
       style="fill:#0a425a;fill-opacity:1"
       id="g80"><g
         style="fill:#0a425a;fill-opacity:1"
         id="g78"><path
           style="fill:#0a425a;fill-opacity:1"
           id="path76"
           d="m 836.6,541.6 c 0,7.3 -1.5,14.2 -4.3,20.5 -7.9,18.2 -26,30.9 -47.1,30.9 -16.8,0 -31.7,-8.1 -41,-20.5 -6.5,-8.6 -10.3,-19.3 -10.3,-30.9 0,-11.6 3.8,-22.3 10.3,-30.9 9.4,-12.5 24.3,-20.5 41,-20.5 21.1,0 39.2,12.7 47.1,30.8 2.7,6.4 4.3,13.3 4.3,20.6 z" /></g></g></g><path
     style="stroke-width:3.37679;fill:#0a425a;fill-opacity:1"
     d="m 788.00464,52.333876 c -88.4719,0 -160.39744,71.925564 -160.39744,160.397394 0,88.47183 71.92554,160.39741 160.39744,160.39741 88.4718,0 160.3974,-71.92558 160.3974,-160.39741 0,-88.47183 -71.9256,-160.397394 -160.3974,-160.397394 z m 14.8578,187.074014 v 52.00253 c 0,7.76661 -5.7405,14.85786 -13.8448,15.53322 -4.3898,0.33768 -8.7796,-1.35071 -11.4811,-4.38982 -2.7014,-2.70143 -4.3898,-6.4159 -4.3898,-10.46804 v -53.01557 c 0,-6.41589 -5.4028,-11.81875 -11.8187,-11.81875 h -53.0156 c -4.0522,0 -7.7666,-1.6884 -10.4681,-4.38983 -3.0391,-3.03911 -4.7275,-7.09125 -4.3898,-11.48107 0.6754,-7.76662 7.7666,-13.84483 15.5332,-13.84483 h 52.3403 c 6.4159,0 11.8187,-5.40286 11.8187,-11.81876 v -52.34021 c 0,-8.77964 7.429,-15.53322 16.2086,-14.85786 7.7666,0.67536 13.5071,7.76661 13.5071,15.53322 v 52.34021 c 0,6.41589 5.4029,11.81875 11.8188,11.81875 h 53.0156 c 8.7796,0 15.5332,7.42894 14.8578,16.20858 -0.6753,7.76662 -7.7666,13.50715 -15.5332,13.50715 h -52.3402 c -6.4159,-0.33767 -11.8188,5.06519 -11.8188,11.48108 z"
     id="path2" /></svg>
