<?xml version="1.0" encoding="UTF-8" standalone="no"?>
<svg
   xmlns:dc="http://purl.org/dc/elements/1.1/"
   xmlns:cc="http://creativecommons.org/ns#"
   xmlns:rdf="http://www.w3.org/1999/02/22-rdf-syntax-ns#"
   xmlns:svg="http://www.w3.org/2000/svg"
   xmlns="http://www.w3.org/2000/svg"
   xmlns:sodipodi="http://sodipodi.sourceforge.net/DTD/sodipodi-0.dtd"
   xmlns:inkscape="http://www.inkscape.org/namespaces/inkscape"
   height="100px"
   width="100px"
   fill="#000000"
   version="1.1"
   x="0px"
   y="0px"
   viewBox="0 0 1000 1000"
   style="enable-background:new 0 0 1000 1000;"
   xml:space="preserve"
   id="svg84"
   sodipodi:docname="analyses.svg"
   inkscape:version="0.92.4 (5da689c313, 2019-01-14)"><metadata
     id="metadata90"><rdf:RDF><cc:Work
         rdf:about=""><dc:format>image/svg+xml</dc:format><dc:type
           rdf:resource="http://purl.org/dc/dcmitype/StillImage" /><dc:title></dc:title></cc:Work></rdf:RDF></metadata><defs
     id="defs88" /><sodipodi:namedview
     pagecolor="#ffffff"
     bordercolor="#666666"
     borderopacity="1"
     objecttolerance="10"
     gridtolerance="10"
     guidetolerance="10"
     inkscape:pageopacity="0"
     inkscape:pageshadow="2"
     inkscape:window-width="779"
     inkscape:window-height="715"
     id="namedview86"
     showgrid="false"
     inkscape:zoom="2.36"
     inkscape:cx="50"
     inkscape:cy="50"
     inkscape:window-x="0"
     inkscape:window-y="27"
     inkscape:window-maximized="0"
     inkscape:current-layer="svg84" /><style
     type="text/css"
     id="style2">
	.st0{fill:none;stroke:#000000;stroke-width:50;stroke-miterlimit:10;}
</style><g
     id="g82"
     style="fill:#0a425a;fill-opacity:1"><g
       id="g10"
       style="fill:#0a425a;fill-opacity:1"><g
         id="g8"
         style="fill:#0a425a;fill-opacity:1"><g
           id="g6"
           style="fill:#0a425a;fill-opacity:1"><path
             class="st0"
             d="M479.1,338.5"
             id="path4"
             style="fill:#0a425a;fill-opacity:1" /></g></g></g><g
       id="g28"
       style="fill:#0a425a;fill-opacity:1"><g
         id="g26"
         style="fill:#0a425a;fill-opacity:1"><g
           id="g24"
           style="fill:#0a425a;fill-opacity:1"><g
             id="g14"
             style="fill:#0a425a;fill-opacity:1"><path
               d="M832.3,450.2v55.1c-10.9-14.1-28-23.2-47.1-23.2c-15.9,0-30.4,6.3-41,16.5v-12.3       c-15.7-13.5-47.7-37.5-97.1-60.3c-33.4-15.4-78.5-31.7-135.5-43.2v49.7c-1.3-0.3-2.7-0.5-4.1-0.5c-1,0-2,0.1-3,0.2l-126.8,20.5       c-3.4,0.5-6.5,2-8.9,4v-89c-0.2,0-0.5,0-0.7,0c-41.8-0.8-76.1-33.4-78.7-75.2l-0.5-7.6c-0.5-3.5-0.8-7.2-0.8-10.8       c0-50.5,47.7-91.5,106.5-91.5c8.7,0,17,0.9,25.1,2.6l84-97.3l59,53.6l-75.5,87.4c8.8,13.3,13.9,28.8,13.9,45.2       c0,5.7-0.6,11.3-1.8,16.6C717,326.1,815.7,431.9,820.9,437.6L832.3,450.2z"
               id="path12"
               style="fill:#0a425a;fill-opacity:1" /></g><g
             id="g18"
             style="fill:#0a425a;fill-opacity:1"><polygon
               points="515,74.9 574,128.5 569.3,133.9 510.3,80.3      "
               id="polygon16"
               style="fill:#0a425a;fill-opacity:1" /></g><g
             id="g22"
             style="fill:#0a425a;fill-opacity:1"><path
               d="M587.5,112.9l-6.9,8l-59-53.6l5.6-6.5c4.9-5.7,13.6-6.3,19.3-1.4L586,93.6       C591.7,98.5,592.4,107.2,587.5,112.9z"
               id="path20"
               style="fill:#0a425a;fill-opacity:1" /></g></g></g></g><g
       id="g36"
       style="fill:#0a425a;fill-opacity:1"><g
         id="g34"
         style="fill:#0a425a;fill-opacity:1"><g
           id="g32"
           style="fill:#0a425a;fill-opacity:1"><path
             d="M619.7,796.6l-139.2,8.1c-8.4,0.5-15.3-8.8-15.4-20.6l-0.1-19.2c-0.1-11.8,6.8-21.9,15.2-22.4l139.2-8.1      c8.4-0.5,15.3,8.8,15.4,20.7l0.1,19.2C634.9,786,628.1,796.1,619.7,796.6z"
             id="path30"
             style="fill:#0a425a;fill-opacity:1" /></g></g></g><g
       id="g46"
       style="fill:#0a425a;fill-opacity:1"><g
         id="g44"
         style="fill:#0a425a;fill-opacity:1"><g
           id="g42"
           style="fill:#0a425a;fill-opacity:1"><path
             d="M832.7,813.3v40.9l-669.3,33.4v-39.1c0-11.6,9.5-21.1,21.2-21.1l559.6-31.5V687.4H286.4      c-11.9,0-22.1-9.3-22.5-21.2c-0.5-12.5,9.6-22.9,22-22.9h458.3v-58.6c10.7,10.2,25.2,16.5,41,16.5c19.1,0,36.2-9.1,47.1-23.2      v231.2C832.6,810.5,832.7,811.9,832.7,813.3z"
             id="path38"
             style="fill:#0a425a;fill-opacity:1" /><path
             d="M163.4,902.7l669.3-33.4v53.5c0,11.6-9.5,21.1-21.1,21.1h-627c-11.6,0-21.2-9.5-21.2-21.1V902.7z"
             id="path40"
             style="fill:#0a425a;fill-opacity:1" /></g></g></g><g
       id="g58"
       style="fill:#0a425a;fill-opacity:1"><g
         id="g56"
         style="fill:#0a425a;fill-opacity:1"><g
           id="g50"
           style="fill:#0a425a;fill-opacity:1"><path
             d="M404.2,552.4h44c-0.6,8.7-5.6,15.6-11.7,15.6l-20.6,0C409.8,568,404.8,561.1,404.2,552.4z"
             id="path48"
             style="fill:#0a425a;fill-opacity:1" /></g><g
           id="g54"
           style="fill:#0a425a;fill-opacity:1"><path
             d="M508.5,538.6L491.3,526l3.8,9.3l-39.4,16.4l-7.5-18.1l0,16.1h-44.1l0-47.1c0-2,0.2-4,0.7-5.8l-19.6,3.2      c-0.8,0.1-1.6,0.2-2.4,0.2c-7.3,0-13.9-5.4-15.1-12.8l-2.2-13.4c-0.7-4.5,0.6-8.9,3.3-12.1c2.3-2.8,5.5-4.8,9.4-5.4L505,435.7      c0.8-0.1,1.6-0.2,2.4-0.2c1.4,0,2.8,0.2,4.1,0.6c5.5,1.6,10,6.2,11,12.3l2.2,13.4c1.3,8.3-4.4,16.2-12.6,17.5l-9.2,1.5l31.3,23      L508.5,538.6z"
             id="path52"
             style="fill:#0a425a;fill-opacity:1" /></g></g></g><g
       id="g66"
       style="fill:#0a425a;fill-opacity:1"><g
         id="g64"
         style="fill:#0a425a;fill-opacity:1"><g
           id="g62"
           style="fill:#0a425a;fill-opacity:1"><path
             d="M456.9,554.2l39.3-16.3c2.7,8,0.7,16-4.7,18.3l-18.4,7.6C467.7,566,460.6,561.7,456.9,554.2z"
             id="path60"
             style="fill:#0a425a;fill-opacity:1" /></g></g></g><g
       id="g74"
       style="fill:#0a425a;fill-opacity:1"><g
         id="g72"
         style="fill:#0a425a;fill-opacity:1"><g
           id="g70"
           style="fill:#0a425a;fill-opacity:1"><path
             d="M510.9,540.3l25.6-34.8c6.5,5.5,9,13.5,5.5,18.3L530,540.1C526.4,544.9,518.1,544.9,510.9,540.3z"
             id="path68"
             style="fill:#0a425a;fill-opacity:1" /></g></g></g><g
       id="g80"
       style="fill:#0a425a;fill-opacity:1"><g
         id="g78"
         style="fill:#0a425a;fill-opacity:1"><path
           d="M836.6,541.6c0,7.3-1.5,14.2-4.3,20.5c-7.9,18.2-26,30.9-47.1,30.9c-16.8,0-31.7-8.1-41-20.5     c-6.5-8.6-10.3-19.3-10.3-30.9c0-11.6,3.8-22.3,10.3-30.9c9.4-12.5,24.3-20.5,41-20.5c21.1,0,39.2,12.7,47.1,30.8     C835,527.4,836.6,534.3,836.6,541.6z"
           id="path76"
           style="fill:#0a425a;fill-opacity:1" /></g></g></g></svg>