<?xml version="1.0" encoding="UTF-8" standalone="no"?>
<svg
   xmlns:dc="http://purl.org/dc/elements/1.1/"
   xmlns:cc="http://creativecommons.org/ns#"
   xmlns:rdf="http://www.w3.org/1999/02/22-rdf-syntax-ns#"
   xmlns:svg="http://www.w3.org/2000/svg"
   xmlns="http://www.w3.org/2000/svg"
   xmlns:sodipodi="http://sodipodi.sourceforge.net/DTD/sodipodi-0.dtd"
   xmlns:inkscape="http://www.inkscape.org/namespaces/inkscape"
   height="100px"
   width="100px"
   fill="#000000"
   version="1.1"
   x="0px"
   y="0px"
   viewBox="0 0 24 24"
   style="enable-background:new 0 0 24 24;"
   xml:space="preserve"
   id="svg48"
   sodipodi:docname="ane.svg"
   inkscape:version="0.92.4 (5da689c313, 2019-01-14)"><metadata
     id="metadata54"><rdf:RDF><cc:Work
         rdf:about=""><dc:format>image/svg+xml</dc:format><dc:type
           rdf:resource="http://purl.org/dc/dcmitype/StillImage" /><dc:title></dc:title></cc:Work></rdf:RDF></metadata><defs
     id="defs52" /><sodipodi:namedview
     pagecolor="#ffffff"
     bordercolor="#666666"
     borderopacity="1"
     objecttolerance="10"
     gridtolerance="10"
     guidetolerance="10"
     inkscape:pageopacity="0"
     inkscape:pageshadow="2"
     inkscape:window-width="1920"
     inkscape:window-height="1016"
     id="namedview50"
     showgrid="false"
     inkscape:zoom="2.36"
     inkscape:cx="50"
     inkscape:cy="50"
     inkscape:window-x="0"
     inkscape:window-y="27"
     inkscape:window-maximized="1"
     inkscape:current-layer="svg48" /><rect
     y="-0.46343517"
     x="-0.085353851"
     height="24.92687"
     width="24.170708"
     id="rect4491"
     style="opacity:0.57399998;fill:#cccccc;fill-opacity:1;stroke:none;stroke-width:0.5827899;stroke-linejoin:round;stroke-miterlimit:4;stroke-dasharray:none;stroke-dashoffset:0;stroke-opacity:1" /><g
     id="g46"
     transform="matrix(0.90508475,0,0,0.90508475,1.1389831,1.1391606)"><g
       id="g4"><path
         d="M 9,10 C 8.889,10 8.777,9.962 8.687,9.89 8.517,9.753 4.501,6.464 4.5,0.502 4.5,0.382 4.542,0.262 4.627,0.168 4.643,0.15 4.658,0.135 4.676,0.12 4.755,0.052 4.85,0.013 4.946,0.003 4.972,0 4.994,-0.001 5.02,0.001 v 0 h 0.001 0.001 v 0 C 5.137,0.006 5.251,0.051 5.341,0.135 6.083,0.82 12.5,6.829 12.5,9.5 12.5,9.776 12.276,10 12,10 11.724,10 11.5,9.776 11.5,9.5 11.5,8.545 10.151,6.683 8.501,4.804 9.208,6.431 9.579,8.093 9.499,9.528 9.489,9.715 9.375,9.881 9.204,9.957 9.139,9.986 9.069,10 9,10 Z M 5.583,1.896 c 0.37,3.08 1.893,5.25 2.874,6.361 C 8.214,6.194 7.145,3.825 5.583,1.896 Z"
         id="path2"
         inkscape:connector-curvature="0" /></g><g
       id="g8"><path
         d="M 12,24 C 8.54,24 8.5,21.525 8.5,21.5 V 19.618 L 7.053,16.723 C 6.999,16.616 6.987,16.494 7.015,16.378 L 7.47,14.557 6.553,12.723 C 6.473,12.562 6.485,12.371 6.584,12.222 l 2,-3 C 8.738,8.992 9.049,8.931 9.277,9.083 9.506,9.236 9.569,9.546 9.416,9.776 l -1.839,2.759 0.87,1.74 c 0.054,0.107 0.066,0.229 0.038,0.345 L 8.03,16.442 9.447,19.276 C 9.481,19.346 9.5,19.423 9.5,19.5 v 2 c 0.004,0.148 0.109,1.5 2.5,1.5 0.276,0 0.5,0.224 0.5,0.5 0,0.276 -0.224,0.5 -0.5,0.5 z"
         id="path6"
         inkscape:connector-curvature="0" /></g><g
       id="g12"><path
         d="m 10.906,22.009 c -0.154,0 -0.366,-0.035 -0.559,-0.187 C 10.189,21.697 10,21.452 10,21 c 0,-0.276 0.224,-0.5 0.5,-0.5 0.274,0 0.498,0.222 0.5,0.496 0.246,-0.017 0.442,0.15 0.497,0.387 0.063,0.269 -0.113,0.54 -0.383,0.604 -0.028,0.007 -0.105,0.022 -0.208,0.022 z"
         id="path10"
         inkscape:connector-curvature="0" /></g><g
       id="g16"><path
         d="m 9.295,20.012 c -0.176,0 -0.302,-0.01 -0.342,-0.014 -0.274,-0.026 -0.476,-0.269 -0.45,-0.544 0.024,-0.275 0.272,-0.479 0.543,-0.452 0.314,0.027 1.068,0.004 1.354,-0.255 0.071,-0.066 0.1,-0.137 0.1,-0.247 0,-0.276 0.224,-0.5 0.5,-0.5 h 1 c 0.276,0 0.5,0.224 0.5,0.5 0,0.276 -0.224,0.5 -0.5,0.5 h -0.591 c -0.072,0.184 -0.185,0.348 -0.337,0.486 -0.499,0.454 -1.312,0.526 -1.777,0.526 z"
         id="path14"
         inkscape:connector-curvature="0" /></g><g
       id="g20"><path
         d="M 15,10 C 14.931,10 14.861,9.986 14.796,9.957 14.625,9.881 14.511,9.715 14.501,9.528 14.421,8.093 14.792,6.433 15.498,4.805 13.849,6.684 12.5,8.546 12.5,9.5 12.5,9.776 12.276,10 12,10 11.724,10 11.5,9.776 11.5,9.5 11.5,6.829 17.917,0.82 18.659,0.134 18.749,0.05 18.864,0.005 18.979,0 h 0.001 v 0 c 0.025,-0.001 0.05,0 0.075,0.002 v 0 0 c 0.097,0.011 0.19,0.05 0.269,0.117 0.018,0.015 0.033,0.03 0.049,0.047 C 19.458,0.262 19.5,0.382 19.5,0.502 19.499,6.464 15.483,9.753 15.312,9.891 15.223,9.963 15.111,10 15,10 Z m 3.416,-8.103 c -1.56,1.927 -2.628,4.294 -2.873,6.356 0.981,-1.115 2.503,-3.288 2.873,-6.356 z"
         id="path18"
         inkscape:connector-curvature="0" /></g><g
       id="g24"><path
         d="m 12,24 c -0.276,0 -0.5,-0.224 -0.5,-0.5 0,-0.276 0.224,-0.5 0.5,-0.5 2.391,0 2.496,-1.352 2.5,-1.506 V 19.5 c 0,-0.078 0.019,-0.154 0.053,-0.224 l 1.417,-2.834 -0.455,-1.821 c -0.028,-0.116 -0.016,-0.238 0.038,-0.345 l 0.87,-1.74 -1.839,-2.759 c -0.153,-0.23 -0.091,-0.54 0.139,-0.693 0.228,-0.153 0.539,-0.092 0.693,0.139 l 2,3 c 0.1,0.149 0.111,0.34 0.031,0.501 l -0.917,1.834 0.455,1.821 c 0.028,0.116 0.016,0.238 -0.038,0.345 L 15.5,19.618 V 21.5 c 0,0.025 -0.04,2.5 -3.5,2.5 z"
         id="path22"
         inkscape:connector-curvature="0" /></g><g
       id="g28"><path
         d="m 13.094,22.009 c -0.103,0 -0.18,-0.015 -0.208,-0.022 C 12.616,21.924 12.45,21.654 12.514,21.385 12.568,21.156 12.773,21 12.998,21 c 0.041,-0.243 0.25,-0.457 0.497,-0.457 0.276,0 0.505,0.181 0.505,0.457 0,0.452 -0.189,0.696 -0.348,0.822 -0.192,0.152 -0.404,0.187 -0.558,0.187 z"
         id="path26"
         inkscape:connector-curvature="0" /></g><g
       id="g32"><path
         d="m 14.705,20.012 c -0.465,0 -1.278,-0.072 -1.777,-0.525 -0.152,-0.139 -0.265,-0.303 -0.337,-0.486 H 12 c -0.276,0 -0.5,-0.224 -0.5,-0.5 C 11.5,18.225 11.724,18 12,18 h 1 c 0.276,0 0.5,0.224 0.5,0.5 0,0.11 0.029,0.181 0.102,0.247 0.287,0.262 1.037,0.286 1.352,0.255 0.271,-0.028 0.52,0.176 0.545,0.451 0.025,0.275 -0.177,0.519 -0.451,0.545 -0.041,0.004 -0.167,0.014 -0.343,0.014 z"
         id="path30"
         inkscape:connector-curvature="0" /></g><g
       id="g36"><path
         d="M 13.5,6.5 C 13.291,6.5 13.096,6.368 13.025,6.158 L 12.64,5 H 11.36 L 10.974,6.158 C 10.886,6.421 10.605,6.563 10.341,6.474 10.079,6.387 9.938,6.104 10.025,5.842 l 0.5,-1.5 C 10.594,4.138 10.785,4 11,4 h 2 c 0.215,0 0.406,0.138 0.475,0.342 l 0.5,1.5 C 14.062,6.104 13.92,6.387 13.659,6.474 13.605,6.492 13.553,6.5 13.5,6.5 Z"
         id="path34"
         inkscape:connector-curvature="0" /></g><g
       id="g40"><circle
         cx="10"
         cy="14.5"
         r="0.5"
         id="circle38" /></g><g
       id="g44"><circle
         cx="14"
         cy="14.5"
         r="0.5"
         id="circle42" /></g></g></svg>