<?xml version="1.0" encoding="UTF-8" standalone="no"?>
<svg
   xmlns:dc="http://purl.org/dc/elements/1.1/"
   xmlns:cc="http://creativecommons.org/ns#"
   xmlns:rdf="http://www.w3.org/1999/02/22-rdf-syntax-ns#"
   xmlns:svg="http://www.w3.org/2000/svg"
   xmlns="http://www.w3.org/2000/svg"
   xmlns:sodipodi="http://sodipodi.sourceforge.net/DTD/sodipodi-0.dtd"
   xmlns:inkscape="http://www.inkscape.org/namespaces/inkscape"
   height="100px"
   width="100px"
   fill="#000000"
   version="1.1"
   x="0px"
   y="0px"
   viewBox="0 0 100 100"
   style="enable-background:new 0 0 100 100;"
   xml:space="preserve"
   id="svg12"
   sodipodi:docname="baer.svg"
   inkscape:version="0.92.4 (5da689c313, 2019-01-14)"><metadata
     id="metadata18"><rdf:RDF><cc:Work
         rdf:about=""><dc:format>image/svg+xml</dc:format><dc:type
           rdf:resource="http://purl.org/dc/dcmitype/StillImage" /><dc:title></dc:title></cc:Work></rdf:RDF></metadata><defs
     id="defs16" /><sodipodi:namedview
     pagecolor="#ffffff"
     bordercolor="#666666"
     borderopacity="1"
     objecttolerance="10"
     gridtolerance="10"
     guidetolerance="10"
     inkscape:pageopacity="0"
     inkscape:pageshadow="2"
     inkscape:window-width="1600"
     inkscape:window-height="836"
     id="namedview14"
     showgrid="false"
     inkscape:snap-global="false"
     inkscape:zoom="13.350176"
     inkscape:cx="60.324224"
     inkscape:cy="43.91239"
     inkscape:window-x="0"
     inkscape:window-y="27"
     inkscape:window-maximized="1"
     inkscape:current-layer="svg12" /><circle
     style="fill:#b3b3b3;fill-opacity:0.94117647;stroke-width:0.99999994"
     id="path815"
     cx="50.036793"
     cy="50.56245"
     r="50.002552" /><g
     id="g10"
     transform="matrix(0.66079349,0,0,0.66079349,16.952795,23.35719)"><path
       d="m 20.056,54.954 c 1.104,0 2,-0.896 2,-2 v -2.25 c 0,-1.104 -0.896,-2 -2,-2 -1.104,0 -2,0.896 -2,2 v 2.25 c 0,1.105 0.895,2 2,2 z"
       id="path2"
       inkscape:connector-curvature="0" /><path
       d="m 65.017,81.019 h -42.2 c -0.257,0 -0.508,0.024 -0.762,0.039 V 58.454 c 0,-1.104 -0.896,-2 -2,-2 -1.104,0 -2,0.896 -2,2 v 23.484 c -4.781,1.901 -8.175,6.565 -8.175,12.016 0,1.104 0.896,2 2,2 h 41.87 c 1.104,0 2,-0.896 2,-2 0,-1.104 -0.896,-2 -2,-2 H 14.106 c 0.911,-3.968 4.471,-6.936 8.711,-6.936 h 42.199 c 4.24,0 7.8,2.968 8.711,6.936 H 65.75 c -1.104,0 -2,0.896 -2,2 0,1.104 0.896,2 2,2 h 10.203 c 1.104,0 2,-0.896 2,-2 0,-7.133 -5.803,-12.935 -12.936,-12.935 z"
       id="path4"
       inkscape:connector-curvature="0" /><path
       d="m 60.292,91.954 h -1.25 c -1.104,0 -2,0.896 -2,2 0,1.104 0.896,2 2,2 h 1.25 c 1.104,0 2,-0.896 2,-2 0,-1.104 -0.896,-2 -2,-2 z"
       id="path6"
       inkscape:connector-curvature="0" /><path
       d="M 51.859,21.144 H 30.031 c -0.932,-4.656 -5.049,-8.175 -9.975,-8.175 -5.61,0 -10.175,4.564 -10.175,10.175 0,0.389 0.022,0.774 0.065,1.152 0.125,1.098 1.111,1.887 2.214,1.761 1.097,-0.125 1.885,-1.116 1.76,-2.214 -0.026,-0.229 -0.04,-0.463 -0.04,-0.699 0,-3.405 2.77,-6.175 6.175,-6.175 3.405,0 6.175,2.77 6.175,6.175 0,3.404 -2.77,6.174 -6.175,6.174 -1.741,0 -3.352,-0.704 -4.534,-1.982 -0.75,-0.81 -2.015,-0.86 -2.826,-0.109 -0.811,0.75 -0.86,2.015 -0.11,2.826 1.461,1.579 3.387,2.641 5.47,3.061 v 11.59 c 0,1.104 0.896,2 2,2 1.104,0 2,-0.896 2,-2 V 33.119 c 4.008,-0.802 7.173,-3.966 7.975,-7.974 h 21.828 z"
       id="path8"
       inkscape:connector-curvature="0"
       sodipodi:nodetypes="ccsscccssssccccssscccc" /></g><g
     transform="matrix(2.6007118,0,0,-2.6007118,85.41916,67.019781)"
     style="fill:none;fill-rule:evenodd;stroke:none;stroke-width:1"
     id="g8" /><path
     style="fill:#000000;fill-rule:nonzero;stroke:none;stroke-width:1.59631884"
     inkscape:connector-curvature="0"
     d="m 52.167572,54.907387 h 5.995617 v -20.11743 l 6.524642,-10.483733 h -19.0449 l 6.524641,10.483733 z m 7.494521,0 h 1.498905 v 1.700065 H 49.169764 v -1.700065 h 1.498904 V 35.329535 L 39.290393,17.047034 C 37.858221,14.745831 38.341972,11.563519 40.370885,9.9391417 41.129555,9.3317392 42.035421,9.005643 42.964062,9.005643 h 24.402637 c 2.483465,0 4.496712,2.283435 4.496712,5.100194 0,1.05327 -0.28751,2.080709 -0.823043,2.941197 L 59.662093,35.329535 Z M 44.584881,22.60616 h 21.161 l 4.069931,-6.539526 c 0.357021,-0.573658 0.548695,-1.258618 0.548695,-1.960797 0,-1.877839 -1.342164,-3.400129 -2.997808,-3.400129 H 42.964062 c -0.619094,0 -1.223005,0.217397 -1.728785,0.622332 -1.352608,1.082919 -1.675109,3.20446 -0.720327,4.738594 z"
     id="path6-3" /><path
     style="fill:none;fill-rule:evenodd;stroke:#000000;stroke-width:1.53246605;stroke-linecap:butt;stroke-linejoin:miter;stroke-miterlimit:4;stroke-dasharray:none;stroke-opacity:1"
     d="M 58.912641,54.748907 V 62.81265"
     id="path839"
     inkscape:connector-curvature="0" /><path
     style="fill:none;fill-rule:evenodd;stroke:#000000;stroke-width:1.53246605;stroke-linecap:butt;stroke-linejoin:miter;stroke-miterlimit:4;stroke-dasharray:none;stroke-opacity:1"
     d="M 51.354421,54.748907 V 62.81265"
     id="path839-6"
     inkscape:connector-curvature="0" /><path
     style="fill:none;fill-rule:evenodd;stroke:#000000;stroke-width:1.28200448;stroke-linecap:butt;stroke-linejoin:miter;stroke-miterlimit:4;stroke-dasharray:none;stroke-opacity:1"
     d="m 61.618105,53.151875 v 5.643312"
     id="path839-7"
     inkscape:connector-curvature="0" /><rect
     style="opacity:1;fill:#b3b3b3;fill-opacity:0.94117647;stroke:none;stroke-width:1.07272625;stroke-miterlimit:4;stroke-dasharray:none;stroke-opacity:1"
     id="rect837"
     width="37.221737"
     height="7.6610136"
     x="-73.703087"
     y="8.3683929"
     transform="scale(-1,1)" /></svg>