<?xml version="1.0" encoding="UTF-8" standalone="no"?>
<svg
   xmlns:dc="http://purl.org/dc/elements/1.1/"
   xmlns:cc="http://creativecommons.org/ns#"
   xmlns:rdf="http://www.w3.org/1999/02/22-rdf-syntax-ns#"
   xmlns:svg="http://www.w3.org/2000/svg"
   xmlns="http://www.w3.org/2000/svg"
   xmlns:sodipodi="http://sodipodi.sourceforge.net/DTD/sodipodi-0.dtd"
   xmlns:inkscape="http://www.inkscape.org/namespaces/inkscape"
   height="100px"
   width="100px"
   fill="#000000"
   data-name="Layer 1"
   viewBox="0 0 80 80"
   x="0px"
   y="0px"
   version="1.1"
   id="svg6"
   sodipodi:docname="bilan.svg"
   inkscape:version="0.92.4 (5da689c313, 2019-01-14)">
  <metadata
     id="metadata12">
    <rdf:RDF>
      <cc:Work
         rdf:about="">
        <dc:format>image/svg+xml</dc:format>
        <dc:type
           rdf:resource="http://purl.org/dc/dcmitype/StillImage" />
        <dc:title>01_BO_search</dc:title>
      </cc:Work>
    </rdf:RDF>
  </metadata>
  <defs
     id="defs10" />
  <sodipodi:namedview
     pagecolor="#ffffff"
     bordercolor="#666666"
     borderopacity="1"
     objecttolerance="10"
     gridtolerance="10"
     guidetolerance="10"
     inkscape:pageopacity="0"
     inkscape:pageshadow="2"
     inkscape:window-width="1920"
     inkscape:window-height="1016"
     id="namedview8"
     showgrid="false"
     inkscape:zoom="6.675088"
     inkscape:cx="56.771468"
     inkscape:cy="54.165215"
     inkscape:window-x="0"
     inkscape:window-y="27"
     inkscape:window-maximized="1"
     inkscape:current-layer="svg6"
     inkscape:snap-global="false" />
  <title
     id="title2">01_BO_search</title>
  <path
     inkscape:connector-curvature="0"
     d="m 66.940282,33.611847 c 0.116305,-0.651187 0.279043,-1.255955 0.162732,-1.697994 -0.116303,-0.442039 -0.883809,-2.356917 -0.744291,-3.00437 0.139522,-0.647452 0.16273,-3.461882 0.16273,-4.136276 0,-0.674397 -0.767496,-1.674786 -0.767496,-1.674786 0,0 0.558348,-0.674396 0.721078,-1.162853 0.162731,-0.488457 -0.186205,-0.302252 -0.186205,-0.302252 0,0 0.0699,-0.604767 -0.442037,-1.070015 -0.511668,-0.465248 -1.651312,-0.860602 -1.651312,-0.860602 0,0 1.070017,0.82192 1.186328,1.697994 0.01787,0.134994 -0.302251,0.29665 -0.604768,0.418563 -0.628778,0.253965 -3.326095,-0.325725 -4.675154,-0.302251 -1.349058,0.02321 -3.884445,0.325727 -4.209906,0.209416 -0.325724,-0.116305 -1.349059,-0.721082 -1.674784,-1.023334 -0.325726,-0.30225 -2.116556,-0.511665 -2.116556,-0.511665 l -1.349059,-1.569944 c 0,0 -0.197678,0.05815 -0.627979,0 -0.430301,-0.05815 -1.186329,-0.58156 -1.32585,-1.023331 -0.139522,-0.44204 -0.03495,-1.209538 -0.08137,-1.558473 -0.04642,-0.348938 -0.732553,-1.372268 -0.732553,-1.372268 0,0 0.732553,0.814183 0.87234,1.232747 0.139785,0.418561 -0.104568,1.465369 0.09311,1.639837 0.197676,0.174469 0.837393,0.941967 1.209539,0.941967 0.372144,0 1.395475,-0.442039 0.872338,-1.581682 -0.523403,-1.139645 -1.465371,-1.674785 -1.604889,-2.058402 -0.139523,-0.383616 -0.697875,-0.662925 -0.697875,-0.662925 0,0 0.58156,-1.011859 0.953706,-1.046808 0.372145,-0.03496 1.756151,0.325728 1.756151,0.325728 0,0 -1.046808,-0.918759 -1.767622,-0.953706 -0.720816,-0.03494 -1.94209,1.244486 -1.94209,1.244486 0,0 -1.418953,-0.139522 -1.814308,-0.04642 -0.395353,0.09311 -0.453509,0.662925 -0.604767,0.825653 -0.151259,0.162732 -0.488457,0.732553 -0.418564,1.023334 0.0699,0.290779 0.162731,0.837393 0.151259,1.255955 -0.01178,0.418562 -0.116303,1.822043 -0.05815,2.120559 0.03922,0.200878 0.257434,0.32226 0.405225,0.410293 0.09577,-0.01867 0.183271,-0.03868 0.228622,-0.05362 0.122177,-0.04081 0.627978,-0.174468 0.738422,-0.220886 0.110438,-0.04642 0.442039,-0.337197 0.442039,-0.337197 0,0 -0.273174,0.418563 -0.378015,0.471115 -0.104854,0.05255 -0.308119,0.122177 -0.482588,0.174469 -0.105118,0.03147 -0.239559,0.07149 -0.35027,0.109913 0.152593,0.11711 0.410295,0.295849 0.559685,0.345735 0.186206,0.06216 0.914755,-0.279043 0.914755,-0.279043 0,0 0.558352,1.426689 0.775236,2.108821 0.217153,0.6824 0.837393,1.628102 0.992385,2.108821 0.154996,0.480721 -0.03095,1.628102 0.108572,2.046932 0.139522,0.418563 0.496196,1.84525 0.697873,2.232869 0.201679,0.387618 0.945968,0.852865 1.333585,0.945966 0.387618,0.09311 0.961442,0.759763 0.976915,1.070018 0.01546,0.310254 0.271304,1.457634 0.271304,2.015717 0,0.558085 -0.04642,1.186329 0,1.65131 0.04642,0.465247 0.488458,1.023332 0.348937,1.76762 -0.139523,0.74429 -0.930495,3.395989 -0.930495,3.395989 h 1.349058 c 0,0 0.395353,-0.558351 0.627977,-0.697872 0.232624,-0.139521 -0.116303,-0.55835 0,-0.88381 0.116304,-0.325726 0.209416,-0.558351 0.186207,-0.837393 -0.02321,-0.279042 -0.279043,-1.162852 -0.209415,-1.791097 0.0699,-0.627976 0.442039,-1.186328 0.488456,-1.581681 0.04642,-0.395353 -0.465248,-1.48858 -0.395353,-1.930619 0.0699,-0.442037 0.418562,-1.395475 0.767498,-1.581682 0.348935,-0.186205 0.72108,0.442039 1.46537,0.534874 0.74429,0.09311 3.163365,0.534877 4.349426,0.395355 1.18633,-0.139523 1.977038,-0.744289 2.139767,-0.837393 0.162729,-0.09311 0.604769,-1.325849 0.604769,-1.325849 0,0 0.837394,2.232868 1.255954,2.674909 0.418565,0.442038 1.116436,1.139641 1.232748,1.558472 0.116304,0.418563 0.372144,2.93074 0.209416,3.442405 -0.16273,0.511667 -0.80725,2.108822 -0.80725,2.108822 h 1.121238 c 0,0 0.150992,-1.108698 0.430301,-1.341323 0.279041,-0.232623 0.348935,-0.511666 0.488457,-0.697872 0.139522,-0.186205 -0.116845,-1.83778 -6.66e-4,-2.488968 z M 47.890734,15.934565 c -0.154995,0.09311 -0.612506,0 -0.612506,0 0,0 -0.02321,-0.457511 0.170468,-0.527137 0.193674,-0.06964 0.465247,-0.05415 0.503928,0.0699 0.03895,0.123779 0.09311,0.364142 -0.0619,0.457245 z"
     id="path10-7"
     style="opacity:0.33300003;fill:#8f230a;fill-opacity:1;stroke-width:0.26677054" />
  <path
     inkscape:connector-curvature="0"
     d="m 55.344652,43.598122 c 0.116305,-0.651187 0.279042,-1.255955 0.162732,-1.697994 -0.116303,-0.442039 -0.88381,-2.356917 -0.744291,-3.00437 0.139522,-0.647452 0.16273,-3.461882 0.16273,-4.136276 0,-0.674397 -0.767497,-1.674786 -0.767497,-1.674786 0,0 0.558349,-0.674396 0.721079,-1.162853 0.162731,-0.488457 -0.186205,-0.302252 -0.186205,-0.302252 0,0 0.0699,-0.604767 -0.442038,-1.070015 -0.511668,-0.465248 -1.651311,-0.860602 -1.651311,-0.860602 0,0 1.070017,0.82192 1.186328,1.697994 0.01787,0.134994 -0.302251,0.296649 -0.604768,0.418563 -0.628778,0.253965 -3.326095,-0.325726 -4.675154,-0.302251 -1.349058,0.02321 -3.884445,0.325727 -4.209906,0.209416 -0.325725,-0.116305 -1.349059,-0.721082 -1.674785,-1.023334 -0.325725,-0.30225 -2.116556,-0.511665 -2.116556,-0.511665 l -1.349059,-1.569944 c 0,0 -0.197678,0.05815 -0.627979,0 -0.430301,-0.05815 -1.186329,-0.58156 -1.32585,-1.023331 -0.139522,-0.44204 -0.03495,-1.209538 -0.08137,-1.558473 -0.04642,-0.348938 -0.732553,-1.372268 -0.732553,-1.372268 0,0 0.732553,0.814183 0.87234,1.232747 0.139785,0.418561 -0.104568,1.465369 0.09311,1.639837 0.197676,0.174469 0.837393,0.941967 1.209539,0.941967 0.372144,0 1.395475,-0.442039 0.872338,-1.581682 -0.523403,-1.139645 -1.465371,-1.674785 -1.604889,-2.058402 -0.139523,-0.383616 -0.697875,-0.662925 -0.697875,-0.662925 0,0 0.58156,-1.011859 0.953706,-1.046808 0.372145,-0.03496 1.756151,0.325728 1.756151,0.325728 0,0 -1.046808,-0.918759 -1.767622,-0.953706 -0.720816,-0.03494 -1.94209,1.244486 -1.94209,1.244486 0,0 -1.418953,-0.139522 -1.814308,-0.04642 -0.395353,0.09311 -0.453509,0.662925 -0.604767,0.825653 -0.151259,0.162732 -0.488457,0.732553 -0.418564,1.023334 0.0699,0.290779 0.162731,0.837393 0.151259,1.255955 -0.01178,0.418562 -0.116303,1.822043 -0.05815,2.120559 0.03922,0.200878 0.257434,0.32226 0.405225,0.410293 0.09577,-0.01867 0.183271,-0.03868 0.228622,-0.05362 0.122177,-0.04081 0.627978,-0.174468 0.738422,-0.220886 0.110438,-0.04642 0.442039,-0.337197 0.442039,-0.337197 0,0 -0.273174,0.418563 -0.378015,0.471115 -0.104854,0.05255 -0.308119,0.122177 -0.482588,0.174469 -0.105118,0.03147 -0.239559,0.07149 -0.35027,0.109913 0.152593,0.11711 0.410295,0.295849 0.559685,0.345735 0.186206,0.06216 0.914755,-0.279043 0.914755,-0.279043 0,0 0.558352,1.426689 0.775236,2.108821 0.217153,0.6824 0.837393,1.628102 0.992385,2.108821 0.154996,0.480721 -0.03095,1.628102 0.108572,2.046932 0.139522,0.418563 0.496196,1.84525 0.697873,2.232869 0.201679,0.387618 0.945968,0.852865 1.333585,0.945966 0.387618,0.09311 0.961442,0.759763 0.976915,1.070018 0.01546,0.310254 0.271304,1.457634 0.271304,2.015717 0,0.558085 -0.04642,1.186329 0,1.65131 0.04642,0.465247 0.488458,1.023332 0.348937,1.76762 -0.139523,0.74429 -0.930495,3.395989 -0.930495,3.395989 h 1.349058 c 0,0 0.395354,-0.558351 0.627978,-0.697872 0.232624,-0.139521 -0.116303,-0.55835 0,-0.88381 0.116303,-0.325726 0.209415,-0.558351 0.186206,-0.837393 -0.02321,-0.279042 -0.279043,-1.162852 -0.209415,-1.791097 0.0699,-0.627976 0.442039,-1.186328 0.488456,-1.581681 0.04642,-0.395353 -0.465247,-1.48858 -0.395353,-1.930619 0.0699,-0.442037 0.418563,-1.395475 0.767499,-1.581682 0.348934,-0.186205 0.72108,0.442039 1.46537,0.534874 0.74429,0.09311 3.163365,0.534877 4.349426,0.395355 1.186329,-0.139523 1.977037,-0.744289 2.139767,-0.837393 0.162729,-0.09311 0.604769,-1.325849 0.604769,-1.325849 0,0 0.837394,2.232868 1.255954,2.674909 0.418565,0.442038 1.116436,1.139641 1.232747,1.558472 0.116304,0.418563 0.372145,2.93074 0.209416,3.442405 -0.162729,0.511667 -0.807249,2.108822 -0.807249,2.108822 h 1.121238 c 0,0 0.150991,-1.108698 0.430301,-1.341323 0.279041,-0.232623 0.348935,-0.511666 0.488457,-0.697872 0.139521,-0.186205 -0.116845,-1.83778 -6.67e-4,-2.488968 z M 36.295103,25.92084 c -0.154995,0.09311 -0.612506,0 -0.612506,0 0,0 -0.02321,-0.457511 0.170468,-0.527137 0.193674,-0.06964 0.465247,-0.05415 0.503928,0.0699 0.03895,0.123779 0.09311,0.364142 -0.0619,0.457245 z"
     id="path10"
     style="fill:#8f230a;fill-opacity:1;stroke-width:0.26677054" />
  <path
     inkscape:connector-curvature="0"
     d="m 61.54594,37.488392 c 0.116305,-0.651187 0.279043,-1.255955 0.162732,-1.697994 -0.116303,-0.442039 -0.883809,-2.356917 -0.744291,-3.00437 0.139522,-0.647452 0.16273,-3.461882 0.16273,-4.136276 0,-0.674397 -0.767496,-1.674786 -0.767496,-1.674786 0,0 0.558348,-0.674396 0.721078,-1.162853 0.162731,-0.488457 -0.186205,-0.302252 -0.186205,-0.302252 0,0 0.0699,-0.604767 -0.442037,-1.070015 -0.511668,-0.465248 -1.651312,-0.860602 -1.651312,-0.860602 0,0 1.070017,0.82192 1.186328,1.697994 0.01787,0.134994 -0.302251,0.29665 -0.604768,0.418563 -0.628778,0.253965 -3.326095,-0.325725 -4.675154,-0.302251 -1.349058,0.02321 -3.884445,0.325727 -4.209906,0.209416 -0.325724,-0.116305 -1.349059,-0.721082 -1.674785,-1.023334 -0.325725,-0.30225 -2.116556,-0.511665 -2.116556,-0.511665 l -1.349059,-1.569944 c 0,0 -0.197678,0.05815 -0.627979,0 -0.430301,-0.05815 -1.186329,-0.58156 -1.32585,-1.023331 -0.139522,-0.44204 -0.03495,-1.209538 -0.08137,-1.558473 -0.04642,-0.348938 -0.732553,-1.372268 -0.732553,-1.372268 0,0 0.732553,0.814183 0.87234,1.232747 0.139785,0.418561 -0.104568,1.465369 0.09311,1.639837 0.197676,0.174469 0.837393,0.941967 1.209539,0.941967 0.372144,0 1.395475,-0.442039 0.872338,-1.581682 -0.523403,-1.139645 -1.465371,-1.674785 -1.604889,-2.058402 -0.139523,-0.383616 -0.697875,-0.662925 -0.697875,-0.662925 0,0 0.58156,-1.011859 0.953706,-1.046808 0.372145,-0.03496 1.756151,0.325728 1.756151,0.325728 0,0 -1.046808,-0.918759 -1.767622,-0.953706 -0.720816,-0.03494 -1.94209,1.244486 -1.94209,1.244486 0,0 -1.418953,-0.139522 -1.814308,-0.04642 -0.395353,0.09311 -0.453509,0.662925 -0.604767,0.825653 -0.151259,0.162732 -0.488457,0.732553 -0.418564,1.023334 0.0699,0.290779 0.162731,0.837393 0.151259,1.255955 -0.01178,0.418562 -0.116303,1.822043 -0.05815,2.120559 0.03922,0.200878 0.257434,0.32226 0.405225,0.410293 0.09577,-0.01867 0.183271,-0.03868 0.228622,-0.05362 0.122177,-0.04081 0.627978,-0.174468 0.738422,-0.220886 0.110438,-0.04642 0.442039,-0.337197 0.442039,-0.337197 0,0 -0.273174,0.418563 -0.378015,0.471115 -0.104854,0.05255 -0.308119,0.122177 -0.482588,0.174469 -0.105118,0.03147 -0.239559,0.07149 -0.35027,0.109913 0.152593,0.11711 0.410295,0.295849 0.559685,0.345735 0.186206,0.06216 0.914755,-0.279043 0.914755,-0.279043 0,0 0.558352,1.426689 0.775236,2.108821 0.217153,0.6824 0.837393,1.628102 0.992385,2.108821 0.154996,0.480721 -0.03095,1.628102 0.108572,2.046932 0.139522,0.418563 0.496196,1.84525 0.697873,2.232869 0.201679,0.387618 0.945968,0.852865 1.333585,0.945966 0.387618,0.09311 0.961442,0.759763 0.976915,1.070018 0.01546,0.310254 0.271304,1.457634 0.271304,2.015717 0,0.558085 -0.04642,1.186329 0,1.65131 0.04642,0.465247 0.488458,1.023332 0.348937,1.76762 -0.139523,0.74429 -0.930495,3.395989 -0.930495,3.395989 h 1.349058 c 0,0 0.395354,-0.558351 0.627978,-0.697872 0.232624,-0.139521 -0.116303,-0.55835 0,-0.88381 0.116303,-0.325726 0.209415,-0.558351 0.186206,-0.837393 -0.02321,-0.279042 -0.279043,-1.162852 -0.209415,-1.791097 0.0699,-0.627976 0.442039,-1.186328 0.488456,-1.581681 0.04642,-0.395353 -0.465247,-1.48858 -0.395353,-1.930619 0.0699,-0.442037 0.418563,-1.395475 0.767499,-1.581682 0.348934,-0.186205 0.72108,0.442039 1.46537,0.534874 0.74429,0.09311 3.163365,0.534877 4.349426,0.395355 1.18633,-0.139523 1.977038,-0.744289 2.139767,-0.837393 0.162729,-0.09311 0.604769,-1.325849 0.604769,-1.325849 0,0 0.837394,2.232868 1.255954,2.674909 0.418565,0.442038 1.116436,1.139641 1.232748,1.558472 0.116304,0.418563 0.372144,2.93074 0.209416,3.442405 -0.16273,0.511667 -0.80725,2.108822 -0.80725,2.108822 h 1.121238 c 0,0 0.150992,-1.108698 0.430301,-1.341323 0.279041,-0.232623 0.348935,-0.511666 0.488457,-0.697872 0.139522,-0.186205 -0.116845,-1.83778 -6.66e-4,-2.488968 z M 42.496391,19.81111 c -0.154995,0.09311 -0.612506,0 -0.612506,0 0,0 -0.02321,-0.457511 0.170468,-0.527137 0.193674,-0.06964 0.465247,-0.05415 0.503928,0.0699 0.03895,0.123779 0.09311,0.364142 -0.0619,0.457245 z"
     id="path10-5"
     style="opacity:0.63599997;fill:#8f230a;fill-opacity:1;stroke-width:0.26677054" />
  <path
     d="M49.36,9.08A21.24,21.24,0,0,0,33.22,44.16L30.41,47a6.07,6.07,0,0,0-7.26,1L11,60.1a6.08,6.08,0,0,0,8.6,8.6L31.76,56.55A6.09,6.09,0,0,0,32.6,49l2.73-2.73a21.25,21.25,0,1,0,14-37.2Zm0,39.53A18.26,18.26,0,1,1,67.63,30.35,18.28,18.28,0,0,1,49.36,48.61Z"
     id="path4"
     style="fill:#0a425a;fill-opacity:1" />
</svg>
