<?xml version="1.0" encoding="UTF-8" standalone="no"?>
<svg
   xmlns:dc="http://purl.org/dc/elements/1.1/"
   xmlns:cc="http://creativecommons.org/ns#"
   xmlns:rdf="http://www.w3.org/1999/02/22-rdf-syntax-ns#"
   xmlns:svg="http://www.w3.org/2000/svg"
   xmlns="http://www.w3.org/2000/svg"
   xmlns:sodipodi="http://sodipodi.sourceforge.net/DTD/sodipodi-0.dtd"
   xmlns:inkscape="http://www.inkscape.org/namespaces/inkscape"
   height="100px"
   width="100px"
   fill="#000000"
   version="1.1"
   x="0px"
   y="0px"
   viewBox="0 0 64 64"
   enable-background="new 0 0 64 64"
   xml:space="preserve"
   id="svg150"
   sodipodi:docname="blog.svg"
   inkscape:version="0.92.4 (5da689c313, 2019-01-14)"><metadata
     id="metadata156"><rdf:RDF><cc:Work
         rdf:about=""><dc:format>image/svg+xml</dc:format><dc:type
           rdf:resource="http://purl.org/dc/dcmitype/StillImage" /><dc:title></dc:title></cc:Work></rdf:RDF></metadata><defs
     id="defs154" /><sodipodi:namedview
     pagecolor="#ffffff"
     bordercolor="#666666"
     borderopacity="1"
     objecttolerance="10"
     gridtolerance="10"
     guidetolerance="10"
     inkscape:pageopacity="0"
     inkscape:pageshadow="2"
     inkscape:window-width="1920"
     inkscape:window-height="1016"
     id="namedview152"
     showgrid="false"
     inkscape:zoom="2.36"
     inkscape:cx="50"
     inkscape:cy="50"
     inkscape:window-x="0"
     inkscape:window-y="27"
     inkscape:window-maximized="1"
     inkscape:current-layer="svg150" /><g
     id="g148"
     style="fill:#0a425a;fill-opacity:1"><g
       id="g146"
       style="fill:#0a425a;fill-opacity:1"><g
         id="g38"
         style="fill:#0a425a;fill-opacity:1"><g
           id="g4"
           style="fill:#0a425a;fill-opacity:1"><path
             d="M17.026,4c-0.553,0-1.005-0.448-1.005-1s0.442-1,0.994-1h0.011c0.552,0,1,0.448,1,1S17.578,4,17.026,4z"
             id="path2"
             style="fill:#0a425a;fill-opacity:1" /></g><g
           id="g8"
           style="fill:#0a425a;fill-opacity:1"><path
             d="M20.026,4c-0.553,0-1.005-0.448-1.005-1s0.442-1,0.994-1h0.011c0.552,0,1,0.448,1,1S20.578,4,20.026,4z"
             id="path6"
             style="fill:#0a425a;fill-opacity:1" /></g><g
           id="g12"
           style="fill:#0a425a;fill-opacity:1"><path
             d="M23.026,4c-0.553,0-1.005-0.448-1.005-1s0.442-1,0.994-1h0.011c0.552,0,1,0.448,1,1S23.578,4,23.026,4z"
             id="path10"
             style="fill:#0a425a;fill-opacity:1" /></g><g
           id="g16"
           style="fill:#0a425a;fill-opacity:1"><path
             d="M62.014,52h-48c-0.553,0-1-0.447-1-1V5c0-0.552,0.447-1,1-1h48c0.553,0,1,0.448,1,1v46      C63.014,51.553,62.566,52,62.014,52z M15.014,50h46V6h-46V50z"
             id="path14"
             style="fill:#0a425a;fill-opacity:1" /></g><g
           id="g20"
           style="fill:#0a425a;fill-opacity:1"><path
             d="M13.996,4c-0.553,0-1-0.448-1-1c0-1.654,1.346-3,3-3c0.553,0,1,0.448,1,1s-0.447,1-1,1c-0.552,0-1,0.449-1,1      C14.996,3.552,14.549,4,13.996,4z"
             id="path18"
             style="fill:#0a425a;fill-opacity:1" /></g><g
           id="g24"
           style="fill:#0a425a;fill-opacity:1"><path
             d="M13.996,6c-0.553,0-1-0.448-1-1V3c0-0.552,0.447-1,1-1s1,0.448,1,1v2C14.996,5.552,14.549,6,13.996,6z"
             id="path22"
             style="fill:#0a425a;fill-opacity:1" /></g><g
           id="g28"
           style="fill:#0a425a;fill-opacity:1"><path
             d="M61.996,4c-0.553,0-1-0.448-1-1c0-0.551-0.448-1-1-1c-0.553,0-1-0.448-1-1s0.447-1,1-1c1.654,0,3,1.346,3,3      C62.996,3.552,62.549,4,61.996,4z"
             id="path26"
             style="fill:#0a425a;fill-opacity:1" /></g><g
           id="g32"
           style="fill:#0a425a;fill-opacity:1"><path
             d="M61.996,6c-0.553,0-1-0.448-1-1V3c0-0.552,0.447-1,1-1s1,0.448,1,1v2C62.996,5.552,62.549,6,61.996,6z"
             id="path30"
             style="fill:#0a425a;fill-opacity:1" /></g><g
           id="g36"
           style="fill:#0a425a;fill-opacity:1"><path
             d="M59.996,2h-44c-0.553,0-1-0.448-1-1s0.447-1,1-1h44c0.553,0,1,0.448,1,1S60.549,2,59.996,2z"
             id="path34"
             style="fill:#0a425a;fill-opacity:1" /></g></g><g
         id="g64"
         style="fill:#0a425a;fill-opacity:1"><g
           id="g42"
           style="fill:#0a425a;fill-opacity:1"><path
             d="M11.009,10c-0.553,0-1.005-0.448-1.005-1s0.442-1,0.994-1h0.011c0.552,0,1,0.448,1,1S11.561,10,11.009,10z"
             id="path40"
             style="fill:#0a425a;fill-opacity:1" /></g><g
           id="g46"
           style="fill:#0a425a;fill-opacity:1"><path
             d="M55.996,58h-48c-0.553,0-1-0.447-1-1V11c0-0.552,0.447-1,1-1s1,0.448,1,1v45h46v-3.917c0-0.553,0.447-1,1-1s1,0.447,1,1      V57C56.996,57.553,56.549,58,55.996,58z"
             id="path44"
             style="fill:#0a425a;fill-opacity:1" /></g><g
           id="g50"
           style="fill:#0a425a;fill-opacity:1"><path
             d="M7.979,10c-0.553,0-1-0.448-1-1c0-1.654,1.346-3,3-3c0.553,0,1,0.448,1,1s-0.447,1-1,1c-0.552,0-1,0.449-1,1      C8.979,9.552,8.531,10,7.979,10z"
             id="path48"
             style="fill:#0a425a;fill-opacity:1" /></g><g
           id="g54"
           style="fill:#0a425a;fill-opacity:1"><path
             d="M7.979,12c-0.553,0-1-0.448-1-1V9c0-0.552,0.447-1,1-1s1,0.448,1,1v2C8.979,11.552,8.531,12,7.979,12z"
             id="path52"
             style="fill:#0a425a;fill-opacity:1" /></g><g
           id="g58"
           style="fill:#0a425a;fill-opacity:1"><path
             d="M13.979,12H7.996c-0.553,0-1-0.448-1-1s0.447-1,1-1h5.982c0.553,0,1,0.448,1,1S14.531,12,13.979,12z"
             id="path56"
             style="fill:#0a425a;fill-opacity:1" /></g><g
           id="g62"
           style="fill:#0a425a;fill-opacity:1"><path
             d="M13.979,8H9.996c-0.553,0-1-0.448-1-1s0.447-1,1-1h3.982c0.553,0,1,0.448,1,1S14.531,8,13.979,8z"
             id="path60"
             style="fill:#0a425a;fill-opacity:1" /></g></g><g
         id="g90"
         style="fill:#0a425a;fill-opacity:1"><g
           id="g68"
           style="fill:#0a425a;fill-opacity:1"><path
             d="M5.017,16c-0.553,0-1.005-0.448-1.005-1s0.442-1,0.994-1h0.011c0.552,0,1,0.448,1,1S5.568,16,5.017,16z"
             id="path66"
             style="fill:#0a425a;fill-opacity:1" /></g><g
           id="g72"
           style="fill:#0a425a;fill-opacity:1"><path
             d="M50.004,64h-48c-0.553,0-1-0.447-1-1V17c0-0.552,0.447-1,1-1s1,0.448,1,1v45h46v-3.917c0-0.553,0.447-1,1-1s1,0.447,1,1      V63C51.004,63.553,50.557,64,50.004,64z"
             id="path70"
             style="fill:#0a425a;fill-opacity:1" /></g><g
           id="g76"
           style="fill:#0a425a;fill-opacity:1"><path
             d="M1.986,16c-0.553,0-1-0.448-1-1c0-1.654,1.346-3,3-3c0.553,0,1,0.448,1,1s-0.447,1-1,1c-0.552,0-1,0.449-1,1      C2.986,15.552,2.539,16,1.986,16z"
             id="path74"
             style="fill:#0a425a;fill-opacity:1" /></g><g
           id="g80"
           style="fill:#0a425a;fill-opacity:1"><path
             d="M1.986,18c-0.553,0-1-0.448-1-1v-2c0-0.552,0.447-1,1-1s1,0.448,1,1v2C2.986,17.552,2.539,18,1.986,18z"
             id="path78"
             style="fill:#0a425a;fill-opacity:1" /></g><g
           id="g84"
           style="fill:#0a425a;fill-opacity:1"><path
             d="M7.988,18H2.004c-0.553,0-1-0.448-1-1s0.447-1,1-1h5.984c0.553,0,1,0.448,1,1S8.541,18,7.988,18z"
             id="path82"
             style="fill:#0a425a;fill-opacity:1" /></g><g
           id="g88"
           style="fill:#0a425a;fill-opacity:1"><path
             d="M7.988,14H4.004c-0.553,0-1-0.448-1-1s0.447-1,1-1h3.984c0.553,0,1,0.448,1,1S8.541,14,7.988,14z"
             id="path86"
             style="fill:#0a425a;fill-opacity:1" /></g></g><g
         id="g94"
         style="fill:#0a425a;fill-opacity:1"><path
           d="M55.986,25h-36c-0.553,0-1-0.448-1-1V11c0-0.552,0.447-1,1-1h36c0.553,0,1,0.448,1,1v13     C56.986,24.552,56.539,25,55.986,25z M20.986,23h34V12h-34V23z"
           id="path92"
           style="fill:#0a425a;fill-opacity:1" /></g><g
         id="g98"
         style="fill:#0a425a;fill-opacity:1"><path
           d="M55.986,33h-36c-0.553,0-1-0.448-1-1v-3c0-0.552,0.447-1,1-1h36c0.553,0,1,0.448,1,1v3     C56.986,32.552,56.539,33,55.986,33z M20.986,31h34v-1h-34V31z"
           id="path96"
           style="fill:#0a425a;fill-opacity:1" /></g><g
         id="g102"
         style="fill:#0a425a;fill-opacity:1"><path
           d="M38.986,38h-19c-0.553,0-1-0.447-1-1s0.447-1,1-1h19c0.553,0,1,0.447,1,1S39.539,38,38.986,38z"
           id="path100"
           style="fill:#0a425a;fill-opacity:1" /></g><g
         id="g106"
         style="fill:#0a425a;fill-opacity:1"><path
           d="M28.986,42h-9c-0.553,0-1-0.447-1-1s0.447-1,1-1h9c0.553,0,1,0.447,1,1S29.539,42,28.986,42z"
           id="path104"
           style="fill:#0a425a;fill-opacity:1" /></g><g
         id="g110"
         style="fill:#0a425a;fill-opacity:1"><path
           d="M55.986,42h-23c-0.553,0-1-0.447-1-1s0.447-1,1-1h23c0.553,0,1,0.447,1,1S56.539,42,55.986,42z"
           id="path108"
           style="fill:#0a425a;fill-opacity:1" /></g><g
         id="g114"
         style="fill:#0a425a;fill-opacity:1"><path
           d="M45.986,46h-26c-0.553,0-1-0.447-1-1s0.447-1,1-1h26c0.553,0,1,0.447,1,1S46.539,46,45.986,46z"
           id="path112"
           style="fill:#0a425a;fill-opacity:1" /></g><g
         id="g118"
         style="fill:#0a425a;fill-opacity:1"><path
           d="M55.986,46h-6c-0.553,0-1-0.447-1-1s0.447-1,1-1h6c0.553,0,1,0.447,1,1S56.539,46,55.986,46z"
           id="path116"
           style="fill:#0a425a;fill-opacity:1" /></g><g
         id="g122"
         style="fill:#0a425a;fill-opacity:1"><path
           d="M55.986,38h-13c-0.553,0-1-0.447-1-1s0.447-1,1-1h13c0.553,0,1,0.447,1,1S56.539,38,55.986,38z"
           id="path120"
           style="fill:#0a425a;fill-opacity:1" /></g><g
         id="g140"
         style="fill:#0a425a;fill-opacity:1"><g
           id="g126"
           style="fill:#0a425a;fill-opacity:1"><path
             d="M36.985,25c-0.209,0-0.419-0.065-0.599-0.2c-0.442-0.331-0.532-0.958-0.2-1.4l6-8c0.332-0.441,0.958-0.531,1.399-0.2      c0.442,0.331,0.532,0.958,0.2,1.4l-6,8C37.59,24.862,37.29,25,36.985,25z"
             id="path124"
             style="fill:#0a425a;fill-opacity:1" /></g><g
           id="g130"
           style="fill:#0a425a;fill-opacity:1"><path
             d="M48.987,25c-0.305,0-0.604-0.138-0.801-0.4l-6-8c-0.332-0.442-0.242-1.069,0.2-1.4c0.441-0.333,1.067-0.242,1.399,0.2      l6,8c0.332,0.442,0.242,1.069-0.2,1.4C49.406,24.935,49.196,25,48.987,25z"
             id="path128"
             style="fill:#0a425a;fill-opacity:1" /></g><g
           id="g134"
           style="fill:#0a425a;fill-opacity:1"><path
             d="M30.985,25c-0.219,0-0.439-0.072-0.624-0.219c-0.431-0.345-0.501-0.974-0.156-1.405l4-5      c0.347-0.43,0.974-0.502,1.406-0.156c0.431,0.345,0.501,0.974,0.156,1.405l-4,5C31.569,24.872,31.279,25,30.985,25z"
             id="path132"
             style="fill:#0a425a;fill-opacity:1" /></g><g
           id="g138"
           style="fill:#0a425a;fill-opacity:1"><path
             d="M37.954,23.709c-0.294,0-0.584-0.128-0.782-0.375l-2.967-3.709c-0.345-0.431-0.274-1.061,0.156-1.405      c0.433-0.346,1.061-0.275,1.406,0.156l2.967,3.709c0.345,0.431,0.274,1.061-0.156,1.405      C38.394,23.637,38.173,23.709,37.954,23.709z"
             id="path136"
             style="fill:#0a425a;fill-opacity:1" /></g></g><g
         id="g144"
         style="fill:#0a425a;fill-opacity:1"><path
           d="M28.017,16c-0.553,0-1.005-0.448-1.005-1s0.442-1,0.994-1h0.011c0.552,0,1,0.448,1,1S28.568,16,28.017,16z"
           id="path142"
           style="fill:#0a425a;fill-opacity:1" /></g></g></g></svg>