<?xml version="1.0" encoding="UTF-8" standalone="no"?>
<svg
   xmlns:dc="http://purl.org/dc/elements/1.1/"
   xmlns:cc="http://creativecommons.org/ns#"
   xmlns:rdf="http://www.w3.org/1999/02/22-rdf-syntax-ns#"
   xmlns:svg="http://www.w3.org/2000/svg"
   xmlns="http://www.w3.org/2000/svg"
   xmlns:sodipodi="http://sodipodi.sourceforge.net/DTD/sodipodi-0.dtd"
   xmlns:inkscape="http://www.inkscape.org/namespaces/inkscape"
   height="100px"
   width="100px"
   fill="#000000"
   version="1.1"
   x="0px"
   y="0px"
   viewBox="0 0 48 48"
   enable-background="new 0 0 48 48"
   xml:space="preserve"
   id="svg4"
   sodipodi:docname="cash.svg"
   inkscape:version="0.92.4 (5da689c313, 2019-01-14)"><metadata
     id="metadata10"><rdf:RDF><cc:Work
         rdf:about=""><dc:format>image/svg+xml</dc:format><dc:type
           rdf:resource="http://purl.org/dc/dcmitype/StillImage" /><dc:title></dc:title></cc:Work></rdf:RDF></metadata><defs
     id="defs8" /><sodipodi:namedview
     pagecolor="#ffffff"
     bordercolor="#666666"
     borderopacity="1"
     objecttolerance="10"
     gridtolerance="10"
     guidetolerance="10"
     inkscape:pageopacity="0"
     inkscape:pageshadow="2"
     inkscape:window-width="1920"
     inkscape:window-height="1016"
     id="namedview6"
     showgrid="false"
     inkscape:zoom="2.36"
     inkscape:cx="50"
     inkscape:cy="50"
     inkscape:window-x="0"
     inkscape:window-y="27"
     inkscape:window-maximized="1"
     inkscape:current-layer="svg4" /><path
     d="M33.518,34.488c0.1,0.029,0.197,0.045,0.299,0.045c0.223,0,0.443-0.074,0.623-0.219l11.684-9.333  c0.432-0.345,0.502-0.974,0.158-1.405c-0.346-0.431-0.977-0.502-1.406-0.157l-11.27,9.002l-8.896-2.766V26.75l8.811,2.737  c0.316,0.099,0.662,0.032,0.922-0.174l11.684-9.333c0.289-0.23,0.426-0.603,0.359-0.967c-0.07-0.363-0.334-0.659-0.688-0.77  l-31.317-9.73c-0.319-0.1-0.662-0.034-0.921,0.174L1.875,18.021c-0.29,0.231-0.427,0.603-0.359,0.967  c0.069,0.363,0.333,0.659,0.686,0.77l9.404,2.922v2.906l-8.81-2.738c-0.526-0.162-1.088,0.13-1.252,0.658  c-0.164,0.527,0.131,1.087,0.658,1.251l9.404,2.922v2.906l-8.81-2.738c-0.526-0.162-1.088,0.131-1.252,0.658  c-0.164,0.527,0.131,1.088,0.658,1.252l31.315,9.73c0.1,0.029,0.197,0.045,0.299,0.045c0.223,0,0.443-0.074,0.623-0.219  l11.684-9.333c0.432-0.345,0.502-0.974,0.158-1.405c-0.346-0.432-0.977-0.502-1.406-0.156l-11.27,9.002l-8.896-2.766v-2.904  L33.518,34.488z M35.602,17.171l7.801,2.424l-9.797,7.825l-7.801-2.424L35.602,17.171z M12.396,20.83l-7.8-2.424l9.796-7.826  l7.8,2.424L12.396,20.83z"
     id="path2"
     style="fill:#0a425a;fill-opacity:1" /></svg>