<?xml version="1.0" encoding="UTF-8" standalone="no"?>
<svg
   xmlns:dc="http://purl.org/dc/elements/1.1/"
   xmlns:cc="http://creativecommons.org/ns#"
   xmlns:rdf="http://www.w3.org/1999/02/22-rdf-syntax-ns#"
   xmlns:svg="http://www.w3.org/2000/svg"
   xmlns="http://www.w3.org/2000/svg"
   xmlns:sodipodi="http://sodipodi.sourceforge.net/DTD/sodipodi-0.dtd"
   xmlns:inkscape="http://www.inkscape.org/namespaces/inkscape"
   height="100px"
   width="100px"
   fill="#000000"
   version="1.1"
   x="0px"
   y="0px"
   viewBox="0 0 1149.6189 1174.5176"
   enable-background="new 0 0 2000 2000"
   xml:space="preserve"
   id="svg4"
   sodipodi:docname="cheque.svg"
   inkscape:version="0.92.4 (5da689c313, 2019-01-14)"><metadata
     id="metadata10"><rdf:RDF><cc:Work
         rdf:about=""><dc:format>image/svg+xml</dc:format><dc:type
           rdf:resource="http://purl.org/dc/dcmitype/StillImage" /><dc:title></dc:title></cc:Work></rdf:RDF></metadata><defs
     id="defs8" /><sodipodi:namedview
     pagecolor="#ffffff"
     bordercolor="#666666"
     borderopacity="1"
     objecttolerance="10"
     gridtolerance="10"
     guidetolerance="10"
     inkscape:pageopacity="0"
     inkscape:pageshadow="2"
     inkscape:window-width="1920"
     inkscape:window-height="1016"
     id="namedview6"
     showgrid="false"
     inkscape:zoom="2.36"
     inkscape:cx="50"
     inkscape:cy="50"
     inkscape:window-x="0"
     inkscape:window-y="27"
     inkscape:window-maximized="1"
     inkscape:current-layer="svg4" /><path
     style="fill:#0a425a;fill-opacity:1"
     d="m 1030.969,0.00149411 c -30.4891,-0.151 -62.60705,11.14399989 -87.31505,33.61899989 L 501.155,443.47649 l -453.991,0 c -26.081,0 -47.164,21.083 -47.164,47.164 l 0,636.71301 c 0,26.082 21.083,47.164 47.164,47.164 l 1055.291,0 c 26.082,0 47.164,-21.082 47.164,-47.164 l 0,-636.71301 c 0,-26.081 -21.082,-47.164 -47.164,-47.164 l -233.29405,0 233.15305,-251.714 c 43.862,-47.966 46.5999,-117.247996 3.682,-160.167996 l -4.34,-4.291 C 1083.504,9.1764941 1057.871,0.13349411 1030.969,0.00149411 Z m -0.7661,93.32999989 c 2.971,0 4.6231,0.52 4.1521,0 l 7.45,7.450996 c 1.651,2.263 2.074,15.14 -8.867,27.119 l -304.87805,329.142 c -0.991,0.979 -1.935,2.003 -2.838,3.066 l -128.45695,138.68 -59.803,-59.804 470.604,-435.701 c 7.969,-7.308996 16.929,-9.952996 22.637,-9.952996 z M 94.328,537.80449 l 308.029,0 10.638,10.642 -140.197,48.454 -31.413,257.18604 40.326,40.321 257.139,-31.455 48.442,-140.166 12.021,12.02 182.47595,-197.00204 273.50295,0 0,542.38701 -960.9639,0 0,-542.38701 z m 381.649,82.16 39.714,39.66204 -9.856,9.906 -36.931,106.872 -86.986,10.677 63.5,-63.497 -33.347,-33.344 -63.397,63.397 10.622,-86.839 106.827,-36.98004 9.854,-9.854 z m 380.84995,59.75604 c -5.423,0 -8.112,3.631 -8.112,10.799 l 0,13.632 c -17.781,1.604 -31.316,7.074 -40.703,16.505 -9.386,9.433 -14.102,21.559 -14.102,36.321 0,11.32 2.406,20.606 7.169,27.823 4.764,7.215 11.039,12.736 18.773,16.697 7.735,3.868 17.309,7.498 28.817,10.61 l 0,59.9 c -5.708,-1.649 -10.425,-3.962 -13.821,-7.074 -3.49,-3.065 -6.085,-6.556 -7.829,-10.235 -1.651,-3.774 -3.771,-9.151 -6.082,-16.131 -0.992,-3.303 -2.831,-5.797 -5.425,-7.637 -2.782,-1.839 -5.992,-2.688 -9.86,-2.688 -4.903,0 -8.864,1.647 -11.977,4.948 -3.253,3.3 -4.906,6.979 -4.906,11.131 0,5.517 1.178,11.228 3.584,16.935 2.452,5.801 6.18,11.414 11.132,16.838 5.047,5.329 11.179,9.761 18.773,13.344 7.593,3.585 16.319,5.992 26.365,7.076 l 0,15.091 c 0,3.962 0.66,6.935 1.838,8.773 1.226,1.933 3.439,2.877 6.553,2.877 3.349,0 5.519,-1.181 6.463,-3.491 0.99,-2.263 1.463,-5.988 1.463,-11.036 l 0,-12.447 c 12.264,-0.993 22.967,-4.248 31.881,-9.577 8.866,-5.424 15.659,-12.402 20.281,-20.986 4.529,-8.49 6.838,-17.69 6.838,-27.453 0,-7.828 -1.365,-14.999 -4.336,-21.555 -2.877,-6.509 -6.936,-12.214 -12.265,-16.834 -4.952,-4.623 -10.565,-8.114 -16.839,-10.518 -6.366,-2.406 -14.808,-5.048 -25.514,-7.925 l 0,-53.626 c 10.895,3.585 17.686,10.661 20.47,21.367 2.594,9.101 8.018,13.628 16.413,13.628 4.435,0 8.303,-1.6 11.415,-4.619 3.159,-3.206 4.715,-6.887 4.715,-11.131 0,-3.868 -1.083,-8.163 -3.11,-12.783 -2.124,-4.623 -5.146,-9.1 -9.013,-13.532 -4.858,-5.707 -10.564,-10.004 -17.118,-12.787 -6.556,-2.83 -14.478,-4.717 -23.676,-5.707 l 0,-13.911 c 0,-6.979 -2.642,-10.611 -8.255,-10.611 z m -8.016,49.663 0,49.288 c -7.782,-2.83 -13.492,-5.991 -17.219,-9.48 -3.773,-3.397 -5.707,-8.535 -5.707,-15.374 0,-7.076 2.031,-12.404 6.086,-15.942 4.057,-3.536 9.672,-6.368 16.84,-8.492 z m 16.271,87.535 c 8.96,2.736 15.75,6.278 20.278,10.286 4.575,4.15 6.887,9.857 6.887,17.309 0,7.027 -2.356,13.107 -6.98,18.343 -4.81,5.282 -11.506,8.682 -20.185,10.428 l 0,-56.366 z M 206.344,954.35653 c -12.97,0 -23.584,10.565 -23.584,23.582 0,13.018 10.614,23.58297 23.584,23.58297 l 725.14595,0 c 13.11,0 23.579,-10.56697 23.579,-23.58297 0,-13.017 -10.516,-23.582 -23.579,-23.582 l -725.14595,0 z"
     fill="#000000"
     id="path2" /></svg>