<?xml version="1.0" encoding="UTF-8" standalone="no"?>
<svg
   xmlns:dc="http://purl.org/dc/elements/1.1/"
   xmlns:cc="http://creativecommons.org/ns#"
   xmlns:rdf="http://www.w3.org/1999/02/22-rdf-syntax-ns#"
   xmlns:svg="http://www.w3.org/2000/svg"
   xmlns="http://www.w3.org/2000/svg"
   xmlns:sodipodi="http://sodipodi.sourceforge.net/DTD/sodipodi-0.dtd"
   xmlns:inkscape="http://www.inkscape.org/namespaces/inkscape"
   height="100px"
   width="100px"
   fill="#1A1A1A"
   version="1.1"
   x="0px"
   y="0px"
   viewBox="0 0 64 64"
   style="enable-background:new 0 0 64 64;"
   xml:space="preserve"
   id="svg34"
   sodipodi:docname="choisir.svg"
   inkscape:version="0.92.4 (5da689c313, 2019-01-14)"><metadata
     id="metadata40"><rdf:RDF><cc:Work
         rdf:about=""><dc:format>image/svg+xml</dc:format><dc:type
           rdf:resource="http://purl.org/dc/dcmitype/StillImage" /><dc:title></dc:title></cc:Work></rdf:RDF></metadata><defs
     id="defs38" /><sodipodi:namedview
     pagecolor="#ffffff"
     bordercolor="#666666"
     borderopacity="1"
     objecttolerance="10"
     gridtolerance="10"
     guidetolerance="10"
     inkscape:pageopacity="0"
     inkscape:pageshadow="2"
     inkscape:window-width="1366"
     inkscape:window-height="745"
     id="namedview36"
     showgrid="false"
     inkscape:zoom="3.5520276"
     inkscape:cx="-7.2113526"
     inkscape:cy="8.0822376"
     inkscape:window-x="-8"
     inkscape:window-y="-8"
     inkscape:window-maximized="1"
     inkscape:current-layer="svg34" /><path
     inkscape:connector-curvature="0"
     d="m 10.96882,15.822169 c 2.676622,0 4.853349,-2.176727 4.853349,-4.853349 0,-2.6766223 -2.176727,-4.8533494 -4.853349,-4.8533494 -2.6766223,0 -4.8533494,2.1767271 -4.8533494,4.8533494 0,2.676622 2.1767271,4.853349 4.8533494,4.853349 z m 0,-8.0889153 c 1.784415,0 3.235566,1.4511514 3.235566,3.2355663 0,1.784415 -1.451151,3.235566 -3.235566,3.235566 -1.7844149,0 -3.2355663,-1.451151 -3.2355663,-3.235566 0,-1.7844149 1.4511514,-3.2355663 3.2355663,-3.2355663 z"
     id="path2"
     style="fill:#0a425a;fill-opacity:1;stroke-width:0.80889153" /><path
     inkscape:connector-curvature="0"
     d="m 36.853349,10.96882 c 0,-2.6766223 -2.176727,-4.8533494 -4.853349,-4.8533494 -2.676622,0 -4.853349,2.1767271 -4.853349,4.8533494 0,2.676622 2.176727,4.853349 4.853349,4.853349 2.676622,0 4.853349,-2.176727 4.853349,-4.853349 z"
     id="path4"
     style="fill:#0a425a;fill-opacity:1;stroke-width:0.80889153"
     sodipodi:nodetypes="sssss" /><path
     inkscape:connector-curvature="0"
     d="m 53.03118,6.1154706 c -2.676622,0 -4.853349,2.1767271 -4.853349,4.8533494 0,2.676622 2.176727,4.853349 4.853349,4.853349 2.676622,0 4.853349,-2.176727 4.853349,-4.853349 0,-2.6766223 -2.176727,-4.8533494 -4.853349,-4.8533494 z m 0,8.0889154 c -1.784415,0 -3.235566,-1.451151 -3.235566,-3.235566 0,-1.7844149 1.451151,-3.2355663 3.235566,-3.2355663 1.784415,0 3.235566,1.4511514 3.235566,3.2355663 0,1.784415 -1.451151,3.235566 -3.235566,3.235566 z"
     id="path6"
     style="fill:#0a425a;fill-opacity:1;stroke-width:0.80889153" /><path
     inkscape:connector-curvature="0"
     d="m 53.03118,23.911084 c -2.399981,0 -4.39309,1.752868 -4.780549,4.044458 H 39.232299 C 38.828662,24.321192 35.741123,21.48441 32,21.48441 c -3.741123,0 -6.828663,2.836782 -7.232299,6.471132 h -9.018332 c -0.38665,-2.29159 -2.379759,-4.044458 -4.780549,-4.044458 -2.6766223,0 -4.8533494,2.176728 -4.8533494,4.85335 0,2.676622 2.1767271,4.853349 4.8533494,4.853349 2.399981,0 4.39309,-1.752868 4.780549,-4.044458 h 9.021567 c 0.308188,2.762365 2.170256,5.120284 4.803198,6.048891 v 5.747175 l -2.998561,3.001796 c -0.15288,0.150454 -0.237814,0.356721 -0.237814,0.571078 v 5.66224 c 0,0.215165 0.08493,0.420624 0.237005,0.571887 l 2.998561,2.998561 v 2.900685 c 0,0.447317 0.361575,0.808891 0.808892,0.808891 h 9.706698 c 2.230114,0 4.044458,-1.814344 4.044458,-4.044458 V 39.278406 c 0,-1.337098 -1.087959,-2.425057 -2.425057,-2.425057 -0.623655,0 -1.187453,0.243476 -1.617783,0.631744 -0.431139,-0.388268 -0.995745,-0.631744 -1.621019,-0.631744 -0.623655,0 -1.186643,0.242668 -1.616165,0.630127 -0.43033,-0.387459 -0.994936,-0.630127 -1.619401,-0.630127 -0.28473,0 -0.553282,0.05824 -0.807274,0.148836 v -1.379969 c 2.632942,-0.928607 4.495011,-3.286526 4.803198,-6.048891 h 9.020759 c 0.38665,2.29159 2.379759,4.044458 4.780549,4.044458 2.676622,0 4.853349,-2.176727 4.853349,-4.853349 0,-2.676622 -2.176727,-4.85335 -4.853349,-4.85335 z M 10.96882,32 c -1.7844149,0 -3.2355663,-1.451152 -3.2355663,-3.235566 0,-1.784415 1.4511514,-3.235566 3.2355663,-3.235566 1.784415,0 3.235566,1.451151 3.235566,3.235566 C 14.204386,30.548848 12.753235,32 10.96882,32 Z m 24.268364,6.471132 c 0.445699,0 0.807274,0.361575 0.807274,0.807274 v 4.046075 h 1.617783 v -4.046075 c 0,-0.445699 0.361574,-0.807274 0.810509,-0.807274 0.445699,0 0.807274,0.361575 0.807274,0.807274 v 4.046075 h 0.808891 l 0.808892,8.09e-4 0.0032,-4.047693 c 0,-0.44489 0.362384,-0.806465 0.807274,-0.806465 0.445699,0 0.807274,0.361575 0.807274,0.807274 v 14.561665 c 0,1.337907 -1.088768,2.426675 -2.426675,2.426675 h -8.897807 v -2.426675 c 0,-0.215165 -0.08493,-0.420623 -0.237005,-0.571886 l -2.998561,-2.998561 v -4.992478 l 1.617783,-1.619401 v 3.711194 h 1.617783 V 35.023636 30.380599 c 0,-0.445699 0.361575,-0.807274 0.81051,-0.807274 0.445699,0 0.807273,0.361575 0.807273,0.807274 v 4.643037 4.25477 4.046075 h 1.617783 v -4.046075 c 0,-0.445699 0.361575,-0.807274 0.81051,-0.807274 z m -0.81051,-4.596122 v -3.494411 c 0,-1.337098 -1.087959,-2.425057 -2.428292,-2.425057 -1.337098,0 -2.425057,1.087959 -2.425057,2.425057 v 3.494411 c -1.947002,-0.922136 -3.235566,-2.895831 -3.235566,-5.110576 0,-3.121513 2.540728,-5.662241 5.662241,-5.662241 3.121512,0 5.662241,2.540728 5.662241,5.662241 0,2.214745 -1.288565,4.189249 -3.235567,5.110576 z M 53.03118,32 c -1.784415,0 -3.235566,-1.451152 -3.235566,-3.235566 0,-1.784415 1.451151,-3.235566 3.235566,-3.235566 1.784415,0 3.235566,1.451151 3.235566,3.235566 C 56.266746,30.548848 54.815595,32 53.03118,32 Z"
     id="path8"
     style="fill:#0a425a;fill-opacity:1;stroke-width:0.80889153" /><path
     inkscape:connector-curvature="0"
     d="m 10.96882,51.413397 c 2.676622,0 4.853349,-2.176727 4.853349,-4.853349 0,-2.676623 -2.176727,-4.85335 -4.853349,-4.85335 -2.6766223,0 -4.8533494,2.176727 -4.8533494,4.85335 0,2.676622 2.1767271,4.853349 4.8533494,4.853349 z m 0,-8.088916 c 1.784415,0 3.235566,1.451152 3.235566,3.235567 0,1.784414 -1.451151,3.235566 -3.235566,3.235566 -1.7844149,0 -3.2355663,-1.451152 -3.2355663,-3.235566 0,-1.784415 1.4511514,-3.235567 3.2355663,-3.235567 z"
     id="path10"
     style="fill:#0a425a;fill-opacity:1;stroke-width:0.80889153" /><path
     inkscape:connector-curvature="0"
     d="m 53.03118,41.706698 c -2.676622,0 -4.853349,2.176727 -4.853349,4.85335 0,2.676622 2.176727,4.853349 4.853349,4.853349 2.676622,0 4.853349,-2.176727 4.853349,-4.853349 0,-2.676623 -2.176727,-4.85335 -4.853349,-4.85335 z m 0,8.088916 c -1.784415,0 -3.235566,-1.451152 -3.235566,-3.235566 0,-1.784415 1.451151,-3.235567 3.235566,-3.235567 1.784415,0 3.235566,1.451152 3.235566,3.235567 0,1.784414 -1.451151,3.235566 -3.235566,3.235566 z"
     id="path12"
     style="fill:#0a425a;fill-opacity:1;stroke-width:0.80889153" /><rect
     x="17.439953"
     y="9.351037"
     width="1.6177831"
     height="1.6177831"
     id="rect14"
     style="fill:#0a425a;fill-opacity:1;stroke-width:0.80889153" /><rect
     x="20.675518"
     y="9.351037"
     width="1.6177831"
     height="1.6177831"
     id="rect16"
     style="fill:#0a425a;fill-opacity:1;stroke-width:0.80889153" /><rect
     x="23.911085"
     y="9.351037"
     width="1.6177831"
     height="1.6177831"
     id="rect18"
     style="fill:#0a425a;fill-opacity:1;stroke-width:0.80889153" /><rect
     x="38.47113"
     y="9.351037"
     width="1.6177831"
     height="1.6177831"
     id="rect20"
     style="fill:#0a425a;fill-opacity:1;stroke-width:0.80889153" /><rect
     x="41.706699"
     y="9.351037"
     width="1.6177831"
     height="1.6177831"
     id="rect22"
     style="fill:#0a425a;fill-opacity:1;stroke-width:0.80889153" /><rect
     x="44.942265"
     y="9.351037"
     width="1.6177831"
     height="1.6177831"
     id="rect24"
     style="fill:#0a425a;fill-opacity:1;stroke-width:0.80889153" /><rect
     x="17.439953"
     y="45.751156"
     width="1.6177831"
     height="1.6177831"
     id="rect26"
     style="fill:#0a425a;fill-opacity:1;stroke-width:0.80889153" /><rect
     x="20.675518"
     y="45.751156"
     width="1.6177831"
     height="1.6177831"
     id="rect28"
     style="fill:#0a425a;fill-opacity:1;stroke-width:0.80889153" /><rect
     x="23.911085"
     y="45.751156"
     width="1.6177831"
     height="1.6177831"
     id="rect30"
     style="fill:#0a425a;fill-opacity:1;stroke-width:0.80889153" /><rect
     x="44.942265"
     y="45.751156"
     width="1.6177831"
     height="1.6177831"
     id="rect32"
     style="fill:#0a425a;fill-opacity:1;stroke-width:0.80889153" /></svg>