<?xml version="1.0" encoding="UTF-8" standalone="no"?>
<svg
   xmlns:i="http://ns.adobe.com/AdobeIllustrator/10.0/"
   xmlns:dc="http://purl.org/dc/elements/1.1/"
   xmlns:cc="http://creativecommons.org/ns#"
   xmlns:rdf="http://www.w3.org/1999/02/22-rdf-syntax-ns#"
   xmlns:svg="http://www.w3.org/2000/svg"
   xmlns="http://www.w3.org/2000/svg"
   xmlns:sodipodi="http://sodipodi.sourceforge.net/DTD/sodipodi-0.dtd"
   xmlns:inkscape="http://www.inkscape.org/namespaces/inkscape"
   height="100px"
   width="100px"
   fill="#000000"
   version="1.1"
   x="0px"
   y="0px"
   viewBox="0 0 100 100"
   style="enable-background:new 0 0 100 100;"
   xml:space="preserve"
   id="svg22"
   sodipodi:docname="contact.svg"
   inkscape:version="0.92.4 (5da689c313, 2019-01-14)"><metadata
     id="metadata28"><rdf:RDF><cc:Work
         rdf:about=""><dc:format>image/svg+xml</dc:format><dc:type
           rdf:resource="http://purl.org/dc/dcmitype/StillImage" /><dc:title></dc:title></cc:Work></rdf:RDF></metadata><defs
     id="defs26" /><sodipodi:namedview
     pagecolor="#ffffff"
     bordercolor="#666666"
     borderopacity="1"
     objecttolerance="10"
     gridtolerance="10"
     guidetolerance="10"
     inkscape:pageopacity="0"
     inkscape:pageshadow="2"
     inkscape:window-width="1920"
     inkscape:window-height="1016"
     id="namedview24"
     showgrid="false"
     inkscape:zoom="2.36"
     inkscape:cx="50"
     inkscape:cy="50"
     inkscape:window-x="0"
     inkscape:window-y="27"
     inkscape:window-maximized="1"
     inkscape:current-layer="svg22" /><g
     id="g20"
     style="fill:#0a425a;fill-opacity:1"
     transform="matrix(1.047344,0,0,1.047344,-2.3672917,-2.3672001)"><g
       i:extraneous="self"
       id="g18"
       style="fill:#0a425a;fill-opacity:1"><g
         id="g16"
         style="fill:#0a425a;fill-opacity:1"><path
           d="m 54.2,36.8 h 2.7 c 4,0 7.2,-3.2 7.2,-7.2 v -8.2 c 0,-4 -3.2,-7.2 -7.2,-7.2 H 43.1 c -4,0 -7.2,3.2 -7.2,7.2 v 8.2 c 0,4 3.2,7.2 7.2,7.2 h 1 c -0.1,0.9 -0.3,1.9 -0.7,3 -0.4,1.1 -0.1,2.3 0.8,3 0.5,0.4 1.1,0.7 1.8,0.7 0.5,0 0.9,-0.1 1.3,-0.4 2.8,-1.6 5.2,-4.2 6.9,-6.3 z M 47,39.5 c 0.5,-1.7 0.5,-3.3 0.5,-4.3 0,-0.9 -0.8,-1.6 -1.6,-1.6 h -2.7 c -2.2,0 -4,-1.8 -4,-4 v -8.2 c 0,-2.2 1.8,-4 4,-4 H 57 c 2.2,0 4,1.8 4,4 v 8.2 c 0,2.2 -1.8,4 -4,4 h -3.6 c -0.5,0 -1,0.2 -1.3,0.7 -1.1,1.3 -2.9,3.5 -5.1,5.2 z"
           id="path2"
           style="fill:#0a425a;fill-opacity:1"
           inkscape:connector-curvature="0" /><path
           d="m 44.5,24.3 h 11.1 c 0.9,0 1.6,-0.7 1.6,-1.6 0,-0.9 -0.7,-1.7 -1.7,-1.7 h -11 c -0.9,0 -1.6,0.7 -1.6,1.6 0,0.9 0.6,1.7 1.6,1.7 z"
           id="path4"
           style="fill:#0a425a;fill-opacity:1"
           inkscape:connector-curvature="0" /><path
           d="m 57.2,28.2 c 0,-0.9 -0.7,-1.6 -1.6,-1.6 H 44.5 c -0.9,0 -1.6,0.7 -1.6,1.6 0,0.9 0.7,1.6 1.6,1.6 h 11.1 c 0.9,0 1.6,-0.7 1.6,-1.6 z"
           id="path6"
           style="fill:#0a425a;fill-opacity:1"
           inkscape:connector-curvature="0" /><circle
           cx="23.200001"
           cy="39.799999"
           r="10.2"
           id="circle8"
           style="fill:#0a425a;fill-opacity:1" /><path
           d="m 45,67.9 c 0.2,-1 0.5,-1.9 1.1,-2.6 -1.9,0 -3.7,-0.3 -4.8,-0.8 C 40,63.9 38.7,60.7 38.1,59.3 37.8,58.6 37.6,58 37.3,57.6 36.3,55.7 34.2,53.4 30,53.4 H 17 c -3.3,0 -5.9,1.7 -7.7,5 l -0.4,0.8 c -1.7,3.2 -3.5,6.5 -4.1,9 -0.7,2.6 -2.1,10 -2.2,10.3 -0.4,2.1 1,4.2 3.1,4.6 C 5.9,83 6.2,83 6.4,83 c 1.8,0 3.5,-1.3 3.8,-3.2 0,-0.1 1.5,-7.5 2.1,-9.8 0.2,-1 0.9,-2.4 1.6,-3.8 l -0.5,17 c 0,1.4 1.1,2.6 2.5,2.6 h 14.5 c 1.4,0 2.5,-1.2 2.5,-2.6 L 32.4,65.7 c 1.2,2.3 2.9,4.7 5.5,5.9 2.5,1.1 5.7,1.5 8.5,1.5 -1.2,-1.4 -1.8,-3.3 -1.4,-5.2 z"
           id="path10"
           style="fill:#0a425a;fill-opacity:1"
           inkscape:connector-curvature="0" /><circle
           cx="76.800003"
           cy="39.799999"
           r="10.2"
           id="circle12"
           style="fill:#0a425a;fill-opacity:1" /><path
           d="M 97.4,78.4 C 97.3,78.1 95.9,70.7 95.2,68.1 94.6,65.6 92.8,62.3 91.1,59.2 l -0.4,-0.8 c -1.8,-3.3 -4.4,-5 -7.7,-5 H 70.1 c -4.2,0 -6.3,2.3 -7.3,4.2 -0.2,0.4 -0.5,1 -0.8,1.7 -0.6,1.4 -1.9,4.6 -3.2,5.2 -2.3,1.1 -5.7,0.8 -6.8,0.7 -2.1,-0.4 -4.1,1.1 -4.5,3.2 -0.4,2.1 1.1,4.2 3.2,4.5 0.6,0.1 6.5,1 11.4,-1.3 2.6,-1.2 4.3,-3.6 5.5,-5.9 l -0.5,17.5 c 0,1.4 1.1,2.6 2.5,2.6 h 14.5 c 1.4,0 2.5,-1.2 2.5,-2.6 l -0.5,-17 c 0.7,1.4 1.4,2.9 1.6,3.8 0.6,2.4 2.1,9.7 2.1,9.8 0.4,1.9 2,3.2 3.8,3.2 0.3,0 0.5,0 0.8,-0.1 2.1,-0.4 3.4,-2.4 3,-4.5 z"
           id="path14"
           style="fill:#0a425a;fill-opacity:1"
           inkscape:connector-curvature="0" /></g></g></g></svg>