<?xml version="1.0" encoding="UTF-8" standalone="no"?>
<!-- Created with Inkscape (http://www.inkscape.org/) -->

<svg
   xmlns:dc="http://purl.org/dc/elements/1.1/"
   xmlns:cc="http://creativecommons.org/ns#"
   xmlns:rdf="http://www.w3.org/1999/02/22-rdf-syntax-ns#"
   xmlns:svg="http://www.w3.org/2000/svg"
   xmlns="http://www.w3.org/2000/svg"
   xmlns:sodipodi="http://sodipodi.sourceforge.net/DTD/sodipodi-0.dtd"
   xmlns:inkscape="http://www.inkscape.org/namespaces/inkscape"
   width="100"
   height="100"
   viewBox="0 0 26.458333 26.458334"
   version="1.1"
   id="svg8"
   inkscape:version="0.92.4 (5da689c313, 2019-01-14)"
   sodipodi:docname="copr.svg">
  <defs
     id="defs2" />
  <sodipodi:namedview
     id="base"
     pagecolor="#ffffff"
     bordercolor="#666666"
     borderopacity="1.0"
     inkscape:pageopacity="0.0"
     inkscape:pageshadow="2"
     inkscape:zoom="1.979899"
     inkscape:cx="-70.821916"
     inkscape:cy="-7.308519"
     inkscape:document-units="mm"
     inkscape:current-layer="layer1"
     showgrid="false"
     units="px"
     inkscape:window-width="1600"
     inkscape:window-height="836"
     inkscape:window-x="0"
     inkscape:window-y="27"
     inkscape:window-maximized="1"
     inkscape:snap-global="false" />
  <metadata
     id="metadata5">
    <rdf:RDF>
      <cc:Work
         rdf:about="">
        <dc:format>image/svg+xml</dc:format>
        <dc:type
           rdf:resource="http://purl.org/dc/dcmitype/StillImage" />
        <dc:title />
      </cc:Work>
    </rdf:RDF>
  </metadata>
  <g
     inkscape:label="Calque 1"
     inkscape:groupmode="layer"
     id="layer1"
     transform="translate(0,-270.54165)">
    <circle
       style="fill:#b3b3b3;fill-opacity:0.94117647;stroke-width:0.26458332"
       id="path815"
       cx="13.229167"
       cy="283.77081"
       r="13.229842" />
    <path
       inkscape:connector-curvature="0"
       id="path2"
       d="m 8.6148814,291.96914 v -1.02112 h 4.3796656 4.379666 v -2.71065 -2.71065 l -1.742653,-1.83058 -1.742655,-1.83058 -0.05625,0.0698 c -0.237676,0.29503 -0.543958,0.53304 -0.830706,0.64555 l -0.111104,0.0436 v 1.1622 1.1622 h -0.765846 -0.765842 v -1.19345 -1.19345 l -0.07579,-0.0366 c -0.217605,-0.10499 -0.507505,-0.34278 -0.675898,-0.5544 -0.191288,-0.2404 -0.332803,-0.54255 -0.398735,-0.85134 -0.05056,-0.23681 -0.05056,-0.59286 0,-0.82967 0.170388,-0.79803 0.783426,-1.41074 1.582265,-1.5814 0.335747,-0.0717 0.789265,-0.0408 1.096202,0.0747 l 0.106129,0.0399 0.934018,-0.93392 0.934023,-0.93392 0.538432,0.53843 0.538431,0.53844 -0.917393,0.9175 -0.917397,0.91749 2.400638,2.52086 2.400638,2.52086 5.88e-4,4.04062 5.89e-4,4.04062 H 13.760384 8.6148772 Z m 0.9413494,-3.87708 v -1.02113 h 2.5687652 2.568764 v 1.02113 1.02113 H 12.124996 9.5562308 Z"
       style="fill:#0a425a;fill-opacity:1;stroke-width:0.01595506"
       sodipodi:nodetypes="cccccccccccccccccccccccccccccccccccccccccccccc" />
    <path
       id="path53"
       d="m 5.0642334,286.67932 c -0.5440075,-0.16716 -1.109409,-0.75202 -1.3802284,-1.42774 -0.2880085,-0.71859 -0.3676239,-1.28102 -0.3632171,-2.56587 0.0037,-1.07938 0.017871,-1.23243 0.1653273,-1.78596 0.1992128,-0.74781 0.6185168,-1.61228 0.9735715,-2.00718 1.5639839,-1.73953 3.5661883,0.14263 3.7134863,3.49083 0.07363,1.6737 -0.2550247,3.02589 -0.9074997,3.73374 -0.4026407,0.43682 -0.7526879,0.58396 -1.4364884,0.60381 -0.3163262,0.009 -0.6605542,-0.01 -0.7649515,-0.0416 z m 1.5089812,-0.16767 c 1.0085449,-0.44613 1.496037,-1.65818 1.5022908,-3.73513 0.00436,-1.45411 -0.2810478,-2.57391 -0.8892633,-3.48879 -0.4333775,-0.65189 -0.9043376,-0.96097 -1.4643076,-0.96097 -1.4238826,0 -2.5562089,2.48064 -2.323661,5.09056 0.1673577,1.87828 0.7281056,2.89207 1.7619687,3.18552 0.3689036,0.1047 1.0728122,0.0593 1.4129724,-0.0912 z m -1.4103712,-0.005 c -0.7467278,-0.2441 -1.2813554,-0.99507 -1.5128679,-2.12507 -0.5492451,-2.68083 0.3377457,-5.56076 1.8282542,-5.93607 1.1562524,-0.29115 2.2715012,1.34097 2.4709507,3.61612 0.1442228,1.64515 -0.2130322,3.29109 -0.8587529,3.95646 -0.3643778,0.37547 -0.6662979,0.50007 -1.2612426,0.5205 -0.2830287,0.01 -0.5828823,-0.005 -0.6663415,-0.0319 z M 6.39018,286.40387 c 0.8638119,-0.29433 1.3669028,-1.29947 1.4945658,-2.98604 0.1428428,-1.88713 -0.3302957,-3.676 -1.1888012,-4.49467 -0.3259437,-0.31082 -0.604341,-0.43814 -0.957571,-0.43791 -1.277644,10e-4 -2.3183343,2.2181 -2.1791582,4.64286 0.1050499,1.83022 0.6242171,2.96075 1.5025671,3.27199 0.3375957,0.11962 0.9830252,0.12145 1.3283975,0.004 z m -1.0462668,-0.25989 c -0.1323876,-0.071 -0.2647235,-0.21753 -0.3553433,-0.39352 -0.1194417,-0.23196 -0.173566,-0.28042 -0.3131947,-0.28042 -0.1949516,0 -0.5052877,-0.23901 -0.6343204,-0.48854 -0.1014728,-0.19622 -0.1141853,-0.46558 -0.032157,-0.68133 0.046343,-0.12189 0.029922,-0.17351 -0.091492,-0.28757 -0.2820533,-0.26497 -0.3200537,-0.75104 -0.084605,-1.0822 0.1004778,-0.14132 0.1002295,-0.15551 -0.0053,-0.3027 -0.1909997,-0.26642 -0.2025359,-0.54238 -0.036326,-0.86895 0.1251115,-0.24581 0.1384004,-0.3219 0.086028,-0.49255 -0.092798,-0.30236 -0.00941,-0.61132 0.2294742,-0.8502 0.1605143,-0.16052 0.2089823,-0.25929 0.2089823,-0.4259 0,-0.42856 0.3669729,-0.81632 0.7725648,-0.81632 0.1066264,0 0.1976375,-0.0378 0.2178492,-0.0905 0.1100779,-0.28685 0.7722739,-0.42673 1.1341991,-0.23957 0.1952873,0.10099 0.4175087,0.41431 0.4178773,0.58919 1.27e-4,0.0593 0.09524,0.19121 0.2113707,0.29318 0.2645868,0.23231 0.3769582,0.56843 0.2815443,0.84214 -0.061892,0.17755 -0.052055,0.21306 0.1102044,0.39787 0.1837073,0.20923 0.2447188,0.42184 0.2413876,0.84118 -0.00115,0.13319 0.015333,0.3827 0.036424,0.55447 0.028295,0.23046 0.011671,0.3685 -0.063433,0.52678 -0.093329,0.19668 -0.093785,0.2259 -0.00545,0.35199 0.1571464,0.22436 0.1277687,0.72983 -0.05504,0.94709 -0.1105202,0.13134 -0.1514599,0.25101 -0.1517504,0.44356 -6.888e-4,0.40841 -0.3619111,0.83739 -0.7061466,0.83844 -0.095201,2.3e-4 -0.141884,0.0481 -0.169429,0.17351 -0.039217,0.17855 -0.2653393,0.42678 -0.4973504,0.54598 -0.19698,0.1012 -0.5087265,0.0823 -0.7465504,-0.0452 z m 0.7752524,-0.0628 c 0.2320058,-0.11911 0.4718941,-0.44439 0.4061622,-0.55075 -0.020548,-0.0332 -0.097308,-0.0604 -0.1706029,-0.0604 -0.073294,0 -0.2036578,-0.0653 -0.2896972,-0.14506 -0.1890557,-0.1753 -0.418985,-0.17071 -0.7201697,0.0144 -0.1165412,0.0716 -0.2459473,0.13032 -0.2875692,0.13045 -0.2051016,5.7e-4 0.043505,0.44865 0.3340729,0.60208 0.2867848,0.15141 0.4470307,0.15346 0.7278039,0.009 z M 5.2103054,285.31536 C 5.383278,285.1942 5.37987,285.14229 5.1933664,285.05731 4.8725665,284.91114 4.684999,284.2846 4.8626608,283.95264 c 0.054997,-0.10276 0.042023,-0.11707 -0.1059465,-0.11688 -0.356321,4.6e-4 -0.7437557,0.41034 -0.7437557,0.78681 0,0.22161 0.1910518,0.55236 0.3886703,0.67287 0.2266844,0.13823 0.6257261,0.14806 0.8086767,0.0199 z m 1.8182048,-0.0284 c 0.2145081,-0.13077 0.3748778,-0.43389 0.3745122,-0.70785 -4.581e-4,-0.37133 -0.3886713,-0.74357 -0.7753886,-0.74357 -0.1743762,0 -0.1755772,0.002 -0.1149687,0.22946 0.095091,0.35627 0.013477,0.63654 -0.2563059,0.88028 -0.2156415,0.19482 -0.2269046,0.21996 -0.1345037,0.3003 0.2270646,0.19742 0.6212229,0.21541 0.9066547,0.0414 z m -0.8328671,-0.39504 c 0.1885192,-0.18061 0.3144549,-0.51131 0.259912,-0.68252 -0.017779,-0.0558 -0.059351,-0.17405 -0.092401,-0.2628 l -0.060089,-0.16136 -0.2091797,0.12342 c -0.2516739,0.14849 -0.7427872,0.12716 -0.9278292,-0.0403 -0.1130783,-0.10233 -0.1202195,-0.0983 -0.2112797,0.11965 -0.1214063,0.29056 -0.1188541,0.43934 0.011702,0.68206 0.2517258,0.46799 0.8580295,0.57743 1.2291646,0.22185 z m 1.3842903,-0.77596 c 0.2210386,-0.35765 0.1310271,-0.8707 -0.1896148,-1.0808 -0.3597998,-0.23574 -0.8346428,-0.17624 -0.8346428,0.1046 0,0.0851 -0.040867,0.2526 -0.090813,0.37214 -0.049945,0.11954 -0.090645,0.22082 -0.090442,0.22508 2.059e-4,0.004 0.1223115,0.0111 0.2713507,0.0152 0.313141,0.009 0.5451813,0.14052 0.6875964,0.39086 0.05508,0.0968 0.1047383,0.17622 0.1103462,0.17643 0.00563,1.8e-4 0.066908,-0.0914 0.1362187,-0.20352 z m -3.3036078,-0.1868 c 0.107111,-0.0817 0.3060763,-0.16634 0.442145,-0.18811 l 0.2473976,-0.0396 -0.088644,-0.17769 c -0.056604,-0.11347 -0.081112,-0.30259 -0.067804,-0.52326 l 0.02084,-0.34555 -0.2039367,-0.0195 c -0.4643819,-0.0444 -0.8555284,0.30243 -0.8555284,0.75863 0,0.24163 0.1819413,0.68359 0.281411,0.68359 0.016154,0 0.1170085,-0.0668 0.2241194,-0.14854 z M 6.107179,283.8076 c 0.3800944,-0.24905 0.4663491,-0.777 0.1868207,-1.14348 -0.2851417,-0.37384 -0.7657472,-0.42765 -1.124362,-0.1259 -0.3422786,0.28801 -0.3902645,0.73801 -0.1158925,1.08682 0.2551322,0.32435 0.7153231,0.4041 1.0534338,0.18256 z m 1.5978458,-1.3254 c -4.576e-4,-0.13782 -0.02632,-0.29074 -0.057354,-0.33981 -0.048094,-0.076 -0.077008,-0.0705 -0.1958296,0.0378 -0.3232573,0.29464 -0.72566,0.34833 -1.0641175,0.14197 -0.1090218,-0.0665 -0.2111844,-0.12086 -0.2270288,-0.12086 -0.079685,0 -0.00934,0.15754 0.1528147,0.34222 0.099894,0.11378 0.1816226,0.23119 0.1816226,0.26092 0,0.0297 0.1451492,0.0391 0.3225547,0.0208 0.2308821,-0.0238 0.3728282,-0.006 0.4994614,0.0623 0.166736,0.0901 0.1830029,0.0884 0.2828555,-0.0296 0.064167,-0.0758 0.1055804,-0.22397 0.1050195,-0.37574 z m -3.1818419,0.0726 c 0.2749978,-0.006 0.2820096,-0.0103 0.2471468,-0.16905 -0.019735,-0.0899 -0.00945,-0.23288 0.022852,-0.31784 0.056757,-0.14928 0.049583,-0.15552 -0.2131624,-0.18513 -0.170438,-0.0192 -0.3284766,-0.0838 -0.4235256,-0.1731 l -0.1516294,-0.14245 -0.1156886,0.15057 c -0.1422331,0.18513 -0.154877,0.60061 -0.02587,0.85009 0.088213,0.17058 0.099117,0.17456 0.2346799,0.0857 0.078193,-0.0512 0.2695307,-0.0957 0.4251961,-0.0988 z m 1.1586251,-0.26264 c 0.3564808,0 0.3895401,-0.0109 0.3895401,-0.12829 0,-0.0998 -0.047225,-0.13596 -0.2124679,-0.16278 -0.1168577,-0.0189 -0.2911201,-0.0905 -0.3872497,-0.15893 -0.1584111,-0.1128 -0.1903968,-0.11635 -0.3415054,-0.0379 -0.091699,0.0476 -0.189453,0.12234 -0.2172321,0.16615 -0.059909,0.0945 -0.068162,0.42208 -0.014177,0.56277 0.032647,0.0851 0.063952,0.0748 0.2158683,-0.0707 0.1571585,-0.15056 0.2226815,-0.17023 0.5672242,-0.17023 z m 1.4407843,0.007 c 0.2485649,-0.10386 0.4472803,-0.35016 0.4972011,-0.61626 0.06975,-0.37179 -0.2463365,-0.81125 -0.6529423,-0.90779 -0.1605626,-0.0381 -0.1627752,-0.0348 -0.1067885,0.16041 0.1088844,0.37966 -0.113122,0.80273 -0.535324,1.02016 -0.1194122,0.0615 -0.1283657,0.0863 -0.060565,0.16801 0.093025,0.1121 0.3958584,0.25317 0.5507462,0.25657 0.059339,10e-4 0.1977933,-0.0352 0.3076725,-0.0811 z m -0.7485391,-0.46421 c 0.21516,-0.11043 0.3782671,-0.36174 0.4084248,-0.62932 0.066158,-0.58695 -0.4737565,-1.01257 -1.0346909,-0.81567 -0.1962276,0.0689 -0.2469369,0.11466 -0.2304866,0.20806 0.078881,0.44785 0.073559,0.63822 -0.023564,0.84289 -0.1003243,0.21142 -0.099941,0.22384 0.00951,0.30787 0.2438375,0.18722 0.6044054,0.2229 0.8708089,0.0862 z m -1.2651765,-0.1342 c 0.2726047,-0.18157 0.4423101,-0.52961 0.3911681,-0.80222 -0.1562684,-0.83298 -1.3322811,-0.88969 -1.5517016,-0.0748 -0.1850503,0.68722 0.5788211,1.2645 1.1605335,0.87704 z m 2.1613431,-1.27213 c 0.022836,-0.3484 -0.1068204,-0.61363 -0.3652818,-0.74729 -0.2491989,-0.12886 -0.6056392,-0.12786 -0.8042365,0.002 -0.1452233,0.0952 -0.3918564,0.43125 -0.3923719,0.5347 -1.272e-4,0.025 0.1237217,0.0454 0.2752138,0.0454 0.3022853,0 0.5805185,0.11697 0.7066693,0.29708 0.072361,0.1033 0.3352515,0.1861 0.5011408,0.15783 0.033295,-0.006 0.068787,-0.13617 0.078866,-0.28999 z m -1.7794486,-0.035 c 0.017587,-0.0285 -0.034501,-0.11419 -0.1157518,-0.19052 -0.1915905,-0.17999 -0.2944195,-0.49882 -0.2453085,-0.76061 0.044251,-0.23588 0.00918,-0.24999 -0.3000691,-0.12077 -0.2436398,0.10179 -0.4528731,0.4109 -0.4532491,0.66958 -2.54e-4,0.17911 0.00371,0.18136 0.2873426,0.16194 0.2294543,-0.0157 0.3304505,0.0108 0.4995001,0.13103 0.2374786,0.16892 0.2816126,0.18366 0.3275358,0.10935 z m 0.3834366,-0.62794 c 0.1854041,-0.19549 0.5000811,-0.31156 0.746573,-0.27539 0.2087188,0.0307 0.220931,-0.0317 0.058428,-0.29821 -0.2330946,-0.38229 -0.7283222,-0.49207 -1.0974877,-0.24329 -0.2788115,0.1879 -0.3678936,0.37915 -0.3388477,0.72751 0.018099,0.21708 0.068236,0.33635 0.198563,0.47238 l 0.1743495,0.18198 0.050925,-0.19995 c 0.028009,-0.10997 0.1213825,-0.27423 0.2074969,-0.36503 z"
       style="fill:#0a425a;fill-opacity:1;stroke-width:0.06054086"
       inkscape:connector-curvature="0" />
  </g>
</svg>
