<?xml version="1.0" encoding="UTF-8" standalone="no"?>
<svg
   xmlns:i="http://ns.adobe.com/AdobeIllustrator/10.0/"
   xmlns:dc="http://purl.org/dc/elements/1.1/"
   xmlns:cc="http://creativecommons.org/ns#"
   xmlns:rdf="http://www.w3.org/1999/02/22-rdf-syntax-ns#"
   xmlns:svg="http://www.w3.org/2000/svg"
   xmlns="http://www.w3.org/2000/svg"
   xmlns:sodipodi="http://sodipodi.sourceforge.net/DTD/sodipodi-0.dtd"
   xmlns:inkscape="http://www.inkscape.org/namespaces/inkscape"
   id="svg12"
   xml:space="preserve"
   style="fill:#1a1a1a"
   viewBox="-247 370.9 100 100"
   y="0px"
   x="0px"
   version="1.1"
   width="100"
   height="100"
   sodipodi:docname="cv.svg"
   inkscape:version="0.92.4 (5da689c313, 2019-01-14)"><sodipodi:namedview
     pagecolor="#ffffff"
     bordercolor="#666666"
     borderopacity="1"
     objecttolerance="10"
     gridtolerance="10"
     guidetolerance="10"
     inkscape:pageopacity="0"
     inkscape:pageshadow="2"
     inkscape:window-width="1920"
     inkscape:window-height="1016"
     id="namedview11"
     showgrid="false"
     inkscape:pagecheckerboard="false"
     inkscape:zoom="2.7320329"
     inkscape:cx="-43.586427"
     inkscape:cy="41.727168"
     inkscape:window-x="0"
     inkscape:window-y="27"
     inkscape:window-maximized="1"
     inkscape:current-layer="svg12" /><metadata
     id="metadata18"><rdf:RDF><cc:Work
         rdf:about=""><dc:format>image/svg+xml</dc:format><dc:type
           rdf:resource="http://purl.org/dc/dcmitype/StillImage" /><dc:title></dc:title></cc:Work></rdf:RDF></metadata><defs
     id="defs16" /><rect
     y="366.94809"
     x="-247"
     height="103.9519"
     width="100.7985"
     id="rect4491"
     style="opacity:0.57399998;fill:#cccccc;fill-opacity:1;stroke:none;stroke-width:2.43039417;stroke-linejoin:round;stroke-miterlimit:4;stroke-dasharray:none;stroke-dashoffset:0;stroke-opacity:1" /><g
     transform="matrix(0.88210394,0,0,0.88210394,-22.693958,49.778829)"
     id="g10"><g
       id="g8"
       i:extraneous="self"><path
         id="path2"
         d="m -173.1,469.9 c -3.4,-8.6 -5.3,-19.8 -5.6,-33.4 0.1,-0.4 0.3,-0.8 0.4,-1.2 3,-9 6,-18.2 3.7,-24.7 -1,-2.9 -1.1,-3.2 -2.2,-4.7 -0.3,-0.4 -0.7,-0.9 -1.2,-1.8 7.2,-7.9 0.2,-27 -0.7,-29.3 l -1.7,-4.5 -1.9,4.2 c -4.8,7 -9.4,14.4 -10.5,21.2 -2.8,-0.4 -5.6,-0.3 -8.5,0.1 -1,-6.9 -5.7,-14.3 -10.6,-21.3 l -1.9,-4.2 -1.7,4.4 c -0.9,2.2 -7.9,21 -0.7,29.2 -0.1,0.1 -0.1,0.2 -0.2,0.2 -1.1,1.5 -2,2.8 -3.3,6.3 -2.3,6.5 0.8,15.7 3.7,24.7 0.1,0.4 0.3,0.8 0.4,1.2 -0.2,13.6 -2.1,24.9 -5.6,33.4 l 3.7,1.5 c 2.6,-6.4 4.3,-14.1 5.2,-23.2 0.4,1.8 0.6,3.5 0.6,5.1 v 0 c 0.1,2 0.8,3.8 1.8,5.2 0.3,7.5 4.8,11.7 12.7,11.7 7.8,0 12.4,-4.3 12.7,-11.7 1,-1.5 1.6,-3.2 1.8,-5.2 v 0 c 0,-1.6 0.2,-3.3 0.6,-5.1 0.9,9 2.6,16.8 5.2,23.2 z m -7.2,-69.4 c -2.9,-5.9 -1.7,-13.5 -0.3,-18.6 1.6,6.2 2.9,14.4 0.3,18.6 z m -33.2,-18.6 c 1.4,5.1 2.7,12.7 -0.3,18.6 -2.6,-4.3 -1.3,-12.5 0.3,-18.6 z m -2.9,33.4 c 0.8,0.2 1.5,0.5 2.2,0.9 -0.9,1 -1.4,2.3 -1.4,3.7 0,3 2.3,5.4 5.2,5.4 0.4,0 0.9,-0.1 1.3,-0.2 0.2,2 0.3,4.3 0.1,7.1 l 4,0.2 c 0.5,-8.4 -0.3,-18.3 -10.6,-20.9 0.9,-2.4 1.5,-3.3 2.5,-4.6 0.4,-0.6 0.9,-1.3 1.5,-2.1 v 0 c 3.5,-4.9 4,-11.1 3.4,-16.5 1.6,3 2.7,6 3,8.7 -0.4,0.1 -0.8,0.2 -1.3,0.3 l 1.2,3.8 c 5.7,-1.8 11.4,-1.8 16.9,0 l 1.2,-3.8 c -0.6,-0.2 -1.2,-0.3 -1.8,-0.5 0.4,-2.7 1.5,-5.5 3,-8.5 -0.6,5.4 -0.1,11.5 3.4,16.4 v 0 c 1.3,2 2,3 2.5,3.7 0.7,0.9 0.7,1 1.5,3.1 -10.3,2.6 -11,12.6 -10.6,21 l 4,-0.2 c -0.2,-2.7 -0.1,-5.1 0.1,-7.1 0.4,0.1 0.8,0.2 1.3,0.2 2.9,0 5.2,-2.4 5.2,-5.4 0,-1.4 -0.6,-2.7 -1.4,-3.7 0.7,-0.4 1.4,-0.6 2.2,-0.9 0.2,5.1 -2.1,12 -4.3,18.8 -2.1,6.3 -4.2,12.8 -4.5,18.3 v 0 c 0,4.8 -3.5,7.3 -10.5,7.3 -7,0 -10.5,-2.5 -10.5,-7.3 v 0 c -0.2,-5.5 -2.4,-12 -4.5,-18.3 -2.2,-6.9 -4.5,-13.8 -4.3,-18.9 z m 5.2,3.5 c 0.5,0.7 0.8,1.4 1.2,2.3 -0.1,0.1 -0.3,0.1 -0.4,0.1 -0.6,0 -1.2,-0.6 -1.2,-1.4 0,-0.4 0.1,-0.8 0.4,-1 z m 28.7,1 c 0,0.7 -0.5,1.4 -1.2,1.4 -0.1,0 -0.3,0 -0.4,-0.1 0.3,-0.9 0.7,-1.6 1.2,-2.3 0.2,0.2 0.4,0.6 0.4,1 z m -14.6,46.5 c -4.1,0 -6.7,-1.3 -7.9,-4 2.2,0.9 4.8,1.4 7.9,1.4 3.1,0 5.7,-0.5 7.9,-1.4 -1.2,2.6 -3.8,4 -7.9,4 z"
         inkscape:connector-curvature="0" /><path
         id="path4"
         d="m -188.5,449.4 -2.8,-2.8 c -1.6,1.6 -2.7,3.6 -3.3,5.8 l 3.9,0.9 c 0.4,-1.6 1.1,-2.9 2.2,-3.9 z"
         inkscape:connector-curvature="0" /><path
         id="path6"
         d="m -199.6,452.4 c -0.5,-2.3 -1.6,-4.2 -3.3,-5.8 l -2.8,2.8 c 1.1,1.1 1.8,2.4 2.2,3.9 z"
         inkscape:connector-curvature="0" /></g></g></svg>