<?xml version="1.0" encoding="UTF-8" standalone="no"?>
<svg
   xmlns:i="http://ns.adobe.com/AdobeIllustrator/10.0/"
   xmlns:dc="http://purl.org/dc/elements/1.1/"
   xmlns:cc="http://creativecommons.org/ns#"
   xmlns:rdf="http://www.w3.org/1999/02/22-rdf-syntax-ns#"
   xmlns:svg="http://www.w3.org/2000/svg"
   xmlns="http://www.w3.org/2000/svg"
   xmlns:sodipodi="http://sodipodi.sourceforge.net/DTD/sodipodi-0.dtd"
   xmlns:inkscape="http://www.inkscape.org/namespaces/inkscape"
   height="100"
   width="100"
   version="1.1"
   x="0px"
   y="0px"
   viewBox="-247 370.9 100 100"
   style="fill:#1a1a1a"
   xml:space="preserve"
   id="svg12"
   sodipodi:docname="cv_rond.svg"
   inkscape:version="0.92.4 (5da689c313, 2019-01-14)"><sodipodi:namedview
     pagecolor="#ffffff"
     bordercolor="#666666"
     borderopacity="1"
     objecttolerance="10"
     gridtolerance="10"
     guidetolerance="10"
     inkscape:pageopacity="0"
     inkscape:pageshadow="2"
     inkscape:window-width="1920"
     inkscape:window-height="1016"
     id="namedview11"
     showgrid="false"
     inkscape:zoom="5.4640658"
     inkscape:cx="29.999964"
     inkscape:cy="53.538377"
     inkscape:window-x="0"
     inkscape:window-y="27"
     inkscape:window-maximized="1"
     inkscape:current-layer="svg12" /><metadata
     id="metadata18"><rdf:RDF><cc:Work
         rdf:about=""><dc:format>image/svg+xml</dc:format><dc:type
           rdf:resource="http://purl.org/dc/dcmitype/StillImage" /><dc:title></dc:title></cc:Work></rdf:RDF></metadata><defs
     id="defs16" /><circle
     r="48.904469"
     cy="420.89999"
     cx="-197"
     id="path815"
     style="fill:#b3b3b3;fill-opacity:0.94117647;stroke-width:0.97803944" /><g
     id="g10"
     transform="matrix(0.64115578,0,0,0.64115578,55.617131,169.28929)"><g
       i:extraneous="self"
       id="g8"><path
         d="m -173.1,469.9 c -3.4,-8.6 -5.3,-19.8 -5.6,-33.4 0.1,-0.4 0.3,-0.8 0.4,-1.2 3,-9 6,-18.2 3.7,-24.7 -1,-2.9 -1.1,-3.2 -2.2,-4.7 -0.3,-0.4 -0.7,-0.9 -1.2,-1.8 7.2,-7.9 0.2,-27 -0.7,-29.3 l -1.7,-4.5 -1.9,4.2 c -4.8,7 -9.4,14.4 -10.5,21.2 -2.8,-0.4 -5.6,-0.3 -8.5,0.1 -1,-6.9 -5.7,-14.3 -10.6,-21.3 l -1.9,-4.2 -1.7,4.4 c -0.9,2.2 -7.9,21 -0.7,29.2 -0.1,0.1 -0.1,0.2 -0.2,0.2 -1.1,1.5 -2,2.8 -3.3,6.3 -2.3,6.5 0.8,15.7 3.7,24.7 0.1,0.4 0.3,0.8 0.4,1.2 -0.2,13.6 -2.1,24.9 -5.6,33.4 l 3.7,1.5 c 2.6,-6.4 4.3,-14.1 5.2,-23.2 0.4,1.8 0.6,3.5 0.6,5.1 v 0 c 0.1,2 0.8,3.8 1.8,5.2 0.3,7.5 4.8,11.7 12.7,11.7 7.8,0 12.4,-4.3 12.7,-11.7 1,-1.5 1.6,-3.2 1.8,-5.2 v 0 c 0,-1.6 0.2,-3.3 0.6,-5.1 0.9,9 2.6,16.8 5.2,23.2 z m -7.2,-69.4 c -2.9,-5.9 -1.7,-13.5 -0.3,-18.6 1.6,6.2 2.9,14.4 0.3,18.6 z m -33.2,-18.6 c 1.4,5.1 2.7,12.7 -0.3,18.6 -2.6,-4.3 -1.3,-12.5 0.3,-18.6 z m -2.9,33.4 c 0.8,0.2 1.5,0.5 2.2,0.9 -0.9,1 -1.4,2.3 -1.4,3.7 0,3 2.3,5.4 5.2,5.4 0.4,0 0.9,-0.1 1.3,-0.2 0.2,2 0.3,4.3 0.1,7.1 l 4,0.2 c 0.5,-8.4 -0.3,-18.3 -10.6,-20.9 0.9,-2.4 1.5,-3.3 2.5,-4.6 0.4,-0.6 0.9,-1.3 1.5,-2.1 v 0 c 3.5,-4.9 4,-11.1 3.4,-16.5 1.6,3 2.7,6 3,8.7 -0.4,0.1 -0.8,0.2 -1.3,0.3 l 1.2,3.8 c 5.7,-1.8 11.4,-1.8 16.9,0 l 1.2,-3.8 c -0.6,-0.2 -1.2,-0.3 -1.8,-0.5 0.4,-2.7 1.5,-5.5 3,-8.5 -0.6,5.4 -0.1,11.5 3.4,16.4 v 0 c 1.3,2 2,3 2.5,3.7 0.7,0.9 0.7,1 1.5,3.1 -10.3,2.6 -11,12.6 -10.6,21 l 4,-0.2 c -0.2,-2.7 -0.1,-5.1 0.1,-7.1 0.4,0.1 0.8,0.2 1.3,0.2 2.9,0 5.2,-2.4 5.2,-5.4 0,-1.4 -0.6,-2.7 -1.4,-3.7 0.7,-0.4 1.4,-0.6 2.2,-0.9 0.2,5.1 -2.1,12 -4.3,18.8 -2.1,6.3 -4.2,12.8 -4.5,18.3 v 0 c 0,4.8 -3.5,7.3 -10.5,7.3 -7,0 -10.5,-2.5 -10.5,-7.3 v 0 c -0.2,-5.5 -2.4,-12 -4.5,-18.3 -2.2,-6.9 -4.5,-13.8 -4.3,-18.9 z m 5.2,3.5 c 0.5,0.7 0.8,1.4 1.2,2.3 -0.1,0.1 -0.3,0.1 -0.4,0.1 -0.6,0 -1.2,-0.6 -1.2,-1.4 0,-0.4 0.1,-0.8 0.4,-1 z m 28.7,1 c 0,0.7 -0.5,1.4 -1.2,1.4 -0.1,0 -0.3,0 -0.4,-0.1 0.3,-0.9 0.7,-1.6 1.2,-2.3 0.2,0.2 0.4,0.6 0.4,1 z m -14.6,46.5 c -4.1,0 -6.7,-1.3 -7.9,-4 2.2,0.9 4.8,1.4 7.9,1.4 3.1,0 5.7,-0.5 7.9,-1.4 -1.2,2.6 -3.8,4 -7.9,4 z"
         id="path2"
         inkscape:connector-curvature="0" /><path
         d="m -188.5,449.4 -2.8,-2.8 c -1.6,1.6 -2.7,3.6 -3.3,5.8 l 3.9,0.9 c 0.4,-1.6 1.1,-2.9 2.2,-3.9 z"
         id="path4"
         inkscape:connector-curvature="0" /><path
         d="m -199.6,452.4 c -0.5,-2.3 -1.6,-4.2 -3.3,-5.8 l -2.8,2.8 c 1.1,1.1 1.8,2.4 2.2,3.9 z"
         id="path6"
         inkscape:connector-curvature="0" /></g></g><g
     id="g834"
     transform="matrix(0.75323812,0,0,0.75323812,-52.030389,89.966941)"><path
       id="path2-7"
       d="m -165.43949,417.0737 v 0 l 0.013,0.006 c 0.988,0.61 6.092,2.707 11.804,-2.649 2.295,-2.331 3.381,-5.88 3.381,-5.88 0,0 -2.44,1.099 -4.344,0.365 -1.291,-0.5 -2.574,-2.044 -2.816,-2.35 -0.594,-0.669 -1.333,-1.239 -2.196,-1.628 -3.36,-1.524 -7.324,-0.001 -8.852,3.39 -1.486,3.308 -0.133,7.118 3.01,8.746 z"
       inkscape:connector-curvature="0"
       style="fill:#0a425a;fill-opacity:1" /><path
       style="fill:#0a425a;fill-opacity:1"
       id="path4-5"
       d="m -143.25149,443.6377 -5.827,-18.042 c -0.587,-2.058 -3.241,-5.706 -7.744,-5.706 h -10.407 c -2.25,0 -3.936,0.911 -5.131,2.079 -0.146,0.125 -0.943,1.083 -1.165,1.419 l -5.785,7.559 -6.072,-3.88 v -3.941 l 1.6,0.849 c 1.932,1.001 3.744,0.712 5.437,-0.874 2.398,-2.159 2.438,-4.399 0.118,-6.718 l -10.366,-13.179 2.989,-7.007 c 0,0 -32.434,14.489 -35.003,15.649 l -8.917,-0.001 c -6.083,0 -11.476,5.476 -12.221,12.057 h -0.089 l -0.006,3.357 v 22.352 h 6.717 l 0.006,-24.158 c 0,-3.3 2.359,-6.43 5.007,-6.843 -0.825,1.484 -1.303,3.188 -1.303,5.007 l -0.005,52.494 c 0,3.465 1.736,6.387 5.201,6.387 3.465,0 4.724,-2.903 4.724,-6.333 v -29.687 h 8.083 v 29.687 c 0,3.43 1.499,6.333 4.964,6.333 3.464,0 5.202,-2.922 5.202,-6.387 v -47.606 l 9.414,-9.862 6.531,3.465 v 3.768 c -1.105,-0.338 -2.342,0.062 -3.005,1.078 -0.806,1.232 -0.457,2.883 0.775,3.687 l 4.465,2.914 v 16.347 h 1.918 v -15.095 l 2.993,1.953 c 0.449,0.294 0.953,0.433 1.455,0.433 0.803,0 1.595,-0.362 2.116,-1.044 l 5.643,-7.373 h 2.198 c 0,0 -3.272,8.695 -3.469,19.328 -0.128,6.758 3.851,31.782 3.851,31.782 0.271,3.477 4.906,3.485 5.015,0 l -0.004,-27.372 h 2.646 l -0.005,27.372 c 0.108,3.485 4.694,3.477 5.016,0 0,0 3.978,-25.024 3.853,-31.782 -0.197,-10.633 -3.888,-19.328 -3.888,-19.328 h 2.181 l 5.283,16.607 c 1.176,3.618 6.15,2.132 5.011,-1.745 z"
       inkscape:connector-curvature="0" /></g></svg>