<?xml version="1.0" encoding="UTF-8" standalone="no"?>
<svg
   xmlns:dc="http://purl.org/dc/elements/1.1/"
   xmlns:cc="http://creativecommons.org/ns#"
   xmlns:rdf="http://www.w3.org/1999/02/22-rdf-syntax-ns#"
   xmlns:svg="http://www.w3.org/2000/svg"
   xmlns="http://www.w3.org/2000/svg"
   xmlns:sodipodi="http://sodipodi.sourceforge.net/DTD/sodipodi-0.dtd"
   xmlns:inkscape="http://www.inkscape.org/namespaces/inkscape"
   height="100"
   width="100"
   version="1.1"
   x="0px"
   y="0px"
   viewBox="-247 370.9 100 100"
   style="fill:#1a1a1a"
   xml:space="preserve"
   id="svg12"
   sodipodi:docname="cv_rond.svg"
   inkscape:version="0.92.4 (5da689c313, 2019-01-14)"><sodipodi:namedview
     pagecolor="#ffffff"
     bordercolor="#666666"
     borderopacity="1"
     objecttolerance="10"
     gridtolerance="10"
     guidetolerance="10"
     inkscape:pageopacity="0"
     inkscape:pageshadow="2"
     inkscape:window-width="1920"
     inkscape:window-height="1046"
     id="namedview11"
     showgrid="false"
     inkscape:zoom="3.1807427"
     inkscape:cx="12.62238"
     inkscape:cy="61.232271"
     inkscape:window-x="-11"
     inkscape:window-y="-11"
     inkscape:window-maximized="1"
     inkscape:current-layer="svg12" /><metadata
     id="metadata18"><rdf:RDF><cc:Work
         rdf:about=""><dc:format>image/svg+xml</dc:format><dc:type
           rdf:resource="http://purl.org/dc/dcmitype/StillImage" /><dc:title /></cc:Work></rdf:RDF></metadata><defs
     id="defs16" /><circle
     r="48.904469"
     cy="420.89999"
     cx="-197"
     id="path815"
     style="fill:#b3b3b3;fill-opacity:0.94117647;stroke-width:0.97803944" /><g
     id="g834"
     transform="matrix(0.75323812,0,0,0.75323812,-52.030389,89.966941)"><path
       id="path2-7"
       d="m -165.43949,417.0737 v 0 l 0.013,0.006 c 0.988,0.61 6.092,2.707 11.804,-2.649 2.295,-2.331 3.381,-5.88 3.381,-5.88 0,0 -2.44,1.099 -4.344,0.365 -1.291,-0.5 -2.574,-2.044 -2.816,-2.35 -0.594,-0.669 -1.333,-1.239 -2.196,-1.628 -3.36,-1.524 -7.324,-0.001 -8.852,3.39 -1.486,3.308 -0.133,7.118 3.01,8.746 z"
       inkscape:connector-curvature="0"
       style="fill:#0a425a;fill-opacity:1" /><path
       style="fill:#0a425a;fill-opacity:1"
       id="path4-5"
       d="m -143.25149,443.6377 -5.827,-18.042 c -0.587,-2.058 -3.241,-5.706 -7.744,-5.706 h -10.407 c -2.25,0 -3.936,0.911 -5.131,2.079 -0.146,0.125 -0.943,1.083 -1.165,1.419 l -5.785,7.559 -6.072,-3.88 v -3.941 l 1.6,0.849 c 1.932,1.001 3.744,0.712 5.437,-0.874 2.398,-2.159 2.438,-4.399 0.118,-6.718 l -10.366,-13.179 2.989,-7.007 c 0,0 -32.434,14.489 -35.003,15.649 l -8.917,-0.001 c -6.083,0 -11.476,5.476 -12.221,12.057 h -0.089 l -0.006,3.357 v 22.352 h 6.717 l 0.006,-24.158 c 0,-3.3 2.359,-6.43 5.007,-6.843 -0.825,1.484 -1.303,3.188 -1.303,5.007 l -0.005,52.494 c 0,3.465 1.736,6.387 5.201,6.387 3.465,0 4.724,-2.903 4.724,-6.333 v -29.687 h 8.083 v 29.687 c 0,3.43 1.499,6.333 4.964,6.333 3.464,0 5.202,-2.922 5.202,-6.387 v -47.606 l 9.414,-9.862 6.531,3.465 v 3.768 c -1.105,-0.338 -2.342,0.062 -3.005,1.078 -0.806,1.232 -0.457,2.883 0.775,3.687 l 4.465,2.914 v 16.347 h 1.918 v -15.095 l 2.993,1.953 c 0.449,0.294 0.953,0.433 1.455,0.433 0.803,0 1.595,-0.362 2.116,-1.044 l 5.643,-7.373 h 2.198 c 0,0 -3.272,8.695 -3.469,19.328 -0.128,6.758 3.851,31.782 3.851,31.782 0.271,3.477 4.906,3.485 5.015,0 l -0.004,-27.372 h 2.646 l -0.005,27.372 c 0.108,3.485 4.694,3.477 5.016,0 0,0 3.978,-25.024 3.853,-31.782 -0.197,-10.633 -3.888,-19.328 -3.888,-19.328 h 2.181 l 5.283,16.607 c 1.176,3.618 6.15,2.132 5.011,-1.745 z"
       inkscape:connector-curvature="0" /></g></svg>