<?xml version="1.0" encoding="UTF-8" standalone="no"?>
<svg
   xmlns:dc="http://purl.org/dc/elements/1.1/"
   xmlns:cc="http://creativecommons.org/ns#"
   xmlns:rdf="http://www.w3.org/1999/02/22-rdf-syntax-ns#"
   xmlns:svg="http://www.w3.org/2000/svg"
   xmlns="http://www.w3.org/2000/svg"
   xmlns:sodipodi="http://sodipodi.sourceforge.net/DTD/sodipodi-0.dtd"
   xmlns:inkscape="http://www.inkscape.org/namespaces/inkscape"
   height="100px"
   width="100px"
   fill="#000000"
   version="1.1"
   x="0px"
   y="0px"
   viewBox="0 0 69 69"
   style="enable-background:new 0 0 69 69;"
   xml:space="preserve"
   id="svg26"
   sodipodi:docname="date.svg"
   inkscape:version="0.92.4 (5da689c313, 2019-01-14)"><metadata
     id="metadata32"><rdf:RDF><cc:Work
         rdf:about=""><dc:format>image/svg+xml</dc:format><dc:type
           rdf:resource="http://purl.org/dc/dcmitype/StillImage" /><dc:title></dc:title></cc:Work></rdf:RDF></metadata><defs
     id="defs30" /><sodipodi:namedview
     pagecolor="#ffffff"
     bordercolor="#666666"
     borderopacity="1"
     objecttolerance="10"
     gridtolerance="10"
     guidetolerance="10"
     inkscape:pageopacity="0"
     inkscape:pageshadow="2"
     inkscape:window-width="1920"
     inkscape:window-height="1016"
     id="namedview28"
     showgrid="false"
     inkscape:zoom="2.36"
     inkscape:cx="50"
     inkscape:cy="50"
     inkscape:window-x="0"
     inkscape:window-y="27"
     inkscape:window-maximized="1"
     inkscape:current-layer="svg26" /><g
     id="g24"
     style="fill:#0a425a;fill-opacity:1"
     transform="matrix(0.80947511,0,0,0.80947511,6.5731088,6.5731097)"><path
       d="m 9.47998,66.89893 h 50.04053 c 2.28076,0 4.13623,-1.85547 4.13623,-4.13623 -9.8e-4,-14.05132 -0.0023,-33.09033 -0.0034,-49.06152 0,-2.28271 -1.85254,-4.14014 -4.12988,-4.14014 h -2 V 6.47119 c 0,-2.10107 -1.70898,-3.81006 -3.81006,-3.81006 h -0.6499 c -2.10107,0 -3.81006,1.70898 -3.81006,3.81006 V 9.56103 H 38.6333 V 6.47119 c 0,-2.10107 -1.70898,-3.81006 -3.81006,-3.81006 h -0.6499 c -2.10107,0 -3.81006,1.70898 -3.81006,3.81006 V 9.56103 H 20.44336 V 5.92139 c 0,-2.10645 -1.70898,-3.82031 -3.81006,-3.82031 h -0.6499 c -2.10107,0 -3.81006,1.71387 -3.81006,3.82031 V 9.56104 H 9.4834 c -2.28271,0 -4.14014,1.85742 -4.14014,4.14014 5e-5,5.18207 4.3e-4,43.42525 4.9e-4,49.06152 0,2.28076 1.85547,4.13623 4.13623,4.13623 z m 50.04053,-2 H 9.47998 c -1.17773,0 -2.13623,-0.9585 -2.13623,-2.13623 V 23.9712 h 54.31299 v 38.7915 c 0,1.17773 -0.9585,2.13623 -2.13623,2.13623 z M 51.25342,6.47119 c 0,-0.99805 0.81201,-1.81006 1.81006,-1.81006 h 0.6499 c 0.98096,0 1.81006,0.8291 1.81006,1.81006 0,0.29683 0,9.70667 0,9.29004 0,1.00342 -0.81201,1.81982 -1.81006,1.81982 h -0.6499 c -0.99805,0 -1.81006,-0.81641 -1.81006,-1.81982 0,-0.38824 0,-9.70667 0,-9.29004 z m -18.89014,0 c 0,-0.98096 0.8291,-1.81006 1.81006,-1.81006 h 0.6499 c 0.99805,0 1.81006,0.81201 1.81006,1.81006 0,0.29683 0,9.70667 0,9.29004 0,1.00342 -0.81201,1.81982 -1.81006,1.81982 h -0.6499 c -0.99805,0 -1.81006,-0.81641 -1.81006,-1.81982 0,-0.38824 0,-9.70667 0,-9.29004 z M 14.17334,5.92139 c 0,-1.00391 0.81201,-1.82031 1.81006,-1.82031 h 0.6499 c 0.99805,0 1.81006,0.81641 1.81006,1.82031 0,0.13602 0,9.64244 0,9.28955 0,0.99805 -0.81201,1.81006 -1.81006,1.81006 h -0.6499 c -0.98096,0 -1.81006,-0.8291 -1.81006,-1.81006 0,-0.13956 0,-9.65812 0,-9.28955 z M 9.4834,11.56104 h 2.68994 v 3.6499 c 0,2.10107 1.70898,3.81006 3.81006,3.81006 h 0.6499 c 2.10107,0 3.81006,-1.70898 3.81006,-3.81006 v -3.6499 h 9.91992 v 4.2002 c 0,2.10645 1.70898,3.81982 3.81006,3.81982 h 0.6499 c 2.10107,0 3.81006,-1.71338 3.81006,-3.81982 v -4.2002 h 10.62012 v 4.2002 c 0,2.10645 1.70898,3.81982 3.81006,3.81982 h 0.6499 c 2.10107,0 3.81006,-1.71338 3.81006,-3.81982 v -4.2002 c 0.48034,0.11165 4.12988,-0.6991 4.12988,2.14014 v 8.2666 H 7.34326 v -8.2666 c 0,-1.18018 0.95996,-2.14014 2.14014,-2.14014 z"
       id="path2"
       style="fill:#0a425a;fill-opacity:1"
       inkscape:connector-curvature="0" /><path
       d="m 31.99365,28.03564 h -7.95752 c -0.55225,0 -1,0.44775 -1,1 v 7.24805 c 0,0.55225 0.44775,1 1,1 h 7.95752 c 0.55225,0 1,-0.44775 1,-1 v -7.24805 c 0,-0.55224 -0.44775,-1 -1,-1 z m -1,7.24805 h -5.95752 v -5.24805 h 5.95752 z"
       id="path4"
       style="fill:#0a425a;fill-opacity:1"
       inkscape:connector-curvature="0" /><path
       d="m 44.96436,28.03564 h -7.95752 c -0.55225,0 -1,0.44775 -1,1 v 7.24805 c 0,0.55225 0.44775,1 1,1 h 7.95752 c 0.55225,0 1,-0.44775 1,-1 v -7.24805 c 0,-0.55224 -0.44776,-1 -1,-1 z m -1,7.24805 h -5.95752 v -5.24805 h 5.95752 z"
       id="path6"
       style="fill:#0a425a;fill-opacity:1"
       inkscape:connector-curvature="0" /><path
       d="m 57.93506,28.03564 h -7.95703 c -0.55225,0 -1,0.44775 -1,1 v 7.24805 c 0,0.55225 0.44775,1 1,1 h 7.95703 c 0.55225,0 1,-0.44775 1,-1 v -7.24805 c 0,-0.55224 -0.44776,-1 -1,-1 z m -1,7.24805 h -5.95703 v -5.24805 h 5.95703 v 5.24805 z"
       id="path8"
       style="fill:#0a425a;fill-opacity:1"
       inkscape:connector-curvature="0" /><path
       d="m 19.02246,39.80908 h -7.95703 c -0.55225,0 -1,0.44775 -1,1 v 7.24854 c 0,0.55225 0.44775,1 1,1 h 7.95703 c 0.55225,0 1,-0.44775 1,-1 v -7.24854 c 0,-0.55224 -0.44775,-1 -1,-1 z m -1,7.24854 h -5.95703 v -5.24854 h 5.95703 z"
       id="path10"
       style="fill:#0a425a;fill-opacity:1"
       inkscape:connector-curvature="0" /><path
       d="m 31.99365,39.80908 h -7.95752 c -0.55225,0 -1,0.44775 -1,1 v 7.24854 c 0,0.55225 0.44775,1 1,1 h 7.95752 c 0.55225,0 1,-0.44775 1,-1 v -7.24854 c 0,-0.55224 -0.44775,-1 -1,-1 z m -1,7.24854 h -5.95752 v -5.24854 h 5.95752 z"
       id="path12"
       style="fill:#0a425a;fill-opacity:1"
       inkscape:connector-curvature="0" /><path
       d="m 44.96436,39.80908 h -7.95752 c -0.55225,0 -1,0.44775 -1,1 v 7.24854 c 0,0.55225 0.44775,1 1,1 h 7.95752 c 0.55225,0 1,-0.44775 1,-1 v -7.24854 c 0,-0.55224 -0.44776,-1 -1,-1 z m -1,7.24854 h -5.95752 v -5.24854 h 5.95752 z"
       id="path14"
       style="fill:#0a425a;fill-opacity:1"
       inkscape:connector-curvature="0" /><path
       d="m 57.93506,39.80908 h -7.95703 c -0.55225,0 -1,0.44775 -1,1 v 7.24854 c 0,0.55225 0.44775,1 1,1 h 7.95703 c 0.55225,0 1,-0.44775 1,-1 v -7.24854 c 0,-0.55224 -0.44776,-1 -1,-1 z m -1,7.24854 h -5.95703 v -5.24854 h 5.95703 v 5.24854 z"
       id="path16"
       style="fill:#0a425a;fill-opacity:1"
       inkscape:connector-curvature="0" /><path
       d="m 19.02246,51.58301 h -7.95703 c -0.55225,0 -1,0.44775 -1,1 v 7.24805 c 0,0.55225 0.44775,1 1,1 h 7.95703 c 0.55225,0 1,-0.44775 1,-1 v -7.24805 c 0,-0.55225 -0.44775,-1 -1,-1 z m -1,7.24804 H 12.06543 V 53.583 h 5.95703 z"
       id="path18"
       style="fill:#0a425a;fill-opacity:1"
       inkscape:connector-curvature="0" /><path
       d="m 31.99365,51.58301 h -7.95752 c -0.55225,0 -1,0.44775 -1,1 v 7.24805 c 0,0.55225 0.44775,1 1,1 h 7.95752 c 0.55225,0 1,-0.44775 1,-1 v -7.24805 c 0,-0.55225 -0.44775,-1 -1,-1 z m -1,7.24804 H 25.03613 V 53.583 h 5.95752 z"
       id="path20"
       style="fill:#0a425a;fill-opacity:1"
       inkscape:connector-curvature="0" /><path
       d="m 44.96436,51.58301 h -7.95752 c -0.55225,0 -1,0.44775 -1,1 v 7.24805 c 0,0.55225 0.44775,1 1,1 h 7.95752 c 0.55225,0 1,-0.44775 1,-1 v -7.24805 c 0,-0.55225 -0.44776,-1 -1,-1 z m -1,7.24804 H 38.00684 V 53.583 h 5.95752 z"
       id="path22"
       style="fill:#0a425a;fill-opacity:1"
       inkscape:connector-curvature="0" /></g></svg>