<?xml version="1.0" encoding="UTF-8" standalone="no"?>
<svg
   xmlns:dc="http://purl.org/dc/elements/1.1/"
   xmlns:cc="http://creativecommons.org/ns#"
   xmlns:rdf="http://www.w3.org/1999/02/22-rdf-syntax-ns#"
   xmlns:svg="http://www.w3.org/2000/svg"
   xmlns="http://www.w3.org/2000/svg"
   xmlns:xlink="http://www.w3.org/1999/xlink"
   id="svg81"
   xml:space="preserve"
   enable-background="new 0 0 100 100"
   viewBox="0 0 100 100"
   y="0px"
   x="0px"
   version="1.1"
   fill="#1A1A1A"
   width="100px"
   height="100px"><metadata
     id="metadata87"><rdf:RDF><cc:Work
         rdf:about=""><dc:format>image/svg+xml</dc:format><dc:type
           rdf:resource="http://purl.org/dc/dcmitype/StillImage" /><dc:title></dc:title></cc:Work></rdf:RDF></metadata><defs
     id="defs85" /><symbol
     id="symbol6"
     viewBox="-27.299 -39.024 54.598 78.047"><path
       id="path2"
       d="M11.157,34.02c-1.275-1.85-3.408-3.026-5.733-3.026c-2.13,0-4.118,0.985-5.424,2.607   c-1.306-1.622-3.294-2.607-5.423-2.607c-2.325,0-4.457,1.176-5.734,3.026c-1.275-1.85-3.408-3.026-5.733-3.026   c-1.913,0-3.648,0.776-4.908,2.029v-66.474c1.26,1.253,2.995,2.029,4.908,2.029c2.325,0,4.458-1.176,5.733-3.026   c1.277,1.85,3.409,3.026,5.734,3.026c2.129,0,4.117-0.986,5.423-2.607c1.306,1.622,3.294,2.607,5.424,2.607   c2.325,0,4.458-1.176,5.733-3.026c1.277,1.85,3.409,3.026,5.734,3.026c1.913,0,3.647-0.776,4.907-2.028v66.473   c-1.26-1.253-2.994-2.028-4.907-2.028C14.567,30.995,12.435,32.17,11.157,34.02z"
       fill="none" /><path
       id="path4"
       d="M-20.463-37.524   c0.391,1.615,1.839,2.822,3.573,2.822c1.733,0,3.181-1.207,3.572-2.822h4.323c0.391,1.615,1.839,2.822,3.573,2.822   s3.182-1.207,3.573-2.822h3.701c0.391,1.615,1.839,2.822,3.573,2.822s3.182-1.207,3.573-2.822h4.322   c0.391,1.615,1.839,2.822,3.573,2.822s3.182-1.207,3.573-2.822h5.335v75.047h-5.266c-0.219-1.825-1.759-3.25-3.641-3.25   s-3.423,1.425-3.641,3.25H9.065c-0.219-1.825-1.759-3.25-3.641-3.25s-3.423,1.425-3.641,3.25h-3.564   c-0.219-1.825-1.759-3.25-3.641-3.25s-3.423,1.425-3.641,3.25h-4.186c-0.219-1.825-1.758-3.25-3.641-3.25   c-1.883,0-3.423,1.425-3.641,3.25h-5.267v-75.047H-20.463z"
       stroke-miterlimit="10"
       stroke-width="3"
       stroke="#1A1A1A"
       fill="#1A1A1A" /></symbol><symbol
     id="symbol12"
     viewBox="-30.282 -48.056 60.563 94.113"><path
       id="path8"
       d="M16.006,43.056   c-3.233-4.883-8.77-8.108-15.065-8.108s-11.832,3.225-15.065,8.108h-10.584v-88.113h10.584c3.233,4.883,8.77,8.108,15.065,8.108   s11.832-3.224,15.065-8.108H26.59v88.113H16.006z"
       stroke-miterlimit="10"
       stroke-width="6"
       stroke="#1A1A1A"
       fill="#1A1A1A" /><line
       id="line10"
       y2="-20.755"
       x2="-27.782"
       y1="-20.755"
       x1="27.781"
       stroke-dasharray="7,8"
       stroke-miterlimit="10"
       stroke-linejoin="round"
       stroke-linecap="round"
       stroke-width="5"
       stroke="#1A1A1A"
       fill="none" /></symbol><symbol
     id="symbol18"
     viewBox="-24.712 -42.834 54.356 85.667"><path
       id="path14"
       d="M17.181,40.333h-4.475   c-0.466-2.355-2.539-4.131-5.031-4.131c-2.491,0-4.565,1.776-5.03,4.131h-4.883c-0.466-2.355-2.539-4.131-5.031-4.131   c-2.491,0-4.565,1.776-5.03,4.131h-4.883c-0.466-2.355-2.539-4.131-5.03-4.131v-72.023c2.622,0,4.76-1.974,5.069-4.512h4.806   c0.309,2.539,2.447,4.512,5.069,4.512c2.622,0,4.76-1.974,5.069-4.512h4.806c0.309,2.539,2.447,4.512,5.069,4.512   c2.622,0,4.76-1.974,5.069-4.512h4.398c0.309,2.539,2.447,4.512,5.069,4.512v72.023C19.72,36.202,17.647,37.978,17.181,40.333z"
       stroke-miterlimit="10"
       stroke-width="5"
       stroke="#1A1A1A"
       fill="#1A1A1A" /><line
       id="line16"
       y2="-17.395"
       x2="27.644"
       y1="-17.395"
       x1="-22.644"
       stroke-dasharray="7,6"
       stroke-miterlimit="10"
       stroke-linejoin="round"
       stroke-linecap="round"
       stroke-width="4"
       stroke="#1A1A1A"
       fill="none" /></symbol><symbol
     id="symbol26"
     viewBox="-23.971 -42.094 47.944 84.188"><g
       id="g22"><path
         id="path20"
         d="M17.182,40.333h-4.475    c-0.466-2.355-2.539-4.131-5.031-4.131c-2.491,0-4.565,1.776-5.03,4.131h-4.883c-0.466-2.355-2.539-4.131-5.031-4.131    c-2.491,0-4.565,1.776-5.03,4.131h-4.883c-0.466-2.355-2.539-4.131-5.03-4.131v-72.023c2.622,0,4.76-1.974,5.069-4.512h4.806    c0.309,2.539,2.447,4.512,5.069,4.512c2.622,0,4.76-1.974,5.069-4.512h4.806c0.309,2.539,2.447,4.512,5.069,4.512    c2.622,0,4.76-1.974,5.069-4.512h4.398c0.309,2.539,2.447,4.512,5.069,4.512v72.023C19.721,36.202,17.648,37.978,17.182,40.333z"
         stroke-miterlimit="10"
         stroke-width="3.521"
         stroke="#1A1A1A"
         fill="#1A1A1A" /></g><polygon
       id="polygon24"
       points="5.14,17.02 11.952,13.853    8.431,7.217 7.524,-0.241 0.124,1.057 -7.248,-0.385 -8.301,7.053 -11.951,13.62 -5.201,16.919 -0.084,22.42  "
       stroke-miterlimit="10"
       stroke-width="3.8113"
       stroke="#1A1A1A"
       fill="#1A1A1A" /></symbol><symbol
     viewBox="-21.087 -31.266 42.17 72.87"
     id="a"><path
       id="path28"
       d="M6.373,39.104h5.21c0-3.87,3.13-7,7-7v-53.87   c-3.87,0-7-3.14-7-7h-5.21"
       stroke-miterlimit="10"
       stroke-width="5"
       stroke="#1A1A1A"
       fill="#1A1A1A" /><path
       id="path30"
       d="M-6.377-28.766h-5.21c0,3.86-3.13,7-7,7v53.87   c3.87,0,7,3.13,7,7h5.21"
       stroke-miterlimit="10"
       stroke-width="5"
       stroke="#1A1A1A"
       fill="#1A1A1A" /><line
       id="line32"
       y2="39.104"
       x2="-2.377"
       y1="39.104"
       x1="2.373"
       stroke-miterlimit="10"
       stroke-width="5"
       stroke="#1A1A1A"
       fill="none" /><line
       id="line34"
       y2="-28.766"
       x2="-2.377"
       y1="-28.766"
       x1="2.373"
       stroke-miterlimit="10"
       stroke-width="5"
       stroke="#1A1A1A"
       fill="none" /><g
       id="g44"><path
         id="path36"
         d="M-9.901-10.118c0-0.994-0.806-1.8-1.8-1.8    s-1.8,0.806-1.8,1.8s0.806,1.8,1.8,1.8S-9.901-9.124-9.901-10.118z"
         stroke-miterlimit="10"
         stroke-width="0.9"
         stroke="#1A1A1A" /><path
         id="path38"
         d="M-2.101-10.118c0-0.994-0.806-1.8-1.8-1.8    s-1.8,0.806-1.8,1.8s0.806,1.8,1.8,1.8S-2.101-9.124-2.101-10.118z"
         stroke-miterlimit="10"
         stroke-width="0.9"
         stroke="#1A1A1A" /><path
         id="path40"
         d="M5.699-10.118c0-0.994-0.806-1.8-1.8-1.8s-1.8,0.806-1.8,1.8    s0.806,1.8,1.8,1.8S5.699-9.124,5.699-10.118z"
         stroke-miterlimit="10"
         stroke-width="0.9"
         stroke="#1A1A1A" /><path
         id="path42"
         d="M13.499-10.118c0-0.994-0.806-1.8-1.8-1.8    s-1.8,0.806-1.8,1.8s0.806,1.8,1.8,1.8S13.499-9.124,13.499-10.118z"
         stroke-miterlimit="10"
         stroke-width="0.9"
         stroke="#1A1A1A" /></g></symbol><symbol
     id="symbol51"
     viewBox="-21.086 -31.266 42.17 72.87"><use
       id="use47"
       overflow="visible"
       transform="matrix(1 0 0 1 6.996482e-004 -2.671033e-004)"
       y="-31.266"
       x="-21.087"
       height="72.87"
       width="42.17"
       xlink:href="#a" /><line
       id="line49"
       y2="13.75"
       x2="-9.223"
       y1="13.75"
       x1="9.224"
       stroke-miterlimit="10"
       stroke-width="4"
       stroke="#1A1A1A"
       fill="none" /></symbol><g
     id="g55"
     display="none"><path
       id="path53"
       d="M468.792,1074.743H-769.006c-2.084,0-3.789-1.705-3.789-3.789V-116.211   c0-2.084,1.705-3.789,3.789-3.789H468.792c2.084,0,3.789,1.705,3.789,3.789v1187.164   C472.582,1073.038,470.877,1074.743,468.792,1074.743z"
       fill="#1A1A1A"
       display="inline" /></g><g
     style="fill:#0a425a;fill-opacity:1"
     id="g79"><g
       style="fill:#0a425a;fill-opacity:1"
       id="g77"><g
         style="fill:#0a425a;fill-opacity:1"
         id="g75"><path
           style="fill:#0a425a;fill-opacity:1"
           id="path57"
           d="M85.422,13.772h-2.094V9.376C83.329,6.969,81.359,5,78.952,5h-0.442c-2.407,0-4.376,1.969-4.376,4.376v4.396h-9.96V9.376     C64.174,6.969,62.205,5,59.798,5h-0.442c-2.407,0-4.376,1.969-4.376,4.376v4.396h-9.96V9.376C45.02,6.969,43.05,5,40.643,5     h-0.442c-2.407,0-4.376,1.969-4.376,4.376v4.396h-9.96V9.376C25.865,6.969,23.896,5,21.489,5h-0.442     c-2.407,0-4.376,1.969-4.376,4.376v4.396h-2.094c-4.872,0-8.837,3.964-8.837,8.837v63.554C5.74,91.036,9.705,95,14.577,95h70.845     c4.873,0,8.838-3.964,8.838-8.837V22.609C94.26,17.736,90.295,13.772,85.422,13.772z M88.021,86.163     c0,1.433-1.166,2.599-2.599,2.599H14.577c-1.433,0-2.598-1.166-2.598-2.599V32.43h76.042V86.163z" /><rect
           style="fill:#0a425a;fill-opacity:1"
           id="rect59"
           height="10.994"
           width="17.011"
           y="39.197"
           x="19.275" /><rect
           style="fill:#0a425a;fill-opacity:1"
           id="rect61"
           height="10.994"
           width="17.011"
           y="39.197"
           x="41.494" /><rect
           style="fill:#0a425a;fill-opacity:1"
           id="rect63"
           height="10.994"
           width="17.012"
           y="39.197"
           x="63.713" /><rect
           style="fill:#0a425a;fill-opacity:1"
           id="rect65"
           height="10.994"
           width="17.011"
           y="55.398"
           x="19.275" /><rect
           style="fill:#0a425a;fill-opacity:1"
           id="rect67"
           height="10.994"
           width="17.011"
           y="55.398"
           x="41.494" /><rect
           style="fill:#0a425a;fill-opacity:1"
           id="rect69"
           height="10.994"
           width="17.012"
           y="55.398"
           x="63.713" /><rect
           style="fill:#0a425a;fill-opacity:1"
           id="rect71"
           height="10.994"
           width="17.011"
           y="71.6"
           x="19.275" /><rect
           style="fill:#0a425a;fill-opacity:1"
           id="rect73"
           height="10.994"
           width="17.011"
           y="71.6"
           x="41.494" /></g></g></g></svg>