<?xml version="1.0" encoding="UTF-8" standalone="no"?>
<svg
   xmlns:dc="http://purl.org/dc/elements/1.1/"
   xmlns:cc="http://creativecommons.org/ns#"
   xmlns:rdf="http://www.w3.org/1999/02/22-rdf-syntax-ns#"
   xmlns:svg="http://www.w3.org/2000/svg"
   xmlns="http://www.w3.org/2000/svg"
   xmlns:sodipodi="http://sodipodi.sourceforge.net/DTD/sodipodi-0.dtd"
   xmlns:inkscape="http://www.inkscape.org/namespaces/inkscape"
   inkscape:version="1.0 (4035a4fb49, 2020-05-01)"
   sodipodi:docname="default.svg"
   id="svg4"
   xml:space="preserve"
   enable-background="new 0 0 100 100"
   viewBox="0 0 100 100"
   y="0px"
   x="0px"
   version="1.1"
   fill="#000000"
   width="100px"
   height="100px"><metadata
     id="metadata10"><rdf:RDF><cc:Work
         rdf:about=""><dc:format>image/svg+xml</dc:format><dc:type
           rdf:resource="http://purl.org/dc/dcmitype/StillImage" /><dc:title></dc:title></cc:Work></rdf:RDF></metadata><defs
     id="defs8" /><sodipodi:namedview
     inkscape:current-layer="svg4"
     inkscape:window-maximized="1"
     inkscape:window-y="-8"
     inkscape:window-x="-8"
     inkscape:cy="78.948205"
     inkscape:cx="-32.743264"
     inkscape:zoom="3.0052038"
     showgrid="false"
     id="namedview6"
     inkscape:window-height="1017"
     inkscape:window-width="1920"
     inkscape:pageshadow="2"
     inkscape:pageopacity="0"
     guidetolerance="10"
     gridtolerance="10"
     objecttolerance="10"
     borderopacity="1"
     bordercolor="#666666"
     pagecolor="#ffffff" /><path
     style="fill:#0a425a;fill-opacity:1;stroke-width:1.31129"
     id="path2"
     d="M 84.093488,9.3500722 H 60.490304 c -3.615221,0 -6.55644,2.9412188 -6.55644,6.5564398 v 23.603184 c 0,3.615221 2.941219,6.55644 6.55644,6.55644 h 23.603184 c 3.615221,0 6.55644,-2.941219 6.55644,-6.55644 V 15.906512 c 0,-3.615221 -2.941219,-6.5564398 -6.55644,-6.5564398 z m 3.933864,30.1596238 c 0,2.16887 -1.764994,3.933864 -3.933864,3.933864 H 60.490304 c -2.16887,0 -3.933864,-1.764994 -3.933864,-3.933864 V 15.906512 c 0,-2.16887 1.764994,-3.933864 3.933864,-3.933864 h 23.603184 c 2.16887,0 3.933864,1.764994 3.933864,3.933864 z M 84.093488,53.933864 H 60.490304 c -3.615221,0 -6.55644,2.941219 -6.55644,6.55644 v 23.603184 c 0,3.615221 2.941219,6.55644 6.55644,6.55644 h 23.603184 c 3.615221,0 6.55644,-2.941219 6.55644,-6.55644 V 60.490304 c 0,-3.615221 -2.941219,-6.55644 -6.55644,-6.55644 z m 3.933864,30.159624 c 0,2.16887 -1.764994,3.933864 -3.933864,3.933864 H 60.490304 c -2.16887,0 -3.933864,-1.764994 -3.933864,-3.933864 V 60.490304 c 0,-2.16887 1.764994,-3.933864 3.933864,-3.933864 h 23.603184 c 2.16887,0 3.933864,1.764994 3.933864,3.933864 z M 39.509696,53.933864 H 15.906512 c -3.615221,0 -6.5564398,2.941219 -6.5564398,6.55644 v 23.603184 c 0,3.615221 2.9412188,6.55644 6.5564398,6.55644 h 23.603184 c 3.615221,0 6.55644,-2.941219 6.55644,-6.55644 V 60.490304 c 0,-3.615221 -2.941219,-6.55644 -6.55644,-6.55644 z m 3.933864,30.159624 c 0,2.16887 -1.764994,3.933864 -3.933864,3.933864 H 15.906512 c -2.16887,0 -3.933864,-1.764994 -3.933864,-3.933864 V 60.490304 c 0,-2.16887 1.764994,-3.933864 3.933864,-3.933864 h 23.603184 c 2.16887,0 3.933864,1.764994 3.933864,3.933864 z M 39.509696,9.3500722 H 15.906512 c -3.615221,0 -6.5564398,2.9412188 -6.5564398,6.5564398 v 23.603184 c 0,3.615221 2.9412188,6.55644 6.5564398,6.55644 h 23.603184 c 3.615221,0 6.55644,-2.941219 6.55644,-6.55644 V 15.906512 c 0,-3.615221 -2.941219,-6.5564398 -6.55644,-6.5564398 z M 43.44356,39.509696 c 0,2.16887 -1.764994,3.933864 -3.933864,3.933864 H 15.906512 c -2.16887,0 -3.933864,-1.764994 -3.933864,-3.933864 V 15.906512 c 0,-2.16887 1.764994,-3.933864 3.933864,-3.933864 h 23.603184 c 2.16887,0 3.933864,1.764994 3.933864,3.933864 z M 27.708104,18.529088 c -5.784091,0 -10.490304,4.117444 -10.490304,9.179016 0,1.825313 0.605815,3.568015 1.758437,5.078618 l -0.428791,2.574059 c -0.0695,0.418301 0.06688,0.844469 0.36585,1.143443 0.31602,0.314709 0.757924,0.435348 1.143443,0.364538 l 3.785688,-0.63073 c 1.236545,0.430103 2.536031,0.649088 3.865677,0.649088 5.784091,0 10.490304,-4.117444 10.490304,-9.179016 0,-5.061572 -4.706213,-9.179016 -10.490304,-9.179016 z m 0,15.735456 c -1.131641,0 -2.231812,-0.201938 -3.271663,-0.60057 -0.150799,-0.0577 -0.309464,-0.08655 -0.469442,-0.08655 -0.07212,0 -0.144241,0.0052 -0.216362,0.01836 l -2.315735,0.385519 0.224231,-1.348004 c 0.06425,-0.38683 -0.04852,-0.782839 -0.305531,-1.07919 -0.990022,-1.132953 -1.513226,-2.462599 -1.513226,-3.846008 0,-3.615221 3.528676,-6.55644 7.867728,-6.55644 4.339052,0 7.867728,2.941219 7.867728,6.55644 0,3.615221 -3.528676,6.55644 -7.867728,6.55644 z M 81.470912,19.840376 H 63.11288 c -0.725142,0 -1.311288,0.587457 -1.311288,1.311288 v 13.11288 c 0,0.723831 0.586146,1.311288 1.311288,1.311288 h 18.358032 c 0.725142,0 1.311288,-0.587457 1.311288,-1.311288 v -13.11288 c 0,-0.723831 -0.586146,-1.311288 -1.311288,-1.311288 z m -1.311288,2.622576 v 1.233922 l -7.867728,3.933864 -7.867728,-3.933864 V 22.462952 Z M 64.424168,32.953256 v -7.790362 l 7.867728,3.933864 7.867728,-3.933864 v 7.790362 z M 32.953256,63.11288 H 22.462952 c -2.16887,0 -3.933864,1.764994 -3.933864,3.933864 v 10.490304 c 0,2.16887 1.764994,3.933864 3.933864,3.933864 h 10.490304 c 2.16887,0 3.933864,-1.764994 3.933864,-3.933864 V 67.046744 c 0,-2.16887 -1.764994,-3.933864 -3.933864,-3.933864 z m -10.490304,2.622576 h 10.490304 c 0.72252,0 1.311288,0.588768 1.311288,1.311288 v 1.311288 h -13.11288 v -1.311288 c 0,-0.72252 0.588768,-1.311288 1.311288,-1.311288 z m 10.490304,13.11288 H 22.462952 c -0.72252,0 -1.311288,-0.588768 -1.311288,-1.311288 V 69.66932 h 13.11288 v 7.867728 c 0,0.72252 -0.588768,1.311288 -1.311288,1.311288 z M 80.887389,71.200904 69.085797,63.333176 c -0.402566,-0.268814 -0.919213,-0.295039 -1.34407,-0.06556 -0.428792,0.228164 -0.694983,0.672691 -0.694983,1.156556 v 15.735456 c 0,0.483865 0.266191,0.928392 0.691049,1.156556 0.434036,0.230787 0.953306,0.199316 1.346692,-0.06557 l 11.801592,-7.867727 c 0.36585,-0.2439 0.584835,-0.653022 0.584835,-1.090992 0,-0.43797 -0.218985,-0.847092 -0.583523,-1.090991 z M 69.66932,77.708827 V 66.873654 l 8.126052,5.418242 z" /></svg>
