<?xml version="1.0" encoding="UTF-8" standalone="no"?>
<svg
   xmlns:dc="http://purl.org/dc/elements/1.1/"
   xmlns:cc="http://creativecommons.org/ns#"
   xmlns:rdf="http://www.w3.org/1999/02/22-rdf-syntax-ns#"
   xmlns:svg="http://www.w3.org/2000/svg"
   xmlns="http://www.w3.org/2000/svg"
   xmlns:sodipodi="http://sodipodi.sourceforge.net/DTD/sodipodi-0.dtd"
   xmlns:inkscape="http://www.inkscape.org/namespaces/inkscape"
   height="100px"
   width="100px"
   fill="#000000"
   version="1.1"
   x="0px"
   y="0px"
   viewBox="0 0 32 32"
   enable-background="new 0 0 32 32"
   xml:space="preserve"
   id="svg20"
   sodipodi:docname="demandes.svg"
   inkscape:version="0.92.4 (5da689c313, 2019-01-14)"><metadata
     id="metadata26"><rdf:RDF><cc:Work
         rdf:about=""><dc:format>image/svg+xml</dc:format><dc:type
           rdf:resource="http://purl.org/dc/dcmitype/StillImage" /><dc:title></dc:title></cc:Work></rdf:RDF></metadata><defs
     id="defs24" /><sodipodi:namedview
     pagecolor="#ffffff"
     bordercolor="#666666"
     borderopacity="1"
     objecttolerance="10"
     gridtolerance="10"
     guidetolerance="10"
     inkscape:pageopacity="0"
     inkscape:pageshadow="2"
     inkscape:window-width="1600"
     inkscape:window-height="836"
     id="namedview22"
     showgrid="false"
     inkscape:zoom="2.36"
     inkscape:cx="50"
     inkscape:cy="50"
     inkscape:window-x="0"
     inkscape:window-y="27"
     inkscape:window-maximized="1"
     inkscape:current-layer="svg20" /><path
     d="M27.078,6.83L22.09,2.008c-0.18-0.174-0.418-0.271-0.668-0.271H7.902c-1.805,0-3.273,1.469-3.273,3.273v21.98  c0,1.803,1.469,3.273,3.273,3.273h16.194c1.805,0,3.274-1.471,3.274-3.273V7.52C27.371,7.258,27.265,7.01,27.078,6.83z   M22.383,4.961l1.653,1.598h-0.3c-0.746,0-1.354-0.607-1.354-1.352V4.961z M25.451,26.99c0,0.746-0.607,1.354-1.354,1.354H7.902  c-0.746,0-1.354-0.607-1.354-1.354V5.01c0-0.746,0.607-1.354,1.354-1.354h12.561v1.551c0,1.805,1.469,3.271,3.273,3.271h1.715V26.99  z"
     id="path2"
     style="fill:#0a425a;fill-opacity:1" /><path
     d="m 22.736891,10.359 h -6.071809 c -0.169636,0 -0.305472,0.215 -0.305472,0.48 0,0.265 0.136474,0.48 0.305472,0.48 h 6.071809 c 0.169635,0 0.306109,-0.215 0.306109,-0.48 0,-0.265 -0.137111,-0.48 -0.306109,-0.48 z"
     id="path4"
     inkscape:connector-curvature="0"
     style="stroke-width:0.79857874;fill:#0a425a;fill-opacity:1" /><path
     d="m 22.73068,14.68 h -6.194994 c -0.173077,0 -0.311669,0.215 -0.311669,0.48 0,0.265 0.139242,0.48 0.311669,0.48 h 6.194994 c 0.173077,0 0.31232,-0.215 0.31232,-0.48 0,-0.265 -0.139893,-0.48 -0.31232,-0.48 z"
     id="path6"
     inkscape:connector-curvature="0"
     style="stroke-width:0.8066389;fill:#0a425a;fill-opacity:1" /><path
     d="M22.563,19h-9.521c-0.266,0-0.479,0.215-0.479,0.48s0.214,0.48,0.479,0.48h9.521c0.266,0,0.48-0.215,0.48-0.48  S22.828,19,22.563,19z"
     id="path8"
     style="fill:#0a425a;fill-opacity:1" /><path
     d="M22.563,23.32h-9.521c-0.266,0-0.479,0.215-0.479,0.48c0,0.264,0.214,0.479,0.479,0.479h9.521  c0.266,0,0.48-0.215,0.48-0.479C23.043,23.535,22.828,23.32,22.563,23.32z"
     id="path10"
     style="fill:#0a425a;fill-opacity:1" /><circle
     cx="10.422"
     cy="19.479"
     r="0.864"
     id="circle16"
     style="fill:#0a425a;fill-opacity:1" /><circle
     cx="10.422"
     cy="23.8"
     r="0.864"
     id="circle18"
     style="fill:#0a425a;fill-opacity:1" /><g
     transform="matrix(0.11849924,0,0,0.11849924,5.7252069,5.1764751)"
     id="g8"
     style="fill:#0a425a;fill-opacity:1"><g
       id="g6"
       style="fill:#0a425a;fill-opacity:1"><circle
         cx="59.678001"
         cy="72.68"
         r="2.45"
         id="circle2"
         style="fill:#0a425a;fill-opacity:1" /><path
         inkscape:connector-curvature="0"
         d="M 21.438,73.647 H 50.899 L 42.878,84.315 H 26.486 c -2.199,0 -3.988,1.789 -3.988,3.988 v 2.709 c 0,2.199 1.789,3.988 3.988,3.988 h 51.017 c 2.199,0 3.988,-1.789 3.988,-3.988 v -2.709 c 0,-2.199 -1.789,-3.988 -3.988,-3.988 H 76.478 L 69.879,75.538 C 77.563,70.878 82.3,62.552 82.3,53.528 82.3,39.338 70.751,27.794 56.556,27.794 c -0.969,0 -2.128,0.072 -3.055,0.144 -0.312,-0.261 -0.651,-0.491 -1.011,-0.691 0.015,-1.383 -0.791,-2.672 -2.124,-3.238 l -1.147,-0.487 3.949,-9.302 0.942,0.4 c 0.123,0.052 0.251,0.077 0.378,0.077 0.376,0 0.734,-0.221 0.89,-0.59 l 1.805,-4.252 c 0.1,-0.236 0.102,-0.502 0.006,-0.74 C 57.094,8.877 56.907,8.687 56.671,8.587 L 48.4,5.077 C 48.163,4.976 47.897,4.975 47.66,5.07 47.423,5.166 47.232,5.353 47.132,5.589 l -1.804,4.252 c -0.209,0.491 0.021,1.059 0.513,1.267 l 0.941,0.4 -3.948,9.303 -1.153,-0.489 c -0.853,-0.362 -1.798,-0.37 -2.659,-0.025 -0.864,0.348 -1.54,1.011 -1.904,1.868 L 29.635,39.793 C 28.983,41.33 29.521,43.074 30.828,44 l -1.659,3.909 c -0.209,0.491 0.021,1.059 0.513,1.267 l 8.27,3.511 c 0.121,0.051 0.249,0.077 0.378,0.077 0.123,0 0.245,-0.024 0.363,-0.07 0.237,-0.096 0.427,-0.283 0.528,-0.519 l 1.66,-3.91 c 0.213,0.04 0.427,0.064 0.64,0.064 1.359,0 2.655,-0.799 3.218,-2.127 l 2.965,-6.985 c 0.527,0.136 1.066,0.213 1.615,0.213 2.053,0 3.933,-0.968 5.146,-2.544 0.841,-0.106 1.548,-0.161 2.094,-0.161 9.264,0 16.801,7.537 16.801,16.801 0,6.183 -3.479,11.914 -8.915,14.822 -1.202,-1.384 -2.91,-2.176 -4.764,-2.176 -0.235,0 -0.468,0.015 -0.698,0.04 -0.14,-0.017 -0.279,-0.039 -0.418,-0.039 H 21.438 c -0.988,0 -1.926,0.387 -2.648,1.099 -0.703,0.713 -1.09,1.648 -1.09,2.633 0,2.064 1.677,3.742 3.738,3.742 z M 48.535,7.235 55.025,9.99 53.976,12.462 53.924,12.44 v -10e-4 l -3.39,-1.438 -3.048,-1.294 z m 0.027,5.029 2.827,1.2 -3.947,9.3 -2.827,-1.2 z m 30.996,76.039 v 2.709 c 0,1.133 -0.921,2.054 -2.054,2.054 H 26.486 c -1.133,0 -2.054,-0.921 -2.054,-2.054 v -2.709 c 0,-1.133 0.921,-2.054 2.054,-2.054 h 16.874 32.635 0.019 1.489 c 1.133,0 2.055,0.921 2.055,2.054 z m -41.741,-37.772 -6.49,-2.755 1.249,-2.943 6.49,2.755 z m 5.139,-5.082 c -0.335,0.789 -1.248,1.161 -2.041,0.825 l -0.188,-0.08 c -0.006,-0.003 -0.009,-0.008 -0.015,-0.011 l -8.27,-3.511 C 32.436,42.669 32.428,42.67 32.422,42.668 L 32.231,42.587 C 31.446,42.253 31.08,41.339 31.415,40.55 l 7.483,-17.628 c 0.161,-0.38 0.462,-0.675 0.845,-0.83 0.385,-0.153 0.805,-0.15 1.183,0.01 l 8.685,3.687 c 0.352,0.15 0.622,0.411 0.785,0.727 -0.354,-0.06 -0.711,-0.097 -1.073,-0.097 -2.617,0 -4.969,1.556 -5.991,3.965 -0.679,1.599 -0.694,3.367 -0.043,4.979 0.529,1.309 1.45,2.381 2.633,3.103 z m 6.36,-7.951 c -0.609,0 -1.206,-0.122 -1.774,-0.362 -0.002,-0.001 -0.004,-0.003 -0.006,-0.004 -0.003,-10e-4 -0.006,-10e-4 -0.009,-0.002 -1.122,-0.478 -1.99,-1.363 -2.448,-2.493 -0.457,-1.132 -0.447,-2.375 0.031,-3.499 0.718,-1.693 2.371,-2.787 4.211,-2.787 0.613,0 1.213,0.123 1.783,0.365 0.537,0.228 1.011,0.554 1.415,0.951 0.004,0.003 0.008,0.007 0.012,0.01 0.437,0.432 0.789,0.948 1.026,1.535 0.457,1.132 0.447,2.375 -0.031,3.499 -0.717,1.693 -2.37,2.787 -4.21,2.787 z m 25.975,16.03 c 0,-10.33 -8.404,-18.735 -18.735,-18.735 -0.307,0 -0.648,0.015 -1.019,0.042 0.44,-1.425 0.379,-2.945 -0.186,-4.347 -0.1,-0.247 -0.218,-0.482 -0.344,-0.712 0.532,-0.028 1.07,-0.049 1.55,-0.049 13.129,0 23.81,10.677 23.81,23.801 0,8.41 -4.45,16.166 -11.655,20.457 l -3.069,-4.082 c 5.896,-3.289 9.648,-9.59 9.648,-16.375 z M 63.193,69.862 74.059,84.315 H 45.297 L 56.164,69.862 c 0.838,-1.115 2.119,-1.755 3.515,-1.755 1.394,0 2.675,0.64 3.514,1.755 z m -43.036,-1.22 c 0.349,-0.344 0.804,-0.533 1.281,-0.533 h 33.685 c -0.178,0.186 -0.347,0.382 -0.505,0.591 l -2.265,3.013 H 21.438 c -0.995,0 -1.805,-0.81 -1.805,-1.806 0,-0.473 0.19,-0.925 0.524,-1.265 z"
         id="path4-3"
         style="fill:#0a425a;fill-opacity:1" /></g></g></svg>