<?xml version="1.0" encoding="UTF-8" standalone="no"?>
<svg
   xmlns:dc="http://purl.org/dc/elements/1.1/"
   xmlns:cc="http://creativecommons.org/ns#"
   xmlns:rdf="http://www.w3.org/1999/02/22-rdf-syntax-ns#"
   xmlns:svg="http://www.w3.org/2000/svg"
   xmlns="http://www.w3.org/2000/svg"
   xmlns:sodipodi="http://sodipodi.sourceforge.net/DTD/sodipodi-0.dtd"
   xmlns:inkscape="http://www.inkscape.org/namespaces/inkscape"
   height="100px"
   width="100px"
   fill="#000000"
   version="1.1"
   x="0px"
   y="0px"
   viewBox="0 0 100 100"
   style="enable-background:new 0 0 100 100;"
   xml:space="preserve"
   id="svg8"
   sodipodi:docname="depl.svg"
   inkscape:version="0.92.4 (5da689c313, 2019-01-14)"><metadata
     id="metadata14"><rdf:RDF><cc:Work
         rdf:about=""><dc:format>image/svg+xml</dc:format><dc:type
           rdf:resource="http://purl.org/dc/dcmitype/StillImage" /><dc:title></dc:title></cc:Work></rdf:RDF></metadata><defs
     id="defs12" /><sodipodi:namedview
     pagecolor="#ffffff"
     bordercolor="#666666"
     borderopacity="1"
     objecttolerance="10"
     gridtolerance="10"
     guidetolerance="10"
     inkscape:pageopacity="0"
     inkscape:pageshadow="2"
     inkscape:window-width="1600"
     inkscape:window-height="836"
     id="namedview10"
     showgrid="false"
     inkscape:zoom="2.36"
     inkscape:cx="50"
     inkscape:cy="50"
     inkscape:window-x="0"
     inkscape:window-y="27"
     inkscape:window-maximized="1"
     inkscape:current-layer="svg8" /><style
     type="text/css"
     id="style2">
	.st0{fill:none;}
</style><circle
     style="fill:#b3b3b3;fill-opacity:0.94117647;stroke-width:0.99999994"
     id="path815"
     cx="49.999996"
     cy="49.576271"
     r="50.002552" /><rect
     class="st0"
     width="100"
     height="100"
     id="rect4" /><path
     d="M86.7,29.5v-1.1c0,0-24.3-0.2-34.7-1.6V26c0-1.2-0.9-2.1-2.1-2.1s-2.1,0.9-2.1,2.1v0.8c-10.4,1.4-34.7,1.6-34.7,1.6v1.1  h34.7v2.6h-4.4c-4.3,0-7.8,3.5-7.8,7.8v20.9c0,0.5,0.1,1,0.1,1.4l-4.7,4.5v6.6h-4v2.8h9.4v-2.8h-3.2v-5.7l3.3-3.2  c1.3,2.4,3.9,4.1,6.9,4.1h13c3,0,5.5-1.7,6.9-4.1l3.3,3.2v5.7h-3.2v2.8h9.4v-2.8h-4v-6.6l-4.7-4.5c0.1-0.5,0.1-0.9,0.1-1.4V39.9  c0-4.3-3.5-7.8-7.8-7.8h-4.4v-2.6H86.7z M60.4,41.8v7.7H39.6v-7.7H60.4z"
     id="path6"
     style="fill:#800000" /></svg>