<?xml version="1.0" encoding="UTF-8" standalone="no"?>
<svg
   xmlns:dc="http://purl.org/dc/elements/1.1/"
   xmlns:cc="http://creativecommons.org/ns#"
   xmlns:rdf="http://www.w3.org/1999/02/22-rdf-syntax-ns#"
   xmlns:svg="http://www.w3.org/2000/svg"
   xmlns="http://www.w3.org/2000/svg"
   xmlns:sodipodi="http://sodipodi.sourceforge.net/DTD/sodipodi-0.dtd"
   xmlns:inkscape="http://www.inkscape.org/namespaces/inkscape"
   height="100px"
   width="100px"
   fill="#000000"
   viewBox="0 0 100 100"
   version="1.1"
   x="0px"
   y="0px"
   id="svg6"
   sodipodi:docname="douveparam.svg"
   inkscape:version="0.92.4 (5da689c313, 2019-01-14)">
  <metadata
     id="metadata12">
    <rdf:RDF>
      <cc:Work
         rdf:about="">
        <dc:format>image/svg+xml</dc:format>
        <dc:type
           rdf:resource="http://purl.org/dc/dcmitype/StillImage" />
        <dc:title></dc:title>
      </cc:Work>
    </rdf:RDF>
  </metadata>
  <defs
     id="defs10" />
  <sodipodi:namedview
     pagecolor="#ffffff"
     bordercolor="#666666"
     borderopacity="1"
     objecttolerance="10"
     gridtolerance="10"
     guidetolerance="10"
     inkscape:pageopacity="0"
     inkscape:pageshadow="2"
     inkscape:window-width="1920"
     inkscape:window-height="1043"
     id="namedview8"
     showgrid="false"
     inkscape:zoom="2.36"
     inkscape:cx="50"
     inkscape:cy="50"
     inkscape:window-x="1920"
     inkscape:window-y="0"
     inkscape:window-maximized="1"
     inkscape:current-layer="svg6" />
  <g
     id="g4"
     transform="matrix(1.1091144,0,0,0.78749006,-6.8511206,36.393839)"
     style="fill:#0a425a;fill-opacity:1">
    <path
       style="opacity:1;fill:#0a425a;fill-opacity:1;stroke:none;stroke-width:2;stroke-linejoin:miter;stroke-miterlimit:4;stroke-dasharray:none;stroke-opacity:1"
       d="M 77.49124,21.960938 C 71.339148,28.457115 65.194182,34.954974 61.264209,41.944955 58.131512,35.36636 54.37553,29.456188 47.985096,26.385925 c 5.376512,6.231482 7.724444,12.464249 9.28563,18.695731 -3.077272,-1.34626 -6.527153,-2.333636 -10.4287,-2.813073 4.588109,1.733493 8.217617,3.820574 11.183831,6.157226 -0.437149,1.066461 -0.892172,2.121026 -1.340152,3.180266 -0.998123,-0.431013 -2.031953,-0.849498 -3.201011,-1.346374 1.014561,0.807424 1.904756,1.662073 2.698974,2.55168 -0.692354,1.73176 -1.301573,3.518694 -1.626438,5.49545 -3.797225,-5.081816 -7.494043,-10.884002 -12.204502,-9.387282 8.468388,7.288815 8.456367,19.537881 7.377054,26.995351 -2.274383,-5.253672 -3.297873,-14.592299 -7.377054,-19.620371 2.05757,5.69005 0.940835,15.309817 0.719864,20.999939 h 15.156569 c 1.21885,-3.511278 2.226722,-10.920844 3.142925,-14.390464 0.93335,3.484883 1.344949,10.974227 1.802772,14.390464 h 18.11486 C 80.85025,69.682997 79.639746,56.153833 86.745751,46.772403 81.74565,49.456274 78.132988,54.489413 76.418704,62.733893 75.918007,61.96512 75.388954,61.188024 74.84413,60.410411 77.661527,47.897553 80.671702,35.830616 93.85519,47.442479 81.662009,31.017913 75.324253,41.858686 69.1516,53.460712 67.832925,52.107126 66.406873,50.810606 64.851084,49.606221 67.374106,40.624439 70.703608,31.53094 77.49124,21.960938 Z M 18.613797,46.907249 c 3.420179,7.778863 3.929319,15.557605 5.229909,23.336469 C 19.938195,65.012859 16.25392,59.480549 8.4215959,59.649056 14.537634,63.136593 16.165672,72.20569 17.935424,77.294468 H 42.76971 c -0.926316,-4.299922 -1.199605,-12.637153 -3.501819,-16.707721 -0.0284,3.352959 -0.02978,6.150772 -2.145071,10.059431 -0.204871,-1.397986 0.253026,-2.834848 1.072535,-4.292218 -2.145989,0.429063 -3.263423,2.093091 -4.157372,4.024603 1.784931,-7.389462 1.3046,-14.645938 6.974594,-22.263935 C 34.697263,52.595245 32.632967,58.846705 29.07569,64.476504 26.194629,58.399632 24.110901,52.032831 18.613797,46.907249 Z m 45.038205,7.14678 c 1.078127,1.355445 2.042402,2.753309 2.914725,4.188491 -0.335914,0.609156 -0.67196,1.220787 -1.012374,1.808997 -0.793037,-1.632357 -1.594602,-2.90972 -2.433433,-3.947845 0.174337,-0.682837 0.353549,-1.366365 0.531082,-2.049643 z m -2.721793,13.621412 c 0.07312,1.897201 -0.9709,7.721969 -2.186563,9.619027 h 4.163597 c -0.58656,-1.9693 -1.234711,-7.805452 -1.977034,-9.619027 z"
       id="path2"
       inkscape:connector-curvature="0" />
  </g>
  <g
     transform="matrix(0.43441753,0,0,0.43441753,39.577543,54.729687)"
     id="g10"
     style="fill:#d35e42;fill-opacity:1">
    <path
       inkscape:connector-curvature="0"
       d="m 57.5,32.3 c -5,-1 -9.1,-0.8 -12.2,0.7 -0.1,0 -0.2,0 -0.3,0 -0.3,0 -0.5,-0.1 -0.6,-0.4 -0.2,-0.3 0,-0.7 0.3,-0.9 3.1,-1.5 7.2,-1.8 12.2,-1 0,0 0,-0.1 0,-0.1 -9.3,-7.2 -18.5,1.6 -20.4,3.5 1.7,2.8 11.8,19.1 20.2,22.3 0.4,0.1 0.5,0.5 0.4,0.9 -0.1,0.3 -0.4,0.4 -0.6,0.4 -0.1,0 -0.2,0 -0.2,0 -6.2,-2.4 -13.1,-11.2 -17.2,-17.2 -0.5,-0.4 -3,-2.4 -6.6,-3.7 -0.4,-0.1 -0.5,-0.5 -0.4,-0.9 0.1,-0.4 0.5,-0.5 0.9,-0.4 1.6,0.6 3,1.3 4.1,2 -0.9,-1.4 -1.5,-2.5 -1.8,-2.9 -3.1,-1.9 -6.5,-2.2 -8.5,-2.2 -1,0 -1.6,0.1 -1.6,0.1 -8.1,0.9 -13.3,3.9 -15.5,8.8 -2.9,6.5 0.4,14.3 0.9,15 0.1,0.1 0.1,0.2 0.1,0.3 0,0 0,0 0,0 0.3,0.1 0.8,0.1 1,-0.1 0.3,-0.2 0.4,-0.7 0.3,-1.4 0,-0.5 -0.2,-1.2 -0.4,-2 -1,-4.3 -2.8,-12.4 6.7,-17.1 0.7,-0.4 1.5,-0.7 2.2,-0.9 0.4,-0.1 0.7,0.1 0.9,0.4 0.2,0.3 -0.1,0.7 -0.4,0.9 -0.7,0.2 -1.4,0.5 -2,0.8 -8.6,4.2 -7,11.4 -6,15.6 0.2,0.9 0.4,1.6 0.4,2.2 0.1,1.3 -0.2,2.2 -0.9,2.7 -0.4,0.3 -0.9,0.4 -1.3,0.4 -0.1,0 -0.1,0 -0.2,0 2.9,9.9 19,15.1 19.1,15.2 7.4,2.3 13.8,1.9 18.9,-1.2 C 57.2,67.2 59.3,57 59.3,56.9 59.4,56.6 59.6,56.3 60,56.4 68.7,56.8 71.4,49.8 72,47.7 63.5,43.9 59.1,35.9 57.5,32.3 Z"
       id="path4"
       style="fill:#d35e42;fill-opacity:1" />
    <path
       inkscape:connector-curvature="0"
       d="m 70.5,28.5 c -5.5,-2.4 -10.8,0.9 -12.2,2 0.9,2.2 5.3,12.2 14.6,16 2,0.3 3.7,-0.1 4.9,-1.2 1.8,-1.5 2.3,-4.1 2.4,-5.2 -5.3,-2.1 -9,-10 -9.7,-11.6 z"
       id="path6"
       style="fill:#d35e42;fill-opacity:1" />
    <path
       inkscape:connector-curvature="0"
       d="m 91.2,26.2 c -4.1,-1.2 -8.1,-1 -11.5,-0.4 0,0 -0.1,0 -0.1,0 -3.7,0.7 -6.5,1.9 -7.7,2.5 1,2.1 4.5,9 9.1,10.7 1.7,-0.2 3,-0.8 3.8,-1.8 0.8,-1 0.8,-2.1 0.8,-2.7 -3.4,-1.7 -5.3,-5.2 -6.1,-6.9 0.3,-0.3 0.7,-0.6 1.3,-0.5 0.7,1.5 2.5,4.8 5.6,6.3 1.7,0.1 2.3,-1 3.1,-2.7 0,0 0,0 0,-0.1 -1.5,-0.8 -2.5,-2.5 -3,-3.4 0.2,-0.3 0.6,-0.7 1.2,-0.6 0.4,0.7 1.2,2.1 2.4,2.8 0.3,-0.5 0.6,-0.9 1,-1.3 0.4,-0.3 0.6,-0.7 0.6,-1 0,-0.3 -0.3,-0.7 -0.5,-0.9 z"
       id="path8"
       style="fill:#d35e42;fill-opacity:1" />
  </g>
  <path
     inkscape:connector-curvature="0"
     d="M 48.901122,45.504414 28.304387,14.962398 29.893278,12.608485 c 1.118108,-1.706587 2.706999,-3.0012386 4.590129,-3.8251076 l 8.650629,-3.76626 H 31.364473 c -3.001239,0 -5.943629,1.176956 -8.062151,3.354325 l -6.649803,6.5909556 h -0.05885 l -5.06091,-3.648565 C 10.944281,10.901898 10.238107,10.666507 9.473086,10.666507 H 5.0595004 l 3.6485636,9.062564 c 0.470783,1.118108 1.588891,1.88313 2.765847,1.88313 h 5.178608 v 1.647739 h -5.178608 c -1.88313,0 -3.5897156,-1.176957 -4.3547376,-2.942391 l -2.177369,-5.355151 h -4.825521 v 43.017753 l 9.9452806,-3.295478 h 24.77493 c 1.059261,1.059261 2.471608,1.647739 4.001652,1.647739 3.118934,0 6.120172,-1.176956 8.415237,-3.23663 l 0.765022,-0.706174 c 2.000825,-1.765434 2.353912,-4.707825 0.882717,-6.885194 z M 31.776408,30.380525 c -2.471608,0.765022 -5.11976,-0.52963 -6.002477,-2.94239 v -0.05885 h 4.707825 l 1.88313,2.765847 z M 44.36984,46.799066 v 2.41276 h -2.471608 c 0.05885,-1.294652 1.118108,-2.41276 2.471608,-2.41276 z"
     id="path2-0"
     style="fill:#0a425a;fill-opacity:1;stroke-width:0.58847815" />
</svg>
