<?xml version="1.0" encoding="UTF-8" standalone="no"?>
<svg
   width="1200pt"
   height="1200pt"
   version="1.1"
   viewBox="0 0 1200 1200"
   id="svg2586"
   sodipodi:docname="noun-syncing-file-288356.svg"
   inkscape:version="1.2.2 (b0a8486541, 2022-12-01)"
   xmlns:inkscape="http://www.inkscape.org/namespaces/inkscape"
   xmlns:sodipodi="http://sodipodi.sourceforge.net/DTD/sodipodi-0.dtd"
   xmlns="http://www.w3.org/2000/svg"
   xmlns:svg="http://www.w3.org/2000/svg">
  <defs
     id="defs2590" />
  <sodipodi:namedview
     id="namedview2588"
     pagecolor="#ffffff"
     bordercolor="#666666"
     borderopacity="1.0"
     inkscape:showpageshadow="2"
     inkscape:pageopacity="0.0"
     inkscape:pagecheckerboard="0"
     inkscape:deskcolor="#d1d1d1"
     inkscape:document-units="pt"
     showgrid="false"
     inkscape:zoom="0.528125"
     inkscape:cx="748.87574"
     inkscape:cy="799.05325"
     inkscape:window-width="1920"
     inkscape:window-height="1043"
     inkscape:window-x="1920"
     inkscape:window-y="0"
     inkscape:window-maximized="1"
     inkscape:current-layer="svg2586" />
  <g
     fill-rule="evenodd"
     id="g2584"
     style="fill:#0a425a;fill-opacity:1">
    <path
       d="m841.04 999.08c30.488 30.492 72.527 44.82 114.58 40.141 10.98-1.2227 20.867 6.6875 22.09 17.664 1.2227 10.977-6.6875 20.867-17.664 22.09-54.008 6.0117-108.12-12.434-147.29-51.609-65.516-65.516-69.969-168.96-13.367-239.64l-15.047-15.051c-7.9102-7.9062-5.043-15.293 6.0195-16.871l58.93-8.418c10.898-1.5586 18.75 6.1055 17.172 17.172l-8.418 58.926c-1.5586 10.898-9.1367 13.762-16.875 6.0234l-13.27-13.27c-41.113 54.836-36.734 132.97 13.141 182.84zm197.99-197.99c-30.457-30.461-72.438-44.793-114.45-40.156-10.98 1.2109-20.863-6.707-22.074-17.688-1.2109-10.977 6.707-20.859 17.688-22.07 53.953-5.9531 107.98 12.492 147.12 51.629 65.512 65.512 69.969 168.96 13.363 239.64l15.051 15.047c7.7383 7.7383 4.875 15.316-6.0234 16.875l-58.926 8.418c-11.066 1.582-18.73-6.2734-17.172-17.172l8.418-58.93c1.582-11.062 8.9648-13.93 16.875-6.0195l13.27 13.27c41.109-54.836 36.73-132.97-13.141-182.84z"
       id="path2580"
       style="fill:#0a425a;fill-opacity:1" />
    <path
       d="m960 328c0-5.3047-2.1055-10.391-5.8594-14.141l-188-188c-3.75-3.7539-8.8359-5.8594-14.141-5.8594h-492c-11.047 0-20 8.9531-20 20v920c0 11.047 8.9531 20 20 20h553.48c-16.125-11.355-30.656-24.824-43.191-40h-490.29v-880h440v180c0 11.047 8.9531 20 20 20h180v320.9c6.5859-0.59375 13.258-0.89844 20-0.89844s13.414 0.30469 20 0.89844z"
       id="path2582"
       style="fill:#0a425a;fill-opacity:1" />
  </g>
</svg>
