<?xml version="1.0" encoding="UTF-8" standalone="no"?>
<!-- Created with Inkscape (http://www.inkscape.org/) -->

<svg
   xmlns:dc="http://purl.org/dc/elements/1.1/"
   xmlns:cc="http://creativecommons.org/ns#"
   xmlns:rdf="http://www.w3.org/1999/02/22-rdf-syntax-ns#"
   xmlns:svg="http://www.w3.org/2000/svg"
   xmlns="http://www.w3.org/2000/svg"
   xmlns:sodipodi="http://sodipodi.sourceforge.net/DTD/sodipodi-0.dtd"
   xmlns:inkscape="http://www.inkscape.org/namespaces/inkscape"
   width="100"
   height="100"
   viewBox="0 0 26.458333 26.458334"
   version="1.1"
   id="svg8"
   inkscape:version="0.92.4 (5da689c313, 2019-01-14)"
   sodipodi:docname="eleveur_rond.svg">
  <defs
     id="defs2" />
  <sodipodi:namedview
     id="base"
     pagecolor="#ffffff"
     bordercolor="#666666"
     borderopacity="1.0"
     inkscape:pageopacity="0.0"
     inkscape:pageshadow="2"
     inkscape:zoom="3.959798"
     inkscape:cx="114.38852"
     inkscape:cy="56.580218"
     inkscape:document-units="mm"
     inkscape:current-layer="layer1"
     showgrid="false"
     units="px"
     inkscape:window-width="1920"
     inkscape:window-height="1016"
     inkscape:window-x="0"
     inkscape:window-y="27"
     inkscape:window-maximized="1" />
  <metadata
     id="metadata5">
    <rdf:RDF>
      <cc:Work
         rdf:about="">
        <dc:format>image/svg+xml</dc:format>
        <dc:type
           rdf:resource="http://purl.org/dc/dcmitype/StillImage" />
        <dc:title></dc:title>
      </cc:Work>
    </rdf:RDF>
  </metadata>
  <g
     inkscape:label="Calque 1"
     inkscape:groupmode="layer"
     id="layer1"
     transform="translate(0,-270.54165)">
    <circle
       style="fill:#b3b3b3;fill-opacity:0.94117647;stroke-width:0.26458332"
       id="path815"
       cx="13.229167"
       cy="283.77081"
       r="13.229842" />
    <g
       transform="matrix(0.06821489,0,0,0.06821489,2.6518726,274.56106)"
       id="g16"
       style="fill:#ffffff">
      <path
         inkscape:connector-curvature="0"
         d="m 154.9,59.4 c -3.4,-11.4 -13.8,-19.5 -25.6,-20 5.8,-6.5 9.1,-14.8 9.1,-23.5 v -3.4 l -8.6,4.9 c -3,1.7 -6.2,3 -9.5,4 -3,0.9 -6.1,1.4 -9.3,1.7 -1.5,-1.4 -3.2,-2.6 -4.8,-3.8 -7.7,-5.3 -16.7,-8 -26,-8 -9.4,0 -18.4,2.8 -26,8 -1.6,1.1 -3.2,2.4 -4.8,3.8 -3.2,-0.3 -6.3,-0.8 -9.3,-1.7 -3.3,-1 -6.5,-2.3 -9.5,-4 L 22,12.6 V 16 c 0,8.7 3.2,17 9,23.5 C 25.4,39.7 20,41.7 15.5,45 10.6,48.6 7.1,53.7 5.4,59.5 L 5,60.9 17.5,69.8 C 24.7,74.9 34,77 43,75.3 l 8.9,33.4 c 0,0.1 -0.1,0.1 -0.1,0.2 -1.6,3.8 -2.4,7.9 -2.4,12.1 v 0.1 c 0,5.8 3.9,10.8 9.2,12.5 3.2,8.9 11.5,15.2 21.4,15.2 9.8,0 18.2,-6.4 21.4,-15.2 5.3,-1.8 9.2,-6.7 9.2,-12.5 V 121 c 0,-4.2 -0.8,-8.3 -2.4,-12.1 0,-0.1 0,-0.1 -0.1,-0.2 L 117,75.3 c 2.1,0.4 4.2,0.6 6.3,0.6 6.9,0 13.8,-2.1 19.5,-6.2 l 12.5,-8.9 z M 80,15.2 c 7.9,0 15.6,2.2 22.3,6.4 -3.9,6.6 -12.6,11 -22.3,11 -9.7,0 -18.4,-4.3 -22.3,-11 6.7,-4.2 14.4,-6.4 22.3,-6.4 z m 0,129.6 c -7.3,0 -13.6,-4.3 -16.7,-10.5 h 33.4 c -3.1,6.2 -9.4,10.5 -16.7,10.5 z M 106.6,121 c 0,5.1 -4.3,9.2 -9.5,9.2 H 62.9 c -5.2,0 -9.5,-4.1 -9.5,-9.2 v -0.1 c 0,-3.7 0.7,-7.2 2.1,-10.6 1.3,-3.2 3.3,-6.1 5.7,-8.6 2.5,-2.5 5.3,-4.4 8.5,-5.8 3.3,-1.4 6.7,-2.1 10.3,-2.1 3.6,0 7.1,0.7 10.3,2.1 3.2,1.4 6,3.3 8.4,5.8 2.4,2.5 4.4,5.4 5.7,8.6 1.4,3.4 2.1,6.9 2.1,10.6 v 0.1 z m 33.9,-54.6 c -6.5,4.6 -14.6,6.4 -22.5,5 l 0.8,-2.9 -3.9,-1 -9.6,36 c -1.1,-1.6 -2.3,-3.1 -3.7,-4.6 C 98.8,96 95.5,93.8 91.9,92.2 88.1,90.6 84.1,89.7 80,89.7 c -4.1,0 -8.1,0.8 -11.9,2.5 -3.6,1.6 -6.9,3.8 -9.7,6.7 -1.4,1.4 -2.6,2.9 -3.7,4.6 l -9.6,-36 -3.9,1 0.8,2.9 C 34.2,72.8 26.1,71 19.5,66.4 L 9.4,59.2 C 11,54.8 13.8,51 17.6,48.1 21.8,45 26.8,43.3 32,43.3 h 9.1 L 36.9,39.8 C 30.6,34.5 26.7,27.3 25.8,19.4 l 2.5,1.4 c 3.3,1.8 6.8,3.3 10.4,4.4 3.6,1 7.3,1.7 11.1,1.9 h 0.8 l 0.6,-0.6 c 1,-1 2.1,-1.8 3.2,-2.6 4.7,7.7 14.6,12.7 25.6,12.7 11,0 20.9,-5 25.6,-12.7 1.1,0.8 2.1,1.7 3.2,2.6 l 0.6,0.6 h 0.8 c 3.8,-0.2 7.5,-0.9 11.1,-1.9 3.6,-1.1 7.1,-2.5 10.4,-4.4 l 2.5,-1.4 c -0.9,7.8 -4.8,15.1 -11,20.4 l -4.2,3.5 h 9.1 c 10.1,0 19.2,6.4 22.6,15.8 z"
         id="path2"
         style="fill:#ffffff" />
      <path
         inkscape:connector-curvature="0"
         d="m 121.4,54.8 -2.5,0.9 1.3,3.8 2.5,-0.9 c 5.6,-2 11.7,-2.2 17.5,-0.7 l 1.9,0.5 1,-3.9 -1.9,-0.5 c -6.6,-1.7 -13.4,-1.5 -19.8,0.8 z"
         id="path4"
         style="fill:#ffffff" />
      <path
         inkscape:connector-curvature="0"
         d="m 18.3,53.9 -1.9,0.5 1,3.9 1.9,-0.5 c 5.8,-1.5 11.9,-1.2 17.5,0.7 l 2.5,0.9 1.3,-3.8 -2.5,-0.9 C 31.8,52.5 24.9,52.3 18.3,53.9 Z"
         id="path6"
         style="fill:#ffffff" />
      <path
         inkscape:connector-curvature="0"
         d="m 68,104.1 c -3.8,0 -6.8,3.8 -6.8,8.6 0,4.8 3,8.6 6.8,8.6 3.8,0 6.8,-3.8 6.8,-8.6 0,-4.8 -3,-8.6 -6.8,-8.6 z m 0,13.2 c -1.3,0 -2.8,-1.9 -2.8,-4.6 0,-2.7 1.5,-4.6 2.8,-4.6 1.3,0 2.8,1.9 2.8,4.6 0,2.7 -1.5,4.6 -2.8,4.6 z"
         id="path8"
         style="fill:#ffffff" />
      <path
         inkscape:connector-curvature="0"
         d="m 92,104.1 c -3.8,0 -6.8,3.8 -6.8,8.6 0,4.8 3,8.6 6.8,8.6 3.8,0 6.8,-3.8 6.8,-8.6 0,-4.8 -3.1,-8.6 -6.8,-8.6 z m 0,13.2 c -1.3,0 -2.8,-1.9 -2.8,-4.6 0,-2.7 1.5,-4.6 2.8,-4.6 1.3,0 2.8,1.9 2.8,4.6 0,2.7 -1.5,4.6 -2.8,4.6 z"
         id="path10"
         style="fill:#ffffff" />
      <circle
         cx="54.5"
         cy="59"
         r="4.6999998"
         id="circle12"
         style="fill:#ffffff" />
      <circle
         cx="105.5"
         cy="59"
         r="4.6999998"
         id="circle14"
         style="fill:#ffffff" />
    </g>
    <g
       transform="matrix(0.08144158,0,0,0.08144158,9.0145242,274.11745)"
       id="g6"
       style="fill:#0a425a;fill-opacity:1">
      <path
         inkscape:connector-curvature="0"
         d="m 82.135,55.565 c -1.8,-1.476 -3.616,-2.641 -5.509,-3.496 -1.903,-0.841 -3.862,-1.428 -6.216,-1.446 -0.355,0 -0.703,0.031 -1.046,0.076 H 34.135 c -0.344,-0.045 -0.691,-0.076 -1.047,-0.076 -2.352,0.018 -4.313,0.605 -6.215,1.446 C 20.378,55.092 14.03,61.69 8.826,73.072 3.695,84.473 0.004,100.673 0,123.251 c 0,4.375 0.139,8.989 0.438,13.859 0.257,4.245 3.779,7.513 7.977,7.514 0.164,0 0.328,-0.005 0.495,-0.015 4.411,-0.27 7.767,-4.061 7.499,-8.472 -0.278,-4.558 -0.406,-8.85 -0.406,-12.885 -0.009,-23.071 4.221,-37.691 8.701,-46.242 v 55.718 L 18.802,223.9 c -0.443,6.815 4.725,12.695 11.537,13.136 6.814,0.441 12.695,-4.721 13.137,-11.538 l 5.129,-79.19 h 6.291 l 5.129,79.19 c 0.441,6.817 6.324,11.979 13.139,11.538 6.811,-0.44 11.979,-6.32 11.537,-13.136 L 78.797,132.725 V 76.981 c 0.418,0.8 0.832,1.64 1.236,2.548 3.996,8.796 7.471,22.794 7.467,43.722 0,4.033 -0.129,8.328 -0.404,12.89 -0.268,4.411 3.092,8.203 7.502,8.468 0.165,0.01 0.329,0.015 0.492,0.015 4.197,0 7.721,-3.273 7.977,-7.518 0.293,-4.866 0.432,-9.478 0.434,-13.855 C 103.493,97.453 98.683,79.967 92.39,68.482 89.233,62.744 85.722,58.52 82.135,55.565 Z"
         id="path2-30"
         style="fill:#0a425a;fill-opacity:1" />
      <circle
         cx="51.75"
         cy="22.5"
         r="22.5"
         id="circle4-3"
         style="fill:#0a425a;fill-opacity:1" />
    </g>
    <g
       transform="matrix(0.40632406,0,0,0.40632406,15.196118,175.2496)"
       id="g830"
       style="fill:#ffffff">
      <path
         sodipodi:nodetypes="ccsscccsccccccccscccccccsccccscccccccsccsccccccccccccccscccccccscccsccccc"
         style="color:#000000;font-style:normal;font-variant:normal;font-weight:normal;font-stretch:normal;font-size:medium;line-height:normal;font-family:sans-serif;font-variant-ligatures:normal;font-variant-position:normal;font-variant-caps:normal;font-variant-numeric:normal;font-variant-alternates:normal;font-feature-settings:normal;text-indent:0;text-align:start;text-decoration:none;text-decoration-line:none;text-decoration-style:solid;text-decoration-color:#000000;letter-spacing:normal;word-spacing:normal;text-transform:none;writing-mode:lr-tb;direction:ltr;text-orientation:mixed;dominant-baseline:auto;baseline-shift:baseline;text-anchor:start;white-space:normal;shape-padding:0;clip-rule:nonzero;display:inline;overflow:visible;visibility:visible;opacity:1;isolation:auto;mix-blend-mode:normal;color-interpolation:sRGB;color-interpolation-filters:linearRGB;solid-color:#000000;solid-opacity:1;vector-effect:none;fill:#ffffff;fill-opacity:1;fill-rule:nonzero;stroke:#ffffff;stroke-width:0.16999909;stroke-linecap:butt;stroke-linejoin:miter;stroke-miterlimit:4;stroke-dasharray:none;stroke-dashoffset:0;stroke-opacity:1;color-rendering:auto;image-rendering:auto;shape-rendering:auto;text-rendering:auto;enable-background:accumulate"
         d="m 11.309333,272.55214 c -1.075749,0 -2.076952,0.54276 -2.6854536,1.43105 -0.05417,-0.006 -0.1081058,-0.0113 -0.1636921,-0.0113 -0.7831637,0 -1.5364153,0.52737 -2.1193433,1.07511 -0.5829283,0.54774 -0.9956151,1.12215 -1.0817522,1.24611 l -3.4e-4,6.6e-4 -6.63e-4,6.6e-4 c -1.5634937,2.34048 -2.2093172,4.10885 -2.2093172,6.07016 0,0.12193 0.052397,0.23488 0.1391203,0.31577 l 6.63e-4,3.3e-4 3.399e-4,3.4e-4 c 0.089968,0.0814 0.2106417,0.11941 0.3293733,0.10658 1.2355832,-0.12821 2.3077168,-1.01564 3.0719367,-1.97656 -3.911e-4,0.0193 -9.351e-4,0.0385 -0.00133,0.0577 -0.054399,2.66287 -0.1233848,5.43932 1.4004995,6.99387 h 3.4e-4 c 0.7777339,0.79235 1.8712786,1.17671 3.3196307,1.17671 1.447678,0 2.54221,-0.3844 3.319962,-1.17539 1.522288,-1.55572 1.454234,-4.32918 1.399836,-6.99253 v -6.6e-4 c -3.4e-4,-0.0203 -6.8e-4,-0.0397 -0.001,-0.0597 0.7636,0.96124 1.836177,1.85034 3.071274,1.97757 0.121871,0.0151 0.242139,-0.0251 0.330369,-0.10658 l 3.39e-4,-3.4e-4 c 0.08631,-0.0805 0.139786,-0.19293 0.139786,-0.31575 0,-1.96333 -0.645072,-3.73155 -2.212646,-6.07814 l -6.79e-4,-9.4e-4 -3.4e-4,-6.7e-4 c -0.08426,-0.1201 -0.496768,-0.69351 -1.079428,-1.24045 -0.582661,-0.54696 -1.33617,-1.07445 -2.119012,-1.07445 -0.05367,0 -0.107884,0.006 -0.163028,0.0113 -0.608509,-0.88621 -1.609717,-1.43038 -2.685453,-1.43038 z m 0,0.17 c 1.035963,0 2.004505,0.52884 2.578541,1.39485 l 0.02889,0.0432 0.05179,-0.006 c 0.06914,-0.008 0.130161,-0.013 0.189257,-0.013 0.70499,0 1.433896,0.49456 2.002471,1.0283 0.567507,0.53273 0.97414,1.09661 1.055521,1.21257 1.557689,2.33179 2.18409,4.05757 2.18409,5.98384 0,0.0742 -0.03042,0.13954 -0.08533,0.19091 -8.2e-5,8e-5 -1.7e-4,-7e-5 -3.4e-4,0 -0.05291,0.0487 -0.122452,0.0725 -0.194569,0.0634 l -0.001,-3.4e-4 h -10e-4 c -1.240827,-0.12738 -2.359863,-1.08637 -3.110785,-2.09478 l -0.156717,-0.2105 0.0037,0.26264 c 0.0013,0.10007 0.004,0.19733 0.0053,0.2965 v 3.4e-4 3.4e-4 c 0.0544,2.66333 0.09781,5.38927 -1.351027,6.87035 -6.1e-5,7e-5 -3.41e-4,-6e-5 -3.41e-4,0 -6.1e-5,7e-5 6.1e-5,2.7e-4 0,3.4e-4 -0.741338,0.75375 -1.780823,1.12425 -3.198439,1.12425 -1.4185131,0 -2.4570614,-0.3706 -3.1984393,-1.12591 -1.4504195,-1.4796 -1.4064245,-4.20847 -1.3520245,-6.87134 0.00204,-0.0986 0.00394,-0.19624 0.00597,-0.29485 0.013478,-0.29677 0.018561,-0.28294 -0.1530657,-0.0528 -0.7515978,1.00841 -1.8697742,1.96539 -3.1114484,2.09412 h -3.4e-4 c -0.070058,0.008 -0.1434373,-0.0156 -0.1962294,-0.0631 -0.054499,-0.051 -0.084999,-0.11716 -0.084999,-0.19092 0,-1.92376 0.6269027,-3.6493 2.1797737,-5.9742 l 0.00101,-9.5e-4 c 0.081975,-0.1179 0.4898576,-0.68418 1.0578458,-1.21787 0.5688158,-0.53449 1.2974537,-1.0293 2.0028004,-1.0293 0.065313,0 0.1264197,0.004 0.1879288,0.013 l 0.053125,0.008 0.029882,-0.0451 c 0.5740326,-0.868 1.5421756,-1.39518 2.5782086,-1.39518 z"
         id="path2-3"
         inkscape:connector-curvature="0" />
      <path
         id="path4-6"
         d="m 9.5022629,280.43284 c -0.1995112,0 -0.3614333,-0.1612 -0.3614333,-0.36143 v -1.44574 c 0,-0.19878 0.1619221,-0.36143 0.3614333,-0.36143 0.1987883,0 0.3614333,0.16265 0.3614333,0.36143 v 1.44574 c 0,0.20023 -0.162645,0.36143 -0.3614333,0.36143 z"
         style="fill:#ffffff;stroke-width:0.18071663"
         inkscape:connector-curvature="0" />
      <path
         id="path6-7"
         d="m 13.116596,280.43284 c -0.198789,0 -0.361434,-0.1612 -0.361434,-0.36143 v -1.44574 c 0,-0.19878 0.162645,-0.36143 0.361434,-0.36143 0.198788,0 0.361433,0.16265 0.361433,0.36143 v 1.44574 c 0,0.20023 -0.162645,0.36143 -0.361433,0.36143 z"
         style="fill:#ffffff;stroke-width:0.18071663"
         inkscape:connector-curvature="0" />
      <path
         sodipodi:nodetypes="scccccccccs"
         id="path8-5"
         d="m 11.309429,287.95788 c -0.09253,0 -0.185054,-0.0354 -0.255894,-0.10554 l -1.5136831,-1.51223 c -0.1416818,-0.13952 -0.1416818,-0.36939 -7.228e-4,-0.51107 0.1409589,-0.14096 0.3235835,0.048 0.4638199,0.18899 l 1.330104,1.32721 1.23561,-1.23272 c 0.139513,-0.14096 0.370108,-0.42444 0.511066,-0.28348 0.140959,0.14096 0.140959,0.37011 -7.22e-4,0.51107 l -1.515129,1.51223 c -0.0694,0.0701 -0.161922,0.10554 -0.254449,0.10554 z"
         style="fill:#ffffff;stroke:none;stroke-width:0.18071663;stroke-opacity:1"
         inkscape:connector-curvature="0" />
    </g>
    <g
       transform="matrix(0.06306679,0,0,0.06306679,16.442442,276.09758)"
       id="g4501"
       style="fill:#ffffff">
      <g
         id="g8"
         style="fill:#ffffff">
        <path
           inkscape:connector-curvature="0"
           id="path2-1"
           d="m 126.676,55.16 c -0.268,-0.398 -6.676,-9.749 -14.951,-9.749 -4.107,0 -7.984,1.14 -10.807,3.118 -0.693,-1.765 -1.551,-3.427 -2.525,-5 0.16,-0.359 0.293,-0.734 0.371,-1.137 2.754,-13.979 12.049,-31.574 12.143,-31.75 0.307,-0.579 0.203,-1.291 -0.258,-1.758 -0.461,-0.467 -1.17,-0.579 -1.754,-0.28 -0.953,0.492 -18.922,9.905 -24.258,22.927 -3.898,-1.729 -8.189,-2.692 -12.678,-2.692 -4.488,0 -8.78,0.963 -12.679,2.692 C 53.944,18.51 35.977,9.097 35.022,8.604 34.437,8.305 33.729,8.417 33.268,8.884 c -0.461,0.467 -0.564,1.179 -0.257,1.758 0.093,0.176 9.389,17.771 12.142,31.75 0.079,0.402 0.212,0.777 0.371,1.137 -0.974,1.573 -1.832,3.235 -2.525,5 -2.822,-1.979 -6.698,-3.118 -10.807,-3.118 -8.274,0 -14.683,9.351 -14.951,9.749 -0.343,0.507 -0.343,1.171 0,1.678 0.269,0.398 6.677,9.749 14.951,9.749 3.28,0 6.379,-0.705 8.954,-2.014 l 3.471,25.98 c 0.04,10.755 6.555,20.229 14.064,25.797 1.115,7.173 10.052,18.071 12.133,20.526 0.283,0.334 0.697,0.527 1.135,0.53 0.004,0 0.007,0 0.01,0 0.434,0 0.846,-0.188 1.131,-0.516 2.18,-2.508 11.484,-13.582 12.336,-20.685 7.43,-5.585 13.834,-14.989 13.875,-25.653 l 3.471,-25.98 c 2.574,1.309 5.674,2.014 8.953,2.014 8.275,0 14.684,-9.351 14.951,-9.749 0.344,-0.506 0.344,-1.17 0,-1.677 z M 105.971,13.795 c -2.867,5.963 -7.656,16.769 -9.832,26.532 -2.447,-3.023 -5.436,-5.543 -8.799,-7.447 3.34,-8.408 12.965,-15.495 18.631,-19.085 z M 37.944,13.791 c 5.668,3.587 15.299,10.673 18.636,19.087 -3.364,1.904 -6.353,4.424 -8.801,7.449 -2.177,-9.766 -6.966,-20.575 -9.835,-26.536 z m 34.029,119.782 c -3.683,-4.542 -7.721,-10.463 -9.507,-14.799 3.048,1.666 6.106,2.646 8.842,2.783 0.198,0.096 0.417,0.154 0.651,0.154 0.234,0 0.453,-0.059 0.651,-0.154 2.822,-0.141 5.99,-1.178 9.135,-2.94 -1.746,4.306 -5.985,10.394 -9.772,14.956 z m 39.752,-69.986 c -3.531,0 -6.904,-0.983 -9.252,-2.699 -0.426,-0.313 -0.986,-0.375 -1.473,-0.169 -0.486,0.208 -0.828,0.657 -0.898,1.182 l -3.787,28.354 c -0.01,0.065 -0.014,0.132 -0.014,0.198 0,14.469 -13.443,26.786 -22.842,28.021 V 103.97 h 3.234 c 0.828,0 1.5,-0.672 1.5,-1.5 0,-0.828 -0.672,-1.5 -1.5,-1.5 h -9.469 c -0.828,0 -1.5,0.672 -1.5,1.5 0,0.828 0.672,1.5 1.5,1.5 h 3.234 v 14.504 C 61.06,117.239 47.616,104.921 47.616,90.453 c 0,-0.066 -0.005,-0.133 -0.014,-0.198 L 43.815,61.9 c -0.069,-0.524 -0.411,-0.974 -0.897,-1.182 -0.189,-0.08 -0.39,-0.12 -0.589,-0.12 -0.313,0 -0.624,0.098 -0.885,0.289 -2.348,1.716 -5.72,2.699 -9.252,2.699 -5.396,0 -10.178,-5.454 -11.842,-7.588 1.664,-2.134 6.445,-7.588 11.842,-7.588 4.26,0 8.158,1.385 10.428,3.705 0.368,0.377 0.912,0.532 1.421,0.41 0.514,-0.123 0.924,-0.506 1.082,-1.009 3.703,-11.771 14.487,-19.679 26.836,-19.679 12.348,0 23.133,7.908 26.836,19.679 0.158,0.503 0.568,0.886 1.082,1.009 0.51,0.12 1.051,-0.033 1.42,-0.41 2.27,-2.32 6.168,-3.705 10.428,-3.705 5.398,0 10.18,5.457 11.844,7.589 -1.658,2.135 -6.428,7.588 -11.844,7.588 z"
           style="fill:#ffffff" />
        <circle
           id="circle4"
           r="3.9170001"
           cy="70.549004"
           cx="52.244999"
           style="fill:#ffffff" />
        <circle
           id="circle6"
           r="3.9170001"
           cy="70.549004"
           cx="92.171997"
           style="fill:#ffffff" />
      </g>
    </g>
    <g
       id="g933"
       style="fill:#ffffff;fill-opacity:1"
       transform="matrix(0.27241008,0,0,0.27241008,16.182143,204.96559)">
      <path
         id="path2-8"
         d="m -47.672046,306.01556 c 0.0058,2.08148 0.405078,3.86213 1.82933,5.28029 0.08625,0.0852 0.138377,0.20638 0.2286,0.28628 0.359833,0.31803 0.1524,0.61225 -0.08467,0.82524 -0.328613,0.29686 -0.478632,-0.095 -0.637911,-0.2667 -1.8796,-2.0328 -2.370137,-4.48787 -2.15265,-7.15566 0.0971,-1.19036 0.190765,-2.38125 0.274638,-3.5724 0.05847,-0.83238 0.316971,-0.98055 1.031346,-0.52229 1.316037,0.84428 2.603764,1.73302 3.795183,2.74849 0.388408,0.33152 0.650346,0.35534 1.102254,0.0505 3.848894,-2.59424 9.387153,-2.5871 13.264621,0.0106 0.452438,0.30348 0.744009,0.25797 1.122363,-0.0614 1.218935,-1.02976 2.513012,-1.95898 3.864504,-2.8075 0.518583,-0.32517 0.885031,-0.28257 0.926042,0.41804 0.110331,1.86505 0.327289,3.7346 0.277283,5.59594 -0.05556,2.0574 -0.626269,3.98727 -2.315898,5.39882 -0.224896,0.18812 -0.343429,0.30137 -0.58076,0.0434 -0.215107,-0.23204 -0.310886,-0.38577 -0.01561,-0.65511 2.113492,-1.9259 2.242344,-4.4286 2.011892,-7.03289 -0.06218,-0.70168 -0.10795,-1.4052 -0.148696,-2.10847 -0.02408,-0.41619 -0.100542,-0.70326 -0.579702,-0.35269 -0.989806,0.72338 -1.977496,1.44966 -2.971535,2.16535 -0.287073,0.20691 -0.336286,0.39873 -0.06826,0.6612 0.19685,0.19209 0.376238,0.40508 0.540279,0.62574 0.148961,0.19976 0.432329,0.37915 0.06588,0.67098 -0.346075,0.27543 -0.514614,0.11615 -0.735012,-0.15504 -1.479021,-1.82193 -3.439054,-2.85089 -5.709444,-3.2311 -3.978539,-0.66622 -7.564173,0.0606 -10.34706,3.24829 -0.248709,0.28522 -0.421746,0.37254 -0.735807,0.12674 -0.370152,-0.28998 -0.06006,-0.47572 0.08281,-0.67363 0.76835,-1.06495 0.776552,-1.06971 -0.2794,-1.846 -0.740304,-0.54425 -1.499129,-1.06389 -2.245254,-1.59993 -0.377296,-0.27067 -0.536575,-0.16854 -0.564356,0.28125 -0.07726,1.25359 -0.169334,2.50587 -0.245004,3.60362 z"
         style="clip-rule:evenodd;fill:#ffffff;fill-opacity:1;fill-rule:evenodd;stroke-width:0.26458332"
         inkscape:connector-curvature="0" />
      <path
         id="path4-8"
         d="m -33.608383,315.35906 c -1.413669,-1.28111 -2.870465,-0.99642 -4.290219,-0.87418 1.129242,-1.48829 6.631517,-1.30228 8.053652,0.36247 -0.922073,-0.13493 -1.69836,-0.47889 -2.506927,-0.70352 -0.791368,-0.22014 -1.602052,-0.36036 -2.534179,-0.0489 0.463021,0.37703 0.926836,0.53128 1.381654,0.68924 0.80645,0.28257 1.635654,0.50297 2.427817,0.81836 1.402027,0.558 1.853142,1.67322 1.340379,3.12393 -0.381264,1.08029 -1.179512,1.76213 -2.140744,2.29632 -0.247385,0.13758 -0.531283,0.28549 -0.732102,-0.0198 -0.194998,-0.2966 0.01429,-0.52361 0.259292,-0.68422 0.605367,-0.39714 1.088496,-0.88767 1.320006,-1.59438 0.216429,-0.66092 0.06429,-1.17422 -0.508,-1.60866 -1.724289,-1.30757 -5.505185,-1.42425 -7.262812,-0.19844 -0.849313,0.59267 -0.983456,1.23455 -0.430742,2.12381 0.427831,0.68924 1.034521,1.20571 1.674283,1.68672 0.281252,0.2114 0.582613,0.44873 0.265907,0.81677 -0.294217,0.34184 -0.564621,0.0204 -0.790046,-0.14367 -0.798777,-0.57944 -1.528233,-1.23349 -1.999456,-2.12222 -0.634736,-1.19724 -0.382323,-2.29579 0.754327,-3.03081 1.478227,-0.95673 3.132402,-1.15305 4.849283,-0.99668 0.207169,0.0188 0.413279,0.0513 0.868627,0.10795 z"
         style="clip-rule:evenodd;fill:#ffffff;fill-opacity:1;fill-rule:evenodd;stroke-width:0.26458332"
         inkscape:connector-curvature="0" />
      <path
         id="path6-9"
         d="m -41.018039,311.17388 c -0.593196,-0.0595 -0.963083,-0.42148 -0.966258,-0.93239 -0.0029,-0.46726 0.220397,-0.96732 0.801422,-1.06469 0.515673,-0.0865 1.196975,0.50906 1.180836,1.02024 -0.02064,0.65881 -0.572558,0.77602 -1.016,0.97684 z"
         style="clip-rule:evenodd;fill:#ffffff;fill-opacity:1;fill-rule:evenodd;stroke-width:0.26458332"
         inkscape:connector-curvature="0" />
      <path
         id="path8-7"
         d="m -30.165625,311.17388 c -0.593195,-0.0595 -0.963348,-0.42148 -0.966258,-0.93239 -0.0032,-0.46726 0.220133,-0.96732 0.801423,-1.06469 0.515673,-0.0865 1.19671,0.50906 1.180835,1.02024 -0.02064,0.65881 -0.572558,0.77602 -1.016,0.97684 z"
         style="clip-rule:evenodd;fill:#ffffff;fill-opacity:1;fill-rule:evenodd;stroke-width:0.26458332"
         inkscape:connector-curvature="0" />
      <path
         id="path10-7"
         d="m -37.974802,319.11694 c -0.280723,-0.56277 -0.481806,-1.10358 0.06165,-1.5838 0.282575,-0.25003 0.544513,-0.0537 0.665692,0.21511 0.329671,0.73104 -0.208492,1.03081 -0.72734,1.36869 z"
         style="clip-rule:evenodd;fill:#ffffff;fill-opacity:1;fill-rule:evenodd;stroke-width:0.26458332"
         inkscape:connector-curvature="0" />
      <path
         id="path12"
         d="m -31.808423,318.13824 c -0.0045,0.29898 -0.01958,0.76597 -0.31697,0.72999 -0.39423,-0.0474 -0.778405,-0.35957 -0.746919,-0.89482 0.01931,-0.33417 0.106892,-0.64056 0.509587,-0.62177 0.48604,0.0217 0.575998,0.37756 0.554302,0.7866 z"
         style="clip-rule:evenodd;fill:#ffffff;fill-opacity:1;fill-rule:evenodd;stroke-width:0.26458332"
         inkscape:connector-curvature="0" />
    </g>
  </g>
</svg>
