<?xml version="1.0" encoding="UTF-8" standalone="no"?>
<svg
   xmlns:dc="http://purl.org/dc/elements/1.1/"
   xmlns:cc="http://creativecommons.org/ns#"
   xmlns:rdf="http://www.w3.org/1999/02/22-rdf-syntax-ns#"
   xmlns:svg="http://www.w3.org/2000/svg"
   xmlns="http://www.w3.org/2000/svg"
   xmlns:sodipodi="http://sodipodi.sourceforge.net/DTD/sodipodi-0.dtd"
   xmlns:inkscape="http://www.inkscape.org/namespaces/inkscape"
   height="100px"
   width="100px"
   fill="#000000"
   version="1.1"
   x="0px"
   y="0px"
   viewBox="0 0 100 100"
   style="enable-background:new 0 0 100 100;"
   xml:space="preserve"
   id="svg26"
   sodipodi:docname="eleveur.svg"
   inkscape:version="0.92.4 (5da689c313, 2019-01-14)"><metadata
     id="metadata32"><rdf:RDF><cc:Work
         rdf:about=""><dc:format>image/svg+xml</dc:format><dc:type
           rdf:resource="http://purl.org/dc/dcmitype/StillImage" /><dc:title></dc:title></cc:Work></rdf:RDF></metadata><defs
     id="defs30" /><sodipodi:namedview
     pagecolor="#ffffff"
     bordercolor="#666666"
     borderopacity="1"
     objecttolerance="10"
     gridtolerance="10"
     guidetolerance="10"
     inkscape:pageopacity="0"
     inkscape:pageshadow="2"
     inkscape:window-width="779"
     inkscape:window-height="425"
     id="namedview28"
     showgrid="false"
     inkscape:zoom="1.18"
     inkscape:cx="4.7723298"
     inkscape:cy="1.9834246"
     inkscape:window-x="174"
     inkscape:window-y="366"
     inkscape:window-maximized="0"
     inkscape:current-layer="svg26"
     inkscape:pagecheckerboard="false" /><g
     id="g10"><path
       d="m 5273.1,2400.1 v -2 c 0,-2.8 -5,-4 -9.7,-4 -4.7,0 -9.7,1.3 -9.7,4 v 2 c 0,1.8 0.7,3.6 2,4.9 l 5,4.9 c 0.3,0.3 0.4,0.6 0.4,1 v 6.4 c 0,0.4 0.2,0.7 0.6,0.8 l 2.9,0.9 c 0.5,0.1 1,-0.2 1,-0.8 v -7.2 c 0,-0.4 0.2,-0.7 0.4,-1 l 5.1,-5 c 1.3,-1.3 2,-3.1 2,-4.9 z m -9.7,-0.1 c -4.8,0 -7.4,-1.3 -7.5,-1.8 v 0 c 0.1,-0.5 2.7,-1.8 7.5,-1.8 4.8,0 7.3,1.3 7.5,1.8 -0.2,0.5 -2.7,1.8 -7.5,1.8 z"
       id="path2"
       inkscape:connector-curvature="0" /><path
       d="m 5268.4,2410.3 c -0.6,0 -1,0.4 -1,1 0,0.6 0.4,1 1,1 h 4.3 c 0.6,0 1,-0.4 1,-1 0,-0.6 -0.4,-1 -1,-1 z"
       id="path4"
       inkscape:connector-curvature="0" /><path
       d="m 5272.7,2413.7 h -4.3 c -0.6,0 -1,0.4 -1,1 0,0.6 0.4,1 1,1 h 4.3 c 0.6,0 1,-0.4 1,-1 0,-0.6 -0.4,-1 -1,-1 z"
       id="path6"
       inkscape:connector-curvature="0" /><path
       d="m 5272.7,2417 h -4.3 c -0.6,0 -1,0.4 -1,1 0,0.6 0.4,1 1,1 h 4.3 c 0.6,0 1,-0.4 1,-1 0,-0.5 -0.4,-1 -1,-1 z"
       id="path8"
       inkscape:connector-curvature="0" /></g><g
     id="g908"
     style="fill:#008080"
     transform="translate(4)"><g
       id="g20"
       style="fill:#008080"><path
         inkscape:connector-curvature="0"
         id="path12"
         d="m 66.2,94.4 c -0.1,1.6 1.1,3 2.7,3.1 0.1,0 0.2,0 0.2,0 1.5,0 2.8,-1.2 2.9,-2.8 l 1.5,-23 -6.1,3.1 z"
         style="fill:#008080" /><path
         inkscape:connector-curvature="0"
         id="path14"
         d="M 85.7,3.9 C 84.1,3.8 82.7,5 82.6,6.6 l -0.9,14.7 c 0,0.5 -0.3,0.8 -0.5,0.9 -0.2,0.1 -0.5,0.4 -1,0.3 l -3.5,-0.2 1,-16 C 77.8,4.7 76.6,3.3 75,3.2 73.4,3.1 72,4.3 71.9,5.9 l -1,16 -3.5,-0.2 c -0.8,0 -1.3,-0.7 -1.3,-1.5 L 67,5.5 c 0.1,-1.6 -1.1,-3 -2.7,-3.1 -1.6,-0.1 -3,1.1 -3.1,2.7 l -0.9,14.7 c -0.3,4 2.8,7.4 6.7,7.7 l 3.5,0.2 -1.4,21.3 c 0.7,-0.1 1.3,-0.2 2,-0.2 1.4,0 2.6,0.2 3.9,0.7 l 1.4,-21.4 3.5,0.2 c 0.2,0 0.3,0 0.5,0 1.8,0 3.4,-0.6 4.8,-1.8 1.4,-1.3 2.3,-3 2.4,-5 L 88.4,7 C 88.5,5.4 87.3,4 85.7,3.9 Z"
         style="fill:#008080" /><path
         inkscape:connector-curvature="0"
         id="path16"
         d="m 68.2,54.6 -11.8,6 c 0,0 -12.6,-8.5 -13.8,-9.4 -1.3,-0.9 -2.8,-1.7 -3.8,-2 -4.2,-1.3 -14.9,-2.3 -17.9,4.7 -3.2,7.4 -2.6,26.7 -2.5,40.4 0,1.2 0.8,2.1 2,2.1 2.9,0 21.4,0 22.7,0 1.4,0 1.9,-0.8 2,-1.9 0.1,-0.7 1.4,-16.3 1.3,-23.1 0,-0.7 0,-1.5 0,-2.4 l 6,4.1 c 1.1,0.7 2.3,1.1 3.5,1.1 1,0 2,-0.2 2.9,-0.7 L 74,65.8 c 3.1,-1.6 4.3,-5.4 2.8,-8.5 -1.7,-3.1 -5.5,-4.3 -8.6,-2.7 z"
         style="fill:#008080" /><path
         inkscape:connector-curvature="0"
         id="path18"
         d="m 34,45 c 7.6,0 13.8,-6.2 13.8,-13.8 0,-1.4 -0.3,-2.6 -0.6,-3.9 l 5.3,-1.1 C 54,25.9 54.9,24.4 54.6,23 54.3,21.5 52.8,20.6 51.4,20.9 L 46.2,22 C 43.8,15.6 37,11.7 30.1,13.1 23.2,14.5 18.6,20.8 18.9,27.7 l -5.1,1.1 c -1.5,0.3 -2.4,1.8 -2.1,3.2 0.3,1.3 1.4,2.2 2.7,2.2 0.2,0 0.4,0 0.6,-0.1 l 5.5,-1.2 C 21.3,39.8 27,45 34,45 Z"
         style="fill:#008080" /></g></g></svg>