<?xml version="1.0" encoding="UTF-8" standalone="no"?>
<svg
   xmlns:dc="http://purl.org/dc/elements/1.1/"
   xmlns:cc="http://creativecommons.org/ns#"
   xmlns:rdf="http://www.w3.org/1999/02/22-rdf-syntax-ns#"
   xmlns:svg="http://www.w3.org/2000/svg"
   xmlns="http://www.w3.org/2000/svg"
   xmlns:sodipodi="http://sodipodi.sourceforge.net/DTD/sodipodi-0.dtd"
   xmlns:inkscape="http://www.inkscape.org/namespaces/inkscape"
   inkscape:version="1.0 (4035a4fb49, 2020-05-01)"
   sodipodi:docname="eleveur.svg"
   id="svg80"
   xml:space="preserve"
   viewBox="0 0 100 100"
   version="1.1"
   fill="#000000"
   enable-background="new 0 0 100 100"><defs
     id="defs84" /><sodipodi:namedview
     inkscape:document-units="px"
     inkscape:document-rotation="0"
     inkscape:current-layer="svg80"
     inkscape:window-maximized="1"
     inkscape:window-y="-8"
     inkscape:window-x="1912"
     inkscape:cy="50"
     inkscape:cx="50"
     inkscape:zoom="2.36"
     showgrid="false"
     id="namedview82"
     inkscape:window-height="1057"
     inkscape:window-width="1920"
     inkscape:pageshadow="2"
     inkscape:pageopacity="0"
     guidetolerance="10"
     gridtolerance="10"
     objecttolerance="10"
     borderopacity="1"
     bordercolor="#666666"
     pagecolor="#ffffff" /><metadata
     id="metadata2"><rdf:RDF><cc:Work
         rdf:about=""><dc:format>image/svg+xml</dc:format><dc:type
           rdf:resource="http://purl.org/dc/dcmitype/StillImage" /><dc:title></dc:title></cc:Work></rdf:RDF></metadata><path
     id="path4"
     d="m5273.1 2400.1v-2c0-2.8-5-4-9.7-4s-9.7 1.3-9.7 4v2c0 1.8 0.7 3.6 2 4.9l5 4.9c0.3 0.3 0.4 0.6 0.4 1v6.4c0 0.4 0.2 0.7 0.6 0.8l2.9 0.9c0.5 0.1 1-0.2 1-0.8v-7.2c0-0.4 0.2-0.7 0.4-1l5.1-5c1.3-1.3 2-3.1 2-4.9zm-9.7-0.1c-4.8 0-7.4-1.3-7.5-1.8 0.1-0.5 2.7-1.8 7.5-1.8s7.3 1.3 7.5 1.8c-0.2 0.5-2.7 1.8-7.5 1.8z" /><path
     id="path6"
     d="m5268.4 2410.3c-0.6 0-1 0.4-1 1s0.4 1 1 1h4.3c0.6 0 1-0.4 1-1s-0.4-1-1-1z" /><path
     id="path8"
     d="m5272.7 2413.7h-4.3c-0.6 0-1 0.4-1 1s0.4 1 1 1h4.3c0.6 0 1-0.4 1-1s-0.4-1-1-1z" /><path
     id="path10"
     d="m5272.7 2417h-4.3c-0.6 0-1 0.4-1 1s0.4 1 1 1h4.3c0.6 0 1-0.4 1-1 0-0.5-0.4-1-1-1z" /><g
     id="g26"
     fill="#0a425a"
     transform="matrix(.25581 0 0 .25581 2.7468 8.2097)"><path
       id="path12"
       d="m154.9 59.4c-3.4-11.4-13.8-19.5-25.6-20 5.8-6.5 9.1-14.8 9.1-23.5v-3.4l-8.6 4.9c-3 1.7-6.2 3-9.5 4-3 0.9-6.1 1.4-9.3 1.7-1.5-1.4-3.2-2.6-4.8-3.8-7.7-5.3-16.7-8-26-8-9.4 0-18.4 2.8-26 8-1.6 1.1-3.2 2.4-4.8 3.8-3.2-0.3-6.3-0.8-9.3-1.7-3.3-1-6.5-2.3-9.5-4l-8.6-4.8v3.4c0 8.7 3.2 17 9 23.5-5.6 0.2-11 2.2-15.5 5.5-4.9 3.6-8.4 8.7-10.1 14.5l-0.4 1.4 12.5 8.9c7.2 5.1 16.5 7.2 25.5 5.5l8.9 33.4c0 0.1-0.1 0.1-0.1 0.2-1.6 3.8-2.4 7.9-2.4 12.1v0.1c0 5.8 3.9 10.8 9.2 12.5 3.2 8.9 11.5 15.2 21.4 15.2 9.8 0 18.2-6.4 21.4-15.2 5.3-1.8 9.2-6.7 9.2-12.5v-0.1c0-4.2-0.8-8.3-2.4-12.1 0-0.1 0-0.1-0.1-0.2l8.9-33.4c2.1 0.4 4.2 0.6 6.3 0.6 6.9 0 13.8-2.1 19.5-6.2l12.5-8.9zm-74.9-44.2c7.9 0 15.6 2.2 22.3 6.4-3.9 6.6-12.6 11-22.3 11s-18.4-4.3-22.3-11c6.7-4.2 14.4-6.4 22.3-6.4zm0 129.6c-7.3 0-13.6-4.3-16.7-10.5h33.4c-3.1 6.2-9.4 10.5-16.7 10.5zm26.6-23.8c0 5.1-4.3 9.2-9.5 9.2h-34.2c-5.2 0-9.5-4.1-9.5-9.2v-0.1c0-3.7 0.7-7.2 2.1-10.6 1.3-3.2 3.3-6.1 5.7-8.6 2.5-2.5 5.3-4.4 8.5-5.8 3.3-1.4 6.7-2.1 10.3-2.1s7.1 0.7 10.3 2.1 6 3.3 8.4 5.8 4.4 5.4 5.7 8.6c1.4 3.4 2.1 6.9 2.1 10.6v0.1zm33.9-54.6c-6.5 4.6-14.6 6.4-22.5 5l0.8-2.9-3.9-1-9.6 36c-1.1-1.6-2.3-3.1-3.7-4.6-2.8-2.9-6.1-5.1-9.7-6.7-3.8-1.6-7.8-2.5-11.9-2.5s-8.1 0.8-11.9 2.5c-3.6 1.6-6.9 3.8-9.7 6.7-1.4 1.4-2.6 2.9-3.7 4.6l-9.6-36-3.9 1 0.8 2.9c-7.8 1.4-15.9-0.4-22.5-5l-10.1-7.2c1.6-4.4 4.4-8.2 8.2-11.1 4.2-3.1 9.2-4.8 14.4-4.8h9.1l-4.2-3.5c-6.3-5.3-10.2-12.5-11.1-20.4l2.5 1.4c3.3 1.8 6.8 3.3 10.4 4.4 3.6 1 7.3 1.7 11.1 1.9h0.8l0.6-0.6c1-1 2.1-1.8 3.2-2.6 4.7 7.7 14.6 12.7 25.6 12.7s20.9-5 25.6-12.7c1.1 0.8 2.1 1.7 3.2 2.6l0.6 0.6h0.8c3.8-0.2 7.5-0.9 11.1-1.9 3.6-1.1 7.1-2.5 10.4-4.4l2.5-1.4c-0.9 7.8-4.8 15.1-11 20.4l-4.2 3.5h9.1c10.1 0 19.2 6.4 22.6 15.8z" /><path
       id="path14"
       d="m121.4 54.8-2.5 0.9 1.3 3.8 2.5-0.9c5.6-2 11.7-2.2 17.5-0.7l1.9 0.5 1-3.9-1.9-0.5c-6.6-1.7-13.4-1.5-19.8 0.8z" /><path
       id="path16"
       d="m18.3 53.9-1.9 0.5 1 3.9 1.9-0.5c5.8-1.5 11.9-1.2 17.5 0.7l2.5 0.9 1.3-3.8-2.5-0.9c-6.3-2.2-13.2-2.4-19.8-0.8z" /><path
       id="path18"
       d="m68 104.1c-3.8 0-6.8 3.8-6.8 8.6s3 8.6 6.8 8.6 6.8-3.8 6.8-8.6-3-8.6-6.8-8.6zm0 13.2c-1.3 0-2.8-1.9-2.8-4.6s1.5-4.6 2.8-4.6 2.8 1.9 2.8 4.6-1.5 4.6-2.8 4.6z" /><path
       id="path20"
       d="m92 104.1c-3.8 0-6.8 3.8-6.8 8.6s3 8.6 6.8 8.6 6.8-3.8 6.8-8.6-3.1-8.6-6.8-8.6zm0 13.2c-1.3 0-2.8-1.9-2.8-4.6s1.5-4.6 2.8-4.6 2.8 1.9 2.8 4.6-1.5 4.6-2.8 4.6z" /><circle
       id="circle22"
       r="4.7"
       cy="59"
       cx="54.5" /><circle
       id="circle24"
       r="4.7"
       cy="59"
       cx="105.5" /></g><g
     id="g32"
     fill="#0a425a"
     transform="matrix(.34957 0 0 .34957 27.53 12.477)"><path
       id="path28"
       d="m82.135 55.565c-1.8-1.476-3.616-2.641-5.509-3.496-1.903-0.841-3.862-1.428-6.216-1.446-0.355 0-0.703 0.031-1.046 0.076h-35.229c-0.344-0.045-0.691-0.076-1.047-0.076-2.352 0.018-4.313 0.605-6.215 1.446-6.495 3.023-12.843 9.621-18.047 21.003-5.131 11.401-8.822 27.601-8.826 50.179 0 4.375 0.139 8.989 0.438 13.859 0.257 4.245 3.779 7.513 7.977 7.514 0.164 0 0.328-5e-3 0.495-0.015 4.411-0.27 7.767-4.061 7.499-8.472-0.278-4.558-0.406-8.85-0.406-12.885-9e-3 -23.071 4.221-37.691 8.701-46.242v55.718l-5.902 91.172c-0.443 6.815 4.725 12.695 11.537 13.136 6.814 0.441 12.695-4.721 13.137-11.538l5.129-79.19h6.291l5.129 79.19c0.441 6.817 6.324 11.979 13.139 11.538 6.811-0.44 11.979-6.32 11.537-13.136l-5.904-91.175v-55.744c0.418 0.8 0.832 1.64 1.236 2.548 3.996 8.796 7.471 22.794 7.467 43.722 0 4.033-0.129 8.328-0.404 12.89-0.268 4.411 3.092 8.203 7.502 8.468 0.165 0.01 0.329 0.015 0.492 0.015 4.197 0 7.721-3.273 7.977-7.518 0.293-4.866 0.432-9.478 0.434-13.855-8e-3 -25.798-4.818-43.284-11.111-54.769-3.157-5.738-6.668-9.962-10.255-12.917z" /><circle
       id="circle30"
       r="22.5"
       cy="22.5"
       cx="51.75" /></g><g
     id="g42"
     stroke="#0a425a"
     fill="#0a425a"
     transform="matrix(1.414 0 0 1.414 68.4 -355.69)"><path
       id="path34"
       style="font-feature-settings:normal;font-variant-alternates:normal;font-variant-caps:normal;font-variant-ligatures:normal;font-variant-numeric:normal;font-variant-position:normal;isolation:auto;mix-blend-mode:normal;shape-padding:0;text-decoration-color:#000000;text-decoration-line:none;text-decoration-style:solid;text-indent:0;text-orientation:mixed;text-transform:none;white-space:normal"
       stroke-width=".17"
       solid-color="#000000"
       shape-rendering="auto"
       image-rendering="auto"
       enable-background="accumulate"
       dominant-baseline="auto"
       color-rendering="auto"
       color="#000000"
       d="m11.309 272.55c-1.0757 0-2.077 0.54276-2.6855 1.431-0.05417-6e-3 -0.10811-0.0113-0.16369-0.0113-0.78316 0-1.5364 0.52737-2.1193 1.0751-0.58293 0.54774-0.99562 1.1222-1.0818 1.2461l-3.4e-4 6.6e-4 -6.63e-4 6.6e-4c-1.5635 2.3405-2.2093 4.1088-2.2093 6.0702 0 0.12193 0.052397 0.23488 0.13912 0.31577l6.63e-4 3.3e-4 3.399e-4 3.4e-4c0.089968 0.0814 0.21064 0.11941 0.32937 0.10658 1.2356-0.12821 2.3077-1.0156 3.0719-1.9766-3.911e-4 0.0193-9.351e-4 0.0385-0.00133 0.0577-0.054399 2.6629-0.12338 5.4393 1.4005 6.9939h3.4e-4c0.77773 0.79235 1.8713 1.1767 3.3196 1.1767 1.4477 0 2.5422-0.3844 3.32-1.1754 1.5223-1.5557 1.4542-4.3292 1.3998-6.9925v-6.6e-4c-3.4e-4 -0.0203-6.8e-4 -0.0397-1e-3 -0.0597 0.7636 0.96124 1.8362 1.8503 3.0713 1.9776 0.12187 0.0151 0.24214-0.0251 0.33037-0.10658l3.39e-4 -3.4e-4c0.08631-0.0805 0.13979-0.19293 0.13979-0.31575 0-1.9633-0.64507-3.7316-2.2126-6.0781l-6.79e-4 -9.4e-4 -3.4e-4 -6.7e-4c-0.08426-0.1201-0.49677-0.69351-1.0794-1.2404-0.58266-0.54696-1.3362-1.0744-2.119-1.0744-0.05367 0-0.10788 6e-3 -0.16303 0.0113-0.60851-0.88621-1.6097-1.4304-2.6855-1.4304zm0 0.17c1.036 0 2.0045 0.52884 2.5785 1.3948l0.02889 0.0432 0.05179-6e-3c0.06914-8e-3 0.13016-0.013 0.18926-0.013 0.70499 0 1.4339 0.49456 2.0025 1.0283 0.56751 0.53273 0.97414 1.0966 1.0555 1.2126 1.5577 2.3318 2.1841 4.0576 2.1841 5.9838 0 0.0742-0.03042 0.13954-0.08533 0.19091-8.2e-5 8e-5 -1.7e-4 -7e-5 -3.4e-4 0-0.05291 0.0487-0.12245 0.0725-0.19457 0.0634l-1e-3 -3.4e-4h-1e-3c-1.2408-0.12738-2.3599-1.0864-3.1108-2.0948l-0.15672-0.2105 0.0037 0.26264c0.0013 0.10007 4e-3 0.19733 0.0053 0.2965v6.8e-4c0.0544 2.6633 0.09781 5.3893-1.351 6.8704-6.1e-5 7e-5 -3.41e-4 -6e-5 -3.41e-4 0-6.1e-5 7e-5 6.1e-5 2.7e-4 0 3.4e-4 -0.74134 0.75375-1.7808 1.1242-3.1984 1.1242-1.4185 0-2.4571-0.3706-3.1984-1.1259-1.4504-1.4796-1.4064-4.2085-1.352-6.8713 0.00204-0.0986 0.00394-0.19624 0.00597-0.29485 0.013478-0.29677 0.018561-0.28294-0.15307-0.0528-0.7516 1.0084-1.8698 1.9654-3.1114 2.0941h-3.4e-4c-0.070058 8e-3 -0.14344-0.0156-0.19623-0.0631-0.054499-0.051-0.084999-0.11716-0.084999-0.19092 0-1.9238 0.6269-3.6493 2.1798-5.9742l0.00101-9.5e-4c0.081975-0.1179 0.48986-0.68418 1.0578-1.2179 0.56882-0.53449 1.2975-1.0293 2.0028-1.0293 0.065313 0 0.12642 4e-3 0.18793 0.013l0.053125 8e-3 0.029882-0.0451c0.57403-0.868 1.5422-1.3952 2.5782-1.3952z" /><path
       id="path36"
       stroke-width=".18072"
       d="m9.5023 280.43c-0.19951 0-0.36143-0.1612-0.36143-0.36143v-1.4457c0-0.19878 0.16192-0.36143 0.36143-0.36143 0.19879 0 0.36143 0.16265 0.36143 0.36143v1.4457c0 0.20023-0.16264 0.36143-0.36143 0.36143z" /><path
       id="path38"
       stroke-width=".18072"
       d="m13.117 280.43c-0.19879 0-0.36143-0.1612-0.36143-0.36143v-1.4457c0-0.19878 0.16264-0.36143 0.36143-0.36143 0.19879 0 0.36143 0.16265 0.36143 0.36143v1.4457c0 0.20023-0.16264 0.36143-0.36143 0.36143z" /><path
       id="path40"
       stroke-width=".18072"
       d="m11.309 287.96c-0.09253 0-0.18505-0.0354-0.25589-0.10554l-1.5137-1.5122c-0.14168-0.13952-0.14168-0.36939-7.228e-4 -0.51107 0.14096-0.14096 0.32358 0.048 0.46382 0.18899l1.3301 1.3272 1.2356-1.2327c0.13951-0.14096 0.37011-0.42444 0.51107-0.28348 0.14096 0.14096 0.14096 0.37011-7.22e-4 0.51107l-1.5151 1.5122c-0.0694 0.0701-0.16192 0.10554-0.25445 0.10554z" /></g><g
     id="g52"
     fill="#0a425a"
     transform="matrix(.21674 0 0 .21674 52.077 3.1564)"><g
       id="g50"
       fill="#0a425a"><path
         id="path44"
         d="m126.68 55.16c-0.268-0.398-6.676-9.749-14.951-9.749-4.107 0-7.984 1.14-10.807 3.118-0.693-1.765-1.551-3.427-2.525-5 0.16-0.359 0.293-0.734 0.371-1.137 2.754-13.979 12.049-31.574 12.143-31.75 0.307-0.579 0.203-1.291-0.258-1.758s-1.17-0.579-1.754-0.28c-0.953 0.492-18.922 9.905-24.258 22.927-3.898-1.729-8.189-2.692-12.678-2.692-4.488 0-8.78 0.963-12.679 2.692-5.336-13.021-23.303-22.434-24.258-22.927-0.585-0.299-1.293-0.187-1.754 0.28s-0.564 1.179-0.257 1.758c0.093 0.176 9.389 17.771 12.142 31.75 0.079 0.402 0.212 0.777 0.371 1.137-0.974 1.573-1.832 3.235-2.525 5-2.822-1.979-6.698-3.118-10.807-3.118-8.274 0-14.683 9.351-14.951 9.749-0.343 0.507-0.343 1.171 0 1.678 0.269 0.398 6.677 9.749 14.951 9.749 3.28 0 6.379-0.705 8.954-2.014l3.471 25.98c0.04 10.755 6.555 20.229 14.064 25.797 1.115 7.173 10.052 18.071 12.133 20.526 0.283 0.334 0.697 0.527 1.135 0.53h0.01c0.434 0 0.846-0.188 1.131-0.516 2.18-2.508 11.484-13.582 12.336-20.685 7.43-5.585 13.834-14.989 13.875-25.653l3.471-25.98c2.574 1.309 5.674 2.014 8.953 2.014 8.275 0 14.684-9.351 14.951-9.749 0.344-0.506 0.344-1.17 0-1.677zm-20.705-41.365c-2.867 5.963-7.656 16.769-9.832 26.532-2.447-3.023-5.436-5.543-8.799-7.447 3.34-8.408 12.965-15.495 18.631-19.085zm-68.027-4e-3c5.668 3.587 15.299 10.673 18.636 19.087-3.364 1.904-6.353 4.424-8.801 7.449-2.177-9.766-6.966-20.575-9.835-26.536zm34.029 119.78c-3.683-4.542-7.721-10.463-9.507-14.799 3.048 1.666 6.106 2.646 8.842 2.783 0.198 0.096 0.417 0.154 0.651 0.154s0.453-0.059 0.651-0.154c2.822-0.141 5.99-1.178 9.135-2.94-1.746 4.306-5.985 10.394-9.772 14.956zm39.752-69.986c-3.531 0-6.904-0.983-9.252-2.699-0.426-0.313-0.986-0.375-1.473-0.169-0.486 0.208-0.828 0.657-0.898 1.182l-3.787 28.354c-0.01 0.065-0.014 0.132-0.014 0.198 0 14.469-13.443 26.786-22.842 28.021v-14.504h3.234c0.828 0 1.5-0.672 1.5-1.5s-0.672-1.5-1.5-1.5h-9.469c-0.828 0-1.5 0.672-1.5 1.5s0.672 1.5 1.5 1.5h3.234v14.504c-9.398-1.235-22.842-13.553-22.842-28.021 0-0.066-5e-3 -0.133-0.014-0.198l-3.787-28.355c-0.069-0.524-0.411-0.974-0.897-1.182-0.189-0.08-0.39-0.12-0.589-0.12-0.313 0-0.624 0.098-0.885 0.289-2.348 1.716-5.72 2.699-9.252 2.699-5.396 0-10.178-5.454-11.842-7.588 1.664-2.134 6.445-7.588 11.842-7.588 4.26 0 8.158 1.385 10.428 3.705 0.368 0.377 0.912 0.532 1.421 0.41 0.514-0.123 0.924-0.506 1.082-1.009 3.703-11.771 14.487-19.679 26.836-19.679 12.348 0 23.133 7.908 26.836 19.679 0.158 0.503 0.568 0.886 1.082 1.009 0.51 0.12 1.051-0.033 1.42-0.41 2.27-2.32 6.168-3.705 10.428-3.705 5.398 0 10.18 5.457 11.844 7.589-1.658 2.135-6.428 7.588-11.844 7.588z" /><circle
         id="circle46"
         r="3.917"
         cy="70.549"
         cx="52.245" /><circle
         id="circle48"
         r="3.917"
         cy="70.549"
         cx="92.172" /></g></g><g
     id="g66"
     stroke-width=".26458"
     fill-rule="evenodd"
     fill="#0a425a"
     clip-rule="evenodd"
     transform="matrix(.96806 0 0 .96806 56.045 -226.21)"><path
       id="path54"
       d="m-47.672 306.02c0.0058 2.0815 0.40508 3.8621 1.8293 5.2803 0.08625 0.0852 0.13838 0.20638 0.2286 0.28628 0.35983 0.31803 0.1524 0.61225-0.08467 0.82524-0.32861 0.29686-0.47863-0.095-0.63791-0.2667-1.8796-2.0328-2.3701-4.4879-2.1526-7.1557 0.0971-1.1904 0.19076-2.3812 0.27464-3.5724 0.05847-0.83238 0.31697-0.98055 1.0313-0.52229 1.316 0.84428 2.6038 1.733 3.7952 2.7485 0.38841 0.33152 0.65035 0.35534 1.1023 0.0505 3.8489-2.5942 9.3872-2.5871 13.265 0.0106 0.45244 0.30348 0.74401 0.25797 1.1224-0.0614 1.2189-1.0298 2.513-1.959 3.8645-2.8075 0.51858-0.32517 0.88503-0.28257 0.92604 0.41804 0.11033 1.865 0.32729 3.7346 0.27728 5.5959-0.05556 2.0574-0.62627 3.9873-2.3159 5.3988-0.2249 0.18812-0.34343 0.30137-0.58076 0.0434-0.21511-0.23204-0.31089-0.38577-0.01561-0.65511 2.1135-1.9259 2.2423-4.4286 2.0119-7.0329-0.06218-0.70168-0.10795-1.4052-0.1487-2.1085-0.02408-0.41619-0.10054-0.70326-0.5797-0.35269-0.98981 0.72338-1.9775 1.4497-2.9715 2.1654-0.28707 0.20691-0.33629 0.39873-0.06826 0.6612 0.19685 0.19209 0.37624 0.40508 0.54028 0.62574 0.14896 0.19976 0.43233 0.37915 0.06588 0.67098-0.34608 0.27543-0.51461 0.11615-0.73501-0.15504-1.479-1.8219-3.4391-2.8509-5.7094-3.2311-3.9785-0.66622-7.5642 0.0606-10.347 3.2483-0.24871 0.28522-0.42175 0.37254-0.73581 0.12674-0.37015-0.28998-0.06006-0.47572 0.08281-0.67363 0.76835-1.065 0.77655-1.0697-0.2794-1.846-0.7403-0.54425-1.4991-1.0639-2.2453-1.5999-0.3773-0.27067-0.53658-0.16854-0.56436 0.28125-0.07726 1.2536-0.16933 2.5059-0.245 3.6036z" /><path
       id="path56"
       d="m-33.608 315.36c-1.4137-1.2811-2.8705-0.99642-4.2902-0.87418 1.1292-1.4883 6.6315-1.3023 8.0537 0.36247-0.92207-0.13493-1.6984-0.47889-2.5069-0.70352-0.79137-0.22014-1.6021-0.36036-2.5342-0.0489 0.46302 0.37703 0.92684 0.53128 1.3817 0.68924 0.80645 0.28257 1.6357 0.50297 2.4278 0.81836 1.402 0.558 1.8531 1.6732 1.3404 3.1239-0.38126 1.0803-1.1795 1.7621-2.1407 2.2963-0.24738 0.13758-0.53128 0.28549-0.7321-0.0198-0.195-0.2966 0.01429-0.52361 0.25929-0.68422 0.60537-0.39714 1.0885-0.88767 1.32-1.5944 0.21643-0.66092 0.06429-1.1742-0.508-1.6087-1.7243-1.3076-5.5052-1.4242-7.2628-0.19844-0.84931 0.59267-0.98346 1.2346-0.43074 2.1238 0.42783 0.68924 1.0345 1.2057 1.6743 1.6867 0.28125 0.2114 0.58261 0.44873 0.26591 0.81677-0.29422 0.34184-0.56462 0.0204-0.79005-0.14367-0.79878-0.57944-1.5282-1.2335-1.9995-2.1222-0.63474-1.1972-0.38232-2.2958 0.75433-3.0308 1.4782-0.95673 3.1324-1.153 4.8493-0.99668 0.20717 0.0188 0.41328 0.0513 0.86863 0.10795z" /><path
       id="path58"
       d="m-41.018 311.17c-0.5932-0.0595-0.96308-0.42148-0.96626-0.93239-0.0029-0.46726 0.2204-0.96732 0.80142-1.0647 0.51567-0.0865 1.197 0.50906 1.1808 1.0202-0.02064 0.65881-0.57256 0.77602-1.016 0.97684z" /><path
       id="path60"
       d="m-30.166 311.17c-0.5932-0.0595-0.96335-0.42148-0.96626-0.93239-0.0032-0.46726 0.22013-0.96732 0.80142-1.0647 0.51567-0.0865 1.1967 0.50906 1.1808 1.0202-0.02064 0.65881-0.57256 0.77602-1.016 0.97684z" /><path
       id="path62"
       d="m-37.975 319.12c-0.28072-0.56277-0.48181-1.1036 0.06165-1.5838 0.28258-0.25003 0.54451-0.0537 0.66569 0.21511 0.32967 0.73104-0.20849 1.0308-0.72734 1.3687z" /><path
       id="path64"
       d="m-31.808 318.14c-0.0045 0.29898-0.01958 0.76597-0.31697 0.72999-0.39423-0.0474-0.7784-0.35957-0.74692-0.89482 0.01931-0.33417 0.10689-0.64056 0.50959-0.62177 0.48604 0.0217 0.576 0.37756 0.5543 0.7866z" /></g><g
     id="g78"
     fill="#0a425a"
     transform="matrix(.17944 0 0 .17944 48.997 48.197)"><path
       id="path68"
       d="m118.73 97.99c-1.406 1.3842-3.8572 2.7798-5.8942 6.6263-1.1244 0.84161-2.3389 1.7358-3.6278 2.7452-10.168 7.9049-16.797 20.868-18.975 33.831-1.3008 7.601-1.081 14.996-0.10783 21.517 0.99233 6.5373 2.6676 12.244 4.3385 16.907 2.283 6.3646 4.509 10.869 6.2263 14.728-11.122-27.978-11.307-65.733 10.905-87.031-0.82978 2.2091-1.2207 4.4046-1.3509 6.6688-7.617 13.198-8.5786 27.15-1.7563 41.922-4.6372-11.17-3.1926-23.759 2.2199-34.705 0.33807 2.0776 0.49043 2.7154 0.76325 4.1579-0.32761 0.13418-0.66268 0.27378-1.0076 0.42043-0.24249 0.20853 1.2432 2.4517 1.5934 3.108-3.3248 8.5098-3.3121 16.02-1.5326 24.79-3.1225 15.307-1.1891 18.451 3.1886 24.089 9.9868 12.575 13.759 11.011 15.148 22.17 0.52582 4.1696 1.3273 5.5582 1.6517 8.21-0.66458-0.0664-0.60193-0.0543-2.2637-0.0501-0.17091 0.29453-3.0654 7.085-4.6162 14.448-1.6276 7.6474-1.5181 6.3249 5.4172 15.472 4.7044 6.1052 3.6735 18.224 13.419 18.909 4.8528 0.3205 9.5534-4.0469 14.771-3.1362 6.2831 1.0523 12.313 6.5098 18.177-0.0308 3.1896-3.5943 2.5017-6.7316 6.1159-14.336 7.1096-9.2374 7.6286-9.6927 7.3108-12.308-0.8593-6.6887-4.2481-16.986-5.4269-19.017-1.5378-4e-3 -1.5519-0.0211-2.2638 0.0501 0.38033-3.1094 1.4284-4.6609 1.8342-10.054 2.2743-9.7789 6.02-9.0623 14.965-20.326 3.541-4.5605 6.579-8.119 3.5197-22.554-1.2482-5.7363-1.8268-17.25-1.8828-23.114 0.53101 1.3291 0.98228 2.634 1.3667 3.8934 0.83446 7.2414 0.22881 12.657 0.22742 12.731 0.40338-3.2497 0.701-5.4298 0.91466-8.441 1.3458 5.796 1.8332 10.942 1.8439 11.017-0.21802-7.0787-0.38055-13.231-1.7416-18.983-0.19052-3.7366-0.6918-6.8446-1.4652-9.8222 1.6216-9.0373 1.1404-15.67-7.3974-25.846-0.82788-0.98356-1.7938-2.0122-2.887-3.0431 1.3958-7.8415 7.13-11.109 11.292-17.276 4.7869-7.1853 6.0163-17.309-0.89381-30.153-0.72768-1.3398-1.4214-2.5133-2.0525-3.5482-0.70168-1.1433-1.581-2.285-2.7559-2.9704-0.87483-0.92283-1.8463-1.5636-3.1819-1.5943-2.7327-0.09773-3.7849 3.7825-4.8778 5.3797-1.3294 1.9987-4.1119 2.7059-7.011 5.4862-6.4617 6.178-9.9593 21.485-10.038 24.714-2.5561-1.4386-10.509-4.5846-14.748-10.207 0.0564-0.36348 0.0831-0.53581 0.0956-0.61583-0.0171 0.07595-0.0546 0.24024-0.13 0.5718-0.11305-0.15127-0.20227-0.2793-0.27733-0.39395 0.14362-0.3326 0.17442-0.37356 0.20972-0.44883-0.0467 0.07434-0.27934 0.44442-0.23262 0.37008-0.0143-0.05163-0.0235-0.08246-0.0235-0.08246 5e-3 0.01646 0.0138 0.049 0.0233 0.08273-4e-3 0.0063-0.0114 0.01601-0.0156 0.02251-0.0255-0.04026 0.0919 0.14582-0.24771-0.39286 0.0354 0.07532 0.0783 0.14071 0.20972 0.44765-3.6502 5.5401-12.951 9.4411-15.06 10.638-0.0868-3.4596-3.7325-20.46-12.174-26.466-1.9475-1.3659-3.8924-2.2488-4.8745-3.7254-0.91697-1.3401-1.5551-3.6064-3.1089-4.7977-1.168-0.91493-3.1552-0.88211-4.9511 1.0123-1.7966 1.0494-3.0359 3.2554-4.8082 6.5185-6.9223 12.866-5.6852 22.961-0.89381 30.153 3.8222 5.6637 8.7566 8.6722 10.78 15.173-5.9604 4.1339-8.4256 7.6857-10.85 12.383 2.6487-4.3342 6.8339-7.0626 11.441-9.3788-1.7894 2.6886-1.9615 2.8949-2.5639 3.486zm11.216-5.1804 4e-3 0.0074-4e-3 -0.0076c0.26416-1.1976 0.55502-2.1506 0.62282-2.3957 5.6542-2.3936 11.04-4.9185 15.509-9.032-4.6376 6.9054-8.4176 7.2787-16.348 12.516 0.0702-0.4099 0.12831-0.692 0.21548-1.0881zm25.025-27.751c0.0151 0.27753 0.0237 0.69497 0.0153 0.97778-0.60379 1.3011-1.145 2.2267-1.9191 3.4138 1.4084-3.9013 0.48709-1.2761 1.9038-4.3916zm1.0994-1.351c-0.0199-0.07053-0.0408-0.14467-0.0579-0.20561 0.0223 0.05217 0.0449 0.10461 0.0689 0.16058-4e-3 0.01537-7e-3 0.0293-0.011 0.04503zm0.0337 0.34232c0.30341 1.5601 0.32884 3.1399 0.26633 4.6568-0.325-1.6032-0.40027-3.4728-0.26633-4.6568zm32.03 30.906c0.37697 0.60435 0.83308 1.1978 1.2279 1.861 0.65013 1.0999 0.67412 1.3768 1.3684 2.6017 1.8909 3.3694 4.075 5.559 6.4073 13.887-11.202-20.683-33.149-17.518-38.215-27.751-1.3145-2.5889-1.7139-5.602-1.8444-8.507 5.4479 12.237 17.387 9.373 31.056 17.909zm-2.1393 13.794c-8.5364-6.5573-13.264-6.7546-20.532-13.525 11.825 5.9013 23.284 8.415 30.85 24.086-0.91932-1.3112-6.4226-7.567-10.319-10.561zm9.6146 15.849c-0.79832-0.0412-1.8912-0.0966-2.6824-0.19277 0.55688-0.47903 1.0784-0.936 1.5729-1.3734 0.38535 0.52008 0.75486 1.0425 1.1095 1.5662zm-1.7716 0.84937c0.0151-0.0118 0.0311-0.0286 0.0458-0.0391-2e-3 5e-3 -0.0142 0.0183-0.0458 0.0391zm-6.9098 3.7624c0.12059 1.3074 0.70609 2.0019 1.2976 2.7747-4.5152 0.86282-7.33 2.7199-7.7882 2.8915-0.0378-0.0121-0.0769 0.0508-0.10896 0.0575-0.0263-0.0244-0.0549-0.0463-0.0885-0.0608-0.0324-0.0427-0.0693-0.0631-0.11696-0.0857-0.0955-0.0824-0.43134-0.22287-0.50902-0.25696 2.4673-1.7982 4.7042-3.3619 7.314-5.3203zm8.6142-1.0872c-0.11757-0.63584-0.53792-1.2096-1.6563-2.7163 0 0 2e-3 -2e-3 4e-3 -3e-3 0.23523-0.18536 0.39708-0.19892 0.39708-0.19892-0.42744-0.0961-1.2959-0.35208-1.8778-0.35733 0.13055-0.11085 0.26428-0.22297 0.39168-0.33237 1.068 0.42524 3.8671 1.8263 3.9518 1.8709 0.0622 0.10343 0.11621 0.20669 0.17731 0.30994-0.14337 0.0865-1.3181 1.3526-1.3874 1.427zm-36.744-37.79c8.9318 16.429 21.724 15.391 34.469 31.112-1.208 0.49747-2.5468 1.0591-3.9783 1.7186-7.5839-5.1787-21.458-16.477-28.02-26.295-4.5606-6.7612-6.7099-13.983-6.743-18.769 0.31779 1.6754 0.66351 3.1227 1.1162 4.6243 0.3626 2.87 1.2725 5.3538 3.1564 7.6088zm-3.8952-23.386c-0.28596 2.4001-1.3903 4.793-2.492 6.926 0.0724-0.30235 0.91192-1.8926 2.492-6.926zm-17.726 26.35c7.1305-4.7096 9.3845-7.2412 13.28-16.962 0.5647-0.81991 1.0664-1.6282 1.5043-2.4094-9.2019 24.825-27.442 35.307-35.482 46.736-1.0594-0.42941-2.4154-0.97376-3.357-1.4138 0.60624-2.8689 0.81855-3.6351 0.84892-3.7652 5.8315-8.9465 14.013-16.179 23.205-22.186zm-24.658 31.68c-0.0862-0.44087-0.16875-0.85136-0.24864-1.2452 0.20919-1.2514 0.48936-2.7449 0.81055-4.2796 0.79474 0.64259 1.7872 1.5346 2.6585 2.3123-1.053 1.6029-1.4076 2.2903-1.7736 2.9767-0.46877 0.0731-1.1863 0.18329-1.4468 0.2358zm5.2628 0.43166c0.0145 0.0105 0.0305 0.0271 0.0456 0.0389-0.0315-0.0206-0.0441-0.034-0.0456-0.0389zm1.4749-0.56113c-0.37804 3e-3 -1.1515 0.16692-1.4756 0.2595 0.0399-0.0566 0.0784-0.11338 0.11864-0.16998 0.32394-0.14922 0.55932-0.26014 0.96514-0.42189 0.1274 0.1094 0.26131 0.22152 0.39187 0.33237zm-1.618 0.4633c0.0888 0.0529 0.0777 0.0506 0.14063 0.0958-0.40469 0.69843-1.4703 1.7152-1.6563 2.7163-0.0603-0.0647-0.12013-0.12749-0.18029-0.19151 0.96139-1.629 1.5171-2.3632 1.696-2.6206zm7.0987 3.8993c2.5966 1.9489 4.8431 3.5195 7.314 5.3203-0.0765 0.0335-0.41171 0.17294-0.50902 0.25696-0.0477 0.0226-0.0847 0.043-0.11696 0.0857-0.0335 0.0145-0.0622 0.0363-0.0885 0.0608-0.0322-7e-3 -0.0711-0.0696-0.10896-0.0575-0.3002-0.11243-3.404-2.0537-7.7884-2.8915 0.63101-0.82332 1.179-1.4872 1.2978-2.7747zm-5.9991-4.8046c-0.14546 0.0177-0.31812 0.0351-0.50343 0.0513 0.0726-0.0987 0.14732-0.19747 0.22089-0.29602 0.0948 0.0819 0.18587 0.16166 0.28254 0.24467zm-8.2017 29.214c-0.88042-5.6195-0.23685-11.358 1.416-16.673-0.13611 3.3523-0.66043 12.929-1.416 16.673zm20.186 54.322c0.0244 0.077 0.0499 0.15678 0.0728 0.22966-0.0233-2e-3 -0.0462-5e-3 -0.0695-7e-3 -1e-3 -0.0765-2e-3 -0.1434-3e-3 -0.22279zm26.525 45.522c-2.8439 0.37979-4.6302-0.64644-9.9049-0.3349-5.1636 0.27974-6.7407-0.0912-10.3-6.603 10.96 3.3936 14.735-2.1588 18.701-0.55896-0.0173 0.0177-0.16231 0.15678-0.2166 0.20886 0 0 0.10654-0.0781 0.30656-0.16872 0.20003 0.0906 0.30656 0.16872 0.30656 0.16872-0.0543-0.0521-0.19928-0.19115-0.2168-0.20886 4.096-1.6525 7.6256 3.9907 18.701 0.55896-5.2083 9.5314-6.1454 5.5561-17.376 6.9379zm23.693-45.299c-0.0231 2e-3 -0.0462 5e-3 -0.0693 7e-3 0.0227-0.0727 0.0482-0.15245 0.0726-0.22929-1e-3 0.0792-2e-3 0.14609-3e-3 0.22242zm16.96-40.609c-0.18607 3.251-1.4641 5.2984-6.6962 11.932 1.495-6.6432-2.7323-10.999-5.461-23.25-0.84195-3.78-0.70485-5.3853-0.7124-5.4692-0.0162 0.0756-0.93362 4.4742-1.0871 5.523-2.209 14.413 5.2247 16.326 4.5003 26.652-2.7689 3.4571-4.5278 5.5032-5.6448 7.9856-1.2438-10.184-5.6861-16.746-10.432-25.183 0.0859 0.31635 0.34016 0.53212 1.6699 6.5223 3.0933 14.285 7.1342 28.602 6.4958 35.937-0.65526 0.0609-1.1035 0.12201-1.0849 0.11971-2.6559 0.35176-4.473 0.57704-8.4369 1.2326-7.6191 1.2928-5.3366-6e-4 -10.166 9.1345 0.0566-0.0746 4.258-5.8372 5.0664-6.3433 0.74089-0.45758 2.007 0.0951 14.41-0.0589l9e-3 -0.0123c0.0102-0.0116 0.0216-0.0445 0.0265-0.0394 0.0102 0.0206 9e-3 0.0436 5e-3 0.0577 5.5018 17.871 5.0947 15.711 3.8606 18.199-2.2446 4.607-3.5909 7.5613-4.3405 9.1782-2.5329 2.4553-3.6317 3.9911-4.6924 5.8397-4.6095-1.3791-13.898-5.3064-19.357 0.36258-2.2477-2.3342-5.1311-3.0459-8.3808-2.938-5.043 0.18425-8.8686 1.9449-10.976 2.5754-1.3595-2.3694-2.6649-3.8744-4.6922-5.8397-5.959-12.854-5.5589-10.303-4.7212-13.256 1.9879-6.8599 3.0272-10.178 4.2413-14.122-4e-3 -0.0141-5e-3 -0.0371 5e-3 -0.0577 5e-3 -5e-3 0.0162 0.0279 0.0265 0.0394l9e-3 0.0123c16.541 0.20546 13.501-1.2356 16.156 2.0595 3.807 4.8156 2.6007 3.3931 3.3202 4.3427-3.6305-6.902-3.5734-7.7427-5.2667-8.2366-1.7161-0.48082-11.877-2.0129-14.421-2.2501-0.49486-5.2482 1.7964-15.364 2.9614-20.393 4.1722-17.704 2.8734-13.479 5.2044-22.066-4.7569 8.4573-9.1739 14.893-10.432 25.183-1.1653-2.5898-3.1202-4.8331-5.6448-7.9858-0.80347-11.453 7.8696-11.647 3.6984-30.713-0.0957-0.47217-0.18904-0.83528-0.22741-1.0832-0.0451-0.24756-0.0576-0.3783-0.0576-0.3783-1.3731 15.233-7.9543 20.805-6.1734 28.72-5.7635-7.3057-6.5318-9.058-6.6962-11.932-0.64796-13.96 3.1742-11.782-0.0386-35.305 0.0387-0.0866 0.0758-0.17307 0.1151-0.25986 4.1009 6.5549 2.9626 2.968 16.457 3.882 1.1538 0.0943 0.83273 0.16602 1.4233-0.0206 0.17014-0.24817 0.0859-0.40938 0.74518-1.019 3.0205 2.214 6.8644 5.1487 8.98 8.1721 0.29018 0.41411 0.4971 0.74847 0.61909 0.9832 0.12851 0.23218 0.1857 0.35876 0.1857 0.35876s-0.0553-0.12694-0.14063-0.3774c-0.0862-0.26041-0.2086-0.63112-0.3658-1.1064-0.16557-0.4801-0.35852-1.079-0.63008-1.7606-3.6269-9.4579-11.631-14.965-21.053-18.963 8.2488-9.8589 18.173-14.943 26.709-32.315-0.42482 11.277 7.2861 18.299 7.8601 19.245-0.0411-0.0744-1.1194-1.6193-1.7977-3.534-0.47311-1.1659-0.96075-2.8608-1.2609-4.219-1.733-9.6125-0.62869-13.909 2.0303-22.713-0.43752 3.052-0.35574 5.7854 0.0732 8.681 3.4916 21.211 23.223 29.224 35.535 35.915-16.761 7.7441-17.89 17.269-19.798 21.147 0.30475-0.34276 0.63188-2.8051 9.7848-9.514 0.63077 0.58327 0.59735 0.80334 0.74518 1.019 0.98401 0.31096 0.93964-0.42505 11.461 0.1152 3.2493 0.19241 3.7143 0.43237 6.6122-4.295-3.3067 23.422 0.51608 22.26-0.11623 35.883zm-7.3919-122.95c0.662-1.8887 0.67885-3.8935 1.5107-5.0215 0.63512-0.86642 1.9686-0.84122 2.964-0.39648-0.24373-0.0762-0.3224-0.08683-0.57867-0.14937 2.7543 0.77451 3.5209 3.507 4.7609 7.7922 8.5332 29.549-9.4926 29.674-9.5697 45.993-2.6805-2.3745-5.4128-4.1618-8.4751-5.6064-0.0223-0.06022-0.0462-0.1237-0.0689-0.18481 2.126-8.6696-1.8635-17.103-2.5356-25.872 6.8638-13.576 10.377-11.986 11.992-16.554zm-15.082 22.353c-0.24486 5.6538 1.3697 10.027 3.2363 14.688-1.684-3.0431-3.7932-5.5108-6.7974-7.4386 0.65039-2.4071 2.208-4.8516 3.5611-7.249zm-5.7542 11.229c3.062 2.0619 5.6009 4.7997 7.9703 7.5999-8.7138-3.1101-17.107-3.8439-20.672-14.751-0.0571-2.3574-0.22673-4.8431-0.84763-7.1417 4e-3 -0.03518 8e-3 -0.07279 0.0125-0.10633 4.3031 9.9853 9.2031 11.38 13.537 14.399zm-13.839-15.1c0.16411 0.3811 0.12778 0.25942 0.21922 0.69829-0.7907 3.193-0.89604 6.5182-0.12143 9.824-0.29567 2.4976-0.52469 4.5484-0.44905 7.0386-1.1394-2.9156-0.98428-3.35-0.9659-4.106 0.25633-3.3823 1.3339-6.1693 0.63251-10.443 0.31096-1.092 0.23729-0.84017 0.45091-1.5595-0.26587 0.70656-0.29509 0.80162-0.50175 1.2601-0.0448-0.24725-0.0885-0.50023-0.12106-0.74911 0.17022-0.37458 0.57385-1.3022 0.85655-1.9631zm-2.7997 5.5606c-1.3739 2.9047-1.3082 2.7072-2.0014 3.5541-4.1875 5.1054-8.911 8.0925-14.828 11.052 7.2668-7.8136 11.663-6.5323 16.83-14.606zm-13.234 5.5558c-2.3609 1.5161-4.2091 3.4284-5.7166 5.7158 1.3638-4.4752 2.2209-8.8014 1.893-13.426 0.31158 0.55661 3.1543 5.2382 3.8235 7.7099zm-27.299-27.373c0.9294-3.2118 1.7743-6.957 4.7609-7.7922-0.25512 0.06226-0.3348 0.0731-0.57887 0.14946 0.99538-0.44492 2.3291-0.47001 2.9642 0.39639 1.7483 2.3707-0.2496 4.6885 4.5502 9.0814 4.9146 4.3953 5.7362 6.1488 9.1167 12.819-0.42303 7.5986-4.2082 15.818-4.5717 25.399-2.4195 1.2071-4.6026 2.3732-6.8044 3.7954-1.6273-14.025-17.443-16.125-9.437-43.848zm10.194 46.994c2.1039-0.99659 3.9588-1.7669 6.1293-2.6742 0.0738 0.95881 0.19258 2.0042 0.36412 3.1089-3.9484 2.6591-7.3167 5.4806-10.248 8.4533 1.7892-2.6538 2.6635-3.1764 3.7546-8.888z" /><path
       id="path70"
       d="m141.43 228.41c-0.49654-0.93039-1.0287-1.7235-1.5187-2.448-0.49095-0.72279-0.94447-1.3756-1.3231-2.0015-0.3835-0.62172-0.68001-1.2253-0.91821-1.8344-0.46674-1.2138-0.70403-2.3181-0.82509-3.0657-0.1246-0.75372-0.11714-1.1704-0.11714-1.1704s-0.0361 0.41284-0.21289 1.16c-0.0223 0.10489-0.0534 0.23148-0.0812 0.34938-0.011-0.20326-0.017-0.39314-0.0121-0.54974 0.0155-0.4604 0.0995-0.69421 0.0995-0.69421s-0.10281 0.21971-0.41013 0.58499c-0.34557 0.49901-2.335 2.4786-2.7962 5.4391-2.0939 3.3451-2.1288 8.2083 0.79547 10.824 0.93881 2.7003 2.8462 3.8165 4.5996 3.7445 0.8735-0.0203 1.8865-0.44504 2.5296-1.1141 0.6543-0.65028 1.0048-1.3984 1.2127-2.0671 0.41272-1.2732 0.42297-2.6597 0.17526-3.8972-0.24677-1.2467-0.70104-2.3188-1.1974-3.2597zm-3.2845 6.6028c6e-3 0.0109 2e-3 7e-3 0.0177 0.0228 0.0363 0.0392 0.051 0.0514 0.0751 0.0821 0.0121 0.0145 9e-3 0.0128 0.0168 0.0231-3.7e-4 4e-3 9.3e-4 7e-3 1.8e-4 0.0109-7e-3 0.0602-0.11771 0.11754-0.29073 0.1199 2e-3 -0.0615 3e-3 -0.1246 5e-3 -0.1812 4e-3 -0.19458 0.0851-0.42767 0.12646-0.61954 0.0218-0.10182 0.0628-0.21248 0.10448-0.32315-6e-3 0.12984 4e-3 0.26907-0.0112 0.39368-0.0197 0.26744-0.0665 0.41918-0.0434 0.47144z" /><path
       id="path72"
       d="m155.77 170.19s-0.0481 0.58012-0.2643 1.6237c-4.1889 19.47-2.7909 22.638 0.31886 39.985 1.2157-12.469 2.9368-17.172 0.52708-35.486-0.71648-5.5345-0.56334-5.8926-0.58164-6.1223z" /><path
       id="path74"
       d="m177.54 235c2.9616-2.6476 2.8515-7.5457 0.79565-10.824-0.46675-2.9962-2.2544-4.6257-3.2063-6.0243 7e-3 0.0747 0.13818 0.30402 0.0874 1.2441-0.32088-1.3633-0.26102-1.3368-0.2941-1.5096 0 0 7e-3 0.41664-0.11714 1.1704-0.75539 4.6646-2.7747 5.9573-4.5851 9.3495-4.904 9.2959 4.6164 14.369 7.3196 6.5936zm-3.8541 0.268c-0.1732-2e-3 -0.28421-0.0597-0.29091-0.1199-7.5e-4 -4e-3 5.5e-4 -7e-3 1.8e-4 -0.0107 0.18462-0.25543 0.10457 0.12111 0.055-0.99332 0.0419 0.11049 0.22378 0.72799 0.23578 1.1239z" /><path
       id="path76"
       d="m106.62 119.91c0.99699-2.4677 1.6692-3.7827 1.6692-3.7827-9.208 17.303-14.46 33.044-10.558 53.809 3.5192 18.394 10.414 29.455 22.042 44.934-3.9015-6.538-9.9284-15.551-13.724-28.748-6.7477-22.915-8.3479-43.996 0.57029-66.213z" /></g></svg>
