<?xml version="1.0" encoding="UTF-8" standalone="no"?>
<svg
   xmlns:dc="http://purl.org/dc/elements/1.1/"
   xmlns:cc="http://creativecommons.org/ns#"
   xmlns:rdf="http://www.w3.org/1999/02/22-rdf-syntax-ns#"
   xmlns:svg="http://www.w3.org/2000/svg"
   xmlns="http://www.w3.org/2000/svg"
   xmlns:sodipodi="http://sodipodi.sourceforge.net/DTD/sodipodi-0.dtd"
   xmlns:inkscape="http://www.inkscape.org/namespaces/inkscape"
   height="100px"
   width="100px"
   fill="#000000"
   version="1.1"
   x="0px"
   y="0px"
   viewBox="0 0 95 95"
   enable-background="new 0 0 95 95"
   xml:space="preserve"
   id="svg14"
   sodipodi:docname="email.svg"
   inkscape:version="0.92.4 (5da689c313, 2019-01-14)"><metadata
     id="metadata20"><rdf:RDF><cc:Work
         rdf:about=""><dc:format>image/svg+xml</dc:format><dc:type
           rdf:resource="http://purl.org/dc/dcmitype/StillImage" /><dc:title></dc:title></cc:Work></rdf:RDF></metadata><defs
     id="defs18" /><sodipodi:namedview
     pagecolor="#ffffff"
     bordercolor="#666666"
     borderopacity="1"
     objecttolerance="10"
     gridtolerance="10"
     guidetolerance="10"
     inkscape:pageopacity="0"
     inkscape:pageshadow="2"
     inkscape:window-width="1920"
     inkscape:window-height="1016"
     id="namedview16"
     showgrid="false"
     inkscape:zoom="2.36"
     inkscape:cx="50"
     inkscape:cy="50"
     inkscape:window-x="0"
     inkscape:window-y="27"
     inkscape:window-maximized="1"
     inkscape:current-layer="svg14" /><circle
     style="fill:#cccccc;fill-opacity:0.94117647;stroke-width:0.94999987;image-rendering:optimizeQuality;shape-rendering:geometricPrecision;text-rendering:geometricPrecision"
     id="path815"
     cx="47.5"
     cy="47.5"
     r="47.502426" /><g
     id="g12"
     style="fill:#0a425a;fill-opacity:1"
     transform="matrix(0.76427145,0,0,0.76427145,11.197106,7.397106)"><polygon
       points="86.776,83.738 86.776,41.926 60.025,62.832 "
       id="polygon2"
       style="fill:#0a425a;fill-opacity:1" /><path
       d="m 48.644,71.725 c -0.336,0.263 -0.739,0.394 -1.143,0.394 -0.404,0 -0.809,-0.131 -1.145,-0.394 L 37.993,65.189 8.224,88.453 v 0.032 H 86.776 V 88.453 L 57.008,65.189 Z"
       id="path4"
       style="fill:#0a425a;fill-opacity:1"
       inkscape:connector-curvature="0" /><polygon
       points="8.224,41.926 8.224,83.738 34.975,62.832 "
       id="polygon6"
       style="fill:#0a425a;fill-opacity:1" /><path
       d="m 43.84,39.806 c 0,1.716 0.769,2.799 2.258,2.799 1.672,0 3.432,-2.123 3.839,-4.743 l 0.632,-4.291 c -0.36,-0.09 -0.812,-0.18 -1.398,-0.18 -2.982,0.001 -5.331,2.936 -5.331,6.415 z"
       id="path8"
       style="fill:#0a425a;fill-opacity:1"
       inkscape:connector-curvature="0" /><path
       d="M 86.776,37.209 47.5,6.515 8.224,37.209 47.5,67.904 Z m -54.544,2.414 c 0,-9.213 6.684,-17.209 16.894,-17.209 7.949,0 13.641,5.466 13.641,13.056 0,6.594 -3.704,10.749 -8.583,10.749 -2.122,0 -3.66,-1.083 -3.884,-3.478 h -0.09 c -1.401,2.304 -3.434,3.478 -5.828,3.478 -2.937,0 -5.06,-2.168 -5.06,-5.872 0,-5.51 4.067,-10.525 10.571,-10.525 1.986,0 4.246,0.496 5.376,1.129 l -1.355,8.357 c -0.453,2.666 -0.136,3.886 1.129,3.93 1.942,0.045 4.381,-2.439 4.381,-7.635 0,-5.872 -3.794,-10.434 -10.795,-10.434 -6.911,0 -12.965,5.421 -12.965,14.049 0,7.543 4.835,11.835 11.564,11.835 2.303,0 4.742,-0.499 6.551,-1.445 l 0.812,2.619 c -2.711,1.219 -5.06,1.626 -8.267,1.626 -7.498,10e-4 -14.092,-5.374 -14.092,-14.23 z"
       id="path10"
       style="fill:#0a425a;fill-opacity:1"
       inkscape:connector-curvature="0" /></g></svg>