<?xml version="1.0" encoding="UTF-8" standalone="no"?>
<svg
   xmlns:dc="http://purl.org/dc/elements/1.1/"
   xmlns:cc="http://creativecommons.org/ns#"
   xmlns:rdf="http://www.w3.org/1999/02/22-rdf-syntax-ns#"
   xmlns:svg="http://www.w3.org/2000/svg"
   xmlns="http://www.w3.org/2000/svg"
   xmlns:sodipodi="http://sodipodi.sourceforge.net/DTD/sodipodi-0.dtd"
   xmlns:inkscape="http://www.inkscape.org/namespaces/inkscape"
   height="100px"
   width="100px"
   fill="#000000"
   xml:space="preserve"
   version="1.1"
   style="shape-rendering:geometricPrecision;text-rendering:geometricPrecision;image-rendering:optimizeQuality;"
   viewBox="0 0 60000 60000"
   x="0px"
   y="0px"
   fill-rule="evenodd"
   clip-rule="evenodd"
   id="svg10"
   sodipodi:docname="enpratique.svg"
   inkscape:version="0.92.4 (5da689c313, 2019-01-14)"><metadata
     id="metadata14"><rdf:RDF><cc:Work
         rdf:about=""><dc:format>image/svg+xml</dc:format><dc:type
           rdf:resource="http://purl.org/dc/dcmitype/StillImage" /><dc:title></dc:title></cc:Work></rdf:RDF></metadata><sodipodi:namedview
     pagecolor="#ffffff"
     bordercolor="#666666"
     borderopacity="1"
     objecttolerance="10"
     gridtolerance="10"
     guidetolerance="10"
     inkscape:pageopacity="0"
     inkscape:pageshadow="2"
     inkscape:window-width="1920"
     inkscape:window-height="1016"
     id="namedview12"
     showgrid="false"
     inkscape:zoom="2.36"
     inkscape:cx="50"
     inkscape:cy="50"
     inkscape:window-x="0"
     inkscape:window-y="27"
     inkscape:window-maximized="1"
     inkscape:current-layer="svg10" /><defs
     id="defs4"><style
       type="text/css"
       id="style2">
   
    .fil0 {fill:#000000;fill-rule:nonzero}
   
  </style></defs><g
     id="g8"
     style="fill:#1a5772;fill-opacity:1"><path
       class="fil0"
       d="M31679.15 5920c9.98,-0.46 19.54,-0.61 29.52,-0.57 6.04,0.11 12.1,0.39 18.15,0.77 76.26,4.84 147.19,31.34 206.27,73.7 6.57,4.58 13.29,9.82 19.5,14.89 22.15,17.99 42.03,38.06 59.45,59.82l5.64 7.23c43.45,56.71 72.09,125.65 79.79,201.34 1.61,16.44 2.14,31.75 2.06,48.28 -0.11,6.05 -0.38,12.1 -0.76,18.16 -3.7,58.27 -20.04,113.44 -46.45,162.58 -961.22,1892.22 -1941.59,3802.98 -2901.01,5568.77 -979.44,1802.62 -1965.53,3511.14 -2940.91,5003.76 -362.01,553.97 -807.36,1089.52 -1310.98,1589.14 -511.62,507.56 -1088.35,982.1 -1703.04,1404.64 -606.77,433.81 -1249.49,814.23 -1901.07,1122.18 -641.37,303.13 -1296.66,539.23 -1940.86,690.71 -1735.72,408.11 -3678.06,752.69 -5706.6,1058.95 -1987.08,299.98 -4117.59,570.25 -6224.15,828.83 -55.19,8.07 -112.62,4.62 -168.67,-11.77 -5.83,-1.7 -11.61,-3.51 -17.33,-5.47 -15.57,-5.56 -29.78,-11.28 -44.69,-18.39 -68.52,-33.06 -123.56,-83.48 -162.08,-143.65l-4.87 -7.76c-14.52,-23.8 -26.61,-49.34 -35.97,-76.3 -2.65,-7.55 -5.29,-15.67 -7.35,-23.4 -19.69,-69.98 -20.41,-145.69 1.03,-219.03 1.7,-5.83 3.52,-11.61 5.47,-17.34 1439.96,-4026.26 3719.67,-8699.31 5438.49,-12717.89 -863.65,17.08 -1776.16,125.41 -2608.43,466.16 -1002.85,410.58 -1906.12,1169.1 -2490.93,2536.54l-5353.94 12517.43c1807.66,-264.38 3815.08,-514.3 5875.94,-770.87 4451.48,-554.19 9154.47,-1139.7 12840.88,-2006.47 579.48,-136.26 1175.11,-350.95 1768.81,-631.57 612.71,-289.59 1217.86,-646.08 1796.41,-1056.12l2.56 -1.79c582.71,-404.12 1124.14,-851.49 1605.26,-1328.77 466.21,-462.48 871.09,-949.24 1196.74,-1447.56 2071.55,-3170.1 4225.24,-7391.78 6263.76,-11387.68 943.76,-1849.94 1863.04,-3651.92 2727.81,-5261.17l-13592.78 766.01c-1484.89,83.61 -2505.9,674.19 -3233.76,1477 -604.07,666.26 -1016.99,1487.17 -1327.46,2293.27l13780.55 -776.59zm-3230.37 5773.52c94.4,-173.73 188.54,-347.94 282.43,-522.53l-622.47 -880.07 -1589.96 101.76c-92.66,5.93 -164.25,27.48 -213.09,60.28 -25.04,16.81 -43.01,36.05 -53.19,56.51 -9.77,19.64 -14.05,44.62 -12.17,73.83 3.64,56.97 28.84,124.12 78.52,198.11l1445.6 2153.39c227.97,-407.05 456.18,-821.37 684.33,-1241.28zm702.3 -1308.92l87.91 -166.02 -196.45 12.57 108.54 153.45zm522.83 -993.53c458.94,-878.36 911.55,-1760.19 1357.94,-2636.35l-12978.18 731.39 6916.21 9926.34c210.17,-251.82 402,-509.16 572.27,-769.72 590.43,-903.52 1188.95,-1895.38 1790.34,-2945.13 -25.26,-22.22 -48.11,-47.98 -67.76,-77.21l-1607.34 -2394.31c-132.48,-197.34 -201.16,-399.58 -213.48,-592.01 -10.95,-170.93 22.15,-333.31 94.57,-478.9 72,-144.75 181.07,-268.69 322.54,-363.67 163.78,-109.97 369.34,-180.03 606.99,-195.24l3205.9 -205.19zm-5336.59 8709.13c27.77,-27.56 55.34,-55.21 82.71,-82.97l-7414.96 -10642.16c-80.42,-102.48 -109.16,-242.23 -64.23,-374.79 357.48,-1055.71 856.23,-2208.24 1695.23,-3133.63 856.23,-944.41 2050.45,-1638.74 3777.35,-1735.98l13953.55 -786.35c165.41,-9.64 313.13,83.08 381.5,223.24 78.63,26.13 149.86,76.81 201.08,149.87l1868.64 2665.32c204.77,292.07 330.3,615.43 361.04,948.4 29.92,324.19 -31.31,654 -197.91,969.7 -788.77,1494.81 -1607.66,3114.47 -2444.05,4768.77 -949.05,1877.12 -1920.61,3798.75 -2905.24,5650.28l1466.66 2073.62c45.8,-24.89 97.26,-41.17 152.43,-46.45l2795.57 -263.07c763.67,-1954.38 1588.69,-3943.13 2394.62,-5885.77 714.83,-1723.03 1414.69,-3410.03 2026.25,-4959.95 130.15,-329.84 341.29,-590.99 608.97,-781.03 271.2,-192.54 597.81,-307.44 953.26,-342.38l3239.5 -318.41c87.67,-8.68 171.49,11.8 241.88,53.52 151.81,-40.87 320,10.73 421.1,143.54l8492.8 11099.2c1050.58,1372.89 1301.43,2731.51 1142.57,3997.03 -155.23,1236.47 -701.38,2361.97 -1267.15,3318.24 -61.46,110.13 -173.91,189.5 -308.9,203.12l-12928.34 1308.81c-3.19,38.48 -6.2,77.06 -8.99,115.71 -48.6,674.22 -33.94,1373.83 40.94,2067.91 1.33,12.14 2.07,24.22 2.31,36.21 61.91,679.1 183.51,1358.32 361.91,2008.19 10.39,37.85 20.97,75.55 31.72,113.11l12909.13 -1230.86c129.9,-20.75 267.34,23.01 361.48,128.4 743.91,829.89 1502.68,1830.2 1896.29,3014.61 402.3,1210.55 420.57,2592.65 -343.31,4145.21l-6169.25 12540.34c-73.51,149.43 -228,232.47 -384.46,222.26 -16.59,14.81 -34.63,28.47 -54.11,40.7 -62.33,39.13 -131.31,58.87 -199.91,60.9l-3212.47 315.76c-356.18,35.02 -699.26,-14.03 -1002.65,-150.04 -298.68,-133.9 -556.22,-348.83 -748.27,-647.28 -925.82,-1438.79 -1928.41,-2938.8 -2952.47,-4470.85 -1168.82,-1748.69 -2365.37,-3538.87 -3494.56,-5306.26l-2200.9 239.86c-226.15,24.65 -473.6,111.01 -686.17,243.75 -181.51,113.35 -332.11,256.59 -410.97,417.21l-1056.87 2152.38c1276.57,1664.06 2551.61,3399.21 3797.1,5094.15 1091.17,1484.99 2159.55,2938.89 3196.54,4299.74 215.1,282.29 329.36,597.67 353.42,924.11 24.43,331.58 -46.42,670.83 -200.76,993.74l-1391.98 2912.39c-25.3,63.8 -67.37,121.92 -125.4,167.18 -18.14,14.14 -37.13,26.44 -56.71,36.98 -43.74,150.57 -174.47,267.51 -340.01,285.67l-13892.27 1524.68c-1719.97,188.84 -3013.05,-299.5 -4013.94,-1090.38 -979.29,-773.8 -1661,-1828.13 -2187.58,-2810.38 -66.99,-124.43 -61.28,-268.55 2.52,-383.6l5557.88 -11716.26c-31.65,-22.91 -63.48,-45.71 -95.52,-68.37 -550.12,-389.26 -1147.21,-735.13 -1764.52,-1024.83 -11.19,-4.31 -22.29,-9.13 -33.26,-14.52 -626.97,-307.01 -1279.68,-559.29 -1930.07,-743.44 -37.29,-10.55 -74.59,-20.89 -111.85,-30.99l-5637.71 11707.73c-58.83,122.26 -171.77,200.93 -296.26,221.15 -1091.86,205.9 -2336.12,335.64 -3551.45,60.05 -1243.87,-282.07 -2435.6,-981.06 -3368.09,-2436.72l-7539.13 -11767.81c-90.39,-140.32 -81.56,-316.03 8.61,-444.81 -15.22,-80.4 -5.9,-166.18 32.14,-245.64l1403.7 -2936.9c154.02,-322.24 373.36,-590.12 646.84,-779.45 269.9,-186.85 587.38,-296.32 941.84,-306.23 1665.56,-46.55 3490.09,-129.39 5353.59,-214.02 2101.02,-95.4 4251.91,-193.05 6349.54,-244.7l1149.44 -2430.83 -1511.26 -2174.7c-2076.28,294.45 -4214.01,552.74 -6302.22,805.02 -1840.33,222.34 -3642.13,440.02 -5316.3,671.96 -353.58,49 -684.5,-5.87 -979.08,-144.52 -302.54,-142.4 -563.74,-370.65 -768.51,-662.72l-1868.64 -2665.32 0.2 -0.14c-34.46,-49.06 -58.37,-106.63 -67.91,-169.94 -3.54,-23.49 -4.95,-46.84 -4.39,-69.8 -108.64,-112.06 -145.56,-282.67 -80.05,-435l5496.04 -12849.64c680.12,-1590.31 1739.97,-2476.29 2919.7,-2959.28 1155.98,-473.28 2409.5,-549.25 3523.83,-525.43 139.94,2.95 261.52,77.62 330.45,188.16l7476.9 10598.73c35.42,-16.27 70.82,-32.76 106.19,-49.48 616.31,-291.29 1219.11,-647.53 1783.07,-1050.95l5.13 -3.59c571.5,-392.65 1111.9,-837.9 1595.85,-1317.99zm-5164.94 3008.34c302.99,-71.24 610.31,-163.87 918.7,-275.59l-6973.99 -9885.83 -5111.87 11951.44c975.84,-120.97 1959.15,-245.86 2941.36,-377.86l1285.8 -2943.92c95.31,-218.21 231.25,-387.59 390.46,-504.07 137.51,-100.61 291.22,-160.91 451.85,-179.25 161.54,-18.44 325.49,5.8 482.45,74.36 176.7,77.17 343.41,210.69 483.76,402.5l1702.95 2327.29c20.77,28.43 37.21,58.7 49.47,90.01 1191.9,-207.5 2328.38,-432.03 3379.06,-679.08zm-5643.63 1045.33c472.53,-71.34 939.82,-144.63 1400.22,-220.19l-1531.59 -2093.11c-52.63,-71.92 -107.15,-118.5 -159.48,-141.35 -26.81,-11.71 -51.75,-16.21 -73.55,-13.72 -22.7,2.59 -46.92,12.92 -71.26,30.73 -47.48,34.73 -92.15,94.69 -129.31,179.78l-637.69 1460.02 615.16 885.22c196.14,-28.74 391.99,-57.86 587.5,-87.38zm-1655.98 240.06l186.06 -26.05 -107.26 -154.35 -78.8 180.4zm14816.08 2660.03c593.8,-415.44 1136.14,-864.82 1614.36,-1339.25 465.95,-462.26 866.27,-944.49 1188.82,-1438.1 2148.49,-3287.81 4293.87,-7531.16 6334.55,-11567.44 834.66,-1650.87 1651.84,-3267.17 2450.69,-4781.07 89.49,-169.58 122.29,-347.76 106.06,-523.66 -17.61,-190.79 -94.2,-382.73 -220.19,-562.44l-1496.79 -2134.93c-850.52,1587.89 -1729.75,3311.39 -2631.62,5079.22 -2046.89,4012.31 -4209.42,8251.31 -6305.45,11458.87 -358.63,548.81 -799.31,1079.68 -1302.89,1579.23 -508.16,504.12 -1085.34,980.37 -1711.17,1414.49 -621.47,440.35 -1265.95,820.6 -1913.11,1126.47 -641.29,303.11 -1290.6,536.42 -1928.79,686.48 -3729.96,877.01 -8452.26,1464.92 -12922.01,2021.39 -1969.39,245.19 -3889.37,484.21 -5672.1,742.47l1496.79 2134.93c125.99,179.71 280.33,317.14 453.68,398.74 159.84,75.22 338.52,105.13 528.45,78.8 1695.55,-234.9 3493.61,-452.13 5330.13,-674.01 4490.17,-542.46 9210.7,-1112.76 13034,-2011.73 573.99,-134.96 1163.81,-346.9 1757.23,-627.35 609.04,-287.85 1216.38,-644.5 1809.36,-1061.11zm2176.47 -771.58c-504.69,500.69 -1082.21,978.55 -1719.01,1424.08 -635.92,446.77 -1282.04,826.8 -1924.78,1130.56 -124.65,58.91 -249.38,115.07 -374.09,168.42 105.75,149.45 252.67,359.41 416.19,594.1 508.45,729.77 1180.17,1703.14 1232.84,1781.48l1.92 2.93c250.67,373.83 423.45,769.11 474.96,1201.93 52.1,438.02 -20.72,904.41 -263.32,1412.01l-0.34 0.69 1.23 0.59 -868.64 1803.89c669.39,193.73 1347.71,455.23 2021.48,778.08l-0.6 1.23c681.26,324.82 1310.75,687.51 1874.81,1081.54l857.65 -1807.98 0.71 0.33 0.58 -1.23c224.32,-469.31 782.07,-1016.39 1400.93,-1450.27 607.27,-425.75 1296.95,-759 1811.7,-819.42 10.05,-1.73 20.23,-3.11 30.56,-4.09l1992.05 -189.93c-178.14,-664.61 -304.5,-1380.03 -377.63,-2131.21l-1.35 0.14c-72.37,-728.85 -87.81,-1441.72 -44.98,-2124.59l-2057.31 208.28 -0.14 -1.36 -0.76 0.08c-559.9,55.03 -1023.19,-35.51 -1417.2,-233.81 -389.33,-195.97 -702.03,-493.15 -968.02,-856.25l-2.09 -2.8c-55.69,-76.23 -741.77,-1039.53 -1254.49,-1766.3 -176.51,-250.21 -332.83,-472.83 -438.05,-624.65 -129.5,143.12 -264.53,284.37 -404.81,423.53zm1294.97 -1569.77c-111.65,170.85 -231.25,339.96 -358.38,507.05 8.7,11.8 16.87,24.19 24.4,37.17 28.03,48.51 254,371.79 534.36,769.21 507.34,719.14 1189.47,1676.77 1245.52,1753.51l1.31 1.83c193.87,265.25 415.74,479.24 683.94,614.22 264.99,133.38 584.38,193.54 979.37,154.83l-0.14 -1.35 2218.13 -224.55c39.81,-288.59 91.08,-569.81 153.94,-842.42l-3857.52 -5421.93c-540.03,931.67 -1082.18,1821.87 -1624.93,2652.43zm3051.01 -5207.55c-328.83,608.77 -658.98,1207.92 -990.07,1793.33l3697.39 5196.87c498.78,-1646.13 1121.72,-3393.56 1806.19,-5179.73l-2116.05 199.12 486.03 687.16c127.02,179.69 84.34,428.34 -95.35,555.36 -179.68,127.03 -428.33,84.34 -555.36,-95.34l-2232.78 -3156.77zm-9906.97 10014.22c-964.88,226.87 -1985.52,432.88 -3044.32,622.81l3717.86 5300.69c351.12,31.66 709.55,86.17 1073.01,162.4l940.14 -1952.38 1.22 0.59c171.03,-358.12 223.36,-678.91 188.32,-973.49 -35.47,-298.14 -161.01,-579.68 -344.28,-852.36l-1.27 -1.85c-53.03,-78.86 -720.76,-1046.58 -1223.87,-1768.69 -266.18,-382.03 -485.45,-694 -535.3,-757.54 -258.38,86.22 -515.83,159.7 -771.51,219.82zm-3911.96 773.52c-663.32,111.71 -1339.24,217.84 -2023.75,319.47l2206.51 3175.18c125.62,180.68 80.99,428.98 -99.69,554.6 -180.67,125.62 -428.97,80.98 -554.59,-99.69l-397.43 -571.9 -783.09 1656.07c1814.75,-32.79 3577.8,-25.35 5220.74,54.33l-3568.7 -5088.06zm27909.69 -14326.85c-375.93,913.99 -750.88,1833.2 -1116.19,2747.22l1933.73 2567.49c143.58,190.67 224.37,391.72 247.49,586.31 19.93,167.82 -3.43,331.35 -66.96,481.66 -63.33,149.87 -165.19,280.99 -302.41,384.33 -154.44,116.3 -352.22,196.03 -586.8,223.88l-2863.67 340.13c-35.51,4.21 -70.47,3.6 -104.26,-1.27 -402.56,1135.11 -764.51,2234.44 -1066.89,3275.97 -86.94,299.43 -157.32,612.4 -211.58,935.02l12035.86 -1218.45 -7898.32 -10322.29zm-1460.64 3615.11l-69.18 175.94 188.35 -17.73 -119.17 -158.21zm-392.94 1007.65c-71.38,185.04 -142.12,369.57 -212.12,553.49 -169.83,446.25 -335.47,889.27 -495.89,1327.87l2576.42 -306.02c89.91,-10.68 157.7,-35.19 202.9,-69.23 22.98,-17.31 38.92,-36.62 47.41,-56.7 8.32,-19.68 10.83,-45.82 7.11,-77.12 -7.1,-59.74 -37.3,-128.65 -92.85,-202.41l-957.35 -1271.11 -1075.63 101.23zm-956.55 270.12c728.47,-1914.12 1532.03,-3884.98 2330.53,-5820.19 25.11,-70.09 70.1,-133.99 133.76,-182.46 175.23,-133.39 425.41,-99.48 558.8,75.75l8386.42 10960.18c409.73,-761.13 763.89,-1609.35 875.82,-2500.87 134.9,-1074.51 -82.37,-2233.64 -986.74,-3415.46l-8273.96 -10813.22c-673.92,1747.86 -1433.82,3598.53 -2214.02,5498.57 -1703.9,4149.6 -3504.06,8533.63 -4559.58,12169.35 -166.7,574.2 -272.53,1198.54 -319.59,1851.37 -48.47,672.38 -34.93,1374.33 38.35,2082.67l0.32 3.47 0.2 -0.02c65.8,706.48 189.45,1397.77 368.7,2050.71 174.5,635.69 399.3,1227.52 672.11,1753.45 1745.23,3364.55 4363.3,7312.4 6841.38,11049.11 1146.6,1728.97 2263.46,3413.09 3243.47,4961.81l6010.26 -12217.14c656.27,-1333.86 643.49,-2512.5 302.03,-3539.99 -283.71,-853.69 -795.6,-1616.5 -1344.91,-2282.73l-6092.09 12383.53c-97.34,197.87 -336.68,279.37 -534.55,182.03 -73.57,-36.19 -131.05,-92.02 -169.23,-158.05 -1163.97,-1748.71 -2337.79,-3528.21 -3415.9,-5249.33 -1090.88,-1741.52 -2095.1,-3440.1 -2913.89,-5018.63 -306.03,-589.96 -554.01,-1240.85 -741.15,-1922.52 -188.2,-685.54 -317.33,-1412.5 -384.28,-2148.91 -1.11,-6.82 -2.06,-13.71 -2.82,-20.66 -79.61,-737.96 -94.88,-1486.2 -42.58,-2211.77 51.17,-709.69 167.13,-1396.38 350.91,-2029.38 493.52,-1699.95 1148.7,-3563.28 1882.23,-5490.67zm-744.14 12579.08c116.05,307.07 245.65,600.2 388.4,875.4 497.9,959.9 1067.65,1968.36 1685.62,3006.46 32.1,-11.3 66.17,-18.65 101.71,-21.43l2875.1 -223.93c235.44,-18.34 445.59,21.68 620.91,106.29 154.05,74.32 279.1,182.83 370.26,317.3 91.2,134.52 145.78,290.37 158.95,459.43 15.21,195.27 -25.19,408.76 -129.53,625.02l-1395.77 2892.63c537.38,827.31 1083.65,1655.33 1629.23,2476.99l5737.32 -11662.35 -12042.2 1148.19zm2526.92 4634.07c242.5,398.46 491.14,800.54 744.61,1205.19 104.73,167.18 210.17,334.65 316.27,502.35l1073.76 -110.03 692.51 -1435.2c39.51,-81.86 55.41,-154.77 50.73,-214.84 -2.41,-30.86 -10.11,-56.01 -22.47,-74.23 -12.39,-18.26 -32.19,-34.37 -58.75,-47.18 -49.74,-24.01 -120.37,-34.52 -210.74,-27.47l-2585.92 201.41zm1540.07 2459.97l101.83 158.71 85.85 -177.94 -187.68 19.23zm-11603.82 -11448c-47.98,665.23 -35.12,1369.1 37.06,2096.09l-1.36 0.14 0.09 0.76c69.92,718.64 195.12,1411.59 374.1,2063.5 174.45,635.39 397.55,1221.02 667.76,1741.93 1807.35,3484.31 4450.15,7438.21 6964,11199.16 1034.03,1547.01 2046.42,3061.65 2961.44,4483.66 104.88,162.98 243.59,279.5 403.2,351.06 176.57,79.16 381.62,107.17 598.86,85.82l2596.87 -255.26c-962.79,-1516.76 -2033.51,-3131.33 -3131.81,-4787.47 -2490.59,-3755.59 -5121.89,-7723.38 -6884.69,-11121.78 -303.17,-584.49 -549.39,-1229.03 -736.49,-1910.6 -189.78,-691.33 -321.21,-1428.65 -391.85,-2187.14l0.16 -0.01c-77.82,-754.01 -92.08,-1501.79 -40.4,-2218.72 51.15,-709.62 166.6,-1389.69 348.66,-2016.78 1068.62,-3680.87 2876.22,-8083.02 4587.16,-12249.75 761.98,-1855.7 1504.89,-3664.97 2141.49,-5306.65l-2597 255.26c-217.98,21.43 -413.98,88.84 -571.67,200.79 -141.86,100.71 -254.85,241.83 -326.09,422.4 -637.07,1614.58 -1326.71,3276.94 -2031.1,4974.8 -1734.97,4182.04 -3558.95,8578.62 -4650.83,12339.56 -165.12,568.78 -270.5,1186.75 -317.56,1839.23zm3408.89 11488.63c-369.05,-586.03 -729.1,-1168.49 -1076.72,-1745.06l-2476.05 260.66c-217.02,22.86 -431.75,107.81 -616.95,236.83 -184.91,128.8 -337.9,298.93 -432.05,492.47l-1093.72 2248.23c423.53,523.35 848.37,1060.41 1273.48,1607.13l884.12 -1800.59c147.98,-301.38 404.16,-553.69 703.35,-740.51 314.84,-196.59 683.89,-324.79 1023.26,-361.76l1811.28 -197.4zm-1526.32 -2499.5c-545.87,-927.52 -1054.71,-1836.67 -1511.49,-2717.28 -193.16,-372.37 -363.18,-769.12 -509.71,-1186.05l-2156.39 205.6c-6.45,0.62 -12.87,1.06 -19.28,1.37 -374.05,44.8 -926.47,323.36 -1439.57,683.09 -521.95,365.94 -978.81,798.76 -1141.47,1137.81l0.68 0.32 -928.4 1957.13c342.01,279.88 657.02,574.97 941.24,883.51 672.15,729.62 1353.37,1517.92 2039.24,2347.29l932.36 -1916.56c154.76,-318.12 399.58,-593.14 691.93,-796.8 294.18,-204.91 639.14,-340.27 991.65,-377.39l2109.21 -222.04zm-29355.5 3666.33c2091.49,-90.95 4218.23,-174.5 6266.03,-206.81 2062,-32.53 4037.06,-13.26 5803.42,102.3 657.75,43.02 1342.83,168.1 2027.45,361.94 699.94,198.17 1398.15,467.61 2064.76,794.02 6.28,3.08 12.43,6.32 18.47,9.69 669.47,313.99 1308.86,683.2 1889.18,1093.83 577.04,408.32 1104.4,863.33 1554.7,1352.15 1204.83,1307.86 2459.34,2830.98 3724.66,4450.2 1250.49,1600.27 2523.24,3310.41 3770.4,5000.79 49.06,58.41 81.95,131.48 90.89,212.98 24.05,219.2 -134.16,416.42 -353.36,440.47l-13718.55 1505.6c439.07,743.52 981.67,1484.8 1687.52,2042.53 849.53,671.28 1953.22,1085.1 3430.89,922.85l13534.24 -1485.38c-1121.86,-1449.27 -2324.37,-3073.35 -3558.89,-4740.67 -2668.09,-3603.49 -5486.95,-7410.57 -8055.01,-10198.25 -401.42,-435.75 -881.17,-848.84 -1419.29,-1229.6 -552.73,-391.1 -1160.46,-743.01 -1802.18,-1045.71l0.09 -0.17 -3.16 -1.49c-640.93,-310.36 -1296.22,-562.39 -1944.84,-746.05 -629.77,-178.31 -1252.79,-291.65 -1849.42,-330.68 -3777.76,-247.13 -8512.87,-49.33 -12994.76,137.89 -2052.2,85.74 -4051.07,169.22 -5923.96,206.92l7344.88 11464.6c802.71,1253.09 1818.36,1852.48 2874.49,2091.97 876.28,198.7 1794.4,154.91 2649.63,29.19l-7444.7 -11620.41c-119.26,-185.13 -65.85,-431.89 119.29,-551.15 67.26,-43.32 142.67,-63.84 217.13,-63.55zm6278.64 589.63c-196.76,3.11 -394.34,6.7 -592.64,10.72l-461.85 976.7 868.61 1333.33c50.4,77.36 104.89,129.24 158.63,156.28 28.16,14.17 53.58,20.72 74.92,19.61 21.79,-1.13 45.36,-9.54 69.47,-25.24 47.4,-30.89 93.57,-86.27 134.25,-167.14l1165.99 -2317.77c-467.01,1.29 -939.97,5.98 -1417.38,13.51zm-1484.9 31.55l-188.99 5.07 108.12 165.96 80.87 -171.03zm-1122.32 33.01c-983.82,31.83 -1975.77,70.98 -2963.16,112.8l7011.41 10944.1 5248.52 -10899.52c-321.77,-58.99 -640.01,-99.5 -951.14,-119.85 -1082.22,-70.79 -2239.09,-105.28 -3443.44,-113.81 -6.94,33.43 -18.28,66.51 -34.34,98.46l-1295.99 2576.17c-106.16,211.04 -248.53,369.8 -410.51,475.34 -143.94,93.77 -301.92,144.83 -464.41,153.28 -162.96,8.47 -324.66,-25.31 -475.63,-101.26 -175.06,-88.07 -336.52,-232.56 -466.82,-432.53l-1754.49 -2693.18zm15364.42 3391.23c-210.05,-228.01 -441.45,-449.78 -690.55,-663.55l-5184.63 10929.43 12919.63 -1417.92c-586.46,-793 -1178.64,-1588.82 -1773.21,-2376.05l-3195.18 326.05c-238.88,24.37 -453.35,-10.43 -631.74,-91.29 -154.44,-70.02 -282.35,-174.46 -377.73,-306.06 -95.33,-131.53 -154.71,-286.09 -172.07,-456.24 -19.76,-193.67 14.25,-404.87 111.76,-619.96l1190.64 -2626.53c14.72,-32.47 33.25,-61.99 54.81,-88.32 -765.24,-934.85 -1519.08,-1814.24 -2251.73,-2609.56zm3683.65 4402.62c-294,-376.23 -587.22,-747.04 -879.16,-1110.86l-1070.89 2362.37c-37.43,82.55 -51.62,152.51 -46.02,207.47 3,29.34 11.39,53.45 24.33,71.32 12.92,17.83 33.94,33.64 62.12,46.43 54.88,24.88 128.85,34.77 219.27,25.55l1585.3 -161.77 469.5 -971.93c-121.49,-156.91 -242.98,-313.13 -364.45,-468.58zm1022.93 1325.4l-114.48 -149.82 -82.06 169.87 196.54 -20.05zm-4963.06 -14211.81c-658.85,-315.69 -1316.16,-567.74 -1957.9,-749.41 -629.44,-178.19 -1246.32,-289.79 -1837.32,-328.45 -3907.88,-255.65 -8662.89,-39.73 -13185.88,165.65 -1836.29,83.39 -3634.16,165.01 -5369.22,213.51 -194.03,5.42 -365.21,63.53 -508.26,162.56 -158.99,110.08 -289.19,271.36 -383.64,468.98l-1125.29 2354.41c1760.35,-38.81 3714.51,-120.43 5718.81,-204.16 4500.4,-188 9255.07,-386.62 13079.75,-136.41 651.59,42.62 1330.28,165.92 2014.83,359.75 691.6,195.82 1389.73,464.15 2072.04,794.34l0.07 -0.14c688.97,324.98 1337.32,699.89 1922.54,1113.98 576.96,408.23 1098.96,859.44 1545.08,1343.7 2593.89,2815.73 5426.99,6642.04 8108.56,10263.73 1182.53,1597.09 2335.37,3154.08 3433.06,4576.27l1125.25 -2354.29c94.13,-196.95 137.69,-399.27 123.47,-592.25 -12.85,-174.45 -75.11,-344.56 -192.58,-498.72 -1024.89,-1344.98 -2103.68,-2813.07 -3205.52,-4312.55 -2678.69,-3645.37 -5494.8,-7477.76 -8154.27,-10364.66 -397.59,-431.6 -872.08,-840.98 -1409.94,-1221.58 -551.85,-390.5 -1160.61,-744.43 -1812.37,-1055.15l-0.68 -0.34 -0.59 1.23z"
       id="path6"
       style="fill:#1a5772;fill-opacity:1" /></g></svg>