<?xml version="1.0" encoding="UTF-8" standalone="no"?>
<svg
   xmlns:dc="http://purl.org/dc/elements/1.1/"
   xmlns:cc="http://creativecommons.org/ns#"
   xmlns:rdf="http://www.w3.org/1999/02/22-rdf-syntax-ns#"
   xmlns:svg="http://www.w3.org/2000/svg"
   xmlns="http://www.w3.org/2000/svg"
   xmlns:sodipodi="http://sodipodi.sourceforge.net/DTD/sodipodi-0.dtd"
   xmlns:inkscape="http://www.inkscape.org/namespaces/inkscape"
   height="100px"
   width="100px"
   fill="#000000"
   version="1.1"
   x="0px"
   y="0px"
   viewBox="0 0 64 64"
   style="enable-background:new 0 0 64 64;"
   xml:space="preserve"
   id="svg24"
   sodipodi:docname="entomo.svg"
   inkscape:version="0.92.4 (5da689c313, 2019-01-14)"><metadata
     id="metadata30"><rdf:RDF><cc:Work
         rdf:about=""><dc:format>image/svg+xml</dc:format><dc:type
           rdf:resource="http://purl.org/dc/dcmitype/StillImage" /><dc:title /></cc:Work></rdf:RDF></metadata><defs
     id="defs28" /><sodipodi:namedview
     pagecolor="#ffffff"
     bordercolor="#666666"
     borderopacity="1"
     objecttolerance="10"
     gridtolerance="10"
     guidetolerance="10"
     inkscape:pageopacity="0"
     inkscape:pageshadow="2"
     inkscape:window-width="1920"
     inkscape:window-height="1016"
     id="namedview26"
     showgrid="false"
     inkscape:zoom="2.36"
     inkscape:cx="-49.788136"
     inkscape:cy="50"
     inkscape:window-x="0"
     inkscape:window-y="27"
     inkscape:window-maximized="1"
     inkscape:current-layer="g22" /><circle
     style="fill:#b3b3b3;fill-opacity:0.94117647;stroke-width:0.63999999"
     id="path815"
     cx="32"
     cy="32"
     r="32.001633" /><g
     id="g22"
     style="fill:#0a425a;fill-opacity:1"
     transform="matrix(0.71502442,0,0,0.71502442,8.4041942,8.7617064)"><g
       id="g841"
       transform="matrix(0.87143431,0,0,0.87143431,4.2426677,4.1783849)"><path
         inkscape:connector-curvature="0"
         style="fill:#8f230a;fill-opacity:1"
         id="path2"
         d="M 60,54 H 49.22 C 48.671,54.609 47.883,55 47,55 46.232,55 45.531,54.71 45,54.234 44.469,54.71 43.768,55 43,55 c -0.768,0 -1.469,-0.29 -2,-0.766 -0.288,0.258 -0.629,0.455 -1,0.587 V 57 H 20.141 C 20.058,57.321 20,57.653 20,58 c 0,2.209 1.791,4 4,4 h 21.877 c 1.835,0 3.435,-1.249 3.881,-3.03 L 50,58 h 10 c 1.105,0 2,-0.895 2,-2 0,-1.105 -0.895,-2 -2,-2 z" /><path
         inkscape:connector-curvature="0"
         style="fill:#0a425a;fill-opacity:1"
         id="path4"
         d="M 37,29 V 11 H 5 v 18 z m -5,-8 c 1.654,0 3,1.346 3,3 0,1.654 -1.346,3 -3,3 -1.654,0 -3,-1.346 -3,-3 0,-1.654 1.346,-3 3,-3 z" /><path
         inkscape:connector-curvature="0"
         style="fill:#0a425a;fill-opacity:1"
         id="path6"
         d="M 39,32.383 V 31 H 3 v 2 H 37.412 C 37.919,32.75 38.448,32.542 39,32.383 Z" /><path
         inkscape:connector-curvature="0"
         style="fill:#0a425a;fill-opacity:1"
         id="path8"
         d="M 38,54.816 C 36.839,54.402 36,53.302 36,52 V 49.5 L 35.866,49.399 C 33.445,47.584 32,44.693 32,41.667 32,39.082 33.026,36.736 34.684,35 H 5 v 17 c 0,1.654 1.346,3 3,3 H 38 Z M 11,53 H 9 C 7.897,53 7,52.103 7,51 v -9 h 2 v 9 h 2 z" /><rect
         style="fill:#0a425a;fill-opacity:1"
         id="rect10"
         height="2"
         width="36"
         y="7"
         x="3" /><polygon
         style="fill:#0a425a;fill-opacity:1"
         id="polygon12"
         points="17.382,3 9,3 9,5 18.382,5 " /><path
         inkscape:connector-curvature="0"
         style="fill:#0a425a;fill-opacity:1"
         id="path14"
         d="m 34,41.667 c 0,2.4 1.146,4.692 3.066,6.133 L 38,48.5 V 52 c 0,0.552 0.448,1 1,1 0.552,0 1,-0.448 1,-1 v -3 h 2 v 3 c 0,0.552 0.448,1 1,1 0.552,0 1,-0.448 1,-1 v -3 h 2 v 3 c 0,0.552 0.448,1 1,1 0.552,0 1,-0.448 1,-1 v -3.5 l 0.933,-0.7 C 50.854,46.359 52,44.067 52,41.667 52,37.439 48.561,34 44.333,34 H 41.667 C 37.439,34 34,37.439 34,41.667 Z M 47,40 c 1.105,0 2,0.895 2,2 0,1.105 -0.895,2 -2,2 -1.105,0 -2,-0.895 -2,-2 0,-1.105 0.895,-2 2,-2 z m -8,0 c 1.105,0 2,0.895 2,2 0,1.105 -0.895,2 -2,2 -1.105,0 -2,-0.895 -2,-2 0,-1.105 0.895,-2 2,-2 z" /><circle
         style="fill:#8f230a;fill-opacity:1"
         id="circle16"
         r="4"
         cy="28"
         cx="56" /><circle
         style="fill:#8f230a;fill-opacity:1"
         id="circle18"
         r="3"
         cy="19"
         cx="47" /><circle
         style="fill:#8f230a;fill-opacity:1"
         id="circle20"
         r="4"
         cy="14"
         cx="59" /></g></g></svg>