<?xml version="1.0" encoding="UTF-8" standalone="no"?>
<svg
   xmlns:i="http://ns.adobe.com/AdobeIllustrator/10.0/"
   xmlns:dc="http://purl.org/dc/elements/1.1/"
   xmlns:cc="http://creativecommons.org/ns#"
   xmlns:rdf="http://www.w3.org/1999/02/22-rdf-syntax-ns#"
   xmlns:svg="http://www.w3.org/2000/svg"
   xmlns="http://www.w3.org/2000/svg"
   xmlns:sodipodi="http://sodipodi.sourceforge.net/DTD/sodipodi-0.dtd"
   xmlns:inkscape="http://www.inkscape.org/namespaces/inkscape"
   height="100px"
   width="100px"
   fill="#000000"
   version="1.0"
   x="0px"
   y="0px"
   viewBox="0 0 100 100"
   style="enable-background:new 0 0 100 100;"
   xml:space="preserve"
   id="svg22"
   sodipodi:docname="entravaux.svg"
   inkscape:version="0.92.4 (5da689c313, 2019-01-14)"><metadata
     id="metadata28"><rdf:RDF><cc:Work
         rdf:about=""><dc:format>image/svg+xml</dc:format><dc:type
           rdf:resource="http://purl.org/dc/dcmitype/StillImage" /><dc:title></dc:title></cc:Work></rdf:RDF></metadata><defs
     id="defs26" /><sodipodi:namedview
     pagecolor="#ffffff"
     bordercolor="#666666"
     borderopacity="1"
     objecttolerance="10"
     gridtolerance="10"
     guidetolerance="10"
     inkscape:pageopacity="0"
     inkscape:pageshadow="2"
     inkscape:window-width="1920"
     inkscape:window-height="1016"
     id="namedview24"
     showgrid="false"
     inkscape:zoom="2.36"
     inkscape:cx="50"
     inkscape:cy="50"
     inkscape:window-x="0"
     inkscape:window-y="27"
     inkscape:window-maximized="1"
     inkscape:current-layer="svg22" /><g
     style="fill:#8f230a;fill-opacity:1"
     id="g18"
     i:extraneous="self"><g
       style="fill:#8f230a;fill-opacity:1"
       id="g16"><path
         inkscape:connector-curvature="0"
         style="fill:#8f230a;fill-opacity:1"
         id="path2"
         d="M 94.1,78.5 56.6,13.8 C 55.3,11.5 52.7,10.1 50,10.1 v 0 c -2.7,0 -5.2,1.4 -6.6,3.8 L 5.9,78.5 c -1.3,2.3 -1.2,5.3 0,7.6 1.3,2.3 4,3.8 6.6,3.8 h 75 c 2.6,0 5.3,-1.5 6.6,-3.8 1.2,-2.2 1.3,-5.2 0,-7.6 z M 14.6,81.3 50,20.1 v 0.1 l 35.4,61.1 z" /><g
         style="fill:#8f230a;fill-opacity:1"
         id="g14"><path
           inkscape:connector-curvature="0"
           style="fill:#8f230a;fill-opacity:1"
           id="path4"
           d="m 57.3,79.7 h 25.4 l -9,-15.5 c -2.8,1.3 -4.4,3.7 -5.9,5.7 L 57.6,64 53,46.6 c -0.2,-1 -1.2,-2.1 -2.3,-2.6 v 0 c -0.3,-0.2 -0.8,-0.3 -1.1,-0.3 h -7.9 c -1.2,0 -2,0.6 -2.6,1.6 l -3.6,6 c -0.6,1.1 -0.2,2.7 0.6,3 l 4.8,2.8 -0.2,0.2 c -0.5,1 -0.1,2.4 0.7,2.9 l 10.3,5.7 V 77 c 0,1.2 0.9,2.1 2.1,2.1 v 0 c 0.6,0 1.2,-0.2 1.6,-0.7 C 55.8,78 56,77.5 56,77 V 65.9 l 10.2,5.9 c -2.3,2.1 -4.8,1.1 -6.7,3.1 -1,1.3 -1.8,3 -2.2,4.8 z M 42.2,55 38.9,53.1 42.2,47.5 h 4.2 z m 6,3.6 2.8,-4.9 2.1,7.7 z" /><polygon
           style="fill:#8f230a;fill-opacity:1"
           id="polygon6"
           points="" /><path
           inkscape:connector-curvature="0"
           style="fill:#8f230a;fill-opacity:1"
           id="path8"
           d="m 55.5,45.9 c 0,0 0,0 0,0 z" /><path
           inkscape:connector-curvature="0"
           style="fill:#8f230a;fill-opacity:1"
           id="path10"
           d="m 55.5,45.9 c 2.3,0 3.6,-1.9 3.6,-4.4 0,-2.2 -1.7,-3.7 -3.6,-4 v 0 c -0.2,0 -0.5,-0.1 -0.7,-0.1 -2.2,0 -2.9,2 -2.9,4.5 0,2.5 1.4,4 3.6,4 z" /><path
           inkscape:connector-curvature="0"
           style="fill:#8f230a;fill-opacity:1"
           id="path12"
           d="m 45.4,63.6 -4.6,-2.6 0.6,3.2 c 0.1,0.7 0.5,2.1 0,2.8 l -6.1,8.7 c -0.6,0.9 -0.3,2.4 0.5,3 1.2,0.9 2.7,-0.1 3,-0.5 l 6.5,-9.3 c 0.2,-0.4 0.7,-1.8 0.5,-3.1 0.1,-0.1 -0.2,-2.2 -0.4,-2.2 z" /></g></g></g></svg>