<?xml version="1.0" encoding="UTF-8" standalone="no"?>
<svg
   xmlns:i="http://ns.adobe.com/AdobeIllustrator/10.0/"
   xmlns:dc="http://purl.org/dc/elements/1.1/"
   xmlns:cc="http://creativecommons.org/ns#"
   xmlns:rdf="http://www.w3.org/1999/02/22-rdf-syntax-ns#"
   xmlns:svg="http://www.w3.org/2000/svg"
   xmlns="http://www.w3.org/2000/svg"
   xmlns:sodipodi="http://sodipodi.sourceforge.net/DTD/sodipodi-0.dtd"
   xmlns:inkscape="http://www.inkscape.org/namespaces/inkscape"
   inkscape:version="1.0 (4035a4fb49, 2020-05-01)"
   sodipodi:docname="noun_envelope_13413.svg"
   id="svg136"
   xml:space="preserve"
   enable-background="new 0 0 100 100"
   viewBox="0 0 100 100"
   y="0px"
   x="0px"
   version="1.1"
   fill="#000000"
   width="100px"
   height="100px"><metadata
     id="metadata142"><rdf:RDF><cc:Work
         rdf:about=""><dc:format>image/svg+xml</dc:format><dc:type
           rdf:resource="http://purl.org/dc/dcmitype/StillImage" /></cc:Work></rdf:RDF></metadata><defs
     id="defs140" /><sodipodi:namedview
     inkscape:current-layer="svg136"
     inkscape:window-maximized="1"
     inkscape:window-y="-1"
     inkscape:window-x="-9"
     inkscape:cy="50"
     inkscape:cx="50"
     inkscape:zoom="8.3"
     showgrid="false"
     id="namedview138"
     inkscape:window-height="1271"
     inkscape:window-width="2400"
     inkscape:pageshadow="2"
     inkscape:pageopacity="0"
     guidetolerance="10"
     gridtolerance="10"
     objecttolerance="10"
     borderopacity="1"
     bordercolor="#666666"
     pagecolor="#ffffff" /><g
     style="fill:#0a425a;fill-opacity:1"
     id="g134"><g
       style="fill:#0a425a;fill-opacity:1"
       id="g132"
       i:extraneous="self"><g
         style="fill:#0a425a;fill-opacity:1"
         id="g110"
         display="none"><rect
           style="fill:#0a425a;fill-opacity:1"
           id="rect2"
           height="99"
           width="185"
           display="inline"
           x="-192" /><rect
           style="fill:#0a425a;fill-opacity:1"
           id="rect4"
           height="30"
           width="100"
           display="inline"
           y="-36" /><text
           style="fill:#0a425a;fill-opacity:1"
           id="text6"
           font-size="2.4"
           font-family="'Helvetica'"
           fill="#000000"
           display="inline"
           transform="matrix(1 0 0 1 66 -19.5)">http://thenounproject.com</text><text
           style="fill:#0a425a;fill-opacity:1"
           id="text12"
           display="inline"
           transform="matrix(1 0 0 1 7.166 -24.5)"><tspan
             style="fill:#0a425a;fill-opacity:1"
             id="tspan8"
             font-size="6.1578"
             font-family="'Helvetica-Bold'"
             fill="#000000"
             y="0"
             x="0">The Noun Project</tspan><tspan
             style="fill:#0a425a;fill-opacity:1"
             id="tspan10"
             font-size="4"
             font-family="'Helvetica-Bold'"
             fill="#000000"
             y="4.8"
             x="1.12">Icon Template</tspan></text><text
           style="fill:#0a425a;fill-opacity:1"
           id="text14"
           font-size="6.1578"
           font-family="'Helvetica-Bold'"
           fill="#000000"
           display="inline"
           transform="matrix(1 0 0 1 -178.5 10.5)">Reminders</text><line
           style="fill:#0a425a;fill-opacity:1"
           id="line16"
           y2="-14.5"
           x2="18"
           y1="-14.5"
           x1="8"
           stroke-miterlimit="10"
           stroke="#000000"
           fill="#000000"
           display="inline" /><line
           style="fill:#0a425a;fill-opacity:1"
           id="line18"
           y2="16.5"
           x2="-162"
           y1="16.5"
           x1="-179"
           stroke-miterlimit="10"
           stroke="#000000"
           fill="#000000"
           display="inline" /><g
           style="fill:#0a425a;fill-opacity:1"
           id="g30"
           display="inline"><g
             style="fill:#0a425a;fill-opacity:1"
             id="g28"><g
               style="fill:#0a425a;fill-opacity:1"
               id="g26"><rect
                 style="fill:#0a425a;fill-opacity:1"
                 id="rect20"
                 height="8.642"
                 width="8.721"
                 fill="#000000"
                 y="31.318"
                 x="-170.802" /><path
                 style="fill:#0a425a;fill-opacity:1"
                 id="path22"
                 d="M-164.455,42.312h4.747v-4.703h-4.747V42.312z M-159.266,42.749h-5.63V37.17h5.63V42.749        L-159.266,42.749z M-166.221,44.062h8.279v-8.203h-8.279V44.062L-166.221,44.062z M-157.5,44.5h-9.163v-9.079h9.163V44.5        L-157.5,44.5z"
                 fill="#000000" /><polygon
                 style="fill:#0a425a;fill-opacity:1"
                 id="polygon24"
                 points="-166.149,44.133 -166.292,43.991 -158.013,35.787 -157.871,35.929       "
                 fill="#000000" /></g></g></g><rect
           style="fill:#0a425a;fill-opacity:1"
           id="rect32"
           height="32.5"
           width="35"
           fill="none"
           display="inline"
           y="58"
           x="-179" /><text
           style="fill:#0a425a;fill-opacity:1"
           id="text48"
           display="inline"
           transform="matrix(1 0 0 1 -179 60.1572)"><tspan
             style="fill:#0a425a;fill-opacity:1"
             id="tspan34"
             font-size="3"
             font-family="'Helvetica-Bold'"
             fill="#000000"
             y="0"
             x="0">Strokes</tspan><tspan
             style="fill:#0a425a;fill-opacity:1"
             id="tspan36"
             font-size="2.4"
             font-family="'Helvetica'"
             fill="#000000"
             y="5"
             x="0">Try to keep strokes at 4px</tspan><tspan
             style="fill:#0a425a;fill-opacity:1"
             id="tspan38"
             font-size="2.4"
             font-family="'Helvetica'"
             fill="#000000"
             y="10"
             x="0">Minimum stroke weight is 2px</tspan><tspan
             style="fill:#0a425a;fill-opacity:1"
             id="tspan40"
             font-size="2.4"
             font-family="'Helvetica'"
             fill="#000000"
             y="14.5"
             x="0">For thicker strokes use even </tspan><tspan
             style="fill:#0a425a;fill-opacity:1"
             id="tspan42"
             font-size="2.4"
             font-family="'Helvetica'"
             fill="#000000"
             y="17.5"
             x="0">numbers: 6px, 8px etc.</tspan><tspan
             style="fill:#0a425a;fill-opacity:1"
             id="tspan44"
             font-size="2.4"
             font-family="'Helvetica-Bold'"
             fill="#000000"
             y="22"
             x="0">Remember to expand strokes </tspan><tspan
             style="fill:#0a425a;fill-opacity:1"
             id="tspan46"
             font-size="2.4"
             font-family="'Helvetica-Bold'"
             fill="#000000"
             y="25"
             x="0">before saving as an SVG </tspan></text><rect
           style="fill:#0a425a;fill-opacity:1"
           id="rect50"
           height="32.5"
           width="35"
           fill="none"
           display="inline"
           y="58"
           x="-136.5" /><text
           style="fill:#0a425a;fill-opacity:1"
           id="text62"
           display="inline"
           transform="matrix(1 0 0 1 -136.5 60.1572)"><tspan
             style="fill:#0a425a;fill-opacity:1"
             id="tspan52"
             font-size="3"
             font-family="'Helvetica-Bold'"
             fill="#000000"
             y="0"
             x="0">Size</tspan><tspan
             style="fill:#0a425a;fill-opacity:1"
             id="tspan54"
             font-size="2.4"
             font-family="'Helvetica'"
             fill="#000000"
             y="5"
             x="0">Cannot be wider or taller than </tspan><tspan
             style="fill:#0a425a;fill-opacity:1"
             id="tspan56"
             font-size="2.4"
             font-family="'Helvetica'"
             fill="#000000"
             y="8.5"
             x="0">100px (artboard size)</tspan><tspan
             style="fill:#0a425a;fill-opacity:1"
             id="tspan58"
             font-size="2.4"
             font-family="'Helvetica'"
             fill="#000000"
             y="13.5"
             x="0">Scale your icon to fill as much of </tspan><tspan
             style="fill:#0a425a;fill-opacity:1"
             id="tspan60"
             font-size="2.4"
             font-family="'Helvetica'"
             fill="#000000"
             y="16.5"
             x="0">the artboard as possible</tspan></text><rect
           style="fill:#0a425a;fill-opacity:1"
           id="rect64"
           height="32.5"
           width="35"
           fill="none"
           display="inline"
           y="58"
           x="-94" /><text
           style="fill:#0a425a;fill-opacity:1"
           id="text72"
           display="inline"
           transform="matrix(1 0 0 1 -94 60.1572)"><tspan
             style="fill:#0a425a;fill-opacity:1"
             id="tspan66"
             font-size="3"
             font-family="'Helvetica-Bold'"
             fill="#000000"
             y="0"
             x="0">Ungroup</tspan><tspan
             style="fill:#0a425a;fill-opacity:1"
             id="tspan68"
             font-size="2.4"
             font-family="'Helvetica'"
             fill="#000000"
             y="5"
             x="0">If your design has more than one </tspan><tspan
             style="fill:#0a425a;fill-opacity:1"
             id="tspan70"
             font-size="2.4"
             font-family="'Helvetica'"
             fill="#000000"
             y="8"
             x="0">shape, make sure to ungroup</tspan></text><rect
           style="fill:#0a425a;fill-opacity:1"
           id="rect74"
           height="32.5"
           width="35"
           fill="none"
           display="inline"
           y="58"
           x="-50" /><text
           style="fill:#0a425a;fill-opacity:1"
           id="text82"
           display="inline"
           transform="matrix(1 0 0 1 -50 60.1572)"><tspan
             style="fill:#0a425a;fill-opacity:1"
             id="tspan76"
             font-size="3"
             font-family="'Helvetica-Bold'"
             fill="#000000"
             y="0"
             x="0">Save as</tspan><tspan
             style="fill:#0a425a;fill-opacity:1"
             id="tspan78"
             font-size="2.4"
             font-family="'Helvetica'"
             fill="#000000"
             y="5"
             x="0">Save as .SVG and make sure </tspan><tspan
             style="fill:#0a425a;fill-opacity:1"
             id="tspan80"
             font-size="2.4"
             font-family="'Helvetica'"
             fill="#000000"
             y="8"
             x="0">“Use Artboards” is checked</tspan></text><text
           style="fill:#0a425a;fill-opacity:1"
           id="text84"
           font-size="2.5731"
           font-family="'Helvetica'"
           fill="#000000"
           display="inline"
           transform="matrix(1.0074 0 0 1 -125.542 30.5933)">100px</text><text
           style="fill:#0a425a;fill-opacity:1"
           id="text86"
           font-size="5.1462"
           font-family="'Helvetica-Bold'"
           fill="#000000"
           display="inline"
           transform="matrix(1.0074 0 0 1 -41 39)">.SVG</text><rect
           style="fill:#0a425a;fill-opacity:1"
           id="rect88"
           height="10.185"
           width="10.261"
           fill="#000000"
           display="inline"
           y="34.815"
           x="-126.514" /><rect
           style="fill:#0a425a;fill-opacity:1"
           id="rect90"
           height="2.337"
           width="0.522"
           fill="#000000"
           display="inline"
           y="31.766"
           x="-126.477" /><rect
           style="fill:#0a425a;fill-opacity:1"
           id="rect92"
           height="2.337"
           width="0.523"
           fill="#000000"
           display="inline"
           y="31.766"
           x="-116.812" /><rect
           style="fill:#0a425a;fill-opacity:1"
           id="rect94"
           height="0.572"
           width="11.233"
           fill="#000000"
           display="inline"
           y="32.337"
           x="-127" /><g
           style="fill:#0a425a;fill-opacity:1"
           id="g100"
           display="inline"><rect
             style="fill:#0a425a;fill-opacity:1"
             id="rect96"
             height="10.156"
             width="10.305"
             fill="#000000"
             y="33.844"
             x="-83.805" /><rect
             style="fill:#0a425a;fill-opacity:1"
             id="rect98"
             height="3.261"
             width="3.308"
             fill="#000000"
             y="28.707"
             x="-76.809" /></g><rect
           style="fill:#0a425a;fill-opacity:1"
           id="rect102"
           height="30"
           width="30"
           stroke-miterlimit="10"
           stroke="#000000"
           fill="#000000"
           display="inline"
           y="22.5"
           x="-178.5" /><rect
           style="fill:#0a425a;fill-opacity:1"
           id="rect104"
           height="30"
           width="30"
           stroke-miterlimit="10"
           stroke="#000000"
           fill="#000000"
           display="inline"
           y="22.5"
           x="-136.5" /><rect
           style="fill:#0a425a;fill-opacity:1"
           id="rect106"
           height="30"
           width="30"
           stroke-miterlimit="10"
           stroke="#000000"
           fill="#000000"
           display="inline"
           y="22.5"
           x="-93.5" /><rect
           style="fill:#0a425a;fill-opacity:1"
           id="rect108"
           height="30"
           width="30"
           stroke-miterlimit="10"
           stroke="#000000"
           fill="#000000"
           display="inline"
           y="22.5"
           x="-49.5" /></g><g
         style="fill:#0a425a;fill-opacity:1"
         id="g130"><g
           style="fill:#0a425a;fill-opacity:1"
           id="g114"><path
             style="fill:#0a425a;fill-opacity:1"
             id="path112"
             d="      M53.222,49.213"
             stroke-miterlimit="3.8637"
             stroke-linejoin="round"
             stroke-linecap="round"
             stroke-width="1.9664"
             stroke="#000000" /></g><g
           style="fill:#0a425a;fill-opacity:1"
           id="g118"><polygon
             style="fill:#0a425a;fill-opacity:1"
             id="polygon116"
             points="60.78,23.796 38.235,23.796 38.235,21.483 60.78,21.483 60.78,23.796     " /></g><g
           style="fill:#0a425a;fill-opacity:1"
           id="g122"><polygon
             style="fill:#0a425a;fill-opacity:1"
             id="polygon120"
             points="60.78,29.784 38.235,29.784 38.235,27.472 60.78,27.472 60.78,29.784     " /></g><g
           style="fill:#0a425a;fill-opacity:1"
           id="g126"><polygon
             style="fill:#0a425a;fill-opacity:1"
             id="polygon124"
             points="57.313,35.77 41.704,35.77 41.704,33.458 57.313,33.458 57.313,35.77     " /></g><path
           style="fill:#0a425a;fill-opacity:1"
           id="path128"
           d="M96.442,15H3.778C1.695,15,0,16.695,0,18.778v56.248c0,2.084,1.695,3.777,3.778,3.777h92.665     c2.084,0,3.778-1.693,3.778-3.777V18.778C100.221,16.695,98.526,15,96.442,15z M2.319,18.712c0.031-0.667,0.504-1.218,1.136-1.36     h93.311c0.647,0.147,1.134,0.722,1.141,1.412v0.832l-4.185,0.045l-7.71,5.749l8-0.088l-6.75,4.962l-8.1,0.087l-7.712,5.747     l7.992-0.086l-7.581,5.574l-8.146-0.125l-7.709,5.747l8.33-0.092l-6.57,4.83L41.493,52.02l-6.499-4.902l8.152,0.09l-7.71-5.747     l-8.056-0.089l-7.097-5.354l7.421,0.081l-7.711-5.747l-7.325-0.079l-6.573-4.959l7.047,0.077l-7.711-5.749l-3.112-0.033V18.712z      M6.187,27.967l-3.874,3.875v-6.832L6.187,27.967z M2.312,75.025v-2.857l4.602-4.604v-8.339l-4.602,4.604v-7.655l4.602-4.603     v-8.338l-4.602,4.602v-7.652l4.602-4.604v-7.056l35.525,27.109l0.066,0.047c0.105,0.067,2.62,1.674,6.78,1.775     c0.186,0.006,0.368,0.008,0.544,0.008c4.293,0,6.101-1.29,6.275-1.425l41.802-30.764v6.935l-4.603,4.602v8.338l4.603-4.604v7.658     l-4.603,4.604v8.337l4.603-4.603v7.652l-4.603,4.605v3.279h-3.281l-4.413,4.412h-7.652l4.413-4.412H74.03l-4.412,4.412h-7.657     l4.413-4.412h-8.339l-4.413,4.412h-7.655l4.413-4.412h-8.339l-4.413,4.412h-7.65l4.411-4.412h-8.34l-4.411,4.412H13.98     l4.412-4.412h-8.337l-4.412,4.412H3.778C2.97,76.489,2.312,75.834,2.312,75.025z M96.442,76.489h-2.494l3.959-3.957v2.493     C97.907,75.834,97.251,76.489,96.442,76.489z" /></g></g></g></svg>
