<?xml version="1.0" encoding="UTF-8" standalone="no"?>
<svg
   xmlns:dc="http://purl.org/dc/elements/1.1/"
   xmlns:cc="http://creativecommons.org/ns#"
   xmlns:rdf="http://www.w3.org/1999/02/22-rdf-syntax-ns#"
   xmlns:svg="http://www.w3.org/2000/svg"
   xmlns="http://www.w3.org/2000/svg"
   xmlns:sodipodi="http://sodipodi.sourceforge.net/DTD/sodipodi-0.dtd"
   xmlns:inkscape="http://www.inkscape.org/namespaces/inkscape"
   height="53.929134"
   width="88.031494"
   xml:space="preserve"
   version="1.1"
   style="clip-rule:evenodd;fill:#000000;fill-rule:evenodd;image-rendering:optimizeQuality;shape-rendering:geometricPrecision;text-rendering:geometricPrecision"
   viewBox="0 0 2236.0001 1369.8"
   x="0px"
   y="0px"
   id="svg16"
   sodipodi:docname="envoye.svg"
   inkscape:version="0.92.4 (5da689c313, 2019-01-14)"><metadata
     id="metadata20"><rdf:RDF><cc:Work
         rdf:about=""><dc:format>image/svg+xml</dc:format><dc:type
           rdf:resource="http://purl.org/dc/dcmitype/StillImage" /><dc:title></dc:title></cc:Work></rdf:RDF></metadata><sodipodi:namedview
     pagecolor="#ffffff"
     bordercolor="#666666"
     borderopacity="1"
     objecttolerance="10"
     gridtolerance="10"
     guidetolerance="10"
     inkscape:pageopacity="0"
     inkscape:pageshadow="2"
     inkscape:window-width="1920"
     inkscape:window-height="1016"
     id="namedview18"
     showgrid="false"
     showguides="true"
     inkscape:guide-bbox="true"
     inkscape:zoom="2.36"
     inkscape:cx="44.015748"
     inkscape:cy="32.464566"
     inkscape:window-x="0"
     inkscape:window-y="27"
     inkscape:window-maximized="1"
     inkscape:current-layer="svg16"
     fit-margin-top="15"
     fit-margin-left="0"
     fit-margin-right="0"
     fit-margin-bottom="2"><sodipodi:guide
       position="-1917.0847,-47.179686"
       orientation="0,1"
       id="guide827"
       inkscape:locked="false" /></sodipodi:namedview><defs
     id="defs4"><style
       type="text/css"
       id="style2">
   
    .fil0 {fill:#000000;fill-rule:nonzero}
   
  </style></defs><g
     id="g14"
     style="fill:#0a425a;fill-opacity:1"
     transform="translate(-152,-419.99999)"><path
       class="fil0"
       d="m 1150,801 h 1108 c 11,0 22,1 32,3 59,14 98,64 98,124 0,10 -2,22 -4,33 l -148,640 c -9,39 -32,73 -63,98 -30,25 -69,40 -108,40 H 957 c -10,0 -21,-1 -32,-3 -29,-7 -53,-23 -70,-45 -17,-22 -27,-49 -27,-79 0,-10 1,-22 4,-33 L 980,939 c 17,-77 92,-138 170,-138 z m 534,485 -49,27 c -17,11 -40,11 -57,-2 l -55,-39 c -197,116 -395,232 -592,348 0,4 2,7 4,9 3,4 7,7 13,8 3,0 6,1 9,1 h 1108 c 15,0 31,-7 45,-18 5,-4 9,-8 13,-13 -146,-107 -293,-214 -439,-321 z m 99,-53 c 124,90 247,181 371,271 l 125,-539 z m -826,254 c 159,-93 318,-187 476,-280 L 1081,954 c -1,3 -2,5 -2,7 z m 225,-585 430,308 570,-308 z"
       id="path6"
       style="fill:#0a425a;fill-opacity:1;fill-rule:nonzero"
       inkscape:connector-curvature="0" /><path
       class="fil0"
       d="m 203,1635 c -28,0 -51,-23 -51,-51 0,-28 23,-51 51,-51 h 486 c 29,0 51,23 51,51 0,28 -22,51 -51,51 z"
       id="path8"
       style="fill:#0a425a;fill-opacity:1;fill-rule:nonzero"
       inkscape:connector-curvature="0" /><path
       class="fil0"
       d="m 471,1416 c -28,0 -51,-23 -51,-51 0,-28 23,-50 51,-50 h 308 c 28,0 51,22 51,50 0,28 -23,51 -51,51 z"
       id="path10"
       style="fill:#0a425a;fill-opacity:1;fill-rule:nonzero"
       inkscape:connector-curvature="0" /><path
       class="fil0"
       d="m 598,1198 c -28,0 -51,-23 -51,-51 0,-28 23,-51 51,-51 h 255 c 28,0 50,23 50,51 0,28 -22,51 -50,51 z"
       id="path12"
       style="fill:#0a425a;fill-opacity:1;fill-rule:nonzero"
       inkscape:connector-curvature="0" /></g></svg>