<?xml version="1.0" encoding="UTF-8" standalone="no"?>
<svg
   xmlns:dc="http://purl.org/dc/elements/1.1/"
   xmlns:cc="http://creativecommons.org/ns#"
   xmlns:rdf="http://www.w3.org/1999/02/22-rdf-syntax-ns#"
   xmlns:svg="http://www.w3.org/2000/svg"
   xmlns="http://www.w3.org/2000/svg"
   xmlns:sodipodi="http://sodipodi.sourceforge.net/DTD/sodipodi-0.dtd"
   xmlns:inkscape="http://www.inkscape.org/namespaces/inkscape"
   height="100px"
   width="100px"
   fill="#1A1A1A"
   version="1.1"
   x="0px"
   y="0px"
   viewBox="0 0 281 472"
   enable-background="new 0 0 281 472"
   xml:space="preserve"
   id="svg46"
   sodipodi:docname="espece.svg"
   inkscape:version="0.92.1 r15371"><metadata
     id="metadata52"><rdf:RDF><cc:Work
         rdf:about=""><dc:format>image/svg+xml</dc:format><dc:type
           rdf:resource="http://purl.org/dc/dcmitype/StillImage" /><dc:title></dc:title></cc:Work></rdf:RDF></metadata><defs
     id="defs50" /><sodipodi:namedview
     pagecolor="#ffffff"
     bordercolor="#666666"
     borderopacity="1"
     objecttolerance="10"
     gridtolerance="10"
     guidetolerance="10"
     inkscape:pageopacity="0"
     inkscape:pageshadow="2"
     inkscape:window-width="1920"
     inkscape:window-height="1046"
     id="namedview48"
     showgrid="false"
     inkscape:zoom="2.36"
     inkscape:cx="50"
     inkscape:cy="50"
     inkscape:window-x="-11"
     inkscape:window-y="-11"
     inkscape:window-maximized="1"
     inkscape:current-layer="svg46" /><g
     id="g44"
     style="fill:#0a425a;fill-opacity:1;stroke-width:0.91862726"
     transform="matrix(1.1850082,0,0,1,-25.635385,0)"><path
       d="m 155.4,224.6 c 4.3,-2.1 8.2,-4.6 8.2,-8.1 0,-7.3 -13,-18.8 -13,-18.8 0,0 -6.6,-5.8 -11.5,-2.6 -0.8,0.5 -3.5,0.5 -4.3,0 -4.9,-3.3 -11.5,2.5 -11.5,2.5 0,0 -13,11.6 -13,18.9 0,4 5.6,6.4 10.7,8.6 -33.9,-6.4 -50.7,43.7 -47.6,69.5 l 1.8,9.6 c -1.6,-8.8 0.8,-14.9 5.4,-22.2 3.1,-5 9.4,-6.2 12,-16.1 2.9,-10.6 9.8,-11.9 18.3,-17.4 8.5,-5.5 12,-7.4 19.3,-7.4 6.6,0 6.5,-4.4 6.5,-4.4 0,0 -0.1,4.4 6.5,4.4 7.4,0 10.8,1.9 19.3,7.4 8.5,5.5 15.5,6.9 18.3,17.4 2.7,9.9 8.9,11.2 12,16.2 4.6,7.3 7,13.5 5.4,22.3 l 1.8,-9.6 c 3.2,-25.3 -12.6,-73.4 -44.6,-70.2 z m -8.5,-5.1 c -2.5,0.6 -6,3 -9.1,3.4 0.5,2 0.5,4.5 0.4,7 l -1.2,0.4 -0.9,-0.3 c -0.2,-5.5 0.4,-7 0.4,-7 0,0 0,-0.1 0,-0.1 -3.1,-0.4 -6.8,-2.8 -9.3,-3.5 -4,-1 -7,0.2 -8.5,-2.3 -1.5,-2.5 5.4,-6.8 13.5,2.8 0,0 1.3,1.9 4,2.1 -1.2,-5.4 0.8,-23.3 0.8,-23.6 2.3,13.9 1.4,21.3 1,23.6 2.6,-0.3 3.9,-2.1 3.9,-2.1 8.2,-9.7 15.1,-5.3 13.5,-2.8 -1.6,2.6 -4.5,1.4 -8.5,2.4 z"
       id="path2"
       style="fill:#0a425a;fill-opacity:1;stroke-width:0.91862726"
       inkscape:connector-curvature="0" /><path
       d="m 41.7,222.1 c -20.6,19.2 -15.1,36 -15.1,36 0.8,-17.4 13.1,-29.4 21.5,-37.5 9.7,-9.4 11.7,-18.9 11.7,-18.9 0,0 -7.1,10.2 -18.1,20.4 z"
       id="path4"
       style="fill:#0a425a;fill-opacity:1;stroke-width:0.91862726"
       inkscape:connector-curvature="0" /><path
       d="m 92,217 c 19,-17.5 29.5,-25.8 28.8,-33.2 -0.7,-7.3 -13.8,-10.3 -30.3,-8.5 -16.5,1.9 -25.7,9.7 -25.7,9.7 0,0 12.8,-7.1 29.2,-8.5 -5.6,1.6 -8.7,4.5 -8.7,4.5 4.2,-0.2 7.8,7.2 18.8,6.3 10.3,-0.9 13.2,-5.1 14,-6.8 7.4,8.3 -27.6,29.8 -37.6,47.1 -11.3,19.6 -10.3,35.8 -10.3,35.8 0,0 2.8,-28.9 21.8,-46.4 z"
       id="path6"
       style="fill:#0a425a;fill-opacity:1;stroke-width:0.91862726"
       inkscape:connector-curvature="0" /><path
       d="m 125.4,182.6 c -5.6,-31 -58.6,-20 -58.1,-19.5 50.3,-5.1 58.1,19.5 58.1,19.5 z"
       id="path8"
       style="fill:#0a425a;fill-opacity:1;stroke-width:0.91862726"
       inkscape:connector-curvature="0" /><path
       d="m 247.3,258.1 c 0,0 5.6,-16.8 -15.1,-36 -11,-10.2 -18.1,-20.4 -18.1,-20.4 0,0 2,9.4 11.7,18.9 8.4,8 20.8,20.1 21.5,37.5 z"
       id="path10"
       style="fill:#0a425a;fill-opacity:1;stroke-width:0.91862726"
       inkscape:connector-curvature="0" /><path
       d="m 230.7,278.1 c 0.4,1.4 5.3,23.2 -18.9,53 0,0 27.8,-22.4 18.9,-53 z"
       id="path12"
       style="fill:#0a425a;fill-opacity:1;stroke-width:0.91862726"
       inkscape:connector-curvature="0" /><path
       d="m 230.2,315.8 c 0,0 27.6,-22.7 18.4,-53.2 0.4,1.4 5.5,23.1 -18.4,53.2 z"
       id="path14"
       style="fill:#0a425a;fill-opacity:1;stroke-width:0.91862726"
       inkscape:connector-curvature="0" /><path
       d="m 183.5,175.3 c -16.5,-1.8 -29.7,1.2 -30.3,8.5 -0.7,7.3 9.8,15.7 28.8,33.2 19,17.5 21.8,46.3 21.8,46.3 0,0 1,-16.3 -10.3,-35.8 -9.9,-17.1 -44.1,-38.3 -37.8,-46.8 0.9,1.9 4,6 14.3,6.8 11.3,1 15,-6.6 19.3,-6.4 0,0 -3.1,-2.9 -8.8,-4.6 16.1,1.5 28.7,8.5 28.7,8.5 0,0 -9.2,-7.8 -25.7,-9.7 z"
       id="path16"
       style="fill:#0a425a;fill-opacity:1;stroke-width:0.91862726"
       inkscape:connector-curvature="0" /><path
       d="m 206.7,163 c 0.5,-0.5 -52.5,-11.4 -58.1,19.5 0,0.1 7.8,-24.5 58.1,-19.5 z"
       id="path18"
       style="fill:#0a425a;fill-opacity:1;stroke-width:0.91862726"
       inkscape:connector-curvature="0" /><path
       d="m 93.1,339.9 c -14.6,-34.7 6.4,-63.7 6.1,-63.3 -27.1,35.9 -6.1,63.3 -6.1,63.3 z"
       id="path20"
       style="fill:#0a425a;fill-opacity:1;stroke-width:0.91862726"
       inkscape:connector-curvature="0" /><path
       d="m 138.7,277.6 c -7.3,9.4 -6,26 8.7,40.3 11.4,11.2 17.7,27.7 17.7,27.7 0.2,-7.2 -4.9,-17.9 -19.9,-33.9 -15,-15.9 -6.5,-34.1 -6.5,-34.1 z"
       id="path22"
       style="fill:#0a425a;fill-opacity:1;stroke-width:0.91862726"
       inkscape:connector-curvature="0" /><path
       d="m 120.1,275.9 c -9.5,7.2 -15.3,26 -3.9,43.3 3,4.5 13.3,22.3 13.3,22.3 -2.4,-7.5 -13.3,-26.7 -13.3,-26.7 -10.9,-21.6 3.9,-38.9 3.9,-38.9 z"
       id="path24"
       style="fill:#0a425a;fill-opacity:1;stroke-width:0.91862726"
       inkscape:connector-curvature="0" /><path
       d="m 126.5,153.4 c 0,0 -10.7,-35.7 -31,-51.6 -15.2,-11.9 -42.3,-10.5 -62.6,6.6 5.7,-4.6 51.7,-37.7 93.6,45 z"
       id="path26"
       style="fill:#0a425a;fill-opacity:1;stroke-width:0.91862726"
       inkscape:connector-curvature="0" /><path
       d="m 241.7,377.3 c 16.1,8.2 14.4,24 14.4,24 0,0 -3.2,-11.1 -19.8,-15.3 -16.6,-4.2 -23.8,-12.9 -23.8,-12.9 2.2,3.2 12.4,20.5 24.5,23.8 12.1,3.2 17.3,8.2 17.3,8.2 -9.2,-5.7 -14.8,-0.2 -33.4,-4.5 -18.6,-4.3 -31.2,-18.8 -31.2,-18.8 8.2,55.2 -52.5,67.8 -52.5,67.8 22,-16.1 15.8,-37.6 -0.2,-51.2 -16.1,-13.6 -27.5,-29.7 -27.5,-29.7 1.6,2.5 7.9,12.4 7.9,12.4 21.5,33.7 -3.6,63.7 -3.6,63.7 0,0 7.8,-17.2 -11.8,-30.8 C 82.4,400.4 79.7,387.9 79.7,387.9 79,405.6 92.6,420.4 92.6,420.4 53.9,398.1 72.2,364.6 72.2,364.6 c -2,2.8 -6.3,9.8 -18.2,13 -11.9,3.2 -17.6,8.2 -17.6,8.2 3.3,-13.1 16.5,-19 25.1,-27 C 70.2,350.7 74.2,341 58.8,327 38.3,299.3 42.7,279.4 43.1,278.1 c -5.7,19.7 3.8,36 11.2,45.1 -0.5,-0.4 -1,-0.8 -1.5,-1.2 -2.9,-2.4 -6.4,-4.7 -10.1,-7.4 C 20,285.1 25,264 25.4,262.6 c -7.3,24.3 8.6,43.6 15.5,50.5 -9,-7 -18.7,-17.2 -24.2,-37.7 -7.2,-26.9 0.3,-42.6 6.4,-63.9 0.7,-2.5 1.3,-5.2 1.9,-8.1 4,-5.9 10,-12.5 18.8,-17.2 0,0 -10,0.5 -17.9,11.3 1.6,-11 2.1,-23.5 2.6,-36.2 6.6,-24 22.8,-38.6 39.4,-31.1 18.4,8.2 22.8,8 22.8,8 -16.2,-3.6 -22.5,-21.2 -41.5,-14.3 -12.1,4.4 -17.8,15.7 -20.4,26 0.5,-14.3 1.3,-28.5 3.5,-40.9 0.1,-0.1 0.3,-0.2 0.4,-0.4 -0.2,0.2 -0.3,0.3 -0.4,0.4 1.2,-6.9 2.9,-13.2 5.3,-18.7 3.4,-7.8 7.2,-14.7 11.3,-20.8 0.3,-0.1 0.6,-0.3 1,-0.4 -0.3,0.1 -0.6,0.2 -0.9,0.4 9.6,-14.3 21,-24.2 32.3,-31 11.8,-1.6 30.6,1.6 47.6,29.5 0,0 -13.5,-36.4 -46.9,-29.9 26.8,-15.9 53.1,-14.8 55.7,-14.7 2.6,-0.1 28.7,-1.2 55.4,14.5 C 160.3,32.2 147,68 147,68 c 16.8,-27.3 35.1,-30.9 46.9,-29.6 11.3,6.8 22.6,16.6 32.2,30.8 -67,-29.1 -84,57.1 -84,57.1 29.1,-68.3 67.9,-63 84.1,-57 4.2,6.1 8,13.1 11.4,21 2.3,5.3 4,11.5 5.2,18.1 -20.2,-16.9 -47.2,-18.3 -62.4,-6.5 -20.3,15.9 -31,51.6 -31,51.6 41.4,-81.8 86.8,-50.4 93.4,-45.2 2.2,11.9 3,25.4 3.5,39.1 -2.8,-9.6 -8.5,-19.6 -19.7,-23.6 -19,-6.9 -25.3,10.7 -41.5,14.3 0,0 4.4,0.3 22.8,-8 16.1,-7.2 31.9,6.3 38.8,29 0.5,14.6 1.1,29 3.1,41.3 -8,-13.7 -19.8,-14.3 -19.8,-14.3 10.7,5.7 17.2,14.1 21,20.8 0.3,1.5 0.7,3 1.1,4.4 6.1,21.4 13.6,37.1 6.4,64 -8.2,30.7 -39.2,42.2 -31.3,61.2 7.9,19 25.7,7.4 25.7,7.4 -6.4,10.9 -23,8.9 -23,8.9 40.2,19.2 33.4,45.6 33.2,46.5 0.2,0.6 0.4,1.2 0.6,1.8 l 1.9,7.2 2,-7.2 c 0.3,-1.1 6.9,-26.2 -27.9,-46.2 5.9,-0.7 13.3,-3.1 17.3,-9.9 l 4.4,-7.5 -7.3,4.8 c 0,0 -5,3.3 -10.6,3.3 -5.6,0 -9.8,-3.3 -12.6,-9.9 -3.8,-9.3 2.5,-16.6 11.2,-26.7 7.9,-9.1 16.8,-19.5 20.8,-34.5 6.4,-23.9 1.7,-39.3 -3.8,-57.1 -0.9,-3 -1.9,-6.1 -2.8,-9.3 -4.2,-14.8 -4.9,-34.5 -5.6,-55.4 -0.9,-25.2 -1.8,-51.2 -9.4,-68.7 -12,-28 -30.9,-48 -56,-59.6 -20,-9.2 -38.3,-10.2 -45.2,-10.2 -1.3,0 -2.2,0 -2.7,0.1 -0.5,0 -1.4,-0.1 -2.7,-0.1 -6.9,0 -25.2,1 -45.2,10.2 -25.1,11.6 -44,31.7 -56,59.6 -7.7,17.6 -8.5,43.6 -9.4,68.7 -0.7,20.8 -1.4,40.5 -5.6,55.4 -0.9,3.2 -1.9,6.3 -2.8,9.3 -5.4,17.8 -10.2,33.2 -3.8,57.1 7.1,26.7 21.4,36.9 31.8,44.4 2.1,1.5 4.1,2.9 5.9,4.4 10.2,7.7 15.6,14.7 15.9,20.9 0.2,4.5 -2.1,8.8 -7.2,13.5 -2.4,2.2 -5,4.2 -7.9,6.3 -7.8,5.8 -15.8,11.8 -18.4,22.2 l -1.5,6.2 4.8,-4.1 c 0.1,0 5.7,-4.8 17.2,-7.9 5.7,-1.5 9.8,-3.9 12.8,-6.3 -0.7,3.2 -1.2,6.9 -1.1,11.1 0.5,19.8 14.5,32 26.2,38.7 l 11.3,6.5 -8.8,-9.6 c -0.1,-0.1 -8.2,-9 -11.3,-21 3.5,4.9 9.1,11.1 18.3,17.5 18.3,12.7 11.6,28.3 11.3,28.9 l -6.1,13.5 9.5,-11.4 c 0.2,-0.3 22.2,-27.1 8.5,-58.7 3.7,3.8 7.8,7.8 12.3,11.6 9.3,7.9 14.4,17.6 14.1,26.8 -0.3,8.4 -4.9,15.9 -13.7,22.3 l -7.6,5.5 9.2,-1.9 c 0.6,-0.1 16,-3.4 30.6,-13.8 12.7,-9 26.9,-25.2 25.1,-51.9 5.4,4.9 15.6,12.7 28.7,15.7 7.2,1.6 12.5,1.8 16.2,1.8 1.5,0 2.8,0 4.1,-0.1 1.1,0 2.1,-0.1 3.1,-0.1 3.8,0 6.6,0.4 10.1,2.6 l 2.8,1.8 0.9,3.1 0.3,-2.4 6.4,4.4 -6,-8.2 0.4,-4 c 0,-0.1 0.5,-5.5 -1.9,-11.7 1.9,2.3 3.6,5 4.7,8 -3.8,-15.1 -21.2,-21.8 -21.2,-21.8 z m -2.2,19.6 c -6.2,-1.6 -11.8,-7.3 -16.1,-12.7 3.7,2 8.5,4.1 14.4,5.6 15.2,3.8 18.3,13.6 18.4,14 l 0.2,0.6 c -2.4,-1.6 -7.8,-5 -16.9,-7.5 z"
       id="path28"
       style="fill:#0a425a;fill-opacity:1;stroke-width:0.91862726"
       inkscape:connector-curvature="0" /><path
       d="m 263.2,399.4 c 0,0 0,-0.1 0,0 0,-0.1 0,-0.1 -0.1,-0.2 0.1,0 0.1,0.1 0.1,0.2 z"
       id="path30"
       style="fill:#0a425a;fill-opacity:1;stroke-width:0.91862726"
       inkscape:connector-curvature="0" /><path
       d="m 132.8,125.7 c 0,0 -16.1,-85.6 -82.8,-56.8 16.1,-6 53.9,-11 82.8,56.8 z"
       id="path32"
       style="fill:#0a425a;fill-opacity:1;stroke-width:0.91862726"
       inkscape:connector-curvature="0" /><path
       d="m 138,220.1 c -0.3,0 -0.6,0.1 -1,0.1 -0.3,0 -0.5,0 -0.8,0 0.1,0.3 0.2,0.6 0.3,0.8 0.2,0 0.4,0 0.5,0 0.3,0 0.5,0 0.8,-0.1 0,0 0,0 0,0 0,0 0.1,-0.2 0.2,-0.8 z"
       id="path34"
       style="fill:#0a425a;fill-opacity:1;stroke-width:0.91862726"
       inkscape:connector-curvature="0" /><path
       d="m 100.2,256.2 0.2,-1.4 c -0.2,0.4 -0.3,0.9 -0.2,1.4 z"
       id="path36"
       style="fill:#0a425a;fill-opacity:1;stroke-width:0.91862726"
       inkscape:connector-curvature="0" /><path
       d="m 168.7,254 c -5,7.5 -6.8,-2 -6.8,-2 -5.5,4.8 -8.7,-0.8 -8.7,-0.8 -5.8,3.7 -8.3,-1.8 -8.3,-1.8 -5.5,3.8 -7.8,-0.1 -7.8,-0.1 0,0 -2.7,3.9 -8.2,0.1 0,0 -2.5,5.5 -8.3,1.8 0,0 -3.2,5.7 -8.7,0.8 0,0 -1.8,9.5 -6.8,2 0,0 -1.3,6 -4.8,2.2 0.2,3.1 4.6,6.6 13,3.7 9.9,-3.5 22.1,-3.4 23.7,-3.3 1.5,0 13.8,-0.1 23.7,3.3 8.3,2.9 12.8,-0.6 13,-3.7 0,0 -0.1,0.1 -0.1,0.1 -3.6,3.5 -4.9,-2.3 -4.9,-2.3 z"
       id="path38"
       style="fill:#0a425a;fill-opacity:1;stroke-width:0.91862726"
       inkscape:connector-curvature="0" /><polygon
       points=""
       id="polygon40"
       style="fill:#0a425a;fill-opacity:1;stroke-width:0.91862726" /><path
       d="m 173.5,256.2 v -0.4 c 0,0.1 0,0.2 0,0.4 0,0 0,0 0,0 z"
       id="path42"
       style="fill:#0a425a;fill-opacity:1;stroke-width:0.91862726"
       inkscape:connector-curvature="0" /></g></svg>