<?xml version="1.0" encoding="UTF-8" standalone="no"?>
<svg
   xmlns:dc="http://purl.org/dc/elements/1.1/"
   xmlns:cc="http://creativecommons.org/ns#"
   xmlns:rdf="http://www.w3.org/1999/02/22-rdf-syntax-ns#"
   xmlns:svg="http://www.w3.org/2000/svg"
   xmlns="http://www.w3.org/2000/svg"
   xmlns:sodipodi="http://sodipodi.sourceforge.net/DTD/sodipodi-0.dtd"
   xmlns:inkscape="http://www.inkscape.org/namespaces/inkscape"
   inkscape:version="1.0 (4035a4fb49, 2020-05-01)"
   sodipodi:docname="exclusions.svg"
   id="svg84"
   xml:space="preserve"
   style="enable-background:new 0 0 1000 1000;"
   viewBox="0 0 1000 1000"
   y="0px"
   x="0px"
   version="1.1"
   fill="#000000"
   width="100px"
   height="100px"><metadata
     id="metadata90"><rdf:RDF><cc:Work
         rdf:about=""><dc:format>image/svg+xml</dc:format><dc:type
           rdf:resource="http://purl.org/dc/dcmitype/StillImage" /><dc:title></dc:title></cc:Work></rdf:RDF></metadata><defs
     id="defs88" /><sodipodi:namedview
     inkscape:snap-global="false"
     inkscape:document-rotation="0"
     inkscape:current-layer="svg84"
     inkscape:window-maximized="1"
     inkscape:window-y="-8"
     inkscape:window-x="-8"
     inkscape:cy="50"
     inkscape:cx="50"
     inkscape:zoom="2.36"
     showgrid="false"
     id="namedview86"
     inkscape:window-height="1017"
     inkscape:window-width="1920"
     inkscape:pageshadow="2"
     inkscape:pageopacity="0"
     guidetolerance="10"
     gridtolerance="10"
     objecttolerance="10"
     borderopacity="1"
     bordercolor="#666666"
     pagecolor="#ffffff" /><style
     id="style2"
     type="text/css">
	.st0{fill:none;stroke:#000000;stroke-width:50;stroke-miterlimit:10;}
</style><g
     style="fill:#0a425a;fill-opacity:1;opacity:0.68591224"
     id="g82"><g
       style="fill:#0a425a;fill-opacity:1"
       id="g10"><g
         style="fill:#0a425a;fill-opacity:1"
         id="g8"><g
           style="fill:#0a425a;fill-opacity:1"
           id="g6"><path
             style="fill:#0a425a;fill-opacity:1"
             id="path4"
             d="M479.1,338.5"
             class="st0" /></g></g></g><g
       style="fill:#0a425a;fill-opacity:1"
       id="g28"><g
         style="fill:#0a425a;fill-opacity:1"
         id="g26"><g
           style="fill:#0a425a;fill-opacity:1"
           id="g24"><g
             style="fill:#0a425a;fill-opacity:1"
             id="g14"><path
               style="fill:#0a425a;fill-opacity:1"
               id="path12"
               d="M832.3,450.2v55.1c-10.9-14.1-28-23.2-47.1-23.2c-15.9,0-30.4,6.3-41,16.5v-12.3       c-15.7-13.5-47.7-37.5-97.1-60.3c-33.4-15.4-78.5-31.7-135.5-43.2v49.7c-1.3-0.3-2.7-0.5-4.1-0.5c-1,0-2,0.1-3,0.2l-126.8,20.5       c-3.4,0.5-6.5,2-8.9,4v-89c-0.2,0-0.5,0-0.7,0c-41.8-0.8-76.1-33.4-78.7-75.2l-0.5-7.6c-0.5-3.5-0.8-7.2-0.8-10.8       c0-50.5,47.7-91.5,106.5-91.5c8.7,0,17,0.9,25.1,2.6l84-97.3l59,53.6l-75.5,87.4c8.8,13.3,13.9,28.8,13.9,45.2       c0,5.7-0.6,11.3-1.8,16.6C717,326.1,815.7,431.9,820.9,437.6L832.3,450.2z" /></g><g
             style="fill:#0a425a;fill-opacity:1"
             id="g18"><polygon
               style="fill:#0a425a;fill-opacity:1"
               id="polygon16"
               points="515,74.9 574,128.5 569.3,133.9 510.3,80.3      " /></g><g
             style="fill:#0a425a;fill-opacity:1"
             id="g22"><path
               style="fill:#0a425a;fill-opacity:1"
               id="path20"
               d="M587.5,112.9l-6.9,8l-59-53.6l5.6-6.5c4.9-5.7,13.6-6.3,19.3-1.4L586,93.6       C591.7,98.5,592.4,107.2,587.5,112.9z" /></g></g></g></g><g
       style="fill:#0a425a;fill-opacity:1"
       id="g36"><g
         style="fill:#0a425a;fill-opacity:1"
         id="g34"><g
           style="fill:#0a425a;fill-opacity:1"
           id="g32"><path
             style="fill:#0a425a;fill-opacity:1"
             id="path30"
             d="M619.7,796.6l-139.2,8.1c-8.4,0.5-15.3-8.8-15.4-20.6l-0.1-19.2c-0.1-11.8,6.8-21.9,15.2-22.4l139.2-8.1      c8.4-0.5,15.3,8.8,15.4,20.7l0.1,19.2C634.9,786,628.1,796.1,619.7,796.6z" /></g></g></g><g
       style="fill:#0a425a;fill-opacity:1"
       id="g46"><g
         style="fill:#0a425a;fill-opacity:1"
         id="g44"><g
           style="fill:#0a425a;fill-opacity:1"
           id="g42"><path
             style="fill:#0a425a;fill-opacity:1"
             id="path38"
             d="M832.7,813.3v40.9l-669.3,33.4v-39.1c0-11.6,9.5-21.1,21.2-21.1l559.6-31.5V687.4H286.4      c-11.9,0-22.1-9.3-22.5-21.2c-0.5-12.5,9.6-22.9,22-22.9h458.3v-58.6c10.7,10.2,25.2,16.5,41,16.5c19.1,0,36.2-9.1,47.1-23.2      v231.2C832.6,810.5,832.7,811.9,832.7,813.3z" /><path
             style="fill:#0a425a;fill-opacity:1"
             id="path40"
             d="M163.4,902.7l669.3-33.4v53.5c0,11.6-9.5,21.1-21.1,21.1h-627c-11.6,0-21.2-9.5-21.2-21.1V902.7z" /></g></g></g><g
       style="fill:#0a425a;fill-opacity:1"
       id="g58"><g
         style="fill:#0a425a;fill-opacity:1"
         id="g56"><g
           style="fill:#0a425a;fill-opacity:1"
           id="g50"><path
             style="fill:#0a425a;fill-opacity:1"
             id="path48"
             d="M404.2,552.4h44c-0.6,8.7-5.6,15.6-11.7,15.6l-20.6,0C409.8,568,404.8,561.1,404.2,552.4z" /></g><g
           style="fill:#0a425a;fill-opacity:1"
           id="g54"><path
             style="fill:#0a425a;fill-opacity:1"
             id="path52"
             d="M508.5,538.6L491.3,526l3.8,9.3l-39.4,16.4l-7.5-18.1l0,16.1h-44.1l0-47.1c0-2,0.2-4,0.7-5.8l-19.6,3.2      c-0.8,0.1-1.6,0.2-2.4,0.2c-7.3,0-13.9-5.4-15.1-12.8l-2.2-13.4c-0.7-4.5,0.6-8.9,3.3-12.1c2.3-2.8,5.5-4.8,9.4-5.4L505,435.7      c0.8-0.1,1.6-0.2,2.4-0.2c1.4,0,2.8,0.2,4.1,0.6c5.5,1.6,10,6.2,11,12.3l2.2,13.4c1.3,8.3-4.4,16.2-12.6,17.5l-9.2,1.5l31.3,23      L508.5,538.6z" /></g></g></g><g
       style="fill:#0a425a;fill-opacity:1"
       id="g66"><g
         style="fill:#0a425a;fill-opacity:1"
         id="g64"><g
           style="fill:#0a425a;fill-opacity:1"
           id="g62"><path
             style="fill:#0a425a;fill-opacity:1"
             id="path60"
             d="M456.9,554.2l39.3-16.3c2.7,8,0.7,16-4.7,18.3l-18.4,7.6C467.7,566,460.6,561.7,456.9,554.2z" /></g></g></g><g
       style="fill:#0a425a;fill-opacity:1"
       id="g74"><g
         style="fill:#0a425a;fill-opacity:1"
         id="g72"><g
           style="fill:#0a425a;fill-opacity:1"
           id="g70"><path
             style="fill:#0a425a;fill-opacity:1"
             id="path68"
             d="M510.9,540.3l25.6-34.8c6.5,5.5,9,13.5,5.5,18.3L530,540.1C526.4,544.9,518.1,544.9,510.9,540.3z" /></g></g></g><g
       style="fill:#0a425a;fill-opacity:1"
       id="g80"><g
         style="fill:#0a425a;fill-opacity:1"
         id="g78"><path
           style="fill:#0a425a;fill-opacity:1"
           id="path76"
           d="M836.6,541.6c0,7.3-1.5,14.2-4.3,20.5c-7.9,18.2-26,30.9-47.1,30.9c-16.8,0-31.7-8.1-41-20.5     c-6.5-8.6-10.3-19.3-10.3-30.9c0-11.6,3.8-22.3,10.3-30.9c9.4-12.5,24.3-20.5,41-20.5c21.1,0,39.2,12.7,47.1,30.8     C835,527.4,836.6,534.3,836.6,541.6z" /></g></g></g><g
     style="fill:#ff8080"
     transform="matrix(11.045191,0,0,11.045191,-45.669285,-10553.361)"
     id="g4"><path
       style="color:#000000;text-indent:0;text-transform:none;direction:ltr;baseline-shift:baseline;fill:#ff8080;enable-background:accumulate"
       d="M 73.33452,971.95658 50,995.29118 l -23.33453,-23.3346 -7.07107,7.0711 23.33454,23.33452 -23.33454,23.3345 7.07108,7.0711 L 50,1009.4333 l 23.33453,23.3345 7.07107,-7.0711 -23.33454,-23.3345 23.33454,-23.33452 z"
       fill="#000000"
       fill-opacity="1"
       marker="none"
       visibility="visible"
       display="inline"
       overflow="visible"
       id="path2" /></g></svg>
