<svg height='100px' width='100px'  fill="#000000" xmlns="http://www.w3.org/2000/svg" viewBox="0 0 64 64" x="0px" y="0px"><title>export, send</title><g><path d="M52.488,33V47.988a6.505,6.505,0,0,1-6.447,6.5c-.017,0-.033.005-.051.005H19.01l-.048,0h-2.95a6.508,6.508,0,0,1-6.5-6.5V18.012a6.508,6.508,0,0,1,6.5-6.5h2.95l.048,0H31a1.5,1.5,0,0,1,1.5,1.5h0a1.5,1.5,0,0,1-1.5,1.5H18.986a3.5,3.5,0,0,0-3.476,3.5V47.99a3.5,3.5,0,0,0,3.476,3.5h27a3.5,3.5,0,0,0,3.5-3.5V33a1.5,1.5,0,0,1,3,0Zm1.894-22.535-.007-.023a1.506,1.506,0,0,0-.817-.816l-.022-.007a1.49,1.49,0,0,0-.548-.107H40a1.5,1.5,0,0,0,0,3h9.367L32.121,29.758a1.5,1.5,0,1,0,2.121,2.121L51.488,14.633V24a1.5,1.5,0,0,0,3,0V11.012A1.488,1.488,0,0,0,54.382,10.465Z"></path></g></svg>