<?xml version="1.0" encoding="UTF-8" standalone="no"?>
<svg
   xmlns:dc="http://purl.org/dc/elements/1.1/"
   xmlns:cc="http://creativecommons.org/ns#"
   xmlns:rdf="http://www.w3.org/1999/02/22-rdf-syntax-ns#"
   xmlns:svg="http://www.w3.org/2000/svg"
   xmlns="http://www.w3.org/2000/svg"
   xmlns:sodipodi="http://sodipodi.sourceforge.net/DTD/sodipodi-0.dtd"
   xmlns:inkscape="http://www.inkscape.org/namespaces/inkscape"
   height="100px"
   width="100px"
   fill="#1A1A1A"
   viewBox="0 0 32 32"
   x="0px"
   y="0px"
   version="1.1"
   id="svg16"
   sodipodi:docname="factures.svg"
   inkscape:version="0.92.4 (5da689c313, 2019-01-14)">
  <metadata
     id="metadata22">
    <rdf:RDF>
      <cc:Work
         rdf:about="">
        <dc:format>image/svg+xml</dc:format>
        <dc:type
           rdf:resource="http://purl.org/dc/dcmitype/StillImage" />
        <dc:title>factures</dc:title>
      </cc:Work>
    </rdf:RDF>
  </metadata>
  <defs
     id="defs20" />
  <sodipodi:namedview
     pagecolor="#ffffff"
     bordercolor="#666666"
     borderopacity="1"
     objecttolerance="10"
     gridtolerance="10"
     guidetolerance="10"
     inkscape:pageopacity="0"
     inkscape:pageshadow="2"
     inkscape:window-width="716"
     inkscape:window-height="480"
     id="namedview18"
     showgrid="false"
     inkscape:zoom="2.36"
     inkscape:cx="50"
     inkscape:cy="50"
     inkscape:window-x="0"
     inkscape:window-y="0"
     inkscape:window-maximized="0"
     inkscape:current-layer="svg16" />
  <title
     id="title2">factures</title>
  <g
     id="g14"
     style="fill:#0a425a;fill-opacity:1">
    <path
       d="M25.494,8.963a.445.445,0,0,0-.008-.046.5.5,0,0,0-.1-.229l-4-5a.488.488,0,0,0-.227-.15.468.468,0,0,0-.071-.016A.485.485,0,0,0,21,3.5H7a.5.5,0,0,0-.5.5V28a.5.5,0,0,0,.5.5H25a.5.5,0,0,0,.5-.5V9C25.5,8.987,25.495,8.975,25.494,8.963ZM23.96,8.5H21.5V5.425ZM7.5,27.5V4.5h13V9a.5.5,0,0,0,.5.5h3.5v18Z"
       id="path4"
       style="fill:#0a425a;fill-opacity:1" />
    <path
       d="M22,15.5H19a.5.5,0,0,0,0,1h3a.5.5,0,0,0,0-1Z"
       id="path6"
       style="fill:#0a425a;fill-opacity:1" />
    <path
       d="M22,19.5H14a.5.5,0,0,0,0,1h8a.5.5,0,0,0,0-1Z"
       id="path8"
       style="fill:#0a425a;fill-opacity:1" />
    <path
       d="M22,23.5H10a.5.5,0,0,0,0,1H22a.5.5,0,0,0,0-1Z"
       id="path10"
       style="fill:#0a425a;fill-opacity:1" />
    <path
       d="M10.837,12a3.458,3.458,0,0,0,3.149,2.5H16a.5.5,0,0,0,0-1H13.986A2.366,2.366,0,0,1,11.918,12H14.5a.5.5,0,0,0,0-1H11.624a3.109,3.109,0,0,1,0-1H14.5a.5.5,0,0,0,0-1H11.918a2.366,2.366,0,0,1,2.068-1.5H16a.5.5,0,0,0,0-1H13.986A3.458,3.458,0,0,0,10.837,9H9.5a.5.5,0,0,0,0,1h1.127a4.606,4.606,0,0,0-.043.5,4.606,4.606,0,0,0,.043.5H9.5a.5.5,0,0,0,0,1Z"
       id="path12"
       style="fill:#0a425a;fill-opacity:1" />
  </g>
</svg>
