<?xml version="1.0" encoding="UTF-8" standalone="no"?>
<svg
   xmlns:dc="http://purl.org/dc/elements/1.1/"
   xmlns:cc="http://creativecommons.org/ns#"
   xmlns:rdf="http://www.w3.org/1999/02/22-rdf-syntax-ns#"
   xmlns:svg="http://www.w3.org/2000/svg"
   xmlns="http://www.w3.org/2000/svg"
   xmlns:sodipodi="http://sodipodi.sourceforge.net/DTD/sodipodi-0.dtd"
   xmlns:inkscape="http://www.inkscape.org/namespaces/inkscape"
   inkscape:version="1.0 (4035a4fb49, 2020-05-01)"
   sodipodi:docname="fast.svg"
   id="svg12"
   xml:space="preserve"
   enable-background="new 0 0 100 100"
   viewBox="0 0 100 100"
   y="0px"
   x="0px"
   version="1.1"
   fill="#000000"
   width="100px"
   height="100px"><metadata
     id="metadata18"><rdf:RDF><cc:Work
         rdf:about=""><dc:format>image/svg+xml</dc:format><dc:type
           rdf:resource="http://purl.org/dc/dcmitype/StillImage" /><dc:title></dc:title></cc:Work></rdf:RDF></metadata><defs
     id="defs16" /><sodipodi:namedview
     inkscape:current-layer="svg12"
     inkscape:window-maximized="1"
     inkscape:window-y="-1"
     inkscape:window-x="-9"
     inkscape:cy="50"
     inkscape:cx="50"
     inkscape:zoom="8.3"
     showgrid="false"
     id="namedview14"
     inkscape:window-height="1271"
     inkscape:window-width="2400"
     inkscape:pageshadow="2"
     inkscape:pageopacity="0"
     guidetolerance="10"
     gridtolerance="10"
     objecttolerance="10"
     borderopacity="1"
     bordercolor="#666666"
     pagecolor="#ffffff" /><g
     transform="matrix(1.108468,0,0,1.108468,-5.483644,-4.948615)"
     style="fill:#0a425a;fill-opacity:1"
     id="g10"><path
       style="fill:#0a425a;fill-opacity:1"
       id="path2"
       d="m 61.375,17.5 c -17.949,0 -32.5,14.551 -32.5,32.5 0,17.949 14.551,32.5 32.5,32.5 17.949,0 32.5,-14.551 32.5,-32.5 0,-17.949 -14.551,-32.5 -32.5,-32.5 z m -0.231,29.435 c 0.078,-0.005 0.152,-0.023 0.231,-0.023 0.333,0 0.649,0.063 0.954,0.152 l 9.811,-9.811 c 0.635,-0.635 1.663,-0.635 2.298,0 0.635,0.634 0.635,1.664 0,2.298 l -9.812,9.812 c 0.09,0.305 0.152,0.62 0.152,0.953 0,1.881 -1.523,3.404 -3.403,3.404 -1.88,0 -3.403,-1.523 -3.403,-3.404 0,-0.566 0.151,-1.091 0.396,-1.561 l -5.963,-5.963 c -0.635,-0.634 -0.635,-1.664 0,-2.298 0.635,-0.635 1.663,-0.635 2.298,0 z m 0.231,28.833 c -14.035,0 -25.452,-11.418 -25.452,-25.452 0,-9.052 4.9,-17.456 12.638,-21.985 l -4.15,-1.476 0.933,-2.622 8.8,3.131 -3.131,8.8 -2.621,-0.931 1.358,-3.819 c -6.032,3.727 -9.989,10.185 -10.516,17.277 h 1.717 c 0.898,0 1.625,0.727 1.625,1.625 0,0.897 -0.727,1.625 -1.625,1.625 h -1.696 c 0.799,10.945 9.551,19.701 20.495,20.499 v -1.7 c 0,-0.897 0.728,-1.625 1.625,-1.625 0.897,0 1.625,0.728 1.625,1.625 v 1.699 C 73.943,71.641 82.695,62.885 83.494,51.94 h -1.695 c -0.897,0 -1.625,-0.728 -1.625,-1.625 0,-0.898 0.728,-1.625 1.625,-1.625 h 1.702 c -0.364,-5.006 -2.387,-9.729 -5.817,-13.441 -0.609,-0.659 -0.569,-1.687 0.09,-2.296 0.66,-0.608 1.688,-0.568 2.297,0.091 4.357,4.713 6.757,10.848 6.757,17.272 C 86.827,64.35 75.41,75.768 61.375,75.768 Z" /><path
       style="fill:#0a425a;fill-opacity:1"
       id="path4"
       d="m 12.625,39 h 10 c 0.829,0 1.5,-0.671 1.5,-1.5 0,-0.829 -0.671,-1.5 -1.5,-1.5 h -10 c -0.829,0 -1.5,0.671 -1.5,1.5 0,0.829 0.671,1.5 1.5,1.5 z" /><path
       style="fill:#0a425a;fill-opacity:1"
       id="path6"
       d="m 25.125,48.5 h -17.5 c -0.829,0 -1.5,0.671 -1.5,1.5 0,0.829 0.671,1.5 1.5,1.5 h 17.5 c 0.829,0 1.5,-0.671 1.5,-1.5 0,-0.829 -0.671,-1.5 -1.5,-1.5 z" /><path
       style="fill:#0a425a;fill-opacity:1"
       id="path8"
       d="m 22.625,61 h -10 c -0.829,0 -1.5,0.672 -1.5,1.5 0,0.828 0.671,1.5 1.5,1.5 h 10 c 0.829,0 1.5,-0.672 1.5,-1.5 0,-0.828 -0.671,-1.5 -1.5,-1.5 z" /></g></svg>
