<?xml version="1.0" encoding="UTF-8" standalone="no"?>
<svg
   xmlns:dc="http://purl.org/dc/elements/1.1/"
   xmlns:cc="http://creativecommons.org/ns#"
   xmlns:rdf="http://www.w3.org/1999/02/22-rdf-syntax-ns#"
   xmlns:svg="http://www.w3.org/2000/svg"
   xmlns="http://www.w3.org/2000/svg"
   xmlns:sodipodi="http://sodipodi.sourceforge.net/DTD/sodipodi-0.dtd"
   xmlns:inkscape="http://www.inkscape.org/namespaces/inkscape"
   height="100px"
   width="100px"
   fill="#1A1A1A"
   xml:space="preserve"
   version="1.1"
   style="shape-rendering:geometricPrecision;text-rendering:geometricPrecision;image-rendering:optimizeQuality;"
   viewBox="0 0 50000 50000"
   x="0px"
   y="0px"
   fill-rule="evenodd"
   clip-rule="evenodd"
   id="svg10"
   sodipodi:docname="felicitations.svg"
   inkscape:version="0.92.4 (5da689c313, 2019-01-14)"><metadata
     id="metadata14"><rdf:RDF><cc:Work
         rdf:about=""><dc:format>image/svg+xml</dc:format><dc:type
           rdf:resource="http://purl.org/dc/dcmitype/StillImage" /><dc:title></dc:title></cc:Work></rdf:RDF></metadata><sodipodi:namedview
     pagecolor="#ffffff"
     bordercolor="#666666"
     borderopacity="1"
     objecttolerance="10"
     gridtolerance="10"
     guidetolerance="10"
     inkscape:pageopacity="0"
     inkscape:pageshadow="2"
     inkscape:window-width="716"
     inkscape:window-height="480"
     id="namedview12"
     showgrid="false"
     inkscape:zoom="2.36"
     inkscape:cx="50"
     inkscape:cy="50"
     inkscape:window-x="0"
     inkscape:window-y="0"
     inkscape:window-maximized="0"
     inkscape:current-layer="svg10" /><defs
     id="defs4"><style
       type="text/css"
       id="style2">
   
    .fil0 {fill:#1A1A1A;fill-rule:nonzero}
   
  </style></defs><g
     id="g8"
     style="fill:#0a425a;fill-opacity:1"><path
       class="fil0"
       d="M1280.96 35550.93c-160.89,58.99 -339.15,-23.61 -398.14,-184.5 -58.99,-160.89 23.6,-339.16 184.5,-398.15 351.67,-129.26 1334.75,-876.03 2232.41,-1704.22 698.99,-644.9 1330.98,-1326.33 1544.04,-1779.88 172.92,-368.08 312.42,-806.14 422.53,-1269.5 130.39,-548.71 217.07,-1121.67 268.13,-1652.33 187.46,-1948.21 563.7,-3054.19 1009.99,-4366.17 172.45,-506.95 355.53,-1045.15 539.14,-1666.05 1086.7,-3674.75 1479.04,-4139.69 1947.4,-4694.68 262.06,-310.55 550.54,-652.39 1047.58,-1781.46l4.52 -10.23 10.04 -17.69c187.06,-329 399.82,-590.24 629.91,-779.34 253.64,-208.45 528.45,-330.25 814.65,-360.43 288.81,-30.47 581.31,33.11 867.37,195.77 164.42,93.48 326.35,220.18 483.51,381.04 142.2,-97.12 325.8,-248.07 542.17,-441.85l46.88 -48.15 3.19 3.1c1013.69,-917.22 2704.67,-2720.17 4275.35,-4394.9 1421.65,-1515.83 2745.78,-2927.65 3424.53,-3520.13 549.21,-614.31 1062.81,-942.19 1500.87,-1042.64 196.92,-45.15 381.76,-46.24 551.45,-7.9 176.77,39.94 333.39,121.72 467.09,240.39 95.06,84.36 177.33,186.49 245.74,304.39 700.28,-599.03 1330.35,-793.98 1836.72,-746.03 287.18,27.21 534.49,130.55 734.78,283.88 199.21,152.48 350.97,354.45 448.44,579.94 112.34,259.92 151.64,552.2 107.27,836.32 289.25,7.9 570.96,103.78 813.5,270.5 251.39,172.82 460.81,421.59 591.8,726.44 92.19,214.54 145.63,458.62 147.3,725.24 2.41,382.04 -150.32,837.72 -350.19,1273.74 -190.83,416.37 -423.17,815.09 -597.93,1105.81 -122.65,204.02 -255.59,415.89 -394.02,630.09 242.95,-64.51 478.8,-73.91 698.03,-27.82 306.5,64.45 574.09,233.43 778.68,507.97 162.66,218.28 283,504.45 346.56,858.17 5.51,19.99 9.06,40.81 10.47,62.21l2.03 12.96c591.88,-542.68 1247.61,-1281.98 1868.7,-1982.23 670.37,-755.84 1301.46,-1467.37 1795.22,-1869.09 669,-544.3 1295.87,-876.37 1858.24,-1037.9 662.43,-190.27 1243.09,-146.87 1707.91,65.41 126.03,57.57 241.18,125.63 344.91,203.04 423.36,315.97 697.06,798.49 784.21,1372.58 83.19,548.13 -6.08,1182.4 -302.33,1831.03 -129.72,284.06 -297.47,568.96 -505.83,848.12 -239.26,320.6 -535.13,638.62 -892.1,945.05 -330.05,283.32 -711.89,555.58 -1148.91,809.25 -151.92,88.18 -997.92,794.11 -1814.8,1499.62 -561.58,485.03 -1103.44,964.8 -1388.24,1236.46 -470.37,448.63 -355,328.92 119.56,289.71 176.25,-14.55 394.81,-45.84 661.42,-96.41 510.57,-96.84 1115.32,-265.03 1756.64,-443.39 1266.64,-352.26 2672.24,-743.09 3864.47,-733.68 753.99,-403.85 1453.96,-753.01 2098.34,-1030.77 650.94,-280.59 1250.05,-490.89 1797.1,-614.73 653.46,-473.73 1258.61,-989.67 1849.12,-1493.18 652.04,-555.96 1286.58,-1097 1967.26,-1565.41 874.35,-601.68 1640.87,-772.48 2237.99,-655.52 362.87,71.08 663.02,245.91 889.54,495.57 222.45,245.18 370.59,559.61 433.93,915.31 120.26,675.25 -67.66,1509.88 -641.98,2289.96 -239.49,325.3 -542.33,657.3 -908.46,994.04 -331.27,304.67 -715.18,614.15 -1151.64,927 -8.21,48.1 -16.23,96.3 -24.06,144.56 -9.62,64.48 -19.2,127.34 -28.5,188.34 -22.3,146.23 -43.2,283.24 -52.09,349.16l-0.17 -0.02c-24.96,177.45 -48.6,354.53 -72.04,530.08 -271.35,2032.47 -516.94,3871.77 -2499.38,4673.28l-0.08 -0.18c-43.89,18.16 -65.8,26.95 -86.59,35.27 -73.25,29.34 -145.72,58.36 -199.44,86.78 -65.19,34.47 -121.58,69.4 -154.99,102.57 53.5,678.2 38.68,1051 13.72,1678.99l-8.98 227.85 -1.21 23.06c-195.77,1725.59 -2337.64,2037.6 -3657.98,2229.94 -178.19,25.96 -339.24,49.42 -470.58,72.51 26.51,63.39 51.35,126 74.56,187.86 3.62,9.03 7.1,17.89 10.35,26.38l-0.56 0.21c463.52,1256.39 249.61,2198.98 -401.05,2947.49 -706.45,812.67 -1925.6,1357.38 -3334.52,1821.88 -2044.91,674.18 -4007.78,1134.2 -6019.67,1605.7 -585.18,137.14 -1174.47,275.24 -1750.21,414.58 -9.67,2.94 -19.57,5.45 -29.69,7.47l-6.78 1.37c-140.03,33.93 -279.23,67.95 -417.36,102.03 -930.26,229.57 -1854.46,489.15 -2710.04,795.67 -842.94,301.99 -1611.75,647.42 -2241.23,1051.41 -1841.88,1218.73 -3413.43,2355.11 -4970.86,3554.78 -1567.21,1207.23 -3117.22,2475.49 -4910.3,3953.5 -132.07,108.59 -327.17,89.57 -435.77,-42.49 -108.59,-132.07 -89.57,-327.17 42.49,-435.77 1802.74,-1485.96 3359.92,-2760.14 4924.87,-3965.64 1573.72,-1212.24 3158.41,-2358.26 5010.91,-3583.9l3.64 -2.42c663.37,-425.75 1458.11,-786.17 2322.7,-1098.43 -732.23,-7.67 -1447.2,-71.34 -2110.37,-201.19 -168.26,-32.85 -278.04,-195.89 -245.2,-364.15 32.85,-168.26 195.89,-278.05 364.15,-245.2 775.07,151.76 1623.2,208.44 2483.74,188 918.16,-21.78 1850.88,-130.56 2725.59,-304.78 625.21,-151.93 1219.23,-291.15 1808.91,-429.34 1995.73,-467.72 3942.82,-924.03 5966.27,-1591.14 1317.24,-434.27 2445.73,-930.51 3060.19,-1637.36 497.79,-572.65 656.11,-1312.86 290.28,-2321.5l-0.35 0.14c-119.84,-313.31 -520.74,-1046.26 -1041.79,-1813.67 -74.19,-109.29 -150.77,-219.13 -229.21,-328.38 -24.14,35.1 -54.17,65.68 -89.37,91.6 -70.47,51.88 -159.9,82.6 -261.02,90.66 -180.15,14.38 -408.12,-44.39 -629.67,-186.32 -152.15,-97.48 -320.81,-259.1 -458.81,-455.28 -119.08,-169.28 -217.11,-366.41 -264.71,-573.41 -19.1,-83.45 33.08,-166.62 116.53,-185.72 83.46,-19.1 166.62,33.07 185.73,116.53 37.89,164.77 118.08,324.76 216.14,464.17 114.61,162.93 251.35,295.02 372.63,372.73 161.76,103.63 319.43,147.24 437.88,137.78 43.74,-3.48 78.75,-14.06 102,-31.19 15.08,-11.1 25.25,-26.72 28.84,-46.48 7.88,-43.52 -5.74,-105.15 -47.22,-185.64 -235.57,-304 -481.86,-592.01 -727.72,-837.47 -2.32,-2.25 -4.62,-4.52 -6.86,-6.84 -271.97,-269.76 -585.53,-438.73 -872.47,-483.85 -159.3,-25.03 -307.23,-10.74 -428.59,47.7 -114.5,55.14 -211.14,154.91 -277.07,304.41 -110.93,251.54 -138.17,630.34 -35.81,1157.56 39.34,202.67 185.12,589.75 382.38,1002.7 128.85,269.74 278.71,547.36 434.29,788.49 36.06,46.95 67.55,94.13 94.98,141.46 16.59,23.68 33.2,46.87 49.84,69.49l-1.89 1.38c137.78,154.18 295.67,214.1 448.47,221.14 208.83,9.62 414.03,-72.53 553.26,-153.93l2.52 -1.48c73.74,-43.23 168.59,-18.51 211.83,55.23 43.23,73.74 18.51,168.59 -55.23,211.83l-2.53 1.48c-178.26,104.22 -444.29,209.23 -723.21,196.39 -105.93,-4.88 -212.93,-25.96 -316.98,-69.09 18.14,179.93 7.53,359.2 -2.91,534.88 -23.09,388.93 -44.94,756.76 345.79,1017.34 71.06,47.6 90.09,143.79 42.49,214.85 -47.6,71.06 -143.79,90.08 -214.85,42.49 -538.41,-359.06 -511.44,-812.95 -482.95,-1292.89 7.28,-122.58 14.68,-247.21 9.98,-371.03 -235.99,231.94 -465.69,414.61 -727.19,566.66 -296.94,172.66 -627.31,301.48 -1046.73,413.72 -165.57,44.24 -335.69,-54.13 -379.93,-219.7 -44.24,-165.58 54.14,-335.69 219.71,-379.93 366.91,-98.18 650.02,-207.46 896.21,-350.6 209.01,-121.54 396.98,-270.73 592.52,-461.47 -181.78,-275.64 -356.89,-597.81 -505.85,-909.65 -220.14,-460.84 -385.5,-906.66 -433.37,-1153.23 -128.33,-660.94 -81.71,-1164.06 77.08,-1524.14 129.37,-293.36 330.77,-494.8 575.67,-612.72 238.06,-114.66 511.03,-145.39 792.74,-101.11 363.09,57.08 744.86,241.2 1079.51,530.75 1342.37,-418.56 2073.37,-687.27 2327.42,-1082.64 247.96,-385.89 69.99,-1021.71 -386.52,-2210 -4.74,-12.32 -9.32,-24.63 -13.83,-36.9 -624.03,228.58 -1253.49,409.67 -1867.98,554.35 -713.31,167.95 -1409.82,286.69 -2054.9,373.81 -169.61,22.79 -325.58,-96.23 -348.37,-265.83 -22.78,-169.61 96.23,-325.58 265.83,-348.37 621.49,-83.94 1296.83,-199.34 1996.63,-364.11 615.88,-145.01 1248.25,-328.49 1875.23,-562.79 -28.75,-438.62 94.61,-826.25 316.43,-1127.97 162.32,-220.78 376.64,-394.28 622.63,-507.62 244.85,-112.8 520.54,-166.2 806.76,-147.41 537.18,35.27 1110.66,322.52 1575.88,947.65 102.94,-184.06 222.77,-510.47 342.41,-890.42 126.88,-402.96 242.83,-853.33 337.98,-1269.4 -39.19,-203.33 -112.5,-403.13 -205.45,-588.94 -115.66,-231.19 -261.34,-440.31 -409.86,-608.02 -504.07,115.36 -1063.15,312.62 -1675.35,576.53 -618.2,266.48 -1285.88,598.47 -2002.46,981.18 86.93,124.06 168.69,259.35 240.14,402.19 131.35,262.58 228.33,551.22 259.41,843.71 9.05,85.14 -52.64,161.51 -137.77,170.55 -85.13,9.04 -161.51,-52.64 -170.55,-137.78 -27.01,-254.27 -112.23,-507 -227.84,-738.1 -80.04,-160 -174.46,-309.43 -274.26,-441.88 -1110.21,-17.12 -2488.75,366.2 -3729.59,711.28 -655.7,182.35 -1274.01,354.31 -1807.62,455.53 -545.56,103.49 -930.22,133.18 -1188.17,107.2 -405.03,-40.84 -593.51,-215.38 -624.84,-480.64l0 -1.23c-13.06,-110.71 10.77,-225.19 64.92,-341.94 41.41,-89.31 100.97,-181.34 174.63,-274.78 139.2,-176.59 886.36,-847.04 1661.19,-1516.26 417.52,-360.61 846.16,-723.45 1194.33,-1010.42 -537.76,-32.26 -996.42,-216.2 -1258.31,-328.04 -131.28,-55.86 -192.41,-207.59 -136.55,-338.86 55.86,-131.28 207.59,-192.42 338.87,-136.56 231.6,98.9 636.59,261.77 1090.65,287.98 271.78,15.68 565.25,-17.89 854.58,-145.71 186.34,-114.6 360.76,-232.67 523.61,-353.46 10.6,-9.32 21.75,-17.62 33.36,-24.91 114.27,-85.86 222.76,-173.04 325.59,-261.32 317.99,-272.95 582.54,-557.56 797.44,-845.52 184.69,-247.47 330.51,-493.72 440.26,-734.02 243.14,-532.35 317.62,-1044.89 251.36,-1481.44 -62.31,-410.56 -251.32,-750.63 -541.45,-967.16 -73.06,-54.52 -150.18,-100.65 -230.81,-137.47 -333.8,-152.45 -767.61,-178.79 -1280.63,-31.44 -487.37,139.98 -1038.76,434.37 -1637.33,921.37 -456.39,371.31 -1070.27,1063.45 -1722.38,1798.69 -808.59,911.67 -1674.44,1887.9 -2416.55,2454.39l-7.54 5.75c-260.16,1255.98 -1042.2,2272.3 -1809.69,3269.51 -319.2,414.74 -635.76,826.03 -906.2,1248.42l-232.47 362.51c-1397.66,2177.83 -2992.03,4662.17 -3436,6938.81l0 1.22c-764.28,3919.14 -2921.2,7275.58 -5660.28,10202.8 -2722.99,2910.03 -6014.21,5389.06 -9077.91,7573.86 -139.43,99.21 -332.92,66.6 -432.13,-72.83 -99.21,-139.43 -66.6,-332.92 72.83,-432.13 3040.58,-2168.32 6304.11,-4625.6 8985.66,-7491.33 2665.48,-2848.56 4763.01,-6107.4 5502.48,-9899.33l0.24 0.04c467.32,-2394.52 2095.67,-4931.83 3523.16,-7156.13l232.48 -362.52c280.72,-438.43 607.86,-863.49 937.74,-1292.11 870.86,-1131.49 1761.86,-2289.39 1768.8,-3754.22 -45.63,-249.05 -126.38,-445.02 -233.74,-589.09 -109.6,-147.07 -249.47,-236.88 -407.25,-270.05 -171.52,-36.07 -370.4,-10.04 -582.8,77.3 -271.76,111.74 -557.82,318.25 -835.2,618.75 -98.03,135.86 -194.8,268.77 -290.39,399.02 -94.34,157.35 -93.78,299.75 -31.9,415.05 48.27,89.94 132.06,168.47 237.37,229.61 111.53,64.74 245.92,109.08 388.35,126.82 347.86,43.32 737.51,-75.32 945.78,-448.32 41.56,-74.75 135.86,-101.64 210.6,-60.08 74.75,41.55 101.64,135.86 60.08,210.6 -280.46,502.3 -796.09,663.17 -1254.08,606.12 -183.3,-22.82 -358.46,-81.18 -506.1,-166.88 -153.85,-89.33 -278.97,-209.1 -355.12,-350.99 -16.32,-30.39 -30.42,-61.6 -42.17,-93.54 -688.07,919.22 -1317.03,1707.2 -1918.99,2461.34 -1434.06,1796.57 -2713.87,3399.92 -4265.8,6125.66 -84.47,148.83 -273.6,201 -422.43,116.53 -148.82,-84.47 -201,-273.6 -116.53,-422.43 1578.15,-2771.79 2870.78,-4391.19 4319.21,-6205.76 619.06,-775.57 1266.85,-1587.15 1977.1,-2539.64 154.15,-256.17 318.1,-484.26 487.85,-684.02 134.84,-191.48 273.12,-390.38 410.2,-591.19 312.07,-457.16 620.94,-927.7 875.54,-1351.19 167.57,-278.75 389.57,-659.38 566.36,-1045.11 167.8,-366.08 296.11,-735.34 294.36,-1013.98 -1.11,-176.14 -36.94,-338.61 -98.75,-482.46 -84.09,-195.72 -216.13,-353.77 -373.3,-461.83 -152.69,-104.96 -329.01,-162.88 -506.88,-161.76 -101.78,0.64 -206.37,21.87 -309.47,66.18l-120.23 51.66c-70.98,41.41 -152.43,106.67 -241.42,190.02 -148.43,139.03 -308.69,323.35 -473,532.26 -81.88,104.11 -165.65,209.48 -251.16,315.92 -133.62,225.82 -128.01,415.5 -42.06,559.72 50.19,84.22 127.5,156.74 220.82,214.94 98.06,61.15 212.57,105.74 331.9,131.25 307.09,65.69 639.59,6.63 786.58,-222.01l290.35 -451.66c46.25,-72.06 142.19,-92.98 214.25,-46.74 72.06,46.25 92.98,142.19 46.73,214.25l-290.35 451.66c-224.41,349.07 -691.31,447.91 -1111.88,357.96 -154.06,-32.94 -302.87,-91.12 -431.45,-171.31 -133.33,-83.14 -246.08,-190.61 -322.78,-319.32 -42.38,-71.11 -73.77,-147.64 -91.67,-228.95 -290.12,350.35 -596.03,708.84 -913.32,1069.3 -530.87,603.11 -1100.15,1218.65 -1687.74,1818.6 -2242.62,2289.84 -3791.78,4545.49 -4683.56,5843.98 -272.37,396.59 -484.01,704.76 -646.13,911.65 -105.24,134.75 -299.81,158.66 -434.56,53.42 -134.75,-105.24 -158.65,-299.81 -53.42,-434.56 141,-179.93 351.26,-486.08 621.86,-880.1 902.77,-1314.49 2471.02,-3597.93 4753.97,-5928.95 567.95,-579.91 1129.76,-1187.98 1663.46,-1794.33 560.49,-636.76 1082.74,-1264.15 1542.19,-1848.31 180.6,-229.62 361.32,-436.48 536.12,-600.22 152.21,-142.57 303.26,-254.24 450.8,-323.71 118.48,-233.38 116.09,-508.87 15.21,-742.27 -55.95,-129.43 -142.82,-245.2 -256.65,-332.32 -112.69,-86.27 -252.88,-144.53 -416.77,-160.05 -272.19,-25.78 -607.74,60.18 -996.61,312.86 -10.52,12.75 -22.18,24.8 -35.03,36.04 -173.45,152.03 -352.05,315.18 -534.89,487.75 -133.03,144.51 -181.11,284.87 -171.89,410.23 6.61,89.93 42.74,175.51 97.8,251.26 58.09,79.92 137.15,148.5 225.78,200.29 166.37,97.23 359.63,132.81 499.78,68.04 77.76,-35.86 169.9,-1.9 205.76,75.86 35.86,77.76 1.89,169.89 -75.87,205.75 -236.55,109.31 -538.79,63.23 -786.26,-81.39 -124.04,-72.48 -236.15,-170.49 -320.45,-286.48 -81.26,-111.79 -136.76,-240.53 -153.07,-380.08 -2548.4,2528.4 -5771.35,6619.38 -7961.27,9399.2 -80.33,101.96 -41.59,52.79 -0.02,-0.02l-0.3 -0.23 -477.83 605.34c-105.92,134.08 -300.49,156.91 -434.56,50.98 -134.08,-105.92 -156.91,-300.49 -50.99,-434.56 682.93,-865.52 -83.49,104.73 475.72,-605.09 2267.62,-2878.44 5637.48,-7155.99 8258.66,-9696.23 -47.2,-143.75 -114.53,-255.93 -198.92,-330.84 -55.53,-49.29 -120.19,-83.18 -192.77,-99.57 -79.65,-18 -172.33,-16.13 -277.1,7.89 -324.58,74.42 -728.9,345.07 -1190.49,865.14l-14.85 16.74 -14.29 12.39c-13.75,11.92 -27.9,24.37 -42.24,37.05 -3.87,8.79 -6.51,17.55 -7.99,26.24 -5.97,35.12 4.07,74.55 25.78,113.58 26.99,48.5 70.78,94.87 125.64,133.48 93.61,65.92 214.96,105.53 336.52,92.11 85.14,-9.39 161.78,52.02 171.16,137.16 9.39,85.13 -52.03,161.77 -137.16,171.16 -201.26,22.24 -398.78,-41 -548.95,-146.74 -92.08,-64.82 -167.99,-146.96 -217.89,-236.65 -7.13,-12.82 -13.74,-25.81 -19.81,-38.93 -709.86,675.74 -1857.65,1899.55 -3077.67,3200.39 -1544.44,1646.75 -3203.01,3415.17 -4288.77,4396.21l2.94 2.86c-213.64,219.77 -440.24,448.47 -675.42,685.82 -1925.37,1943.14 -4436.99,4478.02 -6237.31,8666.35 -380.12,1128.54 -695.21,2171 -858.05,3863.22 -21.61,224.62 -48.98,455.36 -82.61,687.56l-16.31 176.97c-154.36,1679.04 -292.15,3177.54 -1197.21,4864.15 -81.11,150.84 -269.15,207.35 -419.99,126.24 -150.83,-81.12 -207.35,-269.16 -126.23,-420 302.95,-564.57 514.39,-1111.25 667.84,-1654.39 -329.68,416.75 -780.54,879.85 -1256.85,1319.31 -948.86,875.43 -2023.63,1677.89 -2438.75,1830.47zm41310.74 -19403.13c64.84,-327.57 108.13,-591.53 122.32,-729.78 18.24,-177.72 52.22,-354.67 101.66,-525.83 -220.81,176.32 -447.31,350.9 -681.68,521.99 145.53,174.49 285.81,383.18 399.82,611.08 20.13,40.26 39.46,81.12 57.88,122.54zm544.31 426.85c4.55,529.79 688.47,744.34 966.28,831.46 19.88,6.23 -33.14,-10.37 44.14,14.34 81.44,25.8 126.54,112.77 100.74,194.22 -25.8,81.44 -112.77,126.54 -194.21,100.74 -50.79,-16.24 8.42,2.97 -42.92,-13.12 -241.7,-75.78 -730.89,-229.27 -999.26,-573.71 -86.88,362.66 -186.72,737.56 -293.88,1077.9 -108.67,345.1 -229.68,661.38 -360.71,909.99 55.82,235.26 196.35,411.5 375.74,551.17 202.49,157.65 459.79,272.99 705.7,373.28 79.44,32.17 117.75,122.67 85.58,202.11 -32.17,79.43 -122.67,117.75 -202.11,85.58 -265.38,-108.24 -545.23,-234.41 -779.74,-416.99 -163.59,-127.37 -302.4,-280.12 -395.74,-469.59 -6.85,8.19 -13.72,16.18 -20.61,23.96 317.96,583.31 576.35,1215.38 768.82,1842.66 103.92,338.71 188.7,676.61 253.36,1005.24l1.09 -0.59c79.98,-42.3 168.35,-77.69 257.69,-113.48 36.73,-14.7 72.59,-29.07 84.25,-33.88l2.42 -1.22c1646.89,-665.84 1869.67,-2334.32 2115.82,-4178.03 23.5,-176.01 47.2,-353.52 72.39,-532.46l-0.17 -0.02c20.25,-150.17 35.64,-251.07 52.08,-358.88 50.62,-332.05 109.81,-720.09 134.16,-1099.06 60.93,-948.08 -91,-1929.39 -1197.72,-2000.53 -361.01,-23.2 -650.02,113.91 -863.51,339.86 -269.7,285.39 -430.21,708.91 -475.03,1145.55 -19.56,190.51 -90.25,603.11 -194.65,1093.5zm-3513.1 4905.84c82.56,200.61 248.91,351.77 446.08,461.26 285.69,158.65 631.91,229.65 895.4,238.84 85.47,2.69 152.59,74.16 149.91,159.62 -2.69,85.47 -74.16,152.59 -159.62,149.91 -303.63,-10.6 -703.84,-93.1 -1036.21,-277.69 -68.73,-38.17 -134.71,-80.72 -196.63,-127.88 4.19,79.11 3.84,154.97 -1.29,228.01 24.32,502.94 66.77,1316.25 651.61,1763.18 68.05,51.95 81.09,149.24 29.14,217.28 -51.94,68.05 -149.24,81.09 -217.28,29.14 -455.56,-348.14 -634.15,-852.98 -710.78,-1316.82 -354.24,486.56 -1078.49,785.23 -2322.64,1182.12 346.21,393.23 682.59,843.18 981.71,1283.73 278.04,409.52 524.87,812.81 717.96,1155.84 184.81,-43.25 420.11,-77.54 690.06,-116.86 1138.1,-165.79 2983.64,-434.69 3128.28,-1680.34l8.22 -210.6c15.34,-385.97 26.65,-670.69 18.83,-1000.27 -12.31,-31.4 -19.67,-65.35 -21.06,-100.94 -25.78,-606.31 -153.71,-1312.15 -373.14,-2027.29 -84.75,-276.22 -183.12,-553.37 -294.47,-826.24 -788.42,-177.39 -1080.08,-788.12 -1338.61,-1329.55 -167.03,-349.8 -318.01,-665.94 -576.06,-753.51 -154.5,0.35 -301.55,33.38 -433.07,93.96 -151.55,69.83 -283.14,176.11 -382.27,310.97 -157.87,214.74 -235.3,504.96 -184.95,841.81l2.31 5.66c15.43,39.07 22.39,79.4 21.74,118.95 17.18,72.83 40.2,147.54 69.54,223.89 196.23,510.81 345.99,937.73 437.29,1303.82zm-23217.84 6718.54c-32.84,79.1 -123.61,116.6 -202.71,83.76 -79.09,-32.85 -116.6,-123.61 -83.75,-202.71 253.03,-610.1 481.2,-998.43 896.15,-1704.71 192.08,-326.92 425.07,-723.48 728.15,-1258.33 42.23,-74.42 136.8,-100.5 211.21,-58.27 74.42,42.23 100.5,136.8 58.27,211.22 -295.42,521.33 -533.95,927.31 -730.57,1261.97 -406.62,692.09 -630.2,1072.63 -876.75,1667.07zm-2760.7 -3031.76c-30.5,80.11 -120.18,120.32 -200.29,89.83 -80.11,-30.49 -120.32,-120.18 -89.83,-200.29 208.83,-546.13 461.13,-1059.41 754.39,-1572.38 291.01,-509.02 623.52,-1019.22 994.67,-1562.15 48.27,-70.71 144.75,-88.92 215.46,-40.65 70.72,48.26 88.93,144.74 40.66,215.46 -365.48,534.62 -693.32,1037.73 -981.31,1541.49 -285.74,499.82 -531.2,998.98 -733.75,1528.69zm-1947.03 -2781.44c-38.21,76.41 -131.15,107.39 -207.56,69.18 -76.42,-38.21 -107.4,-131.15 -69.19,-207.57 467.13,-934.77 652.87,-1171.6 1164.52,-1823.99l68.7 -87.63c52.62,-67.37 149.91,-79.33 217.28,-26.71 67.37,52.62 79.32,149.91 26.7,217.28l-68.7 87.63c-498.12,635.13 -678.94,865.69 -1131.75,1771.81zm29023.21 -3625.63c81.46,133.91 153.49,284.72 228.22,441.22 197.42,413.46 416.82,872.88 893.59,1083.69 -119.36,-259.03 -250.58,-511.78 -393.16,-753.5 -218.58,-370.55 -471.1,-621.06 -728.65,-771.41zm-14406.78 -2044.97c21.45,82.79 -28.28,167.3 -111.07,188.75 -82.8,21.46 -167.31,-28.27 -188.76,-111.07 -25.98,-99.12 -109.11,-195.22 -217.96,-271.62 -121.47,-85.27 -270.13,-141.96 -407.64,-150.46 -85.47,-5.03 -150.68,-78.4 -145.66,-163.87 5.02,-85.46 78.4,-150.68 163.87,-145.65 194.93,12.05 401.84,89.75 567.86,206.29 164.67,115.6 293.5,272.62 339.36,447.63zm-1973.78 -3025.15c21.45,82.79 -28.28,167.3 -111.07,188.75 -82.79,21.45 -167.31,-28.28 -188.76,-111.07 -31.8,-121.36 -132.13,-237.97 -263.16,-329.96 -144.77,-101.62 -322.26,-169.22 -486.74,-179.38 -85.46,-5.02 -150.68,-78.4 -145.65,-163.87 5.02,-85.46 78.4,-150.68 163.86,-145.65 221.89,13.71 457.65,102.33 646.96,235.21 186.86,131.18 332.88,308.72 384.56,505.97zm-2051.32 -2407.6c21.45,82.79 -28.28,167.3 -111.07,188.75 -82.79,21.46 -167.31,-28.27 -188.76,-111.07 -19.5,-74.45 -83.57,-147.77 -167.8,-206.89 -95.59,-67.1 -212.25,-111.71 -319.85,-118.36 -85.46,-5.03 -150.68,-78.4 -145.65,-163.87 5.02,-85.46 78.4,-150.68 163.86,-145.65 165.01,10.2 339.95,75.83 480.07,174.19 140.06,98.32 249.82,232.56 289.2,382.9zm-2028.29 -1151.26c21.45,82.79 -28.28,167.31 -111.07,188.76 -82.8,21.45 -167.31,-28.28 -188.76,-111.07 -10.15,-38.76 -46.63,-79.13 -95.25,-113.26 -58.17,-40.83 -128.55,-67.95 -192.86,-71.92 -85.47,-5.02 -150.68,-78.4 -145.66,-163.86 5.03,-85.47 78.4,-150.68 163.87,-145.66 121.71,7.52 250.37,55.65 353.08,127.75 104.45,73.31 186.61,174.63 216.65,289.26zm-3357.96 3817.83c21.45,82.79 -28.28,167.31 -111.07,188.76 -82.79,21.45 -167.31,-28.28 -188.76,-111.07 -10.15,-38.77 -46.63,-79.14 -95.25,-113.27 -58.17,-40.83 -128.55,-67.95 -192.86,-71.92 -85.47,-5.02 -150.68,-78.4 -145.66,-163.86 5.03,-85.47 78.4,-150.68 163.87,-145.66 121.72,7.52 250.38,55.65 353.08,127.75 104.45,73.32 186.62,174.61 216.65,289.27zm1793.87 1507.95c24.13,82.12 -22.87,168.26 -104.99,192.39 -82.12,24.14 -168.26,-22.87 -192.4,-104.99 -22.28,-75.04 -71.79,-142.94 -134.49,-199.43 -76.64,-69.07 -170.1,-119.23 -258.69,-145.03 -82.12,-23.79 -129.4,-109.66 -105.6,-191.78 23.79,-82.12 109.66,-129.39 191.78,-105.6 131.48,38.29 268.92,111.59 380.09,211.77 102.07,91.97 184.27,207.85 224.3,342.67zm2130.97 2623.11c25.8,81.45 -19.3,168.41 -100.74,194.22 -81.45,25.8 -168.42,-19.3 -194.22,-100.75 -40.67,-128 -160.26,-279.63 -305.33,-410.1 -149.11,-134.1 -318.72,-239.66 -451.47,-268.72 -83.79,-18.09 -137.05,-100.71 -118.95,-184.5 18.09,-83.79 100.71,-137.05 184.5,-118.95 185.85,40.69 407.76,174.49 593.5,341.54 181.37,163.13 334.46,363.91 392.71,547.26zm2540.87 2687.05c36.87,77.1 4.26,169.49 -72.83,206.36 -77.1,36.86 -169.49,4.25 -206.36,-72.84 -60.07,-125.55 -157.54,-228.39 -267.57,-308.69 -142.43,-103.92 -304.77,-169.47 -436.81,-198.32 -83.79,-18.1 -137.05,-100.72 -118.96,-184.5 18.1,-83.79 100.71,-137.05 184.5,-118.96 166.74,36.44 372.23,119.58 553.34,251.74 148,108 280.44,249.11 364.69,425.21zm1991.94 7333.98c-141.9,14.52 -268.71,-88.74 -283.23,-230.64 -14.53,-141.89 88.74,-268.71 230.63,-283.23l2.29 -0.24c1004.95,-104.78 1877.15,-1015.68 2473.76,-2198.04 612.44,-1213.78 927.07,-2701.29 801.84,-3915.16l-0.56 -5.38c-14.52,-141.9 88.74,-268.71 230.64,-283.23 141.89,-14.53 268.71,88.73 283.23,230.63l0.56 5.38c134.98,1308.33 -200.34,2904.05 -854.44,4200.4 -669.98,1327.79 -1681.03,2354.01 -2882.43,2479.27l-2.29 0.24zm21127.13 -12086.25c234.72,-183.32 449.37,-364.64 643.98,-543.62 337.11,-310.05 613.2,-612.01 828.32,-904.2 467.12,-634.47 623.29,-1294.54 530.33,-1816.57 -42.74,-240 -138.68,-447.72 -280.99,-604.58 -138.24,-152.35 -323.61,-259.49 -549.66,-303.77 -445.54,-87.27 -1045.98,59.79 -1767.03,555.97 -429.75,295.74 -846.81,627.21 -1264.45,975.07 26.53,0.6 53.3,1.75 80.35,3.49 1617.42,103.96 1855.95,1390.52 1779.15,2638.21zm-33982.11 -55.79c-134.97,-149.1 -271.01,-261.35 -405.95,-338.08 -169.93,-96.62 -337.86,-135.01 -498.36,-118.08 -163.08,17.2 -326.54,92.24 -484.49,222.05 -167.66,137.78 -327.74,335.41 -474.53,590.04 -529.4,1200.46 -847.95,1578 -1137.39,1920.99 -360.3,426.94 -670.85,795.31 -1404.87,3093.58 1442.03,-2315.16 3044.43,-3992.57 4405.59,-5370.5zm3212.92 1166.25c44.58,-56.67 92.21,-117.31 -0.3,-0.23l0.3 0.23z"
       id="path6"
       style="fill:#0a425a;fill-opacity:1" /></g></svg>