<?xml version="1.0" encoding="UTF-8" standalone="no"?>
<svg
   width="1200pt"
   height="1200pt"
   version="1.1"
   viewBox="0 0 1200 1200"
   id="svg26"
   sodipodi:docname="files.svg"
   inkscape:version="1.2.2 (b0a8486541, 2022-12-01)"
   xmlns:inkscape="http://www.inkscape.org/namespaces/inkscape"
   xmlns:sodipodi="http://sodipodi.sourceforge.net/DTD/sodipodi-0.dtd"
   xmlns="http://www.w3.org/2000/svg"
   xmlns:svg="http://www.w3.org/2000/svg">
  <defs
     id="defs30" />
  <sodipodi:namedview
     id="namedview28"
     pagecolor="#ffffff"
     bordercolor="#666666"
     borderopacity="1.0"
     inkscape:showpageshadow="2"
     inkscape:pageopacity="0.0"
     inkscape:pagecheckerboard="0"
     inkscape:deskcolor="#d1d1d1"
     inkscape:document-units="pt"
     showgrid="false"
     inkscape:zoom="0.528125"
     inkscape:cx="748.87574"
     inkscape:cy="799.05325"
     inkscape:window-width="1920"
     inkscape:window-height="1043"
     inkscape:window-x="1920"
     inkscape:window-y="0"
     inkscape:window-maximized="1"
     inkscape:current-layer="svg26" />
  <g
     id="g24"
     style="fill:#0a425a;fill-opacity:1">
    <path
       d="m646.15 461.54h276.92v46.152h-276.92z"
       id="path2"
       style="fill:#0a425a;fill-opacity:1" />
    <path
       d="m507.69 553.85h415.38v46.152h-415.38z"
       id="path4"
       style="fill:#0a425a;fill-opacity:1" />
    <path
       d="m507.69 669.23h415.38v46.152h-415.38z"
       id="path6"
       style="fill:#0a425a;fill-opacity:1" />
    <path
       d="m507.69 784.62h415.38v46.152h-415.38z"
       id="path8"
       style="fill:#0a425a;fill-opacity:1" />
    <path
       d="m507.69 900h415.38v46.152h-415.38z"
       id="path10"
       style="fill:#0a425a;fill-opacity:1" />
    <path
       d="m507.69 1015.4h415.38v46.152h-415.38z"
       id="path12"
       style="fill:#0a425a;fill-opacity:1" />
    <path
       d="m1038.5 1153.8h-646.15v-736.16l78.461-99.23 73.848-87.691h493.84zm-600-46.156h553.85v-830.77h-426.93l-60 71.539-66.922 85.387z"
       id="path14"
       style="fill:#0a425a;fill-opacity:1" />
    <path
       d="m600 461.54h-184.62v-46.156h138.46v-150h46.152z"
       id="path16"
       style="fill:#0a425a;fill-opacity:1" />
    <path
       d="m484.62 366.92h-184.62v-46.152h138.46v-147.69h46.156z"
       id="path18"
       style="fill:#0a425a;fill-opacity:1" />
    <path
       d="m415.38 1061.5h-138.46v-736.16l78.461-99.23 73.848-87.691h493.85v117.69h-46.156v-71.535h-424.61l-60 71.535-69.23 85.387v673.84h92.305z"
       id="path20"
       style="fill:#0a425a;fill-opacity:1" />
    <path
       d="m300 969.23h-138.46v-736.15l78.461-99.23 73.848-87.695h496.15v117.7h-46.152v-71.539h-426.93l-60 71.539-69.23 85.383v673.85h92.309z"
       id="path22"
       style="fill:#0a425a;fill-opacity:1" />
  </g>
</svg>
