<?xml version="1.0" encoding="UTF-8" standalone="no"?>
<svg
   xmlns:dc="http://purl.org/dc/elements/1.1/"
   xmlns:cc="http://creativecommons.org/ns#"
   xmlns:rdf="http://www.w3.org/1999/02/22-rdf-syntax-ns#"
   xmlns:svg="http://www.w3.org/2000/svg"
   xmlns="http://www.w3.org/2000/svg"
   xmlns:sodipodi="http://sodipodi.sourceforge.net/DTD/sodipodi-0.dtd"
   xmlns:inkscape="http://www.inkscape.org/namespaces/inkscape"
   height="48.956768"
   width="95.882812"
   viewBox="0 0 61.365 31.332332"
   x="0px"
   y="0px"
   version="1.1"
   id="svg8"
   sodipodi:docname="fleche_gauche.svg"
   inkscape:version="0.92.4 (5da689c313, 2019-01-14)"
   style="fill:#000000">
  <metadata
     id="metadata14">
    <rdf:RDF>
      <cc:Work
         rdf:about="">
        <dc:format>image/svg+xml</dc:format>
        <dc:type
           rdf:resource="http://purl.org/dc/dcmitype/StillImage" />
        <dc:title>up, upload, arrow, export</dc:title>
      </cc:Work>
    </rdf:RDF>
  </metadata>
  <defs
     id="defs12" />
  <sodipodi:namedview
     pagecolor="#ffffff"
     bordercolor="#666666"
     borderopacity="1"
     objecttolerance="10"
     gridtolerance="10"
     guidetolerance="10"
     inkscape:pageopacity="0"
     inkscape:pageshadow="2"
     inkscape:window-width="1920"
     inkscape:window-height="1016"
     id="namedview10"
     showgrid="false"
     inkscape:zoom="9.44"
     inkscape:cx="38.505179"
     inkscape:cy="17.324959"
     inkscape:window-x="0"
     inkscape:window-y="27"
     inkscape:window-maximized="1"
     inkscape:current-layer="g6"
     fit-margin-top="10"
     fit-margin-left="10"
     fit-margin-right="10"
     fit-margin-bottom="10" />
  <title
     id="title2">up, upload, arrow, export</title>
  <g
     id="g6"
     transform="rotate(-90,20.932583,26.733583)"
     style="fill:#0a425a;fill-opacity:1">
    <path
       d="m 41.128,30.019 -7.764,-16.95 c -0.012,-0.026 -0.03,-0.048 -0.044,-0.074 -0.024,-0.045 -0.049,-0.089 -0.077,-0.132 -0.02774,-0.04133 -0.05779,-0.08105 -0.09,-0.119 -0.02889,-0.03493 -0.0596,-0.06831 -0.092,-0.1 -0.03809,-0.03775 -0.07815,-0.07347 -0.12,-0.107 -0.033,-0.026 -0.066,-0.052 -0.1,-0.076 -0.04859,-0.03253 -0.09901,-0.06224 -0.151,-0.089 -0.022,-0.011 -0.041,-0.027 -0.063,-0.037 -0.022,-0.01 -0.031,-0.009 -0.046,-0.016 -0.052,-0.021 -0.105,-0.038 -0.159,-0.054 -0.054,-0.016 -0.087,-0.026 -0.131,-0.035 -0.044,-0.009 -0.093,-0.013 -0.14,-0.018 -0.047,-0.005 -0.1,-0.011 -0.153,-0.011 -0.053,0 -0.084,0.005 -0.127,0.009 -0.05567,0.004 -0.111089,0.01099 -0.166,0.021 -0.037,0.008 -0.074,0.019 -0.111,0.03 -0.05951,0.01638 -0.117957,0.03642 -0.175,0.06 -0.014,0.006 -0.028,0.008 -0.042,0.014 -0.014,0.006 -0.038,0.024 -0.058,0.034 -0.05466,0.02749 -0.107436,0.05856 -0.158,0.093 -0.034,0.023 -0.066,0.048 -0.1,0.073 -0.04286,0.03454 -0.08391,0.07125 -0.123,0.11 -0.032,0.03333 -0.062,0.06667 -0.09,0.1 -0.03254,0.03828 -0.06292,0.07834 -0.091,0.12 -0.028,0.043 -0.053,0.087 -0.077,0.132 -0.014,0.026 -0.032,0.048 -0.044,0.074 l -7.764,16.95 c -0.455481,0.993742 0.270846,2.1253 1.364,2.125 H 30.5 v 27.12 c 0,1.999999 3,1.999999 3,0 V 32.144 h 6.264 c 1.093154,3e-4 1.819481,-1.131258 1.364,-2.125 z M 32,17.3 v 0 c 0,0 1.389,5.532 1.9,7.481 0.511,1.949 0.287,4.376 -4.127,4.367 h -3.2 z"
       id="path4"
       inkscape:connector-curvature="0"
       style="fill:#0a425a;fill-opacity:1"
       sodipodi:nodetypes="cccccccccscssssccccscccccccccccsscccccsccc" />
  </g>
</svg>
