<?xml version="1.0" encoding="UTF-8" standalone="no"?>
<svg
   xmlns:dc="http://purl.org/dc/elements/1.1/"
   xmlns:cc="http://creativecommons.org/ns#"
   xmlns:rdf="http://www.w3.org/1999/02/22-rdf-syntax-ns#"
   xmlns:svg="http://www.w3.org/2000/svg"
   xmlns="http://www.w3.org/2000/svg"
   xmlns:sodipodi="http://sodipodi.sourceforge.net/DTD/sodipodi-0.dtd"
   xmlns:inkscape="http://www.inkscape.org/namespaces/inkscape"
   height="100px"
   width="100px"
   fill="#000000"
   version="1.1"
   x="0px"
   y="0px"
   viewBox="0 0 64 64"
   style="enable-background:new 0 0 64 64;"
   xml:space="preserve"
   id="svg24"
   sodipodi:docname="formulaire_ligne.svg"
   inkscape:version="0.92.4 (5da689c313, 2019-01-14)"><metadata
     id="metadata30"><rdf:RDF><cc:Work
         rdf:about=""><dc:format>image/svg+xml</dc:format><dc:type
           rdf:resource="http://purl.org/dc/dcmitype/StillImage" /><dc:title></dc:title></cc:Work></rdf:RDF></metadata><defs
     id="defs28" /><sodipodi:namedview
     pagecolor="#ffffff"
     bordercolor="#666666"
     borderopacity="1"
     objecttolerance="10"
     gridtolerance="10"
     guidetolerance="10"
     inkscape:pageopacity="0"
     inkscape:pageshadow="2"
     inkscape:window-width="1920"
     inkscape:window-height="1016"
     id="namedview26"
     showgrid="false"
     inkscape:zoom="4.72"
     inkscape:cx="71.777871"
     inkscape:cy="36.139511"
     inkscape:window-x="0"
     inkscape:window-y="27"
     inkscape:window-maximized="1"
     inkscape:current-layer="g22" /><g
     id="g22"><path
       d="M52.6,45H9.1c-2,0-3.6-1.6-3.6-3.6V13.3c0-2,1.6-3.6,3.6-3.6h43.6c2,0,3.6,1.6,3.6,3.6v28.2C56.2,43.4,54.6,45,52.6,45z    M9.1,13c-0.2,0-0.3,0.1-0.3,0.3v28.2c0,0.2,0.1,0.3,0.3,0.3h43.6c0.2,0,0.3-0.1,0.3-0.3V13.3c0-0.2-0.1-0.3-0.3-0.3H9.1z"
       id="path2"
       style="fill:#0a425a;fill-opacity:1" /><path
       d="M62.1,48.9H40.7c0-0.6-0.5-1.1-1.1-1.1h-16c-0.6,0-1.1,0.5-1.1,1.1H1.9c-0.6,0-1,0.5-0.9,1.1c0.5,2.4,2.7,4.2,5.2,4.2h51.5   c2.6,0,4.7-1.8,5.2-4.2C63.1,49.5,62.7,48.9,62.1,48.9z"
       id="path4"
       style="fill:#0a425a;fill-opacity:1" /><rect
       x="10.8"
       y="17.5"
       width="11.6"
       height="1.1"
       id="rect6"
       style="fill:#0a425a;fill-opacity:1" /><rect
       x="39.3"
       y="37.8"
       width="7.9"
       height="1.1"
       id="rect8"
       style="fill:#0a425a;fill-opacity:1" /><rect
       x="10.8"
       y="37.8"
       width="7.7"
       height="1.1"
       id="rect10"
       style="fill:#0a425a;fill-opacity:1" /><polygon
       points="31.9,26.1 10.8,26.1 10.8,25.1 31.9,25.1  "
       id="polygon12"
       style="fill:#0a425a;fill-opacity:1" /><polygon
       points="31.9,33.5 10.8,33.5 10.8,32.5 31.9,32.5  "
       id="polygon14"
       style="fill:#0a425a;fill-opacity:1" /><g
       transform="matrix(0.18785191,0,0,0.18785191,32.505265,13.218523)"
       id="g34"
       style="fill:#0a425a;fill-opacity:1"><g
         id="g32"
         style="fill:#0a425a;fill-opacity:1"><path
           inkscape:connector-curvature="0"
           d="m 64.64,62.2 c -0.62,1.8 -1.24,3.24 -1.94,4.54 -0.65,1.21 -1.47,2.31 -2.26,3.37 l -1.12,1.53 c -1.57,2.15 -3.19,4.38 -5.01,6.39 -0.09,0.1 -0.18,0.19 -0.27,0.28 0.41,-0.12 0.8,-0.31 1.14,-0.59 0.69,-0.56 1.51,-1.2 2.39,-1.9 4.34,-3.39 10.88,-8.52 11.43,-11.57 0.49,-2.73 0.05,-9.79 -0.32,-14.43 -1.4,4.48 -2.67,8.43 -4.04,12.38 z"
           id="path2-7"
           style="fill:#0a425a;fill-opacity:1" /><path
           inkscape:connector-curvature="0"
           d="m 31.68,37.11 c -0.43,0.03 -0.78,0.16 -1.07,0.4 -0.01,0.07 -0.02,0.15 -0.02,0.23 0,0.82 0.66,1.48 1.48,1.48 0.61,0 1.14,-0.37 1.37,-0.91 l -0.59,-0.68 c -0.3,-0.35 -0.73,-0.54 -1.17,-0.52 z"
           id="path4-5"
           style="fill:#0a425a;fill-opacity:1" /><path
           inkscape:connector-curvature="0"
           d="m 5.65,28.14 c -0.2,0.58 0.54,3.56 3.15,6.63 2.65,3.12 8.71,7.82 19.59,4.77 -0.47,-2.84 -0.34,-5.39 0.4,-7.59 -2.81,-2.06 -11.5,-7.29 -23.14,-3.81 z"
           id="path6"
           style="fill:#0a425a;fill-opacity:1" /><path
           inkscape:connector-curvature="0"
           d="m 59.45,69.69 c -0.01,0.05 -0.03,0.11 -0.05,0.16 l 0.24,-0.33 c 0,0 0,0 0,0 -0.06,0.05 -0.12,0.11 -0.19,0.17 z"
           id="path8"
           style="fill:#0a425a;fill-opacity:1" /><path
           inkscape:connector-curvature="0"
           d="m 50.06,77.26 c -0.02,0 -0.04,0 -0.06,0 -0.02,0 -0.04,0 -0.06,0 -2.07,-0.24 -3.7,-0.84 -4.98,-1.62 0.48,0.59 0.96,1.16 1.46,1.72 0.46,0.51 0.92,0.87 1.36,1.09 0.51,0.25 1,0.3 1.46,0.17 0.25,-0.07 0.5,-0.11 0.75,-0.11 0.25,0 0.5,0.04 0.75,0.11 0.46,0.13 0.96,0.08 1.46,-0.17 0.45,-0.22 0.91,-0.58 1.37,-1.09 0.5,-0.55 0.99,-1.13 1.46,-1.71 -1.28,0.77 -2.9,1.36 -4.97,1.61 z"
           id="path10"
           style="fill:#0a425a;fill-opacity:1" /><path
           inkscape:connector-curvature="0"
           d="m 40.64,71.59 -1.08,-1.48 c -0.79,-1.06 -1.6,-2.16 -2.26,-3.37 -0.7,-1.3 -1.33,-2.78 -1.94,-4.54 -1.37,-3.95 -2.64,-7.9 -4.04,-12.39 -0.37,4.64 -0.8,11.71 -0.32,14.43 0.54,3.05 7.09,8.18 11.42,11.57 0.89,0.69 1.7,1.33 2.39,1.9 0.34,0.28 0.73,0.47 1.14,0.59 -0.09,-0.09 -0.18,-0.18 -0.27,-0.28 -1.83,-2.01 -3.46,-4.26 -5.04,-6.43 z"
           id="path12"
           style="fill:#0a425a;fill-opacity:1" /><path
           inkscape:connector-curvature="0"
           d="m 40.55,69.69 c -0.07,-0.06 -0.13,-0.11 -0.2,-0.17 0,0 0,0 0,0 l 0.24,0.33 c -0.01,-0.06 -0.02,-0.11 -0.04,-0.16 z"
           id="path14"
           style="fill:#0a425a;fill-opacity:1" /><path
           inkscape:connector-curvature="0"
           d="M 43.23,71.12 C 43.11,71.08 42.99,71.04 42.88,71 c -0.34,-0.13 -0.66,-0.27 -0.96,-0.43 0.12,0.28 0.25,0.57 0.41,0.87 0.13,0.24 0.28,0.49 0.44,0.73 0.63,0.94 1.5,1.87 2.73,2.61 0.01,0.01 0.03,0.02 0.04,0.02 0.77,0.46 1.66,0.85 2.72,1.12 0.02,0.01 0.05,0.01 0.07,0.01 0.52,0.13 1.08,0.24 1.68,0.31 4.99,-0.61 7.15,-3.43 8.09,-5.68 -0.3,0.15 -0.63,0.3 -0.96,0.43 -0.11,0.04 -0.23,0.08 -0.35,0.12 -0.19,0.07 -0.38,0.14 -0.59,0.2 -1.69,3.9 -4.45,3.46 -5.58,3.08 -0.4,-0.13 -0.82,-0.13 -1.22,0 -1.13,0.38 -3.89,0.82 -5.58,-3.08 -0.21,-0.04 -0.4,-0.12 -0.59,-0.19 z"
           id="path16"
           style="fill:#0a425a;fill-opacity:1" /><path
           inkscape:connector-curvature="0"
           d="m 49.07,73.46 c 0.61,-0.21 1.25,-0.21 1.86,0 1.18,0.4 2.78,0.35 3.99,-1.82 -1.7,0.34 -3.37,0.36 -4.52,0.01 -0.26,-0.08 -0.53,-0.08 -0.79,0 -1.16,0.35 -2.82,0.34 -4.52,-0.01 1.2,2.17 2.79,2.22 3.98,1.82 z"
           id="path18"
           style="fill:#0a425a;fill-opacity:1" /><path
           inkscape:connector-curvature="0"
           d="m 67.37,28.05 c -0.83,-0.12 -3.72,-0.6 -4.44,-1.57 -0.35,-0.47 -2.77,-1.34 -4.82,-1.87 -0.27,-0.07 -0.43,-0.34 -0.36,-0.61 0.07,-0.27 0.34,-0.43 0.61,-0.36 0.77,0.2 4.63,1.25 5.37,2.25 0.34,0.46 2.28,0.97 3.88,1.19 0.07,0.01 0.13,0.03 0.19,0.07 0.08,0.05 1.83,1.17 3.01,3.85 2.23,-1.59 7.41,-4.66 14.5,-4.99 -2.96,-0.27 -5.88,-0.16 -7.4,0.78 -4.01,2.47 -7.18,1.16 -7.31,1.1 C 60.3,21.2 52.55,21.2 50.39,21.36 c -0.07,0.03 -0.14,0.06 -0.22,0.06 -0.02,0 -0.05,0 -0.07,-0.01 L 50,21.39 49.88,21.4 c -0.02,0 -0.05,0 -0.07,0 -0.08,0 -0.15,-0.02 -0.22,-0.06 -2.17,-0.16 -9.89,-0.15 -20.13,6.5 -0.21,0.1 -3.38,1.41 -7.39,-1.06 -1.53,-0.94 -4.44,-1.05 -7.41,-0.78 7.1,0.33 12.28,3.4 14.51,4.99 1.18,-2.68 2.93,-3.8 3.01,-3.85 0.06,-0.04 0.13,-0.06 0.19,-0.07 1.6,-0.22 3.55,-0.73 3.88,-1.19 0.74,-1 4.6,-2.05 5.37,-2.25 0.27,-0.07 0.54,0.09 0.61,0.36 0.07,0.27 -0.09,0.54 -0.36,0.61 -2.05,0.53 -4.47,1.4 -4.82,1.87 -0.72,0.98 -3.61,1.45 -4.44,1.57 -0.36,0.25 -1.86,1.43 -2.78,3.89 -0.83,2.23 -0.97,4.88 -0.4,7.88 0.17,0.9 0.4,1.84 0.7,2.8 l 1.37,4.46 c 1.71,5.53 3.18,10.16 4.79,14.81 0.59,1.71 1.2,3.15 1.88,4.4 0.13,0.24 0.27,0.48 0.42,0.72 -0.66,-1.78 -0.32,-3.56 0.4,-4.87 0.74,-1.34 1.18,-5.25 1.28,-6.65 0.02,-0.27 0.25,-0.48 0.54,-0.46 0.28,0.02 0.48,0.26 0.46,0.54 -0.02,0.21 -0.41,5.26 -1.41,7.06 -0.88,1.59 -1.07,4.01 1.02,6.06 0.13,0.12 0.26,0.24 0.4,0.35 0,0 0,0 0,0 0,0 0,0 0,0 0.76,0.59 1.8,1.08 3.02,1.42 1.83,0.52 3.8,0.62 5,0.26 0.45,-0.13 0.92,-0.13 1.37,0 1.2,0.36 3.17,0.26 5,-0.26 0,0 0,0 0,0 0,0 0,0 0,0 0.61,-0.17 1.18,-0.38 1.68,-0.62 0.01,-0.01 0.03,-0.02 0.04,-0.02 0.49,-0.23 0.93,-0.49 1.29,-0.78 0,0 0,0 0,0 0,0 0,0 0,0 0.14,-0.11 0.28,-0.23 0.4,-0.35 2.09,-2.05 1.9,-4.48 1.02,-6.06 -1,-1.8 -1.39,-6.84 -1.41,-7.06 -0.02,-0.28 0.19,-0.52 0.46,-0.54 0.28,-0.02 0.52,0.19 0.54,0.46 0.11,1.4 0.55,5.31 1.28,6.65 0.73,1.31 1.07,3.1 0.4,4.88 0.15,-0.24 0.29,-0.48 0.42,-0.72 0.67,-1.25 1.27,-2.65 1.87,-4.39 1.61,-4.65 3.08,-9.28 4.79,-14.81 v 0 c 0,0 0,0 0,0 l 1.37,-4.45 c 0.29,-0.95 0.52,-1.88 0.69,-2.76 0,-0.03 0,-0.05 0,-0.08 0,-0.01 0.01,-0.02 0.02,-0.03 0.55,-2.97 0.41,-5.59 -0.42,-7.8 -0.88,-2.51 -2.38,-3.67 -2.74,-3.92 z M 35.79,40.26 c -0.09,0.08 -0.21,0.12 -0.33,0.12 -0.14,0 -0.28,-0.06 -0.38,-0.17 l -0.94,-1.09 c -0.45,0.68 -1.21,1.11 -2.06,1.11 -1.22,0 -2.22,-0.88 -2.43,-2.04 -0.01,0 -0.02,0 -0.03,-0.01 -0.25,-0.11 -0.37,-0.4 -0.26,-0.65 0.01,-0.03 0.15,-0.33 0.46,-0.63 0,0 0,0 0,0 0,0 0,0 0,0 0,0 0,0 0,0 0,0 0,0 0,0 0.33,-0.32 0.9,-0.72 1.81,-0.78 0.76,-0.05 1.49,0.28 1.99,0.86 l 0.77,0.89 1.46,1.69 c 0.17,0.21 0.15,0.52 -0.06,0.7 z m 14.3,28.42 c -0.03,0.01 -0.06,0.01 -0.09,0.01 -0.03,0 -0.06,0 -0.09,-0.01 -5.96,-1.09 -6.59,-4.68 -6.44,-6.71 0,0 0,0 0,0 0.09,-1.18 1.08,-2.1 2.28,-2.02 1.14,0.05 2.46,0.36 3.38,0.61 0.57,0.16 1.17,0.16 1.74,0 0.91,-0.25 2.24,-0.56 3.38,-0.61 1.18,-0.06 2.19,0.84 2.28,2.02 0.15,2.04 -0.48,5.62 -6.44,6.71 z m 20.1,-31.79 c 0,0 0,0 0,0 0,0 0,0 0,0 0,0.01 0,0.01 0,0 0.31,0.31 0.44,0.6 0.46,0.63 0.11,0.25 0,0.55 -0.26,0.66 -0.01,0 -0.02,0 -0.03,0.01 -0.21,1.15 -1.22,2.03 -2.43,2.03 -0.85,0 -1.62,-0.43 -2.06,-1.11 l -0.94,1.09 c -0.1,0.11 -0.24,0.17 -0.38,0.17 -0.12,0 -0.23,-0.04 -0.33,-0.12 -0.21,-0.18 -0.23,-0.5 -0.05,-0.71 l 1.46,-1.69 0.77,-0.9 c 0.5,-0.58 1.24,-0.9 1.99,-0.86 0.9,0.08 1.48,0.48 1.8,0.8 0,0 0,0 0,0 z"
           id="path20"
           style="fill:#0a425a;fill-opacity:1" /><path
           inkscape:connector-curvature="0"
           d="m 67.15,37.63 -0.59,0.69 c 0.22,0.55 0.76,0.91 1.37,0.91 0.82,0 1.48,-0.67 1.48,-1.48 0,-0.08 -0.01,-0.16 -0.02,-0.23 -0.28,-0.24 -0.64,-0.37 -1.07,-0.4 -0.43,-0.03 -0.87,0.16 -1.17,0.51 z"
           id="path22"
           style="fill:#0a425a;fill-opacity:1" /><path
           inkscape:connector-curvature="0"
           d="m 94.36,28.14 c -11.64,-3.48 -20.33,1.75 -23.14,3.8 0.74,2.2 0.87,4.76 0.4,7.6 10.88,3.05 16.94,-1.65 19.59,-4.77 2.59,-3.06 3.33,-6.03 3.15,-6.63 z"
           id="path24"
           style="fill:#0a425a;fill-opacity:1" /><path
           inkscape:connector-curvature="0"
           d="m 54.29,60.94 c -1.05,0.04 -2.29,0.34 -3.15,0.57 -0.74,0.21 -1.53,0.21 -2.28,0 -0.86,-0.24 -2.11,-0.53 -3.15,-0.57 -0.65,-0.01 -1.19,0.46 -1.24,1.1 -0.03,0.34 -0.02,0.7 0.02,1.06 0.22,-0.32 0.93,-1.26 1.98,-1.24 1.1,0.02 2.11,0.99 3.09,2.95 0.11,0.22 0.04,0.48 -0.15,0.62 -0.09,0.07 -0.19,0.1 -0.3,0.1 -0.12,0 -0.25,-0.05 -0.34,-0.14 -0.61,-0.58 -2.48,-1.98 -3.72,-1.48 -0.13,0.05 -0.27,0.03 -0.39,-0.03 0.47,1.59 1.87,3.13 5.35,3.79 3.48,-0.66 4.89,-2.21 5.35,-3.79 -0.12,0.06 -0.26,0.08 -0.39,0.03 -1.25,-0.5 -3.11,0.9 -3.72,1.48 -0.1,0.09 -0.22,0.14 -0.34,0.14 -0.1,0 -0.21,-0.03 -0.3,-0.1 -0.2,-0.14 -0.26,-0.41 -0.15,-0.63 0.98,-1.96 1.98,-2.93 3.09,-2.95 1.1,-0.03 1.77,0.9 1.98,1.23 0.04,-0.36 0.05,-0.71 0.02,-1.05 -0.07,-0.63 -0.61,-1.1 -1.26,-1.09 z"
           id="path26"
           style="fill:#0a425a;fill-opacity:1" /><path
           inkscape:connector-curvature="0"
           d="m 46.26,62.88 c 0.31,0.06 0.61,0.16 0.9,0.28 -0.25,-0.19 -0.49,-0.3 -0.72,-0.3 -0.05,0 -0.12,0.01 -0.18,0.02 z"
           id="path28"
           style="fill:#0a425a;fill-opacity:1" /><path
           inkscape:connector-curvature="0"
           d="m 52.83,63.17 c 0.29,-0.12 0.59,-0.22 0.9,-0.28 -0.05,-0.01 -0.11,-0.02 -0.17,-0.02 -0.01,0 -0.01,0 -0.02,0 -0.22,0 -0.46,0.1 -0.71,0.3 z"
           id="path30"
           style="fill:#0a425a;fill-opacity:1" /></g></g></g></svg>