<?xml version="1.0" encoding="UTF-8" standalone="no"?>
<svg
   xmlns:dc="http://purl.org/dc/elements/1.1/"
   xmlns:cc="http://creativecommons.org/ns#"
   xmlns:rdf="http://www.w3.org/1999/02/22-rdf-syntax-ns#"
   xmlns:svg="http://www.w3.org/2000/svg"
   xmlns="http://www.w3.org/2000/svg"
   xmlns:sodipodi="http://sodipodi.sourceforge.net/DTD/sodipodi-0.dtd"
   xmlns:inkscape="http://www.inkscape.org/namespaces/inkscape"
   height="100px"
   width="100px"
   fill="#000000"
   viewBox="0 0 120 120"
   x="0px"
   y="0px"
   version="1.1"
   id="svg32"
   sodipodi:docname="formulaire_vierge.svg"
   inkscape:version="0.92.4 (5da689c313, 2019-01-14)">
  <metadata
     id="metadata38">
    <rdf:RDF>
      <cc:Work
         rdf:about="">
        <dc:format>image/svg+xml</dc:format>
        <dc:type
           rdf:resource="http://purl.org/dc/dcmitype/StillImage" />
        <dc:title>Form</dc:title>
      </cc:Work>
    </rdf:RDF>
  </metadata>
  <defs
     id="defs36" />
  <sodipodi:namedview
     pagecolor="#ffffff"
     bordercolor="#666666"
     borderopacity="1"
     objecttolerance="10"
     gridtolerance="10"
     guidetolerance="10"
     inkscape:pageopacity="0"
     inkscape:pageshadow="2"
     inkscape:window-width="1920"
     inkscape:window-height="1016"
     id="namedview34"
     showgrid="false"
     inkscape:zoom="2.36"
     inkscape:cx="50"
     inkscape:cy="50"
     inkscape:window-x="0"
     inkscape:window-y="27"
     inkscape:window-maximized="1"
     inkscape:current-layer="svg32" />
  <title
     id="title2">Form</title>
  <polygon
     points="12.5 12.5 77.5 12.5 77.5 13.75 80 13.75 80 10 10 10 10 105 13.75 105 13.75 102.5 12.5 102.5 12.5 12.5"
     id="polygon4"
     style="fill:#0a425a;fill-opacity:1" />
  <rect
     x="22.5"
     y="25"
     width="27.5"
     height="2.5"
     id="rect6"
     style="fill:#0a425a;fill-opacity:1" />
  <rect
     x="22.5"
     y="30"
     width="27.5"
     height="2.5"
     id="rect8"
     style="fill:#0a425a;fill-opacity:1" />
  <rect
     x="35"
     y="42.5"
     width="42.5"
     height="2.5"
     id="rect10"
     style="fill:#0a425a;fill-opacity:1" />
  <path
     d="M22.5,47.5h10v-10h-10ZM25,40h5v5H25Z"
     id="path12"
     style="fill:#0a425a;fill-opacity:1" />
  <path
     d="M22.5,62.5h10v-10h-10ZM25,55h5v5H25Z"
     id="path14"
     style="fill:#0a425a;fill-opacity:1" />
  <path
     d="M22.5,77.5h10v-10h-10ZM25,70h5v5H25Z"
     id="path16"
     style="fill:#0a425a;fill-opacity:1" />
  <rect
     x="22.5"
     y="85"
     width="55"
     height="2.5"
     id="rect18"
     style="fill:#0a425a;fill-opacity:1" />
  <rect
     x="22.5"
     y="92.5"
     width="35"
     height="2.5"
     id="rect20"
     style="fill:#0a425a;fill-opacity:1" />
  <rect
     x="35"
     y="72.5"
     width="23.83"
     height="2.5"
     id="rect22"
     style="fill:#0a425a;fill-opacity:1" />
  <polygon
     points="77.5 72.5 76.16 72.5 73.66 75 77.5 75 77.5 72.5"
     id="polygon24"
     style="fill:#0a425a;fill-opacity:1" />
  <polygon
     points="73.49 57.5 35 57.5 35 60 70.98 60 73.49 57.5"
     id="polygon26"
     style="fill:#0a425a;fill-opacity:1" />
  <polygon
     points="82.5 107.5 17.5 107.5 17.5 17.5 82.5 17.5 82.5 48.49 85 45.99 85 15 15 15 15 110 85 110 85 63.66 82.5 66.16 82.5 107.5"
     id="polygon28"
     style="fill:#0a425a;fill-opacity:1" />
  <path
     d="M108.54,31.29a5,5,0,0,0-7.07,0L62.58,70.18l-2.5,2.5v7.07h7.07l2.5-2.5L83.79,63.11l1.77-1.77,23-23A5,5,0,0,0,108.54,31.29Zm-42.43,46H62.58V73.71L78.49,57.8,82,61.34Zm40.66-40.66-23,23L80.25,56l23-23a2.5,2.5,0,0,1,3.54,3.54Z"
     id="path30"
     style="fill:#0a425a;fill-opacity:1" />
</svg>
