<?xml version="1.0" encoding="UTF-8" standalone="no"?>
<!-- Created with Inkscape (http://www.inkscape.org/) -->

<svg
   xmlns:dc="http://purl.org/dc/elements/1.1/"
   xmlns:cc="http://creativecommons.org/ns#"
   xmlns:rdf="http://www.w3.org/1999/02/22-rdf-syntax-ns#"
   xmlns:svg="http://www.w3.org/2000/svg"
   xmlns="http://www.w3.org/2000/svg"
   xmlns:sodipodi="http://sodipodi.sourceforge.net/DTD/sodipodi-0.dtd"
   xmlns:inkscape="http://www.inkscape.org/namespaces/inkscape"
   width="100"
   height="100"
   viewBox="0 0 26.458333 26.458334"
   version="1.1"
   id="svg8"
   inkscape:version="0.92.4 (5da689c313, 2019-01-14)"
   sodipodi:docname="haem.svg">
  <defs
     id="defs2" />
  <sodipodi:namedview
     id="base"
     pagecolor="#ffffff"
     bordercolor="#666666"
     borderopacity="1.0"
     inkscape:pageopacity="0.0"
     inkscape:pageshadow="2"
     inkscape:zoom="1.979899"
     inkscape:cx="17.935997"
     inkscape:cy="66.04121"
     inkscape:document-units="mm"
     inkscape:current-layer="layer1"
     showgrid="false"
     units="px"
     inkscape:window-width="1600"
     inkscape:window-height="836"
     inkscape:window-x="0"
     inkscape:window-y="27"
     inkscape:window-maximized="1" />
  <metadata
     id="metadata5">
    <rdf:RDF>
      <cc:Work
         rdf:about="">
        <dc:format>image/svg+xml</dc:format>
        <dc:type
           rdf:resource="http://purl.org/dc/dcmitype/StillImage" />
        <dc:title />
      </cc:Work>
    </rdf:RDF>
  </metadata>
  <g
     inkscape:label="Calque 1"
     inkscape:groupmode="layer"
     id="layer1"
     transform="translate(0,-270.54165)">
    <circle
       style="fill:#b3b3b3;fill-opacity:0.94117647;stroke-width:0.26458332"
       id="path815"
       cx="13.229167"
       cy="283.77081"
       r="13.229842" />
    <path
       inkscape:connector-curvature="0"
       id="path2"
       d="m 11.273618,292.23293 v -0.75731 h 3.248156 3.248157 v -2.01034 -2.01034 l -1.292429,-1.35764 -1.292431,-1.35764 -0.04172,0.0518 c -0.176271,0.21881 -0.403424,0.39533 -0.616089,0.47877 l -0.0824,0.0323 v 0.86194 0.86194 h -0.567985 -0.567983 v -0.88511 -0.88512 l -0.05621,-0.0271 c -0.161386,-0.0779 -0.376389,-0.25422 -0.501277,-0.41117 -0.141867,-0.17829 -0.246821,-0.40238 -0.295719,-0.63139 -0.0375,-0.17563 -0.0375,-0.43969 0,-0.61532 0.126367,-0.59186 0.581023,-1.04627 1.173478,-1.17284 0.249005,-0.0532 0.585355,-0.0303 0.812993,0.0554 l 0.07871,0.0296 0.69271,-0.69264 0.692713,-0.69263 0.399325,0.39932 0.399325,0.39933 -0.68038,0.68046 -0.680383,0.68045 1.780421,1.86959 1.780421,1.86958 4.36e-4,2.9967 4.37e-4,2.99671 h -3.816143 -3.816139 z m 0.698147,-2.87542 v -0.75731 h 1.905111 1.905111 v 0.75731 0.75732 h -1.905111 -1.905111 z"
       style="fill:#0a425a;fill-opacity:1;stroke-width:0.01183299"
       sodipodi:nodetypes="cccccccccccccccccccccccccccccccccccccccccccccc" />
    <path
       id="path53"
       d="m 10.252884,281.4245 c -0.5535751,-0.17011 -1.1289209,-0.76526 -1.4045034,-1.45285 -0.293074,-0.73124 -0.3740896,-1.30356 -0.3696053,-2.61101 0.00377,-1.09836 0.018185,-1.25411 0.168235,-1.81737 0.2027166,-0.76096 0.6293952,-1.64063 0.9906946,-2.04248 1.5914911,-1.77012 3.6289101,0.14514 3.7787991,3.55223 0.07493,1.70313 -0.25951,3.07911 -0.923461,3.79941 -0.409722,0.4445 -0.765926,0.59422 -1.461753,0.61443 -0.32189,0.009 -0.672172,-0.01 -0.778406,-0.0424 z m 1.535521,-0.17063 c 1.026283,-0.45397 1.52235,-1.68734 1.528713,-3.80082 0.0044,-1.47968 -0.285991,-2.61918 -0.904903,-3.55015 -0.441,-0.66336 -0.920243,-0.97787 -1.490062,-0.97787 -1.4489258,0 -2.6011673,2.52428 -2.3645294,5.18009 0.1703012,1.91132 0.7409115,2.94294 1.7929584,3.24155 0.375392,0.10655 1.091681,0.0603 1.437823,-0.0928 z m -1.435176,-0.005 c -0.7598616,-0.24839 -1.3038921,-1.01257 -1.5394764,-2.16244 -0.5589052,-2.72798 0.343686,-5.65856 1.8604094,-6.04048 1.176589,-0.29627 2.311452,1.36455 2.51441,3.67972 0.146759,1.67409 -0.216779,3.34898 -0.873857,4.02606 -0.370786,0.38207 -0.678017,0.50886 -1.283425,0.52964 -0.288007,0.01 -0.593134,-0.005 -0.678061,-0.0325 z m 1.248923,-0.10458 c 0.879004,-0.29951 1.390943,-1.32233 1.520852,-3.03856 0.145355,-1.92033 -0.336105,-3.74066 -1.20971,-4.57373 -0.331676,-0.31628 -0.61497,-0.44584 -0.974413,-0.4456 -1.3001148,9.3e-4 -2.3591087,2.2571 -2.2174848,4.72452 0.1068975,1.8624 0.6351957,3.01281 1.5289938,3.32952 0.343534,0.12173 1.000315,0.1236 1.351762,0.004 z m -1.064669,-0.26447 c -0.134716,-0.0722 -0.269379,-0.22135 -0.361593,-0.40043 -0.121542,-0.23605 -0.1766186,-0.28536 -0.3187031,-0.28536 -0.1983804,0 -0.5141746,-0.24322 -0.6454768,-0.49713 -0.1032574,-0.19967 -0.1161936,-0.47377 -0.032722,-0.69331 0.047158,-0.12404 0.030448,-0.17656 -0.093101,-0.29263 -0.2870141,-0.26964 -0.3256828,-0.76425 -0.086093,-1.10123 0.1022451,-0.14381 0.1019924,-0.15825 -0.00539,-0.30803 -0.194359,-0.2711 -0.2060981,-0.55192 -0.036964,-0.88423 0.127312,-0.25014 0.1408346,-0.32757 0.087541,-0.50121 -0.09443,-0.30768 -0.00957,-0.62208 0.2335102,-0.86516 0.1633374,-0.16334 0.2126579,-0.26385 0.2126579,-0.43339 0,-0.4361 0.3734271,-0.83067 0.7861528,-0.83067 0.108502,0 0.201113,-0.0385 0.221681,-0.0921 0.112013,-0.2919 0.785856,-0.43423 1.154147,-0.24378 0.198722,0.10276 0.424852,0.42159 0.425227,0.59954 1.29e-4,0.0603 0.09691,0.19459 0.215088,0.29835 0.26924,0.23639 0.383588,0.57843 0.286496,0.85695 -0.06298,0.18067 -0.05297,0.21681 0.112143,0.40487 0.186938,0.2129 0.249023,0.42925 0.245633,0.85597 -0.0012,0.13554 0.0156,0.38943 0.03706,0.56422 0.02879,0.23451 0.01187,0.37499 -0.06455,0.53605 -0.09497,0.20014 -0.09543,0.22987 -0.0056,0.35818 0.15991,0.2283 0.130016,0.74266 -0.05601,0.96374 -0.112464,0.13366 -0.154124,0.25543 -0.154419,0.45137 -6.99e-4,0.4156 -0.368277,0.85212 -0.718566,0.85318 -0.09688,2.3e-4 -0.14438,0.0489 -0.172409,0.17657 -0.03991,0.18169 -0.270006,0.43428 -0.506098,0.55558 -0.200444,0.10298 -0.517674,0.0838 -0.759681,-0.046 z m 0.788888,-0.0639 c 0.236086,-0.12121 0.480193,-0.45222 0.413305,-0.56044 -0.02091,-0.0338 -0.09902,-0.0615 -0.173603,-0.0615 -0.07458,0 -0.20724,-0.0664 -0.294792,-0.14761 -0.192381,-0.17838 -0.426355,-0.17371 -0.732836,0.0147 -0.118591,0.0729 -0.250273,0.13261 -0.292627,0.13274 -0.208709,7e-4 0.04427,0.45655 0.339948,0.61266 0.291829,0.15409 0.454893,0.15617 0.740605,0.009 z m -0.924846,-0.77943 c 0.176015,-0.12329 0.172547,-0.17612 -0.01724,-0.26259 -0.326442,-0.14873 -0.5173082,-0.78629 -0.336522,-1.12409 0.05596,-0.10457 0.04276,-0.11914 -0.1078097,-0.11893 -0.3625879,4.6e-4 -0.7568367,0.41755 -0.7568367,0.80064 0,0.22551 0.194412,0.56208 0.3955061,0.6847 0.2306714,0.14067 0.6367313,0.15067 0.8228993,0.0203 z m 1.850183,-0.0289 c 0.218281,-0.13308 0.381472,-0.44153 0.3811,-0.72031 -4.66e-4,-0.37786 -0.395508,-0.75664 -0.789026,-0.75664 -0.177443,0 -0.178665,0.002 -0.116991,0.2335 0.09676,0.36253 0.01371,0.64773 -0.260814,0.89575 -0.219434,0.19825 -0.230895,0.22384 -0.136869,0.30559 0.231058,0.20089 0.632149,0.21919 0.9226,0.0421 z m -0.847515,-0.40199 c 0.191835,-0.18379 0.319986,-0.52031 0.264484,-0.69453 -0.01809,-0.0568 -0.06039,-0.1771 -0.09403,-0.26741 l -0.06115,-0.1642 -0.212859,0.12559 c -0.2561,0.1511 -0.755851,0.12939 -0.944148,-0.041 -0.115067,-0.10414 -0.122334,-0.10002 -0.214996,0.12175 -0.123541,0.29567 -0.120944,0.44707 0.01191,0.69406 0.256154,0.47622 0.873121,0.58758 1.250784,0.22575 z m 1.408637,-0.78961 c 0.224926,-0.36394 0.133332,-0.88602 -0.19295,-1.0998 -0.366127,-0.2399 -0.849322,-0.17934 -0.849322,0.10643 0,0.0866 -0.04158,0.25705 -0.09241,0.37869 -0.05082,0.12164 -0.09224,0.22471 -0.09203,0.22904 2.09e-4,0.004 0.124463,0.0113 0.276123,0.0155 0.318649,0.009 0.55477,0.143 0.69969,0.39774 0.05605,0.0985 0.10658,0.17932 0.112287,0.17953 0.0057,1.9e-4 0.06808,-0.093 0.138614,-0.2071 z M 9.4511188,278.6259 c 0.1089949,-0.0831 0.3114596,-0.16927 0.4499215,-0.19141 l 0.2517487,-0.0402 -0.0902,-0.18082 c -0.0576,-0.11546 -0.082538,-0.30791 -0.068996,-0.53246 l 0.021207,-0.35164 -0.2075235,-0.0199 c -0.4725494,-0.0452 -0.8705754,0.30775 -0.8705754,0.77198 0,0.24587 0.1851413,0.69561 0.2863606,0.69561 0.016439,0 0.1190663,-0.068 0.2280611,-0.15116 z m 1.8630542,-0.12411 c 0.38678,-0.25343 0.474551,-0.79066 0.190107,-1.16359 -0.290157,-0.38041 -0.779215,-0.43518 -1.144138,-0.12812 -0.348298,0.29308 -0.397128,0.751 -0.11793,1.10594 0.259619,0.33005 0.727904,0.41121 1.071961,0.18577 z m 1.625949,-1.3487 c -4.66e-4,-0.14026 -0.02678,-0.29586 -0.05836,-0.3458 -0.04894,-0.0774 -0.07836,-0.0717 -0.199274,0.0385 -0.328942,0.29982 -0.738422,0.35445 -1.082833,0.14446 -0.110939,-0.0676 -0.214898,-0.12298 -0.231021,-0.12298 -0.08109,0 -0.0095,0.16032 0.155502,0.34825 0.101651,0.11577 0.184817,0.23525 0.184817,0.2655 0,0.0303 0.147702,0.0398 0.328228,0.0211 0.234943,-0.0242 0.379385,-0.006 0.508246,0.0634 0.169668,0.0917 0.186221,0.0899 0.28783,-0.0301 0.0653,-0.0771 0.107437,-0.22791 0.106867,-0.38235 z m -3.2378041,0.0738 c 0.2798344,-0.006 0.2869695,-0.0105 0.2514935,-0.17202 -0.020082,-0.0914 -0.00962,-0.23697 0.023254,-0.32343 0.057755,-0.15191 0.050455,-0.15825 -0.2169114,-0.18839 -0.1734357,-0.0195 -0.3342538,-0.0853 -0.4309746,-0.17613 l -0.1542962,-0.14496 -0.1177234,0.15322 c -0.1447347,0.18838 -0.1576009,0.61117 -0.026324,0.86503 0.089765,0.17359 0.1008603,0.17764 0.2388075,0.0873 0.079568,-0.0521 0.2742711,-0.0974 0.4326743,-0.10058 z m 1.1790031,-0.26725 c 0.36275,0 0.396391,-0.0111 0.396391,-0.13055 0,-0.10154 -0.04805,-0.13835 -0.216205,-0.16564 -0.118913,-0.0193 -0.29624,-0.0921 -0.39406,-0.16173 -0.161197,-0.11478 -0.193746,-0.1184 -0.347512,-0.0386 -0.09331,0.0484 -0.192785,0.12449 -0.221053,0.16907 -0.06096,0.0961 -0.06936,0.42951 -0.01443,0.57267 0.03322,0.0866 0.06508,0.0761 0.219665,-0.072 0.159923,-0.15322 0.226598,-0.17323 0.577201,-0.17323 z m 1.466124,0.007 c 0.252937,-0.10568 0.455147,-0.35631 0.505946,-0.62709 0.07098,-0.37833 -0.250669,-0.82552 -0.664426,-0.92376 -0.163386,-0.0388 -0.165638,-0.0354 -0.108667,0.16323 0.1108,0.38634 -0.115111,0.81685 -0.544739,1.0381 -0.121512,0.0626 -0.130623,0.0879 -0.06163,0.17098 0.09466,0.11406 0.40282,0.25761 0.560432,0.26108 0.06038,0.001 0.201272,-0.0358 0.313084,-0.0825 z m -0.761704,-0.47237 c 0.218944,-0.11237 0.38492,-0.36811 0.415608,-0.64038 0.06732,-0.59728 -0.482089,-1.03039 -1.052889,-0.83002 -0.199678,0.0701 -0.25128,0.11667 -0.23454,0.21171 0.08027,0.45573 0.07485,0.64945 -0.02398,0.85772 -0.102089,0.21514 -0.101699,0.22778 0.0097,0.31329 0.248126,0.19051 0.615036,0.22681 0.886125,0.0877 z m -1.287428,-0.13656 c 0.277399,-0.18476 0.450089,-0.53892 0.398048,-0.81633 -0.159017,-0.84763 -1.3557134,-0.90534 -1.5789931,-0.0761 -0.1883049,0.69931 0.5890014,1.28674 1.1809451,0.89247 z m 2.199356,-1.2945 c 0.02324,-0.35454 -0.108699,-0.62442 -0.371706,-0.76043 -0.253582,-0.13113 -0.616291,-0.13011 -0.818381,0.002 -0.147778,0.0968 -0.398749,0.43883 -0.399273,0.5441 -1.3e-4,0.0254 0.125898,0.0462 0.280054,0.0462 0.307602,0 0.590729,0.11902 0.719098,0.30229 0.07363,0.10513 0.341148,0.18938 0.509955,0.16062 0.03388,-0.006 0.07,-0.13857 0.08025,-0.2951 z m -1.810745,-0.0357 c 0.0179,-0.029 -0.03511,-0.11621 -0.117788,-0.19388 -0.19496,-0.18316 -0.299597,-0.50759 -0.249623,-0.77398 0.04503,-0.24003 0.0093,-0.25439 -0.305346,-0.1229 -0.2479251,0.10358 -0.4608385,0.41813 -0.461221,0.68136 -2.585e-4,0.18226 0.00378,0.18454 0.2923964,0.16479 0.2334896,-0.016 0.3362626,0.011 0.5082856,0.13333 0.241655,0.1719 0.286565,0.18689 0.333296,0.11128 z m 0.390181,-0.63899 c 0.188665,-0.19893 0.508876,-0.31704 0.759703,-0.28023 0.21239,0.0312 0.224817,-0.0323 0.05946,-0.30346 -0.237194,-0.38901 -0.741132,-0.50072 -1.11679,-0.24756 -0.283716,0.19119 -0.374365,0.38581 -0.344808,0.74029 0.01842,0.2209 0.06944,0.34227 0.202056,0.48069 l 0.177416,0.18519 0.05182,-0.20347 c 0.0285,-0.1119 0.123517,-0.27906 0.211146,-0.37145 z"
       style="fill:#31e000;fill-opacity:1;stroke:#399700;stroke-width:0.06160565;stroke-opacity:1"
       inkscape:connector-curvature="0" />
    <path
       id="path53-3"
       d="m 5.8131104,290.8774 c -0.5592211,-0.17184 -1.1404345,-0.77306 -1.4188276,-1.46766 -0.2960629,-0.7387 -0.3779047,-1.31686 -0.3733747,-2.63764 0.00381,-1.10956 0.01837,-1.2669 0.1699507,-1.83591 0.204784,-0.76872 0.6358142,-1.65736 1.0007982,-2.06331 1.607722,-1.78817 3.6659192,0.14662 3.8173372,3.58846 0.07569,1.7205 -0.262157,3.11051 -0.9328792,3.83816 -0.4139006,0.44903 -0.7737371,0.60028 -1.4766607,0.62069 -0.3251724,0.009 -0.6790271,-0.01 -0.7863439,-0.0428 z m 1.551181,-0.17237 c 1.0367498,-0.4586 1.5378748,-1.70454 1.5443028,-3.83958 0.0045,-1.49477 -0.288907,-2.64589 -0.9141317,-3.58636 -0.445497,-0.67012 -0.9296279,-0.98784 -1.5052579,-0.98784 -1.4637027,0 -2.6276953,2.55002 -2.3886441,5.23292 0.1720381,1.93081 0.7484677,2.97295 1.8112437,3.27461 0.3792202,0.10763 1.1028141,0.0609 1.4524872,-0.0937 z m -1.4498133,-0.005 c -0.7676107,-0.25093 -1.3171896,-1.0229 -1.5551765,-2.1845 -0.5646051,-2.7558 0.3471911,-5.71627 1.8793829,-6.10208 1.1885878,-0.29929 2.3350257,1.37847 2.5400527,3.71725 0.148256,1.69116 -0.21899,3.38313 -0.8827686,4.06711 -0.374568,0.38597 -0.6849315,0.51405 -1.2965143,0.53505 -0.2909437,0.01 -0.599183,-0.005 -0.6849762,-0.0328 z m 1.26166,-0.10565 c 0.8879692,-0.30256 1.4051291,-1.33581 1.5363631,-3.06955 0.146837,-1.93991 -0.339533,-3.77881 -1.2220476,-4.62037 -0.3350589,-0.31951 -0.6212419,-0.45039 -0.9843502,-0.45015 -1.3133742,9.4e-4 -2.3831683,2.28012 -2.2401,4.7727 0.1079876,1.88139 0.6416737,3.04354 1.5445875,3.36348 0.3470368,0.12297 1.0105163,0.12486 1.3655472,0.004 z m -1.0755264,-0.26716 c -0.13609,-0.073 -0.2721267,-0.22361 -0.3652808,-0.40453 -0.1227819,-0.23845 -0.1784199,-0.28826 -0.3219535,-0.28826 -0.2004035,0 -0.5194184,-0.2457 -0.6520597,-0.5022 -0.1043105,-0.20171 -0.1173785,-0.4786 -0.033056,-0.70039 0.047639,-0.1253 0.030759,-0.17835 -0.09405,-0.29561 -0.2899412,-0.27238 -0.3290043,-0.77205 -0.086971,-1.11246 0.1032878,-0.14527 0.1030326,-0.15986 -0.00545,-0.31117 -0.1963364,-0.27345 -0.2081953,-0.55713 -0.037337,-0.89283 0.1286103,-0.25269 0.1422709,-0.3309 0.088434,-0.50632 -0.095393,-0.31082 -0.00967,-0.62842 0.2358916,-0.87398 0.1650032,-0.165 0.2148267,-0.26654 0.2148267,-0.43781 0,-0.44055 0.3772355,-0.83914 0.7941701,-0.83914 0.1096083,0 0.2031646,-0.0389 0.2239416,-0.093 0.1131563,-0.29488 0.7938711,-0.43866 1.1659179,-0.24627 0.2007486,0.10381 0.4291846,0.4259 0.4295635,0.60566 1.306e-4,0.0609 0.097903,0.19657 0.2172819,0.30138 0.2719861,0.23881 0.3875001,0.58434 0.2894179,0.8657 -0.063623,0.18251 -0.053511,0.21902 0.1132865,0.40899 0.1888453,0.21508 0.2515623,0.43364 0.2481383,0.86471 -0.0012,0.13692 0.01576,0.3934 0.03744,0.56997 0.02909,0.23691 0.012,0.37881 -0.06521,0.54152 -0.09594,0.20218 -0.09641,0.23221 -0.0056,0.36183 0.161541,0.23063 0.131342,0.75024 -0.05658,0.97357 -0.1136112,0.13502 -0.1556958,0.25803 -0.1559945,0.45597 -7.057e-4,0.41984 -0.3720324,0.86081 -0.7258944,0.86189 -0.097863,2.3e-4 -0.1458518,0.0494 -0.1741673,0.17836 -0.040313,0.18354 -0.2727596,0.43872 -0.5112591,0.56125 -0.2024888,0.10403 -0.5229534,0.0847 -0.7674283,-0.0464 z m 0.7969328,-0.0645 c 0.2384941,-0.12245 0.4850911,-0.45683 0.4175209,-0.56616 -0.021122,-0.0342 -0.1000296,-0.0621 -0.1753739,-0.0621 -0.075344,0 -0.2093533,-0.0671 -0.2977988,-0.14912 -0.1943428,-0.1802 -0.4307023,-0.17548 -0.7403098,0.0148 -0.1198004,0.0736 -0.2528255,0.13396 -0.2956113,0.13409 -0.2108375,7.1e-4 0.044721,0.46121 0.3434154,0.61892 0.294805,0.15565 0.4595324,0.15776 0.7481575,0.01 z m -0.9342772,-0.78738 c 0.17781,-0.12454 0.1743067,-0.17791 -0.017413,-0.26526 -0.3297714,-0.15026 -0.5225843,-0.79432 -0.339954,-1.13556 0.056535,-0.10564 0.043198,-0.12035 -0.1089095,-0.12015 -0.3662858,4.7e-4 -0.7645554,0.42182 -0.7645554,0.80881 0,0.22781 0.1963948,0.56781 0.3995397,0.69169 0.2330239,0.1421 0.6432251,0.1522 0.8312916,0.0205 z m 1.8690522,-0.0292 c 0.2205069,-0.13444 0.385362,-0.44603 0.3849856,-0.72766 -4.704e-4,-0.38171 -0.3995407,-0.76436 -0.7970725,-0.76436 -0.1792528,0 -0.1804875,0.002 -0.118184,0.23589 0.097751,0.36622 0.013854,0.65433 -0.2634736,0.90489 -0.2216722,0.20027 -0.2332502,0.22611 -0.1382653,0.3087 0.2334147,0.20294 0.6385959,0.22143 0.9320098,0.0425 z m -0.8561586,-0.40609 c 0.1937913,-0.18566 0.3232488,-0.52561 0.2671807,-0.70161 -0.018276,-0.0574 -0.06101,-0.17891 -0.094985,-0.27014 l -0.06177,-0.16588 -0.2150296,0.12687 c -0.2587121,0.15264 -0.7635599,0.13071 -0.9537767,-0.0414 -0.1162407,-0.1052 -0.1235815,-0.10104 -0.2171883,0.12299 -0.1248015,0.2987 -0.1221779,0.45164 0.012029,0.70114 0.2587655,0.48108 0.8820249,0.59357 1.2635395,0.22806 z m 1.4230033,-0.79766 c 0.22722,-0.36765 0.134691,-0.89506 -0.1949182,-1.11103 -0.3698613,-0.24234 -0.8579838,-0.18116 -0.8579838,0.10753 0,0.0875 -0.04201,0.25966 -0.093352,0.38254 -0.051343,0.12288 -0.09318,0.227 -0.092971,0.23138 2.117e-4,0.004 0.125732,0.0114 0.2789393,0.0156 0.3218984,0.009 0.5604275,0.14445 0.7068252,0.4018 0.056623,0.0995 0.1076673,0.18114 0.1134324,0.18136 0.00576,1.8e-4 0.068779,-0.0939 0.1400281,-0.20921 z M 5.003168,288.05077 c 0.1101065,-0.084 0.314636,-0.171 0.4545101,-0.19336 l 0.2543162,-0.0407 -0.091123,-0.18266 c -0.058188,-0.11664 -0.08338,-0.31105 -0.0697,-0.53789 l 0.021423,-0.35519 -0.20964,-0.0201 c -0.4773687,-0.0457 -0.879454,0.31089 -0.879454,0.77985 0,0.24838 0.1870295,0.7027 0.289281,0.7027 0.016606,0 0.1202807,-0.0687 0.2303868,-0.15269 z m 1.8820548,-0.12538 c 0.390724,-0.25601 0.4793909,-0.79872 0.1920453,-1.17545 -0.293116,-0.3843 -0.7871619,-0.43962 -1.1558058,-0.12943 -0.3518506,0.29606 -0.4011785,0.75865 -0.1191335,1.11721 0.2622672,0.33342 0.7353278,0.4154 1.082894,0.18767 z m 1.6425304,-1.36246 c -4.7e-4,-0.14168 -0.02705,-0.29887 -0.05896,-0.34932 -0.04944,-0.0782 -0.07916,-0.0724 -0.2013066,0.0389 -0.3322975,0.30288 -0.7459535,0.35807 -1.0938761,0.14594 -0.1120708,-0.0683 -0.2170905,-0.12424 -0.233378,-0.12424 -0.081913,0 -0.0096,0.16195 0.1570883,0.3518 0.1026876,0.11695 0.1867019,0.23765 0.1867019,0.26821 0,0.0306 0.1492083,0.0402 0.3315752,0.0214 0.2373389,-0.0245 0.3832544,-0.006 0.5134294,0.064 0.1713988,0.0926 0.1881202,0.0908 0.2907659,-0.0304 0.06596,-0.0779 0.108533,-0.23023 0.107956,-0.38624 z m -3.2708242,0.0746 c 0.2826883,-0.006 0.2898962,-0.0106 0.2540584,-0.17377 -0.020287,-0.0924 -0.00971,-0.2394 0.023491,-0.32674 0.058344,-0.15345 0.05097,-0.15986 -0.2191236,-0.1903 -0.1752045,-0.0198 -0.3376627,-0.0861 -0.4353698,-0.17794 l -0.1558698,-0.14643 -0.118924,0.15478 c -0.1462108,0.1903 -0.1592083,0.61741 -0.026593,0.87386 0.09068,0.17535 0.1018889,0.17945 0.2412429,0.0881 0.080379,-0.0527 0.2770683,-0.0984 0.4370869,-0.1016 z m 1.1910269,-0.26998 c 0.3664501,0 0.4004339,-0.0112 0.4004339,-0.13188 0,-0.10257 -0.048545,-0.13976 -0.2184097,-0.16733 -0.1201257,-0.0195 -0.2992615,-0.093 -0.3980795,-0.16337 -0.1628411,-0.11596 -0.1957214,-0.11961 -0.3510559,-0.039 -0.094263,0.0489 -0.1947511,0.12576 -0.2233071,0.17079 -0.061584,0.0971 -0.070068,0.43389 -0.014574,0.57851 0.03356,0.0874 0.06574,0.0769 0.2219052,-0.0727 0.1615536,-0.15478 0.228909,-0.175 0.583087,-0.175 z m 1.4810769,0.008 c 0.2555163,-0.10676 0.4597884,-0.35994 0.5111054,-0.63348 0.0717,-0.38219 -0.2532252,-0.83395 -0.6712021,-0.93319 -0.1650527,-0.0392 -0.1673272,-0.0358 -0.1097748,0.1649 0.1119294,0.39028 -0.1162855,0.82518 -0.5502947,1.04868 -0.1227516,0.0632 -0.1319556,0.0888 -0.062259,0.17273 0.095627,0.11522 0.4069288,0.26024 0.5661482,0.26374 0.060999,10e-4 0.2033244,-0.0362 0.316277,-0.0834 z m -0.7694724,-0.47719 c 0.221177,-0.11351 0.3888455,-0.37186 0.4198466,-0.64691 0.068008,-0.60337 -0.4870054,-1.0409 -1.0636268,-0.83848 -0.2017153,0.0708 -0.2538427,0.11786 -0.2369323,0.21387 0.081087,0.46037 0.075616,0.65607 -0.024223,0.86647 -0.10313,0.21733 -0.1027358,0.23009 0.00977,0.31648 0.2506566,0.19245 0.621308,0.22912 0.895162,0.0886 z m -1.3005582,-0.13839 c 0.2802282,-0.18665 0.4546796,-0.54442 0.4021074,-0.82465 -0.1606386,-0.85628 -1.3695395,-0.91458 -1.5950962,-0.0769 -0.1902254,0.70644 0.5950083,1.29986 1.1929888,0.90157 z m 2.2217865,-1.30771 c 0.023474,-0.35814 -0.1098077,-0.63078 -0.375497,-0.76818 -0.2561679,-0.13247 -0.6225763,-0.13144 -0.8267276,0.002 -0.1492845,0.0978 -0.4028149,0.44331 -0.4033449,0.54966 -1.308e-4,0.0257 0.1271817,0.0467 0.2829104,0.0467 0.3107389,0 0.5967532,0.12024 0.7264319,0.30538 0.074384,0.1062 0.3446273,0.19131 0.5151557,0.16225 0.034228,-0.006 0.07071,-0.13998 0.081072,-0.2981 z m -1.8292121,-0.036 c 0.018079,-0.0293 -0.035466,-0.11739 -0.1189889,-0.19585 -0.1969485,-0.18503 -0.3026531,-0.51277 -0.2521687,-0.78188 0.045489,-0.24247 0.00944,-0.25698 -0.3084608,-0.12415 -0.2504533,0.10464 -0.465538,0.42239 -0.4659245,0.68831 -2.611e-4,0.18412 0.00382,0.18642 0.2953784,0.16647 0.2358711,-0.0161 0.3396917,0.0111 0.5134689,0.13469 0.2441199,0.17365 0.2894882,0.18879 0.3366956,0.11241 z m 0.3941598,-0.64551 c 0.190589,-0.20095 0.5140662,-0.32027 0.7674515,-0.28308 0.2145557,0.0315 0.2271094,-0.0326 0.060062,-0.30655 -0.2396132,-0.39298 -0.7486903,-0.50583 -1.1281798,-0.25009 -0.2866086,0.19314 -0.378182,0.38975 -0.3483238,0.74784 0.018605,0.22315 0.070144,0.34576 0.2041159,0.4856 l 0.1792254,0.18707 0.052349,-0.20554 c 0.028792,-0.11305 0.1247771,-0.28191 0.2132998,-0.37525 z"
       style="fill:#0a425a;fill-opacity:1;stroke-width:0.06223394"
       inkscape:connector-curvature="0" />
  </g>
</svg>
