<?xml version="1.0" encoding="UTF-8" standalone="no"?>
<svg
   xmlns:dc="http://purl.org/dc/elements/1.1/"
   xmlns:cc="http://creativecommons.org/ns#"
   xmlns:rdf="http://www.w3.org/1999/02/22-rdf-syntax-ns#"
   xmlns:svg="http://www.w3.org/2000/svg"
   xmlns="http://www.w3.org/2000/svg"
   xmlns:sodipodi="http://sodipodi.sourceforge.net/DTD/sodipodi-0.dtd"
   xmlns:inkscape="http://www.inkscape.org/namespaces/inkscape"
   height="100px"
   width="100px"
   fill="#000000"
   version="1.1"
   x="0px"
   y="0px"
   viewBox="0 0 512 512"
   enable-background="new 0 0 512 512"
   xml:space="preserve"
   id="svg26"
   sodipodi:docname="horaires.svg"
   inkscape:version="0.92.4 (5da689c313, 2019-01-14)"><metadata
     id="metadata32"><rdf:RDF><cc:Work
         rdf:about=""><dc:format>image/svg+xml</dc:format><dc:type
           rdf:resource="http://purl.org/dc/dcmitype/StillImage" /><dc:title></dc:title></cc:Work></rdf:RDF></metadata><defs
     id="defs30" /><sodipodi:namedview
     pagecolor="#ffffff"
     bordercolor="#666666"
     borderopacity="1"
     objecttolerance="10"
     gridtolerance="10"
     guidetolerance="10"
     inkscape:pageopacity="0"
     inkscape:pageshadow="2"
     inkscape:window-width="1920"
     inkscape:window-height="1016"
     id="namedview28"
     showgrid="false"
     inkscape:zoom="2.36"
     inkscape:cx="50"
     inkscape:cy="50"
     inkscape:window-x="0"
     inkscape:window-y="27"
     inkscape:window-maximized="1"
     inkscape:current-layer="svg26" /><circle
     style="fill:#cccccc;fill-opacity:0.94117647;stroke-width:5.11999941;image-rendering:optimizeQuality;shape-rendering:geometricPrecision;text-rendering:geometricPrecision"
     id="path815"
     cx="256"
     cy="256"
     r="256.01306" /><g
     id="g24"
     style="fill:#1a5772;fill-opacity:1"
     transform="matrix(0.75230215,0,0,0.75230215,73.65065,63.41065)"><path
       d="m 124.9,239.6 h 73.7 v -73.7 h -73.7 z m 16.4,-57.3 h 41 v 41 h -41 z"
       id="path2"
       style="fill:#1a5772;fill-opacity:1"
       inkscape:connector-curvature="0" /><path
       d="m 215,239.6 h 73.7 V 165.9 H 215 Z m 16.4,-57.3 h 41 v 41 h -41 z"
       id="path4"
       style="fill:#1a5772;fill-opacity:1"
       inkscape:connector-curvature="0" /><path
       d="m 378.9,165.9 h -73.7 v 73.7 h 73.7 z m -16.4,57.3 h -41 v -41 h 41 z"
       id="path6"
       style="fill:#1a5772;fill-opacity:1"
       inkscape:connector-curvature="0" /><path
       d="m 34.8,329.7 h 73.7 V 256 H 34.8 Z m 16.4,-57.3 h 41 v 41 h -41 z"
       id="path8"
       style="fill:#1a5772;fill-opacity:1"
       inkscape:connector-curvature="0" /><path
       d="m 124.9,329.7 h 73.7 V 256 h -73.7 z m 16.4,-57.3 h 41 v 41 h -41 z"
       id="path10"
       style="fill:#1a5772;fill-opacity:1"
       inkscape:connector-curvature="0" /><path
       d="m 215,329.7 h 73.7 V 256 H 215 Z m 16.4,-57.3 h 41 v 41 h -41 z"
       id="path12"
       style="fill:#1a5772;fill-opacity:1"
       inkscape:connector-curvature="0" /><rect
       x="165.89999"
       y="83.900002"
       width="16.4"
       height="16.4"
       id="rect14"
       style="fill:#1a5772;fill-opacity:1" /><rect
       x="198.60001"
       y="83.900002"
       width="16.4"
       height="16.4"
       id="rect16"
       style="fill:#1a5772;fill-opacity:1" /><rect
       x="231.39999"
       y="83.900002"
       width="16.4"
       height="16.4"
       id="rect18"
       style="fill:#1a5772;fill-opacity:1" /><path
       d="M 411.7,281.9 V 43 H 346.2 V 30.7 C 346.2,14.9 333.3,2 317.5,2 301.7,2 288.8,14.9 288.8,30.7 V 43 H 124.9 V 30.7 C 124.9,14.9 112,2 96.2,2 80.4,2 67.5,14.9 67.5,30.7 V 43 H 2 v 327.7 h 281.3 c -1.7,7.9 -2.7,16.1 -2.7,24.6 0,63.3 51.5,114.7 114.7,114.7 C 458.5,510 510,458.5 510,395.3 510,337.6 467.2,289.9 411.7,281.9 Z M 305.2,30.7 c 0,-6.8 5.5,-12.3 12.3,-12.3 6.8,0 12.3,5.5 12.3,12.3 V 43 84 H 305.2 V 43 Z m -221.3,0 c 0,-6.8 5.5,-12.3 12.3,-12.3 6.8,0 12.3,5.5 12.3,12.3 V 43 84 H 83.9 V 43 Z M 67.5,59.4 v 41 0 h 57.4 v 0 -41 h 163.9 v 41 0 h 57.4 v 0 -41 h 49.2 V 125 H 18.4 V 59.4 Z M 18.4,354.3 v -213 h 376.9 v 139.3 c -48.8,0 -90.5,30.7 -107,73.7 z m 376.9,139.3 c -54.2,0 -98.3,-44.1 -98.3,-98.3 0,-54.2 44.1,-98.3 98.3,-98.3 54.2,0 98.3,44.1 98.3,98.3 0,54.2 -44.1,98.3 -98.3,98.3 z"
       id="path20"
       style="fill:#1a5772;fill-opacity:1"
       inkscape:connector-curvature="0" /><polygon
       points="387.1,411.7 444.5,411.7 444.5,395.3 403.5,395.3 403.5,329.7 387.1,329.7 "
       id="polygon22"
       style="fill:#1a5772;fill-opacity:1" /></g></svg>