<?xml version="1.0" encoding="UTF-8" standalone="no"?>
<svg
   xmlns:dc="http://purl.org/dc/elements/1.1/"
   xmlns:cc="http://creativecommons.org/ns#"
   xmlns:rdf="http://www.w3.org/1999/02/22-rdf-syntax-ns#"
   xmlns:svg="http://www.w3.org/2000/svg"
   xmlns="http://www.w3.org/2000/svg"
   xmlns:sodipodi="http://sodipodi.sourceforge.net/DTD/sodipodi-0.dtd"
   xmlns:inkscape="http://www.inkscape.org/namespaces/inkscape"
   inkscape:version="1.0 (4035a4fb49, 2020-05-01)"
   sodipodi:docname="icones.svg"
   id="svg10"
   xml:space="preserve"
   enable-background="new 0 0 100 100"
   viewBox="0 0 100 100"
   y="0px"
   x="0px"
   version="1.1"
   fill="#000000"
   width="100px"
   height="100px"><metadata
     id="metadata16"><rdf:RDF><cc:Work
         rdf:about=""><dc:format>image/svg+xml</dc:format><dc:type
           rdf:resource="http://purl.org/dc/dcmitype/StillImage" /></cc:Work></rdf:RDF></metadata><defs
     id="defs14" /><sodipodi:namedview
     inkscape:current-layer="svg10"
     inkscape:window-maximized="1"
     inkscape:window-y="-8"
     inkscape:window-x="-8"
     inkscape:cy="46.760784"
     inkscape:cx="41.646795"
     inkscape:zoom="8.5"
     showgrid="false"
     id="namedview12"
     inkscape:window-height="1017"
     inkscape:window-width="1920"
     inkscape:pageshadow="2"
     inkscape:pageopacity="0"
     guidetolerance="10"
     gridtolerance="10"
     objecttolerance="10"
     borderopacity="1"
     bordercolor="#666666"
     pagecolor="#ffffff" /><rect
     transform="rotate(9.8625818)"
     style="opacity:1;fill:#e6e6e6;fill-opacity:1;stroke:none;stroke-width:4.77;stroke-linecap:round;stroke-miterlimit:4;stroke-dasharray:none"
     id="rect945-5"
     width="49.701"
     height="49.701"
     x="40.498436"
     y="10.341467" /><g
     style="fill:#0a425a;fill-opacity:1"
     transform="matrix(0.2715407,0.06473996,-0.06473996,0.2715407,42.907311,21.506485)"
     id="g16"><path
       style="fill:#0a425a;fill-opacity:1"
       inkscape:connector-curvature="0"
       d="m 154.9,59.4 c -3.4,-11.4 -13.8,-19.5 -25.6,-20 5.8,-6.5 9.1,-14.8 9.1,-23.5 v -3.4 l -8.6,4.9 c -3,1.7 -6.2,3 -9.5,4 -3,0.9 -6.1,1.4 -9.3,1.7 -1.5,-1.4 -3.2,-2.6 -4.8,-3.8 -7.7,-5.3 -16.7,-8 -26,-8 -9.4,0 -18.4,2.8 -26,8 -1.6,1.1 -3.2,2.4 -4.8,3.8 -3.2,-0.3 -6.3,-0.8 -9.3,-1.7 -3.3,-1 -6.5,-2.3 -9.5,-4 L 22,12.6 V 16 c 0,8.7 3.2,17 9,23.5 C 25.4,39.7 20,41.7 15.5,45 10.6,48.6 7.1,53.7 5.4,59.5 L 5,60.9 17.5,69.8 C 24.7,74.9 34,77 43,75.3 l 8.9,33.4 c 0,0.1 -0.1,0.1 -0.1,0.2 -1.6,3.8 -2.4,7.9 -2.4,12.1 v 0.1 c 0,5.8 3.9,10.8 9.2,12.5 3.2,8.9 11.5,15.2 21.4,15.2 9.8,0 18.2,-6.4 21.4,-15.2 5.3,-1.8 9.2,-6.7 9.2,-12.5 V 121 c 0,-4.2 -0.8,-8.3 -2.4,-12.1 0,-0.1 0,-0.1 -0.1,-0.2 L 117,75.3 c 2.1,0.4 4.2,0.6 6.3,0.6 6.9,0 13.8,-2.1 19.5,-6.2 l 12.5,-8.9 z M 80,15.2 c 7.9,0 15.6,2.2 22.3,6.4 -3.9,6.6 -12.6,11 -22.3,11 -9.7,0 -18.4,-4.3 -22.3,-11 6.7,-4.2 14.4,-6.4 22.3,-6.4 z m 0,129.6 c -7.3,0 -13.6,-4.3 -16.7,-10.5 h 33.4 c -3.1,6.2 -9.4,10.5 -16.7,10.5 z M 106.6,121 c 0,5.1 -4.3,9.2 -9.5,9.2 H 62.9 c -5.2,0 -9.5,-4.1 -9.5,-9.2 v -0.1 c 0,-3.7 0.7,-7.2 2.1,-10.6 1.3,-3.2 3.3,-6.1 5.7,-8.6 2.5,-2.5 5.3,-4.4 8.5,-5.8 3.3,-1.4 6.7,-2.1 10.3,-2.1 3.6,0 7.1,0.7 10.3,2.1 3.2,1.4 6,3.3 8.4,5.8 2.4,2.5 4.4,5.4 5.7,8.6 1.4,3.4 2.1,6.9 2.1,10.6 v 0.1 z m 33.9,-54.6 c -6.5,4.6 -14.6,6.4 -22.5,5 l 0.8,-2.9 -3.9,-1 -9.6,36 c -1.1,-1.6 -2.3,-3.1 -3.7,-4.6 C 98.8,96 95.5,93.8 91.9,92.2 88.1,90.6 84.1,89.7 80,89.7 c -4.1,0 -8.1,0.8 -11.9,2.5 -3.6,1.6 -6.9,3.8 -9.7,6.7 -1.4,1.4 -2.6,2.9 -3.7,4.6 l -9.6,-36 -3.9,1 0.8,2.9 C 34.2,72.8 26.1,71 19.5,66.4 L 9.4,59.2 C 11,54.8 13.8,51 17.6,48.1 21.8,45 26.8,43.3 32,43.3 h 9.1 L 36.9,39.8 C 30.6,34.5 26.7,27.3 25.8,19.4 l 2.5,1.4 c 3.3,1.8 6.8,3.3 10.4,4.4 3.6,1 7.3,1.7 11.1,1.9 h 0.8 l 0.6,-0.6 c 1,-1 2.1,-1.8 3.2,-2.6 4.7,7.7 14.6,12.7 25.6,12.7 11,0 20.9,-5 25.6,-12.7 1.1,0.8 2.1,1.7 3.2,2.6 l 0.6,0.6 h 0.8 c 3.8,-0.2 7.5,-0.9 11.1,-1.9 3.6,-1.1 7.1,-2.5 10.4,-4.4 l 2.5,-1.4 c -0.9,7.8 -4.8,15.1 -11,20.4 l -4.2,3.5 h 9.1 c 10.1,0 19.2,6.4 22.6,15.8 z"
       id="path2-1" /><path
       style="fill:#0a425a;fill-opacity:1"
       inkscape:connector-curvature="0"
       d="m 121.4,54.8 -2.5,0.9 1.3,3.8 2.5,-0.9 c 5.6,-2 11.7,-2.2 17.5,-0.7 l 1.9,0.5 1,-3.9 -1.9,-0.5 c -6.6,-1.7 -13.4,-1.5 -19.8,0.8 z"
       id="path4-4" /><path
       style="fill:#0a425a;fill-opacity:1"
       inkscape:connector-curvature="0"
       d="m 18.3,53.9 -1.9,0.5 1,3.9 1.9,-0.5 c 5.8,-1.5 11.9,-1.2 17.5,0.7 l 2.5,0.9 1.3,-3.8 -2.5,-0.9 C 31.8,52.5 24.9,52.3 18.3,53.9 Z"
       id="path6" /><path
       style="fill:#0a425a;fill-opacity:1"
       inkscape:connector-curvature="0"
       d="m 68,104.1 c -3.8,0 -6.8,3.8 -6.8,8.6 0,4.8 3,8.6 6.8,8.6 3.8,0 6.8,-3.8 6.8,-8.6 0,-4.8 -3,-8.6 -6.8,-8.6 z m 0,13.2 c -1.3,0 -2.8,-1.9 -2.8,-4.6 0,-2.7 1.5,-4.6 2.8,-4.6 1.3,0 2.8,1.9 2.8,4.6 0,2.7 -1.5,4.6 -2.8,4.6 z"
       id="path8" /><path
       style="fill:#0a425a;fill-opacity:1"
       inkscape:connector-curvature="0"
       d="m 92,104.1 c -3.8,0 -6.8,3.8 -6.8,8.6 0,4.8 3,8.6 6.8,8.6 3.8,0 6.8,-3.8 6.8,-8.6 0,-4.8 -3.1,-8.6 -6.8,-8.6 z m 0,13.2 c -1.3,0 -2.8,-1.9 -2.8,-4.6 0,-2.7 1.5,-4.6 2.8,-4.6 1.3,0 2.8,1.9 2.8,4.6 0,2.7 -1.5,4.6 -2.8,4.6 z"
       id="path10" /><circle
       style="fill:#0a425a;fill-opacity:1"
       cx="54.5"
       cy="59"
       r="4.6999998"
       id="circle12" /><circle
       style="fill:#0a425a;fill-opacity:1"
       cx="105.5"
       cy="59"
       r="4.6999998"
       id="circle14" /></g><path
     style="fill:#0a425a;fill-opacity:1"
     id="path2"
     d="M7.771,9.357v69.89h58.803V9.357H7.771z M62.023,63.753H12.322V14.052h49.701V63.753z" /><polygon
     style="fill:#0a425a;fill-opacity:1"
     id="polygon8"
     points="68.263,17.658 68.263,22.42 86.952,25.613 78.582,74.605 68.263,72.842 68.263,80.935 23.627,80.935 80.459,90.644   92.229,21.752 " /><rect
     y="14.052"
     x="12.322"
     height="49.701"
     width="49.701"
     id="rect945"
     style="opacity:1;fill:#e6e6e6;fill-opacity:1;stroke:none;stroke-width:4.77;stroke-linecap:round;stroke-miterlimit:4;stroke-dasharray:none" /><g
     transform="matrix(0.0477496,0,0,0.0477496,14.890657,15.537213)"
     id="g82"
     style="fill:#0a425a;fill-opacity:1"><g
       id="g10"
       style="fill:#0a425a;fill-opacity:1"><g
         id="g8"
         style="fill:#0a425a;fill-opacity:1"><g
           id="g6"
           style="fill:#0a425a;fill-opacity:1"><path
             class="st0"
             d="M 479.1,338.5"
             id="path4"
             style="fill:#0a425a;fill-opacity:1" /></g></g></g><g
       id="g28"
       style="fill:#0a425a;fill-opacity:1"><g
         id="g26"
         style="fill:#0a425a;fill-opacity:1"><g
           id="g24"
           style="fill:#0a425a;fill-opacity:1"><g
             id="g14"
             style="fill:#0a425a;fill-opacity:1"><path
               d="m 832.3,450.2 v 55.1 c -10.9,-14.1 -28,-23.2 -47.1,-23.2 -15.9,0 -30.4,6.3 -41,16.5 V 486.3 C 728.5,472.8 696.5,448.8 647.1,426 613.7,410.6 568.6,394.3 511.6,382.8 v 49.7 c -1.3,-0.3 -2.7,-0.5 -4.1,-0.5 -1,0 -2,0.1 -3,0.2 l -126.8,20.5 c -3.4,0.5 -6.5,2 -8.9,4 v -89 c -0.2,0 -0.5,0 -0.7,0 -41.8,-0.8 -76.1,-33.4 -78.7,-75.2 l -0.5,-7.6 c -0.5,-3.5 -0.8,-7.2 -0.8,-10.8 0,-50.5 47.7,-91.5 106.5,-91.5 8.7,0 17,0.9 25.1,2.6 l 84,-97.3 59,53.6 -75.5,87.4 c 8.8,13.3 13.9,28.8 13.9,45.2 0,5.7 -0.6,11.3 -1.8,16.6 217.7,35.4 316.4,141.2 321.6,146.9 z"
               id="path12"
               style="fill:#0a425a;fill-opacity:1" /></g><g
             id="g18"
             style="fill:#0a425a;fill-opacity:1"><polygon
               points="515,74.9 574,128.5 569.3,133.9 510.3,80.3 "
               id="polygon16"
               style="fill:#0a425a;fill-opacity:1" /></g><g
             id="g22"
             style="fill:#0a425a;fill-opacity:1"><path
               d="m 587.5,112.9 -6.9,8 -59,-53.6 5.6,-6.5 c 4.9,-5.7 13.6,-6.3 19.3,-1.4 L 586,93.6 c 5.7,4.9 6.4,13.6 1.5,19.3 z"
               id="path20"
               style="fill:#0a425a;fill-opacity:1" /></g></g></g></g><g
       id="g36"
       style="fill:#0a425a;fill-opacity:1"><g
         id="g34"
         style="fill:#0a425a;fill-opacity:1"><g
           id="g32"
           style="fill:#0a425a;fill-opacity:1"><path
             d="m 619.7,796.6 -139.2,8.1 c -8.4,0.5 -15.3,-8.8 -15.4,-20.6 L 465,764.9 c -0.1,-11.8 6.8,-21.9 15.2,-22.4 l 139.2,-8.1 c 8.4,-0.5 15.3,8.8 15.4,20.7 l 0.1,19.2 c 0,11.7 -6.8,21.8 -15.2,22.3 z"
             id="path30"
             style="fill:#0a425a;fill-opacity:1" /></g></g></g><g
       id="g46"
       style="fill:#0a425a;fill-opacity:1"><g
         id="g44"
         style="fill:#0a425a;fill-opacity:1"><g
           id="g42"
           style="fill:#0a425a;fill-opacity:1"><path
             d="m 832.7,813.3 v 40.9 l -669.3,33.4 v -39.1 c 0,-11.6 9.5,-21.1 21.2,-21.1 L 744.2,795.9 V 687.4 H 286.4 c -11.9,0 -22.1,-9.3 -22.5,-21.2 -0.5,-12.5 9.6,-22.9 22,-22.9 h 458.3 v -58.6 c 10.7,10.2 25.2,16.5 41,16.5 19.1,0 36.2,-9.1 47.1,-23.2 v 231.2 c 0.3,1.3 0.4,2.7 0.4,4.1 z"
             id="path38"
             style="fill:#0a425a;fill-opacity:1" /><path
             d="m 163.4,902.7 669.3,-33.4 v 53.5 c 0,11.6 -9.5,21.1 -21.1,21.1 h -627 c -11.6,0 -21.2,-9.5 -21.2,-21.1 z"
             id="path40"
             style="fill:#0a425a;fill-opacity:1" /></g></g></g><g
       id="g58"
       style="fill:#0a425a;fill-opacity:1"><g
         id="g56"
         style="fill:#0a425a;fill-opacity:1"><g
           id="g50"
           style="fill:#0a425a;fill-opacity:1"><path
             d="m 404.2,552.4 h 44 c -0.6,8.7 -5.6,15.6 -11.7,15.6 h -20.6 c -6.1,0 -11.1,-6.9 -11.7,-15.6 z"
             id="path48"
             style="fill:#0a425a;fill-opacity:1" /></g><g
           id="g54"
           style="fill:#0a425a;fill-opacity:1"><path
             d="m 508.5,538.6 -17.2,-12.6 3.8,9.3 -39.4,16.4 -7.5,-18.1 v 16.1 h -44.1 v -47.1 c 0,-2 0.2,-4 0.7,-5.8 l -19.6,3.2 c -0.8,0.1 -1.6,0.2 -2.4,0.2 -7.3,0 -13.9,-5.4 -15.1,-12.8 L 365.5,474 c -0.7,-4.5 0.6,-8.9 3.3,-12.1 2.3,-2.8 5.5,-4.8 9.4,-5.4 L 505,435.7 c 0.8,-0.1 1.6,-0.2 2.4,-0.2 1.4,0 2.8,0.2 4.1,0.6 5.5,1.6 10,6.2 11,12.3 l 2.2,13.4 c 1.3,8.3 -4.4,16.2 -12.6,17.5 l -9.2,1.5 31.3,23 z"
             id="path52"
             style="fill:#0a425a;fill-opacity:1" /></g></g></g><g
       id="g66"
       style="fill:#0a425a;fill-opacity:1"><g
         id="g64"
         style="fill:#0a425a;fill-opacity:1"><g
           id="g62"
           style="fill:#0a425a;fill-opacity:1"><path
             d="m 456.9,554.2 39.3,-16.3 c 2.7,8 0.7,16 -4.7,18.3 l -18.4,7.6 c -5.4,2.2 -12.5,-2.1 -16.2,-9.6 z"
             id="path60"
             style="fill:#0a425a;fill-opacity:1" /></g></g></g><g
       id="g74"
       style="fill:#0a425a;fill-opacity:1"><g
         id="g72"
         style="fill:#0a425a;fill-opacity:1"><g
           id="g70"
           style="fill:#0a425a;fill-opacity:1"><path
             d="m 510.9,540.3 25.6,-34.8 c 6.5,5.5 9,13.5 5.5,18.3 l -12,16.3 c -3.6,4.8 -11.9,4.8 -19.1,0.2 z"
             id="path68"
             style="fill:#0a425a;fill-opacity:1" /></g></g></g><g
       id="g80"
       style="fill:#0a425a;fill-opacity:1"><g
         id="g78"
         style="fill:#0a425a;fill-opacity:1"><path
           d="m 836.6,541.6 c 0,7.3 -1.5,14.2 -4.3,20.5 -7.9,18.2 -26,30.9 -47.1,30.9 -16.8,0 -31.7,-8.1 -41,-20.5 -6.5,-8.6 -10.3,-19.3 -10.3,-30.9 0,-11.6 3.8,-22.3 10.3,-30.9 9.4,-12.5 24.3,-20.5 41,-20.5 21.1,0 39.2,12.7 47.1,30.8 2.7,6.4 4.3,13.3 4.3,20.6 z"
           id="path76"
           style="fill:#0a425a;fill-opacity:1" /></g></g></g></svg>
