<?xml version="1.0" encoding="UTF-8" standalone="no"?>
<svg
   xmlns:dc="http://purl.org/dc/elements/1.1/"
   xmlns:cc="http://creativecommons.org/ns#"
   xmlns:rdf="http://www.w3.org/1999/02/22-rdf-syntax-ns#"
   xmlns:svg="http://www.w3.org/2000/svg"
   xmlns="http://www.w3.org/2000/svg"
   xmlns:sodipodi="http://sodipodi.sourceforge.net/DTD/sodipodi-0.dtd"
   xmlns:inkscape="http://www.inkscape.org/namespaces/inkscape"
   height="100px"
   width="100px"
   fill="#000000"
   viewBox="0 0 24 24"
   version="1.1"
   x="0px"
   y="0px"
   id="svg14"
   sodipodi:docname="inacheve.svg"
   inkscape:version="0.92.4 (5da689c313, 2019-01-14)">
  <metadata
     id="metadata20">
    <rdf:RDF>
      <cc:Work
         rdf:about="">
        <dc:format>image/svg+xml</dc:format>
        <dc:type
           rdf:resource="http://purl.org/dc/dcmitype/StillImage" />
        <dc:title>61 - Unfinished Circuit (arrow, direction, orientation)</dc:title>
      </cc:Work>
    </rdf:RDF>
  </metadata>
  <defs
     id="defs18" />
  <sodipodi:namedview
     pagecolor="#ffffff"
     bordercolor="#666666"
     borderopacity="1"
     objecttolerance="10"
     gridtolerance="10"
     guidetolerance="10"
     inkscape:pageopacity="0"
     inkscape:pageshadow="2"
     inkscape:window-width="779"
     inkscape:window-height="480"
     id="namedview16"
     showgrid="false"
     inkscape:zoom="2.36"
     inkscape:cx="50"
     inkscape:cy="50"
     inkscape:window-x="779"
     inkscape:window-y="27"
     inkscape:window-maximized="0"
     inkscape:current-layer="svg14" />
  <title
     id="title2">61 - Unfinished Circuit (arrow, direction, orientation)</title>
  <desc
     id="desc4">Created with Sketch.</desc>
  <g
     stroke="none"
     stroke-width="1"
     fill="none"
     fill-rule="evenodd"
     id="g12"
     style="fill:#d35e42;fill-opacity:1">
    <g
       transform="translate(-551.000000, -732.000000)"
       fill="#000000"
       id="g10"
       style="fill:#d35e42;fill-opacity:1">
      <g
         transform="translate(551.000000, 732.000000)"
         id="g8"
         style="fill:#d35e42;fill-opacity:1">
        <path
           d="M20.7617,18.3047 C20.2967,18.8787 19.7647,19.4017 19.1817,19.8607 C18.9987,20.0047 18.7807,20.0747 18.5647,20.0747 C18.2677,20.0747 17.9747,19.9437 17.7777,19.6927 C17.4367,19.2587 17.5107,18.6307 17.9457,18.2887 C18.4117,17.9217 18.8367,17.5027 19.2087,17.0447 C19.5567,16.6167 20.1857,16.5497 20.6157,16.8987 C21.0437,17.2457 21.1107,17.8757 20.7617,18.3047 L20.7617,18.3047 Z M15.2027,21.7567 C14.4847,21.9177 13.7427,21.9997 12.9997,21.9997 C12.4477,21.9997 11.9997,21.5527 11.9997,20.9997 C11.9997,20.4477 12.4477,19.9997 12.9997,19.9997 C13.5957,19.9997 14.1897,19.9347 14.7637,19.8047 C15.2997,19.6857 15.8377,20.0217 15.9587,20.5607 C16.0797,21.0997 15.7417,21.6357 15.2027,21.7567 L15.2027,21.7567 Z M-0.0003,-0.0003 L-0.0003,10.9997 C-0.0003,10.7437 0.0977,10.4887 0.2927,10.2927 C0.6837,9.9027 1.3167,9.9027 1.7067,10.2927 L3.0197,11.6057 C3.2287,6.2747 7.6197,1.9997 12.9997,1.9997 C18.5137,1.9997 22.9997,6.4857 22.9997,11.9997 C22.9997,12.0287 22.9857,12.0527 22.9837,12.0807 C22.9857,12.1077 22.9987,12.1307 22.9977,12.1587 C22.9867,12.9007 22.8927,13.6397 22.7197,14.3567 C22.6097,14.8147 22.1997,15.1217 21.7487,15.1217 C21.6707,15.1217 21.5927,15.1137 21.5137,15.0947 C20.9767,14.9647 20.6467,14.4247 20.7757,13.8877 C20.9137,13.3147 20.9897,12.7217 20.9977,12.1267 C20.9987,12.1027 21.0107,12.0837 21.0117,12.0607 C21.0107,12.0387 20.9997,12.0217 20.9997,11.9997 C20.9997,7.5887 17.4107,3.9997 12.9997,3.9997 C8.7357,3.9997 5.2507,7.3557 5.0217,11.5637 L6.2927,10.2927 C6.6837,9.9027 7.3167,9.9027 7.7067,10.2927 C8.0977,10.6837 8.0977,11.3167 7.7067,11.7067 L4.7067,14.7067 C4.5117,14.9027 4.2557,14.9997 3.9997,14.9997 C3.7437,14.9997 3.4887,14.9027 3.2927,14.7067 L0.2927,11.7067 C0.0977,11.5117 -0.0003,11.2557 -0.0003,10.9997 L-0.0003,23.9997 L23.9997,23.9997 L23.9997,-0.0003 L-0.0003,-0.0003 Z"
           id="path6"
           style="fill:#d35e42;fill-opacity:1" />
      </g>
    </g>
  </g>
</svg>
