<?xml version="1.0" encoding="UTF-8" standalone="no"?>
<svg
   xmlns:dc="http://purl.org/dc/elements/1.1/"
   xmlns:cc="http://creativecommons.org/ns#"
   xmlns:rdf="http://www.w3.org/1999/02/22-rdf-syntax-ns#"
   xmlns:svg="http://www.w3.org/2000/svg"
   xmlns="http://www.w3.org/2000/svg"
   xmlns:sodipodi="http://sodipodi.sourceforge.net/DTD/sodipodi-0.dtd"
   xmlns:inkscape="http://www.inkscape.org/namespaces/inkscape"
   height="100px"
   width="100px"
   fill="#000000"
   version="1.1"
   x="0px"
   y="0px"
   viewBox="0 0 100 100"
   id="svg6"
   sodipodi:docname="infoslegales.svg"
   inkscape:version="0.92.4 (5da689c313, 2019-01-14)">
  <metadata
     id="metadata12">
    <rdf:RDF>
      <cc:Work
         rdf:about="">
        <dc:format>image/svg+xml</dc:format>
        <dc:type
           rdf:resource="http://purl.org/dc/dcmitype/StillImage" />
        <dc:title></dc:title>
      </cc:Work>
    </rdf:RDF>
  </metadata>
  <defs
     id="defs10" />
  <sodipodi:namedview
     pagecolor="#ffffff"
     bordercolor="#666666"
     borderopacity="1"
     objecttolerance="10"
     gridtolerance="10"
     guidetolerance="10"
     inkscape:pageopacity="0"
     inkscape:pageshadow="2"
     inkscape:window-width="1920"
     inkscape:window-height="1016"
     id="namedview8"
     showgrid="false"
     inkscape:zoom="2.36"
     inkscape:cx="50"
     inkscape:cy="50"
     inkscape:window-x="0"
     inkscape:window-y="27"
     inkscape:window-maximized="1"
     inkscape:current-layer="svg6" />
  <g
     transform="translate(0,-952.36218)"
     id="g4"
     style="fill:#0a425a;fill-opacity:1">
    <path
       fill-rule="nonzero"
       style="baseline-shift:baseline;block-progression:tb;color:#000000;direction:ltr;text-indent:0;enable-background:accumulate;text-transform:none;fill:#0a425a;fill-opacity:1"
       fill="#000000"
       d="m13.427,959.93a1.0001,1.0001,0,0,0,-0.8125,1v76.844a1.0001,1.0001,0,0,0,0,0.1875,1.0001,1.0001,0,0,0,0.0312,0.3125c0.13343,2.2051,0.74791,3.8843,1.9375,4.9687,1.2453,1.1352,2.9487,1.5132,4.875,1.5625a1.0001,1.0001,0,0,0,0.0312,0h57.062a1.0001,1.0001,0,0,0,1,-1v-18.906c-0.67854-0.4867-0.93713-0.6822-2-1.4375v19.344h-56.031c-0.012-0.0003-0.0193,0.0003-0.0312,0-1.6646-0.047-2.8279-0.3928-3.5625-1.0625-0.57907-0.5279-0.95976-1.4689-1.1562-2.7812h55.937a1.0001,1.0001,0,0,0,0.65625,-0.25,1.0001,1.0001,0,0,0,0.125,-0.125,1.0001,1.0001,0,0,0,0,-0.031,1.0001,1.0001,0,0,0,0.125,-0.125,1.0001,1.0001,0,0,0,0,-0.031,1.0001,1.0001,0,0,0,0.0312,-0.062,1.0001,1.0001,0,0,0,0,-0.031,1.0001,1.0001,0,0,0,0.0312,-0.062,1.0001,1.0001,0,0,0,0,-0.031,1.0001,1.0001,0,0,0,0.0312,-0.062,1.0001,1.0001,0,0,0,0,-0.031,1.0001,1.0001,0,0,0,0,-0.062,1.0001,1.0001,0,0,0,0,-0.031,1.0001,1.0001,0,0,0,0,-0.062v-0.031l0.0625-17.125c-1.3927-0.9845-2.5426-1.8028-4.1562-2.9375-6.0374-4.2453-13.271-9.302-19.312-13.5l-1.3125,1.8125c1.341,1.1915,1.6019,3.2321,0.53125,4.7187l-2.1562,2.9688c-1.1444,1.589-3.3763,1.9521-4.9688,0.8125l-14.906-10.656c-1.5925-1.1396-1.957-3.3797-0.8125-4.9687l2.125-2.9688c1.0782-1.497,3.1219-1.91,4.6875-1l9.125-12.688c-1.3556-1.1893-1.6376-3.226-0.5625-4.7188l2.1562-2.9688c0.71528-0.99312,1.8537-1.4994,3-1.4688,0.68776,0.0184,1.3716,0.22889,1.9688,0.65625l14.906,10.656c1.5925,1.1396,1.9569,3.3797,0.81249,4.9688l-2.125,2.9688c-1.0729,1.4897-3.0936,1.8928-4.6562,1l-1.1875,1.625c5.6812,3.9476,11.564,8.0694,16.875,11.781l0.15625-42.531c1.1237,1.5139,2.2914,2.6969,3.5938,3.0938v42.031c1.0056,0.7036,1.1064,0.7804,2,1.4062v-44.156a1.0001,1.0001,0,0,0,-0.875,-1c-1.4661-0.16003-3.1102-1.3791-4.8125-5a1.0001,1.0001,0,0,0,-0.34375,-0.375,1.0001,1.0001,0,0,0,-0.0312,-0.0625,1.0001,1.0001,0,0,0,-0.0312,0,1.0001,1.0001,0,0,0,-0.75,-0.375h-43.844-7.1562-6.0938a1.0001,1.0001,0,0,0,-0.1875,0zm7.4688,2,4.9062,0,0,12.031-2-1.8438a1.0001,1.0001,0,0,0,-1.4062,0.0625l-1.5,1.5938v-11.844zm24.25,13.281c-0.49861-0.017-0.9893,0.20751-1.3125,0.65625l-2.1562,2.9688c-0.51712,0.71799-0.34456,1.6726,0.375,2.1875l7.4688,5.3438,6.9062,4.9375a1.0001,1.0001,0,0,1,0.15625,0.125l0.375,0.25c0.71956,0.51494,1.6704,0.37424,2.1875-0.34375l2.125-2.9688c0.51712-0.71799,0.37581-1.6726-0.34375-2.1875l-14.906-10.67c-0.26984-0.1931-0.57584-0.3023-0.875-0.3125zm-2.9375,8.4062-9.0625,12.594,8.2188,5.9062,4,2.875,3.8125-5.2812,3.5-4.9688a1.0001,1.0001,0,0,1,0.1875,-0.1875,1.0001,1.0001,0,0,1,0.0625,-0.0625l1.5312-2.125-12.25-8.75zm-12.469,12.969c-0.49861-0.017-0.9893,0.2075-1.3125,0.65625l-2.125,2.9688c-0.51712,0.718-0.37581,1.6726,0.34375,2.1875l14.906,10.656c0.71956,0.5149,1.6704,0.3743,2.1875-0.3437l2.1562-2.9688c0.51712-0.718,0.34456-1.6725-0.375-2.1875l-0.34375-0.25a1.0001,1.0001,0,0,1,-0.15625,-0.125l-14.406-10.281c-0.26984-0.1931-0.57584-0.3023-0.875-0.3125zm24.031,0.15625-4.3125,6c6.0425,4.1977,13.248,9.226,19.281,13.469,6.2684,4.4077,11.111,7.834,12.031,8.5312,0.003,0,0.0286,0.031,0.0312,0.031,2.1707,1.5231,4.8803,1.2083,6.0938-0.4687,0.57638-0.7964,0.63117-1.7854,0.25-2.875s-1.2272-2.2035-2.3438-3c-1.8162-1.295-17.747-12.456-31.031-21.688z"
       id="path2" />
  </g>
</svg>
