<?xml version="1.0" encoding="UTF-8" standalone="no"?>
<svg
   xmlns:dc="http://purl.org/dc/elements/1.1/"
   xmlns:cc="http://creativecommons.org/ns#"
   xmlns:rdf="http://www.w3.org/1999/02/22-rdf-syntax-ns#"
   xmlns:svg="http://www.w3.org/2000/svg"
   xmlns="http://www.w3.org/2000/svg"
   xmlns:sodipodi="http://sodipodi.sourceforge.net/DTD/sodipodi-0.dtd"
   xmlns:inkscape="http://www.inkscape.org/namespaces/inkscape"
   height="100px"
   width="100px"
   fill="#1A1A1A"
   version="1.1"
   x="0px"
   y="0px"
   viewBox="0 0 100 100"
   style="enable-background:new 0 0 100 100;"
   xml:space="preserve"
   id="svg22"
   sodipodi:docname="interpreter.svg"
   inkscape:version="0.92.4 (5da689c313, 2019-01-14)"><metadata
     id="metadata28"><rdf:RDF><cc:Work
         rdf:about=""><dc:format>image/svg+xml</dc:format><dc:type
           rdf:resource="http://purl.org/dc/dcmitype/StillImage" /><dc:title>Asset 47</dc:title></cc:Work></rdf:RDF></metadata><defs
     id="defs26" /><sodipodi:namedview
     pagecolor="#ffffff"
     bordercolor="#666666"
     borderopacity="1"
     objecttolerance="10"
     gridtolerance="10"
     guidetolerance="10"
     inkscape:pageopacity="0"
     inkscape:pageshadow="2"
     inkscape:window-width="716"
     inkscape:window-height="480"
     id="namedview24"
     showgrid="false"
     inkscape:zoom="2.36"
     inkscape:cx="50"
     inkscape:cy="50"
     inkscape:window-x="0"
     inkscape:window-y="0"
     inkscape:window-maximized="0"
     inkscape:current-layer="svg22" /><style
     type="text/css"
     id="style2">
	.st0{fill:none;}
</style><title
     id="title4">Asset 47</title><path
     d="M28.6,81.5L28.6,81.5L19.7,84c-2.9,1.1-6.2-0.3-7.4-3.2c-0.7-1.7-0.5-3.7,0.6-5.2L27.2,56c1.5-2.1,3.7-4.5,8.2-4.5h17.2  c4.5,0,6.7,2.4,8.2,4.5L75,75.5c1.8,2.6,1.1,6.1-1.5,7.9c-1.5,1-3.5,1.3-5.3,0.6l-8.9-2.5l0,0c0,11-7.4,11-14.9,11l0,0  C36.9,92.5,28.6,92.5,28.6,81.5z M43.9,84.2L43.9,84.2l11.7-3.9l-3.4-1.2c-7.9-2.3-4.8-12.8,3.1-10.5l4,1.5V58.4l-15.4,5l-15.4-5  v11.8l4.4-1.6c7.9-2.3,11,8.1,3.1,10.5l-3.6,1.3L43.9,84.2z"
     id="path6"
     style="fill:#0a425a;fill-opacity:1" /><path
     d="M25.7,38.8"
     id="path8" /><circle
     cx="55.4"
     cy="39.6"
     r="3.2"
     id="circle10"
     style="fill:#0a425a;fill-opacity:1" /><path
     d="M50.2,39.6c0-1.9,1.1-3.7,2.8-4.6c-2.7-4.8-8.7-6.6-13.6-4s-6.6,8.7-4,13.6c2.7,4.8,8.7,6.6,13.6,4c1.8-1,3.3-2.5,4.2-4.3  C51.3,43.4,50.2,41.6,50.2,39.6z"
     id="path12"
     style="fill:#0a425a;fill-opacity:1" /><path
     d="M71.8,15.3c-2.7,0-4.8,2.1-4.8,4.8c0,2.7,2.2,4.8,4.8,4.8c2.7,0,4.8-2.1,4.8-4.8C76.6,17.4,74.4,15.3,71.8,15.3z"
     id="path14"
     style="fill:#0a425a;fill-opacity:1" /><path
     inkscape:connector-curvature="0"
     style="fill:none;fill-opacity:1"
     id="path16"
     d="m 71.8,11.8 c -4.5,0 -8.1,3.7 -8.1,8.2 0,4.3 4.4,7.3 5.2,9.4 0.1,0.4 0.5,0.6 0.8,0.6 H 74 c 0.4,0 0.7,-0.2 0.8,-0.6 0.9,-2.3 6.9,-6.1 4.7,-12 -1.1,-3.3 -4.2,-5.6 -7.7,-5.6 z"
     class="st0" /><path
     inkscape:connector-curvature="0"
     style="fill:#0a425a;fill-opacity:1"
     id="path18"
     d="m 71.8,7.5 c -8.9,0 -16.2,7.3 -16.2,16.2 0,8.9 7.3,16.2 16.2,16.2 C 80.7,39.9 88,32.6 88,23.7 88,14.8 80.7,7.5 71.8,7.5 Z m 2.1,28.2 h -4.1 c -0.5,0 -0.9,-0.4 -0.9,-0.9 0,-0.5 0.4,-0.9 0.9,-0.9 h 4.1 c 0.5,0 0.9,0.4 0.9,0.9 0,0.5 -0.4,0.9 -0.9,0.9 z m 0,-2.9 h -4.1 c -0.5,0 -0.9,-0.4 -0.9,-0.9 0,-0.5 0.4,-0.9 0.9,-0.9 h 4.1 c 0.5,0 0.9,0.4 0.9,0.9 0,0.5 -0.4,0.9 -0.9,0.9 z m 0.9,-3.4 C 74.7,29.8 74.4,30 74,30 H 69.7 C 69.4,30 69,29.8 68.9,29.4 68.1,27.3 63.7,24.3 63.7,20 c 0,-4.5 3.6,-8.2 8.1,-8.2 3.5,0 6.6,2.3 7.7,5.6 2.2,5.9 -3.8,9.7 -4.7,12 z" /></svg>