<?xml version="1.0" encoding="UTF-8" standalone="no"?>
<svg
   xmlns:dc="http://purl.org/dc/elements/1.1/"
   xmlns:cc="http://creativecommons.org/ns#"
   xmlns:rdf="http://www.w3.org/1999/02/22-rdf-syntax-ns#"
   xmlns:svg="http://www.w3.org/2000/svg"
   xmlns="http://www.w3.org/2000/svg"
   xmlns:sodipodi="http://sodipodi.sourceforge.net/DTD/sodipodi-0.dtd"
   xmlns:inkscape="http://www.inkscape.org/namespaces/inkscape"
   height="100px"
   width="100px"
   fill="#000000"
   version="1.1"
   x="0px"
   y="0px"
   viewBox="0 0 160 160"
   style="enable-background:new 0 0 160 160;"
   xml:space="preserve"
   id="svg14"
   sodipodi:docname="introduction.svg"
   inkscape:version="0.92.4 (5da689c313, 2019-01-14)"><metadata
     id="metadata20"><rdf:RDF><cc:Work
         rdf:about=""><dc:format>image/svg+xml</dc:format><dc:type
           rdf:resource="http://purl.org/dc/dcmitype/StillImage" /></cc:Work></rdf:RDF></metadata><defs
     id="defs18" /><sodipodi:namedview
     pagecolor="#ffffff"
     bordercolor="#666666"
     borderopacity="1"
     objecttolerance="10"
     gridtolerance="10"
     guidetolerance="10"
     inkscape:pageopacity="0"
     inkscape:pageshadow="2"
     inkscape:window-width="1920"
     inkscape:window-height="1016"
     id="namedview16"
     showgrid="false"
     inkscape:zoom="4.72"
     inkscape:cx="62.366987"
     inkscape:cy="43.665697"
     inkscape:window-x="0"
     inkscape:window-y="27"
     inkscape:window-maximized="1"
     inkscape:current-layer="svg14" /><path
     style="opacity:1;fill:none;fill-opacity:1;fill-rule:evenodd;stroke:#8f230a;stroke-width:1.7056;stroke-linecap:round;stroke-miterlimit:4;stroke-dasharray:13.6448,13.6448;stroke-opacity:1;stroke-dashoffset:1.19391998"
     id="path906"
     sodipodi:type="arc"
     sodipodi:cx="79.666061"
     sodipodi:cy="-99.022682"
     sodipodi:rx="74.278503"
     sodipodi:ry="41.110161"
     sodipodi:start="0"
     sodipodi:end="3.1061599"
     sodipodi:open="true"
     d="M 153.94456,-99.022682 A 74.278503,41.110161 0 0 1 80.981939,-57.918973 74.278503,41.110161 0 0 1 5.4341807,-97.566341"
     transform="scale(1,-1)" /><path
     inkscape:connector-curvature="0"
     d="m 46.54374,102.22321 -1.816882,3.51602 -0.483391,5.92944 h -1.463982 l -0.357507,-6.03766 -1.345505,-3.40745 h -8.448975 l -4.654652,3.43291 v 6.01007 l -1.4958,0.002 -1.304496,-8.94899 1.004979,-1.49085 v -3.976071 c -0.550933,0 -0.997199,-0.446615 -0.997199,-0.997199 v -0.445555 c 0,-1.607897 0.701928,-3.135876 1.922261,-4.182936 0.999322,-0.857869 2.27305,-1.329596 3.590271,-1.329596 h 12.737991 c 1.017704,0 1.972822,-0.491882 2.564076,-1.320055 l 1.542826,-2.161653 -0.994015,-1.490854 h 4.220772 c 1.124145,0 2.210465,0.405957 3.059143,1.143249 l 2.687137,2.334925 c 0.429995,0.373777 0.594426,0.968915 0.416909,1.510297 -0.190604,0.582051 -0.733758,0.975634 -1.346216,0.975634 h -2.576813 l -1.604001,7.056782 c -0.51522,2.267382 -2.531197,3.876702 -4.856931,3.876702 z m -0.304112,2.21223 1.748989,7.23359 h 1.483424 l -1.657396,-8.84467 c -0.265215,0.0609 -0.535025,0.10287 -0.807307,0.12553 z m -15.873505,0.38226 1.348339,6.85133 h 1.498633 l -0.397466,-6.01256 3.746211,-2.68749 h -3.688932 z"
     id="path2-97"
     style="fill:#0a425a;fill-opacity:1;stroke-width:0.35361692" /><path
     inkscape:connector-curvature="0"
     d="m 83.769072,134.05096 -1.816883,3.51601 -0.48339,5.92944 h -1.463982 l -0.357507,-6.03765 -1.345505,-3.40745 H 69.85283 l -4.654652,3.43291 v 6.01007 l -1.4958,0.002 -1.304496,-8.94899 1.004979,-1.49084 v -3.97607 c -0.550933,0 -0.997199,-0.44662 -0.997199,-0.9972 v -0.44556 c 0,-1.60789 0.701928,-3.13587 1.922261,-4.18293 0.999322,-0.85787 2.27305,-1.3296 3.590271,-1.3296 h 12.73799 c 1.017704,0 1.972822,-0.49188 2.564077,-1.32005 l 1.542826,-2.16166 -0.994015,-1.49085 h 4.220772 c 1.124145,0 2.210465,0.40596 3.059142,1.14325 l 2.687137,2.33492 c 0.429996,0.37378 0.594427,0.96892 0.41691,1.5103 -0.190604,0.58205 -0.733758,0.97563 -1.346217,0.97563 h -2.576812 l -1.604001,7.05679 c -0.515221,2.26738 -2.531197,3.8767 -4.856931,3.8767 z m -0.304113,2.21222 1.74899,7.23359 h 1.483424 l -1.657396,-8.84467 c -0.265215,0.0609 -0.535025,0.10288 -0.807308,0.12554 z m -15.873504,0.38226 1.348338,6.85133 h 1.498634 l -0.397466,-6.01255 3.746211,-2.68749 H 70.09824 Z"
     id="path2-97-5"
     style="fill:#0a425a;fill-opacity:1;stroke-width:0.35361692" /><path
     inkscape:connector-curvature="0"
     d="m 95.630185,90.560204 -1.816882,3.516022 -0.483391,5.929434 H 91.86593 l -0.357507,-6.037659 -1.345505,-3.407447 h -8.448975 l -4.654652,3.432909 v 6.010067 l -1.4958,0.002 -1.304496,-8.94899 1.004979,-1.490843 v -3.976074 c -0.550933,0 -0.997199,-0.446616 -0.997199,-0.997188 v -0.445566 c 0,-1.607897 0.701928,-3.135876 1.922261,-4.182925 0.999322,-0.857868 2.27305,-1.329607 3.590271,-1.329607 h 12.737991 c 1.017704,0 1.972822,-0.49187 2.564076,-1.320044 l 1.542831,-2.161664 -0.99402,-1.490855 h 4.220777 c 1.124148,0 2.210468,0.405958 3.059148,1.143249 l 2.68714,2.334925 c 0.42999,0.373778 0.59442,0.968916 0.41691,1.510297 -0.19061,0.582052 -0.73376,0.975635 -1.34622,0.975635 h -2.57682 l -1.604,7.056781 c -0.51522,2.267382 -2.531197,3.876702 -4.856935,3.876702 z m -0.304113,2.212226 1.748994,7.23359 h 1.483425 l -1.657396,-8.844671 c -0.265215,0.06088 -0.535025,0.102872 -0.807308,0.125534 z m -15.873504,0.382257 1.348339,6.851333 h 1.498633 l -0.397466,-6.012557 3.746211,-2.687487 h -3.688932 z"
     id="path2-97-3"
     style="fill:#0a425a;fill-opacity:1;stroke-width:0.35361692" /><path
     inkscape:connector-curvature="0"
     d="m 130.42278,119.02688 -1.81688,3.51601 -0.48339,5.92944 h -1.46398 l -0.35751,-6.03765 -1.3455,-3.40745 h -8.44898 l -4.65465,3.43291 v 6.01007 l -1.4958,0.002 -1.3045,-8.94899 1.00498,-1.49084 v -3.97607 c -0.55093,0 -0.9972,-0.44662 -0.9972,-0.9972 v -0.44556 c 0,-1.60789 0.70193,-3.13587 1.92226,-4.18293 0.99933,-0.85787 2.27305,-1.3296 3.59027,-1.3296 h 12.73799 c 1.01771,0 1.97283,-0.49188 2.56408,-1.32005 l 1.54283,-2.16166 -0.99402,-1.49085 h 4.22077 c 1.12415,0 2.21047,0.40596 3.05915,1.14325 l 2.68713,2.33492 c 0.43,0.37378 0.59443,0.96892 0.41691,1.5103 -0.1906,0.58205 -0.73375,0.97563 -1.34621,0.97563 h -2.57682 l -1.604,7.05679 c -0.51522,2.26738 -2.53119,3.8767 -4.85693,3.8767 z m -0.30411,2.21222 1.74899,7.23359 h 1.48342 l -1.65739,-8.84467 c -0.26522,0.0609 -0.53503,0.10287 -0.80731,0.12554 z m -15.8735,0.38226 1.34833,6.85133 h 1.49864 l -0.39747,-6.01255 3.74621,-2.68749 h -3.68893 z"
     id="path2-97-8"
     style="fill:#0a425a;fill-opacity:1;stroke-width:0.35361692" /><path
     inkscape:connector-curvature="0"
     d="m 63.831395,36.452168 -1.816882,3.516011 -0.483391,5.92944 H 60.06714 l -0.357507,-6.037654 -1.345505,-3.407447 h -8.448975 l -4.654652,3.432908 v 6.010071 l -1.495799,0.0023 -1.304499,-8.948986 1.004982,-1.490842 v -3.976074 c -0.550936,0 -0.997202,-0.446616 -0.997202,-0.9972 V 30.03914 c 0,-1.607897 0.701928,-3.135875 1.922263,-4.182936 0.999323,-0.857869 2.27305,-1.329596 3.590271,-1.329596 h 12.737991 c 1.017704,0 1.972822,-0.491882 2.564076,-1.320055 L 64.825411,21.0449 63.831395,19.554046 h 4.220773 c 1.124144,0 2.210464,0.405957 3.059142,1.143249 l 2.687137,2.334925 c 0.429995,0.373777 0.594426,0.968916 0.416909,1.510297 -0.190604,0.582052 -0.733758,0.975634 -1.346216,0.975634 h -2.576813 l -1.604001,7.056782 c -0.51522,2.267382 -2.531197,3.876701 -4.856931,3.876701 z m -0.304112,2.212224 1.748989,7.233589 h 1.483425 L 65.1023,37.053313 c -0.265214,0.06088 -0.535024,0.102871 -0.807307,0.125533 z m -15.873505,0.382259 1.348339,6.85133 h 1.498634 l -0.397467,-6.012555 3.746212,-2.687487 h -3.688932 z"
     id="path2-97-83"
     style="fill:#8f230a;fill-opacity:1;stroke-width:0.35361692" /></svg>