<?xml version="1.0" encoding="UTF-8" standalone="no"?>
<svg
   xmlns:dc="http://purl.org/dc/elements/1.1/"
   xmlns:cc="http://creativecommons.org/ns#"
   xmlns:rdf="http://www.w3.org/1999/02/22-rdf-syntax-ns#"
   xmlns:svg="http://www.w3.org/2000/svg"
   xmlns="http://www.w3.org/2000/svg"
   xmlns:sodipodi="http://sodipodi.sourceforge.net/DTD/sodipodi-0.dtd"
   xmlns:inkscape="http://www.inkscape.org/namespaces/inkscape"
   height="100px"
   width="100px"
   fill="#000000"
   xml:space="preserve"
   version="1.1"
   style="shape-rendering:geometricPrecision;text-rendering:geometricPrecision;image-rendering:optimizeQuality;"
   viewBox="0 0 32399 33648"
   x="0px"
   y="0px"
   fill-rule="evenodd"
   clip-rule="evenodd"
   id="svg10"
   sodipodi:docname="labo.svg"
   inkscape:version="0.92.4 (5da689c313, 2019-01-14)"><metadata
     id="metadata14"><rdf:RDF><cc:Work
         rdf:about=""><dc:format>image/svg+xml</dc:format><dc:type
           rdf:resource="http://purl.org/dc/dcmitype/StillImage" /><dc:title></dc:title></cc:Work></rdf:RDF></metadata><sodipodi:namedview
     pagecolor="#ffffff"
     bordercolor="#666666"
     borderopacity="1"
     objecttolerance="10"
     gridtolerance="10"
     guidetolerance="10"
     inkscape:pageopacity="0"
     inkscape:pageshadow="2"
     inkscape:window-width="779"
     inkscape:window-height="425"
     id="namedview12"
     showgrid="false"
     inkscape:zoom="2.36"
     inkscape:cx="41.949153"
     inkscape:cy="48.305085"
     inkscape:window-x="667"
     inkscape:window-y="165"
     inkscape:window-maximized="0"
     inkscape:current-layer="svg10" /><defs
     id="defs4"><style
       type="text/css"
       id="style2">
   
    .fil0 {fill:#000000}
   
  </style></defs><path
     style="fill:#008080;fill-opacity:1;stroke-width:0.78734022"
     inkscape:connector-curvature="0"
     id="path6"
     d="m 8959.476,3577.7883 h 18078.907 592.866 v 592.8672 25306.6885 592.868 H 27038.383 8959.476 8366.6092 v -592.868 -1615.621 H 9553.131 V 28883.69 H 26445.515 V 4764.31 H 9553.131 V 6302.7727 H 8366.6092 V 4170.6555 3577.7883 Z m 8633.185,9041.0277 h 3086.375 c 197.621,0 359.027,161.404 359.027,359.027 v 1674.673 c 0,197.623 -161.406,359.027 -359.027,359.027 h -3086.375 c -197.621,0 -359.026,-161.404 -359.026,-359.027 v -1674.673 c 0,-197.623 161.405,-359.027 359.026,-359.027 z m 0,-6135.7424 h 3086.375 c 197.621,0 359.027,161.4048 359.027,359.0272 v 1674.6727 c 0,197.6224 -161.406,359.027 -359.027,359.027 h -3086.375 c -197.621,0 -359.026,-161.4046 -359.026,-359.027 V 6842.1008 c 0,-197.6224 161.405,-359.0272 359.026,-359.0272 z m 3844.583,7315.1784 1910.088,-1257.383 v 838.518 h 625.935 c 165.341,0 315.724,-67.712 425.164,-177.152 109.44,-109.44 177.151,-259.822 177.151,-425.164 V 8875.8005 c 0,-165.3414 -67.711,-315.7234 -177.151,-425.1637 -109.44,-109.4403 -259.823,-177.9388 -425.164,-177.9388 h -2086.452 v -837.73 h 2086.452 c 396.82,0 757.421,161.4047 1018.03,422.8016 260.611,260.6096 422.803,621.2115 422.803,1018.0309 v 3901.2705 c 0,396.82 -162.192,756.634 -422.803,1018.032 -260.609,260.609 -621.21,422.801 -1018.03,422.801 h -625.935 v 838.517 z m 3617.828,9159.916 h -3086.373 c -197.623,0 -359.027,162.192 -359.027,359.027 v 1674.673 c 0,197.621 161.404,359.027 359.027,359.027 h 3086.373 c 197.623,0 359.028,-161.406 359.028,-359.027 v -1674.673 c 0,-196.835 -161.405,-359.027 -359.028,-359.027 z m 0,-6135.743 h -3086.373 c -197.623,0 -359.027,162.192 -359.027,359.027 v 1674.673 c 0,197.623 161.404,359.027 359.027,359.027 h 3086.373 c 197.623,0 359.028,-161.404 359.028,-359.027 v -1674.673 c 0,-196.835 -161.405,-359.027 -359.028,-359.027 z m -3844.582,7315.966 -1910.087,-1258.17 v 838.518 h -625.936 c -165.342,0 -315.723,-67.712 -425.163,-177.152 -109.441,-109.44 -177.152,-259.823 -177.152,-425.164 v -3901.271 c 0,-165.341 67.711,-315.723 177.152,-425.164 109.44,-109.44 259.821,-177.151 425.163,-177.151 h 2086.452 v -838.517 h -2086.452 c -396.819,0 -756.634,162.192 -1018.031,422.801 -260.609,260.61 -422.801,621.212 -422.801,1018.031 v 3901.271 c 0,396.82 162.192,756.634 422.801,1018.03 261.397,260.611 621.212,422.803 1018.031,422.803 h 625.936 v 838.517 z"
     class="fil0"
     sodipodi:nodetypes="cccccccccccccccccccccsssssssssssssssssscccssssssccscsscscccsssssssssssssssssscccssssssccscsscsccc" /><g
     transform="matrix(23.786517,0,0,23.786517,-1201.0697,7258.5904)"
     style="fill:#8f230a;fill-opacity:0.94117647;image-rendering:optimizeQuality;shape-rendering:geometricPrecision;text-rendering:geometricPrecision"
     id="g8"><path
       inkscape:connector-curvature="0"
       class="fil0"
       d="M 377.17,808.62 H 673.52 V 788.57 H 377.17 Z M 576.75,44.64 V 11.85 H 470.93 v 32.79 h -39.34 v 31.01 c 8.71,-1 17.5,-0.97 26.22,-0.01 v -4.78 h 135.06 v 228.2 H 492.44 c -18.98,8.48 -40.21,11.77 -60.85,9.4 v 16.82 c 62.5,0 125,0 187.5,0 V 44.64 Z m -403.61,215 h 34.76 c 0,-27.44 22.76,-50.2 50.2,-50.2 h 110.14 l 3.1,8.75 c 11.02,31.04 40.45,51.69 73.36,51.69 42.98,0 77.82,-34.84 77.82,-77.82 0,-42.99 -34.84,-77.83 -77.82,-77.83 -32.93,0 -62.33,20.64 -73.36,51.7 l -3.1,8.75 H 258.1 c -46.75,0 -84.96,38.21 -84.96,84.96 z M 207.9,534.3 h -34.76 c 0,46.67 38.28,84.95 84.96,84.95 H 431.51 V 584.49 H 258.1 c -27.47,0 -50.2,-22.73 -50.2,-50.19 z M 542.82,360.69 v 31.28 h -34.95 v -31.28 h -46.71 v -26.22 h 128.36 v 26.22 z m -48.48,214.56 v 53.25 c 0,34.8 -44.05,40.44 -58.38,16.97 H 258.1 c -61.15,0 -111.18,-50.01 -111.18,-111.17 V 259.64 c 0,-61.09 50.09,-111.18 111.18,-111.18 h 92.15 c 16.98,-36.79 53.87,-60.44 94.45,-60.44 57.45,0 104.04,46.58 104.04,104.04 0,57.45 -46.59,104.04 -104.04,104.04 -40.59,0 -77.45,-23.65 -94.45,-60.44 H 258.1 c -13.11,0 -23.98,10.87 -23.98,23.98 V 534.3 c 0,13.07 10.91,23.98 23.98,23.98 h 177.86 c 14.33,-23.48 58.38,-17.83 58.38,16.97 z M 666.38,503.61 V 749.24 H 640.16 V 529.83 H 410.52 v 15.34 H 384.3 v -41.56 h 36.02 v -52.05 c 70.02,0 140.03,0 210.05,0 v 52.05 z m -219.84,0 H 604.15 V 477.78 H 446.54 Z m 60.91,87.4 h 71.53 V 749.24 H 552.76 V 617.23 h -45.31 z m -96.93,67.57 v 90.66 H 384.3 V 658.58 Z M 444.7,140.05 c 28.67,0 51.99,23.33 51.99,52.01 0,28.65 -23.34,51.99 -51.99,51.99 -28.66,0 -52.01,-23.33 -52.01,-51.99 0,-28.65 23.36,-52.01 52.01,-52.01 z m 0,26.22 c -14.31,0 -25.79,11.48 -25.79,25.79 0,14.3 11.49,25.77 25.79,25.77 14.29,0 25.77,-11.48 25.77,-25.77 0,-14.27 -11.51,-25.79 -25.77,-25.79 z m -93.75,668.56 c 0,-24.16 0,-48.32 0,-72.48 h 348.79 c 0,24.16 0,48.32 0,72.48 z"
       id="path6-3"
       style="fill:#8f230a;fill-opacity:0.94117647" /></g></svg>