<?xml version="1.0" encoding="UTF-8" standalone="no"?>
<svg
   xmlns:dc="http://purl.org/dc/elements/1.1/"
   xmlns:cc="http://creativecommons.org/ns#"
   xmlns:rdf="http://www.w3.org/1999/02/22-rdf-syntax-ns#"
   xmlns:svg="http://www.w3.org/2000/svg"
   xmlns="http://www.w3.org/2000/svg"
   xmlns:sodipodi="http://sodipodi.sourceforge.net/DTD/sodipodi-0.dtd"
   xmlns:inkscape="http://www.inkscape.org/namespaces/inkscape"
   height="100px"
   width="100px"
   fill="#000000"
   version="1.1"
   x="0px"
   y="0px"
   viewBox="0 0 100 100"
   style="enable-background:new 0 0 100 100;"
   xml:space="preserve"
   id="svg4"
   sodipodi:docname="malade.svg"
   inkscape:version="0.92.4 (5da689c313, 2019-01-14)"><metadata
     id="metadata10"><rdf:RDF><cc:Work
         rdf:about=""><dc:format>image/svg+xml</dc:format><dc:type
           rdf:resource="http://purl.org/dc/dcmitype/StillImage" /><dc:title /></cc:Work></rdf:RDF></metadata><defs
     id="defs8" /><sodipodi:namedview
     pagecolor="#ffffff"
     bordercolor="#666666"
     borderopacity="1"
     objecttolerance="10"
     gridtolerance="10"
     guidetolerance="10"
     inkscape:pageopacity="0"
     inkscape:pageshadow="2"
     inkscape:window-width="1920"
     inkscape:window-height="1016"
     id="namedview6"
     showgrid="false"
     inkscape:zoom="2.36"
     inkscape:cx="-49.788136"
     inkscape:cy="50"
     inkscape:window-x="0"
     inkscape:window-y="27"
     inkscape:window-maximized="1"
     inkscape:current-layer="svg4" /><path
     d="m 66.49322,25.749152 c -0.477401,0.477402 -1.288983,0.477402 -1.814124,0 -0.477402,-0.4774 -0.477402,-1.288982 0,-1.814124 L 67.925424,20.6887 c 0.477401,-0.477401 1.288983,-0.477401 1.814123,0 0.477402,0.477402 0.477402,1.288984 0,1.814124 z m 13.367232,-5.012711 c -0.477401,-0.477402 -1.288983,-0.477402 -1.814125,0 -0.4774,0.477401 -0.4774,1.288983 0,1.814124 l 3.246328,3.246327 c 0.477401,0.477402 1.288983,0.477402 1.814125,0 0.4774,-0.477401 0.4774,-1.288983 0,-1.814123 z m 15.563277,7.017796 c 0,11.839548 -9.595763,21.483051 -21.483051,21.483051 -11.887288,0 -21.483051,-9.595763 -21.483051,-21.483051 0,-11.887288 9.595763,-21.483051 21.483051,-21.483051 11.887288,0 21.483051,9.595763 21.483051,21.483051 z m -3.723729,0 c 0,-9.786723 -7.972599,-17.7593218 -17.759322,-17.7593218 -9.786724,0 -17.759322,7.9725988 -17.759322,17.7593218 0,9.786724 7.972598,17.759322 17.759322,17.759322 9.786723,0 17.759322,-7.972598 17.759322,-17.759322 z m -7.495198,8.497741 c 0.668361,-0.668363 0.668361,-1.718645 0,-2.339266 -0.668361,-0.668362 -1.718644,-0.668362 -2.339265,0 -2.625707,2.625706 -4.01017,1.814124 -6.922317,-0.143221 -2.768927,-1.861864 -6.540395,-4.43983 -11.218926,0.238701 -0.668362,0.668362 -0.668362,1.718644 0,2.339266 0.668361,0.668361 1.718643,0.668361 2.387006,0 2.625705,-2.625707 4.105649,-1.814125 6.970056,0.14322 1.575423,1.098022 3.532768,2.387006 5.776553,2.387006 1.575424,0.04774 3.389549,-0.668362 5.346893,-2.625706 z"
     id="path2"
     style="fill:#0a425a;fill-opacity:1;stroke-width:0.47740114"
     inkscape:connector-curvature="0" /><g
     transform="matrix(0.90121571,0,0,0.90121571,-3.6266245,31.494622)"
     id="g869"
     style="fill:#8f230a;fill-opacity:1"><path
       inkscape:connector-curvature="0"
       id="path2-5"
       d="m 58.2,46.8 c -0.9,1.2 -0.8,2.3 -0.6,3.4 0.2,1.6 0,3 -0.7,4.5 -0.6,1.5 -1.1,3 -1.6,4.5 -0.8,2.7 -1.8,5.4 -3.6,7.6 -0.1,0.2 -0.3,0.4 -0.5,0.5 -0.8,0.2 -1.6,0.4 -2.5,0.7 -0.4,0.1 -0.8,0.3 -1.1,0.4 -0.2,0.1 -0.6,0.2 -0.7,0.1 -0.2,-0.2 -0.3,-0.5 -0.2,-0.8 0.6,-1.9 1.4,-3.6 2.4,-5.3 2.1,-3.6 3.5,-7.4 3,-11.7 -0.1,-0.7 -0.3,-1.5 -0.5,-2.2 -0.4,-1.7 -0.8,-3.4 -1.2,-5.2 -0.1,-0.6 -0.3,-0.9 -1,-0.7 -0.6,0.2 -1.3,0.3 -2.1,0.5 -0.5,3.9 -1.3,7.8 -1.6,11.9 -0.2,4.2 0.1,8.4 0.1,12.6 0,0.8 -0.2,1.6 -0.3,2.3 0,0.2 -0.1,0.4 -0.3,0.5 -1.2,0.8 -2.3,1.7 -3.5,2.3 -0.6,0.2 -1.5,-0.2 -2.2,-0.5 -0.6,-0.3 -0.2,-2 0.5,-2.5 0.7,-0.5 1,-1.1 1.1,-1.9 0.1,-2.1 0.1,-4.2 0.1,-6.3 0,-0.4 -0.1,-0.8 -0.3,-1.1 C 40,59 40.1,57.6 40.5,56.1 41,54 40.4,52.1 39.7,50.2 39.5,49.5 39.2,48.9 38.8,48 c -0.3,0.6 -0.6,0.9 -0.7,1.4 -0.5,2.4 -0.9,4.9 -1.4,7.3 -0.3,1.3 -0.6,2.6 -0.8,3.9 -0.4,2 -0.7,4 -1,5.9 -0.1,0.4 -0.3,0.9 -0.6,1.3 -0.3,0.5 -0.8,1 -1,1.5 -0.2,0.8 -0.7,1 -1.4,1 -0.6,0 -1.2,-0.1 -1.8,-0.1 -0.9,-0.1 -1.2,-0.6 -0.6,-1.3 1.9,-2.4 2.3,-5.3 2.6,-8.2 0.1,-0.7 -0.4,-1.5 -0.4,-2.3 -0.1,-0.9 -0.1,-1.8 0.2,-2.6 0.7,-1.8 0.4,-3.6 0.4,-5.4 0,-1.4 -0.2,-2.8 -0.4,-4.2 0,-0.3 -0.3,-0.7 -0.6,-0.8 C 30,44.9 29,44.2 28.7,42.6 28.7,42 28,41.3 28,40.4 c 0,-0.3 -0.5,-0.7 -0.8,-0.8 -1.6,-0.7 -2.5,-2 -2.9,-3.6 -0.2,-0.7 -0.6,-1.4 -0.7,-2.1 -0.1,-0.6 0.3,-1.2 0.5,-2 -1,-0.7 -1.1,-1.2 -0.6,-2.7 -0.4,-0.8 -0.7,-1.4 -1.1,-2 -0.2,-0.3 -0.5,-0.5 -0.7,-0.7 -0.2,-0.2 -0.5,-0.3 -0.6,-0.5 -0.9,-1.6 -1.5,-1.9 -3.3,-1.4 -1.2,0.3 -2.4,0.7 -3.6,1 -1.3,0.3 -2.5,0 -3.5,-0.8 C 9.9,24.1 10,23.5 11,23.2 11.5,23 12.1,23.1 12.7,23 c 0.3,0 0.6,-0.1 1,-0.2 0,-0.1 0,-0.3 0,-0.4 -0.4,0 -0.8,0 -1.2,0 -0.9,0.1 -1.8,0.4 -2.7,0.3 C 8,22.5 7.5,21.3 8.2,19.6 c 0.6,-1.6 1.9,-2.2 3.4,-2.7 1.7,-0.6 3.4,-1.6 5.1,-2.3 1.7,-0.7 2.5,-2.4 3.9,-3.4 1,-0.7 2.5,-0.9 3.8,-1.3 1.4,-0.4 2.5,0.1 3.6,0.8 0.4,0.3 0.9,0.4 1.3,0.8 0.7,0.7 0.4,1.3 -0.7,1.5 -0.1,-0.4 -0.2,-0.7 -0.4,-1.2 -0.5,0.1 -1,0.5 -1.4,0.3 C 26.5,12 26.3,11.3 26,10.8 25.6,11.1 25.3,11.4 24.9,11.7 24.3,11 23.6,10.6 23.1,11.8 23,11.9 22.7,12 22.6,12 c -0.9,-0.2 -1.3,0.4 -1.8,1.1 -1.3,1.6 -3,2.7 -4.9,3.6 -1.7,0.7 -3.4,1.3 -5,1.9 0.6,0.7 0.5,1.1 -0.6,1.3 -0.6,0.1 -1.3,0.3 -1,1 0.2,0.4 0.9,0.8 1.4,0.9 0.4,0.1 0.8,-0.2 1.3,-0.3 0.7,-0.1 1.4,-0.3 2,-0.2 0.5,0.1 1.1,0.7 1.2,1.1 0.1,0.3 -0.5,0.9 -1,1.2 -0.5,0.3 -1.2,0.3 -2,0.4 0.8,0.7 1.6,0.6 2.3,0.4 1.2,-0.3 2.4,-0.9 3.7,-1.1 0.7,-0.1 1.5,-0.1 2.2,0.2 1.6,0.6 3,0.8 4.3,-0.5 0.1,-0.1 0.2,-0.2 0.4,-0.2 0.4,0 0.8,0 1.2,0 -0.2,0.3 -0.3,0.8 -0.5,1 -1,0.6 -2.1,1.2 -3.3,1.8 1,0.2 1.2,1.1 1.5,2 0.4,0.9 1.1,1.7 1.1,2.8 0,0.2 0.5,0.4 0.7,0.6 0.4,-0.2 0.9,-0.3 1.4,-0.6 0.1,0.3 0.1,0.5 0.2,0.7 0.5,-0.3 1,-0.5 1.8,-0.8 -0.3,0.4 -0.5,0.5 -0.6,0.7 0.2,0.1 0.4,0.1 0.6,0.2 0,0.1 0,0.2 0.1,0.3 -0.6,0.1 -1.2,0.1 -1.7,0.4 -0.8,0.3 -1.6,0.8 -2.4,1.3 -0.2,0.1 0,0.6 0,1.1 0.5,-0.2 0.9,-0.4 1.2,-0.6 0,0 0.1,0.1 0.1,0.1 -0.2,0.2 -0.4,0.5 -0.6,0.7 0,0.1 0,0.1 0.1,0.2 1.4,-0.5 2.9,-1 4.3,-1.5 0,0.1 0.1,0.2 0.1,0.2 -0.4,0.3 -0.7,0.7 -1.1,1 -0.6,0.4 -1.2,0.7 -1.9,1.1 -0.6,0.3 -1.1,0.6 -1.2,-0.6 -0.5,0.9 -0.3,1.6 0.2,2.1 0.8,0.8 1.7,1.5 2.6,2.2 0.2,0.1 0.4,0.3 0.4,0.4 0.3,0.9 0.6,1.8 0.7,2.6 0.1,1 0.6,1.4 1.4,1.7 1.7,0.7 3.3,1.3 5.2,1.2 0.2,0 0.6,0.2 0.6,0.4 0,0.3 -0.1,0.7 -0.2,0.8 -0.2,0.2 -0.6,0.3 -0.9,0.3 -0.9,-0.1 -1.7,-0.2 -2.7,-0.4 0.1,1.9 0.2,3.6 0.4,5.2 0.1,1.4 0.1,2.8 -0.5,4 -0.6,1.2 -0.6,2.4 -0.1,3.6 0.7,1.7 0.1,3.2 -0.4,4.8 -0.3,1 -0.6,2.1 -0.8,3.1 1.3,0.3 1.8,0.4 1.9,-1.2 0.1,-1.9 0.8,-3.8 1.1,-5.7 0.3,-1.4 0.7,-2.7 0.6,-4.2 -0.1,-1.3 0.3,-2.7 0.7,-4 0.5,-1.7 1.1,-3.3 1.7,-5.1 0.4,0 0.7,0.1 1.1,0.1 -0.1,-0.7 -0.3,-1.4 -0.4,-2.1 -0.1,-0.5 -0.2,-1 0,-1.5 0.1,-0.3 0.5,-0.5 0.8,-0.8 0.2,0.2 0.5,0.5 0.5,0.7 0.5,2.1 0.9,4.3 1.3,6.5 0.2,0.9 0.5,1.8 0.7,2.7 0.3,1.4 0.3,2.9 0,4.4 -0.2,1.3 0.3,2.8 0.6,4.1 0.7,2.7 0.2,5.4 -0.3,8.1 -0.1,0.6 -0.2,1.1 0.5,1.3 1.3,-0.9 2.1,-2 2,-3.7 -0.2,-2.4 -0.4,-4.8 -0.4,-7.2 0,-2.2 0.2,-4.4 0.5,-6.5 0.4,-3.2 1,-6.3 1.3,-9.4 0.1,-0.7 -0.6,-1.5 -0.8,-2.3 -0.1,-0.4 -0.2,-0.8 -0.2,-1.2 0.3,0.2 0.8,0.2 1,0.5 1.1,1.4 1.9,1.5 3.4,0.6 0.7,-0.4 1.6,-0.5 2.3,-0.8 0.4,-0.2 0.7,-0.4 1.1,-0.7 0.2,0.1 0.5,0.2 0.7,0.3 1,-0.8 2.3,-1.3 2.4,-2.8 0.1,0 0.2,0 0.3,0 0.4,1.2 0.7,2.3 1.1,3.5 0.2,0.6 0.3,1.1 0.5,1.7 1,2.7 1.8,5.4 2.9,7.9 1.5,3.5 0.7,6.9 -0.1,10.2 -0.4,1.8 -1.3,3.4 -2,5.2 0.5,0.2 1.1,0.6 1.8,0.9 0.6,0.2 1.5,-0.9 1.6,-1.7 0.1,-0.9 0.2,-1.9 0.3,-2.8 0.2,-1.8 0.4,-3.6 0.6,-5.5 0,-0.2 0,-0.5 0.1,-0.7 1.4,-2 0.8,-4 -0.1,-5.9 -0.9,-1.9 -0.9,-3.7 -0.6,-5.7 0.2,-1.1 0.1,-2.2 0.5,-3.2 1.1,-2.7 0.8,-5.6 1.3,-8.4 0.4,-1.9 0.3,-3.7 -1,-5.4 -1,-1.2 -2.1,-1.8 -3.5,-2.3 0,0.6 -0.1,1.2 0,1.7 0.2,0.5 0.7,1 1.1,1.5 -0.1,0.3 -0.4,0.6 -0.5,1 -0.2,1.6 -0.2,1.6 -1.5,0.8 -0.3,0.2 -0.6,0.5 -0.9,0.7 0,-0.7 0.1,-1.3 0,-1.9 -0.1,-0.6 -0.4,-1.2 -0.6,-1.9 0.5,0.2 1,0.3 1.4,0.5 0.7,-1.4 0.5,-2.5 -0.6,-2.8 0.1,0.5 0.1,1.1 0.2,1.7 -0.8,0 -1.5,0 -2,0 -0.1,0.8 -0.1,1.5 -0.2,2.1 -0.6,-0.2 -1.2,-0.4 -1.9,-0.6 -0.1,0.3 -0.1,0.9 -0.4,1.4 -0.2,0.5 -0.6,0.9 -0.8,1.3 -0.7,-0.9 -0.6,-1.2 0.5,-2.1 -0.6,-0.7 -0.6,-1.3 0.1,-2 0.9,-0.9 -0.6,-0.8 -0.5,-1.5 0.9,0.5 1.7,0.9 2.5,1.3 0,-0.2 0,-0.7 0.1,-1.1 0.4,0 0.7,0.1 1.1,0.1 -0.2,-1.4 -1,-1.7 -2.1,-1.1 -0.4,0.2 -1,0.1 -1.5,0.2 -0.3,0 -0.6,0.1 -0.8,0.3 -0.7,0.6 -1.3,1.2 -1.8,1.7 0.7,0.5 1.6,1.1 2.5,1.7 0,0.1 0,0.2 -0.1,0.2 -0.4,0 -0.9,0 -1.1,0 -0.2,0.5 -0.3,1.1 -0.6,1.3 -0.5,0.4 -0.8,0 -1.1,-0.5 -0.1,-0.2 -0.5,-0.3 -0.7,-0.3 -0.8,-0.1 -1.4,-0.2 -2,-1 -0.3,-0.3 -1.5,0.1 -2.3,0.3 -0.1,0 -0.2,0.3 -0.1,0.2 -0.8,-0.2 -1.5,-0.4 -2.1,-0.6 -0.2,-0.1 -0.3,-0.4 -0.5,-0.7 0.2,-0.1 0.5,-0.3 0.6,-0.3 1.1,0.6 2,0.1 3,-0.1 1.4,-0.2 2.4,-1.1 3.6,-1.7 1,-0.5 1.8,-1.3 2.8,-1.9 1.4,-0.8 3.1,-0.6 4.6,-0.4 0.8,0.1 1.5,0.5 2.3,0.8 0.9,0.3 1.9,0.5 2.8,0.9 0.7,0.3 1.4,0.8 2,1.4 0.7,0.5 1.3,1.1 1.9,1.8 1,1.2 2,2.5 3,3.7 0.2,0.2 0.3,0.5 0.5,0.6 1.2,1 1.5,2.3 0.9,3.8 -0.1,0.2 -0.2,0.4 -0.2,0.6 0.5,1.1 0.9,2.2 1.5,3.3 0.4,0.7 0.8,1.3 0.5,2.2 -0.1,0.3 0,0.7 0.2,0.9 0.7,1.3 0.7,1.6 0,3 0.9,0.9 1,2 0.5,3.2 -0.1,0.2 0,0.5 0,0.8 0,0.4 0.2,0.9 0,1.1 -0.7,0.8 -0.6,1.8 -0.7,2.7 -0.1,0.8 -0.6,1.5 -1.4,1.6 -1.3,0.2 -2.7,0.3 -4,0.2 -0.5,0 -0.9,-0.6 -1.4,-0.9 -0.3,1.5 -0.5,3 -0.8,4.5 -0.5,2.4 -0.9,4.8 -1.4,7.1 -0.3,1.2 -0.9,2.1 -2.3,2.4 -1,0.2 -2,0.6 -3,0.9 -1,0.1 -1.2,-0.5 -1.2,-1.3 0,-2.7 1.6,-4.9 2.4,-7.3 0.8,-2.4 1,-4.9 0.7,-7.4 -0.3,-2.1 -1.2,-4 -1.9,-6.1 z m 12.5,5.4 c 0.1,0 0.2,0 0.3,0.1 -0.4,-1.4 0.6,-2.8 0.4,-4.2 0,-0.1 0,-0.3 0.1,-0.4 0.8,-0.9 0.2,-1.2 -0.5,-1.6 -0.9,-0.4 -0.9,-1 -0.1,-1.7 0.9,-0.7 0.9,-0.9 0.2,-1.8 -0.3,-0.4 -0.9,-0.8 -0.4,-1.5 0.5,-0.7 0.3,-1.1 -0.4,-1.4 -0.7,-0.3 -1,-0.8 -0.6,-1.6 0.1,-0.2 0,-0.7 -0.2,-0.9 -0.9,-0.7 -0.8,-1.5 -0.4,-2.4 0.4,-0.8 0.5,-1.6 -0.6,-2.1 -0.6,-0.2 -1.1,-0.7 -1.5,-1.2 -0.2,-0.2 -0.2,-0.6 -0.3,-0.9 -0.1,-0.4 -0.2,-0.7 -0.3,-1.1 -0.1,0 -0.2,0 -0.3,0.1 0,0.6 0,1.2 0,1.8 -0.1,1.2 -0.2,2.4 -0.5,3.5 -0.3,1 -0.3,1.9 0.5,2.5 0.6,0.4 0.7,0.8 0.3,1.4 -0.3,0.5 -0.5,1.1 0.4,1.5 0.2,0.1 0.5,0.8 0.4,1 -0.3,0.7 -0.1,1.1 0.3,1.6 0.9,1 0.8,1.5 -0.3,2.4 -0.1,0.1 -0.3,0.4 -0.3,0.5 0.5,0.8 0.3,1.5 -0.2,2.2 -0.3,0.5 -0.5,1.1 -0.6,1.6 -0.1,0.4 -0.1,0.8 0,1.2 0.2,0.7 0.6,1.4 0.8,2.1 0.5,1.5 1.8,-0.4 2.4,0.6 0,0 0.5,-0.2 0.7,-0.4 0.2,-0.1 0.4,-0.5 0.7,-0.9 z M 50.6,65.6 c 1.2,-1.5 2.5,-2.9 2.5,-4.8 0,-1.4 1,-2.6 0.8,-4.1 -0.1,-0.7 0.8,-1.6 0.9,-2.4 0.2,-1.7 -0.2,-3.4 -1.4,-4.8 0,0.8 0,1.4 0,2.1 0,2.9 -0.4,5.7 -1.8,8.3 -0.8,1.4 -1.4,2.8 -2.1,4.2 -0.3,0.6 -0.3,1 0.4,1.2 0.2,0 0.4,0.2 0.7,0.3 z M 64.8,40.2 c -1.2,2.7 -1.4,7.4 -0.2,8.5 0.5,-1.7 1,-3.3 1.4,-5 -0.4,-0.9 -0.8,-2.1 -1.2,-3.5 z"
       style="fill:#8f230a;fill-opacity:1" /><path
       inkscape:connector-curvature="0"
       id="path4"
       d="m 42.5,29.2 c -0.7,-0.6 -1.3,-1.1 -1.9,-1.6 -0.2,0.2 -0.5,0.4 -0.8,0.6 -1.3,-0.7 -1.3,-0.7 -2.3,-0.1 1,1.4 1,1.4 -0.8,1.8 0.2,-0.2 0.4,-0.5 0.6,-0.7 -0.7,-1.1 -1.6,-1.8 -2.9,-2 -0.7,-0.1 -1.4,-1.5 -1.1,-2.3 -0.6,0 -1.2,0.2 -1.5,-0.1 -0.3,-0.3 -0.3,-1 -0.5,-1.7 -1.2,-0.6 0.3,-1.3 0.3,-2 -1.4,-0.3 -1.4,-0.4 -1,-1.9 -0.8,-0.3 -1.5,-0.6 -2.3,-1 -0.2,-0.1 -0.4,-0.4 -0.6,-0.6 0.3,-0.2 0.5,-0.6 0.8,-0.6 0.9,0.1 1.8,0.1 2.7,0.4 2.9,1.1 5.7,0.8 8.4,-0.5 0.2,-0.1 0.3,-0.3 0.3,-0.5 0,-0.1 -0.3,-0.3 -0.4,-0.3 -1,-0.1 -2,-0.2 -3.1,-0.2 -1.7,0 -3.5,0.1 -5.2,0.2 -0.3,0 -0.6,-0.1 -0.9,-0.2 0.1,-0.3 0.3,-0.6 0.5,-1.1 -0.3,-0.5 -0.8,-1 -0.9,-1.7 -0.1,-0.5 0.2,-1.3 0.5,-1.5 1.2,-0.6 2.4,-1.1 3.7,-1.4 0.7,-0.2 1.2,0.5 0.8,1.2 -0.4,0.7 -1,1.3 -1.5,1.9 -0.1,0.1 -0.3,0.1 -0.3,0.2 -0.3,0.4 -0.6,0.8 -0.9,1.2 0.5,0.1 1,0.2 1.4,0.2 2.1,0 4.2,0 6.4,0.1 0.8,0 1.2,0.6 1.3,1.6 0.2,1.3 -0.5,1.7 -1.4,2.2 -2.4,1.5 -4.9,1.5 -7.5,0.6 -0.1,0 -0.2,-0.1 -0.3,-0.1 -0.1,0 -0.1,0 -0.4,0.1 1.3,0.8 0.9,2 0.9,3.1 0,0.5 0.1,1 0.8,1.1 0.3,0.1 0.6,0.3 0.8,0.6 0.7,0.8 1.3,1.6 2.1,2.3 0.2,0.2 0.7,0.2 1,0.2 1.2,-0.1 2.4,-0.3 3.5,-0.4 1,-0.1 2,1.4 1.7,2.9 z"
       style="fill:#8f230a;fill-opacity:1" /><path
       inkscape:connector-curvature="0"
       id="path6"
       d="m 33,42.2 c 0.1,-0.3 0.1,-0.4 0.2,-0.6 -0.2,0 -0.5,0 -0.8,0 0.3,-0.6 0.6,-1.2 0.9,-1.8 1.4,-0.2 1.6,-0.5 2,-2 0.3,-1.2 0.6,-2.3 0.9,-3.4 0.1,-0.3 0.3,-0.6 0.5,-1 0.9,2.2 -1.1,6.9 -3.7,8.8 z"
       style="fill:#8f230a;fill-opacity:1" /><path
       inkscape:connector-curvature="0"
       id="path8"
       d="m 23,13.8 c 2,-0.3 2,-0.3 1.9,1 0.2,-0.1 0.4,0 0.5,-0.2 0.3,-0.4 0.6,-0.5 1,0 0.1,0.1 0.3,0.1 0.4,0.2 0.3,0.2 0.6,0.4 0.9,0.6 -0.4,0.2 -0.7,0.6 -1.1,0.5 -1.1,-0.1 -2.4,0.3 -3.2,-0.9 0.1,0 -0.3,0 -0.5,0 -0.3,-0.1 -0.7,0 -0.8,-0.2 -0.2,-0.4 -0.3,-0.8 -0.3,-1.3 0,-0.2 0.3,-0.4 0.5,-0.5 0.2,0.2 0.4,0.5 0.7,0.8 z"
       style="fill:#8f230a;fill-opacity:1" /><path
       inkscape:connector-curvature="0"
       id="path10"
       d="m 20,19.3 c -0.4,-0.6 -0.9,-1.1 -0.8,-1.3 0.2,-0.5 0.7,-0.9 1.1,-1.3 0.3,0.4 0.9,0.8 0.8,1.1 0.1,0.4 -0.5,0.8 -1.1,1.5 z"
       style="fill:#8f230a;fill-opacity:1" /><path
       inkscape:connector-curvature="0"
       id="path12"
       d="m 47.8,29.4 c -0.6,0.3 -1.1,0.6 -1.6,1 -0.3,-0.6 -1.4,-0.9 -0.5,-1.7 0.4,-0.4 1.7,0 2.1,0.7 z"
       style="fill:#8f230a;fill-opacity:1" /><path
       inkscape:connector-curvature="0"
       id="path14"
       d="m 27.1,36.2 c 0.8,-0.3 1.6,-0.5 2.3,-0.8 0.7,-0.4 1.3,-1 2,-1.6 0,1.6 -2.3,2.9 -4.3,2.4 z"
       style="fill:#8f230a;fill-opacity:1" /><path
       inkscape:connector-curvature="0"
       id="path16"
       d="m 33.1,36.9 c 0.7,-0.5 1.3,-1.1 2,-1.6 -0.8,1.4 -1.8,2.7 -3.4,3.4 0.3,-0.3 0.5,-0.7 0.8,-1 0.2,-0.3 0.4,-0.6 0.6,-0.8 z"
       style="fill:#8f230a;fill-opacity:1" /><path
       inkscape:connector-curvature="0"
       id="path18"
       d="m 47.2,32.3 c 0.2,-0.3 0.3,-0.6 0.4,-0.8 0.1,-0.2 0.2,-0.4 0.3,-0.7 0.4,0.6 0.8,1.1 1,1.6 0.1,0.2 0,0.5 -0.1,0.7 -0.2,0 -0.5,0 -0.6,-0.1 -0.3,-0.1 -0.7,-0.4 -1,-0.7 z"
       style="fill:#8f230a;fill-opacity:1" /><path
       inkscape:connector-curvature="0"
       id="path20"
       d="m 33.1,36.9 c -0.2,0.2 -0.4,0.5 -0.6,0.7 -0.5,0.1 -1,0.2 -1.6,0.3 0,-0.1 -0.1,-0.2 -0.1,-0.3 0.7,-0.5 1.5,-0.9 2.4,-1.5 -0.1,0.4 -0.1,0.6 -0.1,0.8 z"
       style="fill:#8f230a;fill-opacity:1" /><path
       inkscape:connector-curvature="0"
       id="path22"
       d="m 47.6,35.2 c 0.7,-0.2 1.3,-0.4 2,-0.6 0.1,1 -0.7,1.1 -1.2,1.3 -0.2,0.1 -0.6,-0.3 -0.9,-0.5 0,-0.1 0.1,-0.2 0.1,-0.2 z"
       style="fill:#8f230a;fill-opacity:1" /><path
       inkscape:connector-curvature="0"
       id="path24"
       d="m 44.4,36.3 c 1.4,-0.3 1.4,-0.3 1.7,0.7 -1,0.6 -1,0.6 -1.7,-0.7 z"
       style="fill:#8f230a;fill-opacity:1" /><path
       inkscape:connector-curvature="0"
       id="path26"
       d="m 45.2,30.1 c 0.2,0.4 0.4,0.8 0.6,1.2 -0.3,0 -0.7,0.2 -0.8,0.1 -0.2,-0.3 -0.3,-0.7 -0.4,-1.1 0.2,0 0.4,-0.1 0.6,-0.2 z"
       style="fill:#8f230a;fill-opacity:1" /><path
       inkscape:connector-curvature="0"
       id="path28"
       d="m 26.9,33.3 c 0.7,-0.5 1.5,-1 2.2,-1.5 0.1,0.1 0.2,0.2 0.2,0.3 -0.7,0.5 -1.5,1 -2.2,1.5 0,0 -0.1,-0.1 -0.2,-0.3 z"
       style="fill:#8f230a;fill-opacity:1" /><path
       inkscape:connector-curvature="0"
       id="path30"
       d="m 55.9,31.1 c -0.4,0.3 -0.6,0.5 -0.9,0.6 -0.1,0 -0.4,-0.2 -0.6,-0.4 0.2,-0.2 0.4,-0.5 0.7,-0.7 0.1,0 0.4,0.2 0.8,0.5 z"
       style="fill:#8f230a;fill-opacity:1" /></g></svg>