<?xml version="1.0" encoding="UTF-8" standalone="no"?>
<svg
   xmlns:dc="http://purl.org/dc/elements/1.1/"
   xmlns:cc="http://creativecommons.org/ns#"
   xmlns:rdf="http://www.w3.org/1999/02/22-rdf-syntax-ns#"
   xmlns:svg="http://www.w3.org/2000/svg"
   xmlns="http://www.w3.org/2000/svg"
   xmlns:sodipodi="http://sodipodi.sourceforge.net/DTD/sodipodi-0.dtd"
   xmlns:inkscape="http://www.inkscape.org/namespaces/inkscape"
   inkscape:version="1.0 (4035a4fb49, 2020-05-01)"
   sodipodi:docname="noun_Walking_1261420.svg"
   id="svg6"
   y="0px"
   x="0px"
   version="1.1"
   viewBox="0 0 100 100"
   fill="#000000"
   width="100px"
   height="100px">
  <metadata
     id="metadata12">
    <rdf:RDF>
      <cc:Work
         rdf:about="">
        <dc:format>image/svg+xml</dc:format>
        <dc:type
           rdf:resource="http://purl.org/dc/dcmitype/StillImage" />
      </cc:Work>
    </rdf:RDF>
  </metadata>
  <defs
     id="defs10" />
  <sodipodi:namedview
     inkscape:current-layer="svg6"
     inkscape:window-maximized="0"
     inkscape:window-y="8"
     inkscape:window-x="0"
     inkscape:cy="50"
     inkscape:cx="50"
     inkscape:zoom="8.3"
     showgrid="false"
     id="namedview8"
     inkscape:window-height="480"
     inkscape:window-width="967"
     inkscape:pageshadow="2"
     inkscape:pageopacity="0"
     guidetolerance="10"
     gridtolerance="10"
     objecttolerance="10"
     borderopacity="1"
     bordercolor="#666666"
     pagecolor="#ffffff" />
  <g
     style="fill:#0a425a;fill-opacity:1"
     id="g4"
     transform="translate(0,-952.36216)">
    <path
       id="path2"
       fill-opacity="1"
       fill="#000000"
       d="m 54.626442,957.36179 c -5.070624,0 -9.194886,4.1239 -9.194886,9.1946 0.0014,5.1023 4.125621,9.1946 9.194886,9.1946 5.102273,0 9.237562,-4.0923 9.237562,-9.1946 0,-5.0707 -4.135289,-9.1946 -9.237562,-9.1946 z m -1.369267,21.0927 -1.51455,0 1.550948,0 a 3.6094795,3.6094795 0 0 0 -0.0364,0 z m -1.53069,0 -2.426573,0.01 c 0,0 0,0 0,0 -3.061843,0 -6.501731,0.8108 -9.048482,2.1748 l 0.01009,0 c -5.518018,3.0499 -9.176799,5.801 -11.472589,9.6168 -2.721932,4.5241 -2.973047,9.6478 -2.951962,16.69301 a 3.6094795,3.6094795 0 1 0 7.21816,-0.022 c -0.0204,-6.8117 0.374712,-10.38371 1.918711,-12.95001 1.179642,-1.9606 3.366882,-3.8609 7.475103,-6.2676 l -3.317791,15.86091 -0.279654,1.337 c -4.2e-5,10e-5 2.8e-5,0 0,0 -0.423536,2.0254 -0.140926,3.5557 0.989723,5.3082 l 6.275497,9.7268 1.776145,2.7527 14.350944,22.2431 a 5.1563993,5.1563993 0 1 0 8.66486,-5.5903 l -19.266211,-29.8613 1.756181,-7.3303 1.285796,-5.36621 2.681051,-11.1894 c 0,0 0,0 0.0014,0 0.883302,-3.7103 -2.11296,-7.136 -5.638477,-7.1383 l -0.0014,0 z m 7.510941,11.3528 -2.344489,9.7851 c 0.111478,0.1156 0.224343,0.2301 0.339309,0.3428 3.768857,3.69761 8.694155,5.13081 15.551922,6.74541 a 3.6094795,3.6094795 0 1 0 1.654385,-7.02611 c -6.630525,-1.561 -10.013379,-2.7746 -12.15122,-4.872 -1.117564,-1.0965 -2.097689,-2.6497 -3.049907,-4.9752 z m -21.798951,21.84901 -3.207252,15.3336 -10.194738,11.7738 a 5.1564042,5.1564042 0 1 0 7.795527,6.75 l 11.093898,-12.812 a 5.1564042,5.1564042 0 0 0 1.162381,-2.3861 l 1.25297,-6.4109 -7.902786,-12.2484 z"
       style="fill:#0a425a;fill-opacity:1" />
  </g>
</svg>
