<?xml version="1.0" encoding="UTF-8" standalone="no"?>
<svg
   xmlns:dc="http://purl.org/dc/elements/1.1/"
   xmlns:cc="http://creativecommons.org/ns#"
   xmlns:rdf="http://www.w3.org/1999/02/22-rdf-syntax-ns#"
   xmlns:svg="http://www.w3.org/2000/svg"
   xmlns="http://www.w3.org/2000/svg"
   xmlns:sodipodi="http://sodipodi.sourceforge.net/DTD/sodipodi-0.dtd"
   xmlns:inkscape="http://www.inkscape.org/namespaces/inkscape"
   id="svg18"
   xml:space="preserve"
   enable-background="new 0 0 64 64"
   viewBox="0 0 64 64"
   y="0px"
   x="0px"
   version="1.1"
   fill="#1A1A1A"
   width="100px"
   height="100px"
   sodipodi:docname="nouveau.svg"
   inkscape:version="0.92.5 (2060ec1f9f, 2020-04-08)"><sodipodi:namedview
     pagecolor="#ffffff"
     bordercolor="#666666"
     borderopacity="1"
     objecttolerance="10"
     gridtolerance="10"
     guidetolerance="10"
     inkscape:pageopacity="0"
     inkscape:pageshadow="2"
     inkscape:window-width="1920"
     inkscape:window-height="1016"
     id="namedview13"
     showgrid="false"
     inkscape:zoom="2.36"
     inkscape:cx="50"
     inkscape:cy="50"
     inkscape:window-x="0"
     inkscape:window-y="27"
     inkscape:window-maximized="1"
     inkscape:current-layer="svg18" /><metadata
     id="metadata24"><rdf:RDF><cc:Work
         rdf:about=""><dc:format>image/svg+xml</dc:format><dc:type
           rdf:resource="http://purl.org/dc/dcmitype/StillImage" /><dc:title /></cc:Work></rdf:RDF></metadata><defs
     id="defs22" /><g
     style="fill:#0a425a;fill-opacity:1"
     id="g16"><path
       style="fill:#0a425a;fill-opacity:1"
       id="path2"
       d="M33.686,24.274c-0.317,0.386-0.565,0.825-0.716,1.271c-0.47,1.39-1.12,2.497-1.985,3.385   c-1.294,1.327-2.791,2.029-4.329,2.029h-0.003c-1.547-0.001-3.052-0.71-4.355-2.049c-0.904-0.929-1.567-2.087-2.029-3.541   c-0.109-0.344-0.299-0.686-0.536-0.962c-1.583-1.848-2.244-3.618-2.08-5.57l0.01-0.125c0.008-0.107,0.02-0.255,0.037-0.35   c0.533-0.177,0.847-0.688,0.865-1.408c0.012-0.512,0.016-1.03,0.021-1.531c0.005-0.558,0.01-1.128,0.026-1.696   c0-0.952,0.772-1.717,1.717-1.717c0.017,0,0.034,0,0.051,0.001l0.862,0.025c0.71-0.058,1.427-0.051,2.142-0.06   c0.639-0.008,1.279-0.002,1.918-0.002h1.885c0.686,0,1.372,0.002,2.058-0.001c0.507-0.002,1.014-0.01,1.52-0.012   c0.438-0.003,0.877-0.001,1.315-0.002c0.426-0.001,0.847-0.008,1.266,0.119c0.484,0.147,0.846,0.433,1.054,0.879   c0.134,0.286,0.196,0.607,0.288,0.903c0.005-0.006,0.01-0.012,0.015-0.018c0.013,0.487,0.013,0.984,0.012,1.495   c-0.001,0.445-0.002,0.905,0.008,1.363c0.003,0.122,0.002,0.245,0.001,0.377v0.257c0,0.512,0.367,0.953,0.871,1.044   c0.02,0.095,0.034,0.227,0.039,0.281C35.844,20.622,35.224,22.407,33.686,24.274z M15.353,18.756   c0.04,0.411,0.065,0.824,0.093,1.236c0.136,2.038,0.999,3.963,2.615,5.849c0.046,0.053,0.089,0.13,0.109,0.194   c0.568,1.788,1.401,3.231,2.55,4.412c1.727,1.775,3.778,2.713,5.932,2.714h0.004c2.145,0,4.188-0.931,5.906-2.694   c1.101-1.128,1.916-2.508,2.495-4.217c0.064-0.19,0.185-0.4,0.33-0.577c1.673-2.031,2.493-4.099,2.49-6.296   c0-0.152,0-0.305,0.002-0.457l0.032-7.605c-0.038-0.252-0.075-0.508-0.112-0.768c0.04,0.103,0.079,0.203,0.117,0.299   c0.069,0.176,0.135,0.343,0.195,0.512c0.093,0.259,0.173,0.522,0.258,0.784c0.007-0.05-0.001-0.095-0.01-0.139   c-0.171-0.823-0.373-1.636-0.735-2.4c-0.028-0.06-0.056-0.12-0.082-0.18c-0.001-0.001-0.001-0.002-0.001-0.002   c-0.05-0.112-0.096-0.224-0.137-0.338c-0.12-0.326-0.239-0.652-0.359-0.979c-0.09-0.248-0.18-0.496-0.27-0.744   c-0.017-0.045-0.034-0.089-0.05-0.134c0.018-0.01,0.037-0.02,0.054-0.03c0.306,0.483,0.613,0.967,0.919,1.45   c-0.047-0.162-0.105-0.324-0.17-0.481c-0.278-0.674-0.636-1.294-1.176-1.797c-0.114-0.105-0.216-0.221-0.301-0.349   c-0.545-0.812-1.2-1.501-2.097-1.919c-0.026-0.013-0.053-0.025-0.079-0.037c-0.412-0.183-0.828-0.356-1.242-0.533   c-0.104-0.044-0.207-0.089-0.311-0.134c0.21,0.017,0.418,0.04,0.623,0.071c1.172,0.175,2.279,0.568,3.352,1.076   c-0.042-0.043-0.088-0.075-0.135-0.107c-1.29-0.871-2.73-1.307-4.26-1.488c-0.059-0.007-0.118-0.013-0.177-0.019   c-0.513-0.05-1.031-0.067-1.522-0.264c-0.191-0.077-0.398-0.118-0.6-0.171c-0.233-0.06-0.466-0.117-0.698-0.175   c-0.056-0.014-0.112-0.027-0.168-0.041c0.003-0.029,0.002-0.02,0.006-0.049h2.648c-0.02-0.052-0.044-0.068-0.069-0.071   c-1.152-0.166-2.306-0.29-3.471-0.185c-0.399,0.036-0.793,0.053-1.19-0.001c-0.175-0.024-0.353-0.031-0.53-0.046   c-0.001-0.03-0.001-0.021-0.002-0.051c0.864-0.161,1.728-0.322,2.642-0.493c-0.917,0.023-1.781,0.083-2.635,0.235   c-0.477,0.084-0.943,0.237-1.423,0.299c-0.684,0.089-1.377,0.125-2.07,0.183C24.013,1.449,25.478,1.166,26.971,1   C26.69,1.008,26.41,0.995,26.13,1.01c-1.034,0.053-2.06,0.176-3.062,0.45c-0.831,0.227-1.619,0.544-2.297,1.095   c-0.129,0.104-0.284,0.176-0.427,0.263c-0.014-0.022-0.029-0.043-0.043-0.066c0.312-0.225,0.612-0.469,0.938-0.673   c0.332-0.207,0.682-0.389,1.036-0.557c0.343-0.161,0.7-0.29,1.051-0.433c-0.695,0.176-1.366,0.421-2.01,0.738   c-1.279,0.628-2.241,1.675-3.347,2.532c-0.002,0.002-0.004,0.005-0.007,0.007c-0.072,0.116-0.15,0.228-0.213,0.349   c-0.093,0.178-0.164,0.37-0.27,0.539c-0.048,0.077-0.152,0.13-0.241,0.168c-0.181,0.074-0.375,0.117-0.554,0.197   c-0.953,0.427-1.514,1.173-1.752,2.177c0.228-0.456,0.517-0.865,0.939-1.236c-0.114,0.393-0.209,0.742-0.32,1.086   c-0.049,0.153-0.12,0.297-0.206,0.431c-0.215,0.335-0.381,0.691-0.51,1.114c0.18-0.307,0.336-0.573,0.492-0.839   c0.013,0.007,0.026,0.013,0.038,0.02c-0.016,0.072-0.031,0.145-0.048,0.217c-0.003,0.014-0.006,0.028-0.009,0.041   c-0.442,1.945-0.554,3.951-0.361,5.936L15.353,18.756z" /><g
       style="fill:#0a425a;fill-opacity:1"
       id="g12"><path
         style="fill:#0a425a;fill-opacity:1"
         id="path4"
         d="M50.111,62.92c-6.373,0-11.558-5.185-11.558-11.558s5.185-11.558,11.558-11.558c6.373,0,11.558,5.185,11.558,11.558    S56.484,62.92,50.111,62.92z M50.111,42.859c-4.689,0-8.503,3.815-8.503,8.503s3.815,8.503,8.503,8.503s8.503-3.815,8.503-8.503    S54.799,42.859,50.111,42.859z" /><g
         style="fill:#0a425a;fill-opacity:1"
         id="g10"><path
           style="fill:#0a425a;fill-opacity:1"
           id="path6"
           d="M49.775,44.632c-0.301,0.034-0.653,0.052-0.995,0.117c-0.802,0.153-1.519,0.494-2.108,1.067     c-0.565,0.549-0.593,1.431-0.078,2.016c0.418,0.475,1.038,0.473,1.699-0.004c0.045-0.033,0.092-0.065,0.136-0.099     c0.493-0.374,1.059-0.521,1.663-0.46c0.498,0.05,0.925,0.264,1.103,0.778c0.172,0.497-0.068,0.872-0.418,1.189     c-0.176,0.159-0.378,0.29-0.569,0.432c-1.148,0.853-1.647,2.194-1.294,3.481c0.168,0.612,0.453,0.934,0.829,0.933     c0.367,0,0.647-0.288,0.81-0.897c0.17-0.632,0.495-1.161,0.994-1.573c0.4-0.329,0.837-0.613,1.239-0.938     c1.259-1.018,1.565-2.593,0.765-3.996C52.732,45.238,51.397,44.722,49.775,44.632z" /><path
           style="fill:#0a425a;fill-opacity:1"
           id="path8"
           d="M49.986,55.098c-0.928,0.002-1.516,0.571-1.514,1.466c0.002,0.884,0.632,1.531,1.489,1.528     c0.899-0.003,1.545-0.642,1.541-1.525C51.497,55.669,50.906,55.096,49.986,55.098z" /></g></g><path
       style="fill:#0a425a;fill-opacity:1"
       id="path14"
       d="M36.053,51.362c0-5.234,2.881-9.801,7.136-12.22c-1.38-0.743-2.953-1.304-4.736-1.672c-1.467-0.303-3.441-2.511-4.282-4.31   l-0.448,0.334c-2.109,1.7-4.541,2.595-7.12,2.602c-2.579-0.008-5.011-0.902-7.12-2.602l0.653,0.529   c-0.376-0.264-0.743-0.551-1.101-0.863c-0.84,1.798-2.814,4.006-4.282,4.31C8.292,38.803,4.411,42.513,3.602,49.203L2.34,58.871   c-0.041,0.788,0.054,0.924,0.782,1.205c0.345,0.134,0.693,0.262,1.044,0.378c3.203,1.052,6.511,1.607,9.85,1.885   C18.213,62.69,22.424,62.87,24.588,63c6.714-0.057,11.69-0.253,16.495-0.877C38.012,59.543,36.053,55.678,36.053,51.362z" /></g></svg>