<?xml version="1.0" encoding="UTF-8" standalone="no"?>
<svg
   xmlns:dc="http://purl.org/dc/elements/1.1/"
   xmlns:cc="http://creativecommons.org/ns#"
   xmlns:rdf="http://www.w3.org/1999/02/22-rdf-syntax-ns#"
   xmlns:svg="http://www.w3.org/2000/svg"
   xmlns="http://www.w3.org/2000/svg"
   xmlns:sodipodi="http://sodipodi.sourceforge.net/DTD/sodipodi-0.dtd"
   xmlns:inkscape="http://www.inkscape.org/namespaces/inkscape"
   inkscape:version="1.0 (4035a4fb49, 2020-05-01)"
   sodipodi:docname="observation_add.svg"
   id="svg12"
   xml:space="preserve"
   style="enable-background:new 0 0 100 100;"
   viewBox="0 0 100 100"
   y="0px"
   x="0px"
   version="1.1"
   fill="#000000"
   width="100px"
   height="100px"><metadata
     id="metadata18"><rdf:RDF><cc:Work
         rdf:about=""><dc:format>image/svg+xml</dc:format><dc:type
           rdf:resource="http://purl.org/dc/dcmitype/StillImage" /><dc:title></dc:title></cc:Work></rdf:RDF></metadata><defs
     id="defs16" /><sodipodi:namedview
     inkscape:document-rotation="0"
     inkscape:current-layer="g6"
     inkscape:window-maximized="1"
     inkscape:window-y="-8"
     inkscape:window-x="-8"
     inkscape:cy="39.317648"
     inkscape:cx="48.517607"
     inkscape:zoom="3.337544"
     showgrid="false"
     id="namedview14"
     inkscape:window-height="1017"
     inkscape:window-width="1920"
     inkscape:pageshadow="2"
     inkscape:pageopacity="0"
     guidetolerance="10"
     gridtolerance="10"
     objecttolerance="10"
     borderopacity="1"
     bordercolor="#666666"
     pagecolor="#ffffff" /><g
     style="fill:#0a425a;fill-opacity:1"
     id="g6"><path
       inkscape:connector-curvature="0"
       style="fill:#e6e6e6;fill-opacity:1"
       id="path2"
       d="m 62.5,46.8 c -5.1,0 -9.3,-4.1 -9.3,-9.3 0,-0.4 0.1,-0.8 0.1,-1.2 -1.1,-0.3 -2.2,-0.4 -3.3,-0.4 -7.8,0 -14.1,6.3 -14.1,14.1 0,7.8 6.3,14.1 14.1,14.1 7.8,0 14.1,-6.3 14.1,-14.1 0,-1.1 -0.2,-2.3 -0.4,-3.3 -0.4,0 -0.8,0.1 -1.2,0.1 z" /><path
       inkscape:connector-curvature="0"
       style="fill:#0a425a;fill-opacity:1"
       id="path4"
       d="M 96.8,48 C 96,47 75.7,21.8 50,21.8 24.3,21.8 4,47 3.2,48 2.3,49.1 2.3,50.8 3.2,51.9 4,53 24.3,78.2 50,78.2 75.7,78.2 96,53 96.8,52 c 0.9,-1.2 0.9,-2.8 0,-4 z M 50,70.5 C 38.7,70.5 29.5,61.3 29.5,50 29.5,38.7 38.7,29.5 50,29.5 61.3,29.5 70.5,38.7 70.5,50 70.5,61.3 61.3,70.5 50,70.5 Z M 9.8,50 c 2.9,-3.3 9.5,-9.9 18.1,-15.1 -2.9,4.3 -4.7,9.5 -4.7,15.1 0,5.6 1.7,10.8 4.7,15.1 C 19.3,59.9 12.7,53.3 9.8,50 Z M 72.1,65.1 C 75,60.8 76.8,55.6 76.8,50 76.8,44.4 75.1,39.2 72.1,34.9 80.7,40 87.3,46.7 90.2,50 87.3,53.3 80.7,59.9 72.1,65.1 Z" /><g
       style="stroke:#0a425a;stroke-opacity:1"
       id="g856"><g
         id="g851"
         transform="matrix(0.75975326,0,0,0.75975326,11.961436,11.961437)"
         style="fill:#000000;fill-opacity:1;stroke:#0a425a;stroke-opacity:1"><path
           id="path832"
           d="M 36.299621,49.788136 H 63.276644"
           style="opacity:0.996;fill:#0a425a;stroke:#0a425a;stroke-width:4.77;stroke-linecap:round;stroke-linejoin:miter;stroke-miterlimit:4;stroke-dasharray:none;stroke-opacity:1;fill-opacity:1" /><path
           style="opacity:0.996;fill:#000000;fill-opacity:1;stroke:#0a425a;stroke-width:4.77;stroke-linecap:round;stroke-linejoin:miter;stroke-miterlimit:4;stroke-dasharray:none;stroke-opacity:1"
           d="m 49.788133,36.299626 v 26.97702"
           id="path832-9" /></g></g></g></svg>
