<?xml version="1.0" encoding="UTF-8" standalone="no"?>
<svg
   xmlns:dc="http://purl.org/dc/elements/1.1/"
   xmlns:cc="http://creativecommons.org/ns#"
   xmlns:rdf="http://www.w3.org/1999/02/22-rdf-syntax-ns#"
   xmlns:svg="http://www.w3.org/2000/svg"
   xmlns="http://www.w3.org/2000/svg"
   xmlns:sodipodi="http://sodipodi.sourceforge.net/DTD/sodipodi-0.dtd"
   xmlns:inkscape="http://www.inkscape.org/namespaces/inkscape"
   height="200"
   width="200"
   version="1.1"
   x="0px"
   y="0px"
   viewBox="0 0 134 134"
   enable-background="new 0 0 67 67"
   xml:space="preserve"
   id="svg10"
   sodipodi:docname="pack-envoi.svg"
   inkscape:version="0.92.4 (5da689c313, 2019-01-14)"
   style="fill:#000000"><metadata
     id="metadata16"><rdf:RDF><cc:Work
         rdf:about=""><dc:format>image/svg+xml</dc:format><dc:type
           rdf:resource="http://purl.org/dc/dcmitype/StillImage" /><dc:title></dc:title></cc:Work></rdf:RDF></metadata><defs
     id="defs14" /><sodipodi:namedview
     pagecolor="#ffffff"
     bordercolor="#666666"
     borderopacity="1"
     objecttolerance="10"
     gridtolerance="10"
     guidetolerance="10"
     inkscape:pageopacity="0"
     inkscape:pageshadow="2"
     inkscape:window-width="1920"
     inkscape:window-height="1016"
     id="namedview12"
     showgrid="false"
     inkscape:snap-global="false"
     inkscape:zoom="3.337544"
     inkscape:cx="32.491359"
     inkscape:cy="95.514888"
     inkscape:window-x="0"
     inkscape:window-y="27"
     inkscape:window-maximized="1"
     inkscape:current-layer="svg10" /><rect
     style="opacity:1;fill:#cccccc;fill-opacity:1;stroke:#0a425a;stroke-width:0.41782677;stroke-linecap:round;stroke-miterlimit:4;stroke-dasharray:none;stroke-opacity:1"
     id="rect853"
     width="135.50383"
     height="134.50009"
     x="0"
     y="-0.50009948" /><path
     inkscape:connector-curvature="0"
     id="path6"
     d="M 60.557355,45.789656 V 33.741175 c 0,-5.387801 -3.532511,-9.961256 -8.401112,-11.539993 1.683456,-0.721526 4.412518,-1.651405 7.248137,-1.617236 l 0.02763,-1.664051 c -2.287355,-0.02358 -4.534384,0.450027 -6.724459,1.257233 0.556376,-1.06669 0.941613,-2.391875 1.133469,-3.960503 0.158717,-1.287252 -1.22257,-2.145736 -2.307574,-1.533232 -1.536669,0.864991 -2.806598,0.538371 -4.460767,0.01667 -2.001135,-0.631456 -3.59072,-0.941079 -5.173343,0.691455 -0.405445,0.416828 -0.580146,1.089189 -0.424949,1.635206 0.340398,1.192635 0.790183,2.229115 1.329495,3.100296 -2.156295,-0.76642 -4.356471,-1.217895 -6.608469,-1.194915 l 0.02763,1.664052 c 1.83455,-0.04316 4.33747,0.373422 7.128793,1.530088 -4.990683,1.505053 -8.637656,6.140054 -8.637656,11.614952 v 12.048479 c -1.217162,0.472705 -2.085756,1.649282 -2.085756,3.031985 v 0.433083 c 0,1.797319 1.461736,3.259035 3.25823,3.259035 h 23.498237 c 1.796497,0 3.258233,-1.461731 3.258233,-3.259035 v -0.433083 c 0,-1.382703 -0.868592,-2.559295 -2.085756,-3.031985 z M 46.572168,16.286915 c 2.000505,0.631591 3.69754,0.96664 5.590175,-0.06337 -0.277074,2.011407 -1.165161,5.167257 -4.002503,5.372826 -3.128225,0.215319 -4.530637,-3.078656 -5.066903,-5.045374 1.018999,-1.050741 1.99826,-0.731218 3.479231,-0.264076 z m -10.19395,17.454269 c 0,-4.662832 3.065353,-8.620081 7.285614,-9.97086 l -2.322708,3.593348 1.397544,0.90353 3.199213,-4.949348 c 0.285959,-0.02479 0.573848,-0.0426 0.865848,-0.04383 v 3.975081 h 1.664053 v -3.97508 c 0.239639,9.99e-4 0.474919,0.01904 0.710549,0.03596 l 3.140007,4.960472 1.405668,-0.890525 -2.323825,-3.67109 c 4.326594,1.285971 7.49311,5.293706 7.49311,10.032353 v 11.82143 H 36.378218 Z M 60.979059,49.25474 c 0,0.879151 -0.715029,1.594982 -1.594182,1.594982 H 35.886641 c -0.879153,0 -1.594179,-0.715831 -1.594179,-1.594982 v -0.433083 c 0,-0.879151 0.715026,-1.594981 1.594179,-1.594981 h 23.498236 c 0.879153,0 1.594182,0.71583 1.594182,1.594981 z"
     style="fill:#0a425a;fill-opacity:1;stroke-width:0.83202595" /><g
     transform="matrix(0.31822432,0,0,0.31822432,7.6311733,68.24876)"
     data-name="Enveloppe Grid"
     id="g14"
     style="fill:#0a425a;fill-opacity:1"><path
       inkscape:connector-curvature="0"
       d="m 124,44 h -8 l -7.2,-7.16 -3.12,-3.12 a 3.71,3.71 0 0 0 -0.56,-0.56 2.12,2.12 0 0 0 -2.24,0 3.71,3.71 0 0 0 -0.56,0.56 L 99.2,36.84 92,44 h -8 l 7.16,-7.16 11.16,-11.12 a 3.71,3.71 0 0 1 0.56,-0.56 2.12,2.12 0 0 1 2.24,0 3.71,3.71 0 0 1 0.56,0.56 l 11.16,11.12 z"
       id="path4"
       style="fill:#0a425a;fill-opacity:1" /><path
       inkscape:connector-curvature="0"
       d="m 104.6,88.6 a 1,1 0 0 0 -1.2,0 L 104,88 Z"
       id="path6-8"
       style="fill:#0a425a;fill-opacity:1" /><path
       inkscape:connector-curvature="0"
       d="m 149.92,55.2 v 26.88 l -25.2,25.2 a 1,1 0 0 1 -1.44,0 L 104.8,88.8 104.6,88.6 104,88 84.72,107.28 a 1,1 0 0 1 -1.44,0 L 64,88 57.92,81.92 V 55.2 a 4,4 0 0 1 4,-4 h 84 a 4,4 0 0 1 4,4 z"
       id="path8"
       style="fill:#0a425a;fill-opacity:1" /><path
       inkscape:connector-curvature="0"
       d="m 163.68,83.72 a 3.71,3.71 0 0 0 -0.56,-0.56 L 160.68,80.68 160,80 156,76 v 8 l -31.16,31.16 a 0.36,0.36 0 0 1 -0.24,0.24 L 124,116 104.8,96.8 104.6,96.6 a 1,1 0 0 0 -1.2,0 l -18.68,18.68 a 1,1 0 0 1 -1.44,0 L 65.2,97.2 57.92,89.92 56,88 52,84 v -8 l -7.12,7.16 A 3.71,3.71 0 0 0 44.32,83.72 2,2 0 0 0 44,84.84 V 154 a 5,5 0 0 0 0.28,1.72 5.91,5.91 0 0 0 4,4 A 5,5 0 0 0 50,160 h 108 a 5,5 0 0 0 1.72,-0.28 5.91,5.91 0 0 0 4,-4 A 5,5 0 0 0 164,154 V 84.84 a 2,2 0 0 0 -0.32,-1.12 z M 53,146.56 a 1,1 0 0 1 -1,-1 V 94.4 a 1,1 0 0 1 1,-1 1,1 0 0 1 0.72,0.32 l 25.56,25.56 a 1.07,1.07 0 0 1 0,1.44 L 53.72,146.28 A 1.15,1.15 0 0 1 53,146.56 Z M 149.6,152 H 58.44 a 1,1 0 0 1 -1,-1 1.15,1.15 0 0 1 0.28,-0.72 L 103.4,104.6 a 1,1 0 0 1 1.2,0 l 0.2,0.2 38.88,38.88 6.6,6.6 a 1,1 0 0 1 0.32,0.72 1,1 0 0 1 -1,1 z m 6.4,-6.44 a 1,1 0 0 1 -1,1 1.15,1.15 0 0 1 -0.72,-0.28 l -2.6,-2.6 -23,-23 a 1.07,1.07 0 0 1 0,-1.44 l 25.56,-25.56 a 1,1 0 0 1 0.72,-0.32 1,1 0 0 1 1,1 z"
       id="path10"
       style="fill:#0a425a;fill-opacity:1" /><path
       inkscape:connector-curvature="0"
       d="m 104.6,88.6 a 1,1 0 0 0 -1.2,0 L 104,88 Z"
       id="path12"
       style="fill:#0a425a;fill-opacity:1" /></g><circle
     style="opacity:0.4510002;fill:#000000;fill-opacity:1;stroke:none;stroke-width:0.64897507;stroke-linecap:round;stroke-miterlimit:4;stroke-dasharray:none;stroke-opacity:1"
     id="path844"
     cx="46.929371"
     cy="38.77116"
     r="2.149657" /><circle
     style="opacity:0.4510002;fill:#000000;fill-opacity:1;stroke:none;stroke-width:0.64897507;stroke-linecap:round;stroke-miterlimit:4;stroke-dasharray:none;stroke-opacity:1"
     id="path844-8"
     cx="56.354786"
     cy="41.582256"
     r="2.149657" /><circle
     style="opacity:0.4510002;fill:#000000;fill-opacity:1;stroke:none;stroke-width:0.64897507;stroke-linecap:round;stroke-miterlimit:4;stroke-dasharray:none;stroke-opacity:1"
     id="path844-1"
     cx="52.55154"
     cy="37.282932"
     r="2.149657" /><circle
     style="opacity:0.4510002;fill:#000000;fill-opacity:1;stroke:none;stroke-width:0.64897507;stroke-linecap:round;stroke-miterlimit:4;stroke-dasharray:none;stroke-opacity:1"
     id="path844-0"
     cx="40.755993"
     cy="35.133274"
     r="2.149657" /><circle
     style="opacity:0.4510002;fill:#000000;fill-opacity:1;stroke:none;stroke-width:0.64897507;stroke-linecap:round;stroke-miterlimit:4;stroke-dasharray:none;stroke-opacity:1"
     id="path844-3"
     cx="42.13398"
     cy="41.416897"
     r="2.149657" /><circle
     style="opacity:0.4510002;fill:#000000;fill-opacity:1;stroke:none;stroke-width:0.64897507;stroke-linecap:round;stroke-miterlimit:4;stroke-dasharray:none;stroke-opacity:1"
     id="path844-04"
     cx="50.897964"
     cy="43.235828"
     r="2.149657" /><rect
     style="opacity:1;fill:none;fill-opacity:1;stroke:#000000;stroke-width:0.23310658;stroke-linecap:round;stroke-miterlimit:4;stroke-dasharray:none;stroke-opacity:1"
     id="rect885"
     width="13.505883"
     height="5.2676101"
     x="43.510338"
     y="28.928637" /><path
     style="fill:#0a425a;fill-opacity:1;stroke:#000000;stroke-width:1.04065442px;stroke-linecap:butt;stroke-linejoin:miter;stroke-opacity:1"
     d="m 45.074964,30.720851 h 9.97768"
     id="path887"
     inkscape:connector-curvature="0" /><path
     style="fill:#0a425a;fill-opacity:1;stroke:#000000;stroke-width:1.04065442px;stroke-linecap:butt;stroke-linejoin:miter;stroke-opacity:1"
     d="m 45.386767,32.903468 h 4.521136"
     id="path893"
     inkscape:connector-curvature="0" /><path
     inkscape:connector-curvature="0"
     id="path6-4"
     d="M 119.17506,109.25292 V 97.20444 c 0,-5.387794 -3.53251,-9.961253 -8.40111,-11.539988 1.68346,-0.721531 4.41252,-1.65141 7.24814,-1.617239 l 0.0276,-1.664053 c -2.28736,-0.02361 -4.53439,0.450029 -6.72446,1.257235 0.55637,-1.066686 0.94161,-2.391874 1.13347,-3.960498 0.15871,-1.28726 -1.22257,-2.145744 -2.30758,-1.53324 -1.53667,0.864991 -2.8066,0.538371 -4.46077,0.01667 -2.00113,-0.631456 -3.59072,-0.941079 -5.17334,0.691455 -0.40544,0.416828 -0.580145,1.089197 -0.42495,1.635214 0.3404,1.192621 0.79019,2.229113 1.3295,3.100296 -2.156298,-0.766434 -4.356474,-1.217907 -6.608472,-1.19492 l 0.02763,1.664053 c 1.83455,-0.04318 4.33747,0.373424 7.128792,1.530089 -4.990682,1.50505 -8.637655,6.140047 -8.637655,11.614946 v 12.04848 c -1.217162,0.47269 -2.085756,1.64928 -2.085756,3.03198 v 0.43308 c 0,1.79732 1.461736,3.25904 3.25823,3.25904 h 23.498241 c 1.7965,0 3.25823,-1.46173 3.25823,-3.25904 v -0.43308 c 0,-1.38272 -0.86859,-2.55929 -2.08575,-3.03198 z M 105.18987,79.75018 c 2.00051,0.631584 3.69754,0.966644 5.59018,-0.06337 -0.27708,2.011399 -1.16516,5.167253 -4.0025,5.372821 -3.12823,0.215322 -4.53064,-3.07866 -5.06691,-5.045372 1.019,-1.05074 1.99826,-0.731217 3.47923,-0.264079 z M 94.995923,97.20446 c 0,-4.662851 3.065353,-8.620087 7.285617,-9.970872 l -2.322711,3.593349 1.397541,0.903537 3.19922,-4.949353 c 0.28596,-0.02485 0.57384,-0.04256 0.86584,-0.0438 v 3.975083 h 1.66406 V 86.73732 c 0.23964,9.94e-4 0.47492,0.01911 0.71055,0.03588 l 3.14001,4.960473 1.40566,-0.89052 -2.32382,-3.671103 c 4.32659,1.285985 7.49311,5.293716 7.49311,10.03236 v 11.82143 H 94.995923 Z m 24.600847,15.51353 c 0,0.87917 -0.71503,1.595 -1.59419,1.595 H 94.504346 c -0.879153,0 -1.594179,-0.71583 -1.594179,-1.595 v -0.43307 c 0,-0.87915 0.715026,-1.59498 1.594179,-1.59498 h 23.498234 c 0.87916,0 1.59419,0.71583 1.59419,1.59498 z"
     style="fill:#0a425a;fill-opacity:1;stroke-width:0.83202595" /><circle
     style="opacity:0.4510002;fill:#000000;fill-opacity:1;stroke:none;stroke-width:0.64897507;stroke-linecap:round;stroke-miterlimit:4;stroke-dasharray:none;stroke-opacity:1"
     id="path844-4"
     cx="105.54708"
     cy="102.23444"
     r="2.149657" /><circle
     style="opacity:0.4510002;fill:#000000;fill-opacity:1;stroke:none;stroke-width:0.64897507;stroke-linecap:round;stroke-miterlimit:4;stroke-dasharray:none;stroke-opacity:1"
     id="path844-8-4"
     cx="114.9725"
     cy="105.04552"
     r="2.149657" /><circle
     style="opacity:0.4510002;fill:#000000;fill-opacity:1;stroke:none;stroke-width:0.64897507;stroke-linecap:round;stroke-miterlimit:4;stroke-dasharray:none;stroke-opacity:1"
     id="path844-1-7"
     cx="111.16926"
     cy="100.74619"
     r="2.149657" /><circle
     style="opacity:0.4510002;fill:#000000;fill-opacity:1;stroke:none;stroke-width:0.64897507;stroke-linecap:round;stroke-miterlimit:4;stroke-dasharray:none;stroke-opacity:1"
     id="path844-0-6"
     cx="99.373703"
     cy="98.596542"
     r="2.149657" /><circle
     style="opacity:0.4510002;fill:#000000;fill-opacity:1;stroke:none;stroke-width:0.64897507;stroke-linecap:round;stroke-miterlimit:4;stroke-dasharray:none;stroke-opacity:1"
     id="path844-3-3"
     cx="100.75169"
     cy="104.88016"
     r="2.149657" /><circle
     style="opacity:0.4510002;fill:#000000;fill-opacity:1;stroke:none;stroke-width:0.64897507;stroke-linecap:round;stroke-miterlimit:4;stroke-dasharray:none;stroke-opacity:1"
     id="path844-04-1"
     cx="109.51567"
     cy="106.69909"
     r="2.149657" /><rect
     style="opacity:1;fill:none;fill-opacity:1;stroke:#000000;stroke-width:0.23310658;stroke-linecap:round;stroke-miterlimit:4;stroke-dasharray:none;stroke-opacity:1"
     id="rect885-7"
     width="13.505883"
     height="5.2676101"
     x="102.12804"
     y="92.391899" /><path
     style="fill:#0a425a;fill-opacity:1;stroke:#000000;stroke-width:1.04065442px;stroke-linecap:butt;stroke-linejoin:miter;stroke-opacity:1"
     d="m 103.69267,94.184119 h 9.97768"
     id="path887-5"
     inkscape:connector-curvature="0" /><path
     style="fill:#0a425a;fill-opacity:1;stroke:#000000;stroke-width:1.04065442px;stroke-linecap:butt;stroke-linejoin:miter;stroke-opacity:1"
     d="m 104.00447,96.366729 h 4.52114"
     id="path893-9"
     inkscape:connector-curvature="0" /><path
     inkscape:connector-curvature="0"
     id="path6-6"
     d="M 116.05512,57.371552 V 45.323066 c 0,-5.3878 -3.53251,-9.961256 -8.40111,-11.539992 1.68345,-0.721527 4.41252,-1.651406 7.24813,-1.617236 l 0.0276,-1.664052 c -2.28735,-0.02358 -4.53438,0.450027 -6.72445,1.257233 0.55637,-1.066689 0.94161,-2.391874 1.13346,-3.960502 0.15872,-1.287252 -1.22257,-2.145736 -2.30757,-1.533232 -1.53667,0.86499 -2.8066,0.538371 -4.46077,0.01667 -2.00113,-0.631457 -3.59072,-0.941079 -5.17334,0.691454 -0.40545,0.416829 -0.58015,1.08919 -0.42495,1.635207 0.3404,1.192635 0.79018,2.229114 1.32949,3.100296 -2.15629,-0.76642 -4.356466,-1.217895 -6.608464,-1.194915 l 0.02763,1.664051 c 1.834549,-0.04316 4.337464,0.373423 7.128794,1.530088 -4.990684,1.505054 -8.637658,6.140054 -8.637658,11.614953 v 12.048483 c -1.217162,0.472691 -2.085756,1.649275 -2.085756,3.031985 v 0.433079 c 0,1.797311 1.461736,3.259037 3.25823,3.259037 h 23.498234 c 1.7965,0 3.25824,-1.461735 3.25824,-3.259037 v -0.433079 c 0,-1.382717 -0.8686,-2.559303 -2.08576,-3.031992 z M 102.06993,27.868806 c 2.00051,0.631592 3.69754,0.966641 5.59018,-0.06337 -0.27708,2.011406 -1.16516,5.167256 -4.00251,5.372826 -3.12822,0.215319 -4.53063,-3.078657 -5.0669,-5.045374 1.019,-1.050741 1.99826,-0.731218 3.47923,-0.264076 z m -10.193948,17.45427 c 0,-4.662833 3.065353,-8.620081 7.285618,-9.97086 l -2.32271,3.593347 1.39754,0.90353 3.19921,-4.949348 c 0.28596,-0.02479 0.57385,-0.0426 0.86585,-0.04383 v 3.975081 h 1.66406 v -3.975078 c 0.23963,9.99e-4 0.47491,0.01904 0.71055,0.03596 l 3.14,4.960472 1.40567,-0.890525 -2.32382,-3.671091 c 4.32659,1.285971 7.49311,5.293707 7.49311,10.032352 v 11.82143 H 91.875982 Z m 24.600838,15.513546 c 0,0.879155 -0.71503,1.594987 -1.59418,1.594987 H 91.384405 c -0.879153,0 -1.594179,-0.715832 -1.594179,-1.594987 v -0.433078 c 0,-0.879151 0.715026,-1.594983 1.594179,-1.594983 h 23.498235 c 0.87915,0 1.59418,0.715832 1.59418,1.594983 z"
     style="fill:#0a425a;fill-opacity:1;stroke-width:0.83202595" /><circle
     style="opacity:0.4510002;fill:#000000;fill-opacity:1;stroke:none;stroke-width:0.64897507;stroke-linecap:round;stroke-miterlimit:4;stroke-dasharray:none;stroke-opacity:1"
     id="path844-2"
     cx="102.42713"
     cy="50.353043"
     r="2.149657" /><circle
     style="opacity:0.4510002;fill:#000000;fill-opacity:1;stroke:none;stroke-width:0.64897507;stroke-linecap:round;stroke-miterlimit:4;stroke-dasharray:none;stroke-opacity:1"
     id="path844-8-1"
     cx="111.85256"
     cy="53.164135"
     r="2.149657" /><circle
     style="opacity:0.4510002;fill:#000000;fill-opacity:1;stroke:none;stroke-width:0.64897507;stroke-linecap:round;stroke-miterlimit:4;stroke-dasharray:none;stroke-opacity:1"
     id="path844-1-78"
     cx="108.04931"
     cy="48.864826"
     r="2.149657" /><circle
     style="opacity:0.4510002;fill:#000000;fill-opacity:1;stroke:none;stroke-width:0.64897507;stroke-linecap:round;stroke-miterlimit:4;stroke-dasharray:none;stroke-opacity:1"
     id="path844-0-5"
     cx="96.253761"
     cy="46.715172"
     r="2.149657" /><circle
     style="opacity:0.4510002;fill:#000000;fill-opacity:1;stroke:none;stroke-width:0.64897507;stroke-linecap:round;stroke-miterlimit:4;stroke-dasharray:none;stroke-opacity:1"
     id="path844-3-7"
     cx="97.631752"
     cy="52.998775"
     r="2.149657" /><circle
     style="opacity:0.4510002;fill:#000000;fill-opacity:1;stroke:none;stroke-width:0.64897507;stroke-linecap:round;stroke-miterlimit:4;stroke-dasharray:none;stroke-opacity:1"
     id="path844-04-4"
     cx="106.39573"
     cy="54.817722"
     r="2.149657" /><rect
     style="opacity:1;fill:none;fill-opacity:1;stroke:#000000;stroke-width:0.23310658;stroke-linecap:round;stroke-miterlimit:4;stroke-dasharray:none;stroke-opacity:1"
     id="rect885-1"
     width="13.505883"
     height="5.2676101"
     x="99.008095"
     y="40.510532" /><path
     style="fill:#0a425a;fill-opacity:1;stroke:#000000;stroke-width:1.04065442px;stroke-linecap:butt;stroke-linejoin:miter;stroke-opacity:1"
     d="m 100.57273,42.302741 h 9.97768"
     id="path887-8"
     inkscape:connector-curvature="0" /><path
     style="fill:#0a425a;fill-opacity:1;stroke:#000000;stroke-width:1.04065442px;stroke-linecap:butt;stroke-linejoin:miter;stroke-opacity:1"
     d="m 100.88453,44.485358 h 4.52114"
     id="path893-5"
     inkscape:connector-curvature="0" /><path
     style="fill:#ffffff;stroke:#ffffff;stroke-width:1.04065442px;stroke-linecap:butt;stroke-linejoin:miter;stroke-opacity:1"
     d="M 28.087439,86.972308 H 49.804486"
     id="path961"
     inkscape:connector-curvature="0"
     sodipodi:nodetypes="cc" /><path
     style="fill:#ffffff;stroke:#ffffff;stroke-width:0.9171052px;stroke-linecap:butt;stroke-linejoin:miter;stroke-opacity:1"
     d="M 28.087439,90.169229 H 44.953978"
     id="path961-9"
     inkscape:connector-curvature="0"
     sodipodi:nodetypes="cc" /><path
     style="fill:#ffffff;stroke:#ffffff;stroke-width:1.04065442px;stroke-linecap:butt;stroke-linejoin:miter;stroke-opacity:1"
     d="M 28.087439,93.366149 H 49.804486"
     id="path961-7"
     inkscape:connector-curvature="0"
     sodipodi:nodetypes="cc" /><path
     style="stroke-width:0.31738669;fill:#0a425a;fill-opacity:1"
     inkscape:connector-curvature="0"
     d="m 30.725603,77.747853 1.214763,-7.34931 c 0.02098,-0.130977 0.01839,-0.259762 -0.0068,-0.382216 -0.08412,-0.42238 -0.420989,-0.768423 -0.871052,-0.843552 -0.58051,-0.09578 -1.128857,0.297297 -1.224885,0.877633 l -0.777392,4.704484 c -4.004676,-4.426453 -5.879363,-8.526241 -6.593475,-12.095243 -0.807721,-4.050365 -0.123388,-7.458319 0.796666,-9.915071 0.919975,-2.453761 2.082179,-3.938621 2.17825,-4.056905 0.0039,-0.0058 0.0039,-0.0058 0.0039,-0.0058 l 0.0012,-2.16e-4 c 0.211009,-0.256786 0.282121,-0.583625 0.221815,-0.886722 -0.0465,-0.231704 -0.16985,-0.450572 -0.367253,-0.612774 -0.453954,-0.374132 -1.124984,-0.309031 -1.49967,0.14455 -0.04926,0.06176 -1.354048,1.652956 -2.43319,4.407621 -1.076666,2.750983 -1.921888,6.686085 -0.991453,11.342906 0.789791,3.962857 2.867457,8.416663 7.068017,13.068785 L 22.653313,75.39474 v 0 c -0.581654,-0.09121 -1.125956,0.306099 -1.217934,0.887229 -0.09148,0.581478 0.305926,1.12622 0.887405,1.217671 l 7.187189,1.127221 c 0.577426,0.0907 1.119968,-0.301702 1.215908,-0.879045 z"
     id="path2"
     inkscape:transform-center-x="2.5855064"
     inkscape:transform-center-y="0.68439874" /><path
     style="fill:#0a425a;stroke-width:0.31738669;fill-opacity:1"
     inkscape:connector-curvature="0"
     d="m 59.344953,88.127953 6.685427,3.285278 c 0.119337,0.05791 0.243387,0.09261 0.367883,0.103905 0.428678,0.04143 0.857257,-0.181156 1.059151,-0.590351 0.259317,-0.528127 0.04135,-1.166617 -0.486535,-1.426138 l -4.279574,-2.102794 c 5.394309,-2.555841 9.860794,-3.166765 13.483965,-2.819832 4.11106,0.396314 7.176215,2.03561 9.262619,3.625906 2.083566,1.589356 3.169559,3.130833 3.25506,3.256968 0.0044,0.0055 0.0044,0.0055 0.0044,0.0055 l -1.09e-4,0.0011 c 0.184914,0.276172 0.477293,0.438635 0.784892,0.468425 0.235259,0.02239 0.480424,-0.0325 0.69272,-0.174656 0.489282,-0.326576 0.620729,-0.987818 0.294669,-1.477522 -0.0449,-0.06499 -1.191527,-1.773689 -3.517216,-3.602323 -2.322877,-1.825203 -5.846262,-3.770757 -10.573376,-4.224713 -4.022102,-0.388211 -8.886136,0.314815 -14.553068,2.993028 l 2.102959,-4.370669 v 0 c 0.255269,-0.530545 0.03208,-1.166381 -0.497728,-1.422254 -0.530301,-0.25547 -1.166582,-0.03233 -1.422052,0.497973 l -3.154648,6.555495 c -0.25354,0.526653 -0.03457,1.159378 0.490477,1.41795 z"
     id="path2-5"
     inkscape:transform-center-x="0.25040583"
     inkscape:transform-center-y="-4.8176707" /><path
     style="fill:#0a425a;stroke-width:0.31738669;fill-opacity:1"
     inkscape:connector-curvature="0"
     d="m 58.111212,75.304295 7.206257,-1.886228 c 0.128155,-0.03423 0.244699,-0.08909 0.346272,-0.161957 0.351416,-0.248975 0.53011,-0.697631 0.41527,-1.139237 -0.149164,-0.569135 -0.731594,-0.909657 -1.300678,-0.760804 l -4.612827,1.207611 c 2.409811,-5.461108 5.389489,-8.84404 8.357511,-10.950836 3.36943,-2.388476 6.760382,-3.152615 9.378807,-3.313802 2.615662,-0.160046 4.445286,0.296023 4.592459,0.335546 0.007,8.53e-4 0.007,8.53e-4 0.007,8.53e-4 l 5.81e-4,8.64e-4 c 0.320501,0.08801 0.647929,0.01974 0.900133,-0.158864 0.192606,-0.136914 0.342248,-0.338727 0.409881,-0.585119 0.156615,-0.567027 -0.176342,-1.153256 -0.743252,-1.310527 -0.07653,-0.0198 -2.061317,-0.562744 -5.01663,-0.425397 -2.950938,0.138096 -6.88884,0.970181 -10.76205,3.717902 -3.29683,2.336434 -6.517051,6.049014 -9.053097,11.780979 l -1.267055,-4.681853 v 0 c -0.153808,-0.568317 -0.738448,-0.903422 -1.306602,-0.750553 -0.568264,0.153496 -0.903732,0.738396 -0.750235,1.306659 l 1.899928,7.022819 c 0.152571,0.564242 0.731992,0.899745 1.298304,0.752033 z"
     id="path2-3"
     inkscape:transform-center-x="2.1461425"
     inkscape:transform-center-y="-1.2062442" /></svg>