<?xml version="1.0" encoding="UTF-8" standalone="no"?>
<svg
   xmlns:ns="http://ns.adobe.com/SaveForWeb/1.0/"
   xmlns:dc="http://purl.org/dc/elements/1.1/"
   xmlns:cc="http://creativecommons.org/ns#"
   xmlns:rdf="http://www.w3.org/1999/02/22-rdf-syntax-ns#"
   xmlns:svg="http://www.w3.org/2000/svg"
   xmlns="http://www.w3.org/2000/svg"
   xmlns:sodipodi="http://sodipodi.sourceforge.net/DTD/sodipodi-0.dtd"
   xmlns:inkscape="http://www.inkscape.org/namespaces/inkscape"
   height="100px"
   width="100px"
   fill="#000000"
   version="1.1"
   x="0px"
   y="0px"
   viewBox="0 0 64 64"
   enable-background="new 0 0 64 64"
   xml:space="preserve"
   id="svg26"
   sodipodi:docname="pack.svg"
   inkscape:version="0.92.4 (5da689c313, 2019-01-14)"><defs
     id="defs30" /><sodipodi:namedview
     pagecolor="#ffffff"
     bordercolor="#666666"
     borderopacity="1"
     objecttolerance="10"
     gridtolerance="10"
     guidetolerance="10"
     inkscape:pageopacity="0"
     inkscape:pageshadow="2"
     inkscape:window-width="779"
     inkscape:window-height="480"
     id="namedview28"
     showgrid="false"
     inkscape:zoom="2.36"
     inkscape:cx="50"
     inkscape:cy="50"
     inkscape:window-x="0"
     inkscape:window-y="27"
     inkscape:window-maximized="0"
     inkscape:current-layer="svg26" /><metadata
     id="metadata2"><ns:sfw><ns:slices /><ns:sliceSourceBounds
         y="-8160"
         x="-8165"
         width="16389"
         height="16384"
         bottomLeftOrigin="true" /><ns:optimizationSettings><ns:targetSettings
           targetSettingsID="0"
           fileFormat="PNG24Format"><ns:PNG24Format
             transparency="true"
             filtered="false"
             interlaced="false"
             noMatteColor="false"
             matteColor="#FFFFFF" /></ns:targetSettings></ns:optimizationSettings></ns:sfw><rdf:RDF><cc:Work
         rdf:about=""><dc:format>image/svg+xml</dc:format><dc:type
           rdf:resource="http://purl.org/dc/dcmitype/StillImage" /><dc:title></dc:title></cc:Work></rdf:RDF></metadata><g
     id="g24"
     style="fill:#8f690a;fill-opacity:1"><g
       id="g22"
       style="fill:#8f690a;fill-opacity:1"><path
         d="M8,17h3v5c0,0.552,0.448,1,1,1s1-0.448,1-1v-5h3c0.552,0,1-0.448,1-1v-3h5c0.552,0,1-0.448,1-1s-0.448-1-1-1h-5V8    c0-0.552-0.448-1-1-1H8C7.448,7,7,7.448,7,8v8C7,16.552,7.448,17,8,17z M9,9h6v6H9V9z"
         id="path4"
         style="fill:#8f690a;fill-opacity:1" /><path
         d="M56,7h-8c-0.553,0-1,0.448-1,1v3h-5c-0.553,0-1,0.448-1,1s0.447,1,1,1h5v3c0,0.552,0.447,1,1,1h3v5c0,0.552,0.447,1,1,1    s1-0.448,1-1v-5h3c0.553,0,1-0.448,1-1V8C57,7.448,56.553,7,56,7z M55,15h-6V9h6V15z"
         id="path6"
         style="fill:#8f690a;fill-opacity:1" /><path
         d="M56,47h-3v-5c0-0.553-0.447-1-1-1s-1,0.447-1,1v5h-3c-0.553,0-1,0.447-1,1v3h-5c-0.553,0-1,0.447-1,1s0.447,1,1,1h5v3    c0,0.553,0.447,1,1,1h8c0.553,0,1-0.447,1-1v-8C57,47.447,56.553,47,56,47z M55,55h-6v-6h6V55z"
         id="path8"
         style="fill:#8f690a;fill-opacity:1" /><path
         d="M45,42V30c0-0.552-0.447-1-1-1h-7v-5c0-0.552-0.447-1-1-1H20c-0.552,0-1,0.448-1,1v12c0,0.553,0.448,1,1,1h7v5    c0,0.553,0.448,1,1,1h16C44.553,43,45,42.553,45,42z M21,25h14v10H21V25z M43,41H29v-4h7c0.553,0,1-0.447,1-1v-5h6V41z"
         id="path10"
         style="fill:#8f690a;fill-opacity:1" /><path
         d="M30,13h4c0.553,0,1-0.448,1-1s-0.447-1-1-1h-4c-0.552,0-1,0.448-1,1S29.448,13,30,13z"
         id="path12"
         style="fill:#8f690a;fill-opacity:1" /><path
         d="M52,35c0.553,0,1-0.447,1-1v-4c0-0.552-0.447-1-1-1s-1,0.448-1,1v4C51,34.553,51.447,35,52,35z"
         id="path14"
         style="fill:#8f690a;fill-opacity:1" /><path
         d="M22,51h-5v-3c0-0.553-0.448-1-1-1h-3v-5c0-0.553-0.448-1-1-1s-1,0.447-1,1v5H8c-0.552,0-1,0.447-1,1v8    c0,0.553,0.448,1,1,1h8c0.552,0,1-0.447,1-1v-3h5c0.552,0,1-0.447,1-1S22.552,51,22,51z M15,55H9v-6h6V55z"
         id="path16"
         style="fill:#8f690a;fill-opacity:1" /><path
         d="M34,51h-4c-0.552,0-1,0.447-1,1s0.448,1,1,1h4c0.553,0,1-0.447,1-1S34.553,51,34,51z"
         id="path18"
         style="fill:#8f690a;fill-opacity:1" /><path
         d="M12,29c-0.552,0-1,0.448-1,1v4c0,0.553,0.448,1,1,1s1-0.447,1-1v-4C13,29.448,12.552,29,12,29z"
         id="path20"
         style="fill:#8f690a;fill-opacity:1" /></g></g></svg>