<?xml version="1.0" encoding="UTF-8" standalone="no"?>
<svg
   xmlns:dc="http://purl.org/dc/elements/1.1/"
   xmlns:cc="http://creativecommons.org/ns#"
   xmlns:rdf="http://www.w3.org/1999/02/22-rdf-syntax-ns#"
   xmlns:svg="http://www.w3.org/2000/svg"
   xmlns="http://www.w3.org/2000/svg"
   xmlns:sodipodi="http://sodipodi.sourceforge.net/DTD/sodipodi-0.dtd"
   xmlns:inkscape="http://www.inkscape.org/namespaces/inkscape"
   height="100px"
   width="100px"
   fill="#000000"
   version="1.0"
   x="0px"
   y="0px"
   viewBox="0 0 500 500"
   style="enable-background:new 0 0 500 500;"
   xml:space="preserve"
   id="svg34"
   sodipodi:docname="paillasse.svg"
   inkscape:version="1.0.2 (1.0.2+r75+1)"><metadata
     id="metadata40"><rdf:RDF><cc:Work
         rdf:about=""><dc:format>image/svg+xml</dc:format><dc:type
           rdf:resource="http://purl.org/dc/dcmitype/StillImage" /><dc:title></dc:title></cc:Work></rdf:RDF></metadata><defs
     id="defs38" /><sodipodi:namedview
     pagecolor="#ffffff"
     bordercolor="#666666"
     borderopacity="1"
     objecttolerance="10"
     gridtolerance="10"
     guidetolerance="10"
     inkscape:pageopacity="0"
     inkscape:pageshadow="2"
     inkscape:window-width="1920"
     inkscape:window-height="1016"
     id="namedview36"
     showgrid="false"
     inkscape:zoom="8.7"
     inkscape:cx="50"
     inkscape:cy="50"
     inkscape:window-x="0"
     inkscape:window-y="27"
     inkscape:window-maximized="1"
     inkscape:current-layer="svg34" /><g
     id="g32"
     style="fill:#999999"><g
       id="g6"
       style="fill:#999999"><g
         id="g4"
         style="fill:#999999"><path
           d="M280.48,98c-48.45-0.94-96.93,0.1-145.3,3.12c-2.25,0.14-4.02,1.76-4.08,4.08c-1.93,74.73-3.86,149.46-5.79,224.19     c-0.49,18.8-0.97,37.59-1.46,56.39c-0.24,9.29-0.48,18.57-0.72,27.86c-0.17,6.75-2.24,16.95,4.11,21.66     c2.75,2.04,6.11,2.29,9.42,2.29c4.52,0,9.04-0.12,13.55-0.17c9.49-0.12,18.97-0.24,28.46-0.37c18.52-0.24,37.04-0.48,55.56-0.72     c42.01-0.54,84.02-1.08,126.03-1.62c2.29-0.03,3.96-1.85,4.08-4.08c2.6-48.63,5.21-97.26,7.81-145.89     c1.31-24.43,2.64-48.85,3.92-73.28c0.27-5.17,0.12-10.12-3.04-14.47c-3.28-4.52-7.74-8.35-11.64-12.33     c-8.36-8.54-16.73-17.09-25.09-25.63c-19.25-19.66-38.5-39.33-57.76-58.99c-3.68-3.76-9.45,2.01-5.77,5.77     c16.57,16.92,33.14,33.85,49.71,50.77c8.36,8.54,16.73,17.09,25.09,25.63c4.1,4.19,8.21,8.38,12.31,12.57     c3.9,3.99,8.19,7.17,8.17,13.16c-0.04,11.55-1.19,23.2-1.81,34.73c-0.64,11.99-1.28,23.98-1.92,35.96     c-1.27,23.75-2.54,47.5-3.81,71.25c-1.44,26.92-2.88,53.83-4.32,80.75c1.36-1.36,2.72-2.72,4.08-4.08     c-72.5,0.93-145,1.87-217.5,2.8c-2.03,0.03-4.07,0.08-6.1,0.08c-1.27,0-3.44,0.3-4.54-0.61c-2.22-1.82-1.01-8.06-0.95-10.42     c0.23-9.06,0.47-18.12,0.7-27.18c0.47-18.34,0.95-36.69,1.42-55.03c0.94-36.23,1.87-72.46,2.81-108.7     c1.05-40.76,2.11-81.52,3.16-122.28c-1.36,1.36-2.72,2.72-4.08,4.08c48.37-3.02,96.85-4.06,145.3-3.12     C285.74,106.26,285.74,98.1,280.48,98L280.48,98z"
           id="path2"
           style="fill:#999999" /></g></g><g
       id="g12"
       style="fill:#999999"><g
         id="g10"
         style="fill:#999999"><path
           d="M274.37,101.17c-0.75,25.61-0.01,51.25,2.29,76.78c0.28,3.11,0.58,6.21,0.91,9.31c0.26,2.5,0.33,5.18,1.84,7.31     c3.09,4.36,11,4.3,15.73,5.2c11.83,2.27,24.37,5.89,36.51,4.76c3.56-0.33,7.05-1.28,10.61-1.53c3.34-0.24,6.34,0.64,9.55,1.4     c6.81,1.61,13.62,1.15,20.52,0.43c5.17-0.54,5.23-8.71,0-8.16c-5.45,0.57-11.18,1.31-16.62,0.25     c-5.46-1.06-10.21-2.56-15.86-1.81c-5.56,0.73-10.79,1.71-16.44,1.3c-5.87-0.43-11.66-1.72-17.43-2.83     c-5.78-1.11-11.57-2.2-17.35-3.33c-0.86-0.17-2.24-0.17-2.61-0.66c-0.51-0.65-0.34-2.82-0.42-3.65c-0.32-3.1-0.61-6.21-0.89-9.31     c-1.03-11.76-1.74-23.55-2.13-35.35c-0.43-13.36-0.44-26.73-0.05-40.09C282.68,95.92,274.52,95.92,274.37,101.17L274.37,101.17z"
           id="path8"
           style="fill:#999999" /></g></g><g
       id="g18"
       style="fill:#999999"><g
         id="g16"
         style="fill:#999999"><path
           d="M181.3,267.91c23.58,2.73,47.35,1.14,70.99,0.06c23.74-1.09,47.48-2.17,71.22-3.26c5.23-0.24,5.26-8.4,0-8.16     c-23.74,1.09-47.48,2.17-71.22,3.26c-23.63,1.08-47.41,2.67-70.99-0.06C176.09,259.14,176.13,267.31,181.3,267.91L181.3,267.91z"
           id="path14"
           style="fill:#999999" /></g></g><g
       id="g24"
       style="fill:#999999"><g
         id="g22"
         style="fill:#999999"><path
           d="M175.18,333.4c47.94-6.58,96.52-8.33,144.82-5.44c5.25,0.31,5.23-7.85,0-8.16c-49.07-2.95-98.29-0.96-146.99,5.73     c-2.2,0.3-3.36,3.09-2.85,5.02C170.78,332.91,173,333.69,175.18,333.4L175.18,333.4z"
           id="path20"
           style="fill:#999999" /></g></g><g
       id="g30"
       style="fill:#999999"><g
         id="g28"
         style="fill:#999999"><path
           d="M174.16,393.13c50.8-8.8,102.94-7.58,154.31-8.34c5.25-0.08,5.26-8.24,0-8.16c-52.14,0.77-104.92-0.3-156.48,8.63     C166.82,386.15,169.01,394.02,174.16,393.13L174.16,393.13z"
           id="path26"
           style="fill:#999999" /></g></g></g></svg>
