<?xml version="1.0" encoding="UTF-8" standalone="no"?>
<svg
   xmlns:dc="http://purl.org/dc/elements/1.1/"
   xmlns:cc="http://creativecommons.org/ns#"
   xmlns:rdf="http://www.w3.org/1999/02/22-rdf-syntax-ns#"
   xmlns:svg="http://www.w3.org/2000/svg"
   xmlns="http://www.w3.org/2000/svg"
   xmlns:sodipodi="http://sodipodi.sourceforge.net/DTD/sodipodi-0.dtd"
   xmlns:inkscape="http://www.inkscape.org/namespaces/inkscape"
   width="100"
   height="100"
   viewBox="0 0 26.458335 26.458334"
   version="1.1"
   id="svg826"
   inkscape:version="1.0 (4035a4fb49, 2020-05-01)"
   sodipodi:docname="pl.svg"
   inkscape:export-filename="C:\Users\michel.bouy\Serveur\parasitlab\storage\app\public\img\icones\bv.png"
   inkscape:export-xdpi="96"
   inkscape:export-ydpi="96">
  <defs
     id="defs820" />
  <sodipodi:namedview
     id="base"
     pagecolor="#ffffff"
     bordercolor="#666666"
     borderopacity="1.0"
     inkscape:pageopacity="0.0"
     inkscape:pageshadow="2"
     inkscape:zoom="3.959798"
     inkscape:cx="2.7396255"
     inkscape:cy="31.481569"
     inkscape:document-units="mm"
     inkscape:current-layer="layer1"
     showgrid="false"
     units="px"
     inkscape:window-width="1920"
     inkscape:window-height="1001"
     inkscape:window-x="-9"
     inkscape:window-y="-9"
     inkscape:window-maximized="1"
     fit-margin-top="0"
     fit-margin-left="0"
     fit-margin-right="0"
     fit-margin-bottom="0"
     inkscape:document-rotation="0" />
  <metadata
     id="metadata823">
    <rdf:RDF>
      <cc:Work
         rdf:about="">
        <dc:format>image/svg+xml</dc:format>
        <dc:type
           rdf:resource="http://purl.org/dc/dcmitype/StillImage" />
        <dc:title></dc:title>
      </cc:Work>
    </rdf:RDF>
  </metadata>
  <g
     inkscape:label="Calque 1"
     inkscape:groupmode="layer"
     id="layer1"
     transform="translate(0.31892297,-266.6957)">
    <rect
       style="opacity:0.57399998;fill:#cccccc;fill-opacity:1;stroke:none;stroke-width:0.64068139;stroke-linejoin:round;stroke-miterlimit:4;stroke-dasharray:none;stroke-dashoffset:0;stroke-opacity:1"
       id="rect4491"
       width="27.388849"
       height="26.585409"
       x="-0.78418094"
       y="266.63217" />
    <g
       transform="matrix(0.37797618,0,0,0.37797618,0.08265852,266.89684)"
       id="g8">
      <path
         d="m 62.28174,28.22338 c 0.25,-1.58002 -0.81,-3.07001 -2.39996,-3.39001 -6.04004,-1.22003 -11.91003,0.10999 -17.45001,3.94 -2,1.39996 -2.85999,-2.81 -9.79999,-2.60004 -1.86005,0.12006 -1.48004,-1.92999 -6.86005,-14.16998 -0.09998,-0.23999 -0.20996,-0.47998 -0.32996,-0.70996 4.69,-2.57001 2.90997,-6.23004 -0.92004,-6.31 -0.82001,-0.04004 -0.88,-0.04004 -0.92999,-0.29004 -0.20996,-0.73999 -0.70996,-1.26001 -1.39996,-1.52997 -2.11005,-0.79004 -2.96002,1.48999 -3.51001,1.38 -0.29999,-0.03003 -1.82001,-1.44 -3.21002,-0.5 -1.44,0.95996 -0.72998,3.23999 -0.07001,4.82996 -0.20996,0.17004 -0.40997,0.35004 -0.62,0.54999 -2.04999,-0.18994 -4.97998,1.13 -6.75,2.19 -0.21997,0.14001 -0.34998,0.38 -0.34998,0.64001 0,0.26001 0.13,0.5 0.34998,0.64001 0.14001,0.09003 3.27002,2.01001 6.01001,2.20001 2.22998,7.19 -1.23999,11.41998 -1.58002,17.94 -0.56,10.82001 4.08002,16.91998 14.17999,18.64996 2.11005,0.35004 1.78003,3.81 6.39001,4.29004 0.83002,2.38995 2.52002,3.72998 5.09003,4.06 0.06,0.01001 0.10999,0.01001 0.16998,0.01996 v 2.95001 c -0.44,-0.45001 -0.96997,-0.79999 -1.59998,-0.87 -1.59003,-0.19 -3.76001,1.98999 -2.34003,2.60003 -0.90997,0.09998 -2.13,-0.34003 -2.91998,0.73999 l -0.25,0.33997 c -0.23999,0.33002 -0.16998,0.79999 0.15997,1.04999 0.13,0.10004 0.29004,0.14001 0.44,0.14001 0.70001,0 0.70001,-0.76996 1.12,-0.76996 h 6.08002 c 0.09998,0.02997 0.21002,0.0099 1.01001,0 0.69,0.0099 1.08002,0.33997 1.33997,0.44995 0.37,0.20001 0.82001,0.06 1.02002,-0.31 0.19,-0.35999 0.04999,-0.82001 -0.31,-1.01001 l -0.40002,-0.20996 c -0.92999,-0.5 -1.73999,-0.40002 -1.84998,-0.41998 v -4.67004 c 0.31,-0.01996 0.62,-0.06 0.94,-0.12 3.01001,-0.53998 4.88,-1.96997 5.59003,-4.26001 0.09998,-0.01996 5.46997,0.06 8.25,-3.44995 1.71997,-2.17004 2.25,-5.35004 1.58997,-9.46002 -0.08997,-0.54999 0.25,-1.10004 0.81,-1.29999 2.76001,-0.97003 5.67999,-3.45001 3.91998,-9.75 -0.13995,-0.48004 -0.01996,-0.97003 0.30005,-1.26001 0.57996,-0.54001 0.94001,-1.29001 1.08997,-2.23996 z M 34.94178,64.73339 c 0.44995,-0.20001 0.85999,-1.20001 1.57001,-1.11004 0.40997,0.04999 0.84998,0.51001 1.22998,1.11004 z M 18.55176,6.03338 c 1.91998,0.20001 2.45001,-2.85004 3.59998,-0.92999 0.42999,1.97998 2.71002,0.94 3.98999,1.78998 1.51001,1.02002 0.05005,2.26001 -1.52997,3.15002 -1.83002,-2.33002 -5.07001,-3.57001 -7.94,-2.03003 -1.78003,-4.65997 0.98999,-2.06 1.88,-1.97998 z m -8.56,6.21997 c 1.52002,-0.76001 5.27002,-2.28998 5.27002,-0.54999 v 1.09998 c 0,1.74005 -3.71002,0.22003 -5.27002,-0.54999 z m 50.81,15.73999 c -0.09003,0.61005 -0.31,1.07001 -0.63,1.36005 -0.73999,0.67999 -1.02002,1.73999 -0.72998,2.77997 1.57996,5.62 -0.94,7.21002 -2.96002,7.91998 -1.25,0.44 -2.01001,1.69 -1.79999,2.96002 0.58997,3.67999 0.15997,6.47003 -1.28003,8.28998 -1.35999,1.70001 -3.58997,2.65002 -6.78998,2.88 0.08002,-0.92999 0.02997,-1.95996 -0.16998,-3.08997 -0.07001,-0.41003 -0.46002,-0.67004 -0.87,-0.60999 -0.40002,0.06995 -0.68005,0.45996 -0.61005,0.87 0.77002,4.38 -0.77997,6.44 -4.48999,7.10999 -3.83002,0.71997 -6.44,-1.13 -6.56,-6.37 -0.01001,-0.42004 -0.33997,-0.71002 -0.77002,-0.73004 -0.40997,0.01001 -0.73999,0.35004 -0.72998,0.76001 0.02002,0.83002 0.09003,1.59003 0.22003,2.28003 -3.44,-0.72003 -2.75,-3.67999 -5.74005,-4.20001 -9.33997,-1.59998 -13.44995,-7.03003 -12.92999,-17.09003 0.32001,-6.25 3.84003,-10.69995 1.56,-18.26996 1.67004,-0.85999 1.61005,-3.58002 0.66003,-4.67004 2.53998,-2.26996 5.44,-1.33997 7.09998,0.61005 0.98004,1.08997 0.75,0.95996 6.5,14.98999 0.48004,1.17999 1.64001,1.92999 2.89001,1.89996 6.62,-0.25 7.39001,4.58002 10.62,2.34003 5.26001,-3.65002 10.59003,-4.85999 16.28998,-3.71002 0.79004,0.16003 1.34003,0.92004 1.22003,1.69 z"
         id="path2-6" />
      <path
         d="m 47.99176,38.21338 c -0.35004,-0.22003 -0.81,-0.12 -1.03003,0.22998 -0.21997,0.35004 -0.12,0.81 0.23004,1.04004 3.48999,2.21997 3.32001,4.20996 2.72998,5.58997 -2.47998,0.47003 -4.56,0.13 -6.29999,-1.04999 -0.07001,-0.09003 -0.17004,-0.16003 -0.28003,-0.20001 -1.23999,-0.90997 -2.29999,-2.27002 -3.21997,-4.08997 -0.19,-0.37006 -0.64001,-0.52002 -1.01001,-0.33002 -0.37,0.19 -0.52002,0.64001 -0.33002,1.01001 0.82001,1.62 1.77002,2.94 2.83002,3.94 -5.66132,2.28846 -8.96242,-1.922 -11.14001,-7.61005 -0.14996,-0.38995 -0.58997,-0.57996 -0.96997,-0.42999 -0.39001,0.15002 -0.58002,0.58002 -0.44,0.97003 1.06,2.76001 2.26996,4.88 3.64996,6.38995 -5.44995,-0.56 -8.26001,-4.20996 -8.81,-11.31 -0.02997,-0.40998 -0.39996,-0.70996 -0.79999,-0.69 -0.40997,0.03003 -0.71997,0.39002 -0.69,0.81006 1.08316,14.13053 11.29843,12.46501 12.14001,12.77997 2.60839,1.72052 5.54831,1.48665 8.40997,0.14001 3.17631,2.0657 7.77868,1.42905 8.14001,0.66998 1.02004,-2.02996 1.31002,-5.03997 -3.10997,-7.85997 z"
         id="path4-4" />
      <path
         d="m 20.04175,12.07336 c -0.67999,0 -1.21997,0.54999 -1.21997,1.22003 0,0.67999 0.53998,1.21997 1.21997,1.21997 0.66998,0 1.22003,-0.53998 1.22003,-1.21997 0,-0.67004 -0.55005,-1.22003 -1.22003,-1.22003 z"
         id="path6-7" />
    </g>
  </g>
</svg>
