<?xml version="1.0" encoding="UTF-8" standalone="no"?>
<svg
   xmlns:dc="http://purl.org/dc/elements/1.1/"
   xmlns:cc="http://creativecommons.org/ns#"
   xmlns:rdf="http://www.w3.org/1999/02/22-rdf-syntax-ns#"
   xmlns:svg="http://www.w3.org/2000/svg"
   xmlns="http://www.w3.org/2000/svg"
   id="svg80"
   xml:space="preserve"
   style="enable-background:new 0 0 512 512;"
   viewBox="0 0 512 512"
   y="0px"
   x="0px"
   version="1.1"
   fill="#1A1A1A"
   width="100px"
   height="100px"><metadata
     id="metadata86"><rdf:RDF><cc:Work
         rdf:about=""><dc:format>image/svg+xml</dc:format><dc:type
           rdf:resource="http://purl.org/dc/dcmitype/StillImage" /><dc:title></dc:title></cc:Work></rdf:RDF></metadata><defs
     id="defs84" /><g
     id="g78"><g
       id="g76"><g
         id="g4"><path
           id="path2"
           d="M420.02,464c-0.006,0-0.014,0-0.02,0H230c-2.095,0-3.834-1.616-3.989-3.704l-20-270     c-0.082-1.109,0.301-2.202,1.058-3.018c0.757-0.815,1.819-1.278,2.931-1.278h180c2.038,0,3.75,1.533,3.976,3.558l29.955,269.598     c0.059,0.272,0.089,0.555,0.089,0.844C424.02,462.209,422.229,464,420.02,464z M233.715,456h181.816L386.42,194H214.307     L233.715,456z" /></g><g
         id="g8"><path
           id="path6"
           d="M230.02,464c-0.007-0.001-0.013,0-0.02,0H120c-1.138,0-2.222-0.484-2.98-1.332s-1.121-1.979-0.995-3.109l30-270     C146.25,187.533,147.962,186,150,186h60c2.095,0,3.834,1.616,3.989,3.705l19.97,269.597c0.04,0.227,0.061,0.46,0.061,0.698     C234.02,462.209,232.229,464,230.02,464z M124.469,456h101.224l-19.408-262H153.58L124.469,456z" /></g><g
         id="g12"><path
           id="path10"
           d="M305,334c-27.019,0-49-21.981-49-49v-55c0-2.209,1.791-4,4-4s4,1.791,4,4v55c0,22.607,18.393,41,41,41s41-18.393,41-41     v-55c0-2.209,1.791-4,4-4s4,1.791,4,4v55C354,312.019,332.019,334,305,334z" /></g><g
         id="g16"><path
           id="path14"
           d="M229.996,464c-0.762,0-1.533-0.217-2.215-0.672l-57.566-38.378l-47.716,38.173c-1.726,1.383-4.242,1.102-5.623-0.624     c-1.38-1.726-1.1-4.242,0.625-5.622l50-40c1.36-1.087,3.268-1.172,4.718-0.205l60,40c1.838,1.226,2.335,3.709,1.109,5.547     C232.558,463.375,231.289,464,229.996,464z" /></g><g
         id="g20"><path
           id="path18"
           d="M170.003,424c-0.059,0-0.117-0.001-0.177-0.004c-2.207-0.096-3.918-1.963-3.822-4.17l10-230     c0.096-2.207,1.961-3.931,4.17-3.822c2.207,0.096,3.918,1.963,3.822,4.17l-10,230C173.903,422.321,172.132,424,170.003,424z" /></g><g
         id="g24"><path
           id="path22"
           d="M410,424H290c-2.209,0-4-1.791-4-4s1.791-4,4-4h120c2.209,0,4,1.791,4,4S412.209,424,410,424z" /></g><g
         id="g28"><path
           id="path26"
           d="M360,234h-20c-2.209,0-4-1.791-4-4s1.791-4,4-4h20c2.209,0,4,1.791,4,4S362.209,234,360,234z" /></g><g
         id="g32"><path
           id="path30"
           d="M270,234h-20c-2.209,0-4-1.791-4-4s1.791-4,4-4h20c2.209,0,4,1.791,4,4S272.209,234,270,234z" /></g><g
         id="g36"><path
           id="path34"
           d="M260,424c-1.05,0-2.08-0.431-2.83-1.17c-0.74-0.74-1.17-1.78-1.17-2.83c0-1.061,0.43-2.09,1.17-2.83     c0.75-0.74,1.78-1.17,2.83-1.17s2.08,0.43,2.83,1.17c0.739,0.75,1.17,1.78,1.17,2.83s-0.431,2.08-1.17,2.83     C262.08,423.569,261.05,424,260,424z" /></g><g
         id="g40"><path
           id="path38"
           d="M440,464H40c-2.209,0-4-1.791-4-4s1.791-4,4-4h400c2.209,0,4,1.791,4,4S442.209,464,440,464z" /></g><g
         id="g44"><path
           id="path42"
           d="M210,144c-13.234,0-24-10.766-24-24s10.766-24,24-24s24,10.766,24,24S223.234,144,210,144z M210,104     c-8.822,0-16,7.178-16,16s7.178,16,16,16s16-7.178,16-16S218.822,104,210,104z" /></g><g
         id="g48"><path
           id="path46"
           d="M475,354c-10.477,0-19-8.523-19-19s8.523-19,19-19s19,8.523,19,19S485.477,354,475,354z M475,324     c-6.065,0-11,4.935-11,11s4.935,11,11,11s11-4.935,11-11S481.065,324,475,324z" /></g><g
         id="g52"><path
           id="path50"
           d="M440,114c-18.748,0-34-15.252-34-34s15.252-34,34-34s34,15.252,34,34S458.748,114,440,114z M440,54     c-14.337,0-26,11.664-26,26s11.663,26,26,26s26-11.664,26-26S454.337,54,440,54z" /></g><g
         id="g56"><path
           id="path54"
           d="M470,464c-1.05,0-2.08-0.431-2.83-1.17c-0.74-0.74-1.17-1.771-1.17-2.83c0-1.05,0.43-2.09,1.17-2.83     c0.75-0.74,1.78-1.17,2.83-1.17s2.08,0.43,2.83,1.17c0.739,0.74,1.17,1.78,1.17,2.83c0,1.06-0.431,2.09-1.17,2.83     C472.08,463.569,471.05,464,470,464z" /></g><g
         id="g74"><rect
           id="rect58"
           height="20"
           width="20"
           y="210"
           x="70" /><rect
           id="rect60"
           height="20"
           width="20"
           y="190"
           x="50" /><rect
           id="rect62"
           height="20"
           width="20"
           y="170"
           x="70" /><rect
           id="rect64"
           height="20"
           width="20"
           y="150"
           x="50" /><rect
           id="rect66"
           height="20"
           width="20"
           y="130"
           x="70" /><rect
           id="rect68"
           height="20"
           width="20"
           y="110"
           x="50" /><rect
           id="rect70"
           height="20"
           width="20"
           y="90"
           x="70" /><rect
           id="rect72"
           height="20"
           width="20"
           y="70"
           x="50" /></g></g></g></svg>