<?xml version="1.0" encoding="UTF-8" standalone="no"?>
<svg
   xmlns:dc="http://purl.org/dc/elements/1.1/"
   xmlns:cc="http://creativecommons.org/ns#"
   xmlns:rdf="http://www.w3.org/1999/02/22-rdf-syntax-ns#"
   xmlns:svg="http://www.w3.org/2000/svg"
   xmlns="http://www.w3.org/2000/svg"
   xmlns:xlink="http://www.w3.org/1999/xlink"
   xmlns:sodipodi="http://sodipodi.sourceforge.net/DTD/sodipodi-0.dtd"
   xmlns:inkscape="http://www.inkscape.org/namespaces/inkscape"
   id="svg81"
   xml:space="preserve"
   enable-background="new 0 0 100 100"
   viewBox="0 0 137.31535 168.8493"
   y="0px"
   x="0px"
   version="1.1"
   width="137.31535"
   height="168.8493"
   sodipodi:docname="quand.svg"
   inkscape:version="0.92.4 (5da689c313, 2019-01-14)"
   style="fill:#1a1a1a"><sodipodi:namedview
     pagecolor="#ffffff"
     bordercolor="#666666"
     borderopacity="1"
     objecttolerance="10"
     gridtolerance="10"
     guidetolerance="10"
     inkscape:pageopacity="0"
     inkscape:pageshadow="2"
     inkscape:window-width="1920"
     inkscape:window-height="1016"
     id="namedview45"
     showgrid="false"
     inkscape:snap-global="false"
     inkscape:zoom="2.36"
     inkscape:cx="-65.847908"
     inkscape:cy="24.475823"
     inkscape:window-x="0"
     inkscape:window-y="27"
     inkscape:window-maximized="1"
     inkscape:current-layer="svg81"
     fit-margin-top="10"
     fit-margin-left="10"
     fit-margin-right="10"
     fit-margin-bottom="10" /><metadata
     id="metadata87"><rdf:RDF><cc:Work
         rdf:about=""><dc:format>image/svg+xml</dc:format><dc:type
           rdf:resource="http://purl.org/dc/dcmitype/StillImage" /><dc:title></dc:title></cc:Work></rdf:RDF></metadata><defs
     id="defs85" /><symbol
     id="symbol6"
     viewBox="-27.299 -39.024 54.598 78.047"
     transform="translate(4.2599998,33.813559)"><path
       id="path2"
       d="M 11.157,34.02 C 9.882,32.17 7.749,30.994 5.424,30.994 c -2.13,0 -4.118,0.985 -5.424,2.607 -1.306,-1.622 -3.294,-2.607 -5.423,-2.607 -2.325,0 -4.457,1.176 -5.734,3.026 -1.275,-1.85 -3.408,-3.026 -5.733,-3.026 -1.913,0 -3.648,0.776 -4.908,2.029 v -66.474 c 1.26,1.253 2.995,2.029 4.908,2.029 2.325,0 4.458,-1.176 5.733,-3.026 1.277,1.85 3.409,3.026 5.734,3.026 2.129,0 4.117,-0.986 5.423,-2.607 1.306,1.622 3.294,2.607 5.424,2.607 2.325,0 4.458,-1.176 5.733,-3.026 1.277,1.85 3.409,3.026 5.734,3.026 1.913,0 3.647,-0.776 4.907,-2.028 v 66.473 c -1.26,-1.253 -2.994,-2.028 -4.907,-2.028 -2.324,0 -4.456,1.175 -5.734,3.025 z"
       inkscape:connector-curvature="0"
       style="fill:none" /><path
       id="path4"
       d="m -20.463,-37.524 c 0.391,1.615 1.839,2.822 3.573,2.822 1.733,0 3.181,-1.207 3.572,-2.822 h 4.323 c 0.391,1.615 1.839,2.822 3.573,2.822 1.734,0 3.182,-1.207 3.573,-2.822 h 3.701 c 0.391,1.615 1.839,2.822 3.573,2.822 1.734,0 3.182,-1.207 3.573,-2.822 h 4.322 c 0.391,1.615 1.839,2.822 3.573,2.822 1.734,0 3.182,-1.207 3.573,-2.822 h 5.335 v 75.047 h -5.266 c -0.219,-1.825 -1.759,-3.25 -3.641,-3.25 -1.882,0 -3.423,1.425 -3.641,3.25 H 9.065 c -0.219,-1.825 -1.759,-3.25 -3.641,-3.25 -1.882,0 -3.423,1.425 -3.641,3.25 H -1.781 C -2,35.698 -3.54,34.273 -5.422,34.273 c -1.882,0 -3.423,1.425 -3.641,3.25 h -4.186 c -0.219,-1.825 -1.758,-3.25 -3.641,-3.25 -1.883,0 -3.423,1.425 -3.641,3.25 h -5.267 v -75.047 z"
       stroke-miterlimit="10"
       inkscape:connector-curvature="0"
       style="fill:#1a1a1a;stroke:#1a1a1a;stroke-width:3;stroke-miterlimit:10" /></symbol><symbol
     id="symbol12"
     viewBox="-30.282 -48.056 60.563 94.113"
     transform="translate(4.2599998,33.813559)"><path
       id="path8"
       d="m 16.006,43.056 c -3.233,-4.883 -8.77,-8.108 -15.065,-8.108 -6.295,0 -11.832,3.225 -15.065,8.108 h -10.584 v -88.113 h 10.584 c 3.233,4.883 8.77,8.108 15.065,8.108 6.295,0 11.832,-3.224 15.065,-8.108 H 26.59 v 88.113 z"
       stroke-miterlimit="10"
       inkscape:connector-curvature="0"
       style="fill:#1a1a1a;stroke:#1a1a1a;stroke-width:6;stroke-miterlimit:10" /><line
       id="line10"
       y2="-20.754999"
       x2="-27.782"
       y1="-20.754999"
       x1="27.781"
       stroke-miterlimit="10"
       style="fill:none;stroke:#1a1a1a;stroke-width:5;stroke-linecap:round;stroke-linejoin:round;stroke-miterlimit:10;stroke-dasharray:7, 8" /></symbol><symbol
     id="symbol18"
     viewBox="-24.712 -42.834 54.356 85.667"
     transform="translate(4.2599998,33.813559)"><path
       id="path14"
       d="m 17.181,40.333 h -4.475 c -0.466,-2.355 -2.539,-4.131 -5.031,-4.131 -2.491,0 -4.565,1.776 -5.03,4.131 h -4.883 c -0.466,-2.355 -2.539,-4.131 -5.031,-4.131 -2.491,0 -4.565,1.776 -5.03,4.131 h -4.883 c -0.466,-2.355 -2.539,-4.131 -5.03,-4.131 v -72.023 c 2.622,0 4.76,-1.974 5.069,-4.512 h 4.806 c 0.309,2.539 2.447,4.512 5.069,4.512 2.622,0 4.76,-1.974 5.069,-4.512 h 4.806 c 0.309,2.539 2.447,4.512 5.069,4.512 2.622,0 4.76,-1.974 5.069,-4.512 h 4.398 c 0.309,2.539 2.447,4.512 5.069,4.512 v 72.023 c -2.492,0 -4.565,1.776 -5.031,4.131 z"
       stroke-miterlimit="10"
       inkscape:connector-curvature="0"
       style="fill:#1a1a1a;stroke:#1a1a1a;stroke-width:5;stroke-miterlimit:10" /><line
       id="line16"
       y2="-17.395"
       x2="27.643999"
       y1="-17.395"
       x1="-22.643999"
       stroke-miterlimit="10"
       style="fill:none;stroke:#1a1a1a;stroke-width:4;stroke-linecap:round;stroke-linejoin:round;stroke-miterlimit:10;stroke-dasharray:7, 6" /></symbol><symbol
     id="symbol26"
     viewBox="-23.971 -42.094 47.944 84.188"
     transform="translate(4.2599998,33.813559)"><g
       id="g22"><path
         id="path20"
         d="m 17.182,40.333 h -4.475 c -0.466,-2.355 -2.539,-4.131 -5.031,-4.131 -2.491,0 -4.565,1.776 -5.03,4.131 h -4.883 c -0.466,-2.355 -2.539,-4.131 -5.031,-4.131 -2.491,0 -4.565,1.776 -5.03,4.131 h -4.883 c -0.466,-2.355 -2.539,-4.131 -5.03,-4.131 v -72.023 c 2.622,0 4.76,-1.974 5.069,-4.512 h 4.806 c 0.309,2.539 2.447,4.512 5.069,4.512 2.622,0 4.76,-1.974 5.069,-4.512 h 4.806 c 0.309,2.539 2.447,4.512 5.069,4.512 2.622,0 4.76,-1.974 5.069,-4.512 h 4.398 c 0.309,2.539 2.447,4.512 5.069,4.512 v 72.023 c -2.492,0 -4.565,1.776 -5.031,4.131 z"
         stroke-miterlimit="10"
         inkscape:connector-curvature="0"
         style="fill:#1a1a1a;stroke:#1a1a1a;stroke-width:3.52099991;stroke-miterlimit:10" /></g><polygon
       id="polygon24"
       points="-8.301,7.053 -11.951,13.62 -5.201,16.919 -0.084,22.42 5.14,17.02 11.952,13.853 8.431,7.217 7.524,-0.241 0.124,1.057 -7.248,-0.385 "
       stroke-miterlimit="10"
       style="fill:#1a1a1a;stroke:#1a1a1a;stroke-width:3.81130004;stroke-miterlimit:10" /></symbol><symbol
     viewBox="-21.087 -31.266 42.17 72.87"
     id="a"
     transform="translate(4.2599998,33.813559)"><path
       id="path28"
       d="m 6.373,39.104 h 5.21 c 0,-3.87 3.13,-7 7,-7 v -53.87 c -3.87,0 -7,-3.14 -7,-7 h -5.21"
       stroke-miterlimit="10"
       inkscape:connector-curvature="0"
       style="fill:#1a1a1a;stroke:#1a1a1a;stroke-width:5;stroke-miterlimit:10" /><path
       id="path30"
       d="m -6.377,-28.766 h -5.21 c 0,3.86 -3.13,7 -7,7 v 53.87 c 3.87,0 7,3.13 7,7 h 5.21"
       stroke-miterlimit="10"
       inkscape:connector-curvature="0"
       style="fill:#1a1a1a;stroke:#1a1a1a;stroke-width:5;stroke-miterlimit:10" /><line
       id="line32"
       y2="39.104"
       x2="-2.3770001"
       y1="39.104"
       x1="2.3729999"
       stroke-miterlimit="10"
       style="fill:none;stroke:#1a1a1a;stroke-width:5;stroke-miterlimit:10" /><line
       id="line34"
       y2="-28.766001"
       x2="-2.3770001"
       y1="-28.766001"
       x1="2.3729999"
       stroke-miterlimit="10"
       style="fill:none;stroke:#1a1a1a;stroke-width:5;stroke-miterlimit:10" /><g
       id="g44"><path
         id="path36"
         d="m -9.901,-10.118 c 0,-0.994 -0.806,-1.8 -1.8,-1.8 -0.994,0 -1.8,0.806 -1.8,1.8 0,0.994 0.806,1.8 1.8,1.8 0.994,0 1.8,-0.806 1.8,-1.8 z"
         stroke-miterlimit="10"
         inkscape:connector-curvature="0"
         style="stroke:#1a1a1a;stroke-width:0.89999998;stroke-miterlimit:10" /><path
         id="path38"
         d="m -2.101,-10.118 c 0,-0.994 -0.806,-1.8 -1.8,-1.8 -0.994,0 -1.8,0.806 -1.8,1.8 0,0.994 0.806,1.8 1.8,1.8 0.994,0 1.8,-0.806 1.8,-1.8 z"
         stroke-miterlimit="10"
         inkscape:connector-curvature="0"
         style="stroke:#1a1a1a;stroke-width:0.89999998;stroke-miterlimit:10" /><path
         id="path40"
         d="m 5.699,-10.118 c 0,-0.994 -0.806,-1.8 -1.8,-1.8 -0.994,0 -1.8,0.806 -1.8,1.8 0,0.994 0.806,1.8 1.8,1.8 0.994,0 1.8,-0.806 1.8,-1.8 z"
         stroke-miterlimit="10"
         inkscape:connector-curvature="0"
         style="stroke:#1a1a1a;stroke-width:0.89999998;stroke-miterlimit:10" /><path
         id="path42"
         d="m 13.499,-10.118 c 0,-0.994 -0.806,-1.8 -1.8,-1.8 -0.994,0 -1.8,0.806 -1.8,1.8 0,0.994 0.806,1.8 1.8,1.8 0.994,0 1.8,-0.806 1.8,-1.8 z"
         stroke-miterlimit="10"
         inkscape:connector-curvature="0"
         style="stroke:#1a1a1a;stroke-width:0.89999998;stroke-miterlimit:10" /></g></symbol><symbol
     id="symbol51"
     viewBox="-21.086 -31.266 42.17 72.87"
     transform="translate(4.2599998,33.813559)"><use
       id="use47"
       overflow="visible"
       transform="translate(-4.2593001,-33.813827)"
       y="-31.266001"
       x="-21.087"
       height="72.870003"
       width="42.169998"
       xlink:href="#a"
       style="overflow:visible" /><line
       id="line49"
       y2="13.75"
       x2="-9.2229996"
       y1="13.75"
       x1="9.224"
       stroke-miterlimit="10"
       style="fill:none;stroke:#1a1a1a;stroke-width:4;stroke-miterlimit:10" /></symbol><g
     id="g55"
     display="none"
     style="display:none"
     transform="translate(4.2599998,33.813559)"><path
       id="path53"
       d="M 468.792,1074.743 H -769.006 c -2.084,0 -3.789,-1.705 -3.789,-3.789 V -116.211 c 0,-2.084 1.705,-3.789 3.789,-3.789 H 468.792 c 2.084,0 3.789,1.705 3.789,3.789 v 1187.164 c 10e-4,2.085 -1.704,3.79 -3.789,3.79 z"
       display="inline"
       inkscape:connector-curvature="0"
       style="display:inline;fill:#1a1a1a" /></g><text
     xml:space="preserve"
     style="font-style:normal;font-weight:normal;font-size:40px;line-height:1.25;font-family:sans-serif;letter-spacing:0px;word-spacing:0px;fill:#0a425a;fill-opacity:1;stroke:none"
     x="12.920385"
     y="156.27118"
     id="text939"><tspan
       sodipodi:role="line"
       id="tspan937"
       x="12.920385"
       y="156.27118"
       style="font-style:normal;font-variant:normal;font-weight:normal;font-stretch:normal;font-size:26.66666603px;font-family:Roboto;-inkscape-font-specification:Roboto;letter-spacing:2.06000018px;fill:#0a425a;fill-opacity:1">Quand ?</tspan></text>
<g
     transform="matrix(0.27294774,0,0,0.27294774,33.283028,26.880291)"
     style="fill:#0a425a;fill-opacity:1;image-rendering:optimizeQuality;shape-rendering:geometricPrecision;text-rendering:geometricPrecision"
     id="g38"><path
       inkscape:connector-curvature="0"
       class="fil0"
       d="M 7,102 H 249 V 44 h -47 c 0,6 2,12 4,17 2,5 5,8 8,8 v 7 c -5,0 -11,-5 -14,-12 -3,-6 -5,-13 -5,-20 h -37 c 1,6 3,12 5,17 2,5 5,8 8,8 v 7 c -6,0 -11,-5 -15,-12 -2,-6 -4,-13 -5,-20 h -36 c 1,6 2,12 4,17 3,5 6,8 9,8 v 7 c -6,0 -11,-5 -15,-12 -2,-6 -4,-13 -5,-20 H 72 c 0,6 2,12 4,17 2,5 5,8 8,8 v 7 C 79,76 73,71 70,64 67,58 65,51 65,44 H 28 c 1,6 3,12 5,17 2,5 5,8 8,8 v 7 C 35,76 30,71 26,64 24,58 22,51 21,44 H 7 Z M 195,37 c 0,-10 2,-19 5,-25 3,-7 9,-12 14,-12 6,0 12,5 15,12 3,6 5,15 5,25 h 22 V 292 H 0 V 37 H 21 C 21,27 23,18 26,12 30,5 35,0 41,0 c 6,0 11,5 15,12 3,6 5,15 5,25 h 4 C 65,27 67,18 70,12 73,5 79,0 84,0 c 6,0 12,5 15,12 3,6 5,15 5,25 h 4 c 0,-10 2,-19 5,-25 4,-7 9,-12 15,-12 6,0 11,5 15,12 3,6 5,15 5,25 h 3 c 0,-10 2,-19 5,-25 4,-7 9,-12 15,-12 6,0 11,5 15,12 3,6 5,15 5,25 z m 32,0 c 0,-9 -1,-16 -4,-22 -2,-5 -5,-8 -9,-8 -3,0 -6,3 -8,8 -3,6 -4,13 -4,22 z m -43,0 c 0,-9 -2,-16 -4,-22 -3,-5 -6,-8 -9,-8 -3,0 -6,3 -8,8 -3,6 -5,13 -5,22 z m -43,0 c 0,-9 -2,-16 -5,-22 -2,-5 -5,-8 -8,-8 -3,0 -6,3 -9,8 -2,6 -4,13 -4,22 z M 97,37 C 97,28 96,21 93,15 91,10 88,7 84,7 c -3,0 -6,3 -8,8 -3,6 -4,13 -4,22 z M 54,37 C 54,28 52,21 50,15 47,10 44,7 41,7 c -3,0 -6,3 -8,8 -3,6 -5,13 -5,22 z m 195,72 H 7 v 177 h 242 z"
       id="path6"
       style="fill:#0a425a;fill-opacity:1" /><path
       inkscape:connector-curvature="0"
       class="fil1"
       d="m 59,138 v 35 H 24 v -35 z m -7,7 H 31 v 21 h 21 z"
       id="path8-0"
       style="fill:#0a425a;fill-opacity:1" /><path
       inkscape:connector-curvature="0"
       class="fil1"
       d="m 102,138 v 35 H 67 v -35 z m -7,7 H 74 v 21 h 21 z"
       id="path10"
       style="fill:#0a425a;fill-opacity:1" /><path
       inkscape:connector-curvature="0"
       class="fil1"
       d="m 145,138 v 35 h -35 v -35 z m -7,7 h -21 v 21 h 21 z"
       id="path12"
       style="fill:#0a425a;fill-opacity:1" /><path
       inkscape:connector-curvature="0"
       class="fil1"
       d="m 189,138 v 35 h -35 v -35 z m -7,7 h -21 v 21 h 21 z"
       id="path14-6"
       style="fill:#0a425a;fill-opacity:1" /><path
       inkscape:connector-curvature="0"
       class="fil1"
       d="m 232,138 v 35 h -35 v -35 z m -7,7 h -21 v 21 h 21 z"
       id="path16"
       style="fill:#0a425a;fill-opacity:1" /><path
       inkscape:connector-curvature="0"
       class="fil1"
       d="m 59,181 v 36 H 24 v -36 z m -7,7 H 31 v 22 h 21 z"
       id="path18"
       style="fill:#0a425a;fill-opacity:1" /><path
       inkscape:connector-curvature="0"
       class="fil1"
       d="m 102,181 v 36 H 67 v -36 z m -7,7 H 74 v 22 h 21 z"
       id="path20-4"
       style="fill:#0a425a;fill-opacity:1" /><path
       inkscape:connector-curvature="0"
       class="fil1"
       d="m 145,181 v 36 h -35 v -36 z m -7,7 h -21 v 22 h 21 z"
       id="path22"
       style="fill:#0a425a;fill-opacity:1" /><path
       inkscape:connector-curvature="0"
       class="fil1"
       d="m 189,181 v 36 h -35 v -36 z m -7,7 h -21 v 22 h 21 z"
       id="path24"
       style="fill:#0a425a;fill-opacity:1" /><path
       inkscape:connector-curvature="0"
       class="fil1"
       d="m 232,181 v 36 h -35 v -36 z m -7,7 h -21 v 22 h 21 z"
       id="path26"
       style="fill:#0a425a;fill-opacity:1" /><path
       inkscape:connector-curvature="0"
       class="fil1"
       d="m 59,224 v 36 H 24 v -36 z m -7,7 H 31 v 22 h 21 z"
       id="path28-7"
       style="fill:#0a425a;fill-opacity:1" /><path
       inkscape:connector-curvature="0"
       class="fil1"
       d="m 102,224 v 36 H 67 v -36 z m -7,7 H 74 v 22 h 21 z"
       id="path30-4"
       style="fill:#0a425a;fill-opacity:1" /><path
       inkscape:connector-curvature="0"
       class="fil1"
       d="m 145,224 v 36 h -35 v -36 z m -7,7 h -21 v 22 h 21 z"
       id="path32"
       style="fill:#0a425a;fill-opacity:1" /><path
       inkscape:connector-curvature="0"
       class="fil1"
       d="m 189,224 v 36 h -35 v -36 z m -7,7 h -21 v 22 h 21 z"
       id="path34"
       style="fill:#0a425a;fill-opacity:1" /><path
       inkscape:connector-curvature="0"
       class="fil1"
       d="m 232,224 v 36 h -35 v -36 z m -7,7 h -21 v 22 h 21 z"
       id="path36-8"
       style="fill:#0a425a;fill-opacity:1" /></g></svg>