<?xml version="1.0" encoding="UTF-8" standalone="no"?>
<svg
   xmlns:dc="http://purl.org/dc/elements/1.1/"
   xmlns:cc="http://creativecommons.org/ns#"
   xmlns:rdf="http://www.w3.org/1999/02/22-rdf-syntax-ns#"
   xmlns:svg="http://www.w3.org/2000/svg"
   xmlns="http://www.w3.org/2000/svg"
   xmlns:sodipodi="http://sodipodi.sourceforge.net/DTD/sodipodi-0.dtd"
   xmlns:inkscape="http://www.inkscape.org/namespaces/inkscape"
   height="100px"
   width="100px"
   fill="#000000"
   version="1.1"
   x="0px"
   y="0px"
   viewBox="0 0 100 100"
   style="enable-background:new 0 0 100 100;"
   xml:space="preserve"
   id="svg30"
   sodipodi:docname="question2.svg"
   inkscape:version="0.92.4 (5da689c313, 2019-01-14)"><metadata
     id="metadata36"><rdf:RDF><cc:Work
         rdf:about=""><dc:format>image/svg+xml</dc:format><dc:type
           rdf:resource="http://purl.org/dc/dcmitype/StillImage" /><dc:title></dc:title></cc:Work></rdf:RDF></metadata><defs
     id="defs34" /><sodipodi:namedview
     pagecolor="#ffffff"
     bordercolor="#666666"
     borderopacity="1"
     objecttolerance="10"
     gridtolerance="10"
     guidetolerance="10"
     inkscape:pageopacity="0"
     inkscape:pageshadow="2"
     inkscape:window-width="1920"
     inkscape:window-height="1016"
     id="namedview32"
     showgrid="false"
     inkscape:zoom="3.3595708"
     inkscape:cx="6.6054475"
     inkscape:cy="89.692448"
     inkscape:window-x="0"
     inkscape:window-y="27"
     inkscape:window-maximized="1"
     inkscape:current-layer="svg30" /><g
     id="g24"
     style="fill:#0a425a;fill-opacity:1"><path
       d="m 68.3,37.4 6.9,2.3 c 1.4,0.5 2.8,-0.9 2.3,-2.3 l -2.3,-6.9 c 3.3,-6.3 2.4,-14.2 -2.9,-19.6 -5,-5 -12.5,-6.2 -18.5,-3.4 0.2,0.1 0.3,0.3 0.5,0.4 3.9,4 6.1,9.2 6.1,14.8 0,5.6 -2.2,10.8 -6.1,14.8 -0.2,0.2 -0.3,0.3 -0.5,0.5 4.6,2 10,1.8 14.5,-0.6 z"
       id="path12"
       inkscape:connector-curvature="0"
       style="fill:#0a425a;fill-opacity:1" /><path
       d="m 51.3,10.9 c -6.5,-6.5 -17.1,-6.5 -23.6,0 -5.3,5.3 -6.2,13.2 -2.9,19.5 l -2.3,6.9 c -0.5,1.5 0.9,2.8 2.3,2.3 l 6.9,-2.3 c 6.3,3.3 14.2,2.4 19.5,-2.9 6.6,-6.4 6.6,-17 0.1,-23.5 z M 39.8,32.5 c -1.1,0 -2.1,-0.9 -2.1,-2.1 0,-1.1 0.9,-2.1 2.1,-2.1 1.1,0 2.1,0.9 2.1,2.1 -0.1,1.1 -1,2.1 -2.1,2.1 z M 44.7,22 c -0.8,1.1 -1.6,1.7 -2.2,2.1 -0.7,0.5 -1,0.7 -1,1.8 0,0.5 -0.5,0.9 -0.9,0.9 h -1.5 c -0.6,0 -1,-0.5 -1,-1 0.2,-2.6 1.2,-3.5 2.5,-4.4 0.5,-0.4 1,-0.7 1.4,-1.3 0.5,-0.7 0.5,-1.5 0.1,-2.3 -0.3,-0.5 -1,-1.4 -2.6,-1.4 -2.2,0 -2.8,1.4 -3,2.4 -0.1,0.5 -0.5,0.8 -0.9,0.8 h -1.5 c -0.6,0 -1,-0.5 -0.9,-1.1 0.4,-2.8 2.4,-5.5 6.4,-5.5 2.5,0 4.6,1.2 5.6,3.3 1,1.8 0.8,4 -0.5,5.7 z"
       id="path14"
       inkscape:connector-curvature="0"
       style="fill:#0a425a;fill-opacity:1" /><path
       d="M 31,73.2 H 16.7 C 8.9,73.2 2.5,79.6 2.5,87.4 v 4.9 c 0,0.9 0.7,1.7 1.7,1.7 h 39.4 c 0.9,0 1.7,-0.7 1.7,-1.7 V 87.4 C 45.2,79.6 38.9,73.2 31,73.2 Z"
       id="path16"
       inkscape:connector-curvature="0"
       style="fill:#0a425a;fill-opacity:1" /><circle
       cx="23.9"
       cy="56.900002"
       r="12.1"
       id="circle18"
       style="fill:#0a425a;fill-opacity:1" /><path
       d="M 83.3,73.2 H 69 c -7.8,0 -14.2,6.4 -14.2,14.2 v 4.9 c 0,0.9 0.7,1.7 1.7,1.7 h 39.4 c 0.9,0 1.7,-0.7 1.7,-1.7 V 87.4 C 97.5,79.6 91.1,73.2 83.3,73.2 Z"
       id="path20"
       inkscape:connector-curvature="0"
       style="fill:#0a425a;fill-opacity:1" /><circle
       cx="76.099998"
       cy="56.900002"
       r="12.1"
       id="circle22"
       style="fill:#0a425a;fill-opacity:1" /></g></svg>