<?xml version="1.0" encoding="UTF-8" standalone="no"?>
<svg
   xmlns:dc="http://purl.org/dc/elements/1.1/"
   xmlns:cc="http://creativecommons.org/ns#"
   xmlns:rdf="http://www.w3.org/1999/02/22-rdf-syntax-ns#"
   xmlns:svg="http://www.w3.org/2000/svg"
   xmlns="http://www.w3.org/2000/svg"
   xmlns:sodipodi="http://sodipodi.sourceforge.net/DTD/sodipodi-0.dtd"
   xmlns:inkscape="http://www.inkscape.org/namespaces/inkscape"
   height="100px"
   width="100px"
   fill="#000000"
   version="1.1"
   x="0px"
   y="0px"
   viewBox="0 0 128 128"
   style="enable-background:new 0 0 128 128;"
   xml:space="preserve"
   id="svg20"
   sodipodi:docname="question.svg"
   inkscape:version="0.92.4 (5da689c313, 2019-01-14)"><metadata
     id="metadata26"><rdf:RDF><cc:Work
         rdf:about=""><dc:format>image/svg+xml</dc:format><dc:type
           rdf:resource="http://purl.org/dc/dcmitype/StillImage" /><dc:title></dc:title></cc:Work></rdf:RDF></metadata><defs
     id="defs24" /><sodipodi:namedview
     pagecolor="#ffffff"
     bordercolor="#666666"
     borderopacity="1"
     objecttolerance="10"
     gridtolerance="10"
     guidetolerance="10"
     inkscape:pageopacity="0"
     inkscape:pageshadow="2"
     inkscape:window-width="1920"
     inkscape:window-height="1016"
     id="namedview22"
     showgrid="false"
     inkscape:zoom="2.36"
     inkscape:cx="50"
     inkscape:cy="50"
     inkscape:window-x="0"
     inkscape:window-y="27"
     inkscape:window-maximized="1"
     inkscape:current-layer="svg20" /><g
     style="fill:#0a425a;fill-opacity:1"
     id="g12"
     transform="translate(-51.98267)"><g
       style="fill:#0a425a;fill-opacity:1"
       id="g10"><g
         style="fill:#0a425a;fill-opacity:1"
         id="g4"><path
           inkscape:connector-curvature="0"
           style="fill:#0a425a;fill-opacity:1"
           id="path2"
           d="m 93.9,55.5 c -0.1,-2.2 -1.8,-3.9 -4.1,-3.9 -2.2,0 -4,1.8 -4,4 0,2.2 1.8,4 4,4 1.1,0 2.2,-0.4 2.9,-1.2 0.8,-0.7 1.2,-1.8 1.2,-2.9 z" /></g><g
         style="fill:#0a425a;fill-opacity:1"
         id="g8"><path
           inkscape:connector-curvature="0"
           style="fill:#0a425a;fill-opacity:1"
           id="path6"
           d="m 95.9,36.8 1.2,-1.1 c 3.1,-2.7 6.4,-5.7 6.5,-9.8 0,-2.8 -1.3,-5.7 -3.7,-7.7 v 0 C 97.4,16 94,14.8 90.2,14.8 c -6.5,0 -13.4,3.7 -14,10.8 0,0.5 0,0.7 0.6,0.7 1.7,0.2 3.4,0.4 5,0.6 0.4,0.1 0.6,0.1 0.8,0.1 0.4,0 0.5,-0.1 0.8,-1.1 0.9,-3.1 3.3,-4.9 6.3,-4.9 2.3,0 4.5,1.2 5.4,2.9 0.6,1.1 0.9,2.9 -0.8,5.2 -0.9,1.3 -2.1,2.2 -3.3,3 -1.5,1.1 -3,2.2 -3.8,4.1 -1.1,2.5 -1.1,5.9 -1,8.9 0,0.4 0.1,0.6 0.5,0.6 1,0 2,0 3,0 0.2,0 0.4,0 0.6,0 h 1.1 c 0.3,0 0.7,0 1,0 0.5,0 0.6,-0.1 0.7,-0.1 0.1,-0.1 0.1,-0.3 0.1,-0.6 0,-1.6 0.1,-3 0.2,-4.3 0,-1.7 1.3,-2.8 2.5,-3.9 z" /></g></g></g><path
     inkscape:connector-curvature="0"
     style="fill:#0a425a;fill-opacity:1"
     id="path14"
     d="m 57.41733,65.3 h -0.2 l -0.2,0.1 c -3,2 -6.2,3.5 -9.7,4.5 -11.5,3.3 -23.6,0.4 -32.4,-7.8 -4.5,-4.2 -7.8,-9.6 -9.5,-15.6 -2.5,-8.7 -1.4,-17.9 3,-25.8 4.3,-7.9 11.5,-13.7 20.2,-16.1 11.5,-3.3 23.7,-0.4 32.5,7.8 4.5,4.2 7.8,9.6 9.5,15.6 2.4,8.3 1.5,17.2 -2.5,24.9 l -0.2,0.4 0.4,0.3 c 0.2,0.2 0.4,0.4 0.8,0.6 l 4.9,3.8 c 1.5,1.1 1.5,2.4 1.4,3.1 -0.3,1.5 -1.7,2.6 -4.2,3.4 l -0.3,0.1 c -2.7,0.8 -5.1,1.1 -7.4,1.2 h -0.6 c -0.4,0 -0.9,0 -1.3,0 -1.4,-0.1 -2.7,-0.3 -4.2,-0.5 z m 5.3,-4.2 h 0.7 c 1.3,0 2.8,-0.2 4.4,-0.6 l 1.3,-0.3 -2.9,-2.3 c -0.7,-0.5 -1.6,-1.2 -2.2,-2.1 -0.7,-1.1 -1,-2.3 -0.7,-3.6 l 0.1,-0.3 0.2,-0.5 c 3.8,-6.8 4.7,-14.8 2.6,-22.3 -1.5,-5.2 -4.3,-9.8 -8.2,-13.4 -7.7,-7 -18.2,-9.5 -28.1,-6.7 -15.5,4.4 -24.6,20.7 -20.2,36.2 1.5,5.2 4.3,9.8 8.2,13.4 5.5,5.1 12.6,7.9 19.9,7.9 2.7,0 5.4,-0.4 8.1,-1.1 3.2,-0.9 6.2,-2.3 8.9,-4.2 l 0.3,-0.2 0.8,-0.3 c 0.9,-0.2 1.7,-0.2 2.4,0 1.2,0.2 2.3,0.3 3.4,0.4 0.3,0 0.6,0 1,0 z" /><path
     inkscape:connector-curvature="0"
     style="fill:#0a425a;fill-opacity:1"
     id="path16"
     d="m 40.31733,99.9 -0.7,3.3 41.6,21.6 1.8,-3.8 c 0.8,-1.7 1.6,-3.4 2.5,-5.1 2.4,-4.8 3.8,-5.6 6.9,-5.6 0.9,0 2,0.1 3.4,0.3 1.4,0.2 2.9,0.3 4.5,0.3 2.3,0 4.6,-0.2 6.6,-0.4 2.2,-0.2 4,-1.1 5.1,-2.5 0.8,-1 1.8,-2.8 1.5,-5.6 -0.3,-2.9 0.2,-5.1 1.4,-7.6 0.4,-0.8 0.8,-1.8 1.1,-2.9 l 1,-4.9 c 0.2,-1.4 0.4,-2.6 0.7,-3.7 l 0.3,-0.4 0.3,-0.2 c 1.8,-0.6 4.1,-1.6 5,-3.7 0.9,-2.2 0.1,-4.4 -0.7,-6.2 -0.6,-1.4 -1.4,-2.7 -2.1,-4 -1,-1.8 -1.9,-3.5 -2.6,-5.3 -0.8,-2.3 -1,-4.5 -0.6,-5.7 4.2,-12.6 1.8,-24.1 -7,-34.2 -8.4,-9.7 -22.9,-15.7 -37.9,-15.7 -2.6,0 -5.2,0.2 -7.7,0.6 5.2,4.9 9.1,11.1 11,18 2.4,8.4 1.9,17.2 -1.2,25.2 l 2.7,2 c 2.7,2 4,5.2 3.4,8.4 -0.5,2.5 -2.2,5.9 -8,7.6 l -0.3,0.1 c -3.1,0.9 -6.1,1.3 -8.7,1.4 h -0.6 c -0.5,0 -1,0 -1.7,0 -1,0 -2,-0.1 -2.9,-0.2 -3,1.8 -6.3,3.2 -9.7,4.2 -3.6,1 -7.3,1.5 -10.9,1.5 -0.8,0 -1.7,0 -2.5,-0.1 3.5,6.9 6.5,13.5 5.5,20.8 -0.1,0.8 -0.2,1.6 -0.5,2.5 z" /></svg>