<?xml version="1.0" encoding="UTF-8" standalone="no"?>
<!-- Created with Inkscape (http://www.inkscape.org/) -->

<svg
   xmlns:dc="http://purl.org/dc/elements/1.1/"
   xmlns:cc="http://creativecommons.org/ns#"
   xmlns:rdf="http://www.w3.org/1999/02/22-rdf-syntax-ns#"
   xmlns:svg="http://www.w3.org/2000/svg"
   xmlns="http://www.w3.org/2000/svg"
   xmlns:sodipodi="http://sodipodi.sourceforge.net/DTD/sodipodi-0.dtd"
   xmlns:inkscape="http://www.inkscape.org/namespaces/inkscape"
   width="100"
   height="100"
   viewBox="0 0 26.458333 26.458334"
   version="1.1"
   id="svg8"
   inkscape:version="0.92.4 (5da689c313, 2019-01-14)"
   sodipodi:docname="resi.svg">
  <defs
     id="defs2" />
  <sodipodi:namedview
     id="base"
     pagecolor="#ffffff"
     bordercolor="#666666"
     borderopacity="1.0"
     inkscape:pageopacity="0.0"
     inkscape:pageshadow="2"
     inkscape:zoom="1.979899"
     inkscape:cx="-161.23057"
     inkscape:cy="-9.3288241"
     inkscape:document-units="mm"
     inkscape:current-layer="layer1"
     showgrid="false"
     units="px"
     inkscape:window-width="1600"
     inkscape:window-height="836"
     inkscape:window-x="0"
     inkscape:window-y="27"
     inkscape:window-maximized="1"
     inkscape:snap-global="false" />
  <metadata
     id="metadata5">
    <rdf:RDF>
      <cc:Work
         rdf:about="">
        <dc:format>image/svg+xml</dc:format>
        <dc:type
           rdf:resource="http://purl.org/dc/dcmitype/StillImage" />
        <dc:title></dc:title>
      </cc:Work>
    </rdf:RDF>
  </metadata>
  <g
     inkscape:label="Calque 1"
     inkscape:groupmode="layer"
     id="layer1"
     transform="translate(0,-270.54165)">
    <circle
       style="fill:#b3b3b3;fill-opacity:0.94117647;stroke-width:0.26458332"
       id="path815"
       cx="13.229167"
       cy="283.77081"
       r="13.229842" />
    <path
       id="path53"
       d="m 4.6576446,286.10077 c -0.5440075,-0.16716 -1.109409,-0.75202 -1.3802284,-1.42774 -0.2880085,-0.71859 -0.3676239,-1.28102 -0.3632171,-2.56587 0.0037,-1.07938 0.017871,-1.23243 0.1653273,-1.78596 0.1992128,-0.74781 0.6185168,-1.61228 0.9735715,-2.00718 1.5639839,-1.73953 3.5661883,0.14263 3.7134863,3.49083 0.07363,1.6737 -0.2550247,3.02589 -0.9074997,3.73374 -0.4026407,0.43682 -0.7526879,0.58396 -1.4364884,0.60381 -0.3163262,0.009 -0.6605542,-0.01 -0.7649515,-0.0416 z m 1.5089812,-0.16767 c 1.0085449,-0.44613 1.496037,-1.65818 1.5022908,-3.73513 0.00436,-1.45411 -0.2810478,-2.57391 -0.8892633,-3.48879 -0.4333775,-0.65189 -0.9043376,-0.96097 -1.4643076,-0.96097 -1.4238826,0 -2.5562089,2.48064 -2.323661,5.09056 0.1673577,1.87828 0.7281056,2.89207 1.7619687,3.18552 0.3689036,0.1047 1.0728122,0.0593 1.4129724,-0.0912 z m -1.4103712,-0.005 c -0.7467278,-0.2441 -1.2813554,-0.99507 -1.5128679,-2.12507 -0.5492451,-2.68083 0.3377457,-5.56076 1.8282542,-5.93607 1.1562524,-0.29115 2.2715012,1.34097 2.4709507,3.61612 0.1442228,1.64515 -0.2130322,3.29109 -0.8587529,3.95646 -0.3643778,0.37547 -0.6662979,0.50007 -1.2612426,0.5205 -0.2830287,0.01 -0.5828823,-0.005 -0.6663415,-0.0319 z m 1.2273366,-0.10278 c 0.8638119,-0.29433 1.3669028,-1.29947 1.4945658,-2.98604 0.1428428,-1.88713 -0.3302957,-3.676 -1.1888012,-4.49467 -0.3259437,-0.31082 -0.604341,-0.43814 -0.957571,-0.43791 -1.277644,10e-4 -2.3183343,2.2181 -2.1791582,4.64286 0.1050499,1.83022 0.6242171,2.96075 1.5025671,3.27199 0.3375957,0.11962 0.9830252,0.12145 1.3283975,0.004 z m -1.0462668,-0.25989 c -0.1323876,-0.071 -0.2647235,-0.21753 -0.3553433,-0.39352 -0.1194417,-0.23196 -0.173566,-0.28042 -0.3131947,-0.28042 -0.1949516,0 -0.5052877,-0.23901 -0.6343204,-0.48854 -0.1014728,-0.19622 -0.1141853,-0.46558 -0.032157,-0.68133 0.046343,-0.12189 0.029922,-0.17351 -0.091492,-0.28757 -0.2820533,-0.26497 -0.3200537,-0.75104 -0.084605,-1.0822 0.1004778,-0.14132 0.1002295,-0.15551 -0.0053,-0.3027 -0.1909997,-0.26642 -0.2025359,-0.54238 -0.036326,-0.86895 0.1251115,-0.24581 0.1384004,-0.3219 0.086028,-0.49255 -0.092798,-0.30236 -0.00941,-0.61132 0.2294742,-0.8502 0.1605143,-0.16052 0.2089823,-0.25929 0.2089823,-0.4259 0,-0.42856 0.3669729,-0.81632 0.7725648,-0.81632 0.1066264,0 0.1976375,-0.0378 0.2178492,-0.0905 0.1100779,-0.28685 0.7722739,-0.42673 1.1341991,-0.23957 0.1952873,0.10099 0.4175087,0.41431 0.4178773,0.58919 1.27e-4,0.0593 0.09524,0.19121 0.2113707,0.29318 0.2645868,0.23231 0.3769582,0.56843 0.2815443,0.84214 -0.061892,0.17755 -0.052055,0.21306 0.1102044,0.39787 0.1837073,0.20923 0.2447188,0.42184 0.2413876,0.84118 -0.00115,0.13319 0.015333,0.3827 0.036424,0.55447 0.028295,0.23046 0.011671,0.3685 -0.063433,0.52678 -0.093329,0.19668 -0.093785,0.2259 -0.00545,0.35199 0.1571464,0.22436 0.1277687,0.72983 -0.05504,0.94709 -0.1105202,0.13134 -0.1514599,0.25101 -0.1517504,0.44356 -6.888e-4,0.40841 -0.3619111,0.83739 -0.7061466,0.83844 -0.095201,2.3e-4 -0.141884,0.0481 -0.169429,0.17351 -0.039217,0.17855 -0.2653393,0.42678 -0.4973504,0.54598 -0.19698,0.1012 -0.5087265,0.0823 -0.7465504,-0.0452 z m 0.7752524,-0.0628 c 0.2320058,-0.11911 0.4718941,-0.44439 0.4061622,-0.55075 -0.020548,-0.0332 -0.097308,-0.0604 -0.1706029,-0.0604 -0.073294,0 -0.2036578,-0.0653 -0.2896972,-0.14506 -0.1890557,-0.1753 -0.418985,-0.17071 -0.7201697,0.0144 -0.1165412,0.0716 -0.2459473,0.13032 -0.2875692,0.13045 -0.2051016,5.7e-4 0.043505,0.44865 0.3340729,0.60208 0.2867848,0.15141 0.4470307,0.15346 0.7278039,0.009 z m -0.9088602,-0.76582 c 0.1729726,-0.12116 0.1695646,-0.17307 -0.016939,-0.25805 -0.3207999,-0.14617 -0.5083674,-0.77271 -0.3307056,-1.10467 0.054997,-0.10276 0.042023,-0.11707 -0.1059465,-0.11688 -0.356321,4.6e-4 -0.7437557,0.41034 -0.7437557,0.78681 0,0.22161 0.1910518,0.55236 0.3886703,0.67287 0.2266844,0.13823 0.6257261,0.14806 0.8086767,0.0199 z m 1.8182048,-0.0284 c 0.2145081,-0.13077 0.3748778,-0.43389 0.3745122,-0.70785 -4.581e-4,-0.37133 -0.3886713,-0.74357 -0.7753886,-0.74357 -0.1743762,0 -0.1755772,0.002 -0.1149687,0.22946 0.095091,0.35627 0.013477,0.63654 -0.2563059,0.88028 -0.2156415,0.19482 -0.2269046,0.21996 -0.1345037,0.3003 0.2270646,0.19742 0.6212229,0.21541 0.9066547,0.0414 z m -0.8328671,-0.39504 c 0.1885192,-0.18061 0.3144549,-0.51131 0.259912,-0.68252 -0.017779,-0.0558 -0.059351,-0.17405 -0.092401,-0.2628 l -0.060089,-0.16136 -0.2091797,0.12342 c -0.2516739,0.14849 -0.7427872,0.12716 -0.9278292,-0.0403 -0.1130783,-0.10233 -0.1202195,-0.0983 -0.2112797,0.11965 -0.1214063,0.29056 -0.1188541,0.43934 0.011702,0.68206 0.2517258,0.46799 0.8580295,0.57743 1.2291646,0.22185 z m 1.3842903,-0.77596 c 0.2210386,-0.35765 0.1310271,-0.8707 -0.1896148,-1.0808 -0.3597998,-0.23574 -0.8346428,-0.17624 -0.8346428,0.1046 0,0.0851 -0.040867,0.2526 -0.090813,0.37214 -0.049945,0.11954 -0.090645,0.22082 -0.090442,0.22508 2.059e-4,0.004 0.1223115,0.0111 0.2713507,0.0152 0.313141,0.009 0.5451813,0.14052 0.6875964,0.39086 0.05508,0.0968 0.1047383,0.17622 0.1103462,0.17643 0.00563,1.8e-4 0.066908,-0.0914 0.1362187,-0.20352 z m -3.3036078,-0.1868 c 0.107111,-0.0817 0.3060763,-0.16634 0.442145,-0.18811 l 0.2473976,-0.0396 -0.088644,-0.17769 c -0.056604,-0.11347 -0.081112,-0.30259 -0.067804,-0.52326 l 0.02084,-0.34555 -0.2039367,-0.0195 c -0.4643819,-0.0444 -0.8555284,0.30243 -0.8555284,0.75863 0,0.24163 0.1819413,0.68359 0.281411,0.68359 0.016154,0 0.1170085,-0.0668 0.2241194,-0.14854 z m 1.8308534,-0.12156 c 0.3800944,-0.24905 0.4663491,-0.777 0.1868207,-1.14348 -0.2851417,-0.37384 -0.7657472,-0.42765 -1.124362,-0.1259 -0.3422786,0.28801 -0.3902645,0.73801 -0.1158925,1.08682 0.2551322,0.32435 0.7153231,0.4041 1.0534338,0.18256 z m 1.5978458,-1.3254 c -4.576e-4,-0.13782 -0.02632,-0.29074 -0.057354,-0.33981 -0.048094,-0.076 -0.077008,-0.0705 -0.1958296,0.0378 -0.3232573,0.29464 -0.72566,0.34833 -1.0641175,0.14197 -0.1090218,-0.0665 -0.2111844,-0.12086 -0.2270288,-0.12086 -0.079685,0 -0.00934,0.15754 0.1528147,0.34222 0.099894,0.11378 0.1816226,0.23119 0.1816226,0.26092 0,0.0297 0.1451492,0.0391 0.3225547,0.0208 0.2308821,-0.0238 0.3728282,-0.006 0.4994614,0.0623 0.166736,0.0901 0.1830029,0.0884 0.2828555,-0.0296 0.064167,-0.0758 0.1055804,-0.22397 0.1050195,-0.37574 z m -3.1818419,0.0726 c 0.2749978,-0.006 0.2820096,-0.0103 0.2471468,-0.16905 -0.019735,-0.0899 -0.00945,-0.23288 0.022852,-0.31784 0.056757,-0.14928 0.049583,-0.15552 -0.2131624,-0.18513 -0.170438,-0.0192 -0.3284766,-0.0838 -0.4235256,-0.1731 l -0.1516294,-0.14245 -0.1156886,0.15057 c -0.1422331,0.18513 -0.154877,0.60061 -0.02587,0.85009 0.088213,0.17058 0.099117,0.17456 0.2346799,0.0857 0.078193,-0.0512 0.2695307,-0.0957 0.4251961,-0.0988 z m 1.1586251,-0.26264 c 0.3564808,0 0.3895401,-0.0109 0.3895401,-0.12829 0,-0.0998 -0.047225,-0.13596 -0.2124679,-0.16278 -0.1168577,-0.0189 -0.2911201,-0.0905 -0.3872497,-0.15893 -0.1584111,-0.1128 -0.1903968,-0.11635 -0.3415054,-0.0379 -0.091699,0.0476 -0.189453,0.12234 -0.2172321,0.16615 -0.059909,0.0945 -0.068162,0.42208 -0.014177,0.56277 0.032647,0.0851 0.063952,0.0748 0.2158683,-0.0707 0.1571585,-0.15056 0.2226815,-0.17023 0.5672242,-0.17023 z m 1.4407843,0.007 c 0.2485649,-0.10386 0.4472803,-0.35016 0.4972011,-0.61626 0.06975,-0.37179 -0.2463365,-0.81125 -0.6529423,-0.90779 -0.1605626,-0.0381 -0.1627752,-0.0348 -0.1067885,0.16041 0.1088844,0.37966 -0.113122,0.80273 -0.535324,1.02016 -0.1194122,0.0615 -0.1283657,0.0863 -0.060565,0.16801 0.093025,0.1121 0.3958584,0.25317 0.5507462,0.25657 0.059339,10e-4 0.1977933,-0.0352 0.3076725,-0.0811 z M 5.9674644,281.2564 c 0.21516,-0.11043 0.3782671,-0.36174 0.4084248,-0.62932 0.066158,-0.58695 -0.4737565,-1.01257 -1.0346909,-0.81567 -0.1962276,0.0689 -0.2469369,0.11466 -0.2304866,0.20806 0.078881,0.44785 0.073559,0.63822 -0.023564,0.84289 -0.1003243,0.21142 -0.099941,0.22384 0.00951,0.30787 0.2438375,0.18722 0.6044054,0.2229 0.8708089,0.0862 z m -1.2651765,-0.1342 c 0.2726047,-0.18157 0.4423101,-0.52961 0.3911681,-0.80222 -0.1562684,-0.83298 -1.3322811,-0.88969 -1.5517016,-0.0748 -0.1850503,0.68722 0.5788211,1.2645 1.1605335,0.87704 z m 2.1613431,-1.27213 c 0.022836,-0.3484 -0.1068204,-0.61363 -0.3652818,-0.74729 -0.2491989,-0.12886 -0.6056392,-0.12786 -0.8042365,0.002 -0.1452233,0.0952 -0.3918564,0.43125 -0.3923719,0.5347 -1.272e-4,0.025 0.1237217,0.0454 0.2752138,0.0454 0.3022853,0 0.5805185,0.11697 0.7066693,0.29708 0.072361,0.1033 0.3352515,0.1861 0.5011408,0.15783 0.033295,-0.006 0.068787,-0.13617 0.078866,-0.28999 z m -1.7794486,-0.035 c 0.017587,-0.0285 -0.034501,-0.11419 -0.1157518,-0.19052 -0.1915905,-0.17999 -0.2944195,-0.49882 -0.2453085,-0.76061 0.044251,-0.23588 0.00918,-0.24999 -0.3000691,-0.12077 -0.2436398,0.10179 -0.4528731,0.4109 -0.4532491,0.66958 -2.54e-4,0.17911 0.00371,0.18136 0.2873426,0.16194 0.2294543,-0.0157 0.3304505,0.0108 0.4995001,0.13103 0.2374786,0.16892 0.2816126,0.18366 0.3275358,0.10935 z m 0.3834366,-0.62794 c 0.1854041,-0.19549 0.5000811,-0.31156 0.746573,-0.27539 0.2087188,0.0307 0.220931,-0.0317 0.058428,-0.29821 -0.2330946,-0.38229 -0.7283222,-0.49207 -1.0974877,-0.24329 -0.2788115,0.1879 -0.3678936,0.37915 -0.3388477,0.72751 0.018099,0.21708 0.068236,0.33635 0.198563,0.47238 l 0.1743495,0.18198 0.050925,-0.19995 c 0.028009,-0.10997 0.1213825,-0.27423 0.2074969,-0.36503 z"
       style="fill:#0a425a;fill-opacity:1;stroke-width:0.06054086"
       inkscape:connector-curvature="0" />
    <path
       id="path53-3"
       d="m 12.943014,281.8245 c -0.544008,-0.16716 -1.109409,-0.75202 -1.380229,-1.42774 -0.288008,-0.71859 -0.367623,-1.28102 -0.363217,-2.56587 0.0037,-1.07938 0.01787,-1.23243 0.165328,-1.78596 0.199212,-0.74781 0.618516,-1.61228 0.973571,-2.00718 1.563984,-1.73953 3.566188,0.14263 3.713486,3.49083 0.07363,1.6737 -0.255024,3.02589 -0.907499,3.73374 -0.402641,0.43682 -0.752688,0.58396 -1.436489,0.60381 -0.316326,0.009 -0.660554,-0.01 -0.764951,-0.0416 z m 1.508981,-0.16767 c 1.008545,-0.44613 1.496037,-1.65818 1.502291,-3.73513 0.0044,-1.45411 -0.281048,-2.57391 -0.889263,-3.48879 -0.433378,-0.65189 -0.904338,-0.96097 -1.464308,-0.96097 -1.423883,0 -2.556209,2.48064 -2.323661,5.09056 0.167358,1.87828 0.728106,2.89207 1.761969,3.18552 0.368903,0.1047 1.072812,0.0593 1.412972,-0.0912 z m -1.410371,-0.005 c -0.746728,-0.2441 -1.281356,-0.99507 -1.512868,-2.12507 -0.549245,-2.68083 0.337746,-5.56076 1.828254,-5.93607 1.156253,-0.29115 2.271501,1.34097 2.470951,3.61612 0.144223,1.64515 -0.213032,3.29109 -0.858753,3.95646 -0.364378,0.37547 -0.666298,0.50007 -1.261243,0.5205 -0.283028,0.01 -0.582882,-0.005 -0.666341,-0.0319 z m 1.227336,-0.10278 c 0.863812,-0.29433 1.366903,-1.29947 1.494566,-2.98604 0.142843,-1.88713 -0.330295,-3.676 -1.188801,-4.49467 -0.325944,-0.31082 -0.604341,-0.43814 -0.957571,-0.43791 -1.277644,0.001 -2.318334,2.2181 -2.179158,4.64286 0.10505,1.83022 0.624217,2.96075 1.502567,3.27199 0.337596,0.11962 0.983025,0.12145 1.328397,0.004 z m -1.046266,-0.25989 c -0.132388,-0.071 -0.264724,-0.21753 -0.355344,-0.39352 -0.119441,-0.23196 -0.173566,-0.28042 -0.313194,-0.28042 -0.194952,0 -0.505288,-0.23901 -0.634321,-0.48854 -0.101473,-0.19622 -0.114185,-0.46558 -0.03216,-0.68133 0.04634,-0.12189 0.02992,-0.17351 -0.09149,-0.28757 -0.282053,-0.26497 -0.320053,-0.75104 -0.0846,-1.0822 0.100478,-0.14132 0.10023,-0.15551 -0.0053,-0.3027 -0.190999,-0.26642 -0.202536,-0.54238 -0.03633,-0.86895 0.125112,-0.24581 0.138401,-0.3219 0.08603,-0.49255 -0.0928,-0.30236 -0.0094,-0.61132 0.229474,-0.8502 0.160515,-0.16052 0.208983,-0.25929 0.208983,-0.4259 0,-0.42856 0.366973,-0.81632 0.772565,-0.81632 0.106626,0 0.197637,-0.0378 0.217849,-0.0905 0.110078,-0.28685 0.772274,-0.42673 1.134199,-0.23957 0.195287,0.10099 0.417508,0.41431 0.417877,0.58919 1.27e-4,0.0593 0.09524,0.19121 0.211371,0.29318 0.264587,0.23231 0.376958,0.56843 0.281544,0.84214 -0.06189,0.17755 -0.05205,0.21306 0.110205,0.39787 0.183707,0.20923 0.244718,0.42184 0.241387,0.84118 -0.0011,0.13319 0.01533,0.3827 0.03642,0.55447 0.02829,0.23046 0.01167,0.3685 -0.06343,0.52678 -0.09333,0.19668 -0.09379,0.2259 -0.0054,0.35199 0.157146,0.22436 0.127769,0.72983 -0.05504,0.94709 -0.11052,0.13134 -0.15146,0.25101 -0.15175,0.44356 -6.88e-4,0.40841 -0.361911,0.83739 -0.706147,0.83844 -0.0952,2.3e-4 -0.141884,0.0481 -0.169429,0.17351 -0.03922,0.17855 -0.265339,0.42678 -0.49735,0.54598 -0.19698,0.1012 -0.508727,0.0823 -0.746551,-0.0452 z m 0.775252,-0.0628 c 0.232006,-0.11911 0.471894,-0.44439 0.406162,-0.55075 -0.02055,-0.0332 -0.09731,-0.0604 -0.170603,-0.0604 -0.07329,0 -0.203658,-0.0653 -0.289697,-0.14506 -0.189056,-0.1753 -0.418985,-0.17071 -0.72017,0.0144 -0.116541,0.0716 -0.245947,0.13032 -0.287569,0.13045 -0.205101,5.9e-4 0.0435,0.44865 0.334073,0.60208 0.286785,0.15141 0.447031,0.15346 0.727804,0.009 z m -0.90886,-0.76582 c 0.172972,-0.12116 0.169564,-0.17307 -0.01694,-0.25805 -0.3208,-0.14617 -0.508368,-0.77271 -0.330706,-1.10467 0.055,-0.10276 0.04202,-0.11707 -0.105946,-0.11688 -0.356321,4.5e-4 -0.743756,0.41034 -0.743756,0.78681 0,0.22161 0.191052,0.55236 0.38867,0.67287 0.226685,0.13823 0.625726,0.14806 0.808677,0.0199 z m 1.818205,-0.0284 c 0.214508,-0.13077 0.374878,-0.43389 0.374512,-0.70785 -4.5e-4,-0.37133 -0.388671,-0.74357 -0.775389,-0.74357 -0.174376,0 -0.175577,0.002 -0.114968,0.22946 0.09509,0.35627 0.01348,0.63654 -0.256306,0.88028 -0.215642,0.19482 -0.226905,0.21996 -0.134504,0.3003 0.227065,0.19742 0.621223,0.21541 0.906655,0.0414 z m -0.832867,-0.39504 c 0.188519,-0.18061 0.314454,-0.51131 0.259912,-0.68252 -0.01778,-0.0558 -0.05935,-0.17405 -0.0924,-0.2628 l -0.06009,-0.16136 -0.20918,0.12342 c -0.251674,0.14849 -0.742787,0.12716 -0.927829,-0.0403 -0.113079,-0.10233 -0.12022,-0.0983 -0.21128,0.11965 -0.121406,0.29056 -0.118854,0.43934 0.0117,0.68206 0.251726,0.46799 0.858029,0.57743 1.229165,0.22185 z m 1.38429,-0.77596 c 0.221038,-0.35765 0.131027,-0.8707 -0.189615,-1.0808 -0.3598,-0.23574 -0.834643,-0.17624 -0.834643,0.1046 0,0.0851 -0.04087,0.2526 -0.09081,0.37214 -0.04995,0.11954 -0.09065,0.22082 -0.09044,0.22508 2.06e-4,0.004 0.122312,0.0111 0.271351,0.0152 0.313141,0.009 0.545181,0.14052 0.687596,0.39086 0.05508,0.0968 0.104739,0.17622 0.110346,0.17643 0.0056,1.8e-4 0.06691,-0.0914 0.136219,-0.20352 z m -3.303608,-0.1868 c 0.107111,-0.0817 0.306076,-0.16634 0.442145,-0.18811 l 0.247398,-0.0396 -0.08864,-0.17769 c -0.0566,-0.11347 -0.08111,-0.30259 -0.0678,-0.52326 l 0.02084,-0.34555 -0.203937,-0.0195 c -0.464382,-0.0444 -0.855528,0.30243 -0.855528,0.75863 0,0.24163 0.181941,0.68359 0.281411,0.68359 0.01615,0 0.117008,-0.0668 0.224119,-0.14854 z m 1.830853,-0.12156 c 0.380095,-0.24905 0.466349,-0.777 0.186821,-1.14348 -0.285142,-0.37384 -0.765747,-0.42765 -1.124362,-0.1259 -0.342278,0.28801 -0.390264,0.73801 -0.115892,1.08682 0.255132,0.32435 0.715323,0.4041 1.053433,0.18256 z m 1.597846,-1.3254 c -4.5e-4,-0.13782 -0.02632,-0.29074 -0.05735,-0.33981 -0.04809,-0.076 -0.07701,-0.0705 -0.195829,0.0378 -0.323258,0.29464 -0.72566,0.34833 -1.064118,0.14197 -0.109022,-0.0665 -0.211184,-0.12086 -0.227029,-0.12086 -0.07969,0 -0.0093,0.15754 0.152815,0.34222 0.09989,0.11378 0.181623,0.23119 0.181623,0.26092 0,0.0297 0.145149,0.0391 0.322554,0.0208 0.230882,-0.0238 0.372829,-0.006 0.499462,0.0623 0.166736,0.0901 0.183003,0.0884 0.282855,-0.0296 0.06417,-0.0758 0.105581,-0.22397 0.10502,-0.37574 z m -3.181842,0.0726 c 0.274998,-0.006 0.28201,-0.0103 0.247147,-0.16905 -0.01974,-0.0899 -0.0095,-0.23288 0.02285,-0.31784 0.05676,-0.14928 0.04958,-0.15552 -0.213162,-0.18513 -0.170438,-0.0192 -0.328477,-0.0838 -0.423526,-0.1731 l -0.151629,-0.14245 -0.115689,0.15057 c -0.142233,0.18513 -0.154877,0.60061 -0.02587,0.85009 0.08821,0.17058 0.09912,0.17456 0.23468,0.0857 0.07819,-0.0512 0.269531,-0.0957 0.425196,-0.0988 z m 1.158625,-0.26264 c 0.356481,0 0.389541,-0.0109 0.389541,-0.12829 0,-0.0998 -0.04723,-0.13596 -0.212468,-0.16278 -0.116858,-0.0189 -0.29112,-0.0905 -0.38725,-0.15893 -0.158411,-0.1128 -0.190397,-0.11635 -0.341505,-0.0379 -0.0917,0.0476 -0.189453,0.12234 -0.217233,0.16615 -0.05991,0.0945 -0.06816,0.42208 -0.01418,0.56277 0.03265,0.0851 0.06395,0.0748 0.215869,-0.0707 0.157158,-0.15056 0.222681,-0.17023 0.567224,-0.17023 z m 1.440785,0.007 c 0.248565,-0.10386 0.44728,-0.35016 0.497201,-0.61626 0.06975,-0.37179 -0.246337,-0.81125 -0.652943,-0.90779 -0.160562,-0.0381 -0.162775,-0.0348 -0.106788,0.16041 0.108884,0.37966 -0.113122,0.80273 -0.535324,1.02016 -0.119412,0.0615 -0.128366,0.0863 -0.06057,0.16801 0.09303,0.1121 0.395859,0.25317 0.550746,0.25657 0.05934,10e-4 0.197794,-0.0352 0.307673,-0.0811 z m -0.748539,-0.46421 c 0.21516,-0.11043 0.378267,-0.36174 0.408424,-0.62932 0.06616,-0.58695 -0.473756,-1.01257 -1.03469,-0.81567 -0.196228,0.0689 -0.246937,0.11466 -0.230487,0.20806 0.07888,0.44785 0.07356,0.63822 -0.02356,0.84289 -0.100324,0.21142 -0.09994,0.22384 0.0095,0.30787 0.243838,0.18722 0.604405,0.2229 0.870809,0.0862 z m -1.265177,-0.1342 c 0.272605,-0.18157 0.44231,-0.52961 0.391168,-0.80222 -0.156268,-0.83298 -1.332281,-0.88969 -1.551701,-0.0748 -0.185051,0.68722 0.578821,1.2645 1.160533,0.87704 z M 15.149,275.5738 c 0.02284,-0.3484 -0.10682,-0.61363 -0.365282,-0.74729 -0.249198,-0.12886 -0.605639,-0.12786 -0.804236,0.002 -0.145223,0.0952 -0.391856,0.43125 -0.392372,0.5347 -1.27e-4,0.025 0.123722,0.0454 0.275214,0.0454 0.302285,0 0.580518,0.11697 0.706669,0.29708 0.07236,0.1033 0.335252,0.1861 0.501141,0.15783 0.03329,-0.006 0.06879,-0.13617 0.07887,-0.28999 z m -1.779448,-0.035 c 0.01759,-0.0285 -0.0345,-0.11419 -0.115752,-0.19052 -0.191591,-0.17999 -0.29442,-0.49882 -0.245309,-0.76061 0.04425,-0.23588 0.0092,-0.24999 -0.300069,-0.12077 -0.24364,0.10179 -0.452873,0.4109 -0.453249,0.66958 -2.54e-4,0.17911 0.0037,0.18136 0.287343,0.16194 0.229454,-0.0157 0.33045,0.0108 0.4995,0.13103 0.237478,0.16892 0.281612,0.18366 0.327536,0.10935 z m 0.383436,-0.62794 c 0.185404,-0.19549 0.500081,-0.31156 0.746573,-0.27539 0.208719,0.0307 0.220931,-0.0317 0.05843,-0.29821 -0.233094,-0.38229 -0.728322,-0.49207 -1.097487,-0.24329 -0.278812,0.1879 -0.367894,0.37915 -0.338848,0.72751 0.0181,0.21708 0.06824,0.33635 0.198563,0.47238 l 0.174349,0.18198 0.05092,-0.19995 c 0.02801,-0.10997 0.121383,-0.27423 0.207497,-0.36503 z"
       style="fill:#6b0007;fill-opacity:1;stroke-width:0.06054086;stroke:#e50000;stroke-opacity:1"
       inkscape:connector-curvature="0" />
    <path
       id="path53-6"
       d="m 9.7357651,292.78256 c -0.5440074,-0.16716 -1.1094094,-0.75202 -1.3802284,-1.42774 -0.288009,-0.71859 -0.367624,-1.28102 -0.363217,-2.56587 0.0037,-1.07938 0.01787,-1.23243 0.165327,-1.78596 0.199213,-0.74781 0.618517,-1.61228 0.973572,-2.00718 1.5639843,-1.73953 3.5661883,0.14263 3.7134863,3.49083 0.07363,1.6737 -0.255025,3.02589 -0.9075,3.73374 -0.40264,0.43682 -0.752688,0.58396 -1.436488,0.60381 -0.316326,0.009 -0.6605539,-0.01 -0.7649519,-0.0416 z m 1.5089819,-0.16767 c 1.008545,-0.44613 1.496037,-1.65818 1.50229,-3.73513 0.0044,-1.45411 -0.281047,-2.57391 -0.889263,-3.48879 -0.433377,-0.65189 -0.904337,-0.96097 -1.464307,-0.96097 -1.4238833,0 -2.5562093,2.48064 -2.3236623,5.09056 0.167358,1.87828 0.728106,2.89207 1.7619694,3.18552 0.3689039,0.1047 1.0728129,0.0593 1.4129729,-0.0912 z m -1.4103719,-0.005 c -0.7467274,-0.2441 -1.2813554,-0.99507 -1.5128684,-2.12507 -0.549245,-2.68083 0.337746,-5.56076 1.8282553,-5.93607 1.156252,-0.29115 2.271501,1.34097 2.47095,3.61612 0.144223,1.64515 -0.213032,3.29109 -0.858752,3.95646 -0.364378,0.37547 -0.666298,0.50007 -1.261243,0.5205 -0.283029,0.01 -0.5828819,-0.005 -0.6663419,-0.0319 z m 1.2273369,-0.10278 c 0.863812,-0.29433 1.366903,-1.29947 1.494566,-2.98604 0.142843,-1.88713 -0.330296,-3.676 -1.188801,-4.49467 -0.325944,-0.31082 -0.604341,-0.43814 -0.957571,-0.43791 -1.2776443,0.001 -2.3183353,2.2181 -2.1791593,4.64286 0.10505,1.83022 0.624217,2.96075 1.5025684,3.27199 0.3375949,0.11962 0.9830249,0.12145 1.3283969,0.004 z m -1.046267,-0.25989 c -0.1323869,-0.071 -0.2647229,-0.21753 -0.3553429,-0.39352 -0.119442,-0.23196 -0.173566,-0.28042 -0.3131954,-0.28042 -0.194951,0 -0.505288,-0.23901 -0.63432,-0.48854 -0.101473,-0.19622 -0.114186,-0.46558 -0.03216,-0.68133 0.04634,-0.12189 0.02992,-0.17351 -0.09149,-0.28757 -0.282053,-0.26497 -0.320054,-0.75104 -0.0846,-1.0822 0.100478,-0.14132 0.100229,-0.15551 -0.0053,-0.3027 -0.191,-0.26642 -0.202536,-0.54238 -0.03633,-0.86895 0.125111,-0.24581 0.1384,-0.3219 0.08603,-0.49255 -0.0928,-0.30236 -0.0094,-0.61132 0.229474,-0.8502 0.160514,-0.16052 0.208982,-0.25929 0.208982,-0.4259 0,-0.42856 0.366973,-0.81632 0.7725654,-0.81632 0.106627,0 0.197638,-0.0378 0.217849,-0.0905 0.1100779,-0.28685 0.7722739,-0.42673 1.1341999,-0.23957 0.195287,0.10099 0.417508,0.41431 0.417877,0.58919 1.27e-4,0.0593 0.09524,0.19121 0.21137,0.29318 0.264587,0.23231 0.376959,0.56843 0.281545,0.84214 -0.06189,0.17755 -0.05206,0.21306 0.110204,0.39787 0.183708,0.20923 0.244719,0.42184 0.241388,0.84118 -0.0011,0.13319 0.01533,0.3827 0.03642,0.55447 0.02829,0.23046 0.01167,0.3685 -0.06343,0.52678 -0.09333,0.19668 -0.09378,0.2259 -0.0054,0.35199 0.157146,0.22436 0.127769,0.72983 -0.05504,0.94709 -0.11052,0.13134 -0.15146,0.25101 -0.151751,0.44356 -6.88e-4,0.40841 -0.361911,0.83739 -0.706146,0.83844 -0.0952,2.3e-4 -0.141884,0.0481 -0.169429,0.17351 -0.03922,0.17855 -0.265339,0.42678 -0.497351,0.54598 -0.19698,0.1012 -0.508726,0.0823 -0.74655,-0.0452 z m 0.775253,-0.0628 c 0.232005,-0.11911 0.471894,-0.44439 0.406162,-0.55075 -0.02055,-0.0332 -0.09731,-0.0604 -0.170603,-0.0604 -0.07329,0 -0.203658,-0.0653 -0.289697,-0.14506 -0.189056,-0.1753 -0.418985,-0.17071 -0.72017,0.0144 -0.1165409,0.0716 -0.2459469,0.13032 -0.2875689,0.13045 -0.205102,5.9e-4 0.0435,0.44865 0.3340729,0.60208 0.286785,0.15141 0.44703,0.15346 0.727804,0.009 z M 9.8818371,291.4186 c 0.1729729,-0.12116 0.1695649,-0.17307 -0.01694,-0.25805 -0.320799,-0.14617 -0.5083674,-0.77271 -0.330705,-1.10467 0.055,-0.10276 0.04202,-0.11707 -0.1059474,-0.11688 -0.356321,4.5e-4 -0.743755,0.41034 -0.743755,0.78681 0,0.22161 0.191051,0.55236 0.38867,0.67287 0.226684,0.13823 0.6257264,0.14806 0.8086774,0.0199 z m 1.8182049,-0.0284 c 0.214508,-0.13077 0.374878,-0.43389 0.374512,-0.70785 -4.49e-4,-0.37133 -0.388671,-0.74357 -0.775388,-0.74357 -0.174376,0 -0.175577,0.002 -0.114969,0.22946 0.09509,0.35627 0.01348,0.63654 -0.256306,0.88028 -0.215641,0.19482 -0.226904,0.21996 -0.134504,0.3003 0.227065,0.19742 0.621223,0.21541 0.906655,0.0414 z m -0.832867,-0.39504 c 0.188519,-0.18061 0.314455,-0.51131 0.259912,-0.68252 -0.01778,-0.0558 -0.05935,-0.17405 -0.0924,-0.2628 l -0.06009,-0.16136 -0.20918,0.12342 c -0.251673,0.14849 -0.742787,0.12716 -0.9278289,-0.0403 -0.113078,-0.10233 -0.120219,-0.0983 -0.211279,0.11965 -0.121407,0.29056 -0.118855,0.43934 0.0117,0.68206 0.251725,0.46799 0.8580289,0.57743 1.2291639,0.22185 z m 1.38429,-0.77596 c 0.221039,-0.35765 0.131027,-0.8707 -0.189614,-1.0808 -0.3598,-0.23574 -0.834643,-0.17624 -0.834643,0.1046 0,0.0851 -0.04087,0.2526 -0.09081,0.37214 -0.04995,0.11954 -0.09065,0.22082 -0.09044,0.22508 2.06e-4,0.004 0.122311,0.0111 0.27135,0.0152 0.313141,0.009 0.545182,0.14052 0.687597,0.39086 0.05508,0.0968 0.104738,0.17622 0.110346,0.17643 0.0056,1.8e-4 0.06691,-0.0914 0.136219,-0.20352 z m -3.3036073,-0.1868 c 0.107111,-0.0817 0.306076,-0.16634 0.442145,-0.18811 l 0.2473974,-0.0396 -0.08864,-0.17769 c -0.0566,-0.11347 -0.08111,-0.30259 -0.0678,-0.52326 l 0.02084,-0.34555 -0.2039364,-0.0195 c -0.464382,-0.0444 -0.855529,0.30243 -0.855529,0.75863 0,0.24163 0.181941,0.68359 0.281411,0.68359 0.01615,0 0.117009,-0.0668 0.22412,-0.14854 z m 1.8308533,-0.12156 c 0.380094,-0.24905 0.466349,-0.777 0.186821,-1.14348 -0.285142,-0.37384 -0.765747,-0.42765 -1.1243619,-0.1259 -0.342279,0.28801 -0.3902654,0.73801 -0.115893,1.08682 0.255132,0.32435 0.7153229,0.4041 1.0534339,0.18256 z m 1.597846,-1.3254 c -4.5e-4,-0.13782 -0.02632,-0.29074 -0.05735,-0.33981 -0.04809,-0.076 -0.07701,-0.0705 -0.19583,0.0378 -0.323257,0.29464 -0.72566,0.34833 -1.064117,0.14197 -0.109022,-0.0665 -0.211185,-0.12086 -0.227029,-0.12086 -0.07968,0 -0.0093,0.15754 0.152815,0.34222 0.09989,0.11378 0.181622,0.23119 0.181622,0.26092 0,0.0297 0.145149,0.0391 0.322555,0.0208 0.230882,-0.0238 0.372828,-0.006 0.499461,0.0623 0.166736,0.0901 0.183003,0.0884 0.282856,-0.0296 0.06417,-0.0758 0.10558,-0.22397 0.105019,-0.37574 z m -3.1818423,0.0726 c 0.2749984,-0.006 0.2820104,-0.0103 0.247147,-0.16905 -0.01973,-0.0899 -0.0094,-0.23288 0.02285,-0.31784 0.05676,-0.14928 0.04958,-0.15552 -0.213163,-0.18513 -0.170438,-0.0192 -0.328476,-0.0838 -0.423525,-0.1731 l -0.15163,-0.14245 -0.115688,0.15057 c -0.142234,0.18513 -0.154877,0.60061 -0.02587,0.85009 0.08821,0.17058 0.09912,0.17456 0.23468,0.0857 0.07819,-0.0512 0.26953,-0.0957 0.425196,-0.0988 z M 10.35334,288.3954 c 0.356481,0 0.38954,-0.0109 0.38954,-0.12829 0,-0.0998 -0.04723,-0.13596 -0.212468,-0.16278 -0.116857,-0.0189 -0.29112,-0.0905 -0.387249,-0.15893 -0.1584119,-0.1128 -0.1903969,-0.11635 -0.3415059,-0.0379 -0.0917,0.0476 -0.189453,0.12234 -0.217232,0.16615 -0.05991,0.0945 -0.06816,0.42208 -0.01418,0.56277 0.03265,0.0851 0.06395,0.0748 0.215868,-0.0707 0.157159,-0.15056 0.2226819,-0.17023 0.5672249,-0.17023 z m 1.440784,0.007 c 0.248565,-0.10386 0.447281,-0.35016 0.497201,-0.61626 0.06975,-0.37179 -0.246336,-0.81125 -0.652942,-0.90779 -0.160562,-0.0381 -0.162775,-0.0348 -0.106788,0.16041 0.108884,0.37966 -0.113122,0.80273 -0.535324,1.02016 -0.119413,0.0615 -0.128366,0.0863 -0.06057,0.16801 0.09302,0.1121 0.395858,0.25317 0.550746,0.25657 0.05934,0.001 0.197793,-0.0352 0.307672,-0.0811 z m -0.748539,-0.46421 c 0.21516,-0.11043 0.378267,-0.36174 0.408425,-0.62932 0.06616,-0.58695 -0.473757,-1.01257 -1.034691,-0.81567 -0.196227,0.0689 -0.246937,0.11466 -0.230486,0.20806 0.07888,0.44785 0.07356,0.63822 -0.02356,0.84289 -0.100325,0.21142 -0.09994,0.22384 0.0095,0.30787 0.243837,0.18722 0.604405,0.2229 0.870809,0.0862 z m -1.2651759,-0.1342 c 0.2726039,-0.18157 0.4423099,-0.52961 0.3911679,-0.80222 -0.156269,-0.83298 -1.3322813,-0.88969 -1.5517023,-0.0748 -0.18505,0.68722 0.578821,1.2645 1.1605344,0.87704 z m 2.1613429,-1.27213 c 0.02284,-0.3484 -0.106821,-0.61363 -0.365282,-0.74729 -0.249199,-0.12886 -0.605639,-0.12786 -0.804236,0.002 -0.145224,0.0952 -0.391857,0.43125 -0.392372,0.5347 -1.28e-4,0.025 0.123721,0.0454 0.275213,0.0454 0.302286,0 0.580519,0.11697 0.70667,0.29708 0.07236,0.1033 0.335251,0.1861 0.50114,0.15783 0.0333,-0.006 0.06879,-0.13617 0.07887,-0.28999 z m -1.779449,-0.035 c 0.01759,-0.0285 -0.0345,-0.11419 -0.115752,-0.19052 -0.1915899,-0.17999 -0.2944189,-0.49882 -0.2453079,-0.76061 0.04425,-0.23588 0.0092,-0.24999 -0.300069,-0.12077 -0.2436404,0.10179 -0.4528734,0.4109 -0.4532494,0.66958 -2.54e-4,0.17911 0.0037,0.18136 0.287342,0.16194 0.2294554,-0.0157 0.3304514,0.0108 0.4995004,0.13103 0.2374789,0.16892 0.2816129,0.18366 0.3275359,0.10935 z m 0.383437,-0.62794 c 0.185404,-0.19549 0.500081,-0.31156 0.746573,-0.27539 0.208719,0.0307 0.220931,-0.0317 0.05843,-0.29821 -0.233095,-0.38229 -0.728322,-0.49207 -1.097488,-0.24329 -0.2788109,0.1879 -0.3678929,0.37915 -0.3388469,0.72751 0.0181,0.21708 0.06824,0.33635 0.1985629,0.47238 l 0.174349,0.18198 0.05093,-0.19995 c 0.02801,-0.10997 0.121383,-0.27423 0.207497,-0.36503 z"
       style="fill:#0a425a;fill-opacity:1;stroke-width:0.06054086"
       inkscape:connector-curvature="0" />
    <path
       id="path53-7"
       d="m 20.827451,284.63084 c -0.544008,-0.16716 -1.109409,-0.75202 -1.380229,-1.42774 -0.288008,-0.71859 -0.367624,-1.28102 -0.363217,-2.56587 0.0037,-1.07938 0.01787,-1.23243 0.165327,-1.78596 0.199213,-0.74781 0.618517,-1.61228 0.973572,-2.00718 1.563984,-1.73953 3.566188,0.14263 3.713486,3.49083 0.07363,1.6737 -0.255024,3.02589 -0.907499,3.73374 -0.402641,0.43682 -0.752688,0.58396 -1.436489,0.60381 -0.316326,0.009 -0.660554,-0.01 -0.764951,-0.0416 z m 1.508981,-0.16767 c 1.008545,-0.44613 1.496037,-1.65818 1.502291,-3.73513 0.0044,-1.45411 -0.281048,-2.57391 -0.889263,-3.48879 -0.433378,-0.65189 -0.904338,-0.96097 -1.464308,-0.96097 -1.423883,0 -2.556209,2.48064 -2.323661,5.09056 0.167357,1.87828 0.728105,2.89207 1.761969,3.18552 0.368903,0.1047 1.072812,0.0593 1.412972,-0.0912 z m -1.410371,-0.005 c -0.746728,-0.2441 -1.281356,-0.99507 -1.512868,-2.12507 -0.549245,-2.68083 0.337745,-5.56076 1.828254,-5.93607 1.156253,-0.29115 2.271501,1.34097 2.470951,3.61612 0.144223,1.64515 -0.213032,3.29109 -0.858753,3.95646 -0.364378,0.37547 -0.666298,0.50007 -1.261243,0.5205 -0.283028,0.01 -0.582882,-0.005 -0.666341,-0.0319 z m 1.227336,-0.10278 c 0.863812,-0.29433 1.366903,-1.29947 1.494566,-2.98604 0.142843,-1.88713 -0.330296,-3.676 -1.188801,-4.49467 -0.325944,-0.31082 -0.604341,-0.43814 -0.957571,-0.43791 -1.277644,10e-4 -2.318334,2.2181 -2.179158,4.64286 0.10505,1.83022 0.624217,2.96075 1.502567,3.27199 0.337596,0.11962 0.983025,0.12145 1.328397,0.004 z m -1.046266,-0.25989 c -0.132388,-0.071 -0.264724,-0.21753 -0.355344,-0.39352 -0.119441,-0.23196 -0.173566,-0.28042 -0.313194,-0.28042 -0.194952,0 -0.505288,-0.23901 -0.634321,-0.48854 -0.101473,-0.19622 -0.114185,-0.46558 -0.03216,-0.68133 0.04634,-0.12189 0.02992,-0.17351 -0.09149,-0.28757 -0.282053,-0.26497 -0.320054,-0.75104 -0.0846,-1.0822 0.100478,-0.14132 0.10023,-0.15551 -0.0053,-0.3027 -0.191,-0.26642 -0.202536,-0.54238 -0.03633,-0.86895 0.125112,-0.24581 0.1384,-0.3219 0.08603,-0.49255 -0.0928,-0.30236 -0.0094,-0.61132 0.229474,-0.8502 0.160515,-0.16052 0.208983,-0.25929 0.208983,-0.4259 0,-0.42856 0.366973,-0.81632 0.772564,-0.81632 0.106627,0 0.197638,-0.0378 0.21785,-0.0905 0.110078,-0.28685 0.772273,-0.42673 1.134199,-0.23957 0.195287,0.10099 0.417508,0.41431 0.417877,0.58919 1.27e-4,0.0593 0.09524,0.19121 0.211371,0.29318 0.264587,0.23231 0.376958,0.56843 0.281544,0.84214 -0.06189,0.17755 -0.05205,0.21306 0.110204,0.39787 0.183708,0.20923 0.244719,0.42184 0.241388,0.84118 -0.0011,0.13319 0.01533,0.3827 0.03642,0.55447 0.02829,0.23046 0.01167,0.3685 -0.06343,0.52678 -0.09333,0.19668 -0.09379,0.2259 -0.0054,0.35199 0.157146,0.22436 0.127769,0.72983 -0.05504,0.94709 -0.11052,0.13134 -0.15146,0.25101 -0.15175,0.44356 -6.88e-4,0.40841 -0.361911,0.83739 -0.706147,0.83844 -0.0952,2.3e-4 -0.141884,0.0481 -0.169429,0.17351 -0.03922,0.17855 -0.265339,0.42678 -0.49735,0.54598 -0.19698,0.1012 -0.508727,0.0823 -0.746551,-0.0452 z m 0.775252,-0.0628 c 0.232006,-0.11911 0.471894,-0.44439 0.406162,-0.55075 -0.02055,-0.0332 -0.09731,-0.0604 -0.170603,-0.0604 -0.07329,0 -0.203658,-0.0653 -0.289697,-0.14506 -0.189056,-0.1753 -0.418985,-0.17071 -0.72017,0.0144 -0.116541,0.0716 -0.245947,0.13032 -0.287569,0.13045 -0.205101,5.9e-4 0.0435,0.44865 0.334073,0.60208 0.286785,0.15141 0.447031,0.15346 0.727804,0.009 z m -0.90886,-0.76582 c 0.172972,-0.12116 0.169564,-0.17307 -0.01694,-0.25805 -0.3208,-0.14617 -0.508368,-0.77271 -0.330706,-1.10467 0.055,-0.10276 0.04202,-0.11707 -0.105946,-0.11688 -0.356321,4.5e-4 -0.743756,0.41034 -0.743756,0.78681 0,0.22161 0.191052,0.55236 0.38867,0.67287 0.226685,0.13823 0.625726,0.14806 0.808677,0.0199 z m 1.818205,-0.0284 c 0.214508,-0.13077 0.374877,-0.43389 0.374512,-0.70785 -4.5e-4,-0.37133 -0.388672,-0.74357 -0.775389,-0.74357 -0.174376,0 -0.175577,0.002 -0.114969,0.22946 0.09509,0.35627 0.01348,0.63654 -0.256305,0.88028 -0.215642,0.19482 -0.226905,0.21996 -0.134504,0.3003 0.227064,0.19742 0.621223,0.21541 0.906655,0.0414 z m -0.832867,-0.39504 c 0.188519,-0.18061 0.314454,-0.51131 0.259911,-0.68252 -0.01778,-0.0558 -0.05935,-0.17405 -0.0924,-0.2628 l -0.06009,-0.16136 -0.209179,0.12342 c -0.251674,0.14849 -0.742787,0.12716 -0.927829,-0.0403 -0.113079,-0.10233 -0.12022,-0.0983 -0.21128,0.11965 -0.121406,0.29056 -0.118854,0.43934 0.0117,0.68206 0.251726,0.46799 0.858029,0.57743 1.229165,0.22185 z m 1.38429,-0.77596 c 0.221038,-0.35765 0.131027,-0.8707 -0.189615,-1.0808 -0.3598,-0.23574 -0.834643,-0.17624 -0.834643,0.1046 0,0.0851 -0.04087,0.2526 -0.09081,0.37214 -0.04995,0.11954 -0.09064,0.22082 -0.09044,0.22508 2.06e-4,0.004 0.122311,0.0111 0.271351,0.0152 0.313141,0.009 0.545181,0.14052 0.687596,0.39086 0.05508,0.0968 0.104738,0.17622 0.110346,0.17643 0.0056,1.8e-4 0.06691,-0.0914 0.136219,-0.20352 z m -3.303608,-0.1868 c 0.107111,-0.0817 0.306076,-0.16634 0.442145,-0.18811 l 0.247398,-0.0396 -0.08864,-0.17769 c -0.0566,-0.11347 -0.08111,-0.30259 -0.0678,-0.52326 l 0.02084,-0.34555 -0.203937,-0.0195 c -0.464382,-0.0444 -0.855529,0.30243 -0.855529,0.75863 0,0.24163 0.181942,0.68359 0.281411,0.68359 0.01615,0 0.117009,-0.0668 0.22412,-0.14854 z m 1.830853,-0.12156 c 0.380095,-0.24905 0.466349,-0.777 0.186821,-1.14348 -0.285142,-0.37384 -0.765747,-0.42765 -1.124362,-0.1259 -0.342279,0.28801 -0.390264,0.73801 -0.115892,1.08682 0.255132,0.32435 0.715323,0.4041 1.053433,0.18256 z m 1.597846,-1.3254 c -4.5e-4,-0.13782 -0.02632,-0.29074 -0.05735,-0.33981 -0.04809,-0.076 -0.07701,-0.0705 -0.195829,0.0378 -0.323258,0.29464 -0.72566,0.34833 -1.064118,0.14197 -0.109022,-0.0665 -0.211184,-0.12086 -0.227029,-0.12086 -0.07968,0 -0.0093,0.15754 0.152815,0.34222 0.09989,0.11378 0.181623,0.23119 0.181623,0.26092 0,0.0297 0.145149,0.0391 0.322554,0.0208 0.230882,-0.0238 0.372829,-0.006 0.499462,0.0623 0.166736,0.0901 0.183003,0.0884 0.282855,-0.0296 0.06417,-0.0758 0.105581,-0.22397 0.10502,-0.37574 z m -3.181842,0.0726 c 0.274998,-0.006 0.28201,-0.0103 0.247147,-0.16905 -0.01974,-0.0899 -0.0095,-0.23288 0.02285,-0.31784 0.05676,-0.14928 0.04958,-0.15552 -0.213162,-0.18513 -0.170438,-0.0192 -0.328477,-0.0838 -0.423526,-0.1731 l -0.15163,-0.14245 -0.115688,0.15057 c -0.142233,0.18513 -0.154877,0.60061 -0.02587,0.85009 0.08821,0.17058 0.09912,0.17456 0.23468,0.0857 0.07819,-0.0512 0.269531,-0.0957 0.425196,-0.0988 z m 1.158625,-0.26264 c 0.356481,0 0.38954,-0.0109 0.38954,-0.12829 0,-0.0998 -0.04723,-0.13596 -0.212467,-0.16278 -0.116858,-0.0189 -0.291121,-0.0905 -0.38725,-0.15893 -0.158411,-0.1128 -0.190397,-0.11635 -0.341506,-0.0379 -0.0917,0.0476 -0.189453,0.12234 -0.217232,0.16615 -0.05991,0.0945 -0.06816,0.42208 -0.01418,0.56277 0.03265,0.0851 0.06395,0.0748 0.215869,-0.0707 0.157158,-0.15056 0.222681,-0.17023 0.567224,-0.17023 z m 1.440785,0.007 c 0.248564,-0.10386 0.44728,-0.35016 0.497201,-0.61626 0.06975,-0.37179 -0.246337,-0.81125 -0.652943,-0.90779 -0.160562,-0.0381 -0.162775,-0.0348 -0.106788,0.16041 0.108884,0.37966 -0.113122,0.80273 -0.535324,1.02016 -0.119412,0.0615 -0.128366,0.0863 -0.06057,0.16801 0.09303,0.1121 0.395859,0.25317 0.550746,0.25657 0.05934,0.001 0.197794,-0.0352 0.307673,-0.0811 z m -0.74854,-0.46421 c 0.215161,-0.11043 0.378268,-0.36174 0.408425,-0.62932 0.06616,-0.58695 -0.473756,-1.01257 -1.034691,-0.81567 -0.196227,0.0689 -0.246936,0.11466 -0.230486,0.20806 0.07888,0.44785 0.07356,0.63822 -0.02356,0.84289 -0.100324,0.21142 -0.09994,0.22384 0.0095,0.30787 0.243837,0.18722 0.604405,0.2229 0.870809,0.0862 z m -1.265176,-0.1342 c 0.272605,-0.18157 0.44231,-0.52961 0.391168,-0.80222 -0.156268,-0.83298 -1.332281,-0.88969 -1.551702,-0.0748 -0.18505,0.68722 0.578822,1.2645 1.160534,0.87704 z m 2.161343,-1.27213 c 0.02284,-0.3484 -0.10682,-0.61363 -0.365282,-0.74729 -0.249199,-0.12886 -0.605639,-0.12786 -0.804236,0.002 -0.145223,0.0952 -0.391857,0.43125 -0.392372,0.5347 -1.27e-4,0.025 0.123722,0.0454 0.275214,0.0454 0.302285,0 0.580518,0.11697 0.706669,0.29708 0.07236,0.1033 0.335251,0.1861 0.501141,0.15783 0.03329,-0.006 0.06879,-0.13617 0.07887,-0.28999 z m -1.779448,-0.035 c 0.01759,-0.0285 -0.0345,-0.11419 -0.115752,-0.19052 -0.191591,-0.17999 -0.29442,-0.49882 -0.245309,-0.76061 0.04425,-0.23588 0.0092,-0.24999 -0.300069,-0.12077 -0.24364,0.10179 -0.452873,0.4109 -0.453249,0.66958 -2.54e-4,0.17911 0.0037,0.18136 0.287343,0.16194 0.229454,-0.0157 0.33045,0.0108 0.4995,0.13103 0.237478,0.16892 0.281612,0.18366 0.327536,0.10935 z m 0.383436,-0.62794 c 0.185404,-0.19549 0.500081,-0.31156 0.746573,-0.27539 0.208719,0.0307 0.220931,-0.0317 0.05843,-0.29821 -0.233094,-0.38229 -0.728322,-0.49207 -1.097487,-0.24329 -0.278812,0.1879 -0.367894,0.37915 -0.338848,0.72751 0.0181,0.21708 0.06824,0.33635 0.198563,0.47238 l 0.174349,0.18198 0.05092,-0.19995 c 0.02801,-0.10997 0.121383,-0.27423 0.207497,-0.36503 z"
       style="fill:#0a425a;fill-opacity:1;stroke-width:0.06054086"
       inkscape:connector-curvature="0" />
    <path
       id="path53-5"
       d="m 17.085677,293.18346 c -0.544007,-0.16716 -1.109409,-0.75202 -1.380228,-1.42774 -0.288009,-0.71859 -0.367624,-1.28102 -0.363217,-2.56587 0.0037,-1.07938 0.01787,-1.23243 0.165327,-1.78596 0.199213,-0.74781 0.618517,-1.61228 0.973571,-2.00718 1.563984,-1.73953 3.566189,0.14263 3.713487,3.49083 0.07363,1.6737 -0.255025,3.02589 -0.9075,3.73374 -0.402641,0.43682 -0.752688,0.58396 -1.436488,0.60381 -0.316327,0.009 -0.660555,-0.01 -0.764952,-0.0416 z m 1.508981,-0.16767 c 1.008545,-0.44613 1.496037,-1.65818 1.502291,-3.73513 0.0044,-1.45411 -0.281048,-2.57391 -0.889263,-3.48879 -0.433378,-0.65189 -0.904338,-0.96097 -1.464308,-0.96097 -1.423882,0 -2.556209,2.48064 -2.323661,5.09056 0.167358,1.87828 0.728106,2.89207 1.761969,3.18552 0.368903,0.1047 1.072812,0.0593 1.412972,-0.0912 z m -1.410371,-0.005 c -0.746728,-0.2441 -1.281355,-0.99507 -1.512868,-2.12507 -0.549245,-2.68083 0.337746,-5.56076 1.828254,-5.93607 1.156253,-0.29115 2.271502,1.34097 2.470951,3.61612 0.144223,1.64515 -0.213032,3.29109 -0.858753,3.95646 -0.364378,0.37547 -0.666298,0.50007 -1.261242,0.5205 -0.283029,0.01 -0.582883,-0.005 -0.666342,-0.0319 z m 1.227337,-0.10278 c 0.863812,-0.29433 1.366902,-1.29947 1.494566,-2.98604 0.142842,-1.88713 -0.330296,-3.676 -1.188802,-4.49467 -0.325943,-0.31082 -0.604341,-0.43814 -0.957571,-0.43791 -1.277644,10e-4 -2.318334,2.2181 -2.179158,4.64286 0.10505,1.83022 0.624217,2.96075 1.502567,3.27199 0.337596,0.11962 0.983025,0.12145 1.328398,0.004 z m -1.046267,-0.25989 c -0.132388,-0.071 -0.264724,-0.21753 -0.355343,-0.39352 -0.119442,-0.23196 -0.173566,-0.28042 -0.313195,-0.28042 -0.194952,0 -0.505288,-0.23901 -0.634321,-0.48854 -0.101472,-0.19622 -0.114185,-0.46558 -0.03216,-0.68133 0.04634,-0.12189 0.02992,-0.17351 -0.09149,-0.28757 -0.282053,-0.26497 -0.320053,-0.75104 -0.0846,-1.0822 0.100478,-0.14132 0.10023,-0.15551 -0.0053,-0.3027 -0.190999,-0.26642 -0.202535,-0.54238 -0.03633,-0.86895 0.125112,-0.24581 0.138401,-0.3219 0.08603,-0.49255 -0.0928,-0.30236 -0.0094,-0.61132 0.229475,-0.8502 0.160514,-0.16052 0.208982,-0.25929 0.208982,-0.4259 0,-0.42856 0.366973,-0.81632 0.772565,-0.81632 0.106626,0 0.197637,-0.0378 0.217849,-0.0905 0.110078,-0.28685 0.772274,-0.42673 1.134199,-0.23957 0.195287,0.10099 0.417509,0.41431 0.417877,0.58919 1.27e-4,0.0593 0.09524,0.19121 0.211371,0.29318 0.264587,0.23231 0.376958,0.56843 0.281544,0.84214 -0.06189,0.17755 -0.05205,0.21306 0.110205,0.39787 0.183707,0.20923 0.244718,0.42184 0.241387,0.84118 -0.0011,0.13319 0.01533,0.3827 0.03642,0.55447 0.02829,0.23046 0.01167,0.3685 -0.06343,0.52678 -0.09333,0.19668 -0.09379,0.2259 -0.0054,0.35199 0.157147,0.22436 0.127769,0.72983 -0.05504,0.94709 -0.11052,0.13134 -0.15146,0.25101 -0.15175,0.44356 -6.88e-4,0.40841 -0.361911,0.83739 -0.706147,0.83844 -0.0952,2.3e-4 -0.141884,0.0481 -0.169429,0.17351 -0.03922,0.17855 -0.265339,0.42678 -0.49735,0.54598 -0.19698,0.1012 -0.508727,0.0823 -0.74655,-0.0452 z m 0.775252,-0.0628 c 0.232006,-0.11911 0.471894,-0.44439 0.406162,-0.55075 -0.02055,-0.0332 -0.09731,-0.0604 -0.170602,-0.0604 -0.07329,0 -0.203658,-0.0653 -0.289698,-0.14506 -0.189055,-0.1753 -0.418985,-0.17071 -0.720169,0.0144 -0.116542,0.0716 -0.245948,0.13032 -0.28757,0.13045 -0.205101,5.9e-4 0.0435,0.44865 0.334073,0.60208 0.286785,0.15141 0.447031,0.15346 0.727804,0.009 z m -0.90886,-0.76582 c 0.172973,-0.12116 0.169565,-0.17307 -0.01694,-0.25805 -0.3208,-0.14617 -0.508367,-0.77271 -0.330706,-1.10467 0.055,-0.10276 0.04202,-0.11707 -0.105946,-0.11688 -0.356321,4.5e-4 -0.743756,0.41034 -0.743756,0.78681 0,0.22161 0.191052,0.55236 0.388671,0.67287 0.226684,0.13823 0.625726,0.14806 0.808676,0.0199 z m 1.818205,-0.0284 c 0.214508,-0.13077 0.374878,-0.43389 0.374512,-0.70785 -4.5e-4,-0.37133 -0.388671,-0.74357 -0.775389,-0.74357 -0.174376,0 -0.175577,0.002 -0.114968,0.22946 0.09509,0.35627 0.01348,0.63654 -0.256306,0.88028 -0.215642,0.19482 -0.226905,0.21996 -0.134504,0.3003 0.227065,0.19742 0.621223,0.21541 0.906655,0.0414 z m -0.832867,-0.39504 c 0.188519,-0.18061 0.314455,-0.51131 0.259912,-0.68252 -0.01778,-0.0558 -0.05935,-0.17405 -0.0924,-0.2628 l -0.06009,-0.16136 -0.20918,0.12342 c -0.251674,0.14849 -0.742787,0.12716 -0.927829,-0.0403 -0.113078,-0.10233 -0.12022,-0.0983 -0.21128,0.11965 -0.121406,0.29056 -0.118854,0.43934 0.0117,0.68206 0.251726,0.46799 0.85803,0.57743 1.229165,0.22185 z m 1.38429,-0.77596 c 0.221039,-0.35765 0.131027,-0.8707 -0.189615,-1.0808 -0.3598,-0.23574 -0.834643,-0.17624 -0.834643,0.1046 0,0.0851 -0.04087,0.2526 -0.09081,0.37214 -0.04995,0.11954 -0.09064,0.22082 -0.09044,0.22508 2.06e-4,0.004 0.122312,0.0111 0.271351,0.0152 0.313141,0.009 0.545181,0.14052 0.687597,0.39086 0.05508,0.0968 0.104738,0.17622 0.110346,0.17643 0.0056,1.8e-4 0.06691,-0.0914 0.136218,-0.20352 z m -3.303608,-0.1868 c 0.107111,-0.0817 0.306077,-0.16634 0.442145,-0.18811 l 0.247398,-0.0396 -0.08864,-0.17769 c -0.0566,-0.11347 -0.08111,-0.30259 -0.0678,-0.52326 l 0.02084,-0.34555 -0.203937,-0.0195 c -0.464382,-0.0444 -0.855528,0.30243 -0.855528,0.75863 0,0.24163 0.181941,0.68359 0.281411,0.68359 0.01615,0 0.117008,-0.0668 0.224119,-0.14854 z m 1.830854,-0.12156 c 0.380094,-0.24905 0.466349,-0.777 0.18682,-1.14348 -0.285141,-0.37384 -0.765747,-0.42765 -1.124362,-0.1259 -0.342278,0.28801 -0.390264,0.73801 -0.115892,1.08682 0.255132,0.32435 0.715323,0.4041 1.053434,0.18256 z m 1.597845,-1.3254 c -4.49e-4,-0.13782 -0.02632,-0.29074 -0.05735,-0.33981 -0.04809,-0.076 -0.07701,-0.0705 -0.195829,0.0378 -0.323257,0.29464 -0.72566,0.34833 -1.064118,0.14197 -0.109021,-0.0665 -0.211184,-0.12086 -0.227028,-0.12086 -0.07969,0 -0.0093,0.15754 0.152814,0.34222 0.09989,0.11378 0.181623,0.23119 0.181623,0.26092 0,0.0297 0.145149,0.0391 0.322554,0.0208 0.230883,-0.0238 0.372829,-0.006 0.499462,0.0623 0.166736,0.0901 0.183003,0.0884 0.282856,-0.0296 0.06417,-0.0758 0.10558,-0.22397 0.105019,-0.37574 z m -3.181841,0.0726 c 0.274997,-0.006 0.282009,-0.0103 0.247146,-0.16905 -0.01974,-0.0899 -0.0095,-0.23288 0.02285,-0.31784 0.05676,-0.14928 0.04958,-0.15552 -0.213162,-0.18513 -0.170438,-0.0192 -0.328477,-0.0838 -0.423526,-0.1731 l -0.151629,-0.14245 -0.115689,0.15057 c -0.142233,0.18513 -0.154877,0.60061 -0.02587,0.85009 0.08821,0.17058 0.09912,0.17456 0.23468,0.0857 0.07819,-0.0512 0.269531,-0.0957 0.425196,-0.0988 z m 1.158625,-0.26264 c 0.356481,0 0.38954,-0.0109 0.38954,-0.12829 0,-0.0998 -0.04723,-0.13596 -0.212468,-0.16278 -0.116858,-0.0189 -0.29112,-0.0905 -0.38725,-0.15893 -0.158411,-0.1128 -0.190397,-0.11635 -0.341505,-0.0379 -0.0917,0.0476 -0.189453,0.12234 -0.217232,0.16615 -0.05991,0.0945 -0.06816,0.42208 -0.01418,0.56277 0.03265,0.0851 0.06395,0.0748 0.215868,-0.0707 0.157158,-0.15056 0.222681,-0.17023 0.567224,-0.17023 z m 1.440784,0.007 c 0.248565,-0.10386 0.44728,-0.35016 0.497201,-0.61626 0.06975,-0.37179 -0.246337,-0.81125 -0.652942,-0.90779 -0.160563,-0.0381 -0.162775,-0.0348 -0.106789,0.16041 0.108885,0.37966 -0.113122,0.80273 -0.535324,1.02016 -0.119412,0.0615 -0.128365,0.0863 -0.06057,0.16801 0.09303,0.1121 0.395859,0.25317 0.550747,0.25657 0.05934,10e-4 0.197793,-0.0352 0.307672,-0.0811 z m -0.748539,-0.46421 c 0.21516,-0.11043 0.378267,-0.36174 0.408425,-0.62932 0.06616,-0.58695 -0.473757,-1.01257 -1.034691,-0.81567 -0.196228,0.0689 -0.246937,0.11466 -0.230487,0.20806 0.07888,0.44785 0.07356,0.63822 -0.02356,0.84289 -0.100324,0.21142 -0.09994,0.22384 0.0095,0.30787 0.243838,0.18722 0.604406,0.2229 0.870809,0.0862 z m -1.265177,-0.1342 c 0.272605,-0.18157 0.44231,-0.52961 0.391168,-0.80222 -0.156268,-0.83298 -1.332281,-0.88969 -1.551701,-0.0748 -0.18505,0.68722 0.578821,1.2645 1.160533,0.87704 z m 2.161344,-1.27213 c 0.02284,-0.3484 -0.106821,-0.61363 -0.365282,-0.74729 -0.249199,-0.12886 -0.60564,-0.12786 -0.804237,0.002 -0.145223,0.0952 -0.391856,0.43125 -0.392372,0.5347 -1.27e-4,0.025 0.123722,0.0454 0.275214,0.0454 0.302285,0 0.580519,0.11697 0.706669,0.29708 0.07236,0.1033 0.335252,0.1861 0.501141,0.15783 0.0333,-0.006 0.06879,-0.13617 0.07887,-0.28999 z m -1.779449,-0.035 c 0.01759,-0.0285 -0.0345,-0.11419 -0.115752,-0.19052 -0.19159,-0.17999 -0.294419,-0.49882 -0.245308,-0.76061 0.04425,-0.23588 0.0092,-0.24999 -0.30007,-0.12077 -0.243639,0.10179 -0.452873,0.4109 -0.453249,0.66958 -2.54e-4,0.17911 0.0037,0.18136 0.287343,0.16194 0.229454,-0.0157 0.33045,0.0108 0.4995,0.13103 0.237479,0.16892 0.281613,0.18366 0.327536,0.10935 z m 0.383436,-0.62794 c 0.185405,-0.19549 0.500081,-0.31156 0.746573,-0.27539 0.208719,0.0307 0.220931,-0.0317 0.05843,-0.29821 -0.233094,-0.38229 -0.728322,-0.49207 -1.097487,-0.24329 -0.278812,0.1879 -0.367894,0.37915 -0.338848,0.72751 0.0181,0.21708 0.06824,0.33635 0.198563,0.47238 l 0.17435,0.18198 0.05092,-0.19995 c 0.02801,-0.10997 0.121382,-0.27423 0.207496,-0.36503 z"
       style="fill:#0a425a;fill-opacity:1;stroke-width:0.06054086"
       inkscape:connector-curvature="0" />
    <path
       inkscape:connector-curvature="0"
       style="clip-rule:evenodd;fill:#4d4d4d;fill-rule:evenodd;stroke-width:0.08120131"
       d="m 3.3112975,277.83919 c 0.3248052,0.0568 0.251724,0.203 0.4547273,0.30045 0.1461624,0.0731 0.064961,-0.19489 0.2273637,-0.0731 0.02436,0.0325 0.3978865,0.93382 0.3735261,0.97442 0.373526,0.60901 0.8120131,1.28298 1.2017794,1.88387 0.02436,-0.0244 0.048721,-0.0487 0.073081,-0.0731 0.7632926,-0.51969 1.0718574,-1.1693 1.6565067,-1.95695 0.073081,-0.0244 0.1542827,-0.0487 0.2273639,-0.0731 0.259844,-0.30045 0.2192436,-0.71457 0.6008895,-0.90134 0,0.0731 0,0.15428 0,0.22737 -0.2030031,0.2842 -0.2842044,0.59276 -0.5278083,0.82825 0.064961,0.17864 0.081201,0.1218 0.1542824,0.30044 -0.2923247,0.21113 -1.6240263,1.94883 -1.7295879,2.48476 0.024362,0 0.048721,0 0.073081,0 0.129922,-0.23548 0.2760844,-0.56029 0.5278086,-0.67397 0,0.0487 0,0.0974 0,0.15428 -0.2111235,0.21925 -0.3978866,0.52781 -0.4547274,0.90134 0.2030032,0.23548 0.2030032,0.63337 0.3735259,0.90133 0.3654059,0.59277 1.104338,0.95818 1.2017796,1.80267 -0.048721,0 -0.097442,0 -0.1542827,0 0,-0.0487 0,-0.0974 0,-0.15428 -0.3410456,-0.3654 -0.4872079,-0.90945 -0.9013345,-1.20178 0,0.0244 0,0.0487 0,0.0731 0.121802,0.11368 0.1705227,0.19488 0.2273639,0.37353 -0.048721,0 -0.097442,0 -0.1542827,0 0,-0.0244 0,-0.0487 0,-0.0731 -0.3410456,-0.27609 -0.2111232,-0.64961 -0.4547272,-1.05562 -0.081201,-0.13804 -0.3410455,-0.21924 -0.4547275,-0.37352 -0.024359,0 -0.048721,0 -0.073081,0 -0.121802,0.49532 -1.5022244,2.32235 -1.9407115,2.46851 0,-0.0487 0,-0.0974 0,-0.15428 0.4466073,-0.30044 1.8107894,-2.01379 1.8757503,-2.63092 -0.024362,0 -0.048721,0 -0.073081,0 0,0.0487 0,0.0974 0,0.15428 -0.3816461,0.16241 -0.4547272,0.58465 -0.6739708,0.90133 -0.4466073,0.62526 -1.786429,2.48476 -2.4035589,2.78521 0,-0.0487 0,-0.0974 0,-0.15428 0.4222468,-0.40601 0.7389319,-0.99878 1.2017794,-1.35606 -0.064961,-0.11368 -0.2111234,-0.0568 -0.073081,-0.15428 0.5359287,-0.66586 1.3723023,-1.52659 1.8026692,-2.55785 -0.02436,0 -0.048721,0 -0.073081,0 -0.7714125,1.24238 -1.8757504,2.27364 -2.5578415,3.60534 -0.048721,0 -0.097442,0 -0.1542825,0 0,-0.0487 0,-0.0974 0,-0.15428 0.2273637,-0.21924 1.2017795,-1.47787 1.2748607,-1.72959 0.02436,-0.0812 -0.1461624,-0.13804 -0.073081,-0.30044 0.2760845,-0.58465 1.1611788,-1.01502 1.4291431,-1.63215 -0.1786428,-0.17864 -0.129922,-0.47909 -0.3004448,-0.67397 -0.3816462,-0.44661 -0.9094548,-0.64961 -1.1286983,-1.27486 0.048721,0 0.097442,0 0.1542825,0 0.2192436,0.38164 0.5359287,0.81201 0.9013346,1.05562 0,-0.0974 0,-0.20301 0,-0.30045 -0.738932,-0.45473 -0.4872079,-1.43726 -1.729588,-1.42914 0,-0.0487 0,-0.0975 0,-0.15429 0.3329254,-0.065 0.2760844,-0.17864 0.5278085,-0.30044 0.073081,0.1218 0.1542825,0.25172 0.2273637,0.37353 0.02436,0 0.048721,0 0.073081,0 0,-0.0487 0,-0.0974 0,-0.15429 -0.2679643,-0.17864 -0.5846495,-0.56028 -0.7551722,-0.82825 z"
       id="path2" />
    <path
       inkscape:connector-curvature="0"
       style="clip-rule:evenodd;fill:#4d4d4d;fill-rule:evenodd;stroke-width:0.08120131"
       d="m 8.3894189,284.52098 c 0.3248052,0.0568 0.251724,0.203 0.4547273,0.30045 0.1461624,0.0731 0.064961,-0.19489 0.2273637,-0.0731 0.02436,0.0325 0.3978865,0.93382 0.3735261,0.97442 0.3735255,0.60901 0.812013,1.28298 1.201779,1.88387 0.02436,-0.0244 0.04872,-0.0487 0.07308,-0.0731 0.763293,-0.51969 1.071857,-1.1693 1.656507,-1.95695 0.07308,-0.0244 0.154282,-0.0487 0.227363,-0.0731 0.259845,-0.30045 0.219244,-0.71457 0.60089,-0.90134 0,0.0731 0,0.15428 0,0.22737 -0.203003,0.2842 -0.284205,0.59276 -0.527809,0.82825 0.06496,0.17864 0.0812,0.1218 0.154283,0.30044 -0.292325,0.21113 -1.624026,1.94883 -1.729588,2.48476 0.02436,0 0.04872,0 0.07308,0 0.129922,-0.23548 0.276085,-0.56029 0.527809,-0.67397 0,0.0487 0,0.0974 0,0.15428 -0.211123,0.21925 -0.397887,0.52781 -0.454727,0.90134 0.203003,0.23548 0.203003,0.63337 0.373525,0.90133 0.365406,0.59277 1.104338,0.95818 1.20178,1.80267 -0.04872,0 -0.09744,0 -0.154283,0 0,-0.0487 0,-0.0974 0,-0.15428 -0.341045,-0.3654 -0.487208,-0.90945 -0.901334,-1.20178 0,0.0244 0,0.0487 0,0.0731 0.121802,0.11368 0.170522,0.19488 0.227364,0.37353 -0.04872,0 -0.09744,0 -0.154283,0 0,-0.0244 0,-0.0487 0,-0.0731 -0.341046,-0.27609 -0.211123,-0.64961 -0.454727,-1.05562 -0.0812,-0.13804 -0.341046,-0.21924 -0.454728,-0.37352 -0.02436,0 -0.04872,0 -0.07308,0 -0.121802,0.49532 -1.5022238,2.32235 -1.9407109,2.46851 0,-0.0487 0,-0.0974 0,-0.15428 0.4466073,-0.30044 1.8107889,-2.01379 1.8757499,-2.63092 -0.02436,0 -0.04872,0 -0.07308,0 0,0.0487 0,0.0974 0,0.15428 -0.381646,0.16241 -0.454727,0.58465 -0.673971,0.90133 -0.4466066,0.62526 -1.7864283,2.48476 -2.4035582,2.78521 0,-0.0487 0,-0.0974 0,-0.15428 0.4222468,-0.40601 0.7389319,-0.99878 1.2017794,-1.35606 -0.064961,-0.11368 -0.2111234,-0.0568 -0.073081,-0.15428 0.5359287,-0.66586 1.3723018,-1.52659 1.8026688,-2.55785 -0.02436,0 -0.04872,0 -0.07308,0 -0.771412,1.24238 -1.8757499,2.27364 -2.557841,3.60534 -0.048721,0 -0.097442,0 -0.1542825,0 0,-0.0487 0,-0.0974 0,-0.15428 0.2273637,-0.21924 1.2017795,-1.47787 1.2748607,-1.72959 0.02436,-0.0812 -0.1461624,-0.13804 -0.073081,-0.30044 0.2760845,-0.58465 1.1611778,-1.01502 1.4291428,-1.63215 -0.178643,-0.17864 -0.129922,-0.47909 -0.300445,-0.67397 -0.3816455,-0.44661 -0.9094543,-0.64961 -1.1286978,-1.27486 0.048721,0 0.097442,0 0.1542825,0 0.2192436,0.38164 0.5359287,0.81201 0.9013343,1.05562 0,-0.0974 0,-0.20301 0,-0.30045 -0.7389317,-0.45473 -0.4872076,-1.43726 -1.7295877,-1.42914 0,-0.0487 0,-0.0975 0,-0.15429 0.3329254,-0.065 0.2760844,-0.17864 0.5278085,-0.30044 0.073081,0.1218 0.1542825,0.25172 0.2273637,0.37353 0.02436,0 0.048721,0 0.073081,0 0,-0.0487 0,-0.0974 0,-0.15429 -0.2679643,-0.17864 -0.5846495,-0.56028 -0.7551722,-0.82825 z"
       id="path2-3" />
    <path
       inkscape:connector-curvature="0"
       style="clip-rule:evenodd;fill:#4d4d4d;fill-rule:evenodd;stroke-width:0.08120131"
       d="m 15.739331,284.92188 c 0.324805,0.0568 0.251724,0.203 0.454728,0.30045 0.146162,0.0731 0.06496,-0.19489 0.227363,-0.0731 0.02436,0.0325 0.397887,0.93382 0.373526,0.97442 0.373526,0.60901 0.812013,1.28298 1.20178,1.88387 0.02436,-0.0244 0.04872,-0.0487 0.07308,-0.0731 0.763292,-0.51969 1.071857,-1.1693 1.656506,-1.95695 0.07308,-0.0244 0.154283,-0.0487 0.227364,-0.0731 0.259844,-0.30045 0.219244,-0.71457 0.60089,-0.90134 0,0.0731 0,0.15428 0,0.22737 -0.203003,0.2842 -0.284205,0.59276 -0.527809,0.82825 0.06496,0.17864 0.0812,0.1218 0.154283,0.30044 -0.292325,0.21113 -1.624026,1.94883 -1.729588,2.48476 0.02436,0 0.04872,0 0.07308,0 0.129922,-0.23548 0.276085,-0.56029 0.527809,-0.67397 0,0.0487 0,0.0974 0,0.15428 -0.211124,0.21925 -0.397887,0.52781 -0.454728,0.90134 0.203004,0.23548 0.203004,0.63337 0.373526,0.90133 0.365406,0.59277 1.104338,0.95818 1.20178,1.80267 -0.04872,0 -0.09744,0 -0.154283,0 0,-0.0487 0,-0.0974 0,-0.15428 -0.341046,-0.3654 -0.487208,-0.90945 -0.901334,-1.20178 0,0.0244 0,0.0487 0,0.0731 0.121802,0.11368 0.170522,0.19488 0.227364,0.37353 -0.04872,0 -0.09744,0 -0.154283,0 0,-0.0244 0,-0.0487 0,-0.0731 -0.341046,-0.27609 -0.211123,-0.64961 -0.454727,-1.05562 -0.0812,-0.13804 -0.341046,-0.21924 -0.454728,-0.37352 -0.02436,0 -0.04872,0 -0.07308,0 -0.121802,0.49532 -1.502224,2.32235 -1.940712,2.46851 0,-0.0487 0,-0.0974 0,-0.15428 0.446608,-0.30044 1.81079,-2.01379 1.875751,-2.63092 -0.02436,0 -0.04872,0 -0.07308,0 0,0.0487 0,0.0974 0,0.15428 -0.381646,0.16241 -0.454727,0.58465 -0.673971,0.90133 -0.446607,0.62526 -1.786429,2.48476 -2.403559,2.78521 0,-0.0487 0,-0.0974 0,-0.15428 0.422247,-0.40601 0.738932,-0.99878 1.20178,-1.35606 -0.06496,-0.11368 -0.211124,-0.0568 -0.07308,-0.15428 0.535928,-0.66586 1.372302,-1.52659 1.802669,-2.55785 -0.02436,0 -0.04872,0 -0.07308,0 -0.771413,1.24238 -1.875751,2.27364 -2.557842,3.60534 -0.04872,0 -0.09744,0 -0.154282,0 0,-0.0487 0,-0.0974 0,-0.15428 0.227364,-0.21924 1.201779,-1.47787 1.274861,-1.72959 0.02436,-0.0812 -0.146163,-0.13804 -0.07308,-0.30044 0.276084,-0.58465 1.161178,-1.01502 1.429143,-1.63215 -0.178643,-0.17864 -0.129922,-0.47909 -0.300445,-0.67397 -0.381646,-0.44661 -0.909455,-0.64961 -1.128698,-1.27486 0.04872,0 0.09744,0 0.154282,0 0.219244,0.38164 0.535929,0.81201 0.901335,1.05562 0,-0.0974 0,-0.20301 0,-0.30045 -0.738932,-0.45473 -0.487208,-1.43726 -1.729588,-1.42914 0,-0.0487 0,-0.0975 0,-0.15429 0.332925,-0.065 0.276084,-0.17864 0.527808,-0.30044 0.07308,0.1218 0.154283,0.25172 0.227364,0.37353 0.02436,0 0.04872,0 0.07308,0 0,-0.0487 0,-0.0974 0,-0.15429 -0.267964,-0.17864 -0.58465,-0.56028 -0.755172,-0.82825 z"
       id="path2-5" />
    <path
       inkscape:connector-curvature="0"
       style="clip-rule:evenodd;fill:#4d4d4d;fill-rule:evenodd;stroke-width:0.08120131"
       d="m 19.481104,276.36926 c 0.324806,0.0568 0.251724,0.203 0.454728,0.30045 0.146162,0.0731 0.06496,-0.19489 0.227363,-0.0731 0.02436,0.0325 0.397887,0.93382 0.373526,0.97442 0.373526,0.60901 0.812014,1.28298 1.20178,1.88387 0.02436,-0.0244 0.04872,-0.0487 0.07308,-0.0731 0.763293,-0.51969 1.071857,-1.1693 1.656507,-1.95695 0.07308,-0.0244 0.154282,-0.0487 0.227363,-0.0731 0.259845,-0.30045 0.219244,-0.71457 0.60089,-0.90134 0,0.0731 0,0.15428 0,0.22737 -0.203003,0.2842 -0.284205,0.59276 -0.527809,0.82825 0.06496,0.17864 0.0812,0.1218 0.154283,0.30044 -0.292325,0.21113 -1.624026,1.94883 -1.729588,2.48476 0.02436,0 0.04872,0 0.07308,0 0.129922,-0.23548 0.276085,-0.56029 0.527809,-0.67397 0,0.0487 0,0.0974 0,0.15428 -0.211123,0.21925 -0.397887,0.52781 -0.454727,0.90134 0.203003,0.23548 0.203003,0.63337 0.373525,0.90133 0.365406,0.59277 1.104338,0.95818 1.20178,1.80267 -0.04872,0 -0.09744,0 -0.154283,0 0,-0.0487 0,-0.0974 0,-0.15428 -0.341045,-0.3654 -0.487208,-0.90945 -0.901334,-1.20178 0,0.0244 0,0.0487 0,0.0731 0.121802,0.11368 0.170522,0.19488 0.227364,0.37353 -0.04872,0 -0.09744,0 -0.154283,0 0,-0.0244 0,-0.0487 0,-0.0731 -0.341046,-0.27609 -0.211123,-0.64961 -0.454727,-1.05562 -0.0812,-0.13804 -0.341046,-0.21924 -0.454728,-0.37352 -0.02436,0 -0.04872,0 -0.07308,0 -0.121802,0.49532 -1.502224,2.32235 -1.940711,2.46851 0,-0.0487 0,-0.0974 0,-0.15428 0.446607,-0.30044 1.810789,-2.01379 1.87575,-2.63092 -0.02436,0 -0.04872,0 -0.07308,0 0,0.0487 0,0.0974 0,0.15428 -0.381646,0.16241 -0.454727,0.58465 -0.673971,0.90133 -0.446607,0.62526 -1.786429,2.48476 -2.403559,2.78521 0,-0.0487 0,-0.0974 0,-0.15428 0.422247,-0.40601 0.738932,-0.99878 1.20178,-1.35606 -0.06496,-0.11368 -0.211124,-0.0568 -0.07308,-0.15428 0.535928,-0.66586 1.372302,-1.52659 1.802669,-2.55785 -0.02436,0 -0.04872,0 -0.07308,0 -0.771413,1.24238 -1.87575,2.27364 -2.557842,3.60534 -0.04872,0 -0.09744,0 -0.154282,0 0,-0.0487 0,-0.0974 0,-0.15428 0.227364,-0.21924 1.201779,-1.47787 1.274861,-1.72959 0.02436,-0.0812 -0.146163,-0.13804 -0.07308,-0.30044 0.276084,-0.58465 1.161178,-1.01502 1.429143,-1.63215 -0.178643,-0.17864 -0.129922,-0.47909 -0.300445,-0.67397 -0.381646,-0.44661 -0.909455,-0.64961 -1.128698,-1.27486 0.04872,0 0.09744,0 0.154282,0 0.219244,0.38164 0.535929,0.81201 0.901335,1.05562 0,-0.0974 0,-0.20301 0,-0.30045 -0.738932,-0.45473 -0.487208,-1.43726 -1.729588,-1.42914 0,-0.0487 0,-0.0975 0,-0.15429 0.332925,-0.065 0.276084,-0.17864 0.527808,-0.30044 0.07308,0.1218 0.154283,0.25172 0.227364,0.37353 0.02436,0 0.04872,0 0.07308,0 0,-0.0487 0,-0.0974 0,-0.15429 -0.267964,-0.17864 -0.58465,-0.56028 -0.755172,-0.82825 z"
       id="path2-6" />
  </g>
</svg>
