<?xml version="1.0" encoding="UTF-8" standalone="no"?>
<svg
   xmlns:dc="http://purl.org/dc/elements/1.1/"
   xmlns:cc="http://creativecommons.org/ns#"
   xmlns:rdf="http://www.w3.org/1999/02/22-rdf-syntax-ns#"
   xmlns:svg="http://www.w3.org/2000/svg"
   xmlns="http://www.w3.org/2000/svg"
   xmlns:sodipodi="http://sodipodi.sourceforge.net/DTD/sodipodi-0.dtd"
   xmlns:inkscape="http://www.inkscape.org/namespaces/inkscape"
   width="100"
   height="100"
   version="1.1"
   viewBox="0 0 26.458 26.458"
   id="svg26"
   sodipodi:docname="resi.svg"
   inkscape:version="0.92.4 (5da689c313, 2019-01-14)">
  <defs
     id="defs30" />
  <sodipodi:namedview
     pagecolor="#ffffff"
     bordercolor="#666666"
     borderopacity="1"
     objecttolerance="10"
     gridtolerance="10"
     guidetolerance="10"
     inkscape:pageopacity="0"
     inkscape:pageshadow="2"
     inkscape:window-width="888"
     inkscape:window-height="480"
     id="namedview28"
     showgrid="false"
     inkscape:zoom="2.36"
     inkscape:cx="50"
     inkscape:cy="50"
     inkscape:window-x="702"
     inkscape:window-y="150"
     inkscape:window-maximized="0"
     inkscape:current-layer="svg26" />
  <metadata
     id="metadata2">
    <rdf:RDF>
      <cc:Work
         rdf:about="">
        <dc:format>image/svg+xml</dc:format>
        <dc:type
           rdf:resource="http://purl.org/dc/dcmitype/StillImage" />
        <dc:title></dc:title>
      </cc:Work>
    </rdf:RDF>
  </metadata>
  <g
     transform="translate(0 -270.54)"
     id="g24">
    <circle
       cx="13.229"
       cy="283.77"
       r="13.23"
       fill="#b3b3b3"
       fill-opacity=".94118"
       stroke-width=".26458"
       id="circle4" />
    <path
       d="m4.6576 286.1c-0.54401-0.16716-1.1094-0.75202-1.3802-1.4277-0.28801-0.71859-0.36762-1.281-0.36322-2.5659 0.0037-1.0794 0.017871-1.2324 0.16533-1.786 0.19921-0.74781 0.61852-1.6123 0.97357-2.0072 1.564-1.7395 3.5662 0.14263 3.7135 3.4908 0.07363 1.6737-0.25502 3.0259-0.9075 3.7337-0.40264 0.43682-0.75269 0.58396-1.4365 0.60381-0.31633 9e-3 -0.66055-0.01-0.76495-0.0416zm1.509-0.16767c1.0085-0.44613 1.496-1.6582 1.5023-3.7351 0.00436-1.4541-0.28105-2.5739-0.88926-3.4888-0.43338-0.65189-0.90434-0.96097-1.4643-0.96097-1.4239 0-2.5562 2.4806-2.3237 5.0906 0.16736 1.8783 0.72811 2.8921 1.762 3.1855 0.3689 0.1047 1.0728 0.0593 1.413-0.0912zm-1.4104-5e-3c-0.74673-0.2441-1.2814-0.99507-1.5129-2.1251-0.54925-2.6808 0.33775-5.5608 1.8283-5.9361 1.1563-0.29115 2.2715 1.341 2.471 3.6161 0.14422 1.6452-0.21303 3.2911-0.85875 3.9565-0.36438 0.37547-0.6663 0.50007-1.2612 0.5205-0.28303 0.01-0.58288-5e-3 -0.66634-0.0319zm1.2273-0.10278c0.86381-0.29433 1.3669-1.2995 1.4946-2.986 0.14284-1.8871-0.3303-3.676-1.1888-4.4947-0.32594-0.31082-0.60434-0.43814-0.95757-0.43791-1.2776 1e-3 -2.3183 2.2181-2.1792 4.6429 0.10505 1.8302 0.62422 2.9608 1.5026 3.272 0.3376 0.11962 0.98303 0.12145 1.3284 4e-3zm-1.0463-0.25989c-0.13239-0.071-0.26472-0.21753-0.35534-0.39352-0.11944-0.23196-0.17357-0.28042-0.31319-0.28042-0.19495 0-0.50529-0.23901-0.63432-0.48854-0.10147-0.19622-0.11419-0.46558-0.032157-0.68133 0.046343-0.12189 0.029922-0.17351-0.091492-0.28757-0.28205-0.26497-0.32005-0.75104-0.084605-1.0822 0.10048-0.14132 0.10023-0.15551-0.0053-0.3027-0.191-0.26642-0.20254-0.54238-0.036326-0.86895 0.12511-0.24581 0.1384-0.3219 0.086028-0.49255-0.092798-0.30236-0.00941-0.61132 0.22947-0.8502 0.16051-0.16052 0.20898-0.25929 0.20898-0.4259 0-0.42856 0.36697-0.81632 0.77256-0.81632 0.10663 0 0.19764-0.0378 0.21785-0.0905 0.11008-0.28685 0.77227-0.42673 1.1342-0.23957 0.19529 0.10099 0.41751 0.41431 0.41788 0.58919 1.27e-4 0.0593 0.09524 0.19121 0.21137 0.29318 0.26459 0.23231 0.37696 0.56843 0.28154 0.84214-0.061892 0.17755-0.052055 0.21306 0.1102 0.39787 0.18371 0.20923 0.24472 0.42184 0.24139 0.84118-0.00115 0.13319 0.015333 0.3827 0.036424 0.55447 0.028295 0.23046 0.011671 0.3685-0.063433 0.52678-0.093329 0.19668-0.093785 0.2259-0.00545 0.35199 0.15715 0.22436 0.12777 0.72983-0.05504 0.94709-0.11052 0.13134-0.15146 0.25101-0.15175 0.44356-6.888e-4 0.40841-0.36191 0.83739-0.70615 0.83844-0.095201 2.3e-4 -0.14188 0.0481-0.16943 0.17351-0.039217 0.17855-0.26534 0.42678-0.49735 0.54598-0.19698 0.1012-0.50873 0.0823-0.74655-0.0452zm0.77525-0.0628c0.23201-0.11911 0.47189-0.44439 0.40616-0.55075-0.020548-0.0332-0.097308-0.0604-0.1706-0.0604-0.073294 0-0.20366-0.0653-0.2897-0.14506-0.18906-0.1753-0.41898-0.17071-0.72017 0.0144-0.11654 0.0716-0.24595 0.13032-0.28757 0.13045-0.2051 5.7e-4 0.043505 0.44865 0.33407 0.60208 0.28678 0.15141 0.44703 0.15346 0.7278 9e-3zm-0.90886-0.76582c0.17297-0.12116 0.16956-0.17307-0.016939-0.25805-0.3208-0.14617-0.50837-0.77271-0.33071-1.1047 0.054997-0.10276 0.042023-0.11707-0.10595-0.11688-0.35632 4.6e-4 -0.74376 0.41034-0.74376 0.78681 0 0.22161 0.19105 0.55236 0.38867 0.67287 0.22668 0.13823 0.62573 0.14806 0.80868 0.0199zm1.8182-0.0284c0.21451-0.13077 0.37488-0.43389 0.37451-0.70785-4.581e-4 -0.37133-0.38867-0.74357-0.77539-0.74357-0.17438 0-0.17558 2e-3 -0.11497 0.22946 0.095091 0.35627 0.013477 0.63654-0.25631 0.88028-0.21564 0.19482-0.2269 0.21996-0.1345 0.3003 0.22706 0.19742 0.62122 0.21541 0.90665 0.0414zm-0.83287-0.39504c0.18852-0.18061 0.31445-0.51131 0.25991-0.68252-0.017779-0.0558-0.059351-0.17405-0.092401-0.2628l-0.060089-0.16136-0.20918 0.12342c-0.25167 0.14849-0.74279 0.12716-0.92783-0.0403-0.11308-0.10233-0.12022-0.0983-0.21128 0.11965-0.12141 0.29056-0.11885 0.43934 0.011702 0.68206 0.25173 0.46799 0.85803 0.57743 1.2292 0.22185zm1.3843-0.77596c0.22104-0.35765 0.13103-0.8707-0.18961-1.0808-0.3598-0.23574-0.83464-0.17624-0.83464 0.1046 0 0.0851-0.040867 0.2526-0.090813 0.37214-0.049945 0.11954-0.090645 0.22082-0.090442 0.22508 2.059e-4 4e-3 0.12231 0.0111 0.27135 0.0152 0.31314 9e-3 0.54518 0.14052 0.6876 0.39086 0.05508 0.0968 0.10474 0.17622 0.11035 0.17643 0.00563 1.8e-4 0.066908-0.0914 0.13622-0.20352zm-3.3036-0.1868c0.10711-0.0817 0.30608-0.16634 0.44214-0.18811l0.2474-0.0396-0.088644-0.17769c-0.056604-0.11347-0.081112-0.30259-0.067804-0.52326l0.02084-0.34555-0.20394-0.0195c-0.46438-0.0444-0.85553 0.30243-0.85553 0.75863 0 0.24163 0.18194 0.68359 0.28141 0.68359 0.016154 0 0.11701-0.0668 0.22412-0.14854zm1.8309-0.12156c0.38009-0.24905 0.46635-0.777 0.18682-1.1435-0.28514-0.37384-0.76575-0.42765-1.1244-0.1259-0.34228 0.28801-0.39026 0.73801-0.11589 1.0868 0.25513 0.32435 0.71532 0.4041 1.0534 0.18256zm1.5978-1.3254c-4.576e-4 -0.13782-0.02632-0.29074-0.057354-0.33981-0.048094-0.076-0.077008-0.0705-0.19583 0.0378-0.32326 0.29464-0.72566 0.34833-1.0641 0.14197-0.10902-0.0665-0.21118-0.12086-0.22703-0.12086-0.079685 0-0.00934 0.15754 0.15281 0.34222 0.099894 0.11378 0.18162 0.23119 0.18162 0.26092 0 0.0297 0.14515 0.0391 0.32255 0.0208 0.23088-0.0238 0.37283-6e-3 0.49946 0.0623 0.16674 0.0901 0.183 0.0884 0.28286-0.0296 0.064167-0.0758 0.10558-0.22397 0.10502-0.37574zm-3.1818 0.0726c0.275-6e-3 0.28201-0.0103 0.24715-0.16905-0.019735-0.0899-0.00945-0.23288 0.022852-0.31784 0.056757-0.14928 0.049583-0.15552-0.21316-0.18513-0.17044-0.0192-0.32848-0.0838-0.42353-0.1731l-0.15163-0.14245-0.11569 0.15057c-0.14223 0.18513-0.15488 0.60061-0.02587 0.85009 0.088213 0.17058 0.099117 0.17456 0.23468 0.0857 0.078193-0.0512 0.26953-0.0957 0.4252-0.0988zm1.1586-0.26264c0.35648 0 0.38954-0.0109 0.38954-0.12829 0-0.0998-0.047225-0.13596-0.21247-0.16278-0.11686-0.0189-0.29112-0.0905-0.38725-0.15893-0.15841-0.1128-0.1904-0.11635-0.34151-0.0379-0.091699 0.0476-0.18945 0.12234-0.21723 0.16615-0.059909 0.0945-0.068162 0.42208-0.014177 0.56277 0.032647 0.0851 0.063952 0.0748 0.21587-0.0707 0.15716-0.15056 0.22268-0.17023 0.56722-0.17023zm1.4408 7e-3c0.24856-0.10386 0.44728-0.35016 0.4972-0.61626 0.06975-0.37179-0.24634-0.81125-0.65294-0.90779-0.16056-0.0381-0.16278-0.0348-0.10679 0.16041 0.10888 0.37966-0.11312 0.80273-0.53532 1.0202-0.11941 0.0615-0.12837 0.0863-0.060565 0.16801 0.093025 0.1121 0.39586 0.25317 0.55075 0.25657 0.059339 1e-3 0.19779-0.0352 0.30767-0.0811zm-0.74854-0.46421c0.21516-0.11043 0.37827-0.36174 0.40842-0.62932 0.066158-0.58695-0.47376-1.0126-1.0347-0.81567-0.19623 0.0689-0.24694 0.11466-0.23049 0.20806 0.078881 0.44785 0.073559 0.63822-0.023564 0.84289-0.10032 0.21142-0.099941 0.22384 0.00951 0.30787 0.24384 0.18722 0.60441 0.2229 0.87081 0.0862zm-1.2652-0.1342c0.2726-0.18157 0.44231-0.52961 0.39117-0.80222-0.15627-0.83298-1.3323-0.88969-1.5517-0.0748-0.18505 0.68722 0.57882 1.2645 1.1605 0.87704zm2.1613-1.2721c0.022836-0.3484-0.10682-0.61363-0.36528-0.74729-0.2492-0.12886-0.60564-0.12786-0.80424 2e-3 -0.14522 0.0952-0.39186 0.43125-0.39237 0.5347-1.272e-4 0.025 0.12372 0.0454 0.27521 0.0454 0.30229 0 0.58052 0.11697 0.70667 0.29708 0.072361 0.1033 0.33525 0.1861 0.50114 0.15783 0.033295-6e-3 0.068787-0.13617 0.078866-0.28999zm-1.7794-0.035c0.017587-0.0285-0.034501-0.11419-0.11575-0.19052-0.19159-0.17999-0.29442-0.49882-0.24531-0.76061 0.044251-0.23588 0.00918-0.24999-0.30007-0.12077-0.24364 0.10179-0.45287 0.4109-0.45325 0.66958-2.54e-4 0.17911 0.00371 0.18136 0.28734 0.16194 0.22945-0.0157 0.33045 0.0108 0.4995 0.13103 0.23748 0.16892 0.28161 0.18366 0.32754 0.10935zm0.38344-0.62794c0.1854-0.19549 0.50008-0.31156 0.74657-0.27539 0.20872 0.0307 0.22093-0.0317 0.058428-0.29821-0.23309-0.38229-0.72832-0.49207-1.0975-0.24329-0.27881 0.1879-0.36789 0.37915-0.33885 0.72751 0.018099 0.21708 0.068236 0.33635 0.19856 0.47238l0.17435 0.18198 0.050925-0.19995c0.028009-0.10997 0.12138-0.27423 0.2075-0.36503z"
       fill="#0a425a"
       stroke-width=".060541"
       id="path6" />
    <path
       d="m12.943 281.82c-0.54401-0.16716-1.1094-0.75202-1.3802-1.4277-0.28801-0.71859-0.36762-1.281-0.36322-2.5659 0.0037-1.0794 0.01787-1.2324 0.16533-1.786 0.19921-0.74781 0.61852-1.6123 0.97357-2.0072 1.564-1.7395 3.5662 0.14263 3.7135 3.4908 0.07363 1.6737-0.25502 3.0259-0.9075 3.7337-0.40264 0.43682-0.75269 0.58396-1.4365 0.60381-0.31633 9e-3 -0.66055-0.01-0.76495-0.0416zm1.509-0.16767c1.0085-0.44613 1.496-1.6582 1.5023-3.7351 0.0044-1.4541-0.28105-2.5739-0.88926-3.4888-0.43338-0.65189-0.90434-0.96097-1.4643-0.96097-1.4239 0-2.5562 2.4806-2.3237 5.0906 0.16736 1.8783 0.72811 2.8921 1.762 3.1855 0.3689 0.1047 1.0728 0.0593 1.413-0.0912zm-1.4104-5e-3c-0.74673-0.2441-1.2814-0.99507-1.5129-2.1251-0.54924-2.6808 0.33775-5.5608 1.8283-5.9361 1.1563-0.29115 2.2715 1.341 2.471 3.6161 0.14422 1.6452-0.21303 3.2911-0.85875 3.9565-0.36438 0.37547-0.6663 0.50007-1.2612 0.5205-0.28303 0.01-0.58288-5e-3 -0.66634-0.0319zm1.2273-0.10278c0.86381-0.29433 1.3669-1.2995 1.4946-2.986 0.14284-1.8871-0.3303-3.676-1.1888-4.4947-0.32594-0.31082-0.60434-0.43814-0.95757-0.43791-1.2776 1e-3 -2.3183 2.2181-2.1792 4.6429 0.10505 1.8302 0.62422 2.9608 1.5026 3.272 0.3376 0.11962 0.98302 0.12145 1.3284 4e-3zm-1.0463-0.25989c-0.13239-0.071-0.26472-0.21753-0.35534-0.39352-0.11944-0.23196-0.17357-0.28042-0.31319-0.28042-0.19495 0-0.50529-0.23901-0.63432-0.48854-0.10147-0.19622-0.11418-0.46558-0.03216-0.68133 0.04634-0.12189 0.02992-0.17351-0.09149-0.28757-0.28205-0.26497-0.32005-0.75104-0.0846-1.0822 0.10048-0.14132 0.10023-0.15551-0.0053-0.3027-0.191-0.26642-0.20254-0.54238-0.03633-0.86895 0.12511-0.24581 0.1384-0.3219 0.08603-0.49255-0.0928-0.30236-0.0094-0.61132 0.22947-0.8502 0.16052-0.16052 0.20898-0.25929 0.20898-0.4259 0-0.42856 0.36697-0.81632 0.77256-0.81632 0.10663 0 0.19764-0.0378 0.21785-0.0905 0.11008-0.28685 0.77227-0.42673 1.1342-0.23957 0.19529 0.10099 0.41751 0.41431 0.41788 0.58919 1.27e-4 0.0593 0.09524 0.19121 0.21137 0.29318 0.26459 0.23231 0.37696 0.56843 0.28154 0.84214-0.06189 0.17755-0.05205 0.21306 0.1102 0.39787 0.18371 0.20923 0.24472 0.42184 0.24139 0.84118-0.0011 0.13319 0.01533 0.3827 0.03642 0.55447 0.02829 0.23046 0.01167 0.3685-0.06343 0.52678-0.09333 0.19668-0.09379 0.2259-0.0054 0.35199 0.15715 0.22436 0.12777 0.72983-0.05504 0.94709-0.11052 0.13134-0.15146 0.25101-0.15175 0.44356-6.88e-4 0.40841-0.36191 0.83739-0.70615 0.83844-0.0952 2.3e-4 -0.14188 0.0481-0.16943 0.17351-0.03922 0.17855-0.26534 0.42678-0.49735 0.54598-0.19698 0.1012-0.50873 0.0823-0.74655-0.0452zm0.77525-0.0628c0.23201-0.11911 0.47189-0.44439 0.40616-0.55075-0.02055-0.0332-0.09731-0.0604-0.1706-0.0604-0.07329 0-0.20366-0.0653-0.2897-0.14506-0.18906-0.1753-0.41898-0.17071-0.72017 0.0144-0.11654 0.0716-0.24595 0.13032-0.28757 0.13045-0.2051 5.9e-4 0.0435 0.44865 0.33407 0.60208 0.28678 0.15141 0.44703 0.15346 0.7278 9e-3zm-0.90886-0.76582c0.17297-0.12116 0.16956-0.17307-0.01694-0.25805-0.3208-0.14617-0.50837-0.77271-0.33071-1.1047 0.055-0.10276 0.04202-0.11707-0.10595-0.11688-0.35632 4.5e-4 -0.74376 0.41034-0.74376 0.78681 0 0.22161 0.19105 0.55236 0.38867 0.67287 0.22668 0.13823 0.62573 0.14806 0.80868 0.0199zm1.8182-0.0284c0.21451-0.13077 0.37488-0.43389 0.37451-0.70785-4.5e-4 -0.37133-0.38867-0.74357-0.77539-0.74357-0.17438 0-0.17558 2e-3 -0.11497 0.22946 0.09509 0.35627 0.01348 0.63654-0.25631 0.88028-0.21564 0.19482-0.2269 0.21996-0.1345 0.3003 0.22706 0.19742 0.62122 0.21541 0.90666 0.0414zm-0.83287-0.39504c0.18852-0.18061 0.31445-0.51131 0.25991-0.68252-0.01778-0.0558-0.05935-0.17405-0.0924-0.2628l-0.06009-0.16136-0.20918 0.12342c-0.25167 0.14849-0.74279 0.12716-0.92783-0.0403-0.11308-0.10233-0.12022-0.0983-0.21128 0.11965-0.12141 0.29056-0.11885 0.43934 0.0117 0.68206 0.25173 0.46799 0.85803 0.57743 1.2292 0.22185zm1.3843-0.77596c0.22104-0.35765 0.13103-0.8707-0.18962-1.0808-0.3598-0.23574-0.83464-0.17624-0.83464 0.1046 0 0.0851-0.04087 0.2526-0.09081 0.37214-0.04995 0.11954-0.09065 0.22082-0.09044 0.22508 2.06e-4 4e-3 0.12231 0.0111 0.27135 0.0152 0.31314 9e-3 0.54518 0.14052 0.6876 0.39086 0.05508 0.0968 0.10474 0.17622 0.11035 0.17643 0.0056 1.8e-4 0.06691-0.0914 0.13622-0.20352zm-3.3036-0.1868c0.10711-0.0817 0.30608-0.16634 0.44214-0.18811l0.2474-0.0396-0.08864-0.17769c-0.0566-0.11347-0.08111-0.30259-0.0678-0.52326l0.02084-0.34555-0.20394-0.0195c-0.46438-0.0444-0.85553 0.30243-0.85553 0.75863 0 0.24163 0.18194 0.68359 0.28141 0.68359 0.01615 0 0.11701-0.0668 0.22412-0.14854zm1.8309-0.12156c0.3801-0.24905 0.46635-0.777 0.18682-1.1435-0.28514-0.37384-0.76575-0.42765-1.1244-0.1259-0.34228 0.28801-0.39026 0.73801-0.11589 1.0868 0.25513 0.32435 0.71532 0.4041 1.0534 0.18256zm1.5978-1.3254c-4.5e-4 -0.13782-0.02632-0.29074-0.05735-0.33981-0.04809-0.076-0.07701-0.0705-0.19583 0.0378-0.32326 0.29464-0.72566 0.34833-1.0641 0.14197-0.10902-0.0665-0.21118-0.12086-0.22703-0.12086-0.07969 0-0.0093 0.15754 0.15282 0.34222 0.09989 0.11378 0.18162 0.23119 0.18162 0.26092 0 0.0297 0.14515 0.0391 0.32255 0.0208 0.23088-0.0238 0.37283-6e-3 0.49946 0.0623 0.16674 0.0901 0.183 0.0884 0.28286-0.0296 0.06417-0.0758 0.10558-0.22397 0.10502-0.37574zm-3.1818 0.0726c0.275-6e-3 0.28201-0.0103 0.24715-0.16905-0.01974-0.0899-0.0095-0.23288 0.02285-0.31784 0.05676-0.14928 0.04958-0.15552-0.21316-0.18513-0.17044-0.0192-0.32848-0.0838-0.42353-0.1731l-0.15163-0.14245-0.11569 0.15057c-0.14223 0.18513-0.15488 0.60061-0.02587 0.85009 0.08821 0.17058 0.09912 0.17456 0.23468 0.0857 0.07819-0.0512 0.26953-0.0957 0.4252-0.0988zm1.1586-0.26264c0.35648 0 0.38954-0.0109 0.38954-0.12829 0-0.0998-0.04723-0.13596-0.21247-0.16278-0.11686-0.0189-0.29112-0.0905-0.38725-0.15893-0.15841-0.1128-0.1904-0.11635-0.3415-0.0379-0.0917 0.0476-0.18945 0.12234-0.21723 0.16615-0.05991 0.0945-0.06816 0.42208-0.01418 0.56277 0.03265 0.0851 0.06395 0.0748 0.21587-0.0707 0.15716-0.15056 0.22268-0.17023 0.56722-0.17023zm1.4408 7e-3c0.24856-0.10386 0.44728-0.35016 0.4972-0.61626 0.06975-0.37179-0.24634-0.81125-0.65294-0.90779-0.16056-0.0381-0.16278-0.0348-0.10679 0.16041 0.10888 0.37966-0.11312 0.80273-0.53532 1.0202-0.11941 0.0615-0.12837 0.0863-0.06057 0.16801 0.09303 0.1121 0.39586 0.25317 0.55075 0.25657 0.05934 1e-3 0.19779-0.0352 0.30767-0.0811zm-0.74854-0.46421c0.21516-0.11043 0.37827-0.36174 0.40842-0.62932 0.06616-0.58695-0.47376-1.0126-1.0347-0.81567-0.19623 0.0689-0.24694 0.11466-0.23049 0.20806 0.07888 0.44785 0.07356 0.63822-0.02356 0.84289-0.10032 0.21142-0.09994 0.22384 0.0095 0.30787 0.24384 0.18722 0.6044 0.2229 0.87081 0.0862zm-1.2652-0.1342c0.2726-0.18157 0.44231-0.52961 0.39117-0.80222-0.15627-0.83298-1.3323-0.88969-1.5517-0.0748-0.18505 0.68722 0.57882 1.2645 1.1605 0.87704zm2.1613-1.2721c0.02284-0.3484-0.10682-0.61363-0.36528-0.74729-0.2492-0.12886-0.60564-0.12786-0.80424 2e-3 -0.14522 0.0952-0.39186 0.43125-0.39237 0.5347-1.27e-4 0.025 0.12372 0.0454 0.27521 0.0454 0.30228 0 0.58052 0.11697 0.70667 0.29708 0.07236 0.1033 0.33525 0.1861 0.50114 0.15783 0.03329-6e-3 0.06879-0.13617 0.07887-0.28999zm-1.7794-0.035c0.01759-0.0285-0.0345-0.11419-0.11575-0.19052-0.19159-0.17999-0.29442-0.49882-0.24531-0.76061 0.04425-0.23588 0.0092-0.24999-0.30007-0.12077-0.24364 0.10179-0.45287 0.4109-0.45325 0.66958-2.54e-4 0.17911 0.0037 0.18136 0.28734 0.16194 0.22945-0.0157 0.33045 0.0108 0.4995 0.13103 0.23748 0.16892 0.28161 0.18366 0.32754 0.10935zm0.38344-0.62794c0.1854-0.19549 0.50008-0.31156 0.74657-0.27539 0.20872 0.0307 0.22093-0.0317 0.05843-0.29821-0.23309-0.38229-0.72832-0.49207-1.0975-0.24329-0.27881 0.1879-0.36789 0.37915-0.33885 0.72751 0.0181 0.21708 0.06824 0.33635 0.19856 0.47238l0.17435 0.18198 0.05092-0.19995c0.02801-0.10997 0.12138-0.27423 0.2075-0.36503z"
       fill="#6b0007"
       stroke="#e50000"
       stroke-width=".060541"
       id="path8" />
    <path
       d="m9.7358 292.78c-0.54401-0.16716-1.1094-0.75202-1.3802-1.4277-0.28801-0.71859-0.36762-1.281-0.36322-2.5659 0.0037-1.0794 0.01787-1.2324 0.16533-1.786 0.19921-0.74781 0.61852-1.6123 0.97357-2.0072 1.564-1.7395 3.5662 0.14263 3.7135 3.4908 0.07363 1.6737-0.25502 3.0259-0.9075 3.7337-0.40264 0.43682-0.75269 0.58396-1.4365 0.60381-0.31633 9e-3 -0.66055-0.01-0.76495-0.0416zm1.509-0.16767c1.0085-0.44613 1.496-1.6582 1.5023-3.7351 0.0044-1.4541-0.28105-2.5739-0.88926-3.4888-0.43338-0.65189-0.90434-0.96097-1.4643-0.96097-1.4239 0-2.5562 2.4806-2.3237 5.0906 0.16736 1.8783 0.72811 2.8921 1.762 3.1855 0.3689 0.1047 1.0728 0.0593 1.413-0.0912zm-1.4104-5e-3c-0.74673-0.2441-1.2814-0.99507-1.5129-2.1251-0.54924-2.6808 0.33775-5.5608 1.8283-5.9361 1.1563-0.29115 2.2715 1.341 2.471 3.6161 0.14422 1.6452-0.21303 3.2911-0.85875 3.9565-0.36438 0.37547-0.6663 0.50007-1.2612 0.5205-0.28303 0.01-0.58288-5e-3 -0.66634-0.0319zm1.2273-0.10278c0.86381-0.29433 1.3669-1.2995 1.4946-2.986 0.14284-1.8871-0.3303-3.676-1.1888-4.4947-0.32594-0.31082-0.60434-0.43814-0.95757-0.43791-1.2776 1e-3 -2.3183 2.2181-2.1792 4.6429 0.10505 1.8302 0.62422 2.9608 1.5026 3.272 0.33759 0.11962 0.98302 0.12145 1.3284 4e-3zm-1.0463-0.25989c-0.13239-0.071-0.26472-0.21753-0.35534-0.39352-0.11944-0.23196-0.17357-0.28042-0.3132-0.28042-0.19495 0-0.50529-0.23901-0.63432-0.48854-0.10147-0.19622-0.11419-0.46558-0.03216-0.68133 0.04634-0.12189 0.02992-0.17351-0.09149-0.28757-0.28205-0.26497-0.32005-0.75104-0.0846-1.0822 0.10048-0.14132 0.10023-0.15551-0.0053-0.3027-0.191-0.26642-0.20254-0.54238-0.03633-0.86895 0.12511-0.24581 0.1384-0.3219 0.08603-0.49255-0.0928-0.30236-0.0094-0.61132 0.22947-0.8502 0.16051-0.16052 0.20898-0.25929 0.20898-0.4259 0-0.42856 0.36697-0.81632 0.77257-0.81632 0.10663 0 0.19764-0.0378 0.21785-0.0905 0.11008-0.28685 0.77227-0.42673 1.1342-0.23957 0.19529 0.10099 0.41751 0.41431 0.41788 0.58919 1.27e-4 0.0593 0.09524 0.19121 0.21137 0.29318 0.26459 0.23231 0.37696 0.56843 0.28154 0.84214-0.06189 0.17755-0.05206 0.21306 0.1102 0.39787 0.18371 0.20923 0.24472 0.42184 0.24139 0.84118-0.0011 0.13319 0.01533 0.3827 0.03642 0.55447 0.02829 0.23046 0.01167 0.3685-0.06343 0.52678-0.09333 0.19668-0.09378 0.2259-0.0054 0.35199 0.15715 0.22436 0.12777 0.72983-0.05504 0.94709-0.11052 0.13134-0.15146 0.25101-0.15175 0.44356-6.88e-4 0.40841-0.36191 0.83739-0.70615 0.83844-0.0952 2.3e-4 -0.14188 0.0481-0.16943 0.17351-0.03922 0.17855-0.26534 0.42678-0.49735 0.54598-0.19698 0.1012-0.50873 0.0823-0.74655-0.0452zm0.77525-0.0628c0.232-0.11911 0.47189-0.44439 0.40616-0.55075-0.02055-0.0332-0.09731-0.0604-0.1706-0.0604-0.07329 0-0.20366-0.0653-0.2897-0.14506-0.18906-0.1753-0.41898-0.17071-0.72017 0.0144-0.11654 0.0716-0.24595 0.13032-0.28757 0.13045-0.2051 5.9e-4 0.0435 0.44865 0.33407 0.60208 0.28678 0.15141 0.44703 0.15346 0.7278 9e-3zm-0.90886-0.76582c0.17297-0.12116 0.16956-0.17307-0.01694-0.25805-0.3208-0.14617-0.50837-0.77271-0.3307-1.1047 0.055-0.10276 0.04202-0.11707-0.10595-0.11688-0.35632 4.5e-4 -0.74376 0.41034-0.74376 0.78681 0 0.22161 0.19105 0.55236 0.38867 0.67287 0.22668 0.13823 0.62573 0.14806 0.80868 0.0199zm1.8182-0.0284c0.21451-0.13077 0.37488-0.43389 0.37451-0.70785-4.49e-4 -0.37133-0.38867-0.74357-0.77539-0.74357-0.17438 0-0.17558 2e-3 -0.11497 0.22946 0.09509 0.35627 0.01348 0.63654-0.25631 0.88028-0.21564 0.19482-0.2269 0.21996-0.1345 0.3003 0.22706 0.19742 0.62122 0.21541 0.90666 0.0414zm-0.83287-0.39504c0.18852-0.18061 0.31446-0.51131 0.25991-0.68252-0.01778-0.0558-0.05935-0.17405-0.0924-0.2628l-0.06009-0.16136-0.20918 0.12342c-0.25167 0.14849-0.74279 0.12716-0.92783-0.0403-0.11308-0.10233-0.12022-0.0983-0.21128 0.11965-0.12141 0.29056-0.11886 0.43934 0.0117 0.68206 0.25172 0.46799 0.85803 0.57743 1.2292 0.22185zm1.3843-0.77596c0.22104-0.35765 0.13103-0.8707-0.18961-1.0808-0.3598-0.23574-0.83464-0.17624-0.83464 0.1046 0 0.0851-0.04087 0.2526-0.09081 0.37214-0.04995 0.11954-0.09065 0.22082-0.09044 0.22508 2.06e-4 4e-3 0.12231 0.0111 0.27135 0.0152 0.31314 9e-3 0.54518 0.14052 0.6876 0.39086 0.05508 0.0968 0.10474 0.17622 0.11035 0.17643 0.0056 1.8e-4 0.06691-0.0914 0.13622-0.20352zm-3.3036-0.1868c0.10711-0.0817 0.30608-0.16634 0.44214-0.18811l0.2474-0.0396-0.08864-0.17769c-0.0566-0.11347-0.08111-0.30259-0.0678-0.52326l0.02084-0.34555-0.20394-0.0195c-0.46438-0.0444-0.85553 0.30243-0.85553 0.75863 0 0.24163 0.18194 0.68359 0.28141 0.68359 0.01615 0 0.11701-0.0668 0.22412-0.14854zm1.8309-0.12156c0.38009-0.24905 0.46635-0.777 0.18682-1.1435-0.28514-0.37384-0.76575-0.42765-1.1244-0.1259-0.34228 0.28801-0.39027 0.73801-0.11589 1.0868 0.25513 0.32435 0.71532 0.4041 1.0534 0.18256zm1.5978-1.3254c-4.5e-4 -0.13782-0.02632-0.29074-0.05735-0.33981-0.04809-0.076-0.07701-0.0705-0.19583 0.0378-0.32326 0.29464-0.72566 0.34833-1.0641 0.14197-0.10902-0.0665-0.21118-0.12086-0.22703-0.12086-0.07968 0-0.0093 0.15754 0.15282 0.34222 0.09989 0.11378 0.18162 0.23119 0.18162 0.26092 0 0.0297 0.14515 0.0391 0.32256 0.0208 0.23088-0.0238 0.37283-6e-3 0.49946 0.0623 0.16674 0.0901 0.183 0.0884 0.28286-0.0296 0.06417-0.0758 0.10558-0.22397 0.10502-0.37574zm-3.1818 0.0726c0.275-6e-3 0.28201-0.0103 0.24715-0.16905-0.01973-0.0899-0.0094-0.23288 0.02285-0.31784 0.05676-0.14928 0.04958-0.15552-0.21316-0.18513-0.17044-0.0192-0.32848-0.0838-0.42352-0.1731l-0.15163-0.14245-0.11569 0.15057c-0.14223 0.18513-0.15488 0.60061-0.02587 0.85009 0.08821 0.17058 0.09912 0.17456 0.23468 0.0857 0.07819-0.0512 0.26953-0.0957 0.4252-0.0988zm1.1586-0.26264c0.35648 0 0.38954-0.0109 0.38954-0.12829 0-0.0998-0.04723-0.13596-0.21247-0.16278-0.11686-0.0189-0.29112-0.0905-0.38725-0.15893-0.15841-0.1128-0.1904-0.11635-0.34151-0.0379-0.0917 0.0476-0.18945 0.12234-0.21723 0.16615-0.05991 0.0945-0.06816 0.42208-0.01418 0.56277 0.03265 0.0851 0.06395 0.0748 0.21587-0.0707 0.15716-0.15056 0.22268-0.17023 0.56722-0.17023zm1.4408 7e-3c0.24856-0.10386 0.44728-0.35016 0.4972-0.61626 0.06975-0.37179-0.24634-0.81125-0.65294-0.90779-0.16056-0.0381-0.16278-0.0348-0.10679 0.16041 0.10888 0.37966-0.11312 0.80273-0.53532 1.0202-0.11941 0.0615-0.12837 0.0863-0.06057 0.16801 0.09302 0.1121 0.39586 0.25317 0.55075 0.25657 0.05934 1e-3 0.19779-0.0352 0.30767-0.0811zm-0.74854-0.46421c0.21516-0.11043 0.37827-0.36174 0.40842-0.62932 0.06616-0.58695-0.47376-1.0126-1.0347-0.81567-0.19623 0.0689-0.24694 0.11466-0.23049 0.20806 0.07888 0.44785 0.07356 0.63822-0.02356 0.84289-0.10032 0.21142-0.09994 0.22384 0.0095 0.30787 0.24384 0.18722 0.6044 0.2229 0.87081 0.0862zm-1.2652-0.1342c0.2726-0.18157 0.44231-0.52961 0.39117-0.80222-0.15627-0.83298-1.3323-0.88969-1.5517-0.0748-0.18505 0.68722 0.57882 1.2645 1.1605 0.87704zm2.1613-1.2721c0.02284-0.3484-0.10682-0.61363-0.36528-0.74729-0.2492-0.12886-0.60564-0.12786-0.80424 2e-3 -0.14522 0.0952-0.39186 0.43125-0.39237 0.5347-1.28e-4 0.025 0.12372 0.0454 0.27521 0.0454 0.30229 0 0.58052 0.11697 0.70667 0.29708 0.07236 0.1033 0.33525 0.1861 0.50114 0.15783 0.0333-6e-3 0.06879-0.13617 0.07887-0.28999zm-1.7794-0.035c0.01759-0.0285-0.0345-0.11419-0.11575-0.19052-0.19159-0.17999-0.29442-0.49882-0.24531-0.76061 0.04425-0.23588 0.0092-0.24999-0.30007-0.12077-0.24364 0.10179-0.45287 0.4109-0.45325 0.66958-2.54e-4 0.17911 0.0037 0.18136 0.28734 0.16194 0.22946-0.0157 0.33045 0.0108 0.4995 0.13103 0.23748 0.16892 0.28161 0.18366 0.32754 0.10935zm0.38344-0.62794c0.1854-0.19549 0.50008-0.31156 0.74657-0.27539 0.20872 0.0307 0.22093-0.0317 0.05843-0.29821-0.2331-0.38229-0.72832-0.49207-1.0975-0.24329-0.27881 0.1879-0.36789 0.37915-0.33885 0.72751 0.0181 0.21708 0.06824 0.33635 0.19856 0.47238l0.17435 0.18198 0.05093-0.19995c0.02801-0.10997 0.12138-0.27423 0.2075-0.36503z"
       fill="#0a425a"
       stroke-width=".060541"
       id="path10" />
    <path
       d="m20.827 284.63c-0.54401-0.16716-1.1094-0.75202-1.3802-1.4277-0.28801-0.71859-0.36762-1.281-0.36322-2.5659 0.0037-1.0794 0.01787-1.2324 0.16533-1.786 0.19921-0.74781 0.61852-1.6123 0.97357-2.0072 1.564-1.7395 3.5662 0.14263 3.7135 3.4908 0.07363 1.6737-0.25502 3.0259-0.9075 3.7337-0.40264 0.43682-0.75269 0.58396-1.4365 0.60381-0.31633 9e-3 -0.66055-0.01-0.76495-0.0416zm1.509-0.16767c1.0085-0.44613 1.496-1.6582 1.5023-3.7351 0.0044-1.4541-0.28105-2.5739-0.88926-3.4888-0.43338-0.65189-0.90434-0.96097-1.4643-0.96097-1.4239 0-2.5562 2.4806-2.3237 5.0906 0.16736 1.8783 0.7281 2.8921 1.762 3.1855 0.3689 0.1047 1.0728 0.0593 1.413-0.0912zm-1.4104-5e-3c-0.74673-0.2441-1.2814-0.99507-1.5129-2.1251-0.54924-2.6808 0.33774-5.5608 1.8283-5.9361 1.1563-0.29115 2.2715 1.341 2.471 3.6161 0.14422 1.6452-0.21303 3.2911-0.85875 3.9565-0.36438 0.37547-0.6663 0.50007-1.2612 0.5205-0.28303 0.01-0.58288-5e-3 -0.66634-0.0319zm1.2273-0.10278c0.86381-0.29433 1.3669-1.2995 1.4946-2.986 0.14284-1.8871-0.3303-3.676-1.1888-4.4947-0.32594-0.31082-0.60434-0.43814-0.95757-0.43791-1.2776 1e-3 -2.3183 2.2181-2.1792 4.6429 0.10505 1.8302 0.62422 2.9608 1.5026 3.272 0.3376 0.11962 0.98302 0.12145 1.3284 4e-3zm-1.0463-0.25989c-0.13239-0.071-0.26472-0.21753-0.35534-0.39352-0.11944-0.23196-0.17357-0.28042-0.31319-0.28042-0.19495 0-0.50529-0.23901-0.63432-0.48854-0.10147-0.19622-0.11418-0.46558-0.03216-0.68133 0.04634-0.12189 0.02992-0.17351-0.09149-0.28757-0.28205-0.26497-0.32005-0.75104-0.0846-1.0822 0.10048-0.14132 0.10023-0.15551-0.0053-0.3027-0.191-0.26642-0.20254-0.54238-0.03633-0.86895 0.12511-0.24581 0.1384-0.3219 0.08603-0.49255-0.0928-0.30236-0.0094-0.61132 0.22947-0.8502 0.16052-0.16052 0.20898-0.25929 0.20898-0.4259 0-0.42856 0.36697-0.81632 0.77256-0.81632 0.10663 0 0.19764-0.0378 0.21785-0.0905 0.11008-0.28685 0.77227-0.42673 1.1342-0.23957 0.19529 0.10099 0.41751 0.41431 0.41788 0.58919 1.27e-4 0.0593 0.09524 0.19121 0.21137 0.29318 0.26459 0.23231 0.37696 0.56843 0.28154 0.84214-0.06189 0.17755-0.05205 0.21306 0.1102 0.39787 0.18371 0.20923 0.24472 0.42184 0.24139 0.84118-0.0011 0.13319 0.01533 0.3827 0.03642 0.55447 0.02829 0.23046 0.01167 0.3685-0.06343 0.52678-0.09333 0.19668-0.09379 0.2259-0.0054 0.35199 0.15715 0.22436 0.12777 0.72983-0.05504 0.94709-0.11052 0.13134-0.15146 0.25101-0.15175 0.44356-6.88e-4 0.40841-0.36191 0.83739-0.70615 0.83844-0.0952 2.3e-4 -0.14188 0.0481-0.16943 0.17351-0.03922 0.17855-0.26534 0.42678-0.49735 0.54598-0.19698 0.1012-0.50873 0.0823-0.74655-0.0452zm0.77525-0.0628c0.23201-0.11911 0.47189-0.44439 0.40616-0.55075-0.02055-0.0332-0.09731-0.0604-0.1706-0.0604-0.07329 0-0.20366-0.0653-0.2897-0.14506-0.18906-0.1753-0.41898-0.17071-0.72017 0.0144-0.11654 0.0716-0.24595 0.13032-0.28757 0.13045-0.2051 5.9e-4 0.0435 0.44865 0.33407 0.60208 0.28678 0.15141 0.44703 0.15346 0.7278 9e-3zm-0.90886-0.76582c0.17297-0.12116 0.16956-0.17307-0.01694-0.25805-0.3208-0.14617-0.50837-0.77271-0.33071-1.1047 0.055-0.10276 0.04202-0.11707-0.10595-0.11688-0.35632 4.5e-4 -0.74376 0.41034-0.74376 0.78681 0 0.22161 0.19105 0.55236 0.38867 0.67287 0.22668 0.13823 0.62573 0.14806 0.80868 0.0199zm1.8182-0.0284c0.21451-0.13077 0.37488-0.43389 0.37451-0.70785-4.5e-4 -0.37133-0.38867-0.74357-0.77539-0.74357-0.17438 0-0.17558 2e-3 -0.11497 0.22946 0.09509 0.35627 0.01348 0.63654-0.2563 0.88028-0.21564 0.19482-0.2269 0.21996-0.1345 0.3003 0.22706 0.19742 0.62122 0.21541 0.90666 0.0414zm-0.83287-0.39504c0.18852-0.18061 0.31445-0.51131 0.25991-0.68252-0.01778-0.0558-0.05935-0.17405-0.0924-0.2628l-0.06009-0.16136-0.20918 0.12342c-0.25167 0.14849-0.74279 0.12716-0.92783-0.0403-0.11308-0.10233-0.12022-0.0983-0.21128 0.11965-0.12141 0.29056-0.11885 0.43934 0.0117 0.68206 0.25173 0.46799 0.85803 0.57743 1.2292 0.22185zm1.3843-0.77596c0.22104-0.35765 0.13103-0.8707-0.18962-1.0808-0.3598-0.23574-0.83464-0.17624-0.83464 0.1046 0 0.0851-0.04087 0.2526-0.09081 0.37214-0.04995 0.11954-0.09064 0.22082-0.09044 0.22508 2.06e-4 4e-3 0.12231 0.0111 0.27135 0.0152 0.31314 9e-3 0.54518 0.14052 0.6876 0.39086 0.05508 0.0968 0.10474 0.17622 0.11035 0.17643 0.0056 1.8e-4 0.06691-0.0914 0.13622-0.20352zm-3.3036-0.1868c0.10711-0.0817 0.30608-0.16634 0.44214-0.18811l0.2474-0.0396-0.08864-0.17769c-0.0566-0.11347-0.08111-0.30259-0.0678-0.52326l0.02084-0.34555-0.20394-0.0195c-0.46438-0.0444-0.85553 0.30243-0.85553 0.75863 0 0.24163 0.18194 0.68359 0.28141 0.68359 0.01615 0 0.11701-0.0668 0.22412-0.14854zm1.8309-0.12156c0.3801-0.24905 0.46635-0.777 0.18682-1.1435-0.28514-0.37384-0.76575-0.42765-1.1244-0.1259-0.34228 0.28801-0.39026 0.73801-0.11589 1.0868 0.25513 0.32435 0.71532 0.4041 1.0534 0.18256zm1.5978-1.3254c-4.5e-4 -0.13782-0.02632-0.29074-0.05735-0.33981-0.04809-0.076-0.07701-0.0705-0.19583 0.0378-0.32326 0.29464-0.72566 0.34833-1.0641 0.14197-0.10902-0.0665-0.21118-0.12086-0.22703-0.12086-0.07968 0-0.0093 0.15754 0.15282 0.34222 0.09989 0.11378 0.18162 0.23119 0.18162 0.26092 0 0.0297 0.14515 0.0391 0.32255 0.0208 0.23088-0.0238 0.37283-6e-3 0.49946 0.0623 0.16674 0.0901 0.183 0.0884 0.28286-0.0296 0.06417-0.0758 0.10558-0.22397 0.10502-0.37574zm-3.1818 0.0726c0.275-6e-3 0.28201-0.0103 0.24715-0.16905-0.01974-0.0899-0.0095-0.23288 0.02285-0.31784 0.05676-0.14928 0.04958-0.15552-0.21316-0.18513-0.17044-0.0192-0.32848-0.0838-0.42353-0.1731l-0.15163-0.14245-0.11569 0.15057c-0.14223 0.18513-0.15488 0.60061-0.02587 0.85009 0.08821 0.17058 0.09912 0.17456 0.23468 0.0857 0.07819-0.0512 0.26953-0.0957 0.4252-0.0988zm1.1586-0.26264c0.35648 0 0.38954-0.0109 0.38954-0.12829 0-0.0998-0.04723-0.13596-0.21247-0.16278-0.11686-0.0189-0.29112-0.0905-0.38725-0.15893-0.15841-0.1128-0.1904-0.11635-0.34151-0.0379-0.0917 0.0476-0.18945 0.12234-0.21723 0.16615-0.05991 0.0945-0.06816 0.42208-0.01418 0.56277 0.03265 0.0851 0.06395 0.0748 0.21587-0.0707 0.15716-0.15056 0.22268-0.17023 0.56722-0.17023zm1.4408 7e-3c0.24856-0.10386 0.44728-0.35016 0.4972-0.61626 0.06975-0.37179-0.24634-0.81125-0.65294-0.90779-0.16056-0.0381-0.16278-0.0348-0.10679 0.16041 0.10888 0.37966-0.11312 0.80273-0.53532 1.0202-0.11941 0.0615-0.12837 0.0863-0.06057 0.16801 0.09303 0.1121 0.39586 0.25317 0.55075 0.25657 0.05934 1e-3 0.19779-0.0352 0.30767-0.0811zm-0.74854-0.46421c0.21516-0.11043 0.37827-0.36174 0.40842-0.62932 0.06616-0.58695-0.47376-1.0126-1.0347-0.81567-0.19623 0.0689-0.24694 0.11466-0.23049 0.20806 0.07888 0.44785 0.07356 0.63822-0.02356 0.84289-0.10032 0.21142-0.09994 0.22384 0.0095 0.30787 0.24384 0.18722 0.6044 0.2229 0.87081 0.0862zm-1.2652-0.1342c0.2726-0.18157 0.44231-0.52961 0.39117-0.80222-0.15627-0.83298-1.3323-0.88969-1.5517-0.0748-0.18505 0.68722 0.57882 1.2645 1.1605 0.87704zm2.1613-1.2721c0.02284-0.3484-0.10682-0.61363-0.36528-0.74729-0.2492-0.12886-0.60564-0.12786-0.80424 2e-3 -0.14522 0.0952-0.39186 0.43125-0.39237 0.5347-1.27e-4 0.025 0.12372 0.0454 0.27521 0.0454 0.30228 0 0.58052 0.11697 0.70667 0.29708 0.07236 0.1033 0.33525 0.1861 0.50114 0.15783 0.03329-6e-3 0.06879-0.13617 0.07887-0.28999zm-1.7794-0.035c0.01759-0.0285-0.0345-0.11419-0.11575-0.19052-0.19159-0.17999-0.29442-0.49882-0.24531-0.76061 0.04425-0.23588 0.0092-0.24999-0.30007-0.12077-0.24364 0.10179-0.45287 0.4109-0.45325 0.66958-2.54e-4 0.17911 0.0037 0.18136 0.28734 0.16194 0.22945-0.0157 0.33045 0.0108 0.4995 0.13103 0.23748 0.16892 0.28161 0.18366 0.32754 0.10935zm0.38344-0.62794c0.1854-0.19549 0.50008-0.31156 0.74657-0.27539 0.20872 0.0307 0.22093-0.0317 0.05843-0.29821-0.23309-0.38229-0.72832-0.49207-1.0975-0.24329-0.27881 0.1879-0.36789 0.37915-0.33885 0.72751 0.0181 0.21708 0.06824 0.33635 0.19856 0.47238l0.17435 0.18198 0.05092-0.19995c0.02801-0.10997 0.12138-0.27423 0.2075-0.36503z"
       fill="#0a425a"
       stroke-width=".060541"
       id="path12" />
    <path
       d="m17.086 293.18c-0.54401-0.16716-1.1094-0.75202-1.3802-1.4277-0.28801-0.71859-0.36762-1.281-0.36322-2.5659 0.0037-1.0794 0.01787-1.2324 0.16533-1.786 0.19921-0.74781 0.61852-1.6123 0.97357-2.0072 1.564-1.7395 3.5662 0.14263 3.7135 3.4908 0.07363 1.6737-0.25502 3.0259-0.9075 3.7337-0.40264 0.43682-0.75269 0.58396-1.4365 0.60381-0.31633 9e-3 -0.66056-0.01-0.76495-0.0416zm1.509-0.16767c1.0085-0.44613 1.496-1.6582 1.5023-3.7351 0.0044-1.4541-0.28105-2.5739-0.88926-3.4888-0.43338-0.65189-0.90434-0.96097-1.4643-0.96097-1.4239 0-2.5562 2.4806-2.3237 5.0906 0.16736 1.8783 0.72811 2.8921 1.762 3.1855 0.3689 0.1047 1.0728 0.0593 1.413-0.0912zm-1.4104-5e-3c-0.74673-0.2441-1.2814-0.99507-1.5129-2.1251-0.54924-2.6808 0.33775-5.5608 1.8283-5.9361 1.1563-0.29115 2.2715 1.341 2.471 3.6161 0.14422 1.6452-0.21303 3.2911-0.85875 3.9565-0.36438 0.37547-0.6663 0.50007-1.2612 0.5205-0.28303 0.01-0.58288-5e-3 -0.66634-0.0319zm1.2273-0.10278c0.86381-0.29433 1.3669-1.2995 1.4946-2.986 0.14284-1.8871-0.3303-3.676-1.1888-4.4947-0.32594-0.31082-0.60434-0.43814-0.95757-0.43791-1.2776 1e-3 -2.3183 2.2181-2.1792 4.6429 0.10505 1.8302 0.62422 2.9608 1.5026 3.272 0.3376 0.11962 0.98302 0.12145 1.3284 4e-3zm-1.0463-0.25989c-0.13239-0.071-0.26472-0.21753-0.35534-0.39352-0.11944-0.23196-0.17357-0.28042-0.3132-0.28042-0.19495 0-0.50529-0.23901-0.63432-0.48854-0.10147-0.19622-0.11418-0.46558-0.03216-0.68133 0.04634-0.12189 0.02992-0.17351-0.09149-0.28757-0.28205-0.26497-0.32005-0.75104-0.0846-1.0822 0.10048-0.14132 0.10023-0.15551-0.0053-0.3027-0.191-0.26642-0.20254-0.54238-0.03633-0.86895 0.12511-0.24581 0.1384-0.3219 0.08603-0.49255-0.0928-0.30236-0.0094-0.61132 0.22948-0.8502 0.16051-0.16052 0.20898-0.25929 0.20898-0.4259 0-0.42856 0.36697-0.81632 0.77256-0.81632 0.10663 0 0.19764-0.0378 0.21785-0.0905 0.11008-0.28685 0.77227-0.42673 1.1342-0.23957 0.19529 0.10099 0.41751 0.41431 0.41788 0.58919 1.27e-4 0.0593 0.09524 0.19121 0.21137 0.29318 0.26459 0.23231 0.37696 0.56843 0.28154 0.84214-0.06189 0.17755-0.05205 0.21306 0.1102 0.39787 0.18371 0.20923 0.24472 0.42184 0.24139 0.84118-0.0011 0.13319 0.01533 0.3827 0.03642 0.55447 0.02829 0.23046 0.01167 0.3685-0.06343 0.52678-0.09333 0.19668-0.09379 0.2259-0.0054 0.35199 0.15715 0.22436 0.12777 0.72983-0.05504 0.94709-0.11052 0.13134-0.15146 0.25101-0.15175 0.44356-6.88e-4 0.40841-0.36191 0.83739-0.70615 0.83844-0.0952 2.3e-4 -0.14188 0.0481-0.16943 0.17351-0.03922 0.17855-0.26534 0.42678-0.49735 0.54598-0.19698 0.1012-0.50873 0.0823-0.74655-0.0452zm0.77525-0.0628c0.23201-0.11911 0.47189-0.44439 0.40616-0.55075-0.02055-0.0332-0.09731-0.0604-0.1706-0.0604-0.07329 0-0.20366-0.0653-0.2897-0.14506-0.18906-0.1753-0.41898-0.17071-0.72017 0.0144-0.11654 0.0716-0.24595 0.13032-0.28757 0.13045-0.2051 5.9e-4 0.0435 0.44865 0.33407 0.60208 0.28678 0.15141 0.44703 0.15346 0.7278 9e-3zm-0.90886-0.76582c0.17297-0.12116 0.16956-0.17307-0.01694-0.25805-0.3208-0.14617-0.50837-0.77271-0.33071-1.1047 0.055-0.10276 0.04202-0.11707-0.10595-0.11688-0.35632 4.5e-4 -0.74376 0.41034-0.74376 0.78681 0 0.22161 0.19105 0.55236 0.38867 0.67287 0.22668 0.13823 0.62573 0.14806 0.80868 0.0199zm1.8182-0.0284c0.21451-0.13077 0.37488-0.43389 0.37451-0.70785-4.5e-4 -0.37133-0.38867-0.74357-0.77539-0.74357-0.17438 0-0.17558 2e-3 -0.11497 0.22946 0.09509 0.35627 0.01348 0.63654-0.25631 0.88028-0.21564 0.19482-0.2269 0.21996-0.1345 0.3003 0.22706 0.19742 0.62122 0.21541 0.90666 0.0414zm-0.83287-0.39504c0.18852-0.18061 0.31446-0.51131 0.25991-0.68252-0.01778-0.0558-0.05935-0.17405-0.0924-0.2628l-0.06009-0.16136-0.20918 0.12342c-0.25167 0.14849-0.74279 0.12716-0.92783-0.0403-0.11308-0.10233-0.12022-0.0983-0.21128 0.11965-0.12141 0.29056-0.11885 0.43934 0.0117 0.68206 0.25173 0.46799 0.85803 0.57743 1.2292 0.22185zm1.3843-0.77596c0.22104-0.35765 0.13103-0.8707-0.18962-1.0808-0.3598-0.23574-0.83464-0.17624-0.83464 0.1046 0 0.0851-0.04087 0.2526-0.09081 0.37214-0.04995 0.11954-0.09064 0.22082-0.09044 0.22508 2.06e-4 4e-3 0.12231 0.0111 0.27135 0.0152 0.31314 9e-3 0.54518 0.14052 0.6876 0.39086 0.05508 0.0968 0.10474 0.17622 0.11035 0.17643 0.0056 1.8e-4 0.06691-0.0914 0.13622-0.20352zm-3.3036-0.1868c0.10711-0.0817 0.30608-0.16634 0.44214-0.18811l0.2474-0.0396-0.08864-0.17769c-0.0566-0.11347-0.08111-0.30259-0.0678-0.52326l0.02084-0.34555-0.20394-0.0195c-0.46438-0.0444-0.85553 0.30243-0.85553 0.75863 0 0.24163 0.18194 0.68359 0.28141 0.68359 0.01615 0 0.11701-0.0668 0.22412-0.14854zm1.8309-0.12156c0.38009-0.24905 0.46635-0.777 0.18682-1.1435-0.28514-0.37384-0.76575-0.42765-1.1244-0.1259-0.34228 0.28801-0.39026 0.73801-0.11589 1.0868 0.25513 0.32435 0.71532 0.4041 1.0534 0.18256zm1.5978-1.3254c-4.49e-4 -0.13782-0.02632-0.29074-0.05735-0.33981-0.04809-0.076-0.07701-0.0705-0.19583 0.0378-0.32326 0.29464-0.72566 0.34833-1.0641 0.14197-0.10902-0.0665-0.21118-0.12086-0.22703-0.12086-0.07969 0-0.0093 0.15754 0.15281 0.34222 0.09989 0.11378 0.18162 0.23119 0.18162 0.26092 0 0.0297 0.14515 0.0391 0.32255 0.0208 0.23088-0.0238 0.37283-6e-3 0.49946 0.0623 0.16674 0.0901 0.183 0.0884 0.28286-0.0296 0.06417-0.0758 0.10558-0.22397 0.10502-0.37574zm-3.1818 0.0726c0.275-6e-3 0.28201-0.0103 0.24715-0.16905-0.01974-0.0899-0.0095-0.23288 0.02285-0.31784 0.05676-0.14928 0.04958-0.15552-0.21316-0.18513-0.17044-0.0192-0.32848-0.0838-0.42353-0.1731l-0.15163-0.14245-0.11569 0.15057c-0.14223 0.18513-0.15488 0.60061-0.02587 0.85009 0.08821 0.17058 0.09912 0.17456 0.23468 0.0857 0.07819-0.0512 0.26953-0.0957 0.4252-0.0988zm1.1586-0.26264c0.35648 0 0.38954-0.0109 0.38954-0.12829 0-0.0998-0.04723-0.13596-0.21247-0.16278-0.11686-0.0189-0.29112-0.0905-0.38725-0.15893-0.15841-0.1128-0.1904-0.11635-0.3415-0.0379-0.0917 0.0476-0.18945 0.12234-0.21723 0.16615-0.05991 0.0945-0.06816 0.42208-0.01418 0.56277 0.03265 0.0851 0.06395 0.0748 0.21587-0.0707 0.15716-0.15056 0.22268-0.17023 0.56722-0.17023zm1.4408 7e-3c0.24856-0.10386 0.44728-0.35016 0.4972-0.61626 0.06975-0.37179-0.24634-0.81125-0.65294-0.90779-0.16056-0.0381-0.16278-0.0348-0.10679 0.16041 0.10888 0.37966-0.11312 0.80273-0.53532 1.0202-0.11941 0.0615-0.12836 0.0863-0.06057 0.16801 0.09303 0.1121 0.39586 0.25317 0.55075 0.25657 0.05934 1e-3 0.19779-0.0352 0.30767-0.0811zm-0.74854-0.46421c0.21516-0.11043 0.37827-0.36174 0.40842-0.62932 0.06616-0.58695-0.47376-1.0126-1.0347-0.81567-0.19623 0.0689-0.24694 0.11466-0.23049 0.20806 0.07888 0.44785 0.07356 0.63822-0.02356 0.84289-0.10032 0.21142-0.09994 0.22384 0.0095 0.30787 0.24384 0.18722 0.60441 0.2229 0.87081 0.0862zm-1.2652-0.1342c0.2726-0.18157 0.44231-0.52961 0.39117-0.80222-0.15627-0.83298-1.3323-0.88969-1.5517-0.0748-0.18505 0.68722 0.57882 1.2645 1.1605 0.87704zm2.1613-1.2721c0.02284-0.3484-0.10682-0.61363-0.36528-0.74729-0.2492-0.12886-0.60564-0.12786-0.80424 2e-3 -0.14522 0.0952-0.39186 0.43125-0.39237 0.5347-1.27e-4 0.025 0.12372 0.0454 0.27521 0.0454 0.30228 0 0.58052 0.11697 0.70667 0.29708 0.07236 0.1033 0.33525 0.1861 0.50114 0.15783 0.0333-6e-3 0.06879-0.13617 0.07887-0.28999zm-1.7794-0.035c0.01759-0.0285-0.0345-0.11419-0.11575-0.19052-0.19159-0.17999-0.29442-0.49882-0.24531-0.76061 0.04425-0.23588 0.0092-0.24999-0.30007-0.12077-0.24364 0.10179-0.45287 0.4109-0.45325 0.66958-2.54e-4 0.17911 0.0037 0.18136 0.28734 0.16194 0.22945-0.0157 0.33045 0.0108 0.4995 0.13103 0.23748 0.16892 0.28161 0.18366 0.32754 0.10935zm0.38344-0.62794c0.1854-0.19549 0.50008-0.31156 0.74657-0.27539 0.20872 0.0307 0.22093-0.0317 0.05843-0.29821-0.23309-0.38229-0.72832-0.49207-1.0975-0.24329-0.27881 0.1879-0.36789 0.37915-0.33885 0.72751 0.0181 0.21708 0.06824 0.33635 0.19856 0.47238l0.17435 0.18198 0.05092-0.19995c0.02801-0.10997 0.12138-0.27423 0.2075-0.36503z"
       fill="#0a425a"
       stroke-width=".060541"
       id="path14" />
    <path
       d="m3.3113 277.84c0.32481 0.0568 0.25172 0.203 0.45473 0.30045 0.14616 0.0731 0.064961-0.19489 0.22736-0.0731 0.02436 0.0325 0.39789 0.93382 0.37353 0.97442 0.37353 0.60901 0.81201 1.283 1.2018 1.8839 0.02436-0.0244 0.048721-0.0487 0.073081-0.0731 0.76329-0.51969 1.0719-1.1693 1.6565-1.957 0.073081-0.0244 0.15428-0.0487 0.22736-0.0731 0.25984-0.30045 0.21924-0.71457 0.60089-0.90134v0.22737c-0.203 0.2842-0.2842 0.59276-0.52781 0.82825 0.064961 0.17864 0.081201 0.1218 0.15428 0.30044-0.29232 0.21113-1.624 1.9488-1.7296 2.4848h0.073081c0.12992-0.23548 0.27608-0.56029 0.52781-0.67397v0.15428c-0.21112 0.21925-0.39789 0.52781-0.45473 0.90134 0.203 0.23548 0.203 0.63337 0.37353 0.90133 0.36541 0.59277 1.1043 0.95818 1.2018 1.8027h-0.15428v-0.15428c-0.34105-0.3654-0.48721-0.90945-0.90133-1.2018v0.0731c0.1218 0.11368 0.17052 0.19488 0.22736 0.37353h-0.15428v-0.0731c-0.34105-0.27609-0.21112-0.64961-0.45473-1.0556-0.081201-0.13804-0.34105-0.21924-0.45473-0.37352h-0.073081c-0.1218 0.49532-1.5022 2.3224-1.9407 2.4685v-0.15428c0.44661-0.30044 1.8108-2.0138 1.8758-2.6309h-0.073081v0.15428c-0.38165 0.16241-0.45473 0.58465-0.67397 0.90133-0.44661 0.62526-1.7864 2.4848-2.4036 2.7852v-0.15428c0.42225-0.40601 0.73893-0.99878 1.2018-1.3561-0.064961-0.11368-0.21112-0.0568-0.073081-0.15428 0.53593-0.66586 1.3723-1.5266 1.8027-2.5578h-0.073081c-0.77141 1.2424-1.8758 2.2736-2.5578 3.6053h-0.15428v-0.15428c0.22736-0.21924 1.2018-1.4779 1.2749-1.7296 0.02436-0.0812-0.14616-0.13804-0.073081-0.30044 0.27608-0.58465 1.1612-1.015 1.4291-1.6322-0.17864-0.17864-0.12992-0.47909-0.30044-0.67397-0.38165-0.44661-0.90945-0.64961-1.1287-1.2749h0.15428c0.21924 0.38164 0.53593 0.81201 0.90133 1.0556v-0.30045c-0.73893-0.45473-0.48721-1.4373-1.7296-1.4291v-0.15429c0.33293-0.065 0.27608-0.17864 0.52781-0.30044 0.073081 0.1218 0.15428 0.25172 0.22736 0.37353h0.073081v-0.15429c-0.26796-0.17864-0.58465-0.56028-0.75517-0.82825z"
       clip-rule="evenodd"
       fill="#4d4d4d"
       fill-rule="evenodd"
       stroke-width=".081201"
       id="path16" />
    <path
       d="m8.3894 284.52c0.32481 0.0568 0.25172 0.203 0.45473 0.30045 0.14616 0.0731 0.064961-0.19489 0.22736-0.0731 0.02436 0.0325 0.39789 0.93382 0.37353 0.97442 0.37353 0.60901 0.81201 1.283 1.2018 1.8839 0.02436-0.0244 0.04872-0.0487 0.07308-0.0731 0.76329-0.51969 1.0719-1.1693 1.6565-1.957 0.07308-0.0244 0.15428-0.0487 0.22736-0.0731 0.25984-0.30045 0.21924-0.71457 0.60089-0.90134v0.22737c-0.203 0.2842-0.2842 0.59276-0.52781 0.82825 0.06496 0.17864 0.0812 0.1218 0.15428 0.30044-0.29232 0.21113-1.624 1.9488-1.7296 2.4848h0.07308c0.12992-0.23548 0.27608-0.56029 0.52781-0.67397v0.15428c-0.21112 0.21925-0.39789 0.52781-0.45473 0.90134 0.203 0.23548 0.203 0.63337 0.37352 0.90133 0.36541 0.59277 1.1043 0.95818 1.2018 1.8027h-0.15428v-0.15428c-0.34104-0.3654-0.48721-0.90945-0.90133-1.2018v0.0731c0.1218 0.11368 0.17052 0.19488 0.22736 0.37353h-0.15428v-0.0731c-0.34105-0.27609-0.21112-0.64961-0.45473-1.0556-0.0812-0.13804-0.34105-0.21924-0.45473-0.37352h-0.07308c-0.1218 0.49532-1.5022 2.3224-1.9407 2.4685v-0.15428c0.44661-0.30044 1.8108-2.0138 1.8757-2.6309h-0.07308v0.15428c-0.38165 0.16241-0.45473 0.58465-0.67397 0.90133-0.44661 0.62526-1.7864 2.4848-2.4036 2.7852v-0.15428c0.42225-0.40601 0.73893-0.99878 1.2018-1.3561-0.064961-0.11368-0.21112-0.0568-0.073081-0.15428 0.53593-0.66586 1.3723-1.5266 1.8027-2.5578h-0.07308c-0.77141 1.2424-1.8757 2.2736-2.5578 3.6053h-0.15428v-0.15428c0.22736-0.21924 1.2018-1.4779 1.2749-1.7296 0.02436-0.0812-0.14616-0.13804-0.073081-0.30044 0.27608-0.58465 1.1612-1.015 1.4291-1.6322-0.17864-0.17864-0.12992-0.47909-0.30044-0.67397-0.38165-0.44661-0.90945-0.64961-1.1287-1.2749h0.15428c0.21924 0.38164 0.53593 0.81201 0.90133 1.0556v-0.30045c-0.73893-0.45473-0.48721-1.4373-1.7296-1.4291v-0.15429c0.33293-0.065 0.27608-0.17864 0.52781-0.30044 0.073081 0.1218 0.15428 0.25172 0.22736 0.37353h0.073081v-0.15429c-0.26796-0.17864-0.58465-0.56028-0.75517-0.82825z"
       clip-rule="evenodd"
       fill="#4d4d4d"
       fill-rule="evenodd"
       stroke-width=".081201"
       id="path18" />
    <path
       d="m15.739 284.92c0.3248 0.0568 0.25172 0.203 0.45473 0.30045 0.14616 0.0731 0.06496-0.19489 0.22736-0.0731 0.02436 0.0325 0.39789 0.93382 0.37353 0.97442 0.37353 0.60901 0.81201 1.283 1.2018 1.8839 0.02436-0.0244 0.04872-0.0487 0.07308-0.0731 0.76329-0.51969 1.0719-1.1693 1.6565-1.957 0.07308-0.0244 0.15428-0.0487 0.22736-0.0731 0.25984-0.30045 0.21924-0.71457 0.60089-0.90134v0.22737c-0.203 0.2842-0.2842 0.59276-0.52781 0.82825 0.06496 0.17864 0.0812 0.1218 0.15428 0.30044-0.29232 0.21113-1.624 1.9488-1.7296 2.4848h0.07308c0.12992-0.23548 0.27608-0.56029 0.52781-0.67397v0.15428c-0.21112 0.21925-0.39789 0.52781-0.45473 0.90134 0.203 0.23548 0.203 0.63337 0.37353 0.90133 0.36541 0.59277 1.1043 0.95818 1.2018 1.8027h-0.15428v-0.15428c-0.34105-0.3654-0.48721-0.90945-0.90133-1.2018v0.0731c0.1218 0.11368 0.17052 0.19488 0.22736 0.37353h-0.15428v-0.0731c-0.34105-0.27609-0.21112-0.64961-0.45473-1.0556-0.0812-0.13804-0.34105-0.21924-0.45473-0.37352h-0.07308c-0.1218 0.49532-1.5022 2.3224-1.9407 2.4685v-0.15428c0.44661-0.30044 1.8108-2.0138 1.8758-2.6309h-0.07308v0.15428c-0.38165 0.16241-0.45473 0.58465-0.67397 0.90133-0.44661 0.62526-1.7864 2.4848-2.4036 2.7852v-0.15428c0.42225-0.40601 0.73893-0.99878 1.2018-1.3561-0.06496-0.11368-0.21112-0.0568-0.07308-0.15428 0.53593-0.66586 1.3723-1.5266 1.8027-2.5578h-0.07308c-0.77141 1.2424-1.8758 2.2736-2.5578 3.6053h-0.15428v-0.15428c0.22736-0.21924 1.2018-1.4779 1.2749-1.7296 0.02436-0.0812-0.14616-0.13804-0.07308-0.30044 0.27608-0.58465 1.1612-1.015 1.4291-1.6322-0.17864-0.17864-0.12992-0.47909-0.30044-0.67397-0.38165-0.44661-0.90946-0.64961-1.1287-1.2749h0.15428c0.21924 0.38164 0.53593 0.81201 0.90134 1.0556v-0.30045c-0.73893-0.45473-0.48721-1.4373-1.7296-1.4291v-0.15429c0.33292-0.065 0.27608-0.17864 0.52781-0.30044 0.07308 0.1218 0.15428 0.25172 0.22736 0.37353h0.07308v-0.15429c-0.26796-0.17864-0.58465-0.56028-0.75517-0.82825z"
       clip-rule="evenodd"
       fill="#4d4d4d"
       fill-rule="evenodd"
       stroke-width=".081201"
       id="path20" />
    <path
       d="m19.481 276.37c0.32481 0.0568 0.25172 0.203 0.45473 0.30045 0.14616 0.0731 0.06496-0.19489 0.22736-0.0731 0.02436 0.0325 0.39789 0.93382 0.37353 0.97442 0.37353 0.60901 0.81201 1.283 1.2018 1.8839 0.02436-0.0244 0.04872-0.0487 0.07308-0.0731 0.76329-0.51969 1.0719-1.1693 1.6565-1.957 0.07308-0.0244 0.15428-0.0487 0.22736-0.0731 0.25984-0.30045 0.21924-0.71457 0.60089-0.90134v0.22737c-0.203 0.2842-0.2842 0.59276-0.52781 0.82825 0.06496 0.17864 0.0812 0.1218 0.15428 0.30044-0.29232 0.21113-1.624 1.9488-1.7296 2.4848h0.07308c0.12992-0.23548 0.27608-0.56029 0.52781-0.67397v0.15428c-0.21112 0.21925-0.39789 0.52781-0.45473 0.90134 0.203 0.23548 0.203 0.63337 0.37352 0.90133 0.36541 0.59277 1.1043 0.95818 1.2018 1.8027h-0.15428v-0.15428c-0.34104-0.3654-0.48721-0.90945-0.90133-1.2018v0.0731c0.1218 0.11368 0.17052 0.19488 0.22736 0.37353h-0.15428v-0.0731c-0.34105-0.27609-0.21112-0.64961-0.45473-1.0556-0.0812-0.13804-0.34105-0.21924-0.45473-0.37352h-0.07308c-0.1218 0.49532-1.5022 2.3224-1.9407 2.4685v-0.15428c0.44661-0.30044 1.8108-2.0138 1.8758-2.6309h-0.07308v0.15428c-0.38165 0.16241-0.45473 0.58465-0.67397 0.90133-0.44661 0.62526-1.7864 2.4848-2.4036 2.7852v-0.15428c0.42225-0.40601 0.73893-0.99878 1.2018-1.3561-0.06496-0.11368-0.21112-0.0568-0.07308-0.15428 0.53593-0.66586 1.3723-1.5266 1.8027-2.5578h-0.07308c-0.77141 1.2424-1.8758 2.2736-2.5578 3.6053h-0.15428v-0.15428c0.22736-0.21924 1.2018-1.4779 1.2749-1.7296 0.02436-0.0812-0.14616-0.13804-0.07308-0.30044 0.27608-0.58465 1.1612-1.015 1.4291-1.6322-0.17864-0.17864-0.12992-0.47909-0.30044-0.67397-0.38165-0.44661-0.90946-0.64961-1.1287-1.2749h0.15428c0.21924 0.38164 0.53593 0.81201 0.90134 1.0556v-0.30045c-0.73893-0.45473-0.48721-1.4373-1.7296-1.4291v-0.15429c0.33292-0.065 0.27608-0.17864 0.52781-0.30044 0.07308 0.1218 0.15428 0.25172 0.22736 0.37353h0.07308v-0.15429c-0.26796-0.17864-0.58465-0.56028-0.75517-0.82825z"
       clip-rule="evenodd"
       fill="#4d4d4d"
       fill-rule="evenodd"
       stroke-width=".081201"
       id="path22" />
  </g>
</svg>
