<?xml version="1.0" encoding="UTF-8" standalone="no"?>
<svg
   xmlns:dc="http://purl.org/dc/elements/1.1/"
   xmlns:cc="http://creativecommons.org/ns#"
   xmlns:rdf="http://www.w3.org/1999/02/22-rdf-syntax-ns#"
   xmlns:svg="http://www.w3.org/2000/svg"
   xmlns="http://www.w3.org/2000/svg"
   xmlns:sodipodi="http://sodipodi.sourceforge.net/DTD/sodipodi-0.dtd"
   xmlns:inkscape="http://www.inkscape.org/namespaces/inkscape"
   width="100"
   height="100"
   version="1.1"
   viewBox="0 0 26.458 26.458"
   id="svg26"
   sodipodi:docname="resi.svg"
   inkscape:version="0.92.4 (5da689c313, 2019-01-14)">
  <defs
     id="defs30" />
  <sodipodi:namedview
     pagecolor="#ffffff"
     bordercolor="#666666"
     borderopacity="1"
     objecttolerance="10"
     gridtolerance="10"
     guidetolerance="10"
     inkscape:pageopacity="0"
     inkscape:pageshadow="2"
     inkscape:window-width="1920"
     inkscape:window-height="1016"
     id="namedview28"
     showgrid="false"
     inkscape:zoom="2.36"
     inkscape:cx="-49.788136"
     inkscape:cy="66.949153"
     inkscape:window-x="0"
     inkscape:window-y="27"
     inkscape:window-maximized="1"
     inkscape:current-layer="svg26"
     inkscape:snap-global="false" />
  <metadata
     id="metadata2">
    <rdf:RDF>
      <cc:Work
         rdf:about="">
        <dc:format>image/svg+xml</dc:format>
        <dc:type
           rdf:resource="http://purl.org/dc/dcmitype/StillImage" />
        <dc:title />
      </cc:Work>
    </rdf:RDF>
  </metadata>
  <circle
     id="circle4"
     r="13.23"
     cy="13.229989"
     cx="13.229"
     style="fill:#b3b3b3;fill-opacity:0.94118;stroke-width:0.26458001" />
  <path
     id="path8"
     d="M 12.943,11.28 C 12.39899,11.11284 11.8336,10.52798 11.5628,9.8523 11.27479,9.13371 11.19518,8.5713 11.19958,7.2864 c 0.0037,-1.0794 0.01787,-1.2324 0.16533,-1.786 0.19921,-0.74781 0.61852,-1.6123 0.97357,-2.0072 1.564,-1.7395 3.5662,0.14263 3.7135,3.4908 0.07363,1.6737 -0.25502,3.0259 -0.9075,3.7337 -0.40264,0.43682 -0.75269,0.58396 -1.4365,0.60381 -0.31633,0.009 -0.66055,-0.01 -0.76495,-0.0416 z m 1.509,-0.16767 c 1.0085,-0.44613 1.496,-1.6582 1.5023,-3.7351 0.0044,-1.4541 -0.28105,-2.5739 -0.88926,-3.4888 -0.43338,-0.65189 -0.90434,-0.96097 -1.4643,-0.96097 -1.4239,0 -2.5562,2.4806 -2.3237,5.0906 0.16736,1.8783 0.72811,2.8921 1.762,3.1855 0.3689,0.1047 1.0728,0.0593 1.413,-0.0912 z m -1.4104,-0.005 c -0.74673,-0.2441 -1.2814,-0.99507 -1.5129,-2.1251 -0.54924,-2.6808 0.33775,-5.5608 1.8283,-5.9361 1.1563,-0.29115 2.2715,1.341 2.471,3.6161 0.14422,1.6452 -0.21303,3.2911 -0.85875,3.9565 -0.36438,0.37547 -0.6663,0.50007 -1.2612,0.5205 -0.28303,0.01 -0.58288,-0.005 -0.66634,-0.0319 z m 1.2273,-0.10278 c 0.86381,-0.29433 1.3669,-1.2995 1.4946,-2.986 0.14284,-1.8871 -0.3303,-3.676 -1.1888,-4.4947 -0.32594,-0.31082 -0.60434,-0.43814 -0.95757,-0.43791 -1.2776,10e-4 -2.3183,2.2181 -2.1792,4.6429 0.10505,1.8302 0.62422,2.9608 1.5026,3.272 0.3376,0.11962 0.98302,0.12145 1.3284,0.004 z m -1.0463,-0.25989 c -0.13239,-0.071 -0.26472,-0.21753 -0.35534,-0.39352 -0.11944,-0.23196 -0.17357,-0.28042 -0.31319,-0.28042 -0.19495,0 -0.50529,-0.23901 -0.63432,-0.48854 C 11.81828,9.38596 11.80557,9.1166 11.88759,8.90085 11.93393,8.77896 11.91751,8.72734 11.7961,8.61328 11.51405,8.34831 11.47605,7.86224 11.7115,7.53108 11.81198,7.38976 11.81173,7.37557 11.7062,7.22838 11.5152,6.96196 11.50366,6.686 11.66987,6.35943 c 0.12511,-0.24581 0.1384,-0.3219 0.08603,-0.49255 -0.0928,-0.30236 -0.0094,-0.61132 0.22947,-0.8502 0.16052,-0.16052 0.20898,-0.25929 0.20898,-0.4259 0,-0.42856 0.36697,-0.81632 0.77256,-0.81632 0.10663,0 0.19764,-0.0378 0.21785,-0.0905 0.11008,-0.28685 0.77227,-0.42673 1.1342,-0.23957 0.19529,0.10099 0.41751,0.41431 0.41788,0.58919 1.27e-4,0.0593 0.09524,0.19121 0.21137,0.29318 0.26459,0.23231 0.37696,0.56843 0.28154,0.84214 -0.06189,0.17755 -0.05205,0.21306 0.1102,0.39787 0.18371,0.20923 0.24472,0.42184 0.24139,0.84118 -0.0011,0.13319 0.01533,0.3827 0.03642,0.55447 0.02829,0.23046 0.01167,0.3685 -0.06343,0.52678 -0.09333,0.19668 -0.09379,0.2259 -0.0054,0.35199 0.15715,0.22436 0.12777,0.72983 -0.05504,0.94709 -0.11052,0.13134 -0.15146,0.25101 -0.15175,0.44356 -6.88e-4,0.40841 -0.36191,0.83739 -0.70615,0.83844 -0.0952,2.3e-4 -0.14188,0.0481 -0.16943,0.17351 -0.03922,0.17855 -0.26534,0.42678 -0.49735,0.54598 -0.19698,0.1012 -0.50873,0.0823 -0.74655,-0.0452 z m 0.77525,-0.0628 c 0.23201,-0.11911 0.47189,-0.44439 0.40616,-0.55075 -0.02055,-0.0332 -0.09731,-0.0604 -0.1706,-0.0604 -0.07329,0 -0.20366,-0.0653 -0.2897,-0.14506 -0.18906,-0.1753 -0.41898,-0.17071 -0.72017,0.0144 -0.11654,0.0716 -0.24595,0.13032 -0.28757,0.13045 -0.2051,5.9e-4 0.0435,0.44865 0.33407,0.60208 0.28678,0.15141 0.44703,0.15346 0.7278,0.009 z M 13.08899,9.91604 c 0.17297,-0.12116 0.16956,-0.17307 -0.01694,-0.25805 -0.3208,-0.14617 -0.50837,-0.77271 -0.33071,-1.1047 0.055,-0.10276 0.04202,-0.11707 -0.10595,-0.11688 -0.35632,4.5e-4 -0.74376,0.41034 -0.74376,0.78681 0,0.22161 0.19105,0.55236 0.38867,0.67287 0.22668,0.13823 0.62573,0.14806 0.80868,0.0199 z m 1.8182,-0.0284 C 15.1217,9.75687 15.28207,9.45375 15.2817,9.17979 15.28125,8.80846 14.89303,8.43622 14.50631,8.43622 c -0.17438,0 -0.17558,0.002 -0.11497,0.22946 0.09509,0.35627 0.01348,0.63654 -0.25631,0.88028 -0.21564,0.19482 -0.2269,0.21996 -0.1345,0.3003 0.22706,0.19742 0.62122,0.21541 0.90666,0.0414 z M 14.07432,9.4926 C 14.26284,9.31199 14.38877,8.98129 14.33423,8.81008 14.31645,8.75428 14.27488,8.63603 14.24183,8.54728 L 14.18174,8.38592 13.97256,8.50934 c -0.25167,0.14849 -0.74279,0.12716 -0.92783,-0.0403 -0.11308,-0.10233 -0.12022,-0.0983 -0.21128,0.11965 -0.12141,0.29056 -0.11885,0.43934 0.0117,0.68206 0.25173,0.46799 0.85803,0.57743 1.2292,0.22185 z m 1.3843,-0.77596 C 15.67966,8.35899 15.58965,7.84594 15.269,7.63584 14.9092,7.4001 14.43436,7.4596 14.43436,7.74044 c 0,0.0851 -0.04087,0.2526 -0.09081,0.37214 -0.04995,0.11954 -0.09065,0.22082 -0.09044,0.22508 2.06e-4,0.004 0.12231,0.0111 0.27135,0.0152 0.31314,0.009 0.54518,0.14052 0.6876,0.39086 0.05508,0.0968 0.10474,0.17622 0.11035,0.17643 0.0056,1.8e-4 0.06691,-0.0914 0.13622,-0.20352 z m -3.3036,-0.1868 C 12.26213,8.44814 12.4611,8.3635 12.59716,8.34173 l 0.2474,-0.0396 -0.08864,-0.17769 C 12.69932,8.01097 12.67481,7.82185 12.68812,7.60118 l 0.02084,-0.34555 -0.20394,-0.0195 c -0.46438,-0.0444 -0.85553,0.30243 -0.85553,0.75863 0,0.24163 0.18194,0.68359 0.28141,0.68359 0.01615,0 0.11701,-0.0668 0.22412,-0.14854 z m 1.8309,-0.12156 c 0.3801,-0.24905 0.46635,-0.777 0.18682,-1.1435 -0.28514,-0.37384 -0.76575,-0.42765 -1.1244,-0.1259 -0.34228,0.28801 -0.39026,0.73801 -0.11589,1.0868 0.25513,0.32435 0.71532,0.4041 1.0534,0.18256 z m 1.5978,-1.3254 C 15.58327,6.94506 15.5574,6.79214 15.52637,6.74307 c -0.04809,-0.076 -0.07701,-0.0705 -0.19583,0.0378 -0.32326,0.29464 -0.72566,0.34833 -1.0641,0.14197 -0.10902,-0.0665 -0.21118,-0.12086 -0.22703,-0.12086 -0.07969,0 -0.0093,0.15754 0.15282,0.34222 0.09989,0.11378 0.18162,0.23119 0.18162,0.26092 0,0.0297 0.14515,0.0391 0.32255,0.0208 0.23088,-0.0238 0.37283,-0.006 0.49946,0.0623 0.16674,0.0901 0.183,0.0884 0.28286,-0.0296 0.06417,-0.0758 0.10558,-0.22397 0.10502,-0.37574 z m -3.1818,0.0726 c 0.275,-0.006 0.28201,-0.0103 0.24715,-0.16905 C 12.62933,6.89653 12.63957,6.75355 12.67192,6.66859 12.72868,6.51931 12.7215,6.51307 12.45876,6.48346 12.28832,6.46426 12.13028,6.39966 12.03523,6.31036 L 11.8836,6.16791 11.76791,6.31848 c -0.14223,0.18513 -0.15488,0.60061 -0.02587,0.85009 0.08821,0.17058 0.09912,0.17456 0.23468,0.0857 0.07819,-0.0512 0.26953,-0.0957 0.4252,-0.0988 z m 1.1586,-0.26264 c 0.35648,0 0.38954,-0.0109 0.38954,-0.12829 0,-0.0998 -0.04723,-0.13596 -0.21247,-0.16278 -0.11686,-0.0189 -0.29112,-0.0905 -0.38725,-0.15893 -0.15841,-0.1128 -0.1904,-0.11635 -0.3415,-0.0379 -0.0917,0.0476 -0.18945,0.12234 -0.21723,0.16615 -0.05991,0.0945 -0.06816,0.42208 -0.01418,0.56277 0.03265,0.0851 0.06395,0.0748 0.21587,-0.0707 0.15716,-0.15056 0.22268,-0.17023 0.56722,-0.17023 z m 1.4408,0.007 C 15.24988,6.79598 15.4486,6.54968 15.49852,6.28358 15.56827,5.91179 15.25218,5.47233 14.84558,5.37579 14.68502,5.33769 14.6828,5.34099 14.73879,5.5362 14.84767,5.91586 14.62567,6.33893 14.20347,6.5564 14.08406,6.6179 14.0751,6.6427 14.1429,6.72441 c 0.09303,0.1121 0.39586,0.25317 0.55075,0.25657 0.05934,0.001 0.19779,-0.0352 0.30767,-0.0811 z M 14.25278,6.43563 C 14.46794,6.3252 14.63105,6.07389 14.6612,5.80631 14.72736,5.21936 14.18744,4.79371 13.6265,4.99064 13.43027,5.05954 13.37956,5.1053 13.39601,5.1987 c 0.07888,0.44785 0.07356,0.63822 -0.02356,0.84289 -0.10032,0.21142 -0.09994,0.22384 0.0095,0.30787 0.24384,0.18722 0.6044,0.2229 0.87081,0.0862 z m -1.2652,-0.1342 c 0.2726,-0.18157 0.44231,-0.52961 0.39117,-0.80222 -0.15627,-0.83298 -1.3323,-0.88969 -1.5517,-0.0748 -0.18505,0.68722 0.57882,1.2645 1.1605,0.87704 z m 2.1613,-1.2721 C 15.17172,4.68093 15.04206,4.4157 14.7836,4.28204 c -0.2492,-0.12886 -0.60564,-0.12786 -0.80424,0.002 -0.14522,0.0952 -0.39186,0.43125 -0.39237,0.5347 -1.27e-4,0.025 0.12372,0.0454 0.27521,0.0454 0.30228,0 0.58052,0.11697 0.70667,0.29708 0.07236,0.1033 0.33525,0.1861 0.50114,0.15783 0.03329,-0.006 0.06879,-0.13617 0.07887,-0.28999 z m -1.7794,-0.035 C 13.38707,4.96583 13.33498,4.88014 13.25373,4.80381 13.06214,4.62382 12.95931,4.30499 13.00842,4.0432 c 0.04425,-0.23588 0.0092,-0.24999 -0.30007,-0.12077 -0.24364,0.10179 -0.45287,0.4109 -0.45325,0.66958 -2.54e-4,0.17911 0.0037,0.18136 0.28734,0.16194 0.22945,-0.0157 0.33045,0.0108 0.4995,0.13103 0.23748,0.16892 0.28161,0.18366 0.32754,0.10935 z M 13.75292,4.36639 C 13.93832,4.1709 14.253,4.05483 14.49949,4.091 14.70821,4.1217 14.72042,4.0593 14.55792,3.79279 14.32483,3.4105 13.8296,3.30072 13.46042,3.5495 c -0.27881,0.1879 -0.36789,0.37915 -0.33885,0.72751 0.0181,0.21708 0.06824,0.33635 0.19856,0.47238 l 0.17435,0.18198 0.05092,-0.19995 c 0.02801,-0.10997 0.12138,-0.27423 0.2075,-0.36503 z"
     inkscape:connector-curvature="0"
     style="fill:#6b0007;stroke:#e50000;stroke-width:0.060541" />
  <g
     id="g861"
     transform="translate(0.11211017,-0.33633051)">
    <path
       style="fill:#0a425a;stroke-width:0.060541"
       inkscape:connector-curvature="0"
       d="M 4.6576,15.56 C 4.11359,15.39284 3.5482,14.80798 3.2774,14.1323 2.98939,13.41371 2.90978,12.8513 2.91418,11.5664 2.91788,10.487 2.932051,10.334 3.07951,9.7804 3.27872,9.03259 3.69803,8.1681 4.05308,7.7732 c 1.564,-1.7395 3.5662,0.14263 3.7135,3.4908 0.07363,1.6737 -0.25502,3.0259 -0.9075,3.7337 -0.40264,0.43682 -0.75269,0.58396 -1.4365,0.60381 -0.31633,0.009 -0.66055,-0.01 -0.76495,-0.0416 z m 1.509,-0.16767 C 7.1751,14.9462 7.6626,13.73413 7.6689,11.65723 7.67326,10.20313 7.38785,9.08333 6.77964,8.16843 6.34626,7.51654 5.8753,7.20746 5.31534,7.20746 c -1.4239,0 -2.5562,2.4806 -2.3237,5.0906 0.16736,1.8783 0.72811,2.8921 1.762,3.1855 0.3689,0.1047 1.0728,0.0593 1.413,-0.0912 z m -1.4104,-0.005 c -0.74673,-0.2441 -1.2814,-0.99507 -1.5129,-2.1251 -0.54925,-2.6808 0.33775,-5.5608 1.8283,-5.9361 1.1563,-0.29115 2.2715,1.341 2.471,3.6161 0.14422,1.6452 -0.21303,3.2911 -0.85875,3.9565 -0.36438,0.37547 -0.6663,0.50007 -1.2612,0.5205 -0.28303,0.01 -0.58288,-0.005 -0.66634,-0.0319 z m 1.2273,-0.10278 c 0.86381,-0.29433 1.3669,-1.2995 1.4946,-2.986 C 7.62094,10.41145 7.1478,8.62255 6.2893,7.80385 5.96336,7.49303 5.68496,7.36571 5.33173,7.36594 c -1.2776,10e-4 -2.3183,2.2181 -2.1792,4.6429 0.10505,1.8302 0.62422,2.9608 1.5026,3.272 0.3376,0.11962 0.98303,0.12145 1.3284,0.004 z M 4.9372,15.02466 C 4.80481,14.95366 4.67248,14.80713 4.58186,14.63114 4.46242,14.39918 4.40829,14.35072 4.26867,14.35072 4.07372,14.35072 3.76338,14.11171 3.63435,13.86218 3.53288,13.66596 3.52016,13.3966 3.602193,13.18085 3.648536,13.05896 3.632115,13.00734 3.510701,12.89328 c -0.28205,-0.26497 -0.32005,-0.75104 -0.084605,-1.0822 0.10048,-0.14132 0.10023,-0.15551 -0.0053,-0.3027 -0.191,-0.26642 -0.20254,-0.54238 -0.036326,-0.86895 0.12511,-0.24581 0.1384,-0.3219 0.086028,-0.49255 -0.092798,-0.30236 -0.00941,-0.61132 0.22947,-0.8502 0.16051,-0.16052 0.20898,-0.25929 0.20898,-0.4259 0,-0.42856 0.36697,-0.81632 0.77256,-0.81632 0.10663,0 0.19764,-0.0378 0.21785,-0.0905 0.11008,-0.28685 0.77227,-0.42673 1.1342,-0.23957 0.19529,0.10099 0.41751,0.41431 0.41788,0.58919 1.27e-4,0.0593 0.09524,0.19121 0.21137,0.29318 0.26459,0.23231 0.37696,0.56843 0.28154,0.84214 -0.061892,0.17755 -0.052055,0.21306 0.1102,0.39787 0.18371,0.20923 0.24472,0.42184 0.24139,0.84118 -0.00115,0.13319 0.015333,0.3827 0.036424,0.55447 0.028295,0.23046 0.011671,0.3685 -0.063433,0.52678 -0.093329,0.19668 -0.093785,0.2259 -0.00545,0.35199 0.15715,0.22436 0.12777,0.72983 -0.05504,0.94709 -0.11052,0.13134 -0.15146,0.25101 -0.15175,0.44356 -6.888e-4,0.40841 -0.36191,0.83739 -0.70615,0.83844 -0.095201,2.3e-4 -0.14188,0.0481 -0.16943,0.17351 -0.039217,0.17855 -0.26534,0.42678 -0.49735,0.54598 -0.19698,0.1012 -0.50873,0.0823 -0.74655,-0.0452 z m 0.77525,-0.0628 c 0.23201,-0.11911 0.47189,-0.44439 0.40616,-0.55075 -0.020548,-0.0332 -0.097308,-0.0604 -0.1706,-0.0604 -0.073294,0 -0.20366,-0.0653 -0.2897,-0.14506 -0.18906,-0.1753 -0.41898,-0.17071 -0.72017,0.0144 -0.11654,0.0716 -0.24595,0.13032 -0.28757,0.13045 -0.2051,5.7e-4 0.043505,0.44865 0.33407,0.60208 0.28678,0.15141 0.44703,0.15346 0.7278,0.009 z M 4.80359,14.19604 c 0.17297,-0.12116 0.16956,-0.17307 -0.016939,-0.25805 -0.3208,-0.14617 -0.50837,-0.77271 -0.33071,-1.1047 0.054997,-0.10276 0.042023,-0.11707 -0.10595,-0.11688 -0.35632,4.6e-4 -0.74376,0.41034 -0.74376,0.78681 0,0.22161 0.19105,0.55236 0.38867,0.67287 0.22668,0.13823 0.62573,0.14806 0.80868,0.0199 z m 1.8182,-0.0284 C 6.8363,14.03687 6.99667,13.73375 6.9963,13.45979 6.9958419,13.08846 6.60763,12.71622 6.22091,12.71622 c -0.17438,0 -0.17558,0.002 -0.11497,0.22946 0.095091,0.35627 0.013477,0.63654 -0.25631,0.88028 -0.21564,0.19482 -0.2269,0.21996 -0.1345,0.3003 0.22706,0.19742 0.62122,0.21541 0.90665,0.0414 z M 5.78892,13.7726 C 5.97744,13.59199 6.10337,13.26129 6.04883,13.09008 6.031051,13.03428 5.989479,12.91603 5.956429,12.82728 L 5.89634,12.66592 5.68716,12.78934 c -0.25167,0.14849 -0.74279,0.12716 -0.92783,-0.0403 -0.11308,-0.10233 -0.12022,-0.0983 -0.21128,0.11965 -0.12141,0.29056 -0.11885,0.43934 0.011702,0.68206 0.25173,0.46799 0.85803,0.57743 1.2292,0.22185 z m 1.3843,-0.77596 c 0.22104,-0.35765 0.13103,-0.8707 -0.18961,-1.0808 -0.3598,-0.23574 -0.83464,-0.17624 -0.83464,0.1046 0,0.0851 -0.040867,0.2526 -0.090813,0.37214 -0.049945,0.11954 -0.090645,0.22082 -0.090442,0.22508 2.059e-4,0.004 0.12231,0.0111 0.27135,0.0152 0.31314,0.009 0.54518,0.14052 0.6876,0.39086 0.05508,0.0968 0.10474,0.17622 0.11035,0.17643 0.00563,1.8e-4 0.066908,-0.0914 0.13622,-0.20352 z m -3.3036,-0.1868 C 3.97673,12.72814 4.1757,12.6435 4.31176,12.62173 l 0.2474,-0.0396 -0.088644,-0.17769 C 4.413912,12.29097 4.389404,12.10185 4.402712,11.88118 l 0.02084,-0.34555 -0.20394,-0.0195 c -0.46438,-0.0444 -0.85553,0.30243 -0.85553,0.75863 0,0.24163 0.18194,0.68359 0.28141,0.68359 0.016154,0 0.11701,-0.0668 0.22412,-0.14854 z m 1.8309,-0.12156 c 0.38009,-0.24905 0.46635,-0.777 0.18682,-1.1435 -0.28514,-0.37384 -0.76575,-0.42765 -1.1244,-0.1259 -0.34228,0.28801 -0.39026,0.73801 -0.11589,1.0868 0.25513,0.32435 0.71532,0.4041 1.0534,0.18256 z m 1.5978,-1.3254 C 7.2978624,11.22506 7.272,11.07214 7.240966,11.02307 c -0.048094,-0.076 -0.077008,-0.0705 -0.19583,0.0378 -0.32326,0.29464 -0.72566,0.34833 -1.0641,0.14197 -0.10902,-0.0665 -0.21118,-0.12086 -0.22703,-0.12086 -0.079685,0 -0.00934,0.15754 0.15281,0.34222 0.099894,0.11378 0.18162,0.23119 0.18162,0.26092 0,0.0297 0.14515,0.0391 0.32255,0.0208 0.23088,-0.0238 0.37283,-0.006 0.49946,0.0623 0.16674,0.0901 0.183,0.0884 0.28286,-0.0296 0.064167,-0.0758 0.10558,-0.22397 0.10502,-0.37574 z m -3.1818,0.0726 c 0.275,-0.006 0.28201,-0.0103 0.24715,-0.16905 -0.019735,-0.0899 -0.00945,-0.23288 0.022852,-0.31784 0.056757,-0.14928 0.049583,-0.15552 -0.21316,-0.18513 -0.17044,-0.0192 -0.32848,-0.0838 -0.42353,-0.1731 l -0.15163,-0.14245 -0.11569,0.15057 c -0.14223,0.18513 -0.15488,0.60061 -0.02587,0.85009 0.088213,0.17058 0.099117,0.17456 0.23468,0.0857 0.078193,-0.0512 0.26953,-0.0957 0.4252,-0.0988 z m 1.1586,-0.26264 c 0.35648,0 0.38954,-0.0109 0.38954,-0.12829 0,-0.0998 -0.047225,-0.13596 -0.21247,-0.16278 -0.11686,-0.0189 -0.29112,-0.0905 -0.38725,-0.15893 -0.15841,-0.1128 -0.1904,-0.11635 -0.34151,-0.0379 -0.091699,0.0476 -0.18945,0.12234 -0.21723,0.16615 -0.059909,0.0945 -0.068162,0.42208 -0.014177,0.56277 0.032647,0.0851 0.063952,0.0748 0.21587,-0.0707 0.15716,-0.15056 0.22268,-0.17023 0.56722,-0.17023 z m 1.4408,0.007 C 6.96448,11.07598 7.1632,10.82968 7.21312,10.56358 7.28287,10.19179 6.96678,9.75233 6.56018,9.65579 6.39962,9.61769 6.3974,9.62099 6.45339,9.8162 c 0.10888,0.37966 -0.11312,0.80273 -0.53532,1.0202 -0.11941,0.0615 -0.12837,0.0863 -0.060565,0.16801 0.093025,0.1121 0.39586,0.25317 0.55075,0.25657 0.059339,10e-4 0.19779,-0.0352 0.30767,-0.0811 z M 5.96738,10.71563 C 6.18254,10.6052 6.34565,10.35389 6.3758,10.08631 6.441958,9.49936 5.90204,9.07371 5.3411,9.27064 5.14487,9.33954 5.09416,9.3853 5.11061,9.4787 c 0.078881,0.44785 0.073559,0.63822 -0.023564,0.84289 -0.10032,0.21142 -0.099941,0.22384 0.00951,0.30787 0.24384,0.18722 0.60441,0.2229 0.87081,0.0862 z m -1.2652,-0.1342 C 4.97478,10.39986 5.14449,10.05182 5.09335,9.77921 4.93708,8.94623 3.76105,8.88952 3.54165,9.70441 c -0.18505,0.68722 0.57882,1.2645 1.1605,0.87704 z m 2.1613,-1.2721 C 6.886316,8.96093 6.75666,8.6957 6.4982,8.56204 6.249,8.43318 5.89256,8.43418 5.69396,8.56404 5.54874,8.65924 5.3021,8.99529 5.30159,9.09874 c -1.272e-4,0.025 0.12372,0.0454 0.27521,0.0454 0.30229,0 0.58052,0.11697 0.70667,0.29708 0.072361,0.1033 0.33525,0.1861 0.50114,0.15783 0.033295,-0.006 0.068787,-0.13617 0.078866,-0.28999 z m -1.7794,-0.035 C 5.101667,9.24583 5.049579,9.16014 4.96833,9.08381 4.77674,8.90382 4.67391,8.58499 4.72302,8.3232 4.767271,8.08732 4.7322,8.07321 4.42295,8.20243 4.17931,8.30422 3.97008,8.61333 3.9697,8.87201 3.969446,9.05112 3.97341,9.05337 4.25704,9.03395 4.48649,9.01825 4.58749,9.04475 4.75654,9.16498 4.99402,9.3339 5.03815,9.34864 5.08408,9.27433 Z M 5.46752,8.64639 C 5.65292,8.4509 5.9676,8.33483 6.21409,8.371 6.42281,8.4017 6.43502,8.3393 6.272518,8.07279 6.039428,7.6905 5.544198,7.58072 5.175018,7.8295 4.896208,8.0174 4.807128,8.20865 4.836168,8.55701 4.854267,8.77409 4.904404,8.89336 5.034728,9.02939 l 0.17435,0.18198 0.050925,-0.19995 c 0.028009,-0.10997 0.12138,-0.27423 0.2075,-0.36503 z"
       id="path6" />
    <path
       style="clip-rule:evenodd;fill:#4d4d4d;fill-rule:evenodd;stroke-width:0.081201"
       inkscape:connector-curvature="0"
       d="m 3.3113,7.3 c 0.32481,0.0568 0.25172,0.203 0.45473,0.30045 0.14616,0.0731 0.064961,-0.19489 0.22736,-0.0731 0.02436,0.0325 0.39789,0.93382 0.37353,0.97442 0.37353,0.60901 0.81201,1.283 1.2018,1.8839 0.02436,-0.0244 0.048721,-0.0487 0.073081,-0.0731 0.76329,-0.51969 1.0719,-1.1693 1.6565,-1.957 0.073081,-0.0244 0.15428,-0.0487 0.22736,-0.0731 0.25984,-0.30045 0.21924,-0.71457 0.60089,-0.90134 V 7.6085 c -0.203,0.2842 -0.2842,0.59276 -0.52781,0.82825 0.064961,0.17864 0.081201,0.1218 0.15428,0.30044 -0.29232,0.21113 -1.624,1.9488 -1.7296,2.4848 h 0.073081 c 0.12992,-0.23548 0.27608,-0.56029 0.52781,-0.67397 v 0.15428 c -0.21112,0.21925 -0.39789,0.52781 -0.45473,0.90134 0.203,0.23548 0.203,0.63337 0.37353,0.90133 0.36541,0.59277 1.1043,0.95818 1.2018,1.8027 h -0.15428 v -0.15428 c -0.34105,-0.3654 -0.48721,-0.90945 -0.90133,-1.2018 v 0.0731 c 0.1218,0.11368 0.17052,0.19488 0.22736,0.37353 h -0.15428 v -0.0731 C 6.421332,13.04903 6.551262,12.67551 6.307652,12.26952 6.226451,12.13148 5.966602,12.05028 5.852922,11.896 H 5.779841 c -0.1218,0.49532 -1.5022,2.3224 -1.9407,2.4685 v -0.15428 c 0.44661,-0.30044 1.8108,-2.0138 1.8758,-2.6309 H 5.64186 v 0.15428 c -0.38165,0.16241 -0.45473,0.58465 -0.67397,0.90133 -0.44661,0.62526 -1.7864,2.4848 -2.4036,2.7852 v -0.15428 c 0.42225,-0.40601 0.73893,-0.99878 1.2018,-1.3561 -0.064961,-0.11368 -0.21112,-0.0568 -0.073081,-0.15428 0.53593,-0.66586 1.3723,-1.5266 1.8027,-2.5578 H 5.422628 c -0.77141,1.2424 -1.8758,2.2736 -2.5578,3.6053 h -0.15428 v -0.15428 c 0.22736,-0.21924 1.2018,-1.4779 1.2749,-1.7296 0.02436,-0.0812 -0.14616,-0.13804 -0.073081,-0.30044 0.27608,-0.58465 1.1612,-1.015 1.4291,-1.6322 -0.17864,-0.17864 -0.12992,-0.47909 -0.30044,-0.67397 -0.38165,-0.44661 -0.90945,-0.64961 -1.1287,-1.2749 h 0.15428 c 0.21924,0.38164 0.53593,0.81201 0.90133,1.0556 V 9.79273 C 4.229007,9.338 4.480727,8.35543 3.238337,8.36363 V 8.20934 c 0.33293,-0.065 0.27608,-0.17864 0.52781,-0.30044 0.073081,0.1218 0.15428,0.25172 0.22736,0.37353 H 4.066588 V 8.12814 C 3.798628,7.9495 3.481938,7.56786 3.311418,7.29989 Z"
       id="path16" />
  </g>
  <g
     id="g873"
     transform="translate(-0.30816649,0.66411051)">
    <path
       style="fill:#0a425a;stroke-width:0.060541"
       inkscape:connector-curvature="0"
       d="M 9.7358,22.24 C 9.19179,22.07284 8.6264,21.48798 8.3556,20.8123 8.06759,20.09371 7.98798,19.5313 7.99238,18.2464 c 0.0037,-1.0794 0.01787,-1.2324 0.16533,-1.786 0.19921,-0.74781 0.61852,-1.6123 0.97357,-2.0072 1.564,-1.7395 3.5662,0.14263 3.7135,3.4908 0.07363,1.6737 -0.25502,3.0259 -0.9075,3.7337 -0.40264,0.43682 -0.75269,0.58396 -1.4365,0.60381 -0.31633,0.009 -0.66055,-0.01 -0.76495,-0.0416 z m 1.509,-0.16767 c 1.0085,-0.44613 1.496,-1.6582 1.5023,-3.7351 0.0044,-1.4541 -0.28105,-2.5739 -0.88926,-3.4888 -0.43338,-0.65189 -0.90434,-0.96097 -1.4643,-0.96097 -1.4239,0 -2.5562,2.4806 -2.3237,5.0906 0.16736,1.8783 0.72811,2.8921 1.762,3.1855 0.3689,0.1047 1.0728,0.0593 1.413,-0.0912 z m -1.4104,-0.005 c -0.74673,-0.2441 -1.2814,-0.99507 -1.5129,-2.1251 -0.54924,-2.6808 0.33775,-5.5608 1.8283,-5.9361 1.1563,-0.29115 2.2715,1.341 2.471,3.6161 0.14422,1.6452 -0.21303,3.2911 -0.85875,3.9565 -0.36438,0.37547 -0.6663,0.50007 -1.2612,0.5205 -0.28303,0.01 -0.58288,-0.005 -0.66634,-0.0319 z m 1.2273,-0.10278 c 0.86381,-0.29433 1.3669,-1.2995 1.4946,-2.986 0.14284,-1.8871 -0.3303,-3.676 -1.1888,-4.4947 -0.32594,-0.31082 -0.60434,-0.43814 -0.95757,-0.43791 -1.2776,10e-4 -2.3183,2.2181 -2.1792,4.6429 0.10505,1.8302 0.62422,2.9608 1.5026,3.272 0.33759,0.11962 0.98302,0.12145 1.3284,0.004 z M 10.0154,21.70466 C 9.88301,21.63366 9.75068,21.48713 9.66006,21.31114 9.54062,21.07918 9.48649,21.03072 9.34686,21.03072 9.15191,21.03072 8.84157,20.79171 8.71254,20.54218 8.61107,20.34596 8.59835,20.0766 8.68038,19.86085 8.72672,19.73896 8.7103,19.68734 8.58889,19.57328 8.30684,19.30831 8.26884,18.82224 8.50429,18.49108 8.60477,18.34976 8.60452,18.33557 8.49899,18.18838 8.30799,17.92196 8.29645,17.646 8.46266,17.31943 c 0.12511,-0.24581 0.1384,-0.3219 0.08603,-0.49255 -0.0928,-0.30236 -0.0094,-0.61132 0.22947,-0.8502 0.16051,-0.16052 0.20898,-0.25929 0.20898,-0.4259 0,-0.42856 0.36697,-0.81632 0.77257,-0.81632 0.10663,0 0.19764,-0.0378 0.21785,-0.0905 0.11008,-0.28685 0.77227,-0.42673 1.1342,-0.23957 0.19529,0.10099 0.41751,0.41431 0.41788,0.58919 1.27e-4,0.0593 0.09524,0.19121 0.21137,0.29318 0.26459,0.23231 0.37696,0.56843 0.28154,0.84214 -0.06189,0.17755 -0.05206,0.21306 0.1102,0.39787 0.18371,0.20923 0.24472,0.42184 0.24139,0.84118 -0.0011,0.13319 0.01533,0.3827 0.03642,0.55447 0.02829,0.23046 0.01167,0.3685 -0.06343,0.52678 -0.09333,0.19668 -0.09378,0.2259 -0.0054,0.35199 0.15715,0.22436 0.12777,0.72983 -0.05504,0.94709 -0.11052,0.13134 -0.15146,0.25101 -0.15175,0.44356 -6.88e-4,0.40841 -0.36191,0.83739 -0.70615,0.83844 -0.0952,2.3e-4 -0.14188,0.0481 -0.16943,0.17351 -0.03922,0.17855 -0.26534,0.42678 -0.49735,0.54598 -0.19698,0.1012 -0.50873,0.0823 -0.74655,-0.0452 z m 0.77525,-0.0628 c 0.232,-0.11911 0.47189,-0.44439 0.40616,-0.55075 -0.02055,-0.0332 -0.09731,-0.0604 -0.1706,-0.0604 -0.07329,0 -0.20366,-0.0653 -0.2897,-0.14506 -0.18906,-0.1753 -0.41898,-0.17071 -0.72017,0.0144 -0.11654,0.0716 -0.24595,0.13032 -0.28757,0.13045 -0.2051,5.9e-4 0.0435,0.44865 0.33407,0.60208 0.28678,0.15141 0.44703,0.15346 0.7278,0.009 z M 9.88179,20.87604 c 0.17297,-0.12116 0.16956,-0.17307 -0.01694,-0.25805 -0.3208,-0.14617 -0.50837,-0.77271 -0.3307,-1.1047 0.055,-0.10276 0.04202,-0.11707 -0.10595,-0.11688 -0.35632,4.5e-4 -0.74376,0.41034 -0.74376,0.78681 0,0.22161 0.19105,0.55236 0.38867,0.67287 0.22668,0.13823 0.62573,0.14806 0.80868,0.0199 z m 1.8182,-0.0284 c 0.21451,-0.13077 0.37488,-0.43389 0.37451,-0.70785 -4.49e-4,-0.37133 -0.38867,-0.74357 -0.77539,-0.74357 -0.17438,0 -0.17558,0.002 -0.11497,0.22946 0.09509,0.35627 0.01348,0.63654 -0.25631,0.88028 -0.21564,0.19482 -0.2269,0.21996 -0.1345,0.3003 0.22706,0.19742 0.62122,0.21541 0.90666,0.0414 z M 10.86712,20.4526 c 0.18852,-0.18061 0.31446,-0.51131 0.25991,-0.68252 -0.01778,-0.0558 -0.05935,-0.17405 -0.0924,-0.2628 l -0.06009,-0.16136 -0.20918,0.12342 c -0.25167,0.14849 -0.74279,0.12716 -0.92783,-0.0403 -0.11308,-0.10233 -0.12022,-0.0983 -0.21128,0.11965 -0.12141,0.29056 -0.11886,0.43934 0.0117,0.68206 0.25172,0.46799 0.85803,0.57743 1.2292,0.22185 z m 1.3843,-0.77596 c 0.22104,-0.35765 0.13103,-0.8707 -0.18961,-1.0808 -0.3598,-0.23574 -0.83464,-0.17624 -0.83464,0.1046 0,0.0851 -0.04087,0.2526 -0.09081,0.37214 -0.04995,0.11954 -0.09065,0.22082 -0.09044,0.22508 2.06e-4,0.004 0.12231,0.0111 0.27135,0.0152 0.31314,0.009 0.54518,0.14052 0.6876,0.39086 0.05508,0.0968 0.10474,0.17622 0.11035,0.17643 0.0056,1.8e-4 0.06691,-0.0914 0.13622,-0.20352 z m -3.3036,-0.1868 C 9.05493,19.40814 9.2539,19.3235 9.38996,19.30173 l 0.2474,-0.0396 -0.08864,-0.17769 C 9.49212,18.97097 9.46761,18.78185 9.48092,18.56118 l 0.02084,-0.34555 -0.20394,-0.0195 c -0.46438,-0.0444 -0.85553,0.30243 -0.85553,0.75863 0,0.24163 0.18194,0.68359 0.28141,0.68359 0.01615,0 0.11701,-0.0668 0.22412,-0.14854 z m 1.8309,-0.12156 c 0.38009,-0.24905 0.46635,-0.777 0.18682,-1.1435 -0.28514,-0.37384 -0.76575,-0.42765 -1.1244,-0.1259 -0.34228,0.28801 -0.39027,0.73801 -0.11589,1.0868 0.25513,0.32435 0.71532,0.4041 1.0534,0.18256 z m 1.5978,-1.3254 c -4.5e-4,-0.13782 -0.02632,-0.29074 -0.05735,-0.33981 -0.04809,-0.076 -0.07701,-0.0705 -0.19583,0.0378 -0.32326,0.29464 -0.72566,0.34833 -1.0641,0.14197 -0.10902,-0.0665 -0.21118,-0.12086 -0.22703,-0.12086 -0.07968,0 -0.0093,0.15754 0.15282,0.34222 0.09989,0.11378 0.18162,0.23119 0.18162,0.26092 0,0.0297 0.14515,0.0391 0.32256,0.0208 0.23088,-0.0238 0.37283,-0.006 0.49946,0.0623 0.16674,0.0901 0.183,0.0884 0.28286,-0.0296 0.06417,-0.0758 0.10558,-0.22397 0.10502,-0.37574 z m -3.1818,0.0726 c 0.275,-0.006 0.28201,-0.0103 0.24715,-0.16905 C 9.42214,17.85653 9.43247,17.71355 9.46472,17.62859 9.52148,17.47931 9.5143,17.47307 9.25156,17.44346 9.08112,17.42426 8.92308,17.35966 8.82804,17.27036 L 8.67641,17.12791 8.56072,17.27848 c -0.14223,0.18513 -0.15488,0.60061 -0.02587,0.85009 0.08821,0.17058 0.09912,0.17456 0.23468,0.0857 0.07819,-0.0512 0.26953,-0.0957 0.4252,-0.0988 z m 1.1586,-0.26264 c 0.35648,0 0.38954,-0.0109 0.38954,-0.12829 0,-0.0998 -0.04723,-0.13596 -0.21247,-0.16278 -0.11686,-0.0189 -0.29112,-0.0905 -0.38725,-0.15893 -0.15841,-0.1128 -0.1904,-0.11635 -0.34151,-0.0379 -0.0917,0.0476 -0.18945,0.12234 -0.21723,0.16615 -0.05991,0.0945 -0.06816,0.42208 -0.01418,0.56277 0.03265,0.0851 0.06395,0.0748 0.21587,-0.0707 0.15716,-0.15056 0.22268,-0.17023 0.56722,-0.17023 z m 1.4408,0.007 c 0.24856,-0.10386 0.44728,-0.35016 0.4972,-0.61626 0.06975,-0.37179 -0.24634,-0.81125 -0.65294,-0.90779 -0.16056,-0.0381 -0.16278,-0.0348 -0.10679,0.16041 0.10888,0.37966 -0.11312,0.80273 -0.53532,1.0202 -0.11941,0.0615 -0.12837,0.0863 -0.06057,0.16801 0.09302,0.1121 0.39586,0.25317 0.55075,0.25657 0.05934,0.001 0.19779,-0.0352 0.30767,-0.0811 z m -0.74854,-0.46421 c 0.21516,-0.11043 0.37827,-0.36174 0.40842,-0.62932 0.06616,-0.58695 -0.47376,-1.0126 -1.0347,-0.81567 -0.19623,0.0689 -0.24694,0.11466 -0.23049,0.20806 0.07888,0.44785 0.07356,0.63822 -0.02356,0.84289 -0.10032,0.21142 -0.09994,0.22384 0.0095,0.30787 0.24384,0.18722 0.6044,0.2229 0.87081,0.0862 z m -1.2652,-0.1342 c 0.2726,-0.18157 0.44231,-0.52961 0.39117,-0.80222 -0.15627,-0.83298 -1.3323,-0.88969 -1.5517,-0.0748 -0.18505,0.68722 0.57882,1.2645 1.1605,0.87704 z m 2.1613,-1.2721 c 0.02284,-0.3484 -0.10682,-0.61363 -0.36528,-0.74729 -0.2492,-0.12886 -0.60564,-0.12786 -0.80424,0.002 -0.14522,0.0952 -0.39186,0.43125 -0.39237,0.5347 -1.28e-4,0.025 0.12372,0.0454 0.27521,0.0454 0.30229,0 0.58052,0.11697 0.70667,0.29708 0.07236,0.1033 0.33525,0.1861 0.50114,0.15783 0.0333,-0.006 0.06879,-0.13617 0.07887,-0.28999 z m -1.7794,-0.035 c 0.01759,-0.0285 -0.0345,-0.11419 -0.11575,-0.19052 -0.19159,-0.17999 -0.29442,-0.49882 -0.24531,-0.76061 0.04425,-0.23588 0.0092,-0.24999 -0.30007,-0.12077 -0.24364,0.10179 -0.45287,0.4109 -0.45325,0.66958 -2.54e-4,0.17911 0.0037,0.18136 0.28734,0.16194 0.22946,-0.0157 0.33045,0.0108 0.4995,0.13103 0.23748,0.16892 0.28161,0.18366 0.32754,0.10935 z m 0.38344,-0.62794 c 0.1854,-0.19549 0.50008,-0.31156 0.74657,-0.27539 0.20872,0.0307 0.22093,-0.0317 0.05843,-0.29821 -0.2331,-0.38229 -0.72832,-0.49207 -1.0975,-0.24329 -0.27881,0.1879 -0.36789,0.37915 -0.33885,0.72751 0.0181,0.21708 0.06824,0.33635 0.19856,0.47238 l 0.17435,0.18198 0.05093,-0.19995 c 0.02801,-0.10997 0.12138,-0.27423 0.2075,-0.36503 z"
       id="path10" />
    <path
       style="clip-rule:evenodd;fill:#4d4d4d;fill-rule:evenodd;stroke-width:0.081201"
       inkscape:connector-curvature="0"
       d="m 8.3894,13.98 c 0.32481,0.0568 0.25172,0.203 0.45473,0.30045 0.14616,0.0731 0.064961,-0.19489 0.22736,-0.0731 0.02436,0.0325 0.39789,0.93382 0.37353,0.97442 0.37353,0.60901 0.81201,1.283 1.2018,1.8839 0.02436,-0.0244 0.04872,-0.0487 0.07308,-0.0731 0.76329,-0.51969 1.0719,-1.1693 1.6565,-1.957 0.07308,-0.0244 0.15428,-0.0487 0.22736,-0.0731 0.25984,-0.30045 0.21924,-0.71457 0.60089,-0.90134 v 0.22737 c -0.203,0.2842 -0.2842,0.59276 -0.52781,0.82825 0.06496,0.17864 0.0812,0.1218 0.15428,0.30044 -0.29232,0.21113 -1.624,1.9488 -1.7296,2.4848 h 0.07308 c 0.12992,-0.23548 0.27608,-0.56029 0.52781,-0.67397 v 0.15428 c -0.21112,0.21925 -0.39789,0.52781 -0.45473,0.90134 0.203,0.23548 0.203,0.63337 0.37352,0.90133 0.36541,0.59277 1.1043,0.95818 1.2018,1.8027 h -0.15428 v -0.15428 c -0.34104,-0.3654 -0.48721,-0.90945 -0.90133,-1.2018 v 0.0731 c 0.1218,0.11368 0.17052,0.19488 0.22736,0.37353 h -0.15428 v -0.0731 c -0.34105,-0.27609 -0.21112,-0.64961 -0.45473,-1.0556 -0.0812,-0.13804 -0.34105,-0.21924 -0.45473,-0.37352 h -0.07308 c -0.1218,0.49532 -1.5022,2.3224 -1.9407,2.4685 v -0.15428 c 0.44661,-0.30044 1.8108,-2.0138 1.8757,-2.6309 h -0.07308 v 0.15428 c -0.38165,0.16241 -0.45473,0.58465 -0.67397,0.90133 -0.44661,0.62526 -1.7864,2.4848 -2.4036,2.7852 v -0.15428 c 0.42225,-0.40601 0.73893,-0.99878 1.2018,-1.3561 -0.064961,-0.11368 -0.21112,-0.0568 -0.073081,-0.15428 0.53593,-0.66586 1.3723,-1.5266 1.8027,-2.5578 h -0.07308 c -0.77141,1.2424 -1.8757,2.2736 -2.5578,3.6053 h -0.15428 v -0.15428 c 0.22736,-0.21924 1.2018,-1.4779 1.2749,-1.7296 0.02436,-0.0812 -0.14616,-0.13804 -0.073081,-0.30044 0.27608,-0.58465 1.1612,-1.015 1.4291,-1.6322 -0.17864,-0.17864 -0.12992,-0.47909 -0.30044,-0.67397 -0.38165,-0.44661 -0.90945,-0.64961 -1.1287,-1.2749 h 0.15428 c 0.21924,0.38164 0.53593,0.81201 0.90133,1.0556 v -0.30045 c -0.73893,-0.45473 -0.48721,-1.4373 -1.7296,-1.4291 v -0.15429 c 0.33293,-0.065 0.27608,-0.17864 0.52781,-0.30044 0.073081,0.1218 0.15428,0.25172 0.22736,0.37353 H 9.144579 V 14.80814 C 8.876619,14.6295 8.559929,14.24786 8.389409,13.97989 Z"
       id="path18" />
  </g>
  <g
     id="g869"
     transform="translate(0,0.89688136)">
    <path
       style="fill:#0a425a;stroke-width:0.060541"
       inkscape:connector-curvature="0"
       d="m 17.086,22.64 c -0.54401,-0.16716 -1.1094,-0.75202 -1.3802,-1.4277 -0.28801,-0.71859 -0.36762,-1.281 -0.36322,-2.5659 0.0037,-1.0794 0.01787,-1.2324 0.16533,-1.786 0.19921,-0.74781 0.61852,-1.6123 0.97357,-2.0072 1.564,-1.7395 3.5662,0.14263 3.7135,3.4908 0.07363,1.6737 -0.25502,3.0259 -0.9075,3.7337 -0.40264,0.43682 -0.75269,0.58396 -1.4365,0.60381 -0.31633,0.009 -0.66056,-0.01 -0.76495,-0.0416 z m 1.509,-0.16767 c 1.0085,-0.44613 1.496,-1.6582 1.5023,-3.7351 0.0044,-1.4541 -0.28105,-2.5739 -0.88926,-3.4888 -0.43338,-0.65189 -0.90434,-0.96097 -1.4643,-0.96097 -1.4239,0 -2.5562,2.4806 -2.3237,5.0906 0.16736,1.8783 0.72811,2.8921 1.762,3.1855 0.3689,0.1047 1.0728,0.0593 1.413,-0.0912 z m -1.4104,-0.005 c -0.74673,-0.2441 -1.2814,-0.99507 -1.5129,-2.1251 -0.54924,-2.6808 0.33775,-5.5608 1.8283,-5.9361 1.1563,-0.29115 2.2715,1.341 2.471,3.6161 0.14422,1.6452 -0.21303,3.2911 -0.85875,3.9565 -0.36438,0.37547 -0.6663,0.50007 -1.2612,0.5205 -0.28303,0.01 -0.58288,-0.005 -0.66634,-0.0319 z m 1.2273,-0.10278 c 0.86381,-0.29433 1.3669,-1.2995 1.4946,-2.986 0.14284,-1.8871 -0.3303,-3.676 -1.1888,-4.4947 -0.32594,-0.31082 -0.60434,-0.43814 -0.95757,-0.43791 -1.2776,10e-4 -2.3183,2.2181 -2.1792,4.6429 0.10505,1.8302 0.62422,2.9608 1.5026,3.272 0.3376,0.11962 0.98302,0.12145 1.3284,0.004 z m -1.0463,-0.25989 c -0.13239,-0.071 -0.26472,-0.21753 -0.35534,-0.39352 -0.11944,-0.23196 -0.17357,-0.28042 -0.3132,-0.28042 -0.19495,0 -0.50529,-0.23901 -0.63432,-0.48854 -0.10147,-0.19622 -0.11418,-0.46558 -0.03216,-0.68133 0.04634,-0.12189 0.02992,-0.17351 -0.09149,-0.28757 -0.28205,-0.26497 -0.32005,-0.75104 -0.0846,-1.0822 0.10048,-0.14132 0.10023,-0.15551 -0.0053,-0.3027 -0.191,-0.26642 -0.20254,-0.54238 -0.03633,-0.86895 0.12511,-0.24581 0.1384,-0.3219 0.08603,-0.49255 -0.0928,-0.30236 -0.0094,-0.61132 0.22948,-0.8502 0.16051,-0.16052 0.20898,-0.25929 0.20898,-0.4259 0,-0.42856 0.36697,-0.81632 0.77256,-0.81632 0.10663,0 0.19764,-0.0378 0.21785,-0.0905 0.11008,-0.28685 0.77227,-0.42673 1.1342,-0.23957 0.19529,0.10099 0.41751,0.41431 0.41788,0.58919 1.27e-4,0.0593 0.09524,0.19121 0.21137,0.29318 0.26459,0.23231 0.37696,0.56843 0.28154,0.84214 -0.06189,0.17755 -0.05205,0.21306 0.1102,0.39787 0.18371,0.20923 0.24472,0.42184 0.24139,0.84118 -0.0011,0.13319 0.01533,0.3827 0.03642,0.55447 0.02829,0.23046 0.01167,0.3685 -0.06343,0.52678 -0.09333,0.19668 -0.09379,0.2259 -0.0054,0.35199 0.15715,0.22436 0.12777,0.72983 -0.05504,0.94709 -0.11052,0.13134 -0.15146,0.25101 -0.15175,0.44356 -6.88e-4,0.40841 -0.36191,0.83739 -0.70615,0.83844 -0.0952,2.3e-4 -0.14188,0.0481 -0.16943,0.17351 -0.03922,0.17855 -0.26534,0.42678 -0.49735,0.54598 -0.19698,0.1012 -0.50873,0.0823 -0.74655,-0.0452 z m 0.77525,-0.0628 c 0.23201,-0.11911 0.47189,-0.44439 0.40616,-0.55075 -0.02055,-0.0332 -0.09731,-0.0604 -0.1706,-0.0604 -0.07329,0 -0.20366,-0.0653 -0.2897,-0.14506 -0.18906,-0.1753 -0.41898,-0.17071 -0.72017,0.0144 -0.11654,0.0716 -0.24595,0.13032 -0.28757,0.13045 -0.2051,5.9e-4 0.0435,0.44865 0.33407,0.60208 0.28678,0.15141 0.44703,0.15346 0.7278,0.009 z m -0.90886,-0.76582 c 0.17297,-0.12116 0.16956,-0.17307 -0.01694,-0.25805 -0.3208,-0.14617 -0.50837,-0.77271 -0.33071,-1.1047 0.055,-0.10276 0.04202,-0.11707 -0.10595,-0.11688 -0.35632,4.5e-4 -0.74376,0.41034 -0.74376,0.78681 0,0.22161 0.19105,0.55236 0.38867,0.67287 0.22668,0.13823 0.62573,0.14806 0.80868,0.0199 z m 1.8182,-0.0284 c 0.21451,-0.13077 0.37488,-0.43389 0.37451,-0.70785 -4.5e-4,-0.37133 -0.38867,-0.74357 -0.77539,-0.74357 -0.17438,0 -0.17558,0.002 -0.11497,0.22946 0.09509,0.35627 0.01348,0.63654 -0.25631,0.88028 -0.21564,0.19482 -0.2269,0.21996 -0.1345,0.3003 0.22706,0.19742 0.62122,0.21541 0.90666,0.0414 z M 18.21732,20.8526 c 0.18852,-0.18061 0.31446,-0.51131 0.25991,-0.68252 -0.01778,-0.0558 -0.05935,-0.17405 -0.0924,-0.2628 l -0.06009,-0.16136 -0.20918,0.12342 c -0.25167,0.14849 -0.74279,0.12716 -0.92783,-0.0403 -0.11308,-0.10233 -0.12022,-0.0983 -0.21128,0.11965 -0.12141,0.29056 -0.11885,0.43934 0.0117,0.68206 0.25173,0.46799 0.85803,0.57743 1.2292,0.22185 z m 1.3843,-0.77596 c 0.22104,-0.35765 0.13103,-0.8707 -0.18962,-1.0808 -0.3598,-0.23574 -0.83464,-0.17624 -0.83464,0.1046 0,0.0851 -0.04087,0.2526 -0.09081,0.37214 -0.04995,0.11954 -0.09064,0.22082 -0.09044,0.22508 2.06e-4,0.004 0.12231,0.0111 0.27135,0.0152 0.31314,0.009 0.54518,0.14052 0.6876,0.39086 0.05508,0.0968 0.10474,0.17622 0.11035,0.17643 0.0056,1.8e-4 0.06691,-0.0914 0.13622,-0.20352 z m -3.3036,-0.1868 c 0.10711,-0.0817 0.30608,-0.16634 0.44214,-0.18811 l 0.2474,-0.0396 -0.08864,-0.17769 c -0.0566,-0.11347 -0.08111,-0.30259 -0.0678,-0.52326 l 0.02084,-0.34555 -0.20394,-0.0195 c -0.46438,-0.0444 -0.85553,0.30243 -0.85553,0.75863 0,0.24163 0.18194,0.68359 0.28141,0.68359 0.01615,0 0.11701,-0.0668 0.22412,-0.14854 z m 1.8309,-0.12156 c 0.38009,-0.24905 0.46635,-0.777 0.18682,-1.1435 -0.28514,-0.37384 -0.76575,-0.42765 -1.1244,-0.1259 -0.34228,0.28801 -0.39026,0.73801 -0.11589,1.0868 0.25513,0.32435 0.71532,0.4041 1.0534,0.18256 z m 1.5978,-1.3254 c -4.49e-4,-0.13782 -0.02632,-0.29074 -0.05735,-0.33981 -0.04809,-0.076 -0.07701,-0.0705 -0.19583,0.0378 -0.32326,0.29464 -0.72566,0.34833 -1.0641,0.14197 -0.10902,-0.0665 -0.21118,-0.12086 -0.22703,-0.12086 -0.07969,0 -0.0093,0.15754 0.15281,0.34222 0.09989,0.11378 0.18162,0.23119 0.18162,0.26092 0,0.0297 0.14515,0.0391 0.32255,0.0208 0.23088,-0.0238 0.37283,-0.006 0.49946,0.0623 0.16674,0.0901 0.183,0.0884 0.28286,-0.0296 0.06417,-0.0758 0.10558,-0.22397 0.10502,-0.37574 z m -3.1818,0.0726 c 0.275,-0.006 0.28201,-0.0103 0.24715,-0.16905 -0.01974,-0.0899 -0.0095,-0.23288 0.02285,-0.31784 0.05676,-0.14928 0.04958,-0.15552 -0.21316,-0.18513 -0.17044,-0.0192 -0.32848,-0.0838 -0.42353,-0.1731 l -0.15163,-0.14245 -0.11569,0.15057 c -0.14223,0.18513 -0.15488,0.60061 -0.02587,0.85009 0.08821,0.17058 0.09912,0.17456 0.23468,0.0857 0.07819,-0.0512 0.26953,-0.0957 0.4252,-0.0988 z m 1.1586,-0.26264 c 0.35648,0 0.38954,-0.0109 0.38954,-0.12829 0,-0.0998 -0.04723,-0.13596 -0.21247,-0.16278 -0.11686,-0.0189 -0.29112,-0.0905 -0.38725,-0.15893 -0.15841,-0.1128 -0.1904,-0.11635 -0.3415,-0.0379 -0.0917,0.0476 -0.18945,0.12234 -0.21723,0.16615 -0.05991,0.0945 -0.06816,0.42208 -0.01418,0.56277 0.03265,0.0851 0.06395,0.0748 0.21587,-0.0707 0.15716,-0.15056 0.22268,-0.17023 0.56722,-0.17023 z m 1.4408,0.007 c 0.24856,-0.10386 0.44728,-0.35016 0.4972,-0.61626 0.06975,-0.37179 -0.24634,-0.81125 -0.65294,-0.90779 -0.16056,-0.0381 -0.16278,-0.0348 -0.10679,0.16041 0.10888,0.37966 -0.11312,0.80273 -0.53532,1.0202 -0.11941,0.0615 -0.12836,0.0863 -0.06057,0.16801 0.09303,0.1121 0.39586,0.25317 0.55075,0.25657 0.05934,0.001 0.19779,-0.0352 0.30767,-0.0811 z m -0.74854,-0.46421 c 0.21516,-0.11043 0.37827,-0.36174 0.40842,-0.62932 0.06616,-0.58695 -0.47376,-1.0126 -1.0347,-0.81567 -0.19623,0.0689 -0.24694,0.11466 -0.23049,0.20806 0.07888,0.44785 0.07356,0.63822 -0.02356,0.84289 -0.10032,0.21142 -0.09994,0.22384 0.0095,0.30787 0.24384,0.18722 0.60441,0.2229 0.87081,0.0862 z m -1.2652,-0.1342 c 0.2726,-0.18157 0.44231,-0.52961 0.39117,-0.80222 -0.15627,-0.83298 -1.3323,-0.88969 -1.5517,-0.0748 -0.18505,0.68722 0.57882,1.2645 1.1605,0.87704 z m 2.1613,-1.2721 c 0.02284,-0.3484 -0.10682,-0.61363 -0.36528,-0.74729 -0.2492,-0.12886 -0.60564,-0.12786 -0.80424,0.002 -0.14522,0.0952 -0.39186,0.43125 -0.39237,0.5347 -1.27e-4,0.025 0.12372,0.0454 0.27521,0.0454 0.30228,0 0.58052,0.11697 0.70667,0.29708 0.07236,0.1033 0.33525,0.1861 0.50114,0.15783 0.0333,-0.006 0.06879,-0.13617 0.07887,-0.28999 z m -1.7794,-0.035 c 0.01759,-0.0285 -0.0345,-0.11419 -0.11575,-0.19052 -0.19159,-0.17999 -0.29442,-0.49882 -0.24531,-0.76061 0.04425,-0.23588 0.0092,-0.24999 -0.30007,-0.12077 -0.24364,0.10179 -0.45287,0.4109 -0.45325,0.66958 -2.54e-4,0.17911 0.0037,0.18136 0.28734,0.16194 0.22945,-0.0157 0.33045,0.0108 0.4995,0.13103 0.23748,0.16892 0.28161,0.18366 0.32754,0.10935 z m 0.38344,-0.62794 c 0.1854,-0.19549 0.50008,-0.31156 0.74657,-0.27539 0.20872,0.0307 0.22093,-0.0317 0.05843,-0.29821 -0.23309,-0.38229 -0.72832,-0.49207 -1.0975,-0.24329 -0.27881,0.1879 -0.36789,0.37915 -0.33885,0.72751 0.0181,0.21708 0.06824,0.33635 0.19856,0.47238 l 0.17435,0.18198 0.05092,-0.19995 c 0.02801,-0.10997 0.12138,-0.27423 0.2075,-0.36503 z"
       id="path14" />
    <path
       style="clip-rule:evenodd;fill:#4d4d4d;fill-rule:evenodd;stroke-width:0.081201"
       inkscape:connector-curvature="0"
       d="m 15.739,14.38 c 0.3248,0.0568 0.25172,0.203 0.45473,0.30045 0.14616,0.0731 0.06496,-0.19489 0.22736,-0.0731 0.02436,0.0325 0.39789,0.93382 0.37353,0.97442 0.37353,0.60901 0.81201,1.283 1.2018,1.8839 0.02436,-0.0244 0.04872,-0.0487 0.07308,-0.0731 0.76329,-0.51969 1.0719,-1.1693 1.6565,-1.957 0.07308,-0.0244 0.15428,-0.0487 0.22736,-0.0731 0.25984,-0.30045 0.21924,-0.71457 0.60089,-0.90134 v 0.22737 c -0.203,0.2842 -0.2842,0.59276 -0.52781,0.82825 0.06496,0.17864 0.0812,0.1218 0.15428,0.30044 -0.29232,0.21113 -1.624,1.9488 -1.7296,2.4848 h 0.07308 c 0.12992,-0.23548 0.27608,-0.56029 0.52781,-0.67397 v 0.15428 c -0.21112,0.21925 -0.39789,0.52781 -0.45473,0.90134 0.203,0.23548 0.203,0.63337 0.37353,0.90133 0.36541,0.59277 1.1043,0.95818 1.2018,1.8027 h -0.15428 v -0.15428 c -0.34105,-0.3654 -0.48721,-0.90945 -0.90133,-1.2018 v 0.0731 c 0.1218,0.11368 0.17052,0.19488 0.22736,0.37353 h -0.15428 v -0.0731 C 18.84903,20.12903 18.97896,19.75551 18.73535,19.34952 18.65415,19.21148 18.3943,19.13028 18.28062,18.976 h -0.07308 c -0.1218,0.49532 -1.5022,2.3224 -1.9407,2.4685 v -0.15428 c 0.44661,-0.30044 1.8108,-2.0138 1.8758,-2.6309 h -0.07308 v 0.15428 c -0.38165,0.16241 -0.45473,0.58465 -0.67397,0.90133 -0.44661,0.62526 -1.7864,2.4848 -2.4036,2.7852 v -0.15428 c 0.42225,-0.40601 0.73893,-0.99878 1.2018,-1.3561 -0.06496,-0.11368 -0.21112,-0.0568 -0.07308,-0.15428 0.53593,-0.66586 1.3723,-1.5266 1.8027,-2.5578 h -0.07308 c -0.77141,1.2424 -1.8758,2.2736 -2.5578,3.6053 h -0.15428 v -0.15428 c 0.22736,-0.21924 1.2018,-1.4779 1.2749,-1.7296 0.02436,-0.0812 -0.14616,-0.13804 -0.07308,-0.30044 0.27608,-0.58465 1.1612,-1.015 1.4291,-1.6322 -0.17864,-0.17864 -0.12992,-0.47909 -0.30044,-0.67397 -0.38165,-0.44661 -0.90946,-0.64961 -1.1287,-1.2749 h 0.15428 c 0.21924,0.38164 0.53593,0.81201 0.90134,1.0556 v -0.30045 c -0.73893,-0.45473 -0.48721,-1.4373 -1.7296,-1.4291 v -0.15429 c 0.33292,-0.065 0.27608,-0.17864 0.52781,-0.30044 0.07308,0.1218 0.15428,0.25172 0.22736,0.37353 H 16.4943 V 15.20814 C 16.22634,15.0295 15.90965,14.64786 15.73913,14.37989 Z"
       id="path20" />
  </g>
  <g
     id="g865"
     transform="translate(0.22422034,0.44844068)">
    <path
       style="fill:#0a425a;stroke-width:0.060541"
       inkscape:connector-curvature="0"
       d="m 20.827,14.09 c -0.54401,-0.16716 -1.1094,-0.75202 -1.3802,-1.4277 -0.28801,-0.71859 -0.36762,-1.281 -0.36322,-2.5659 0.0037,-1.0794 0.01787,-1.2324 0.16533,-1.786 0.19921,-0.74781 0.61852,-1.6123 0.97357,-2.0072 1.564,-1.7395 3.5662,0.14263 3.7135,3.4908 0.07363,1.6737 -0.25502,3.0259 -0.9075,3.7337 -0.40264,0.43682 -0.75269,0.58396 -1.4365,0.60381 -0.31633,0.009 -0.66055,-0.01 -0.76495,-0.0416 z m 1.509,-0.16767 c 1.0085,-0.44613 1.496,-1.6582 1.5023,-3.7351 0.0044,-1.4541 -0.28105,-2.5739 -0.88926,-3.4888 -0.43338,-0.65189 -0.90434,-0.96097 -1.4643,-0.96097 -1.4239,0 -2.5562,2.4806 -2.3237,5.0906 0.16736,1.8783 0.7281,2.8921 1.762,3.1855 0.3689,0.1047 1.0728,0.0593 1.413,-0.0912 z m -1.4104,-0.005 c -0.74673,-0.2441 -1.2814,-0.99507 -1.5129,-2.1251 -0.54924,-2.6808 0.33774,-5.5608 1.8283,-5.9361 1.1563,-0.29115 2.2715,1.341 2.471,3.6161 0.14422,1.6452 -0.21303,3.2911 -0.85875,3.9565 -0.36438,0.37547 -0.6663,0.50007 -1.2612,0.5205 -0.28303,0.01 -0.58288,-0.005 -0.66634,-0.0319 z m 1.2273,-0.10278 c 0.86381,-0.29433 1.3669,-1.2995 1.4946,-2.986 0.14284,-1.8871 -0.3303,-3.676 -1.1888,-4.4947 -0.32594,-0.31082 -0.60434,-0.43814 -0.95757,-0.43791 -1.2776,10e-4 -2.3183,2.2181 -2.1792,4.6429 0.10505,1.8302 0.62422,2.9608 1.5026,3.272 0.3376,0.11962 0.98302,0.12145 1.3284,0.004 z m -1.0463,-0.25989 c -0.13239,-0.071 -0.26472,-0.21753 -0.35534,-0.39352 -0.11944,-0.23196 -0.17357,-0.28042 -0.31319,-0.28042 -0.19495,0 -0.50529,-0.23901 -0.63432,-0.48854 -0.10147,-0.19622 -0.11418,-0.46558 -0.03216,-0.68133 0.04634,-0.12189 0.02992,-0.17351 -0.09149,-0.28757 -0.28205,-0.26497 -0.32005,-0.75104 -0.0846,-1.0822 0.10048,-0.14132 0.10023,-0.15551 -0.0053,-0.3027 -0.191,-0.26642 -0.20254,-0.54238 -0.03633,-0.86895 0.12511,-0.24581 0.1384,-0.3219 0.08603,-0.49255 -0.0928,-0.30236 -0.0094,-0.61132 0.22947,-0.8502 0.16052,-0.16052 0.20898,-0.25929 0.20898,-0.4259 0,-0.42856 0.36697,-0.81632 0.77256,-0.81632 0.10663,0 0.19764,-0.0378 0.21785,-0.0905 0.11008,-0.28685 0.77227,-0.42673 1.1342,-0.23957 0.19529,0.10099 0.41751,0.41431 0.41788,0.58919 1.27e-4,0.0593 0.09524,0.19121 0.21137,0.29318 0.26459,0.23231 0.37696,0.56843 0.28154,0.84214 -0.06189,0.17755 -0.05205,0.21306 0.1102,0.39787 0.18371,0.20923 0.24472,0.42184 0.24139,0.84118 -0.0011,0.13319 0.01533,0.3827 0.03642,0.55447 0.02829,0.23046 0.01167,0.3685 -0.06343,0.52678 -0.09333,0.19668 -0.09379,0.2259 -0.0054,0.35199 0.15715,0.22436 0.12777,0.72983 -0.05504,0.94709 -0.11052,0.13134 -0.15146,0.25101 -0.15175,0.44356 -6.88e-4,0.40841 -0.36191,0.83739 -0.70615,0.83844 -0.0952,2.3e-4 -0.14188,0.0481 -0.16943,0.17351 -0.03922,0.17855 -0.26534,0.42678 -0.49735,0.54598 -0.19698,0.1012 -0.50873,0.0823 -0.74655,-0.0452 z m 0.77525,-0.0628 c 0.23201,-0.11911 0.47189,-0.44439 0.40616,-0.55075 -0.02055,-0.0332 -0.09731,-0.0604 -0.1706,-0.0604 -0.07329,0 -0.20366,-0.0653 -0.2897,-0.14506 -0.18906,-0.1753 -0.41898,-0.17071 -0.72017,0.0144 -0.11654,0.0716 -0.24595,0.13032 -0.28757,0.13045 -0.2051,5.9e-4 0.0435,0.44865 0.33407,0.60208 0.28678,0.15141 0.44703,0.15346 0.7278,0.009 z m -0.90886,-0.76582 c 0.17297,-0.12116 0.16956,-0.17307 -0.01694,-0.25805 -0.3208,-0.14617 -0.50837,-0.77271 -0.33071,-1.1047 0.055,-0.10276 0.04202,-0.11707 -0.10595,-0.11688 -0.35632,4.5e-4 -0.74376,0.41034 -0.74376,0.78681 0,0.22161 0.19105,0.55236 0.38867,0.67287 0.22668,0.13823 0.62573,0.14806 0.80868,0.0199 z m 1.8182,-0.0284 c 0.21451,-0.13077 0.37488,-0.43389 0.37451,-0.70785 -4.5e-4,-0.37133 -0.38867,-0.74357 -0.77539,-0.74357 -0.17438,0 -0.17558,0.002 -0.11497,0.22946 0.09509,0.35627 0.01348,0.63654 -0.2563,0.88028 -0.21564,0.19482 -0.2269,0.21996 -0.1345,0.3003 0.22706,0.19742 0.62122,0.21541 0.90666,0.0414 z M 21.95832,12.3026 c 0.18852,-0.18061 0.31445,-0.51131 0.25991,-0.68252 -0.01778,-0.0558 -0.05935,-0.17405 -0.0924,-0.2628 l -0.06009,-0.16136 -0.20918,0.12342 c -0.25167,0.14849 -0.74279,0.12716 -0.92783,-0.0403 -0.11308,-0.10233 -0.12022,-0.0983 -0.21128,0.11965 -0.12141,0.29056 -0.11885,0.43934 0.0117,0.68206 0.25173,0.46799 0.85803,0.57743 1.2292,0.22185 z m 1.3843,-0.77596 c 0.22104,-0.35765 0.13103,-0.8707 -0.18962,-1.0808 -0.3598,-0.23574 -0.83464,-0.17624 -0.83464,0.1046 0,0.0851 -0.04087,0.2526 -0.09081,0.37214 -0.04995,0.11954 -0.09064,0.22082 -0.09044,0.22508 2.06e-4,0.004 0.12231,0.0111 0.27135,0.0152 0.31314,0.009 0.54518,0.14052 0.6876,0.39086 0.05508,0.0968 0.10474,0.17622 0.11035,0.17643 0.0056,1.8e-4 0.06691,-0.0914 0.13622,-0.20352 z m -3.3036,-0.1868 c 0.10711,-0.0817 0.30608,-0.16634 0.44214,-0.18811 l 0.2474,-0.0396 -0.08864,-0.17769 c -0.0566,-0.11347 -0.08111,-0.30259 -0.0678,-0.52326 l 0.02084,-0.34555 -0.20394,-0.0195 c -0.46438,-0.0444 -0.85553,0.30243 -0.85553,0.75863 0,0.24163 0.18194,0.68359 0.28141,0.68359 0.01615,0 0.11701,-0.0668 0.22412,-0.14854 z m 1.8309,-0.12156 c 0.3801,-0.24905 0.46635,-0.777 0.18682,-1.1435 -0.28514,-0.37384 -0.76575,-0.42765 -1.1244,-0.1259 -0.34228,0.28801 -0.39026,0.73801 -0.11589,1.0868 0.25513,0.32435 0.71532,0.4041 1.0534,0.18256 z m 1.5978,-1.3254 C 23.46727,9.75506 23.4414,9.60214 23.41037,9.55307 c -0.04809,-0.076 -0.07701,-0.0705 -0.19583,0.0378 -0.32326,0.29464 -0.72566,0.34833 -1.0641,0.14197 -0.10902,-0.0665 -0.21118,-0.12086 -0.22703,-0.12086 -0.07968,0 -0.0093,0.15754 0.15282,0.34222 0.09989,0.11378 0.18162,0.23119 0.18162,0.26092 0,0.0297 0.14515,0.0391 0.32255,0.0208 0.23088,-0.0238 0.37283,-0.006 0.49946,0.0623 0.16674,0.0901 0.183,0.0884 0.28286,-0.0296 0.06417,-0.0758 0.10558,-0.22397 0.10502,-0.37574 z m -3.1818,0.0726 c 0.275,-0.006 0.28201,-0.0103 0.24715,-0.16905 C 20.51333,9.70653 20.52357,9.56355 20.55592,9.47859 20.61268,9.32931 20.6055,9.32307 20.34276,9.29346 20.17232,9.27426 20.01428,9.20966 19.91923,9.12036 L 19.7676,8.97791 19.65191,9.12848 c -0.14223,0.18513 -0.15488,0.60061 -0.02587,0.85009 0.08821,0.17058 0.09912,0.17456 0.23468,0.0857 0.07819,-0.0512 0.26953,-0.0957 0.4252,-0.0988 z m 1.1586,-0.26264 c 0.35648,0 0.38954,-0.0109 0.38954,-0.12829 0,-0.0998 -0.04723,-0.13596 -0.21247,-0.16278 -0.11686,-0.0189 -0.29112,-0.0905 -0.38725,-0.15893 -0.15841,-0.1128 -0.1904,-0.11635 -0.34151,-0.0379 -0.0917,0.0476 -0.18945,0.12234 -0.21723,0.16615 -0.05991,0.0945 -0.06816,0.42208 -0.01418,0.56277 0.03265,0.0851 0.06395,0.0748 0.21587,-0.0707 0.15716,-0.15056 0.22268,-0.17023 0.56722,-0.17023 z m 1.4408,0.007 C 23.13388,9.60598 23.3326,9.35968 23.38252,9.09358 23.45227,8.72179 23.13618,8.28233 22.72958,8.18579 22.56902,8.14769 22.5668,8.15099 22.62279,8.3462 22.73167,8.72586 22.50967,9.14893 22.08747,9.3664 21.96806,9.4279 21.9591,9.4527 22.0269,9.53441 c 0.09303,0.1121 0.39586,0.25317 0.55075,0.25657 0.05934,0.001 0.19779,-0.0352 0.30767,-0.0811 z M 22.13678,9.24563 C 22.35194,9.1352 22.51505,8.88389 22.5452,8.61631 22.61136,8.02936 22.07144,7.60371 21.5105,7.80064 21.31427,7.86954 21.26356,7.9153 21.28001,8.0087 c 0.07888,0.44785 0.07356,0.63822 -0.02356,0.84289 -0.10032,0.21142 -0.09994,0.22384 0.0095,0.30787 0.24384,0.18722 0.6044,0.2229 0.87081,0.0862 z m -1.2652,-0.1342 c 0.2726,-0.18157 0.44231,-0.52961 0.39117,-0.80222 -0.15627,-0.83298 -1.3323,-0.88969 -1.5517,-0.0748 -0.18505,0.68722 0.57882,1.2645 1.1605,0.87704 z m 2.1613,-1.2721 C 23.05572,7.49093 22.92606,7.2257 22.6676,7.09204 c -0.2492,-0.12886 -0.60564,-0.12786 -0.80424,0.002 -0.14522,0.0952 -0.39186,0.43125 -0.39237,0.5347 -1.27e-4,0.025 0.12372,0.0454 0.27521,0.0454 0.30228,0 0.58052,0.11697 0.70667,0.29708 0.07236,0.1033 0.33525,0.1861 0.50114,0.15783 0.03329,-0.006 0.06879,-0.13617 0.07887,-0.28999 z m -1.7794,-0.035 C 21.27107,7.77583 21.21898,7.69014 21.13773,7.61381 20.94614,7.43382 20.84331,7.11499 20.89242,6.8532 c 0.04425,-0.23588 0.0092,-0.24999 -0.30007,-0.12077 -0.24364,0.10179 -0.45287,0.4109 -0.45325,0.66958 -2.54e-4,0.17911 0.0037,0.18136 0.28734,0.16194 0.22945,-0.0157 0.33045,0.0108 0.4995,0.13103 0.23748,0.16892 0.28161,0.18366 0.32754,0.10935 z M 21.63692,7.17639 C 21.82232,6.9809 22.137,6.86483 22.38349,6.901 22.59221,6.9317 22.60442,6.8693 22.44192,6.60279 22.20883,6.2205 21.7136,6.11072 21.34442,6.3595 c -0.27881,0.1879 -0.36789,0.37915 -0.33885,0.72751 0.0181,0.21708 0.06824,0.33635 0.19856,0.47238 l 0.17435,0.18198 0.05092,-0.19995 c 0.02801,-0.10997 0.12138,-0.27423 0.2075,-0.36503 z"
       id="path12" />
    <path
       style="clip-rule:evenodd;fill:#4d4d4d;fill-rule:evenodd;stroke-width:0.081201"
       inkscape:connector-curvature="0"
       d="m 19.481,5.83 c 0.32481,0.0568 0.25172,0.203 0.45473,0.30045 0.14616,0.0731 0.06496,-0.19489 0.22736,-0.0731 0.02436,0.0325 0.39789,0.93382 0.37353,0.97442 0.37353,0.60901 0.81201,1.283 1.2018,1.8839 0.02436,-0.0244 0.04872,-0.0487 0.07308,-0.0731 0.76329,-0.51969 1.0719,-1.1693 1.6565,-1.957 0.07308,-0.0244 0.15428,-0.0487 0.22736,-0.0731 C 23.9552,6.51202 23.9146,6.0979 24.29625,5.91113 V 6.1385 c -0.203,0.2842 -0.2842,0.59276 -0.52781,0.82825 0.06496,0.17864 0.0812,0.1218 0.15428,0.30044 -0.29232,0.21113 -1.624,1.9488 -1.7296,2.4848 H 22.2662 C 22.39612,9.51651 22.54228,9.1917 22.79401,9.07802 V 9.2323 c -0.21112,0.21925 -0.39789,0.52781 -0.45473,0.90134 0.203,0.23548 0.203,0.63337 0.37352,0.90133 0.36541,0.59277 1.1043,0.95818 1.2018,1.8027 h -0.15428 v -0.15428 c -0.34104,-0.3654 -0.48721,-0.90945 -0.90133,-1.2018 v 0.0731 c 0.1218,0.11368 0.17052,0.19488 0.22736,0.37353 h -0.15428 v -0.0731 c -0.34105,-0.27609 -0.21112,-0.64961 -0.45473,-1.0556 -0.0812,-0.13804 -0.34105,-0.21924 -0.45473,-0.37352 h -0.07308 c -0.1218,0.49532 -1.5022,2.3224 -1.9407,2.4685 v -0.15428 c 0.44661,-0.30044 1.8108,-2.0138 1.8758,-2.6309 h -0.07308 v 0.15428 c -0.38165,0.16241 -0.45473,0.58465 -0.67397,0.90133 -0.44661,0.62526 -1.7864,2.4848 -2.4036,2.7852 v -0.15428 c 0.42225,-0.40601 0.73893,-0.99878 1.2018,-1.3561 -0.06496,-0.11368 -0.21112,-0.0568 -0.07308,-0.15428 0.53593,-0.66586 1.3723,-1.5266 1.8027,-2.5578 h -0.07308 c -0.77141,1.2424 -1.8758,2.2736 -2.5578,3.6053 h -0.15428 v -0.15428 c 0.22736,-0.21924 1.2018,-1.4779 1.2749,-1.7296 0.02436,-0.0812 -0.14616,-0.13804 -0.07308,-0.30044 0.27608,-0.58465 1.1612,-1.015 1.4291,-1.6322 C 21.33252,9.33781 21.38124,9.03736 21.21072,8.84248 20.82907,8.39587 20.30126,8.19287 20.08202,7.56758 h 0.15428 c 0.21924,0.38164 0.53593,0.81201 0.90134,1.0556 V 8.32273 C 20.39871,7.868 20.65043,6.88543 19.40804,6.89363 V 6.73934 c 0.33292,-0.065 0.27608,-0.17864 0.52781,-0.30044 0.07308,0.1218 0.15428,0.25172 0.22736,0.37353 h 0.07308 V 6.65814 C 19.96833,6.4795 19.65164,6.09786 19.48112,5.82989 Z"
       id="path22" />
  </g>
</svg>
