<?xml version="1.0" encoding="UTF-8" standalone="no"?>
<svg
   height="100"
   width="100"
   inkscape:version="1.1 (1:1.1+202105261517+ce6663b3b7)"
   sodipodi:docname="rum.svg"
   id="svg106"
   xml:space="preserve"
   viewBox="0 0 100 100"
   version="1.1"
   fill="#000000"
   xmlns:inkscape="http://www.inkscape.org/namespaces/inkscape"
   xmlns:sodipodi="http://sodipodi.sourceforge.net/DTD/sodipodi-0.dtd"
   xmlns="http://www.w3.org/2000/svg"
   xmlns:svg="http://www.w3.org/2000/svg"
   xmlns:rdf="http://www.w3.org/1999/02/22-rdf-syntax-ns#"
   xmlns:cc="http://creativecommons.org/ns#"
   xmlns:dc="http://purl.org/dc/elements/1.1/"><defs
   id="defs110" /><sodipodi:namedview
   inkscape:document-rotation="0"
   inkscape:current-layer="svg106"
   inkscape:window-maximized="1"
   inkscape:window-y="27"
   inkscape:window-x="0"
   inkscape:cy="81.330509"
   inkscape:cx="31.144068"
   inkscape:zoom="2.8095238"
   showgrid="false"
   id="namedview108"
   inkscape:window-height="1016"
   inkscape:window-width="1920"
   inkscape:pageshadow="2"
   inkscape:pageopacity="0"
   guidetolerance="10"
   gridtolerance="10"
   objecttolerance="10"
   borderopacity="1"
   bordercolor="#666666"
   pagecolor="#ffffff"
   inkscape:pagecheckerboard="0" /><metadata
   id="metadata2"><rdf:RDF><cc:Work
       rdf:about=""><dc:format>image/svg+xml</dc:format><dc:type
         rdf:resource="http://purl.org/dc/dcmitype/StillImage" /></cc:Work></rdf:RDF></metadata><rect
   y="0.67195964"
   x="0.46855918"
   height="103.86196"
   width="100.71128"
   id="rect4491"
   style="opacity:0.574;fill:#cccccc;fill-opacity:1;stroke:none;stroke-width:2.42829;stroke-linejoin:round;stroke-miterlimit:4;stroke-dasharray:none;stroke-dashoffset:0;stroke-opacity:1" /><g
   id="g12"
   transform="translate(8.4366,31.378)"><path
     id="path4"
     d="m 5273.1,2400.1 v -2 c 0,-2.8 -5,-4 -9.7,-4 -4.7,0 -9.7,1.3 -9.7,4 v 2 c 0,1.8 0.7,3.6 2,4.9 l 5,4.9 c 0.3,0.3 0.4,0.6 0.4,1 v 6.4 c 0,0.4 0.2,0.7 0.6,0.8 l 2.9,0.9 c 0.5,0.1 1,-0.2 1,-0.8 v -7.2 c 0,-0.4 0.2,-0.7 0.4,-1 l 5.1,-5 c 1.3,-1.3 2,-3.1 2,-4.9 z m -9.7,-0.1 c -4.8,0 -7.4,-1.3 -7.5,-1.8 0.1,-0.5 2.7,-1.8 7.5,-1.8 4.8,0 7.3,1.3 7.5,1.8 -0.2,0.5 -2.7,1.8 -7.5,1.8 z" /><path
     id="path6"
     d="m 5268.4,2410.3 c -0.6,0 -1,0.4 -1,1 0,0.6 0.4,1 1,1 h 4.3 c 0.6,0 1,-0.4 1,-1 0,-0.6 -0.4,-1 -1,-1 z" /><path
     id="path8"
     d="m 5272.7,2413.7 h -4.3 c -0.6,0 -1,0.4 -1,1 0,0.6 0.4,1 1,1 h 4.3 c 0.6,0 1,-0.4 1,-1 0,-0.6 -0.4,-1 -1,-1 z" /><path
     id="path10"
     d="m 5272.7,2417 h -4.3 c -0.6,0 -1,0.4 -1,1 0,0.6 0.4,1 1,1 h 4.3 c 0.6,0 1,-0.4 1,-1 0,-0.5 -0.4,-1 -1,-1 z" /></g><g
   id="g28"
   transform="matrix(0.3735493,0,0,0.3735493,-2.6650467,43.344845)"
   style="fill:#0a425a"><path
     id="path14"
     d="m 154.9,59.4 c -3.4,-11.4 -13.8,-19.5 -25.6,-20 5.8,-6.5 9.1,-14.8 9.1,-23.5 v -3.4 l -8.6,4.9 c -3,1.7 -6.2,3 -9.5,4 -3,0.9 -6.1,1.4 -9.3,1.7 -1.5,-1.4 -3.2,-2.6 -4.8,-3.8 -7.7,-5.3 -16.7,-8 -26,-8 -9.4,0 -18.4,2.8 -26,8 -1.6,1.1 -3.2,2.4 -4.8,3.8 -3.2,-0.3 -6.3,-0.8 -9.3,-1.7 -3.3,-1 -6.5,-2.3 -9.5,-4 L 22,12.6 V 16 c 0,8.7 3.2,17 9,23.5 C 25.4,39.7 20,41.7 15.5,45 10.6,48.6 7.1,53.7 5.4,59.5 L 5,60.9 17.5,69.8 C 24.7,74.9 34,77 43,75.3 l 8.9,33.4 c 0,0.1 -0.1,0.1 -0.1,0.2 -1.6,3.8 -2.4,7.9 -2.4,12.1 v 0.1 c 0,5.8 3.9,10.8 9.2,12.5 3.2,8.9 11.5,15.2 21.4,15.2 9.8,0 18.2,-6.4 21.4,-15.2 5.3,-1.8 9.2,-6.7 9.2,-12.5 V 121 c 0,-4.2 -0.8,-8.3 -2.4,-12.1 0,-0.1 0,-0.1 -0.1,-0.2 L 117,75.3 c 2.1,0.4 4.2,0.6 6.3,0.6 6.9,0 13.8,-2.1 19.5,-6.2 l 12.5,-8.9 z M 80,15.2 c 7.9,0 15.6,2.2 22.3,6.4 -3.9,6.6 -12.6,11 -22.3,11 -9.7,0 -18.4,-4.3 -22.3,-11 6.7,-4.2 14.4,-6.4 22.3,-6.4 z m 0,129.6 c -7.3,0 -13.6,-4.3 -16.7,-10.5 h 33.4 c -3.1,6.2 -9.4,10.5 -16.7,10.5 z M 106.6,121 c 0,5.1 -4.3,9.2 -9.5,9.2 H 62.9 c -5.2,0 -9.5,-4.1 -9.5,-9.2 v -0.1 c 0,-3.7 0.7,-7.2 2.1,-10.6 1.3,-3.2 3.3,-6.1 5.7,-8.6 2.5,-2.5 5.3,-4.4 8.5,-5.8 3.3,-1.4 6.7,-2.1 10.3,-2.1 3.6,0 7.1,0.7 10.3,2.1 3.2,1.4 6,3.3 8.4,5.8 2.4,2.5 4.4,5.4 5.7,8.6 1.4,3.4 2.1,6.9 2.1,10.6 v 0.1 z m 33.9,-54.6 c -6.5,4.6 -14.6,6.4 -22.5,5 l 0.8,-2.9 -3.9,-1 -9.6,36 c -1.1,-1.6 -2.3,-3.1 -3.7,-4.6 C 98.8,96 95.5,93.8 91.9,92.2 88.1,90.6 84.1,89.7 80,89.7 c -4.1,0 -8.1,0.8 -11.9,2.5 -3.6,1.6 -6.9,3.8 -9.7,6.7 -1.4,1.4 -2.6,2.9 -3.7,4.6 l -9.6,-36 -3.9,1 0.8,2.9 C 34.2,72.8 26.1,71 19.5,66.4 L 9.4,59.2 C 11,54.8 13.8,51 17.6,48.1 21.8,45 26.8,43.3 32,43.3 h 9.1 L 36.9,39.8 C 30.6,34.5 26.7,27.3 25.8,19.4 l 2.5,1.4 c 3.3,1.8 6.8,3.3 10.4,4.4 3.6,1 7.3,1.7 11.1,1.9 h 0.8 l 0.6,-0.6 c 1,-1 2.1,-1.8 3.2,-2.6 4.7,7.7 14.6,12.7 25.6,12.7 11,0 20.9,-5 25.6,-12.7 1.1,0.8 2.1,1.7 3.2,2.6 l 0.6,0.6 h 0.8 c 3.8,-0.2 7.5,-0.9 11.1,-1.9 3.6,-1.1 7.1,-2.5 10.4,-4.4 l 2.5,-1.4 c -0.9,7.8 -4.8,15.1 -11,20.4 l -4.2,3.5 h 9.1 c 10.1,0 19.2,6.4 22.6,15.8 z" /><path
     id="path16"
     d="m 121.4,54.8 -2.5,0.9 1.3,3.8 2.5,-0.9 c 5.6,-2 11.7,-2.2 17.5,-0.7 l 1.9,0.5 1,-3.9 -1.9,-0.5 c -6.6,-1.7 -13.4,-1.5 -19.8,0.8 z" /><path
     id="path18"
     d="m 18.3,53.9 -1.9,0.5 1,3.9 1.9,-0.5 c 5.8,-1.5 11.9,-1.2 17.5,0.7 l 2.5,0.9 1.3,-3.8 -2.5,-0.9 C 31.8,52.5 24.9,52.3 18.3,53.9 Z" /><path
     id="path20"
     d="m 68,104.1 c -3.8,0 -6.8,3.8 -6.8,8.6 0,4.8 3,8.6 6.8,8.6 3.8,0 6.8,-3.8 6.8,-8.6 0,-4.8 -3,-8.6 -6.8,-8.6 z m 0,13.2 c -1.3,0 -2.8,-1.9 -2.8,-4.6 0,-2.7 1.5,-4.6 2.8,-4.6 1.3,0 2.8,1.9 2.8,4.6 0,2.7 -1.5,4.6 -2.8,4.6 z" /><path
     id="path22"
     d="m 92,104.1 c -3.8,0 -6.8,3.8 -6.8,8.6 0,4.8 3,8.6 6.8,8.6 3.8,0 6.8,-3.8 6.8,-8.6 0,-4.8 -3.1,-8.6 -6.8,-8.6 z m 0,13.2 c -1.3,0 -2.8,-1.9 -2.8,-4.6 0,-2.7 1.5,-4.6 2.8,-4.6 1.3,0 2.8,1.9 2.8,4.6 0,2.7 -1.5,4.6 -2.8,4.6 z" /><circle
     id="circle24"
     r="4.6999998"
     cy="59"
     cx="54.5" /><circle
     id="circle26"
     r="4.6999998"
     cy="59"
     cx="105.5" /></g><g
   id="g38"
   stroke="#0a425a"
   transform="matrix(2.0991099,0,0,2.0991099,56.070179,-530.96662)"
   style="fill:#0a425a"><path
     id="path30"
     style="font-variant-ligatures:normal;font-variant-position:normal;font-variant-caps:normal;font-variant-numeric:normal;font-variant-alternates:normal;font-feature-settings:normal;text-indent:0;text-decoration:none;text-decoration-line:none;text-decoration-style:solid;text-decoration-color:#000000;text-transform:none;text-orientation:mixed;white-space:normal;shape-padding:0;isolation:auto;mix-blend-mode:normal"
     stroke-width="0.17"
     solid-color="#000000"
     shape-rendering="auto"
     image-rendering="auto"
     dominant-baseline="auto"
     color-rendering="auto"
     color="#000000"
     d="m 11.309,272.55 c -1.0757,0 -2.077,0.54276 -2.6855,1.431 -0.05417,-0.006 -0.10811,-0.0113 -0.16369,-0.0113 -0.78316,0 -1.5364,0.52737 -2.1193,1.0751 -0.58293,0.54774 -0.99562,1.1222 -1.0818,1.2461 l -3.4e-4,6.6e-4 -6.63e-4,6.6e-4 c -1.5635,2.3405 -2.2093,4.1088 -2.2093,6.0702 0,0.12193 0.052397,0.23488 0.13912,0.31577 l 6.63e-4,3.3e-4 3.399e-4,3.4e-4 c 0.089968,0.0814 0.21064,0.11941 0.32937,0.10658 1.2356,-0.12821 2.3077,-1.0156 3.0719,-1.9766 -3.911e-4,0.0193 -9.351e-4,0.0385 -0.00133,0.0577 -0.054399,2.6629 -0.12338,5.4393 1.4005,6.9939 h 3.4e-4 c 0.77773,0.79235 1.8713,1.1767 3.3196001,1.1767 1.4477,0 2.5422,-0.3844 3.32,-1.1754 1.5223,-1.5557 1.4542,-4.3292 1.3998,-6.9925 v -6.6e-4 c -3.4e-4,-0.0203 -6.8e-4,-0.0397 -0.001,-0.0597 0.7636,0.96124 1.8362,1.8503 3.0713,1.9776 0.12187,0.0151 0.24214,-0.0251 0.33037,-0.10658 l 3.39e-4,-3.4e-4 c 0.08631,-0.0805 0.13979,-0.19293 0.13979,-0.31575 0,-1.9633 -0.64507,-3.7316 -2.2126,-6.0781 l -6.79e-4,-9.4e-4 -3.4e-4,-6.7e-4 c -0.08426,-0.1201 -0.49677,-0.69351 -1.0794,-1.2404 -0.58266,-0.54696 -1.3362,-1.0744 -2.119,-1.0744 -0.05367,0 -0.10788,0.006 -0.16303,0.0113 -0.60851,-0.88621 -1.6097,-1.4304 -2.6855,-1.4304 z m 0,0.17 c 1.036,0 2.0045,0.52884 2.5785,1.3948 l 0.02889,0.0432 0.05179,-0.006 c 0.06914,-0.008 0.13016,-0.013 0.18926,-0.013 0.70499,0 1.4339,0.49456 2.0025,1.0283 0.56751,0.53273 0.97414,1.0966 1.0555,1.2126 1.5577,2.3318 2.1841,4.0576 2.1841,5.9838 0,0.0742 -0.03042,0.13954 -0.08533,0.19091 -8.2e-5,8e-5 -1.7e-4,-7e-5 -3.4e-4,0 -0.05291,0.0487 -0.12245,0.0725 -0.19457,0.0634 l -10e-4,-3.4e-4 h -0.001 c -1.2408,-0.12738 -2.3599,-1.0864 -3.1108,-2.0948 l -0.15672,-0.2105 0.0037,0.26264 c 0.0013,0.10007 0.004,0.19733 0.0053,0.2965 v 6.8e-4 c 0.0544,2.6633 0.09781,5.3893 -1.351,6.8704 -6.1e-5,7e-5 -3.41e-4,-6e-5 -3.41e-4,0 -6.1e-5,7e-5 6.1e-5,2.7e-4 0,3.4e-4 -0.74134,0.75375 -1.7808,1.1242 -3.1984,1.1242 -1.4185,0 -2.4571,-0.3706 -3.1984,-1.1259 -1.4504,-1.4796 -1.4064,-4.2085 -1.352,-6.8713 0.00204,-0.0986 0.00394,-0.19624 0.00597,-0.29485 0.013478,-0.29677 0.018561,-0.28294 -0.15307,-0.0528 -0.7516,1.0084 -1.8698,1.9654 -3.1114,2.0941 h -3.4e-4 c -0.070058,0.008 -0.14344,-0.0156 -0.19623,-0.0631 -0.054499,-0.051 -0.084999,-0.11716 -0.084999,-0.19092 0,-1.9238 0.6269,-3.6493 2.1798,-5.9742 l 0.00101,-9.5e-4 c 0.081975,-0.1179 0.48986,-0.68418 1.0578,-1.2179 0.56882,-0.53449 1.2975,-1.0293 2.0028,-1.0293 0.065313,0 0.12642,0.004 0.18793,0.013 l 0.053125,0.008 0.029882,-0.0451 c 0.57403,-0.868 1.5422,-1.3952 2.5782,-1.3952 z" /><path
     id="path32"
     stroke-width="0.18072"
     d="m 9.5023,280.43 c -0.19951,0 -0.36143,-0.1612 -0.36143,-0.36143 v -1.4457 c 0,-0.19878 0.16192,-0.36143 0.36143,-0.36143 0.19879,0 0.36143,0.16265 0.36143,0.36143 v 1.4457 c 0,0.20023 -0.16264,0.36143 -0.36143,0.36143 z" /><path
     id="path34"
     stroke-width="0.18072"
     d="m 13.117,280.43 c -0.19879,0 -0.36143,-0.1612 -0.36143,-0.36143 v -1.4457 c 0,-0.19878 0.16264,-0.36143 0.36143,-0.36143 0.19879,0 0.36143,0.16265 0.36143,0.36143 v 1.4457 c 0,0.20023 -0.16264,0.36143 -0.36143,0.36143 z" /><path
     id="path36"
     stroke-width="0.18072"
     d="m 11.309,287.96 c -0.09253,0 -0.18505,-0.0354 -0.25589,-0.10554 l -1.5137,-1.5122 c -0.14168,-0.13952 -0.14168,-0.36939 -7.228e-4,-0.51107 0.14096,-0.14096 0.32358,0.048 0.4638198,0.18899 l 1.3301,1.3272 1.2356,-1.2327 c 0.13951,-0.14096 0.37011,-0.42444 0.51107,-0.28348 0.14096,0.14096 0.14096,0.37011 -7.22e-4,0.51107 l -1.5151,1.5122 c -0.0694,0.0701 -0.16192,0.10554 -0.25445,0.10554 z" /></g><g
   id="g48"
   transform="matrix(0.30775387,0,0,0.30775387,23.661213,-0.92753735)"
   style="fill:#0a425a"><g
     id="g46"
     fill="#0a425a"><path
       id="path40"
       d="m 126.68,55.16 c -0.268,-0.398 -6.676,-9.749 -14.951,-9.749 -4.107,0 -7.984,1.14 -10.807,3.118 -0.693,-1.765 -1.551,-3.427 -2.525,-5 0.16,-0.359 0.293,-0.734 0.371,-1.137 2.754,-13.979 12.049,-31.574 12.143,-31.75 0.307,-0.579 0.203,-1.291 -0.258,-1.758 -0.461,-0.467 -1.17,-0.579 -1.754,-0.28 -0.953,0.492 -18.922,9.905 -24.258,22.927 -3.898,-1.729 -8.189,-2.692 -12.678,-2.692 -4.488,0 -8.78,0.963 -12.679,2.692 C 53.948,18.51 35.981,9.097 35.026,8.604 34.441,8.305 33.733,8.417 33.272,8.884 c -0.461,0.467 -0.564,1.179 -0.257,1.758 0.093,0.176 9.389,17.771 12.142,31.75 0.079,0.402 0.212,0.777 0.371,1.137 -0.974,1.573 -1.832,3.235 -2.525,5 -2.822,-1.979 -6.698,-3.118 -10.807,-3.118 -8.274,0 -14.683,9.351 -14.951,9.749 -0.343,0.507 -0.343,1.171 0,1.678 0.269,0.398 6.677,9.749 14.951,9.749 3.28,0 6.379,-0.705 8.954,-2.014 l 3.471,25.98 c 0.04,10.755 6.555,20.229 14.064,25.797 1.115,7.173 10.052,18.071 12.133,20.526 0.283,0.334 0.697,0.527 1.135,0.53 h 0.01 c 0.434,0 0.846,-0.188 1.131,-0.516 2.18,-2.508 11.484,-13.582 12.336,-20.685 7.43,-5.585 13.834,-14.989 13.875,-25.653 l 3.471,-25.98 c 2.574,1.309 5.674,2.014 8.953,2.014 8.275,0 14.684,-9.351 14.951,-9.749 0.344,-0.506 0.344,-1.17 0,-1.677 z M 105.975,13.795 c -2.867,5.963 -7.656,16.769 -9.832,26.532 -2.447,-3.023 -5.436,-5.543 -8.799,-7.447 3.34,-8.408 12.965,-15.495 18.631,-19.085 z M 37.948,13.791 c 5.668,3.587 15.299,10.673 18.636,19.087 -3.364,1.904 -6.353,4.424 -8.801,7.449 -2.177,-9.766 -6.966,-20.575 -9.835,-26.536 z m 34.029,119.78 c -3.683,-4.542 -7.721,-10.463 -9.507,-14.799 3.048,1.666 6.106,2.646 8.842,2.783 0.198,0.096 0.417,0.154 0.651,0.154 0.234,0 0.453,-0.059 0.651,-0.154 2.822,-0.141 5.99,-1.178 9.135,-2.94 -1.746,4.306 -5.985,10.394 -9.772,14.956 z m 39.752,-69.986 c -3.531,0 -6.904,-0.983 -9.252,-2.699 -0.426,-0.313 -0.986,-0.375 -1.473,-0.169 -0.486,0.208 -0.828,0.657 -0.898,1.182 l -3.787,28.354 c -0.01,0.065 -0.014,0.132 -0.014,0.198 0,14.469 -13.443,26.786 -22.842,28.021 v -14.504 h 3.234 c 0.828,0 1.5,-0.672 1.5,-1.5 0,-0.828 -0.672,-1.5 -1.5,-1.5 h -9.469 c -0.828,0 -1.5,0.672 -1.5,1.5 0,0.828 0.672,1.5 1.5,1.5 h 3.234 v 14.504 C 61.064,117.237 47.62,104.919 47.62,90.451 c 0,-0.066 -0.005,-0.133 -0.014,-0.198 L 43.819,61.898 c -0.069,-0.524 -0.411,-0.974 -0.897,-1.182 -0.189,-0.08 -0.39,-0.12 -0.589,-0.12 -0.313,0 -0.624,0.098 -0.885,0.289 -2.348,1.716 -5.72,2.699 -9.252,2.699 -5.396,0 -10.178,-5.454 -11.842,-7.588 1.664,-2.134 6.445,-7.588 11.842,-7.588 4.26,0 8.158,1.385 10.428,3.705 0.368,0.377 0.912,0.532 1.421,0.41 0.514,-0.123 0.924,-0.506 1.082,-1.009 3.703,-11.771 14.487,-19.679 26.836,-19.679 12.348,0 23.133,7.908 26.836,19.679 0.158,0.503 0.568,0.886 1.082,1.009 0.51,0.12 1.051,-0.033 1.42,-0.41 2.27,-2.32 6.168,-3.705 10.428,-3.705 5.398,0 10.18,5.457 11.844,7.589 -1.658,2.135 -6.428,7.588 -11.844,7.588 z" /><circle
       id="circle42"
       r="3.9170001"
       cy="70.549004"
       cx="52.244999" /><circle
       id="circle44"
       r="3.9170001"
       cy="70.549004"
       cx="92.171997" /></g></g>

</svg>
