<?xml version="1.0" encoding="UTF-8" standalone="no"?>
<svg
   xmlns:dc="http://purl.org/dc/elements/1.1/"
   xmlns:cc="http://creativecommons.org/ns#"
   xmlns:rdf="http://www.w3.org/1999/02/22-rdf-syntax-ns#"
   xmlns:svg="http://www.w3.org/2000/svg"
   xmlns="http://www.w3.org/2000/svg"
   xmlns:sodipodi="http://sodipodi.sourceforge.net/DTD/sodipodi-0.dtd"
   xmlns:inkscape="http://www.inkscape.org/namespaces/inkscape"
   height="100px"
   width="100px"
   fill="#000000"
   data-name="Layer 1"
   viewBox="0 0 100 100"
   x="0px"
   y="0px"
   version="1.1"
   id="svg16"
   sodipodi:docname="saisie.svg"
   inkscape:version="0.92.4 (5da689c313, 2019-01-14)">
  <metadata
     id="metadata22">
    <rdf:RDF>
      <cc:Work
         rdf:about="">
        <dc:format>image/svg+xml</dc:format>
        <dc:type
           rdf:resource="http://purl.org/dc/dcmitype/StillImage" />
        <dc:title>Untitled-2-24</dc:title>
      </cc:Work>
    </rdf:RDF>
  </metadata>
  <defs
     id="defs20" />
  <sodipodi:namedview
     pagecolor="#ffffff"
     bordercolor="#666666"
     borderopacity="1"
     objecttolerance="10"
     gridtolerance="10"
     guidetolerance="10"
     inkscape:pageopacity="0"
     inkscape:pageshadow="2"
     inkscape:window-width="1920"
     inkscape:window-height="1016"
     id="namedview18"
     showgrid="false"
     inkscape:zoom="2.36"
     inkscape:cx="-48.940678"
     inkscape:cy="48.305085"
     inkscape:window-x="0"
     inkscape:window-y="27"
     inkscape:window-maximized="1"
     inkscape:current-layer="svg16" />
  <title
     id="title2">Untitled-2-24</title>
  <g
     data-name="Group"
     id="g14"
     style="fill:#0a425a;fill-opacity:1"
     transform="translate(0,8)">
    <g
       data-name="Group"
       id="g8"
       style="fill:#0a425a;fill-opacity:1">
      <path
         data-name="Compound Path"
         d="m 60.56,39.79 -8.72,-7.52 a 0.44,0.44 0 0 0 -0.63,0.06 L 36.58,50 a 3.27,3.27 0 0 0 -0.71,1.69 L 35,59.85 a 1.45,1.45 0 0 0 1.84,1.58 l 7.67,-2.27 a 3.19,3.19 0 0 0 1.52,-1 L 60.61,40.44 A 0.47,0.47 0 0 0 60.56,39.79 Z M 52.43,38.72 41.82,51.61 A 0.91,0.91 0 0 1 41.2,51.94 0.86,0.86 0 0 1 40.51,51.72 1,1 0 0 1 40.4,50.39 L 51,37.49 a 0.91,0.91 0 0 1 1.31,-0.11 1,1 0 0 1 0.12,1.34 z"
         id="path4"
         style="fill:#0a425a;fill-opacity:1"
         inkscape:connector-curvature="0" />
      <path
         data-name="Path"
         d="m 64.36,35.9 -1.81,2.19 a 0.44,0.44 0 0 1 -0.63,0 L 53.2,30.63 A 0.47,0.47 0 0 1 53.15,29.98 L 55,27.79 c 3.31,-4.06 12.65,4.13 9.36,8.11 z"
         id="path6"
         style="fill:#0a425a;fill-opacity:1"
         inkscape:connector-curvature="0" />
    </g>
    <path
       data-name="Compound Path"
       d="M 85.11,14.71 H 14.89 A 5.61,5.61 0 0 0 9.34,20.39 V 72 H 90.66 V 20.39 a 5.61,5.61 0 0 0 -5.55,-5.68 z m 0,50.86 a 0.6,0.6 0 0 1 -0.6,0.61 h -69 A 0.61,0.61 0 0 1 14.9,65.57 V 20.8 a 0.6,0.6 0 0 1 0.61,-0.6 h 69 a 0.6,0.6 0 0 1 0.6,0.6 z"
       id="path10"
       style="fill:#0a425a;fill-opacity:1"
       inkscape:connector-curvature="0" />
    <path
       data-name="Path"
       d="m 97,75.49 a 0.23,0.23 0 0 1 0.22,0.26 11.3,11.3 0 0 1 -3.11,6.25 10.79,10.79 0 0 1 -7.76,3.28 H 13.65 A 11.06,11.06 0 0 1 2.79,75.75 0.23,0.23 0 0 1 3,75.49 h 36.06 a 0.21,0.21 0 0 1 0.21,0.22 v 0 a 2.39,2.39 0 0 0 2.36,2.41 h 16.74 a 2.39,2.39 0 0 0 2.36,-2.41 v 0 a 0.21,0.21 0 0 1 0.21,-0.22 z"
       id="path12"
       style="fill:#0a425a;fill-opacity:1"
       inkscape:connector-curvature="0" />
  </g>
</svg>
