<?xml version="1.0" encoding="UTF-8" standalone="no"?>
<svg
   xmlns:dc="http://purl.org/dc/elements/1.1/"
   xmlns:cc="http://creativecommons.org/ns#"
   xmlns:rdf="http://www.w3.org/1999/02/22-rdf-syntax-ns#"
   xmlns:svg="http://www.w3.org/2000/svg"
   xmlns="http://www.w3.org/2000/svg"
   xmlns:sodipodi="http://sodipodi.sourceforge.net/DTD/sodipodi-0.dtd"
   xmlns:inkscape="http://www.inkscape.org/namespaces/inkscape"
   height="100px"
   width="100px"
   fill="#000000"
   data-name="Layer 1"
   viewBox="0 0 100 100"
   x="0px"
   y="0px"
   version="1.1"
   id="svg16"
   sodipodi:docname="saisie_faite_signee.svg"
   inkscape:version="1.0.1 (1.0.1+r74)">
  <metadata
     id="metadata22">
    <rdf:RDF>
      <cc:Work
         rdf:about="">
        <dc:format>image/svg+xml</dc:format>
        <dc:type
           rdf:resource="http://purl.org/dc/dcmitype/StillImage" />
        <dc:title>Untitled-2-24</dc:title>
      </cc:Work>
    </rdf:RDF>
  </metadata>
  <defs
     id="defs20" />
  <sodipodi:namedview
     pagecolor="#ffffff"
     bordercolor="#666666"
     borderopacity="1"
     objecttolerance="10"
     gridtolerance="10"
     guidetolerance="10"
     inkscape:pageopacity="0"
     inkscape:pageshadow="2"
     inkscape:window-width="1920"
     inkscape:window-height="1016"
     id="namedview18"
     showgrid="false"
     inkscape:zoom="2.36"
     inkscape:cx="-143.14448"
     inkscape:cy="46.61017"
     inkscape:window-x="0"
     inkscape:window-y="27"
     inkscape:window-maximized="1"
     inkscape:current-layer="svg16"
     inkscape:document-rotation="0" />
  <title
     id="title2">Untitled-2-24</title>
  <g
     transform="matrix(3.7795275,0,0,3.7795275,495.23054,-742.30124)"
     id="g4"
     style="fill:#999999;fill-opacity:1">
    <path
       style="color:#000000;font-style:normal;font-variant:normal;font-weight:normal;font-stretch:normal;font-size:medium;line-height:normal;font-family:sans-serif;font-variant-ligatures:normal;font-variant-position:normal;font-variant-caps:normal;font-variant-numeric:normal;font-variant-alternates:normal;font-feature-settings:normal;text-indent:0;text-align:start;text-decoration:none;text-decoration-line:none;text-decoration-style:solid;text-decoration-color:#000000;letter-spacing:normal;word-spacing:normal;text-transform:none;writing-mode:lr-tb;direction:ltr;text-orientation:mixed;dominant-baseline:auto;baseline-shift:baseline;text-anchor:start;white-space:normal;shape-padding:0;clip-rule:nonzero;display:inline;overflow:visible;visibility:visible;opacity:1;isolation:auto;mix-blend-mode:normal;color-interpolation:sRGB;color-interpolation-filters:linearRGB;solid-color:#000000;solid-opacity:1;vector-effect:none;fill:#999999;fill-opacity:1;fill-rule:nonzero;stroke:none;stroke-width:0.523652;stroke-linecap:round;stroke-linejoin:round;stroke-miterlimit:4;stroke-dasharray:none;stroke-dashoffset:0;stroke-opacity:1;paint-order:fill markers stroke;color-rendering:auto;image-rendering:auto;shape-rendering:auto;text-rendering:auto;enable-background:accumulate"
       d="m -125.80245,197.36979 c -0.63917,0 -1.16204,0.52266 -1.16204,1.16194 v 22.81149 c 0,0.63912 0.52266,1.16199 1.16204,1.16199 h 16.00421 c 0.63916,0 1.16155,-0.52266 1.16155,-1.16199 v -20.26349 a 0.26185198,0.26185198 0 0 0 0,-2.6e-4 0.26185198,0.26185198 0 0 0 -0.0107,-0.0771 0.26185198,0.26185198 0 0 0 -5e-4,-9.8e-4 0.26185198,0.26185198 0 0 0 -0.005,-0.016 0.26185198,0.26185198 0 0 0 -0.003,-0.005 0.26185198,0.26185198 0 0 0 -0.005,-0.016 0.26185198,0.26185198 0 0 0 -0.004,-0.005 0.26185198,0.26185198 0 0 0 -0.0107,-0.016 0.26185198,0.26185198 0 0 0 -0.003,-0.004 0.26185198,0.26185198 0 0 0 -0.0107,-0.016 0.26185198,0.26185198 0 0 0 -0.005,-0.005 0.26185198,0.26185198 0 0 0 -0.0107,-0.0161 l -3.44773,-3.44838 a 0.26185198,0.26185198 0 0 0 -0.13748,-0.0722 0.26185198,0.26185198 0 0 0 -0.0267,-0.003 0.26185198,0.26185198 0 0 0 -5e-4,0 0.26185198,0.26185198 0 0 0 -0.0214,-9.6e-4 z m 0,0.52373 h 13.19406 v 2.28636 c 0,0.63911 0.52265,1.16198 1.16199,1.16198 h 2.28636 v 20.00136 c 0,0.35789 -0.28032,0.63832 -0.6382,0.63832 h -16.00421 c -0.35789,0 -0.63832,-0.28032 -0.63832,-0.63832 v -22.81149 c 0,-0.3579 0.28033,-0.63821 0.63832,-0.63821 z m 13.71774,0.37072 2.04039,2.04007 0.51408,0.5141 h -1.91622 c -0.35789,0 -0.63831,-0.28032 -0.63831,-0.63832 z m -9.55742,2.7405 a 0.26185198,0.26185198 0 0 0 -0.23538,0.16744 l -0.12893,0.3215 h -2.19076 c -0.42903,0 -0.78254,0.35361 -0.78254,0.78255 v 2.62408 c 0,0.42903 0.35361,0.78253 0.78254,0.78253 h 2.62451 c 0.42903,0 0.78217,-0.35361 0.78217,-0.78253 v -2.62408 c 0,-0.38625 -0.28621,-0.71022 -0.65614,-0.77136 l 0.0551,-0.13803 a 0.26185198,0.26185198 0 0 0 -0.25035,-0.36216 z m 8.16513,0.75771 a 0.26185198,0.26185198 0 0 0 -0.005,2.6e-4 h -5.71384 a 0.26185198,0.26185198 0 1 0 0,0.52319 h 5.71384 a 0.26185198,0.26185198 0 1 0 0.005,-0.52319 z m -10.72052,0.25464 h 1.98074 l -0.7474,1.86332 -0.44615,-0.86552 a 0.26187056,0.26187056 0 1 0 -0.46541,0.2402 l 0.70876,1.37399 a 0.26185198,0.26185198 0 0 0 0.47558,-0.0214 l 1.03878,-2.58924 h 0.0797 c 0.14764,0 0.25891,0.11074 0.25891,0.25891 v 2.62408 c 0,0.14819 -0.11073,0.25892 -0.25891,0.25892 h -2.62452 c -0.14765,0 -0.25891,-0.11073 -0.25891,-0.25892 v -2.62408 c 0,-0.14817 0.11073,-0.25891 0.25891,-0.25891 z m 12.85399,0.79864 a 0.26185198,0.26185198 0 0 0 -0.005,1.1e-4 h -7.84716 a 0.26185198,0.26185198 0 1 0 0,0.52318 h 7.84716 a 0.26185198,0.26185198 0 1 0 0.005,-0.52318 z m -7.85406,1.03263 a 0.26186237,0.26186237 0 1 0 0,0.52372 h 7.84716 a 0.26186237,0.26186237 0 1 0 0,-0.52372 z m 7.85406,1.04178 a 0.26185198,0.26185198 0 0 0 -0.005,1.1e-4 h -7.84716 a 0.26185198,0.26185198 0 1 0 0,0.52318 h 7.84716 a 0.26185198,0.26185198 0 1 0 0.005,-0.52318 z m -12.85399,3.93409 c -0.42904,0 -0.78254,0.3536 -0.78254,0.78253 v 2.62462 c 0,0.42903 0.3536,0.78254 0.78254,0.78254 h 2.6245 c 0.42904,0 0.78217,-0.35361 0.78217,-0.78254 v -2.62462 c 0,-0.42904 -0.35307,-0.78253 -0.78217,-0.78253 z m 4.99993,0.26908 a 0.26190645,0.26190645 0 1 0 0,0.52372 h 5.71385 a 0.26190645,0.26190645 0 1 0 0,-0.52372 z m -4.99993,0.25464 h 2.6245 c 0.14765,0 0.25893,0.11074 0.25893,0.25892 v 2.62462 c 0,0.14818 -0.11074,0.25891 -0.25893,0.25891 h -2.6245 c -0.14765,0 -0.25892,-0.11073 -0.25892,-0.25891 v -2.62462 c 0,-0.14765 0.11073,-0.25892 0.25892,-0.25892 z m 4.99993,0.79886 a 0.26186237,0.26186237 0 1 0 0,0.52372 h 7.84716 a 0.26186237,0.26186237 0 1 0 0,-0.52372 z m 0,1.033 a 0.26186237,0.26186237 0 1 0 0,0.52372 h 7.84716 a 0.26186237,0.26186237 0 1 0 0,-0.52372 z m 0,1.04141 a 0.26186237,0.26186237 0 1 0 0,0.52372 h 7.84716 a 0.26186237,0.26186237 0 1 0 0,-0.52372 z m -4.99993,3.93445 c -0.42904,0 -0.78254,0.35361 -0.78254,0.78254 v 2.62414 c 0,0.42903 0.3536,0.78254 0.78254,0.78254 h 2.6245 c 0.42904,0 0.78217,-0.35361 0.78217,-0.78254 v -2.62414 c 0,-0.42903 -0.35307,-0.78254 -0.78217,-0.78254 z m 4.99993,0.26856 a 0.26186237,0.26186237 0 1 0 0,0.52372 h 5.71385 a 0.26186237,0.26186237 0 1 0 0,-0.52372 z m -4.99993,0.25517 h 2.6245 c 0.14765,0 0.25893,0.11074 0.25893,0.25893 v 2.62413 c 0,0.14818 -0.11074,0.25892 -0.25893,0.25892 h -2.6245 c -0.14765,0 -0.25892,-0.11074 -0.25892,-0.25892 v -2.62413 c 0,-0.14766 0.11073,-0.25893 0.25892,-0.25893 z m 4.99993,0.79821 a 0.26190645,0.26190645 0 1 0 0,0.52372 h 7.84716 a 0.26190645,0.26190645 0 1 0 0,-0.52372 z m 0,1.03306 a 0.26190961,0.26190961 0 1 0 0,0.52373 h 7.84716 a 0.26190961,0.26190961 0 1 0 0,-0.52373 z m 0,1.04146 a 0.26186501,0.26186501 0 1 0 0,0.52373 h 7.84716 a 0.26186501,0.26186501 0 1 0 0,-0.52373 z"
       id="path2" />
  </g>
  <g
     id="g12"
     style="fill:#0a425a;fill-opacity:1"
     transform="matrix(1.8564283,0,0,1.8564283,20.14493,30.527782)">
    <path
       d="M 27.523,6.77 15.851,18.441 c -0.675,0.674 -0.675,1.768 0,2.443 l 0.645,0.645 c 0.674,0.674 1.769,0.674 2.443,0 L 30.612,9.857 Z"
       id="path2-3"
       style="fill:#0a425a;fill-opacity:1"
       inkscape:connector-curvature="0" />
    <path
       d="m 15.342,21.393 c -0.318,-0.318 -0.521,-0.707 -0.614,-1.115 l -0.053,0.145 c -0.108,0.297 -0.287,0.785 -0.396,1.082 l -0.724,1.979 c -0.004,0.01 -0.005,0.02 -0.008,0.027 l 0.876,-0.875 c 0.089,-0.088 0.233,-0.088 0.322,0 0.089,0.09 0.089,0.234 0,0.322 l -0.875,0.877 c 0.01,-0.004 0.018,-0.006 0.028,-0.01 l 1.979,-0.723 c 0.297,-0.109 0.784,-0.287 1.082,-0.396 l 0.145,-0.053 C 16.695,22.559 16.306,22.356 15.988,22.04 Z"
       id="path4"
       style="fill:#0a425a;fill-opacity:1"
       inkscape:connector-curvature="0" />
    <path
       d="M 31.994,6.031 31.349,5.386 C 30.674,4.71 29.58,4.71 28.906,5.386 l -0.865,0.865 3.088,3.088 0.865,-0.865 c 0.674,-0.675 0.674,-1.769 0,-2.443 z"
       id="path6"
       style="fill:#0a425a;fill-opacity:1"
       inkscape:connector-curvature="0" />
    <path
       d="m 30.637,10.645 -5.26,5.26 c -0.211,0.211 -0.211,0.553 0,0.764 0.211,0.211 0.553,0.211 0.764,0 l 5.259,-5.26 c 0.211,-0.211 0.211,-0.553 0,-0.764 -0.211,-0.211 -0.553,-0.211 -0.763,0 z"
       id="path8"
       style="fill:#0a425a;fill-opacity:1"
       inkscape:connector-curvature="0" />
    <path
       d="m 16.117,24.896 h -3.928 c -1.419,0 -2.256,0.295 -2.811,0.49 C 8.733,25.615 8.68,25.632 8.076,25.083 7.891,24.913 7.717,24.685 7.533,24.442 7.081,23.848 6.515,23.102 5.539,23.161 4.144,23.239 4.021,24.69 3.948,25.557 3.936,25.703 3.922,25.866 3.903,26.026 3.808,25.729 3.716,25.405 3.646,25.157 3.532,24.751 3.414,24.333 3.287,23.981 3.023,23.254 2.562,23.155 2.286,23.161 c -0.273,0.006 -0.999,0.021 -1.753,2.412 -0.12,0.379 0.091,0.783 0.47,0.904 0.381,0.119 0.785,-0.092 0.905,-0.471 0.078,-0.248 0.174,-0.506 0.271,-0.738 0.026,0.092 0.053,0.186 0.079,0.279 0.371,1.318 0.664,2.357 1.46,2.547 0.061,0.014 0.137,0.025 0.225,0.025 0.228,0 0.532,-0.08 0.827,-0.404 0.487,-0.533 0.555,-1.332 0.614,-2.035 0.028,-0.336 0.081,-0.963 0.234,-1.08 0.208,-0.008 0.433,0.275 0.767,0.715 0.205,0.27 0.438,0.576 0.72,0.832 1.158,1.055 1.812,0.93 2.752,0.598 0.516,-0.182 1.159,-0.408 2.331,-0.408 h 3.928 c 0.398,0 0.721,-0.324 0.721,-0.721 0.001,-0.397 -0.321,-0.72 -0.72,-0.72 z"
       id="path10"
       style="fill:#0a425a;fill-opacity:1"
       inkscape:connector-curvature="0" />
  </g>
</svg>
