<?xml version="1.0" encoding="UTF-8" standalone="no"?>
<svg
   xmlns:dc="http://purl.org/dc/elements/1.1/"
   xmlns:cc="http://creativecommons.org/ns#"
   xmlns:rdf="http://www.w3.org/1999/02/22-rdf-syntax-ns#"
   xmlns:svg="http://www.w3.org/2000/svg"
   xmlns="http://www.w3.org/2000/svg"
   xmlns:sodipodi="http://sodipodi.sourceforge.net/DTD/sodipodi-0.dtd"
   xmlns:inkscape="http://www.inkscape.org/namespaces/inkscape"
   height="100px"
   width="100px"
   fill="#000000"
   data-name="Layer 1"
   viewBox="0 0 100 100"
   x="0px"
   y="0px"
   version="1.1"
   id="svg16"
   sodipodi:docname="saisie_non_faite.svg"
   inkscape:version="1.0.1 (1.0.1+r74)">
  <metadata
     id="metadata22">
    <rdf:RDF>
      <cc:Work
         rdf:about="">
        <dc:format>image/svg+xml</dc:format>
        <dc:type
           rdf:resource="http://purl.org/dc/dcmitype/StillImage" />
        <dc:title>Untitled-2-24</dc:title>
      </cc:Work>
    </rdf:RDF>
  </metadata>
  <defs
     id="defs20" />
  <sodipodi:namedview
     pagecolor="#ffffff"
     bordercolor="#666666"
     borderopacity="1"
     objecttolerance="10"
     gridtolerance="10"
     guidetolerance="10"
     inkscape:pageopacity="0"
     inkscape:pageshadow="2"
     inkscape:window-width="1920"
     inkscape:window-height="1016"
     id="namedview18"
     showgrid="false"
     inkscape:zoom="6.675088"
     inkscape:cx="8.6052313"
     inkscape:cy="50.089761"
     inkscape:window-x="0"
     inkscape:window-y="27"
     inkscape:window-maximized="1"
     inkscape:current-layer="g4"
     inkscape:document-rotation="0" />
  <title
     id="title2">Untitled-2-24</title>
  <g
     transform="matrix(3.7795275,0,0,3.7795275,495.23054,-741.94321)"
     id="g4"
     style="fill:#aa0000">
    <path
       style="color:#000000;font-style:normal;font-variant:normal;font-weight:normal;font-stretch:normal;font-size:medium;line-height:normal;font-family:sans-serif;font-variant-ligatures:normal;font-variant-position:normal;font-variant-caps:normal;font-variant-numeric:normal;font-variant-alternates:normal;font-feature-settings:normal;text-indent:0;text-align:start;text-decoration:none;text-decoration-line:none;text-decoration-style:solid;text-decoration-color:#000000;letter-spacing:normal;word-spacing:normal;text-transform:none;writing-mode:lr-tb;direction:ltr;text-orientation:mixed;dominant-baseline:auto;baseline-shift:baseline;text-anchor:start;white-space:normal;shape-padding:0;clip-rule:nonzero;display:inline;overflow:visible;visibility:visible;opacity:1;isolation:auto;mix-blend-mode:normal;color-interpolation:sRGB;color-interpolation-filters:linearRGB;solid-color:#000000;solid-opacity:1;vector-effect:none;fill:#aa0000;fill-opacity:1;fill-rule:nonzero;stroke:none;stroke-width:0.523652;stroke-linecap:round;stroke-linejoin:round;stroke-miterlimit:4;stroke-dasharray:none;stroke-dashoffset:0;stroke-opacity:1;paint-order:fill markers stroke;color-rendering:auto;image-rendering:auto;shape-rendering:auto;text-rendering:auto;enable-background:accumulate"
       d="m -125.80245,197.36979 c -0.63917,0 -1.16204,0.52266 -1.16204,1.16194 v 22.81149 c 0,0.63912 0.52266,1.16199 1.16204,1.16199 h 16.00421 c 0.63916,0 1.16155,-0.52266 1.16155,-1.16199 v -20.26349 -2.6e-4 c 2.9e-4,-0.0261 -0.003,-0.0521 -0.0107,-0.0771 -1.7e-4,-3.3e-4 -3.3e-4,-6.5e-4 -5e-4,-9.8e-4 -10e-4,-0.005 -0.003,-0.0107 -0.005,-0.016 -9.8e-4,-0.002 -0.002,-0.003 -0.003,-0.005 -0.002,-0.005 -0.003,-0.0107 -0.005,-0.016 -0.001,-0.002 -0.003,-0.003 -0.004,-0.005 -0.003,-0.005 -0.007,-0.0108 -0.0107,-0.016 -9.9e-4,-0.001 -0.002,-0.003 -0.003,-0.004 -0.003,-0.005 -0.007,-0.0108 -0.0107,-0.016 l -0.005,-0.005 c -0.003,-0.005 -0.007,-0.0109 -0.0107,-0.0161 l -3.44773,-3.44838 c -0.0375,-0.0374 -0.0854,-0.0626 -0.13748,-0.0722 -0.009,-0.001 -0.0178,-0.002 -0.0267,-0.003 h -5e-4 c -0.007,-6.1e-4 -0.0143,-9.3e-4 -0.0214,-9.6e-4 z m 0,0.52373 h 13.19406 v 2.28636 c 0,0.63911 0.52265,1.16198 1.16199,1.16198 h 2.28636 v 20.00136 c 0,0.35789 -0.28032,0.63832 -0.6382,0.63832 h -16.00421 c -0.35789,0 -0.63832,-0.28032 -0.63832,-0.63832 v -22.81149 c 0,-0.3579 0.28033,-0.63821 0.63832,-0.63821 z m 13.71774,0.37072 2.04039,2.04007 0.51408,0.5141 h -1.91622 c -0.35789,0 -0.63831,-0.28032 -0.63831,-0.63832 z m -9.92173,3.22944 h -2.19076 c -0.42903,0 -0.78254,0.35361 -0.78254,0.78255 v 2.62408 c 0,0.42903 0.35361,0.78253 0.78254,0.78253 h 2.62451 c 0.42903,0 0.78217,-0.35361 0.78217,-0.78253 v -2.62408 c 0,-0.38625 -0.28621,-0.71022 -0.65614,-0.77136 l -0.55978,-0.0112 z m 8.52944,0.26877 c -0.002,7e-5 -0.003,1.6e-4 -0.005,2.6e-4 h -5.71384 c -0.3646,-0.0162 -0.3646,0.53935 0,0.52319 h 5.71384 c 0.36407,0.0192 0.36937,-0.53548 0.005,-0.52319 z m -10.72052,0.25464 h 1.98074 l 0.56416,0.001 h 0.0797 c 0.14764,0 0.25891,0.11074 0.25891,0.25891 v 2.62408 c 0,0.14819 -0.11073,0.25892 -0.25891,0.25892 h -2.62452 c -0.14765,0 -0.25891,-0.11073 -0.25891,-0.25892 V 202.277 c 0,-0.14817 0.11073,-0.25891 0.25891,-0.25891 z m 12.85399,0.79864 c -0.002,2e-5 -0.003,6e-5 -0.005,1.1e-4 h -7.84716 c -0.36475,-0.0163 -0.36475,0.53951 0,0.52318 h 7.84716 c 0.36422,0.0194 0.36953,-0.53563 0.005,-0.52318 z m -7.85406,1.03263 c -0.35064,-0.001 -0.35064,0.52521 0,0.52372 h 7.84716 c 0.35064,10e-4 0.35064,-0.52521 0,-0.52372 z m 7.85406,1.04178 c -0.002,2e-5 -0.003,6e-5 -0.005,1.1e-4 h -7.84716 c -0.36475,-0.0163 -0.36475,0.53951 0,0.52318 h 7.84716 c 0.36422,0.0194 0.36953,-0.53563 0.005,-0.52318 z m -12.85399,3.93409 c -0.42904,0 -0.78254,0.3536 -0.78254,0.78253 v 2.62462 c 0,0.42903 0.3536,0.78254 0.78254,0.78254 h 2.6245 c 0.42904,0 0.78217,-0.35361 0.78217,-0.78254 v -2.62462 c 0,-0.42904 -0.35307,-0.78253 -0.78217,-0.78253 z m 4.99993,0.26908 c -0.35579,-0.007 -0.35579,0.53042 0,0.52372 h 5.71385 c 0.35579,0.007 0.35579,-0.53042 0,-0.52372 z m -4.99993,0.25464 h 2.6245 c 0.14765,0 0.25893,0.11074 0.25893,0.25892 v 2.62462 c 0,0.14818 -0.11074,0.25891 -0.25893,0.25891 h -2.6245 c -0.14765,0 -0.25892,-0.11073 -0.25892,-0.25891 v -2.62462 c 0,-0.14765 0.11073,-0.25892 0.25892,-0.25892 z m 4.99993,0.79886 c -0.35064,-10e-4 -0.35064,0.52521 0,0.52372 h 7.84716 c 0.35064,10e-4 0.35064,-0.52521 0,-0.52372 z m 0,1.033 c -0.35064,-0.001 -0.35064,0.52521 0,0.52372 h 7.84716 c 0.35064,0.001 0.35064,-0.52521 0,-0.52372 z m 0,1.04141 c -0.35064,-10e-4 -0.35064,0.52521 0,0.52372 h 7.84716 c 0.35064,10e-4 0.35064,-0.52521 0,-0.52372 z m -4.99993,3.93445 c -0.42904,0 -0.78254,0.35361 -0.78254,0.78254 v 2.62414 c 0,0.42903 0.3536,0.78254 0.78254,0.78254 h 2.6245 c 0.42904,0 0.78217,-0.35361 0.78217,-0.78254 v -2.62414 c 0,-0.42903 -0.35307,-0.78254 -0.78217,-0.78254 z m 4.99993,0.26856 c -0.35064,-0.001 -0.35064,0.52521 0,0.52372 h 5.71385 c 0.35064,0.001 0.35064,-0.52521 0,-0.52372 z m -4.99993,0.25517 h 2.6245 c 0.14765,0 0.25893,0.11074 0.25893,0.25893 v 2.62413 c 0,0.14818 -0.11074,0.25892 -0.25893,0.25892 h -2.6245 c -0.14765,0 -0.25892,-0.11074 -0.25892,-0.25892 v -2.62413 c 0,-0.14766 0.11073,-0.25893 0.25892,-0.25893 z m 4.99993,0.79821 c -0.35579,-0.007 -0.35579,0.53042 0,0.52372 h 7.84716 c 0.35579,0.007 0.35579,-0.53042 0,-0.52372 z m 0,1.03306 c -0.35566,-0.007 -0.35566,0.5303 0,0.52373 h 7.84716 c 0.35566,0.007 0.35566,-0.5303 0,-0.52373 z m 0,1.04146 c -0.34925,-1e-4 -0.34925,0.52363 0,0.52373 h 7.84716 c 0.34925,1e-4 0.34925,-0.52363 0,-0.52373 z"
       id="path2"
       sodipodi:nodetypes="cssssscscccccccccccccccccscsscsssssscccscccsssssssccccccccccccssssssscccccccccccccccscccccscssssssscscccscssssssscccccccccccscccscssssssscscccscssssssscccccccccccccccc" />
  </g>
</svg>
