<?xml version="1.0" encoding="UTF-8" standalone="no"?>
<svg
   xmlns:dc="http://purl.org/dc/elements/1.1/"
   xmlns:cc="http://creativecommons.org/ns#"
   xmlns:rdf="http://www.w3.org/1999/02/22-rdf-syntax-ns#"
   xmlns:svg="http://www.w3.org/2000/svg"
   xmlns="http://www.w3.org/2000/svg"
   xmlns:sodipodi="http://sodipodi.sourceforge.net/DTD/sodipodi-0.dtd"
   xmlns:inkscape="http://www.inkscape.org/namespaces/inkscape"
   height="100px"
   width="100px"
   fill="#000000"
   data-name="Layer 1"
   viewBox="0 0 100 100"
   x="0px"
   y="0px"
   version="1.1"
   id="svg16"
   sodipodi:docname="saisie_faite.svg"
   inkscape:version="0.92.4 (5da689c313, 2019-01-14)">
  <metadata
     id="metadata22">
    <rdf:RDF>
      <cc:Work
         rdf:about="">
        <dc:format>image/svg+xml</dc:format>
        <dc:type
           rdf:resource="http://purl.org/dc/dcmitype/StillImage" />
        <dc:title>Untitled-2-24</dc:title>
      </cc:Work>
    </rdf:RDF>
  </metadata>
  <defs
     id="defs20" />
  <sodipodi:namedview
     pagecolor="#ffffff"
     bordercolor="#666666"
     borderopacity="1"
     objecttolerance="10"
     gridtolerance="10"
     guidetolerance="10"
     inkscape:pageopacity="0"
     inkscape:pageshadow="2"
     inkscape:window-width="1920"
     inkscape:window-height="1016"
     id="namedview18"
     showgrid="false"
     inkscape:zoom="2.36"
     inkscape:cx="-147.88136"
     inkscape:cy="46.61017"
     inkscape:window-x="0"
     inkscape:window-y="27"
     inkscape:window-maximized="1"
     inkscape:current-layer="svg16" />
  <title
     id="title2">Untitled-2-24</title>
  <path
     inkscape:connector-curvature="0"
     style="fill:#0a425a;fill-opacity:1"
     id="path10"
     d="M 85.11,22.71 H 14.89 A 5.61,5.61 0 0 0 9.34,28.39 V 80 H 90.66 V 28.39 a 5.61,5.61 0 0 0 -5.55,-5.68 z m 0,50.86 a 0.6,0.6 0 0 1 -0.6,0.61 h -69 A 0.61,0.61 0 0 1 14.9,73.57 V 28.8 a 0.6,0.6 0 0 1 0.61,-0.6 h 69 a 0.6,0.6 0 0 1 0.6,0.6 z"
     data-name="Compound Path" />
  <path
     inkscape:connector-curvature="0"
     style="fill:#0a425a;fill-opacity:1"
     id="path12"
     d="m 97,83.49 a 0.23,0.23 0 0 1 0.22,0.26 11.3,11.3 0 0 1 -3.11,6.25 10.79,10.79 0 0 1 -7.76,3.28 H 13.65 A 11.06,11.06 0 0 1 2.79,83.75 0.23,0.23 0 0 1 3,83.49 h 36.06 a 0.21,0.21 0 0 1 0.21,0.22 v 0 a 2.39,2.39 0 0 0 2.36,2.41 h 16.74 a 2.39,2.39 0 0 0 2.36,-2.41 v 0 a 0.21,0.21 0 0 1 0.21,-0.22 z"
     data-name="Path" />
  <path
     style="fill:#0a425a;fill-opacity:1;stroke-width:0.39341745;image-rendering:optimizeQuality;shape-rendering:geometricPrecision;text-rendering:geometricPrecision"
     inkscape:connector-curvature="0"
     id="path72"
     d="m 33.57664,53.155922 c 1.27459,-1.99019 2.852143,-3.23968 4.328851,-5.516111 0.780182,-1.03575 1.392615,-1.111491 2.088693,-0.42982 l 5.494702,5.083941 c 0.98603,1.01205 1.495773,1.2955 2.302905,0.10734 4.90922,-7.01511 13.248214,-13.457793 16.94744,-16.095697 1.583132,-1.04365 1.854963,0.03392 2.151887,0.404264 1.031104,1.559896 2.869336,4.65228 3.294974,6.801834 0.207707,1.144483 0.53251,2.121216 -0.739291,2.828447 -6.635496,3.367462 -15.204483,13.165952 -20.915252,20.607642 -0.762057,0.97674 -2.045475,0.53902 -2.488306,0 -3.415787,-4.24057 -7.556014,-8.10476 -11.735248,-10.85935 -1.373098,-0.80806 -1.729036,-1.40005 -0.73139,-2.93253 z"
     class="fil1" />
</svg>
