<?xml version="1.0" encoding="UTF-8" standalone="no"?>
<!-- Created with Inkscape (http://www.inkscape.org/) -->

<svg
   xmlns:dc="http://purl.org/dc/elements/1.1/"
   xmlns:cc="http://creativecommons.org/ns#"
   xmlns:rdf="http://www.w3.org/1999/02/22-rdf-syntax-ns#"
   xmlns:svg="http://www.w3.org/2000/svg"
   xmlns="http://www.w3.org/2000/svg"
   xmlns:sodipodi="http://sodipodi.sourceforge.net/DTD/sodipodi-0.dtd"
   xmlns:inkscape="http://www.inkscape.org/namespaces/inkscape"
   width="100"
   height="100"
   viewBox="0 0 26.458333 26.458334"
   version="1.1"
   id="svg8"
   inkscape:version="0.92.4 (5da689c313, 2019-01-14)"
   sodipodi:docname="serie.svg">
  <defs
     id="defs2" />
  <sodipodi:namedview
     id="base"
     pagecolor="#ffffff"
     bordercolor="#666666"
     borderopacity="1.0"
     inkscape:pageopacity="0.0"
     inkscape:pageshadow="2"
     inkscape:zoom="1.979899"
     inkscape:cx="-176.13982"
     inkscape:cy="16.636574"
     inkscape:document-units="mm"
     inkscape:current-layer="layer1"
     showgrid="false"
     units="px"
     inkscape:window-width="1920"
     inkscape:window-height="1016"
     inkscape:window-x="0"
     inkscape:window-y="27"
     inkscape:window-maximized="1"
     inkscape:snap-global="false" />
  <metadata
     id="metadata5">
    <rdf:RDF>
      <cc:Work
         rdf:about="">
        <dc:format>image/svg+xml</dc:format>
        <dc:type
           rdf:resource="http://purl.org/dc/dcmitype/StillImage" />
        <dc:title />
      </cc:Work>
    </rdf:RDF>
  </metadata>
  <g
     inkscape:label="Calque 1"
     inkscape:groupmode="layer"
     id="layer1"
     transform="translate(0,-270.54165)">
    <path
       inkscape:connector-curvature="0"
       id="path2"
       d="m 2.3200888,289.4266 v -0.75731 h 3.248156 3.248157 v -2.01034 -2.01034 l -1.292429,-1.35764 -1.292431,-1.35764 -0.04172,0.0518 c -0.176271,0.21881 -0.403424,0.39533 -0.616089,0.47877 l -0.0824,0.0323 v 0.86194 0.86194 h -0.567985 -0.567983 v -0.88511 -0.88512 l -0.05621,-0.0271 c -0.161386,-0.0779 -0.376389,-0.25422 -0.501277,-0.41117 -0.141867,-0.17829 -0.246821,-0.40238 -0.295719,-0.63139 -0.0375,-0.17563 -0.0375,-0.43969 0,-0.61532 0.126367,-0.59186 0.581023,-1.04627 1.173478,-1.17284 0.249005,-0.0532 0.585355,-0.0303 0.812993,0.0554 l 0.07871,0.0296 0.69271,-0.69264 0.692713,-0.69263 0.399325,0.39932 0.399325,0.39933 -0.68038,0.68046 -0.680383,0.68045 1.780421,1.86959 1.7804207,1.86958 4.36e-4,2.9967 4.37e-4,2.99671 H 6.1362218 2.3200828 Z m 0.698147,-2.87542 v -0.75731 h 1.905111 1.905111 v 0.75731 0.75732 h -1.905111 -1.905111 z"
       style="fill:#0a425a;fill-opacity:1;stroke-width:0.01183299;opacity:0.886"
       sodipodi:nodetypes="cccccccccccccccccccccccccccccccccccccccccccccc" />
    <path
       inkscape:connector-curvature="0"
       id="path2-2"
       d="M 10.34915,294.45387 V 293.617 h 3.589391 3.589392 v -2.22154 -2.22154 l -1.428205,-1.50026 -1.428207,-1.50027 -0.0461,0.0572 c -0.194789,0.2418 -0.445806,0.43686 -0.680812,0.52907 l -0.09106,0.0357 v 0.95249 0.9525 h -0.627655 -0.627652 v -0.9781 -0.97811 l -0.06212,-0.0299 c -0.17834,-0.0861 -0.415931,-0.28093 -0.553939,-0.45437 -0.156771,-0.19702 -0.27275,-0.44465 -0.326785,-0.69772 -0.04144,-0.19408 -0.04144,-0.48588 0,-0.67996 0.139642,-0.65404 0.642062,-1.15619 1.296757,-1.29605 0.275164,-0.0588 0.64685,-0.0335 0.898402,0.0612 l 0.08698,0.0327 0.765483,-0.76541 0.765485,-0.76539 0.441276,0.44127 0.441277,0.44128 -0.751858,0.75194 -0.75186,0.75194 1.967463,2.066 1.967463,2.06599 4.67e-4,3.31151 4.97e-4,3.31153 H 14.566183 10.34914 Z m 0.771491,-3.1775 v -0.83687 h 2.105252 2.105253 v 0.83687 0.83688 h -2.105253 -2.105252 z"
       style="fill:#0a425a;fill-opacity:1;stroke-width:0.0130761"
       sodipodi:nodetypes="cccccccccccccccccccccccccccccccccccccccccccccc" />
    <path
       inkscape:connector-curvature="0"
       id="path2-0"
       d="m 18.233601,286.00837 v -0.67775 h 2.906921 2.906922 v -1.79914 -1.79914 l -1.156653,-1.21502 -1.156655,-1.21501 -0.03734,0.0464 c -0.157753,0.19582 -0.361042,0.3538 -0.551366,0.42847 l -0.07374,0.0289 v 0.77139 0.77138 h -0.508315 -0.508314 v -0.79212 -0.79213 l -0.0503,-0.0243 c -0.144432,-0.0697 -0.336847,-0.22751 -0.448615,-0.36797 -0.126963,-0.15956 -0.220892,-0.36011 -0.264653,-0.56506 -0.03356,-0.15718 -0.03356,-0.3935 0,-0.55068 0.113092,-0.52968 0.519984,-0.93635 1.050199,-1.04963 0.222846,-0.0476 0.52386,-0.0271 0.727584,0.0496 l 0.07044,0.0265 0.619937,-0.61987 0.619941,-0.61987 0.357374,0.35737 0.357373,0.35738 -0.608902,0.60898 -0.608906,0.60896 1.593379,1.67318 1.593379,1.67317 3.79e-4,2.68189 4.03e-4,2.68189 H 21.64883 18.233595 Z m 0.624803,-2.57334 v -0.67775 h 1.70497 1.704969 v 0.67775 0.67776 h -1.704969 -1.70497 z"
       style="fill:#0a425a;fill-opacity:1;stroke-width:0.01058988;opacity:0.714"
       sodipodi:nodetypes="cccccccccccccccccccccccccccccccccccccccccccccc" />
    <path
       inkscape:connector-curvature="0"
       id="path2-0-1"
       d="m 10.349149,281.10139 v -0.62471 h 2.679431 2.679433 v -1.65835 -1.65834 l -1.066136,-1.11993 -1.066137,-1.11993 -0.03442,0.0427 c -0.145407,0.1805 -0.332787,0.32611 -0.508217,0.39494 l -0.06797,0.0266 v 0.71103 0.71102 h -0.468536 -0.468534 v -0.73014 -0.73014 l -0.04637,-0.0223 c -0.133129,-0.0643 -0.310486,-0.20971 -0.413508,-0.33918 -0.117027,-0.14708 -0.203604,-0.33193 -0.243941,-0.52084 -0.03093,-0.14488 -0.03093,-0.36271 0,-0.50758 0.104242,-0.48823 0.479291,-0.86308 0.968012,-0.96749 0.205407,-0.0439 0.482865,-0.025 0.670645,0.0457 l 0.06493,0.0244 0.571422,-0.57137 0.571425,-0.57135 0.329407,0.3294 0.329406,0.32941 -0.561251,0.56132 -0.561254,0.56131 1.468685,1.54224 1.468684,1.54223 3.49e-4,2.472 3.71e-4,2.47201 h -3.147969 -3.147965 z m 0.575907,-2.37196 v -0.62471 h 1.571542 1.571543 v 0.62471 0.62472 h -1.571543 -1.571542 z"
       style="fill:#0a425a;fill-opacity:1;stroke-width:0.00976113;opacity:0.451"
       sodipodi:nodetypes="cccccccccccccccccccccccccccccccccccccccccccccc" />
  </g>
</svg>
