<?xml version="1.0" encoding="UTF-8" standalone="no"?>
<svg
   xmlns:dc="http://purl.org/dc/elements/1.1/"
   xmlns:cc="http://creativecommons.org/ns#"
   xmlns:rdf="http://www.w3.org/1999/02/22-rdf-syntax-ns#"
   xmlns:svg="http://www.w3.org/2000/svg"
   xmlns="http://www.w3.org/2000/svg"
   xmlns:sodipodi="http://sodipodi.sourceforge.net/DTD/sodipodi-0.dtd"
   xmlns:inkscape="http://www.inkscape.org/namespaces/inkscape"
   height="100px"
   width="100px"
   fill="#000000"
   version="1.1"
   x="0px"
   y="0px"
   viewBox="0 0 33 33"
   enable-background="new 0 0 33 33"
   xml:space="preserve"
   id="svg14"
   sodipodi:docname="signature.svg"
   inkscape:version="0.92.4 (5da689c313, 2019-01-14)"><metadata
     id="metadata20"><rdf:RDF><cc:Work
         rdf:about=""><dc:format>image/svg+xml</dc:format><dc:type
           rdf:resource="http://purl.org/dc/dcmitype/StillImage" /><dc:title></dc:title></cc:Work></rdf:RDF></metadata><defs
     id="defs18" /><sodipodi:namedview
     pagecolor="#ffffff"
     bordercolor="#666666"
     borderopacity="1"
     objecttolerance="10"
     gridtolerance="10"
     guidetolerance="10"
     inkscape:pageopacity="0"
     inkscape:pageshadow="2"
     inkscape:window-width="1920"
     inkscape:window-height="1016"
     id="namedview16"
     showgrid="false"
     inkscape:zoom="2.36"
     inkscape:cx="50"
     inkscape:cy="50"
     inkscape:window-x="0"
     inkscape:window-y="27"
     inkscape:window-maximized="1"
     inkscape:current-layer="svg14" /><g
     id="g12"
     style="fill:#0a425a;fill-opacity:1"><path
       d="M27.523,6.77L15.851,18.441c-0.675,0.674-0.675,1.768,0,2.443l0.645,0.645c0.674,0.674,1.769,0.674,2.443,0L30.612,9.857   L27.523,6.77z"
       id="path2"
       style="fill:#0a425a;fill-opacity:1" /><path
       d="M15.342,21.393c-0.318-0.318-0.521-0.707-0.614-1.115l-0.053,0.145c-0.108,0.297-0.287,0.785-0.396,1.082l-0.724,1.979   c-0.004,0.01-0.005,0.02-0.008,0.027l0.876-0.875c0.089-0.088,0.233-0.088,0.322,0c0.089,0.09,0.089,0.234,0,0.322l-0.875,0.877   c0.01-0.004,0.018-0.006,0.028-0.01l1.979-0.723c0.297-0.109,0.784-0.287,1.082-0.396l0.145-0.053   c-0.409-0.094-0.798-0.297-1.116-0.613L15.342,21.393z"
       id="path4"
       style="fill:#0a425a;fill-opacity:1" /><path
       d="M31.994,6.031l-0.645-0.645c-0.675-0.676-1.769-0.676-2.443,0l-0.865,0.865l3.088,3.088l0.865-0.865   C32.668,7.799,32.668,6.705,31.994,6.031z"
       id="path6"
       style="fill:#0a425a;fill-opacity:1" /><path
       d="M30.637,10.645l-5.26,5.26c-0.211,0.211-0.211,0.553,0,0.764s0.553,0.211,0.764,0l5.259-5.26   c0.211-0.211,0.211-0.553,0-0.764S30.847,10.434,30.637,10.645z"
       id="path8"
       style="fill:#0a425a;fill-opacity:1" /><path
       d="M16.117,24.896h-3.928c-1.419,0-2.256,0.295-2.811,0.49c-0.645,0.229-0.698,0.246-1.302-0.303   c-0.185-0.17-0.359-0.398-0.543-0.641c-0.452-0.594-1.018-1.34-1.994-1.281c-1.395,0.078-1.518,1.529-1.591,2.396   c-0.012,0.146-0.026,0.309-0.045,0.469c-0.095-0.297-0.187-0.621-0.257-0.869c-0.114-0.406-0.232-0.824-0.359-1.176   c-0.264-0.727-0.725-0.826-1.001-0.82c-0.273,0.006-0.999,0.021-1.753,2.412c-0.12,0.379,0.091,0.783,0.47,0.904   c0.381,0.119,0.785-0.092,0.905-0.471c0.078-0.248,0.174-0.506,0.271-0.738c0.026,0.092,0.053,0.186,0.079,0.279   c0.371,1.318,0.664,2.357,1.46,2.547c0.061,0.014,0.137,0.025,0.225,0.025c0.228,0,0.532-0.08,0.827-0.404   c0.487-0.533,0.555-1.332,0.614-2.035c0.028-0.336,0.081-0.963,0.234-1.08c0.208-0.008,0.433,0.275,0.767,0.715   c0.205,0.27,0.438,0.576,0.72,0.832c1.158,1.055,1.812,0.93,2.752,0.598c0.516-0.182,1.159-0.408,2.331-0.408h3.928   c0.398,0,0.721-0.324,0.721-0.721C16.838,25.219,16.516,24.896,16.117,24.896z"
       id="path10"
       style="fill:#0a425a;fill-opacity:1" /></g></svg>