<?xml version="1.0" encoding="UTF-8" standalone="no"?>
<svg
   xmlns:dc="http://purl.org/dc/elements/1.1/"
   xmlns:cc="http://creativecommons.org/ns#"
   xmlns:rdf="http://www.w3.org/1999/02/22-rdf-syntax-ns#"
   xmlns:svg="http://www.w3.org/2000/svg"
   xmlns="http://www.w3.org/2000/svg"
   xmlns:sodipodi="http://sodipodi.sourceforge.net/DTD/sodipodi-0.dtd"
   xmlns:inkscape="http://www.inkscape.org/namespaces/inkscape"
   height="87.42424"
   width="96.970215"
   version="1.1"
   x="0px"
   y="0px"
   viewBox="0 0 32.000171 28.849999"
   enable-background="new 0 0 33 33"
   xml:space="preserve"
   id="svg14"
   sodipodi:docname="signature.svg"
   inkscape:version="0.92.4 (5da689c313, 2019-01-14)"
   style="fill:#000000"><metadata
     id="metadata20"><rdf:RDF><cc:Work
         rdf:about=""><dc:format>image/svg+xml</dc:format><dc:type
           rdf:resource="http://purl.org/dc/dcmitype/StillImage" /><dc:title></dc:title></cc:Work></rdf:RDF></metadata><defs
     id="defs18" /><sodipodi:namedview
     pagecolor="#ffffff"
     bordercolor="#666666"
     borderopacity="1"
     objecttolerance="10"
     gridtolerance="10"
     guidetolerance="10"
     inkscape:pageopacity="0"
     inkscape:pageshadow="2"
     inkscape:window-width="1920"
     inkscape:window-height="1016"
     id="namedview16"
     showgrid="false"
     inkscape:zoom="2.36"
     inkscape:cx="-149.39447"
     inkscape:cy="46.819266"
     inkscape:window-x="0"
     inkscape:window-y="27"
     inkscape:window-maximized="1"
     inkscape:current-layer="svg14"
     showguides="true"
     inkscape:guide-bbox="true"
     fit-margin-top="16"
     fit-margin-bottom="1"
     fit-margin-left="0"
     fit-margin-right="0"><sodipodi:guide
       position="-34.338312,5.1028999"
       orientation="0,1"
       id="guide817"
       inkscape:locked="false" /></sodipodi:namedview><g
     id="g12"
     style="fill:#0a425a;fill-opacity:1"
     transform="matrix(0.93335595,0,0,0.93335595,0.6002585,1.5005601)"><path
       d="M 27.523,6.77 15.851,18.441 c -0.675,0.674 -0.675,1.768 0,2.443 l 0.645,0.645 c 0.674,0.674 1.769,0.674 2.443,0 L 30.612,9.857 Z"
       id="path2"
       style="fill:#0a425a;fill-opacity:1"
       inkscape:connector-curvature="0" /><path
       d="m 15.342,21.393 c -0.318,-0.318 -0.521,-0.707 -0.614,-1.115 l -0.053,0.145 c -0.108,0.297 -0.287,0.785 -0.396,1.082 l -0.724,1.979 c -0.004,0.01 -0.005,0.02 -0.008,0.027 l 0.876,-0.875 c 0.089,-0.088 0.233,-0.088 0.322,0 0.089,0.09 0.089,0.234 0,0.322 l -0.875,0.877 c 0.01,-0.004 0.018,-0.006 0.028,-0.01 l 1.979,-0.723 c 0.297,-0.109 0.784,-0.287 1.082,-0.396 l 0.145,-0.053 C 16.695,22.559 16.306,22.356 15.988,22.04 Z"
       id="path4"
       style="fill:#0a425a;fill-opacity:1"
       inkscape:connector-curvature="0" /><path
       d="M 31.994,6.031 31.349,5.386 C 30.674,4.71 29.58,4.71 28.906,5.386 l -0.865,0.865 3.088,3.088 0.865,-0.865 c 0.674,-0.675 0.674,-1.769 0,-2.443 z"
       id="path6"
       style="fill:#0a425a;fill-opacity:1"
       inkscape:connector-curvature="0" /><path
       d="m 30.637,10.645 -5.26,5.26 c -0.211,0.211 -0.211,0.553 0,0.764 0.211,0.211 0.553,0.211 0.764,0 l 5.259,-5.26 c 0.211,-0.211 0.211,-0.553 0,-0.764 -0.211,-0.211 -0.553,-0.211 -0.763,0 z"
       id="path8"
       style="fill:#0a425a;fill-opacity:1"
       inkscape:connector-curvature="0" /><path
       d="m 16.117,24.896 h -3.928 c -1.419,0 -2.256,0.295 -2.811,0.49 C 8.733,25.615 8.68,25.632 8.076,25.083 7.891,24.913 7.717,24.685 7.533,24.442 7.081,23.848 6.515,23.102 5.539,23.161 4.144,23.239 4.021,24.69 3.948,25.557 3.936,25.703 3.922,25.866 3.903,26.026 3.808,25.729 3.716,25.405 3.646,25.157 3.532,24.751 3.414,24.333 3.287,23.981 3.023,23.254 2.562,23.155 2.286,23.161 c -0.273,0.006 -0.999,0.021 -1.753,2.412 -0.12,0.379 0.091,0.783 0.47,0.904 0.381,0.119 0.785,-0.092 0.905,-0.471 0.078,-0.248 0.174,-0.506 0.271,-0.738 0.026,0.092 0.053,0.186 0.079,0.279 0.371,1.318 0.664,2.357 1.46,2.547 0.061,0.014 0.137,0.025 0.225,0.025 0.228,0 0.532,-0.08 0.827,-0.404 0.487,-0.533 0.555,-1.332 0.614,-2.035 0.028,-0.336 0.081,-0.963 0.234,-1.08 0.208,-0.008 0.433,0.275 0.767,0.715 0.205,0.27 0.438,0.576 0.72,0.832 1.158,1.055 1.812,0.93 2.752,0.598 0.516,-0.182 1.159,-0.408 2.331,-0.408 h 3.928 c 0.398,0 0.721,-0.324 0.721,-0.721 0.001,-0.397 -0.321,-0.72 -0.72,-0.72 z"
       id="path10"
       style="fill:#0a425a;fill-opacity:1"
       inkscape:connector-curvature="0" /></g></svg>