<?xml version="1.0" encoding="UTF-8" standalone="no"?>
<!-- Created with Inkscape (http://www.inkscape.org/) -->

<svg
   xmlns:dc="http://purl.org/dc/elements/1.1/"
   xmlns:cc="http://creativecommons.org/ns#"
   xmlns:rdf="http://www.w3.org/1999/02/22-rdf-syntax-ns#"
   xmlns:svg="http://www.w3.org/2000/svg"
   xmlns="http://www.w3.org/2000/svg"
   xmlns:sodipodi="http://sodipodi.sourceforge.net/DTD/sodipodi-0.dtd"
   xmlns:inkscape="http://www.inkscape.org/namespaces/inkscape"
   width="100"
   height="100"
   viewBox="0 0 26.458333 26.458334"
   version="1.1"
   id="svg8"
   inkscape:version="0.92.4 (5da689c313, 2019-01-14)"
   sodipodi:docname="suiv.svg">
  <defs
     id="defs2" />
  <sodipodi:namedview
     id="base"
     pagecolor="#ffffff"
     bordercolor="#666666"
     borderopacity="1.0"
     inkscape:pageopacity="0.0"
     inkscape:pageshadow="2"
     inkscape:zoom="1.979899"
     inkscape:cx="-21.081398"
     inkscape:cy="20.677184"
     inkscape:document-units="mm"
     inkscape:current-layer="layer1"
     showgrid="false"
     units="px"
     inkscape:window-width="1600"
     inkscape:window-height="836"
     inkscape:window-x="0"
     inkscape:window-y="27"
     inkscape:window-maximized="1"
     inkscape:snap-global="false" />
  <metadata
     id="metadata5">
    <rdf:RDF>
      <cc:Work
         rdf:about="">
        <dc:format>image/svg+xml</dc:format>
        <dc:type
           rdf:resource="http://purl.org/dc/dcmitype/StillImage" />
        <dc:title></dc:title>
      </cc:Work>
    </rdf:RDF>
  </metadata>
  <g
     inkscape:label="Calque 1"
     inkscape:groupmode="layer"
     id="layer1"
     transform="translate(0,-270.54165)">
    <circle
       style="fill:#b3b3b3;fill-opacity:0.94117647;stroke-width:0.26458332"
       id="path815"
       cx="13.229167"
       cy="283.77081"
       r="13.229842" />
    <path
       inkscape:connector-curvature="0"
       id="path2"
       d="m 2.3200888,289.4266 v -0.75731 h 3.248156 3.248157 v -2.01034 -2.01034 l -1.292429,-1.35764 -1.292431,-1.35764 -0.04172,0.0518 c -0.176271,0.21881 -0.403424,0.39533 -0.616089,0.47877 l -0.0824,0.0323 v 0.86194 0.86194 h -0.567985 -0.567983 v -0.88511 -0.88512 l -0.05621,-0.0271 c -0.161386,-0.0779 -0.376389,-0.25422 -0.501277,-0.41117 -0.141867,-0.17829 -0.246821,-0.40238 -0.295719,-0.63139 -0.0375,-0.17563 -0.0375,-0.43969 0,-0.61532 0.126367,-0.59186 0.581023,-1.04627 1.173478,-1.17284 0.249005,-0.0532 0.585355,-0.0303 0.812993,0.0554 l 0.07871,0.0296 0.69271,-0.69264 0.692713,-0.69263 0.399325,0.39932 0.399325,0.39933 -0.68038,0.68046 -0.680383,0.68045 1.780421,1.86959 1.7804207,1.86958 4.36e-4,2.9967 4.37e-4,2.99671 H 6.1362218 2.3200828 Z m 0.698147,-2.87542 v -0.75731 h 1.905111 1.905111 v 0.75731 0.75732 h -1.905111 -1.905111 z"
       style="fill:#0a425a;fill-opacity:1;stroke-width:0.01183299"
       sodipodi:nodetypes="cccccccccccccccccccccccccccccccccccccccccccccc" />
    <path
       style="fill:#8f230a;fill-opacity:1;stroke-width:0.22622445"
       inkscape:connector-curvature="0"
       d="m 13.920275,281.74138 c 0.03099,0 0.06244,-0.005 0.09298,-0.0147 0.123293,-0.0403 0.206769,-0.1552 0.206769,-0.28482 v -1.35056 c 2.063846,-0.39138 3.535663,-1.94713 3.535663,-3.78113 0,-2.13669 -2.030365,-3.87477 -4.525847,-3.87477 -2.495483,0 -4.5258476,1.73808 -4.5258476,3.87477 0,1.94507 1.6675006,3.57434 3.9005616,3.83767 l 1.074341,1.47069 c 0.05678,0.0787 0.147499,0.12283 0.241382,0.12283 z m -0.69089,-8.70692 c 2.165195,0 3.926804,1.46955 3.926804,3.27573 0,1.60755 -1.378385,2.96603 -3.277313,3.23026 -0.147951,0.0206 -0.258348,0.14727 -0.258348,0.2968 v 0.68682 l -0.61126,-0.8368 c -0.05067,-0.0695 -0.128722,-0.1138 -0.21446,-0.12148 -1.990776,-0.18325 -3.4922267,-1.58267 -3.4922267,-3.25537 2.25e-4,-1.80641 1.7616087,-3.27596 3.9268037,-3.27596 z m 1.355311,2.776 c 0.259253,0 0.469416,0.21016 0.469416,0.46941 0,0.25926 -0.210163,0.46942 -0.469416,0.46942 -0.259253,0 -0.469415,-0.21016 -0.469415,-0.46942 0,-0.25948 0.210162,-0.46941 0.469415,-0.46941 z m -1.420689,0 c 0.259253,0 0.469416,0.21016 0.469416,0.46941 0,0.25926 -0.210163,0.46942 -0.469416,0.46942 -0.259255,0 -0.469417,-0.21016 -0.469417,-0.46942 0,-0.25948 0.210162,-0.46941 0.469417,-0.46941 z m -1.420917,0 c 0.259253,0 0.469416,0.21016 0.469416,0.46941 0,0.25926 -0.210163,0.46942 -0.469416,0.46942 -0.259253,0 -0.469416,-0.21016 -0.469416,-0.46942 2.31e-4,-0.25948 0.210163,-0.46941 0.469416,-0.46941 z"
       id="path2-3" />
    <path
       inkscape:connector-curvature="0"
       id="path2-2"
       d="m 10.750054,294.43793 v -0.75731 h 3.248156 3.248157 v -2.01034 -2.01034 l -1.292429,-1.35764 -1.292431,-1.35764 -0.04172,0.0518 c -0.176271,0.21881 -0.403424,0.39533 -0.616089,0.47877 l -0.0824,0.0323 v 0.86194 0.86194 H 13.353313 12.78533 v -0.88511 -0.88512 l -0.05621,-0.0271 c -0.161386,-0.0779 -0.376389,-0.25422 -0.501277,-0.41117 -0.141867,-0.17829 -0.246821,-0.40238 -0.295719,-0.63139 -0.0375,-0.17563 -0.0375,-0.43969 0,-0.61532 0.126367,-0.59186 0.581023,-1.04627 1.173478,-1.17284 0.249005,-0.0532 0.585355,-0.0303 0.812993,0.0554 l 0.07871,0.0296 0.69271,-0.69264 0.692713,-0.69263 0.399325,0.39932 0.399325,0.39933 -0.68038,0.68046 -0.680383,0.68045 1.780421,1.86959 1.780421,1.86958 4.23e-4,2.9967 4.5e-4,2.99671 h -3.816143 -3.816139 z m 0.698147,-2.87542 v -0.75731 h 1.905111 1.905111 v 0.75731 0.75732 h -1.905111 -1.905111 z"
       style="fill:#0a425a;fill-opacity:1;stroke-width:0.01183299"
       sodipodi:nodetypes="cccccccccccccccccccccccccccccccccccccccccccccc" />
    <path
       inkscape:connector-curvature="0"
       id="path2-0"
       d="m 17.832697,286.55348 v -0.75731 h 3.248156 3.248157 v -2.01034 -2.01034 l -1.292429,-1.35764 -1.292431,-1.35764 -0.04172,0.0518 c -0.176271,0.21881 -0.403424,0.39533 -0.616089,0.47877 l -0.0824,0.0323 v 0.86194 0.86194 h -0.567985 -0.567983 v -0.88511 -0.88512 l -0.05621,-0.0271 c -0.161386,-0.0779 -0.376389,-0.25422 -0.501277,-0.41117 -0.141867,-0.17829 -0.246821,-0.40238 -0.295719,-0.63139 -0.0375,-0.17563 -0.0375,-0.43969 0,-0.61532 0.126367,-0.59186 0.581023,-1.04627 1.173478,-1.17284 0.249005,-0.0532 0.585355,-0.0303 0.812993,0.0554 l 0.07871,0.0296 0.69271,-0.69264 0.692713,-0.69263 0.399325,0.39932 0.399325,0.39933 -0.68038,0.68046 -0.680383,0.68045 1.780421,1.86959 1.780421,1.86958 4.23e-4,2.9967 4.5e-4,2.99671 H 21.64883 17.832691 Z m 0.698147,-2.87542 v -0.75731 h 1.905111 1.905111 v 0.75731 0.75732 h -1.905111 -1.905111 z"
       style="fill:#0a425a;fill-opacity:1;stroke-width:0.01183299"
       sodipodi:nodetypes="cccccccccccccccccccccccccccccccccccccccccccccc" />
  </g>
</svg>
