<?xml version="1.0" encoding="UTF-8" standalone="no"?>
<svg
   xmlns:dc="http://purl.org/dc/elements/1.1/"
   xmlns:cc="http://creativecommons.org/ns#"
   xmlns:rdf="http://www.w3.org/1999/02/22-rdf-syntax-ns#"
   xmlns:svg="http://www.w3.org/2000/svg"
   xmlns="http://www.w3.org/2000/svg"
   xmlns:sodipodi="http://sodipodi.sourceforge.net/DTD/sodipodi-0.dtd"
   xmlns:inkscape="http://www.inkscape.org/namespaces/inkscape"
   width="100px"
   height="100px"
   fill="#000000"
   data-name="Layer 1"
   version="1.1"
   viewBox="0 0 80 80"
   id="svg36"
   sodipodi:docname="suivi.svg"
   inkscape:version="0.92.4 (5da689c313, 2019-01-14)">
  <defs
     id="defs40" />
  <sodipodi:namedview
     pagecolor="#ffffff"
     bordercolor="#666666"
     borderopacity="1"
     objecttolerance="10"
     gridtolerance="10"
     guidetolerance="10"
     inkscape:pageopacity="0"
     inkscape:pageshadow="2"
     inkscape:window-width="888"
     inkscape:window-height="480"
     id="namedview38"
     showgrid="false"
     inkscape:zoom="2.36"
     inkscape:cx="50"
     inkscape:cy="50"
     inkscape:window-x="812"
     inkscape:window-y="105"
     inkscape:window-maximized="0"
     inkscape:current-layer="svg36" />
  <metadata
     id="metadata2">
    <rdf:RDF>
      <cc:Work
         rdf:about="">
        <dc:format>image/svg+xml</dc:format>
        <dc:type
           rdf:resource="http://purl.org/dc/dcmitype/StillImage" />
        <dc:title>01_BO_search</dc:title>
      </cc:Work>
    </rdf:RDF>
  </metadata>
  <title
     id="title4">01_BO_search</title>
  <g
     transform="matrix(.68377 0 0 .68377 29.523 -4.083)"
     id="g14">
    <path
       d="m66.94 33.612c0.1163-0.65119 0.27904-1.256 0.16273-1.698-0.1163-0.44204-0.88381-2.3569-0.74429-3.0044 0.13952-0.64745 0.16273-3.4619 0.16273-4.1363 0-0.6744-0.7675-1.6748-0.7675-1.6748s0.55835-0.6744 0.72108-1.1629c0.16273-0.48846-0.1862-0.30225-0.1862-0.30225s0.0699-0.60477-0.44204-1.07c-0.51167-0.46525-1.6513-0.8606-1.6513-0.8606s1.07 0.82192 1.1863 1.698c0.01787 0.13499-0.30225 0.29665-0.60477 0.41856-0.62878 0.25396-3.3261-0.32572-4.6752-0.30225-1.3491 0.02321-3.8844 0.32573-4.2099 0.20942-0.32572-0.1163-1.3491-0.72108-1.6748-1.0233-0.32573-0.30225-2.1166-0.51166-2.1166-0.51166l-1.3491-1.5699s-0.19768 0.05815-0.62798 0-1.1863-0.58156-1.3258-1.0233c-0.13952-0.44204-0.03495-1.2095-0.08137-1.5585-0.04642-0.34894-0.73255-1.3723-0.73255-1.3723s0.73255 0.81418 0.87234 1.2327c0.13978 0.41856-0.10457 1.4654 0.09311 1.6398 0.19768 0.17447 0.83739 0.94197 1.2095 0.94197 0.37214 0 1.3955-0.44204 0.87234-1.5817-0.5234-1.1396-1.4654-1.6748-1.6049-2.0584-0.13952-0.38362-0.69788-0.66292-0.69788-0.66292s0.58156-1.0119 0.95371-1.0468c0.37214-0.03496 1.7562 0.32573 1.7562 0.32573s-1.0468-0.91876-1.7676-0.95371c-0.72082-0.03494-1.9421 1.2445-1.9421 1.2445s-1.419-0.13952-1.8143-0.04642c-0.39535 0.09311-0.45351 0.66292-0.60477 0.82565-0.15126 0.16273-0.48846 0.73255-0.41856 1.0233 0.0699 0.29078 0.16273 0.83739 0.15126 1.256-0.01178 0.41856-0.1163 1.822-0.05815 2.1206 0.03922 0.20088 0.25743 0.32226 0.40522 0.41029 0.09577-0.01867 0.18327-0.03868 0.22862-0.05362 0.12218-0.04081 0.62798-0.17447 0.73842-0.22089 0.11044-0.04642 0.44204-0.3372 0.44204-0.3372s-0.27317 0.41856-0.37802 0.47112c-0.10485 0.05255-0.30812 0.12218-0.48259 0.17447-0.10512 0.03147-0.23956 0.07149-0.35027 0.10991 0.15259 0.11711 0.4103 0.29585 0.55968 0.34574 0.18621 0.06216 0.91476-0.27904 0.91476-0.27904s0.55835 1.4267 0.77524 2.1088c0.21715 0.6824 0.83739 1.6281 0.99238 2.1088 0.155 0.48072-0.03095 1.6281 0.10857 2.0469 0.13952 0.41856 0.4962 1.8452 0.69787 2.2329 0.20168 0.38762 0.94597 0.85286 1.3336 0.94597 0.38762 0.09311 0.96144 0.75976 0.97692 1.07 0.01546 0.31025 0.2713 1.4576 0.2713 2.0157 0 0.55808-0.04642 1.1863 0 1.6513 0.04642 0.46525 0.48846 1.0233 0.34894 1.7676-0.13952 0.74429-0.9305 3.396-0.9305 3.396h1.3491s0.39535-0.55835 0.62798-0.69787-0.1163-0.55835 0-0.88381c0.1163-0.32573 0.20942-0.55835 0.18621-0.83739-0.02321-0.27904-0.27904-1.1629-0.20942-1.7911 0.0699-0.62798 0.44204-1.1863 0.48846-1.5817 0.04642-0.39535-0.46525-1.4886-0.39535-1.9306 0.0699-0.44204 0.41856-1.3955 0.7675-1.5817 0.34894-0.1862 0.72108 0.44204 1.4654 0.53487 0.74429 0.09311 3.1634 0.53488 4.3494 0.39536 1.1863-0.13952 1.977-0.74429 2.1398-0.83739 0.16273-0.09311 0.60477-1.3258 0.60477-1.3258s0.83739 2.2329 1.256 2.6749c0.41856 0.44204 1.1164 1.1396 1.2327 1.5585 0.1163 0.41856 0.37214 2.9307 0.20942 3.4424-0.16273 0.51167-0.80725 2.1088-0.80725 2.1088h1.1212s0.15099-1.1087 0.4303-1.3413c0.27904-0.23262 0.34894-0.51167 0.48846-0.69787 0.13952-0.1862-0.11684-1.8378-6.66e-4 -2.489zm-19.05-17.677c-0.155 0.09311-0.61251 0-0.61251 0s-0.02321-0.45751 0.17047-0.52714c0.19367-0.06964 0.46525-0.05415 0.50393 0.0699 0.03895 0.12378 0.09311 0.36414-0.0619 0.45724z"
       fill="#8f230a"
       opacity=".333"
       stroke-width=".26677"
       id="path6" />
    <path
       d="m55.345 43.598c0.1163-0.65119 0.27904-1.256 0.16273-1.698-0.1163-0.44204-0.88381-2.3569-0.74429-3.0044 0.13952-0.64745 0.16273-3.4619 0.16273-4.1363 0-0.6744-0.7675-1.6748-0.7675-1.6748s0.55835-0.6744 0.72108-1.1629c0.16273-0.48846-0.1862-0.30225-0.1862-0.30225s0.0699-0.60477-0.44204-1.07c-0.51167-0.46525-1.6513-0.8606-1.6513-0.8606s1.07 0.82192 1.1863 1.698c0.01787 0.13499-0.30225 0.29665-0.60477 0.41856-0.62878 0.25396-3.3261-0.32573-4.6752-0.30225-1.3491 0.02321-3.8844 0.32573-4.2099 0.20942-0.32572-0.1163-1.3491-0.72108-1.6748-1.0233-0.32572-0.30225-2.1166-0.51166-2.1166-0.51166l-1.3491-1.5699s-0.19768 0.05815-0.62798 0-1.1863-0.58156-1.3258-1.0233c-0.13952-0.44204-0.03495-1.2095-0.08137-1.5585-0.04642-0.34894-0.73255-1.3723-0.73255-1.3723s0.73255 0.81418 0.87234 1.2327c0.13978 0.41856-0.10457 1.4654 0.09311 1.6398 0.19768 0.17447 0.83739 0.94197 1.2095 0.94197 0.37214 0 1.3955-0.44204 0.87234-1.5817-0.5234-1.1396-1.4654-1.6748-1.6049-2.0584-0.13952-0.38362-0.69788-0.66292-0.69788-0.66292s0.58156-1.0119 0.95371-1.0468c0.37214-0.03496 1.7562 0.32573 1.7562 0.32573s-1.0468-0.91876-1.7676-0.95371c-0.72082-0.03494-1.9421 1.2445-1.9421 1.2445s-1.419-0.13952-1.8143-0.04642c-0.39535 0.09311-0.45351 0.66292-0.60477 0.82565-0.15126 0.16273-0.48846 0.73255-0.41856 1.0233 0.0699 0.29078 0.16273 0.83739 0.15126 1.256-0.01178 0.41856-0.1163 1.822-0.05815 2.1206 0.03922 0.20088 0.25743 0.32226 0.40522 0.41029 0.09577-0.01867 0.18327-0.03868 0.22862-0.05362 0.12218-0.04081 0.62798-0.17447 0.73842-0.22089 0.11044-0.04642 0.44204-0.3372 0.44204-0.3372s-0.27317 0.41856-0.37802 0.47112c-0.10485 0.05255-0.30812 0.12218-0.48259 0.17447-0.10512 0.03147-0.23956 0.07149-0.35027 0.10991 0.15259 0.11711 0.4103 0.29585 0.55968 0.34574 0.18621 0.06216 0.91476-0.27904 0.91476-0.27904s0.55835 1.4267 0.77524 2.1088c0.21715 0.6824 0.83739 1.6281 0.99238 2.1088 0.155 0.48072-0.03095 1.6281 0.10857 2.0469 0.13952 0.41856 0.4962 1.8452 0.69787 2.2329 0.20168 0.38762 0.94597 0.85286 1.3336 0.94597 0.38762 0.09311 0.96144 0.75976 0.97692 1.07 0.01546 0.31025 0.2713 1.4576 0.2713 2.0157 0 0.55808-0.04642 1.1863 0 1.6513 0.04642 0.46525 0.48846 1.0233 0.34894 1.7676-0.13952 0.74429-0.9305 3.396-0.9305 3.396h1.3491s0.39535-0.55835 0.62798-0.69787-0.1163-0.55835 0-0.88381c0.1163-0.32573 0.20942-0.55835 0.18621-0.83739-0.02321-0.27904-0.27904-1.1629-0.20942-1.7911 0.0699-0.62798 0.44204-1.1863 0.48846-1.5817 0.04642-0.39535-0.46525-1.4886-0.39535-1.9306 0.0699-0.44204 0.41856-1.3955 0.7675-1.5817 0.34893-0.1862 0.72108 0.44204 1.4654 0.53487 0.74429 0.09311 3.1634 0.53488 4.3494 0.39536 1.1863-0.13952 1.977-0.74429 2.1398-0.83739 0.16273-0.09311 0.60477-1.3258 0.60477-1.3258s0.83739 2.2329 1.256 2.6749c0.41856 0.44204 1.1164 1.1396 1.2327 1.5585 0.1163 0.41856 0.37214 2.9307 0.20942 3.4424-0.16273 0.51167-0.80725 2.1088-0.80725 2.1088h1.1212s0.15099-1.1087 0.4303-1.3413c0.27904-0.23262 0.34894-0.51167 0.48846-0.69787 0.13952-0.1862-0.11684-1.8378-6.67e-4 -2.489zm-19.05-17.677c-0.155 0.09311-0.61251 0-0.61251 0s-0.02321-0.45751 0.17047-0.52714c0.19367-0.06964 0.46525-0.05415 0.50393 0.0699 0.03895 0.12378 0.09311 0.36414-0.0619 0.45724z"
       fill="#8f230a"
       stroke-width=".26677"
       id="path8" />
    <path
       d="m61.546 37.488c0.1163-0.65119 0.27904-1.256 0.16273-1.698-0.1163-0.44204-0.88381-2.3569-0.74429-3.0044 0.13952-0.64745 0.16273-3.4619 0.16273-4.1363 0-0.6744-0.7675-1.6748-0.7675-1.6748s0.55835-0.6744 0.72108-1.1629c0.16273-0.48846-0.1862-0.30225-0.1862-0.30225s0.0699-0.60477-0.44204-1.07c-0.51167-0.46525-1.6513-0.8606-1.6513-0.8606s1.07 0.82192 1.1863 1.698c0.01787 0.13499-0.30225 0.29665-0.60477 0.41856-0.62878 0.25396-3.3261-0.32572-4.6752-0.30225-1.3491 0.02321-3.8844 0.32573-4.2099 0.20942-0.32572-0.1163-1.3491-0.72108-1.6748-1.0233-0.32572-0.30225-2.1166-0.51166-2.1166-0.51166l-1.3491-1.5699s-0.19768 0.05815-0.62798 0-1.1863-0.58156-1.3258-1.0233c-0.13952-0.44204-0.03495-1.2095-0.08137-1.5585-0.04642-0.34894-0.73255-1.3723-0.73255-1.3723s0.73255 0.81418 0.87234 1.2327c0.13978 0.41856-0.10457 1.4654 0.09311 1.6398 0.19768 0.17447 0.83739 0.94197 1.2095 0.94197 0.37214 0 1.3955-0.44204 0.87234-1.5817-0.5234-1.1396-1.4654-1.6748-1.6049-2.0584-0.13952-0.38362-0.69788-0.66292-0.69788-0.66292s0.58156-1.0119 0.95371-1.0468c0.37214-0.03496 1.7562 0.32573 1.7562 0.32573s-1.0468-0.91876-1.7676-0.95371c-0.72082-0.03494-1.9421 1.2445-1.9421 1.2445s-1.419-0.13952-1.8143-0.04642c-0.39535 0.09311-0.45351 0.66292-0.60477 0.82565-0.15126 0.16273-0.48846 0.73255-0.41856 1.0233 0.0699 0.29078 0.16273 0.83739 0.15126 1.256-0.01178 0.41856-0.1163 1.822-0.05815 2.1206 0.03922 0.20088 0.25743 0.32226 0.40522 0.41029 0.09577-0.01867 0.18327-0.03868 0.22862-0.05362 0.12218-0.04081 0.62798-0.17447 0.73842-0.22089 0.11044-0.04642 0.44204-0.3372 0.44204-0.3372s-0.27317 0.41856-0.37802 0.47112c-0.10485 0.05255-0.30812 0.12218-0.48259 0.17447-0.10512 0.03147-0.23956 0.07149-0.35027 0.10991 0.15259 0.11711 0.4103 0.29585 0.55968 0.34574 0.18621 0.06216 0.91476-0.27904 0.91476-0.27904s0.55835 1.4267 0.77524 2.1088c0.21715 0.6824 0.83739 1.6281 0.99238 2.1088 0.155 0.48072-0.03095 1.6281 0.10857 2.0469 0.13952 0.41856 0.4962 1.8452 0.69787 2.2329 0.20168 0.38762 0.94597 0.85286 1.3336 0.94597 0.38762 0.09311 0.96144 0.75976 0.97692 1.07 0.01546 0.31025 0.2713 1.4576 0.2713 2.0157 0 0.55808-0.04642 1.1863 0 1.6513 0.04642 0.46525 0.48846 1.0233 0.34894 1.7676-0.13952 0.74429-0.9305 3.396-0.9305 3.396h1.3491s0.39535-0.55835 0.62798-0.69787-0.1163-0.55835 0-0.88381c0.1163-0.32573 0.20942-0.55835 0.18621-0.83739-0.02321-0.27904-0.27904-1.1629-0.20942-1.7911 0.0699-0.62798 0.44204-1.1863 0.48846-1.5817 0.04642-0.39535-0.46525-1.4886-0.39535-1.9306 0.0699-0.44204 0.41856-1.3955 0.7675-1.5817 0.34893-0.1862 0.72108 0.44204 1.4654 0.53487 0.74429 0.09311 3.1634 0.53488 4.3494 0.39536 1.1863-0.13952 1.977-0.74429 2.1398-0.83739 0.16273-0.09311 0.60477-1.3258 0.60477-1.3258s0.83739 2.2329 1.256 2.6749c0.41856 0.44204 1.1164 1.1396 1.2327 1.5585 0.1163 0.41856 0.37214 2.9307 0.20942 3.4424-0.16273 0.51167-0.80725 2.1088-0.80725 2.1088h1.1212s0.15099-1.1087 0.4303-1.3413c0.27904-0.23262 0.34894-0.51167 0.48846-0.69787 0.13952-0.1862-0.11684-1.8378-6.66e-4 -2.489zm-19.05-17.677c-0.155 0.09311-0.61251 0-0.61251 0s-0.02321-0.45751 0.17047-0.52714c0.19367-0.06964 0.46525-0.05415 0.50393 0.0699 0.03895 0.12378 0.09311 0.36414-0.0619 0.45724z"
       fill="#8f230a"
       opacity=".636"
       stroke-width=".26677"
       id="path10" />
    <path
       d="m49.36 9.08a21.24 21.24 0 0 0-16.14 35.08l-2.81 2.84a6.07 6.07 0 0 0-7.26 1l-12.15 12.1a6.0811 6.0811 0 0 0 8.6 8.6l12.16-12.15a6.09 6.09 0 0 0 0.84-7.55l2.73-2.73a21.25 21.25 0 1 0 14-37.2zm0 39.53a18.26 18.26 0 1 1 18.27-18.26 18.28 18.28 0 0 1-18.27 18.26z"
       fill="#0a425a"
       id="path12" />
  </g>
  <g
     transform="matrix(.67012 0 0 .67012 28.26 31.414)"
     id="g24">
    <path
       d="m66.94 33.612c0.1163-0.65119 0.27904-1.256 0.16273-1.698-0.1163-0.44204-0.88381-2.3569-0.74429-3.0044 0.13952-0.64745 0.16273-3.4619 0.16273-4.1363 0-0.6744-0.7675-1.6748-0.7675-1.6748s0.55835-0.6744 0.72108-1.1629c0.16273-0.48846-0.1862-0.30225-0.1862-0.30225s0.0699-0.60477-0.44204-1.07c-0.51167-0.46525-1.6513-0.8606-1.6513-0.8606s1.07 0.82192 1.1863 1.698c0.01787 0.13499-0.30225 0.29665-0.60477 0.41856-0.62878 0.25396-3.3261-0.32572-4.6752-0.30225-1.3491 0.02321-3.8844 0.32573-4.2099 0.20942-0.32572-0.1163-1.3491-0.72108-1.6748-1.0233-0.32573-0.30225-2.1166-0.51166-2.1166-0.51166l-1.3491-1.5699s-0.19768 0.05815-0.62798 0-1.1863-0.58156-1.3258-1.0233c-0.13952-0.44204-0.03495-1.2095-0.08137-1.5585-0.04642-0.34894-0.73255-1.3723-0.73255-1.3723s0.73255 0.81418 0.87234 1.2327c0.13978 0.41856-0.10457 1.4654 0.09311 1.6398 0.19768 0.17447 0.83739 0.94197 1.2095 0.94197 0.37214 0 1.3955-0.44204 0.87234-1.5817-0.5234-1.1396-1.4654-1.6748-1.6049-2.0584-0.13952-0.38362-0.69788-0.66292-0.69788-0.66292s0.58156-1.0119 0.95371-1.0468c0.37214-0.03496 1.7562 0.32573 1.7562 0.32573s-1.0468-0.91876-1.7676-0.95371c-0.72082-0.03494-1.9421 1.2445-1.9421 1.2445s-1.419-0.13952-1.8143-0.04642c-0.39535 0.09311-0.45351 0.66292-0.60477 0.82565-0.15126 0.16273-0.48846 0.73255-0.41856 1.0233 0.0699 0.29078 0.16273 0.83739 0.15126 1.256-0.01178 0.41856-0.1163 1.822-0.05815 2.1206 0.03922 0.20088 0.25743 0.32226 0.40522 0.41029 0.09577-0.01867 0.18327-0.03868 0.22862-0.05362 0.12218-0.04081 0.62798-0.17447 0.73842-0.22089 0.11044-0.04642 0.44204-0.3372 0.44204-0.3372s-0.27317 0.41856-0.37802 0.47112c-0.10485 0.05255-0.30812 0.12218-0.48259 0.17447-0.10512 0.03147-0.23956 0.07149-0.35027 0.10991 0.15259 0.11711 0.4103 0.29585 0.55968 0.34574 0.18621 0.06216 0.91476-0.27904 0.91476-0.27904s0.55835 1.4267 0.77524 2.1088c0.21715 0.6824 0.83739 1.6281 0.99238 2.1088 0.155 0.48072-0.03095 1.6281 0.10857 2.0469 0.13952 0.41856 0.4962 1.8452 0.69787 2.2329 0.20168 0.38762 0.94597 0.85286 1.3336 0.94597 0.38762 0.09311 0.96144 0.75976 0.97692 1.07 0.01546 0.31025 0.2713 1.4576 0.2713 2.0157 0 0.55808-0.04642 1.1863 0 1.6513 0.04642 0.46525 0.48846 1.0233 0.34894 1.7676-0.13952 0.74429-0.9305 3.396-0.9305 3.396h1.3491s0.39535-0.55835 0.62798-0.69787-0.1163-0.55835 0-0.88381c0.1163-0.32573 0.20942-0.55835 0.18621-0.83739-0.02321-0.27904-0.27904-1.1629-0.20942-1.7911 0.0699-0.62798 0.44204-1.1863 0.48846-1.5817 0.04642-0.39535-0.46525-1.4886-0.39535-1.9306 0.0699-0.44204 0.41856-1.3955 0.7675-1.5817 0.34894-0.1862 0.72108 0.44204 1.4654 0.53487 0.74429 0.09311 3.1634 0.53488 4.3494 0.39536 1.1863-0.13952 1.977-0.74429 2.1398-0.83739 0.16273-0.09311 0.60477-1.3258 0.60477-1.3258s0.83739 2.2329 1.256 2.6749c0.41856 0.44204 1.1164 1.1396 1.2327 1.5585 0.1163 0.41856 0.37214 2.9307 0.20942 3.4424-0.16273 0.51167-0.80725 2.1088-0.80725 2.1088h1.1212s0.15099-1.1087 0.4303-1.3413c0.27904-0.23262 0.34894-0.51167 0.48846-0.69787 0.13952-0.1862-0.11684-1.8378-6.66e-4 -2.489zm-19.05-17.677c-0.155 0.09311-0.61251 0-0.61251 0s-0.02321-0.45751 0.17047-0.52714c0.19367-0.06964 0.46525-0.05415 0.50393 0.0699 0.03895 0.12378 0.09311 0.36414-0.0619 0.45724z"
       fill="#8f230a"
       opacity=".333"
       stroke-width=".26677"
       id="path16" />
    <path
       d="m55.345 43.598c0.1163-0.65119 0.27904-1.256 0.16273-1.698-0.1163-0.44204-0.88381-2.3569-0.74429-3.0044 0.13952-0.64745 0.16273-3.4619 0.16273-4.1363 0-0.6744-0.7675-1.6748-0.7675-1.6748s0.55835-0.6744 0.72108-1.1629c0.16273-0.48846-0.1862-0.30225-0.1862-0.30225s0.0699-0.60477-0.44204-1.07c-0.51167-0.46525-1.6513-0.8606-1.6513-0.8606s1.07 0.82192 1.1863 1.698c0.01787 0.13499-0.30225 0.29665-0.60477 0.41856-0.62878 0.25396-3.3261-0.32573-4.6752-0.30225-1.3491 0.02321-3.8844 0.32573-4.2099 0.20942-0.32572-0.1163-1.3491-0.72108-1.6748-1.0233-0.32572-0.30225-2.1166-0.51166-2.1166-0.51166l-1.3491-1.5699s-0.19768 0.05815-0.62798 0-1.1863-0.58156-1.3258-1.0233c-0.13952-0.44204-0.03495-1.2095-0.08137-1.5585-0.04642-0.34894-0.73255-1.3723-0.73255-1.3723s0.73255 0.81418 0.87234 1.2327c0.13978 0.41856-0.10457 1.4654 0.09311 1.6398 0.19768 0.17447 0.83739 0.94197 1.2095 0.94197 0.37214 0 1.3955-0.44204 0.87234-1.5817-0.5234-1.1396-1.4654-1.6748-1.6049-2.0584-0.13952-0.38362-0.69788-0.66292-0.69788-0.66292s0.58156-1.0119 0.95371-1.0468c0.37214-0.03496 1.7562 0.32573 1.7562 0.32573s-1.0468-0.91876-1.7676-0.95371c-0.72082-0.03494-1.9421 1.2445-1.9421 1.2445s-1.419-0.13952-1.8143-0.04642c-0.39535 0.09311-0.45351 0.66292-0.60477 0.82565-0.15126 0.16273-0.48846 0.73255-0.41856 1.0233 0.0699 0.29078 0.16273 0.83739 0.15126 1.256-0.01178 0.41856-0.1163 1.822-0.05815 2.1206 0.03922 0.20088 0.25743 0.32226 0.40522 0.41029 0.09577-0.01867 0.18327-0.03868 0.22862-0.05362 0.12218-0.04081 0.62798-0.17447 0.73842-0.22089 0.11044-0.04642 0.44204-0.3372 0.44204-0.3372s-0.27317 0.41856-0.37802 0.47112c-0.10485 0.05255-0.30812 0.12218-0.48259 0.17447-0.10512 0.03147-0.23956 0.07149-0.35027 0.10991 0.15259 0.11711 0.4103 0.29585 0.55968 0.34574 0.18621 0.06216 0.91476-0.27904 0.91476-0.27904s0.55835 1.4267 0.77524 2.1088c0.21715 0.6824 0.83739 1.6281 0.99238 2.1088 0.155 0.48072-0.03095 1.6281 0.10857 2.0469 0.13952 0.41856 0.4962 1.8452 0.69787 2.2329 0.20168 0.38762 0.94597 0.85286 1.3336 0.94597 0.38762 0.09311 0.96144 0.75976 0.97692 1.07 0.01546 0.31025 0.2713 1.4576 0.2713 2.0157 0 0.55808-0.04642 1.1863 0 1.6513 0.04642 0.46525 0.48846 1.0233 0.34894 1.7676-0.13952 0.74429-0.9305 3.396-0.9305 3.396h1.3491s0.39535-0.55835 0.62798-0.69787-0.1163-0.55835 0-0.88381c0.1163-0.32573 0.20942-0.55835 0.18621-0.83739-0.02321-0.27904-0.27904-1.1629-0.20942-1.7911 0.0699-0.62798 0.44204-1.1863 0.48846-1.5817 0.04642-0.39535-0.46525-1.4886-0.39535-1.9306 0.0699-0.44204 0.41856-1.3955 0.7675-1.5817 0.34893-0.1862 0.72108 0.44204 1.4654 0.53487 0.74429 0.09311 3.1634 0.53488 4.3494 0.39536 1.1863-0.13952 1.977-0.74429 2.1398-0.83739 0.16273-0.09311 0.60477-1.3258 0.60477-1.3258s0.83739 2.2329 1.256 2.6749c0.41856 0.44204 1.1164 1.1396 1.2327 1.5585 0.1163 0.41856 0.37214 2.9307 0.20942 3.4424-0.16273 0.51167-0.80725 2.1088-0.80725 2.1088h1.1212s0.15099-1.1087 0.4303-1.3413c0.27904-0.23262 0.34894-0.51167 0.48846-0.69787 0.13952-0.1862-0.11684-1.8378-6.67e-4 -2.489zm-19.05-17.677c-0.155 0.09311-0.61251 0-0.61251 0s-0.02321-0.45751 0.17047-0.52714c0.19367-0.06964 0.46525-0.05415 0.50393 0.0699 0.03895 0.12378 0.09311 0.36414-0.0619 0.45724z"
       fill="#8f230a"
       stroke-width=".26677"
       id="path18" />
    <path
       d="m61.546 37.488c0.1163-0.65119 0.27904-1.256 0.16273-1.698-0.1163-0.44204-0.88381-2.3569-0.74429-3.0044 0.13952-0.64745 0.16273-3.4619 0.16273-4.1363 0-0.6744-0.7675-1.6748-0.7675-1.6748s0.55835-0.6744 0.72108-1.1629c0.16273-0.48846-0.1862-0.30225-0.1862-0.30225s0.0699-0.60477-0.44204-1.07c-0.51167-0.46525-1.6513-0.8606-1.6513-0.8606s1.07 0.82192 1.1863 1.698c0.01787 0.13499-0.30225 0.29665-0.60477 0.41856-0.62878 0.25396-3.3261-0.32572-4.6752-0.30225-1.3491 0.02321-3.8844 0.32573-4.2099 0.20942-0.32572-0.1163-1.3491-0.72108-1.6748-1.0233-0.32572-0.30225-2.1166-0.51166-2.1166-0.51166l-1.3491-1.5699s-0.19768 0.05815-0.62798 0-1.1863-0.58156-1.3258-1.0233c-0.13952-0.44204-0.03495-1.2095-0.08137-1.5585-0.04642-0.34894-0.73255-1.3723-0.73255-1.3723s0.73255 0.81418 0.87234 1.2327c0.13978 0.41856-0.10457 1.4654 0.09311 1.6398 0.19768 0.17447 0.83739 0.94197 1.2095 0.94197 0.37214 0 1.3955-0.44204 0.87234-1.5817-0.5234-1.1396-1.4654-1.6748-1.6049-2.0584-0.13952-0.38362-0.69788-0.66292-0.69788-0.66292s0.58156-1.0119 0.95371-1.0468c0.37214-0.03496 1.7562 0.32573 1.7562 0.32573s-1.0468-0.91876-1.7676-0.95371c-0.72082-0.03494-1.9421 1.2445-1.9421 1.2445s-1.419-0.13952-1.8143-0.04642c-0.39535 0.09311-0.45351 0.66292-0.60477 0.82565-0.15126 0.16273-0.48846 0.73255-0.41856 1.0233 0.0699 0.29078 0.16273 0.83739 0.15126 1.256-0.01178 0.41856-0.1163 1.822-0.05815 2.1206 0.03922 0.20088 0.25743 0.32226 0.40522 0.41029 0.09577-0.01867 0.18327-0.03868 0.22862-0.05362 0.12218-0.04081 0.62798-0.17447 0.73842-0.22089 0.11044-0.04642 0.44204-0.3372 0.44204-0.3372s-0.27317 0.41856-0.37802 0.47112c-0.10485 0.05255-0.30812 0.12218-0.48259 0.17447-0.10512 0.03147-0.23956 0.07149-0.35027 0.10991 0.15259 0.11711 0.4103 0.29585 0.55968 0.34574 0.18621 0.06216 0.91476-0.27904 0.91476-0.27904s0.55835 1.4267 0.77524 2.1088c0.21715 0.6824 0.83739 1.6281 0.99238 2.1088 0.155 0.48072-0.03095 1.6281 0.10857 2.0469 0.13952 0.41856 0.4962 1.8452 0.69787 2.2329 0.20168 0.38762 0.94597 0.85286 1.3336 0.94597 0.38762 0.09311 0.96144 0.75976 0.97692 1.07 0.01546 0.31025 0.2713 1.4576 0.2713 2.0157 0 0.55808-0.04642 1.1863 0 1.6513 0.04642 0.46525 0.48846 1.0233 0.34894 1.7676-0.13952 0.74429-0.9305 3.396-0.9305 3.396h1.3491s0.39535-0.55835 0.62798-0.69787-0.1163-0.55835 0-0.88381c0.1163-0.32573 0.20942-0.55835 0.18621-0.83739-0.02321-0.27904-0.27904-1.1629-0.20942-1.7911 0.0699-0.62798 0.44204-1.1863 0.48846-1.5817 0.04642-0.39535-0.46525-1.4886-0.39535-1.9306 0.0699-0.44204 0.41856-1.3955 0.7675-1.5817 0.34893-0.1862 0.72108 0.44204 1.4654 0.53487 0.74429 0.09311 3.1634 0.53488 4.3494 0.39536 1.1863-0.13952 1.977-0.74429 2.1398-0.83739 0.16273-0.09311 0.60477-1.3258 0.60477-1.3258s0.83739 2.2329 1.256 2.6749c0.41856 0.44204 1.1164 1.1396 1.2327 1.5585 0.1163 0.41856 0.37214 2.9307 0.20942 3.4424-0.16273 0.51167-0.80725 2.1088-0.80725 2.1088h1.1212s0.15099-1.1087 0.4303-1.3413c0.27904-0.23262 0.34894-0.51167 0.48846-0.69787 0.13952-0.1862-0.11684-1.8378-6.66e-4 -2.489zm-19.05-17.677c-0.155 0.09311-0.61251 0-0.61251 0s-0.02321-0.45751 0.17047-0.52714c0.19367-0.06964 0.46525-0.05415 0.50393 0.0699 0.03895 0.12378 0.09311 0.36414-0.0619 0.45724z"
       fill="#8f230a"
       opacity=".636"
       stroke-width=".26677"
       id="path20" />
    <path
       d="m49.36 9.08a21.24 21.24 0 0 0-16.14 35.08l-2.81 2.84a6.07 6.07 0 0 0-7.26 1l-12.15 12.1a6.0811 6.0811 0 0 0 8.6 8.6l12.16-12.15a6.09 6.09 0 0 0 0.84-7.55l2.73-2.73a21.25 21.25 0 1 0 14-37.2zm0 39.53a18.26 18.26 0 1 1 18.27-18.26 18.28 18.28 0 0 1-18.27 18.26z"
       fill="#0a425a"
       id="path22" />
  </g>
  <g
     transform="matrix(.67988 0 0 .67988 -4.6697 -1.1544)"
     id="g34">
    <path
       d="m66.94 33.612c0.1163-0.65119 0.27904-1.256 0.16273-1.698-0.1163-0.44204-0.88381-2.3569-0.74429-3.0044 0.13952-0.64745 0.16273-3.4619 0.16273-4.1363 0-0.6744-0.7675-1.6748-0.7675-1.6748s0.55835-0.6744 0.72108-1.1629c0.16273-0.48846-0.1862-0.30225-0.1862-0.30225s0.0699-0.60477-0.44204-1.07c-0.51167-0.46525-1.6513-0.8606-1.6513-0.8606s1.07 0.82192 1.1863 1.698c0.01787 0.13499-0.30225 0.29665-0.60477 0.41856-0.62878 0.25396-3.3261-0.32572-4.6752-0.30225-1.3491 0.02321-3.8844 0.32573-4.2099 0.20942-0.32572-0.1163-1.3491-0.72108-1.6748-1.0233-0.32573-0.30225-2.1166-0.51166-2.1166-0.51166l-1.3491-1.5699s-0.19768 0.05815-0.62798 0-1.1863-0.58156-1.3258-1.0233c-0.13952-0.44204-0.03495-1.2095-0.08137-1.5585-0.04642-0.34894-0.73255-1.3723-0.73255-1.3723s0.73255 0.81418 0.87234 1.2327c0.13978 0.41856-0.10457 1.4654 0.09311 1.6398 0.19768 0.17447 0.83739 0.94197 1.2095 0.94197 0.37214 0 1.3955-0.44204 0.87234-1.5817-0.5234-1.1396-1.4654-1.6748-1.6049-2.0584-0.13952-0.38362-0.69788-0.66292-0.69788-0.66292s0.58156-1.0119 0.95371-1.0468c0.37214-0.03496 1.7562 0.32573 1.7562 0.32573s-1.0468-0.91876-1.7676-0.95371c-0.72082-0.03494-1.9421 1.2445-1.9421 1.2445s-1.419-0.13952-1.8143-0.04642c-0.39535 0.09311-0.45351 0.66292-0.60477 0.82565-0.15126 0.16273-0.48846 0.73255-0.41856 1.0233 0.0699 0.29078 0.16273 0.83739 0.15126 1.256-0.01178 0.41856-0.1163 1.822-0.05815 2.1206 0.03922 0.20088 0.25743 0.32226 0.40522 0.41029 0.09577-0.01867 0.18327-0.03868 0.22862-0.05362 0.12218-0.04081 0.62798-0.17447 0.73842-0.22089 0.11044-0.04642 0.44204-0.3372 0.44204-0.3372s-0.27317 0.41856-0.37802 0.47112c-0.10485 0.05255-0.30812 0.12218-0.48259 0.17447-0.10512 0.03147-0.23956 0.07149-0.35027 0.10991 0.15259 0.11711 0.4103 0.29585 0.55968 0.34574 0.18621 0.06216 0.91476-0.27904 0.91476-0.27904s0.55835 1.4267 0.77524 2.1088c0.21715 0.6824 0.83739 1.6281 0.99238 2.1088 0.155 0.48072-0.03095 1.6281 0.10857 2.0469 0.13952 0.41856 0.4962 1.8452 0.69787 2.2329 0.20168 0.38762 0.94597 0.85286 1.3336 0.94597 0.38762 0.09311 0.96144 0.75976 0.97692 1.07 0.01546 0.31025 0.2713 1.4576 0.2713 2.0157 0 0.55808-0.04642 1.1863 0 1.6513 0.04642 0.46525 0.48846 1.0233 0.34894 1.7676-0.13952 0.74429-0.9305 3.396-0.9305 3.396h1.3491s0.39535-0.55835 0.62798-0.69787-0.1163-0.55835 0-0.88381c0.1163-0.32573 0.20942-0.55835 0.18621-0.83739-0.02321-0.27904-0.27904-1.1629-0.20942-1.7911 0.0699-0.62798 0.44204-1.1863 0.48846-1.5817 0.04642-0.39535-0.46525-1.4886-0.39535-1.9306 0.0699-0.44204 0.41856-1.3955 0.7675-1.5817 0.34894-0.1862 0.72108 0.44204 1.4654 0.53487 0.74429 0.09311 3.1634 0.53488 4.3494 0.39536 1.1863-0.13952 1.977-0.74429 2.1398-0.83739 0.16273-0.09311 0.60477-1.3258 0.60477-1.3258s0.83739 2.2329 1.256 2.6749c0.41856 0.44204 1.1164 1.1396 1.2327 1.5585 0.1163 0.41856 0.37214 2.9307 0.20942 3.4424-0.16273 0.51167-0.80725 2.1088-0.80725 2.1088h1.1212s0.15099-1.1087 0.4303-1.3413c0.27904-0.23262 0.34894-0.51167 0.48846-0.69787 0.13952-0.1862-0.11684-1.8378-6.66e-4 -2.489zm-19.05-17.677c-0.155 0.09311-0.61251 0-0.61251 0s-0.02321-0.45751 0.17047-0.52714c0.19367-0.06964 0.46525-0.05415 0.50393 0.0699 0.03895 0.12378 0.09311 0.36414-0.0619 0.45724z"
       fill="#8f230a"
       opacity=".333"
       stroke-width=".26677"
       id="path26" />
    <path
       d="m55.345 43.598c0.1163-0.65119 0.27904-1.256 0.16273-1.698-0.1163-0.44204-0.88381-2.3569-0.74429-3.0044 0.13952-0.64745 0.16273-3.4619 0.16273-4.1363 0-0.6744-0.7675-1.6748-0.7675-1.6748s0.55835-0.6744 0.72108-1.1629c0.16273-0.48846-0.1862-0.30225-0.1862-0.30225s0.0699-0.60477-0.44204-1.07c-0.51167-0.46525-1.6513-0.8606-1.6513-0.8606s1.07 0.82192 1.1863 1.698c0.01787 0.13499-0.30225 0.29665-0.60477 0.41856-0.62878 0.25396-3.3261-0.32573-4.6752-0.30225-1.3491 0.02321-3.8844 0.32573-4.2099 0.20942-0.32572-0.1163-1.3491-0.72108-1.6748-1.0233-0.32572-0.30225-2.1166-0.51166-2.1166-0.51166l-1.3491-1.5699s-0.19768 0.05815-0.62798 0-1.1863-0.58156-1.3258-1.0233c-0.13952-0.44204-0.03495-1.2095-0.08137-1.5585-0.04642-0.34894-0.73255-1.3723-0.73255-1.3723s0.73255 0.81418 0.87234 1.2327c0.13978 0.41856-0.10457 1.4654 0.09311 1.6398 0.19768 0.17447 0.83739 0.94197 1.2095 0.94197 0.37214 0 1.3955-0.44204 0.87234-1.5817-0.5234-1.1396-1.4654-1.6748-1.6049-2.0584-0.13952-0.38362-0.69788-0.66292-0.69788-0.66292s0.58156-1.0119 0.95371-1.0468c0.37214-0.03496 1.7562 0.32573 1.7562 0.32573s-1.0468-0.91876-1.7676-0.95371c-0.72082-0.03494-1.9421 1.2445-1.9421 1.2445s-1.419-0.13952-1.8143-0.04642c-0.39535 0.09311-0.45351 0.66292-0.60477 0.82565-0.15126 0.16273-0.48846 0.73255-0.41856 1.0233 0.0699 0.29078 0.16273 0.83739 0.15126 1.256-0.01178 0.41856-0.1163 1.822-0.05815 2.1206 0.03922 0.20088 0.25743 0.32226 0.40522 0.41029 0.09577-0.01867 0.18327-0.03868 0.22862-0.05362 0.12218-0.04081 0.62798-0.17447 0.73842-0.22089 0.11044-0.04642 0.44204-0.3372 0.44204-0.3372s-0.27317 0.41856-0.37802 0.47112c-0.10485 0.05255-0.30812 0.12218-0.48259 0.17447-0.10512 0.03147-0.23956 0.07149-0.35027 0.10991 0.15259 0.11711 0.4103 0.29585 0.55968 0.34574 0.18621 0.06216 0.91476-0.27904 0.91476-0.27904s0.55835 1.4267 0.77524 2.1088c0.21715 0.6824 0.83739 1.6281 0.99238 2.1088 0.155 0.48072-0.03095 1.6281 0.10857 2.0469 0.13952 0.41856 0.4962 1.8452 0.69787 2.2329 0.20168 0.38762 0.94597 0.85286 1.3336 0.94597 0.38762 0.09311 0.96144 0.75976 0.97692 1.07 0.01546 0.31025 0.2713 1.4576 0.2713 2.0157 0 0.55808-0.04642 1.1863 0 1.6513 0.04642 0.46525 0.48846 1.0233 0.34894 1.7676-0.13952 0.74429-0.9305 3.396-0.9305 3.396h1.3491s0.39535-0.55835 0.62798-0.69787-0.1163-0.55835 0-0.88381c0.1163-0.32573 0.20942-0.55835 0.18621-0.83739-0.02321-0.27904-0.27904-1.1629-0.20942-1.7911 0.0699-0.62798 0.44204-1.1863 0.48846-1.5817 0.04642-0.39535-0.46525-1.4886-0.39535-1.9306 0.0699-0.44204 0.41856-1.3955 0.7675-1.5817 0.34893-0.1862 0.72108 0.44204 1.4654 0.53487 0.74429 0.09311 3.1634 0.53488 4.3494 0.39536 1.1863-0.13952 1.977-0.74429 2.1398-0.83739 0.16273-0.09311 0.60477-1.3258 0.60477-1.3258s0.83739 2.2329 1.256 2.6749c0.41856 0.44204 1.1164 1.1396 1.2327 1.5585 0.1163 0.41856 0.37214 2.9307 0.20942 3.4424-0.16273 0.51167-0.80725 2.1088-0.80725 2.1088h1.1212s0.15099-1.1087 0.4303-1.3413c0.27904-0.23262 0.34894-0.51167 0.48846-0.69787 0.13952-0.1862-0.11684-1.8378-6.67e-4 -2.489zm-19.05-17.677c-0.155 0.09311-0.61251 0-0.61251 0s-0.02321-0.45751 0.17047-0.52714c0.19367-0.06964 0.46525-0.05415 0.50393 0.0699 0.03895 0.12378 0.09311 0.36414-0.0619 0.45724z"
       fill="#8f230a"
       stroke-width=".26677"
       id="path28" />
    <path
       d="m61.546 37.488c0.1163-0.65119 0.27904-1.256 0.16273-1.698-0.1163-0.44204-0.88381-2.3569-0.74429-3.0044 0.13952-0.64745 0.16273-3.4619 0.16273-4.1363 0-0.6744-0.7675-1.6748-0.7675-1.6748s0.55835-0.6744 0.72108-1.1629c0.16273-0.48846-0.1862-0.30225-0.1862-0.30225s0.0699-0.60477-0.44204-1.07c-0.51167-0.46525-1.6513-0.8606-1.6513-0.8606s1.07 0.82192 1.1863 1.698c0.01787 0.13499-0.30225 0.29665-0.60477 0.41856-0.62878 0.25396-3.3261-0.32572-4.6752-0.30225-1.3491 0.02321-3.8844 0.32573-4.2099 0.20942-0.32572-0.1163-1.3491-0.72108-1.6748-1.0233-0.32572-0.30225-2.1166-0.51166-2.1166-0.51166l-1.3491-1.5699s-0.19768 0.05815-0.62798 0-1.1863-0.58156-1.3258-1.0233c-0.13952-0.44204-0.03495-1.2095-0.08137-1.5585-0.04642-0.34894-0.73255-1.3723-0.73255-1.3723s0.73255 0.81418 0.87234 1.2327c0.13978 0.41856-0.10457 1.4654 0.09311 1.6398 0.19768 0.17447 0.83739 0.94197 1.2095 0.94197 0.37214 0 1.3955-0.44204 0.87234-1.5817-0.5234-1.1396-1.4654-1.6748-1.6049-2.0584-0.13952-0.38362-0.69788-0.66292-0.69788-0.66292s0.58156-1.0119 0.95371-1.0468c0.37214-0.03496 1.7562 0.32573 1.7562 0.32573s-1.0468-0.91876-1.7676-0.95371c-0.72082-0.03494-1.9421 1.2445-1.9421 1.2445s-1.419-0.13952-1.8143-0.04642c-0.39535 0.09311-0.45351 0.66292-0.60477 0.82565-0.15126 0.16273-0.48846 0.73255-0.41856 1.0233 0.0699 0.29078 0.16273 0.83739 0.15126 1.256-0.01178 0.41856-0.1163 1.822-0.05815 2.1206 0.03922 0.20088 0.25743 0.32226 0.40522 0.41029 0.09577-0.01867 0.18327-0.03868 0.22862-0.05362 0.12218-0.04081 0.62798-0.17447 0.73842-0.22089 0.11044-0.04642 0.44204-0.3372 0.44204-0.3372s-0.27317 0.41856-0.37802 0.47112c-0.10485 0.05255-0.30812 0.12218-0.48259 0.17447-0.10512 0.03147-0.23956 0.07149-0.35027 0.10991 0.15259 0.11711 0.4103 0.29585 0.55968 0.34574 0.18621 0.06216 0.91476-0.27904 0.91476-0.27904s0.55835 1.4267 0.77524 2.1088c0.21715 0.6824 0.83739 1.6281 0.99238 2.1088 0.155 0.48072-0.03095 1.6281 0.10857 2.0469 0.13952 0.41856 0.4962 1.8452 0.69787 2.2329 0.20168 0.38762 0.94597 0.85286 1.3336 0.94597 0.38762 0.09311 0.96144 0.75976 0.97692 1.07 0.01546 0.31025 0.2713 1.4576 0.2713 2.0157 0 0.55808-0.04642 1.1863 0 1.6513 0.04642 0.46525 0.48846 1.0233 0.34894 1.7676-0.13952 0.74429-0.9305 3.396-0.9305 3.396h1.3491s0.39535-0.55835 0.62798-0.69787-0.1163-0.55835 0-0.88381c0.1163-0.32573 0.20942-0.55835 0.18621-0.83739-0.02321-0.27904-0.27904-1.1629-0.20942-1.7911 0.0699-0.62798 0.44204-1.1863 0.48846-1.5817 0.04642-0.39535-0.46525-1.4886-0.39535-1.9306 0.0699-0.44204 0.41856-1.3955 0.7675-1.5817 0.34893-0.1862 0.72108 0.44204 1.4654 0.53487 0.74429 0.09311 3.1634 0.53488 4.3494 0.39536 1.1863-0.13952 1.977-0.74429 2.1398-0.83739 0.16273-0.09311 0.60477-1.3258 0.60477-1.3258s0.83739 2.2329 1.256 2.6749c0.41856 0.44204 1.1164 1.1396 1.2327 1.5585 0.1163 0.41856 0.37214 2.9307 0.20942 3.4424-0.16273 0.51167-0.80725 2.1088-0.80725 2.1088h1.1212s0.15099-1.1087 0.4303-1.3413c0.27904-0.23262 0.34894-0.51167 0.48846-0.69787 0.13952-0.1862-0.11684-1.8378-6.66e-4 -2.489zm-19.05-17.677c-0.155 0.09311-0.61251 0-0.61251 0s-0.02321-0.45751 0.17047-0.52714c0.19367-0.06964 0.46525-0.05415 0.50393 0.0699 0.03895 0.12378 0.09311 0.36414-0.0619 0.45724z"
       fill="#8f230a"
       opacity=".636"
       stroke-width=".26677"
       id="path30" />
    <path
       d="m49.36 9.08a21.24 21.24 0 0 0-16.14 35.08l-2.81 2.84a6.07 6.07 0 0 0-7.26 1l-12.15 12.1a6.0811 6.0811 0 0 0 8.6 8.6l12.16-12.15a6.09 6.09 0 0 0 0.84-7.55l2.73-2.73a21.25 21.25 0 1 0 14-37.2zm0 39.53a18.26 18.26 0 1 1 18.27-18.26 18.28 18.28 0 0 1-18.27 18.26z"
       fill="#0a425a"
       id="path32" />
  </g>
</svg>
