<?xml version="1.0" encoding="UTF-8" standalone="no"?>
<!-- Created with Inkscape (http://www.inkscape.org/) -->

<svg
   xmlns:dc="http://purl.org/dc/elements/1.1/"
   xmlns:cc="http://creativecommons.org/ns#"
   xmlns:rdf="http://www.w3.org/1999/02/22-rdf-syntax-ns#"
   xmlns:svg="http://www.w3.org/2000/svg"
   xmlns="http://www.w3.org/2000/svg"
   xmlns:sodipodi="http://sodipodi.sourceforge.net/DTD/sodipodi-0.dtd"
   xmlns:inkscape="http://www.inkscape.org/namespaces/inkscape"
   width="100"
   height="100"
   viewBox="0 0 26.458333 26.458334"
   version="1.1"
   id="svg8"
   inkscape:version="0.92.4 (5da689c313, 2019-01-14)"
   sodipodi:docname="taux_haem.svg">
  <defs
     id="defs2" />
  <sodipodi:namedview
     id="base"
     pagecolor="#ffffff"
     bordercolor="#666666"
     borderopacity="1.0"
     inkscape:pageopacity="0.0"
     inkscape:pageshadow="2"
     inkscape:zoom="1.979899"
     inkscape:cx="-217.93462"
     inkscape:cy="62.0006"
     inkscape:document-units="mm"
     inkscape:current-layer="layer1"
     showgrid="false"
     units="px"
     inkscape:window-width="1920"
     inkscape:window-height="1016"
     inkscape:window-x="0"
     inkscape:window-y="27"
     inkscape:window-maximized="1"
     inkscape:snap-global="false" />
  <metadata
     id="metadata5">
    <rdf:RDF>
      <cc:Work
         rdf:about="">
        <dc:format>image/svg+xml</dc:format>
        <dc:type
           rdf:resource="http://purl.org/dc/dcmitype/StillImage" />
        <dc:title />
      </cc:Work>
    </rdf:RDF>
  </metadata>
  <g
     inkscape:label="Calque 1"
     inkscape:groupmode="layer"
     id="layer1"
     transform="translate(0,-270.54165)">
    <path
       id="path53"
       d="m 7.0920155,281.13394 c -0.5535751,-0.17011 -1.1289209,-0.76526 -1.4045034,-1.45285 -0.293074,-0.73124 -0.3740896,-1.30356 -0.3696053,-2.61101 0.00377,-1.09836 0.018185,-1.25411 0.168235,-1.81737 0.2027166,-0.76096 0.6293952,-1.64063 0.9906946,-2.04248 1.5914911,-1.77012 3.6289106,0.14514 3.7787996,3.55223 0.07493,1.70313 -0.2595103,3.07911 -0.9234613,3.79941 -0.4097222,0.4445 -0.7659262,0.59422 -1.4617532,0.61443 -0.32189,0.009 -0.672172,-0.01 -0.778406,-0.0424 z m 1.535521,-0.17063 c 1.0262832,-0.45397 1.5223505,-1.68734 1.5287135,-3.80082 0.0044,-1.47968 -0.2859913,-2.61918 -0.9049033,-3.55015 -0.4410002,-0.66336 -0.9202432,-0.97787 -1.4900622,-0.97787 -1.4489258,0 -2.6011673,2.52428 -2.3645294,5.18009 0.1703012,1.91132 0.7409115,2.94294 1.7929584,3.24155 0.375392,0.10655 1.091681,0.0603 1.437823,-0.0928 z m -1.435176,-0.005 c -0.7598616,-0.24839 -1.3038921,-1.01257 -1.5394764,-2.16244 -0.5589052,-2.72798 0.343686,-5.65856 1.8604094,-6.04048 1.176589,-0.29627 2.3114522,1.36455 2.5144105,3.67972 0.146759,1.67409 -0.2167793,3.34898 -0.8738573,4.02606 -0.3707862,0.38207 -0.6780172,0.50886 -1.2834252,0.52964 -0.288007,0.01 -0.593134,-0.005 -0.678061,-0.0325 z m 1.248923,-0.10458 c 0.8790042,-0.29951 1.3909432,-1.32233 1.5208522,-3.03856 0.1453553,-1.92033 -0.336105,-3.74066 -1.2097102,-4.57373 -0.331676,-0.31628 -0.61497,-0.44584 -0.974413,-0.4456 -1.3001148,9.3e-4 -2.3591087,2.2571 -2.2174848,4.72452 0.1068975,1.8624 0.6351957,3.01281 1.5289938,3.32952 0.343534,0.12173 1.000315,0.1236 1.351762,0.004 z m -1.064669,-0.26447 c -0.134716,-0.0722 -0.269379,-0.22135 -0.361593,-0.40043 -0.121542,-0.23605 -0.1766186,-0.28536 -0.3187031,-0.28536 -0.1983804,0 -0.5141746,-0.24322 -0.6454768,-0.49713 -0.1032574,-0.19967 -0.1161936,-0.47377 -0.032722,-0.69331 0.047158,-0.12404 0.030448,-0.17656 -0.093101,-0.29263 -0.2870141,-0.26964 -0.3256828,-0.76425 -0.086093,-1.10123 0.1022451,-0.14381 0.1019924,-0.15825 -0.00539,-0.30803 -0.194359,-0.2711 -0.2060981,-0.55192 -0.036964,-0.88423 0.127312,-0.25014 0.1408346,-0.32757 0.087541,-0.50121 -0.09443,-0.30768 -0.00957,-0.62208 0.2335102,-0.86516 0.1633374,-0.16334 0.2126579,-0.26385 0.2126579,-0.43339 0,-0.4361 0.3734271,-0.83067 0.7861528,-0.83067 0.108502,0 0.201113,-0.0385 0.221681,-0.0921 0.112013,-0.2919 0.785856,-0.43423 1.154147,-0.24378 0.198722,0.10276 0.424852,0.42159 0.425227,0.59954 1.29e-4,0.0603 0.09691,0.19459 0.2150882,0.29835 0.26924,0.23639 0.383588,0.57843 0.286496,0.85695 -0.06298,0.18067 -0.05297,0.21681 0.112143,0.40487 0.186938,0.2129 0.249023,0.42925 0.245633,0.85597 -0.0012,0.13554 0.0156,0.38943 0.03706,0.56422 0.02879,0.23451 0.01187,0.37499 -0.06455,0.53605 -0.09497,0.20014 -0.09543,0.22987 -0.0056,0.35818 0.15991,0.2283 0.130016,0.74266 -0.05601,0.96374 -0.112464,0.13366 -0.154124,0.25543 -0.154419,0.45137 -6.99e-4,0.4156 -0.368277,0.85212 -0.7185662,0.85318 -0.09688,2.3e-4 -0.14438,0.0489 -0.172409,0.17657 -0.03991,0.18169 -0.270006,0.43428 -0.506098,0.55558 -0.200444,0.10298 -0.517674,0.0838 -0.759681,-0.046 z m 0.788888,-0.0639 c 0.236086,-0.12121 0.480193,-0.45222 0.413305,-0.56044 -0.02091,-0.0338 -0.09902,-0.0615 -0.173603,-0.0615 -0.07458,0 -0.20724,-0.0664 -0.294792,-0.14761 -0.192381,-0.17838 -0.426355,-0.17371 -0.732836,0.0147 -0.118591,0.0729 -0.250273,0.13261 -0.292627,0.13274 -0.208709,7e-4 0.04427,0.45655 0.339948,0.61266 0.291829,0.15409 0.454893,0.15617 0.740605,0.009 z m -0.924846,-0.77943 c 0.176015,-0.12329 0.172547,-0.17612 -0.01724,-0.26259 -0.326442,-0.14873 -0.5173082,-0.78629 -0.336522,-1.12409 0.05596,-0.10457 0.04276,-0.11914 -0.1078097,-0.11893 -0.3625879,4.6e-4 -0.7568367,0.41755 -0.7568367,0.80064 0,0.22551 0.194412,0.56208 0.3955061,0.6847 0.2306714,0.14067 0.6367313,0.15067 0.8228993,0.0203 z m 1.8501832,-0.0289 c 0.218281,-0.13308 0.381472,-0.44153 0.3811,-0.72031 -4.66e-4,-0.37786 -0.395508,-0.75664 -0.7890262,-0.75664 -0.177443,0 -0.178665,0.002 -0.116991,0.2335 0.09676,0.36253 0.01371,0.64773 -0.260814,0.89575 -0.219434,0.19825 -0.230895,0.22384 -0.136869,0.30559 0.231058,0.20089 0.632149,0.21919 0.9226002,0.0421 z m -0.8475152,-0.40199 c 0.191835,-0.18379 0.319986,-0.52031 0.264484,-0.69453 -0.01809,-0.0568 -0.06039,-0.1771 -0.09403,-0.26741 l -0.06115,-0.1642 -0.212859,0.12559 c -0.2561,0.1511 -0.755851,0.12939 -0.944148,-0.041 -0.115067,-0.10414 -0.122334,-0.10002 -0.214996,0.12175 -0.123541,0.29567 -0.120944,0.44707 0.01191,0.69406 0.256154,0.47622 0.873121,0.58758 1.250784,0.22575 z m 1.4086372,-0.78961 c 0.224926,-0.36394 0.133332,-0.88602 -0.19295,-1.0998 -0.366127,-0.2399 -0.8493222,-0.17934 -0.8493222,0.10643 0,0.0866 -0.04158,0.25705 -0.09241,0.37869 -0.05082,0.12164 -0.09224,0.22471 -0.09203,0.22904 2.09e-4,0.004 0.124463,0.0113 0.276123,0.0155 0.318649,0.009 0.5547702,0.143 0.6996902,0.39774 0.05605,0.0985 0.10658,0.17932 0.112287,0.17953 0.0057,1.9e-4 0.06808,-0.093 0.138614,-0.2071 z m -3.3617114,-0.19009 c 0.1089949,-0.0831 0.3114596,-0.16927 0.4499215,-0.19141 l 0.2517487,-0.0402 -0.0902,-0.18082 c -0.0576,-0.11546 -0.082538,-0.30791 -0.068996,-0.53246 l 0.021207,-0.35164 -0.2075235,-0.0199 c -0.4725494,-0.0452 -0.8705754,0.30775 -0.8705754,0.77198 0,0.24587 0.1851413,0.69561 0.2863606,0.69561 0.016439,0 0.1190663,-0.068 0.2280611,-0.15116 z m 1.8630542,-0.12411 c 0.38678,-0.25343 0.474551,-0.79066 0.190107,-1.16359 -0.290157,-0.38041 -0.779215,-0.43518 -1.144138,-0.12812 -0.348298,0.29308 -0.397128,0.751 -0.11793,1.10594 0.259619,0.33005 0.727904,0.41121 1.071961,0.18577 z m 1.6259492,-1.3487 c -4.66e-4,-0.14026 -0.02678,-0.29586 -0.05836,-0.3458 -0.04894,-0.0774 -0.07836,-0.0717 -0.199274,0.0385 -0.328942,0.29982 -0.7384222,0.35445 -1.0828332,0.14446 -0.110939,-0.0676 -0.214898,-0.12298 -0.231021,-0.12298 -0.08109,0 -0.0095,0.16032 0.155502,0.34825 0.101651,0.11577 0.184817,0.23525 0.184817,0.2655 0,0.0303 0.147702,0.0398 0.328228,0.0211 0.2349432,-0.0242 0.3793852,-0.006 0.5082462,0.0634 0.169668,0.0917 0.186221,0.0899 0.28783,-0.0301 0.0653,-0.0771 0.107437,-0.22791 0.106867,-0.38235 z m -3.2378043,0.0738 c 0.2798344,-0.006 0.2869695,-0.0105 0.2514935,-0.17202 -0.020082,-0.0914 -0.00962,-0.23697 0.023254,-0.32343 0.057755,-0.15191 0.050455,-0.15825 -0.2169114,-0.18839 -0.1734357,-0.0195 -0.3342538,-0.0853 -0.4309746,-0.17613 l -0.1542962,-0.14496 -0.1177234,0.15322 c -0.1447347,0.18838 -0.1576009,0.61117 -0.026324,0.86503 0.089765,0.17359 0.1008603,0.17764 0.2388075,0.0873 0.079568,-0.0521 0.2742711,-0.0974 0.4326743,-0.10058 z m 1.1790031,-0.26725 c 0.36275,0 0.396391,-0.0111 0.396391,-0.13055 0,-0.10154 -0.04805,-0.13835 -0.216205,-0.16564 -0.118913,-0.0193 -0.29624,-0.0921 -0.39406,-0.16173 -0.161197,-0.11478 -0.193746,-0.1184 -0.347512,-0.0386 -0.09331,0.0484 -0.192785,0.12449 -0.221053,0.16907 -0.06096,0.0961 -0.06936,0.42951 -0.01443,0.57267 0.03322,0.0866 0.06508,0.0761 0.219665,-0.072 0.159923,-0.15322 0.226598,-0.17323 0.577201,-0.17323 z m 1.4661242,0.007 c 0.252937,-0.10568 0.455147,-0.35631 0.505946,-0.62709 0.07098,-0.37833 -0.250669,-0.82552 -0.6644262,-0.92376 -0.163386,-0.0388 -0.165638,-0.0354 -0.108667,0.16323 0.1108,0.38634 -0.115111,0.81685 -0.544739,1.0381 -0.121512,0.0626 -0.130623,0.0879 -0.06163,0.17098 0.09466,0.11406 0.40282,0.25761 0.560432,0.26108 0.06038,10e-4 0.2012722,-0.0358 0.3130842,-0.0825 z m -0.7617042,-0.47237 c 0.218944,-0.11237 0.38492,-0.36811 0.415608,-0.64038 0.06732,-0.59728 -0.482089,-1.03039 -1.052889,-0.83002 -0.199678,0.0701 -0.25128,0.11667 -0.23454,0.21171 0.08027,0.45573 0.07485,0.64945 -0.02398,0.85772 -0.102089,0.21514 -0.101699,0.22778 0.0097,0.31329 0.248126,0.19051 0.615036,0.22681 0.886125,0.0877 z m -1.287428,-0.13656 c 0.277399,-0.18476 0.450089,-0.53892 0.398048,-0.81633 -0.159017,-0.84763 -1.3557134,-0.90534 -1.5789931,-0.0761 -0.1883049,0.69931 0.5890014,1.28674 1.1809451,0.89247 z m 2.1993562,-1.2945 c 0.02324,-0.35454 -0.108699,-0.62442 -0.3717062,-0.76043 -0.253582,-0.13113 -0.616291,-0.13011 -0.818381,0.002 -0.147778,0.0968 -0.398749,0.43883 -0.399273,0.5441 -1.3e-4,0.0254 0.125898,0.0462 0.280054,0.0462 0.307602,0 0.590729,0.11902 0.719098,0.30229 0.07363,0.10513 0.3411482,0.18938 0.5099552,0.16062 0.03388,-0.006 0.07,-0.13857 0.08025,-0.2951 z m -1.8107452,-0.0357 c 0.0179,-0.029 -0.03511,-0.11621 -0.117788,-0.19388 -0.19496,-0.18316 -0.299597,-0.50759 -0.249623,-0.77398 0.04503,-0.24003 0.0093,-0.25439 -0.305346,-0.1229 -0.2479251,0.10358 -0.4608385,0.41813 -0.461221,0.68136 -2.585e-4,0.18226 0.00378,0.18454 0.2923964,0.16479 0.2334896,-0.016 0.3362626,0.011 0.5082856,0.13333 0.241655,0.1719 0.286565,0.18689 0.333296,0.11128 z m 0.390181,-0.63899 c 0.188665,-0.19893 0.508876,-0.31704 0.759703,-0.28023 0.21239,0.0312 0.224817,-0.0323 0.05946,-0.30346 -0.237194,-0.38901 -0.741132,-0.50072 -1.11679,-0.24756 -0.283716,0.19119 -0.374365,0.38581 -0.344808,0.74029 0.01842,0.2209 0.06944,0.34227 0.202056,0.48069 l 0.177416,0.18519 0.05182,-0.20347 c 0.0285,-0.1119 0.123517,-0.27906 0.211146,-0.37145 z"
       style="fill:#8f230a;fill-opacity:0;stroke:#8f230a;stroke-width:0.06160565;stroke-opacity:1;opacity:1"
       inkscape:connector-curvature="0" />
    <path
       id="path53-3"
       d="m 4.8776671,293.14919 c -0.5592211,-0.17184 -1.1404345,-0.77306 -1.4188276,-1.46766 -0.2960629,-0.7387 -0.3779047,-1.31686 -0.3733747,-2.63764 0.00381,-1.10956 0.01837,-1.2669 0.1699507,-1.83591 0.204784,-0.76872 0.6358142,-1.65736 1.0007982,-2.06331 1.607722,-1.78817 3.6659192,0.14662 3.8173372,3.58846 0.07569,1.7205 -0.262157,3.11051 -0.9328792,3.83816 -0.4139006,0.44903 -0.7737371,0.60028 -1.4766607,0.62069 -0.3251724,0.009 -0.6790271,-0.01 -0.7863439,-0.0428 z m 1.551181,-0.17237 c 1.0367498,-0.4586 1.5378748,-1.70454 1.5443028,-3.83958 0.0045,-1.49477 -0.288907,-2.64589 -0.9141317,-3.58636 -0.445497,-0.67012 -0.9296279,-0.98784 -1.5052579,-0.98784 -1.4637027,0 -2.6276953,2.55002 -2.3886441,5.23292 0.1720381,1.93081 0.7484677,2.97295 1.8112437,3.27461 0.3792202,0.10763 1.1028141,0.0609 1.4524872,-0.0937 z m -1.4498133,-0.005 c -0.7676107,-0.25093 -1.3171896,-1.0229 -1.5551765,-2.1845 -0.5646051,-2.7558 0.3471911,-5.71627 1.8793829,-6.10208 1.1885878,-0.29929 2.3350257,1.37847 2.5400527,3.71725 0.148256,1.69116 -0.21899,3.38313 -0.8827686,4.06711 -0.374568,0.38597 -0.6849315,0.51405 -1.2965143,0.53505 -0.2909437,0.01 -0.599183,-0.005 -0.6849762,-0.0328 z m 1.26166,-0.10565 c 0.8879692,-0.30256 1.4051291,-1.33581 1.5363631,-3.06955 0.146837,-1.93991 -0.339533,-3.77881 -1.2220476,-4.62037 -0.3350589,-0.31951 -0.6212419,-0.45039 -0.9843502,-0.45015 -1.3133742,9.4e-4 -2.3831683,2.28012 -2.2401,4.7727 0.1079876,1.88139 0.6416737,3.04354 1.5445875,3.36348 0.3470368,0.12297 1.0105163,0.12486 1.3655472,0.004 z m -1.0755264,-0.26716 c -0.13609,-0.073 -0.2721267,-0.22361 -0.3652808,-0.40453 -0.1227819,-0.23845 -0.1784199,-0.28826 -0.3219535,-0.28826 -0.2004035,0 -0.5194184,-0.2457 -0.6520597,-0.5022 -0.1043105,-0.20171 -0.1173785,-0.4786 -0.033056,-0.70039 0.047639,-0.1253 0.030759,-0.17835 -0.09405,-0.29561 -0.2899412,-0.27238 -0.3290043,-0.77205 -0.086971,-1.11246 0.1032878,-0.14527 0.1030326,-0.15986 -0.00545,-0.31117 -0.1963364,-0.27345 -0.2081953,-0.55713 -0.037337,-0.89283 0.1286103,-0.25269 0.1422709,-0.3309 0.088434,-0.50632 -0.095393,-0.31082 -0.00967,-0.62842 0.2358916,-0.87398 0.1650032,-0.165 0.2148267,-0.26654 0.2148267,-0.43781 0,-0.44055 0.3772355,-0.83914 0.7941701,-0.83914 0.1096083,0 0.2031646,-0.0389 0.2239416,-0.093 0.1131563,-0.29488 0.7938711,-0.43866 1.1659179,-0.24627 0.2007486,0.10381 0.4291846,0.4259 0.4295635,0.60566 1.306e-4,0.0609 0.097903,0.19657 0.2172819,0.30138 0.2719861,0.23881 0.3875001,0.58434 0.2894179,0.8657 -0.063623,0.18251 -0.053511,0.21902 0.1132865,0.40899 0.1888453,0.21508 0.2515623,0.43364 0.2481383,0.86471 -0.0012,0.13692 0.01576,0.3934 0.03744,0.56997 0.02909,0.23691 0.012,0.37881 -0.06521,0.54152 -0.09594,0.20218 -0.09641,0.23221 -0.0056,0.36183 0.161541,0.23063 0.131342,0.75024 -0.05658,0.97357 -0.1136112,0.13502 -0.1556958,0.25803 -0.1559945,0.45597 -7.057e-4,0.41984 -0.3720324,0.86081 -0.7258944,0.86189 -0.097863,2.3e-4 -0.1458518,0.0494 -0.1741673,0.17836 -0.040313,0.18354 -0.2727596,0.43872 -0.5112591,0.56125 -0.2024888,0.10403 -0.5229534,0.0847 -0.7674283,-0.0464 z m 0.7969328,-0.0645 c 0.2384941,-0.12245 0.4850911,-0.45683 0.4175209,-0.56616 -0.021122,-0.0342 -0.1000296,-0.0621 -0.1753739,-0.0621 -0.075344,0 -0.2093533,-0.0671 -0.2977988,-0.14912 -0.1943428,-0.1802 -0.4307023,-0.17548 -0.7403098,0.0148 -0.1198004,0.0736 -0.2528255,0.13396 -0.2956113,0.13409 -0.2108375,7.1e-4 0.044721,0.46121 0.3434154,0.61892 0.294805,0.15565 0.4595324,0.15776 0.7481575,0.01 z M 5.027824,291.74713 c 0.17781,-0.12454 0.1743067,-0.17791 -0.017413,-0.26526 -0.3297714,-0.15026 -0.5225843,-0.79432 -0.339954,-1.13556 0.056535,-0.10564 0.043198,-0.12035 -0.1089095,-0.12015 -0.3662858,4.7e-4 -0.7645554,0.42182 -0.7645554,0.80881 0,0.22781 0.1963948,0.56781 0.3995397,0.69169 0.2330239,0.1421 0.6432251,0.1522 0.8312916,0.0205 z m 1.8690522,-0.0292 c 0.2205069,-0.13444 0.385362,-0.44603 0.3849856,-0.72766 -4.704e-4,-0.38171 -0.3995407,-0.76436 -0.7970725,-0.76436 -0.1792528,0 -0.1804875,0.002 -0.118184,0.23589 0.097751,0.36622 0.013854,0.65433 -0.2634736,0.90489 -0.2216722,0.20027 -0.2332502,0.22611 -0.1382653,0.3087 0.2334147,0.20294 0.6385959,0.22143 0.9320098,0.0425 z m -0.8561586,-0.40609 c 0.1937913,-0.18566 0.3232488,-0.52561 0.2671807,-0.70161 -0.018276,-0.0574 -0.06101,-0.17891 -0.094985,-0.27014 l -0.06177,-0.16588 -0.2150296,0.12687 c -0.2587121,0.15264 -0.7635599,0.13071 -0.9537767,-0.0414 -0.1162407,-0.1052 -0.1235815,-0.10104 -0.2171883,0.12299 -0.1248015,0.2987 -0.1221779,0.45164 0.012029,0.70114 0.2587655,0.48108 0.8820249,0.59357 1.2635395,0.22806 z m 1.4230033,-0.79766 c 0.22722,-0.36765 0.134691,-0.89506 -0.1949182,-1.11103 -0.3698613,-0.24234 -0.8579838,-0.18116 -0.8579838,0.10753 0,0.0875 -0.04201,0.25966 -0.093352,0.38254 -0.051343,0.12288 -0.09318,0.227 -0.092971,0.23138 2.117e-4,0.004 0.125732,0.0114 0.2789393,0.0156 0.3218984,0.009 0.5604275,0.14445 0.7068252,0.4018 0.056623,0.0995 0.1076673,0.18114 0.1134324,0.18136 0.00576,1.8e-4 0.068779,-0.0939 0.1400281,-0.20921 z m -3.3959962,-0.19162 c 0.1101065,-0.084 0.314636,-0.171 0.4545101,-0.19336 l 0.2543162,-0.0407 -0.091123,-0.18266 c -0.058188,-0.11664 -0.08338,-0.31105 -0.0697,-0.53789 l 0.021423,-0.35519 -0.20964,-0.0201 c -0.4773687,-0.0457 -0.879454,0.31089 -0.879454,0.77985 0,0.24838 0.1870295,0.7027 0.289281,0.7027 0.016606,0 0.1202807,-0.0687 0.2303868,-0.15269 z m 1.8820548,-0.12538 c 0.390724,-0.25601 0.4793909,-0.79872 0.1920453,-1.17545 -0.293116,-0.3843 -0.7871619,-0.43962 -1.1558058,-0.12943 -0.3518506,0.29606 -0.4011785,0.75865 -0.1191335,1.11721 0.2622672,0.33342 0.7353278,0.4154 1.082894,0.18767 z m 1.6425304,-1.36246 c -4.7e-4,-0.14168 -0.02705,-0.29887 -0.05896,-0.34932 -0.04944,-0.0782 -0.07916,-0.0724 -0.2013066,0.0389 -0.3322975,0.30288 -0.7459535,0.35807 -1.0938761,0.14594 -0.1120708,-0.0683 -0.2170905,-0.12424 -0.233378,-0.12424 -0.081913,0 -0.0096,0.16195 0.1570883,0.3518 0.1026876,0.11695 0.1867019,0.23765 0.1867019,0.26821 0,0.0306 0.1492083,0.0402 0.3315752,0.0214 0.2373389,-0.0245 0.3832544,-0.006 0.5134294,0.064 0.1713988,0.0926 0.1881202,0.0908 0.2907659,-0.0304 0.06596,-0.0779 0.108533,-0.23023 0.107956,-0.38624 z m -3.2708242,0.0746 c 0.2826883,-0.006 0.2898962,-0.0106 0.2540584,-0.17377 -0.020287,-0.0924 -0.00971,-0.2394 0.023491,-0.32674 0.058344,-0.15345 0.05097,-0.15986 -0.2191236,-0.1903 -0.1752045,-0.0198 -0.3376627,-0.0861 -0.4353698,-0.17794 l -0.1558698,-0.14643 -0.118924,0.15478 c -0.1462108,0.1903 -0.1592083,0.61741 -0.026593,0.87386 0.09068,0.17535 0.1018889,0.17945 0.2412429,0.0881 0.080379,-0.0527 0.2770683,-0.0984 0.4370869,-0.1016 z m 1.1910269,-0.26998 c 0.3664501,0 0.4004339,-0.0112 0.4004339,-0.13188 0,-0.10257 -0.048545,-0.13976 -0.2184097,-0.16733 -0.1201257,-0.0195 -0.2992615,-0.093 -0.3980795,-0.16337 -0.1628411,-0.11596 -0.1957214,-0.11961 -0.3510559,-0.039 -0.094263,0.0489 -0.1947511,0.12576 -0.2233071,0.17079 -0.061584,0.0971 -0.070068,0.43389 -0.014574,0.57851 0.03356,0.0874 0.06574,0.0769 0.2219052,-0.0727 0.1615536,-0.15478 0.228909,-0.175 0.583087,-0.175 z m 1.4810769,0.008 c 0.2555163,-0.10676 0.4597884,-0.35994 0.5111054,-0.63348 0.0717,-0.38219 -0.2532252,-0.83395 -0.6712021,-0.93319 -0.1650527,-0.0392 -0.1673272,-0.0358 -0.1097748,0.1649 0.1119294,0.39028 -0.1162855,0.82518 -0.5502947,1.04868 -0.1227516,0.0632 -0.1319556,0.0888 -0.062259,0.17273 0.095627,0.11522 0.4069288,0.26024 0.5661482,0.26374 0.060999,10e-4 0.2033244,-0.0362 0.316277,-0.0834 z m -0.7694724,-0.47719 c 0.221177,-0.11351 0.3888455,-0.37186 0.4198466,-0.64691 0.068008,-0.60337 -0.4870054,-1.0409 -1.0636268,-0.83848 -0.2017153,0.0708 -0.2538427,0.11786 -0.2369323,0.21387 0.081087,0.46037 0.075616,0.65607 -0.024223,0.86647 -0.10313,0.21733 -0.1027358,0.23009 0.00977,0.31648 0.2506566,0.19245 0.621308,0.22912 0.895162,0.0886 z m -1.3005582,-0.13839 c 0.2802282,-0.18665 0.4546796,-0.54442 0.4021074,-0.82465 -0.1606386,-0.85628 -1.3695395,-0.91458 -1.5950962,-0.0769 -0.1902254,0.70644 0.5950083,1.29986 1.1929888,0.90157 z m 2.2217865,-1.30771 c 0.023474,-0.35814 -0.1098077,-0.63078 -0.375497,-0.76818 -0.2561679,-0.13247 -0.6225763,-0.13144 -0.8267276,0.002 -0.1492845,0.0978 -0.4028149,0.44331 -0.4033449,0.54966 -1.308e-4,0.0257 0.1271817,0.0467 0.2829104,0.0467 0.3107389,0 0.5967532,0.12024 0.7264319,0.30538 0.074384,0.1062 0.3446273,0.19131 0.5151557,0.16225 0.034228,-0.006 0.07071,-0.13998 0.081072,-0.2981 z m -1.8292121,-0.036 c 0.018079,-0.0293 -0.035466,-0.11739 -0.1189889,-0.19585 -0.1969485,-0.18503 -0.3026531,-0.51277 -0.2521687,-0.78188 0.045489,-0.24247 0.00944,-0.25698 -0.3084608,-0.12415 -0.2504533,0.10464 -0.465538,0.42239 -0.4659245,0.68831 -2.611e-4,0.18412 0.00382,0.18642 0.2953784,0.16647 0.2358711,-0.0161 0.3396917,0.0111 0.5134689,0.13469 0.2441199,0.17365 0.2894882,0.18879 0.3366956,0.11241 z m 0.3941598,-0.64551 c 0.190589,-0.20095 0.5140662,-0.32027 0.7674515,-0.28308 0.2145557,0.0315 0.2271094,-0.0326 0.060062,-0.30655 -0.2396132,-0.39298 -0.7486903,-0.50583 -1.1281798,-0.25009 -0.2866086,0.19314 -0.378182,0.38975 -0.3483238,0.74784 0.018605,0.22315 0.070144,0.34576 0.2041159,0.4856 l 0.1792254,0.18707 0.052349,-0.20554 c 0.028792,-0.11305 0.1247771,-0.28191 0.2132998,-0.37525 z"
       style="fill:#0a425a;fill-opacity:1;stroke-width:0.06223394;opacity:1"
       inkscape:connector-curvature="0" />
    <path
       id="path53-8"
       d="m 14.133591,294.861 c -0.553575,-0.17011 -1.128921,-0.76526 -1.404504,-1.45285 -0.293074,-0.73124 -0.374089,-1.30356 -0.369605,-2.61101 0.0038,-1.09836 0.01818,-1.25411 0.168235,-1.81737 0.202717,-0.76096 0.629395,-1.64063 0.990695,-2.04248 1.591491,-1.77012 3.62891,0.14514 3.778799,3.55223 0.07493,1.70313 -0.25951,3.07911 -0.923461,3.79941 -0.409722,0.4445 -0.765926,0.59422 -1.461753,0.61443 -0.32189,0.009 -0.672172,-0.01 -0.778406,-0.0424 z m 1.535521,-0.17063 c 1.026283,-0.45397 1.52235,-1.68734 1.528713,-3.80082 0.0044,-1.47968 -0.285991,-2.61918 -0.904903,-3.55015 -0.441,-0.66336 -0.920243,-0.97787 -1.490062,-0.97787 -1.448926,0 -2.601168,2.52428 -2.36453,5.18009 0.170301,1.91132 0.740912,2.94294 1.792959,3.24155 0.375392,0.10655 1.091681,0.0603 1.437823,-0.0928 z m -1.435176,-0.005 c -0.759862,-0.24839 -1.303892,-1.01257 -1.539477,-2.16244 -0.558905,-2.72798 0.343686,-5.65856 1.86041,-6.04048 1.176589,-0.29627 2.311452,1.36455 2.51441,3.67972 0.146759,1.67409 -0.216779,3.34898 -0.873857,4.02606 -0.370786,0.38207 -0.678017,0.50886 -1.283425,0.52964 -0.288007,0.01 -0.593134,-0.005 -0.678061,-0.0325 z m 1.248923,-0.10458 c 0.879004,-0.29951 1.390943,-1.32233 1.520852,-3.03856 0.145355,-1.92033 -0.336105,-3.74066 -1.20971,-4.57373 -0.331676,-0.31628 -0.61497,-0.44584 -0.974413,-0.4456 -1.300115,9.3e-4 -2.359109,2.2571 -2.217485,4.72452 0.106897,1.8624 0.635196,3.01281 1.528994,3.32952 0.343534,0.12173 1.000315,0.1236 1.351762,0.004 z m -1.064669,-0.26447 c -0.134716,-0.0722 -0.269379,-0.22135 -0.361593,-0.40043 -0.121542,-0.23605 -0.176619,-0.28536 -0.318703,-0.28536 -0.198381,0 -0.514175,-0.24322 -0.645477,-0.49713 -0.103258,-0.19967 -0.116194,-0.47377 -0.03272,-0.69331 0.04716,-0.12404 0.03045,-0.17656 -0.0931,-0.29263 -0.287014,-0.26964 -0.325683,-0.76425 -0.08609,-1.10123 0.102245,-0.14381 0.101992,-0.15825 -0.0054,-0.30803 -0.194359,-0.2711 -0.206098,-0.55192 -0.03696,-0.88423 0.127312,-0.25014 0.140834,-0.32757 0.08754,-0.50121 -0.09443,-0.30768 -0.0096,-0.62208 0.23351,-0.86516 0.163337,-0.16334 0.212658,-0.26385 0.212658,-0.43339 0,-0.4361 0.373427,-0.83067 0.786153,-0.83067 0.108502,0 0.201113,-0.0385 0.221681,-0.0921 0.112013,-0.2919 0.785856,-0.43423 1.154147,-0.24378 0.198722,0.10276 0.424852,0.42159 0.425227,0.59954 1.29e-4,0.0603 0.09691,0.19459 0.215088,0.29835 0.26924,0.23639 0.383588,0.57843 0.286496,0.85695 -0.06298,0.18067 -0.05297,0.21681 0.112143,0.40487 0.186938,0.2129 0.249023,0.42925 0.245633,0.85597 -0.0012,0.13554 0.0156,0.38943 0.03706,0.56422 0.02879,0.23451 0.01187,0.37499 -0.06455,0.53605 -0.09497,0.20014 -0.09543,0.22987 -0.0056,0.35818 0.15991,0.2283 0.130016,0.74266 -0.05601,0.96374 -0.112464,0.13366 -0.154124,0.25543 -0.154419,0.45137 -6.88e-4,0.4156 -0.368277,0.85212 -0.718566,0.85318 -0.09688,2.3e-4 -0.14438,0.0489 -0.172409,0.17657 -0.03991,0.18169 -0.270006,0.43428 -0.506098,0.55558 -0.200444,0.10298 -0.517674,0.0838 -0.759681,-0.046 z m 0.788888,-0.0639 c 0.236086,-0.12121 0.480193,-0.45222 0.413305,-0.56044 -0.02091,-0.0338 -0.09902,-0.0615 -0.173603,-0.0615 -0.07458,0 -0.20724,-0.0664 -0.294792,-0.14761 -0.192381,-0.17838 -0.426355,-0.17371 -0.732836,0.0147 -0.118591,0.0729 -0.250273,0.1326 -0.292627,0.13273 -0.208709,6.9e-4 0.04427,0.45656 0.339948,0.61267 0.291829,0.15408 0.454893,0.15616 0.740605,0.009 z m -0.924846,-0.77943 c 0.176015,-0.12329 0.172547,-0.17612 -0.01724,-0.26259 -0.326442,-0.14873 -0.517309,-0.78629 -0.336522,-1.12409 0.05596,-0.10457 0.04276,-0.11914 -0.10781,-0.11893 -0.362588,4.5e-4 -0.756837,0.41755 -0.756837,0.80064 0,0.22551 0.194412,0.56208 0.395506,0.6847 0.230672,0.14067 0.636732,0.15067 0.8229,0.0203 z m 1.850183,-0.0289 c 0.218281,-0.13308 0.381472,-0.44153 0.3811,-0.72031 -4.76e-4,-0.37786 -0.395508,-0.75664 -0.789026,-0.75664 -0.177443,0 -0.178665,0.002 -0.116991,0.2335 0.09676,0.36253 0.01371,0.64773 -0.260814,0.89575 -0.219434,0.19825 -0.230895,0.22384 -0.136869,0.30559 0.231058,0.20089 0.632149,0.21919 0.9226,0.0421 z M 15.2849,293.0421 c 0.191835,-0.18379 0.319986,-0.52031 0.264484,-0.69453 -0.01809,-0.0568 -0.06039,-0.1771 -0.09403,-0.26741 l -0.06115,-0.1642 -0.212859,0.12559 c -0.2561,0.1511 -0.755851,0.12939 -0.944148,-0.041 -0.115067,-0.10414 -0.122334,-0.10002 -0.214996,0.12175 -0.123541,0.29567 -0.120944,0.44707 0.01191,0.69406 0.256154,0.47622 0.873121,0.58758 1.250784,0.22575 z m 1.408637,-0.78961 c 0.224926,-0.36394 0.133332,-0.88602 -0.19295,-1.0998 -0.366127,-0.2399 -0.849322,-0.17934 -0.849322,0.10643 0,0.0866 -0.04158,0.25705 -0.09241,0.37869 -0.05082,0.12164 -0.09224,0.22471 -0.09203,0.22904 2.09e-4,0.004 0.124463,0.0113 0.276122,0.0155 0.31865,0.009 0.554771,0.143 0.699691,0.39774 0.05605,0.0985 0.10658,0.17932 0.112287,0.17953 0.0057,1.9e-4 0.06808,-0.093 0.138614,-0.2071 z m -3.361712,-0.19009 c 0.108995,-0.0831 0.31146,-0.16927 0.449922,-0.19141 l 0.251749,-0.0402 -0.0902,-0.18082 c -0.0576,-0.11546 -0.08254,-0.30791 -0.069,-0.53246 l 0.02121,-0.35164 -0.207524,-0.0199 c -0.472549,-0.0452 -0.870575,0.30775 -0.870575,0.77198 0,0.24587 0.185141,0.69561 0.28636,0.69561 0.01644,0 0.119067,-0.068 0.228061,-0.15116 z m 1.863055,-0.12411 c 0.38678,-0.25343 0.474551,-0.79066 0.190107,-1.16359 -0.290157,-0.38041 -0.779215,-0.43518 -1.144138,-0.12812 -0.348298,0.29308 -0.397128,0.751 -0.11793,1.10594 0.259619,0.33005 0.727904,0.41121 1.071961,0.18577 z m 1.625949,-1.3487 c -4.77e-4,-0.14026 -0.02678,-0.29586 -0.05836,-0.3458 -0.04894,-0.0774 -0.07836,-0.0717 -0.199274,0.0385 -0.328942,0.29982 -0.738422,0.35445 -1.082833,0.14446 -0.110939,-0.0676 -0.214898,-0.12298 -0.231021,-0.12298 -0.08109,0 -0.0095,0.16032 0.155502,0.34825 0.101651,0.11577 0.184817,0.23525 0.184817,0.2655 0,0.0303 0.147702,0.0398 0.328228,0.0211 0.234943,-0.0242 0.379385,-0.006 0.508246,0.0634 0.169668,0.0917 0.186221,0.0899 0.28783,-0.0301 0.0653,-0.0771 0.107437,-0.22791 0.106867,-0.38235 z m -3.237804,0.0738 c 0.279834,-0.006 0.286969,-0.0105 0.251493,-0.17202 -0.02008,-0.0914 -0.0096,-0.23697 0.02325,-0.32343 0.05776,-0.15191 0.05046,-0.15825 -0.216911,-0.18839 -0.173436,-0.0195 -0.334254,-0.0853 -0.430975,-0.17613 l -0.154296,-0.14496 -0.117724,0.15322 c -0.144734,0.18838 -0.1576,0.61117 -0.02632,0.86503 0.08976,0.17359 0.10086,0.17764 0.238807,0.0873 0.07957,-0.0521 0.274271,-0.0974 0.432674,-0.10058 z m 1.179003,-0.26725 c 0.36275,0 0.396391,-0.0111 0.396391,-0.13055 0,-0.10154 -0.04805,-0.13835 -0.216205,-0.16564 -0.118913,-0.0193 -0.29624,-0.0921 -0.39406,-0.16173 -0.161197,-0.11478 -0.193746,-0.1184 -0.347512,-0.0386 -0.09331,0.0484 -0.192785,0.12449 -0.221053,0.16907 -0.06096,0.0961 -0.06936,0.42951 -0.01443,0.57267 0.03322,0.0866 0.06508,0.0761 0.219665,-0.072 0.159923,-0.15322 0.226598,-0.17323 0.577201,-0.17323 z m 1.466124,0.007 c 0.252937,-0.10568 0.455147,-0.35631 0.505946,-0.62709 0.07098,-0.37833 -0.250669,-0.82552 -0.664426,-0.92376 -0.163386,-0.0388 -0.165638,-0.0354 -0.108667,0.16323 0.1108,0.38634 -0.115111,0.81685 -0.544739,1.0381 -0.121512,0.0626 -0.130623,0.0879 -0.06163,0.17098 0.09466,0.11406 0.40282,0.25761 0.560432,0.26108 0.06038,10e-4 0.201272,-0.0358 0.313084,-0.0825 z m -0.761704,-0.47238 c 0.218944,-0.11237 0.38492,-0.36811 0.415608,-0.64038 0.06732,-0.59728 -0.482089,-1.03039 -1.052889,-0.83002 -0.199678,0.0701 -0.25128,0.11667 -0.23454,0.21171 0.08027,0.45573 0.07485,0.64945 -0.02398,0.85772 -0.102089,0.21514 -0.101699,0.22778 0.0097,0.31329 0.248126,0.19051 0.615036,0.22681 0.886125,0.0877 z M 14.17902,289.7942 c 0.277399,-0.18476 0.450089,-0.53892 0.398048,-0.81633 -0.159017,-0.84763 -1.355714,-0.90534 -1.578993,-0.0761 -0.188305,0.69931 0.589001,1.28674 1.180945,0.89247 z m 2.199356,-1.2945 c 0.02324,-0.35454 -0.108699,-0.62442 -0.371706,-0.76043 -0.253582,-0.13113 -0.616291,-0.13011 -0.818381,0.002 -0.147778,0.0968 -0.398749,0.43883 -0.399273,0.5441 -1.3e-4,0.0254 0.125898,0.0462 0.280054,0.0462 0.307602,0 0.590729,0.11902 0.719098,0.30229 0.07363,0.10513 0.341148,0.18938 0.509955,0.16062 0.03388,-0.006 0.07,-0.13857 0.08025,-0.2951 z m -1.810745,-0.0357 c 0.0179,-0.029 -0.03511,-0.11621 -0.117788,-0.19388 -0.19496,-0.18316 -0.299597,-0.50759 -0.249623,-0.77398 0.04503,-0.24003 0.0093,-0.25439 -0.305346,-0.1229 -0.247925,0.10358 -0.460839,0.41813 -0.461221,0.68136 -2.59e-4,0.18226 0.0038,0.18454 0.292396,0.16479 0.23349,-0.016 0.336263,0.011 0.508286,0.13333 0.241655,0.1719 0.286565,0.18689 0.333296,0.11128 z m 0.390181,-0.63899 c 0.188665,-0.19893 0.508876,-0.31704 0.759703,-0.28023 0.21239,0.0312 0.224817,-0.0323 0.05946,-0.30346 -0.237194,-0.38901 -0.741132,-0.50072 -1.11679,-0.24756 -0.283716,0.19119 -0.374365,0.38581 -0.344808,0.74029 0.01842,0.2209 0.06944,0.34227 0.202056,0.48069 l 0.177416,0.18519 0.05182,-0.20347 c 0.0285,-0.1119 0.123517,-0.27906 0.211146,-0.37145 z"
       style="fill:#8f230a;fill-opacity:0;stroke:#8f230a;stroke-width:0.06160565;stroke-opacity:1;opacity:1"
       inkscape:connector-curvature="0" />
    <path
       id="path53-3-8"
       d="m 20.407314,281.27388 c -0.559222,-0.17184 -1.140435,-0.77306 -1.418828,-1.46766 -0.296063,-0.7387 -0.377905,-1.31686 -0.373375,-2.63764 0.0038,-1.10956 0.01837,-1.2669 0.169951,-1.83591 0.204784,-0.76872 0.635814,-1.65736 1.000798,-2.06331 1.607722,-1.78817 3.665919,0.14662 3.817337,3.58846 0.07569,1.7205 -0.262157,3.11051 -0.932879,3.83816 -0.4139,0.44903 -0.773737,0.60028 -1.476661,0.62069 -0.325172,0.009 -0.679027,-0.01 -0.786343,-0.0428 z m 1.55118,-0.17237 c 1.03675,-0.4586 1.537875,-1.70454 1.544303,-3.83958 0.0045,-1.49477 -0.288907,-2.64589 -0.914131,-3.58636 -0.445497,-0.67012 -0.929628,-0.98784 -1.505258,-0.98784 -1.463703,0 -2.627696,2.55002 -2.388644,5.23292 0.172038,1.93081 0.748467,2.97295 1.811243,3.27461 0.379221,0.10763 1.102814,0.0609 1.452487,-0.0937 z m -1.449813,-0.005 c -0.76761,-0.25093 -1.317189,-1.0229 -1.555176,-2.1845 -0.564605,-2.7558 0.347191,-5.71627 1.879383,-6.10208 1.188588,-0.29929 2.335025,1.37847 2.540052,3.71725 0.148256,1.69116 -0.21899,3.38313 -0.882768,4.06711 -0.374568,0.38597 -0.684932,0.51405 -1.296515,0.53505 -0.290943,0.01 -0.599183,-0.005 -0.684976,-0.0328 z m 1.26166,-0.10565 c 0.887969,-0.30256 1.405129,-1.33581 1.536363,-3.06955 0.146837,-1.93991 -0.339533,-3.77881 -1.222047,-4.62037 -0.335059,-0.31951 -0.621242,-0.45039 -0.98435,-0.45015 -1.313375,9.4e-4 -2.383169,2.28012 -2.240101,4.7727 0.107988,1.88139 0.641674,3.04354 1.544588,3.36348 0.347037,0.12297 1.010516,0.12486 1.365547,0.004 z m -1.075526,-0.26716 c -0.13609,-0.073 -0.272127,-0.22361 -0.365281,-0.40453 -0.122782,-0.23845 -0.17842,-0.28826 -0.321953,-0.28826 -0.200404,0 -0.519419,-0.2457 -0.65206,-0.5022 -0.104311,-0.20171 -0.117379,-0.4786 -0.03306,-0.70039 0.04764,-0.1253 0.03076,-0.17835 -0.09405,-0.29561 -0.289941,-0.27238 -0.329005,-0.77205 -0.08697,-1.11246 0.103288,-0.14527 0.103032,-0.15986 -0.0054,-0.31117 -0.196337,-0.27345 -0.208196,-0.55713 -0.03734,-0.89283 0.12861,-0.25269 0.142271,-0.3309 0.08843,-0.50632 -0.09539,-0.31082 -0.0097,-0.62842 0.235891,-0.87398 0.165004,-0.165 0.214827,-0.26654 0.214827,-0.43781 0,-0.44055 0.377236,-0.83914 0.79417,-0.83914 0.109609,0 0.203165,-0.0389 0.223942,-0.093 0.113156,-0.29488 0.793871,-0.43866 1.165918,-0.24627 0.200748,0.10381 0.429184,0.4259 0.429563,0.60566 1.31e-4,0.0609 0.0979,0.19657 0.217282,0.30138 0.271986,0.23881 0.3875,0.58434 0.289418,0.8657 -0.06362,0.18251 -0.05351,0.21902 0.113287,0.40899 0.188845,0.21508 0.251562,0.43364 0.248138,0.86471 -0.0012,0.13692 0.01576,0.3934 0.03744,0.56997 0.02909,0.23691 0.012,0.37881 -0.06521,0.54152 -0.09594,0.20218 -0.09641,0.23221 -0.0056,0.36183 0.161541,0.23063 0.131342,0.75024 -0.05658,0.97357 -0.113611,0.13502 -0.155696,0.25803 -0.155995,0.45597 -7.14e-4,0.41984 -0.372032,0.86081 -0.725894,0.86189 -0.09786,2.3e-4 -0.145852,0.0494 -0.174167,0.17836 -0.04031,0.18354 -0.27276,0.43872 -0.51126,0.56125 -0.202488,0.10403 -0.522953,0.0847 -0.767428,-0.0464 z m 0.796933,-0.0645 c 0.238494,-0.12245 0.485091,-0.45683 0.41752,-0.56616 -0.02112,-0.0342 -0.100029,-0.0621 -0.175373,-0.0621 -0.07534,0 -0.209354,-0.0671 -0.297799,-0.14912 -0.194343,-0.1802 -0.430702,-0.17548 -0.74031,0.0148 -0.1198,0.0736 -0.252825,0.13397 -0.295611,0.1341 -0.210838,7.1e-4 0.04472,0.46121 0.343415,0.61891 0.294805,0.15566 0.459533,0.15776 0.748158,0.01 z m -0.934278,-0.78738 c 0.17781,-0.12454 0.174307,-0.17791 -0.01741,-0.26526 -0.329771,-0.15026 -0.522584,-0.79432 -0.339954,-1.13556 0.05654,-0.10564 0.0432,-0.12035 -0.108909,-0.12015 -0.366286,4.8e-4 -0.764555,0.42182 -0.764555,0.80881 0,0.22781 0.196394,0.56781 0.399539,0.69169 0.233024,0.1421 0.643225,0.1522 0.831292,0.0205 z m 1.869053,-0.0292 c 0.220507,-0.13444 0.385362,-0.44603 0.384985,-0.72766 -4.76e-4,-0.38171 -0.399541,-0.76436 -0.797072,-0.76436 -0.179253,0 -0.180488,0.002 -0.118184,0.23589 0.09775,0.36622 0.01385,0.65433 -0.263474,0.90489 -0.221672,0.20027 -0.23325,0.22611 -0.138265,0.3087 0.233414,0.20294 0.638596,0.22143 0.93201,0.0425 z m -0.856159,-0.40609 c 0.193791,-0.18566 0.323249,-0.52561 0.267181,-0.70161 -0.01827,-0.0574 -0.06101,-0.17891 -0.09498,-0.27014 l -0.06177,-0.16588 -0.21503,0.12687 c -0.258712,0.15264 -0.76356,0.13071 -0.953777,-0.0414 -0.11624,-0.1052 -0.123581,-0.10104 -0.217188,0.12299 -0.124802,0.2987 -0.122178,0.45164 0.01203,0.70114 0.258765,0.48108 0.882025,0.59357 1.263539,0.22806 z m 1.423003,-0.79766 c 0.22722,-0.36765 0.134691,-0.89506 -0.194918,-1.11103 -0.369861,-0.24234 -0.857984,-0.18116 -0.857984,0.10753 0,0.0875 -0.04201,0.25966 -0.09335,0.38254 -0.05134,0.12288 -0.09318,0.227 -0.09297,0.23138 2.12e-4,0.004 0.125732,0.0114 0.27894,0.0156 0.321898,0.009 0.560427,0.14445 0.706825,0.4018 0.05662,0.0995 0.107667,0.18114 0.113432,0.18136 0.0058,1.8e-4 0.06878,-0.0939 0.140028,-0.20921 z m -3.395996,-0.19162 c 0.110107,-0.084 0.314636,-0.171 0.45451,-0.19336 l 0.254316,-0.0407 -0.09112,-0.18266 c -0.05819,-0.11664 -0.08338,-0.31105 -0.0697,-0.53789 l 0.02142,-0.35519 -0.20964,-0.0201 c -0.477368,-0.0457 -0.879454,0.31089 -0.879454,0.77985 0,0.24838 0.18703,0.7027 0.289281,0.7027 0.01661,0 0.120281,-0.0687 0.230387,-0.15269 z m 1.882055,-0.12538 c 0.390724,-0.25601 0.479391,-0.79872 0.192045,-1.17545 -0.293116,-0.3843 -0.787162,-0.43962 -1.155806,-0.12943 -0.35185,0.29606 -0.401178,0.75865 -0.119133,1.11721 0.262267,0.33342 0.735328,0.4154 1.082894,0.18767 z m 1.64253,-1.36246 c -4.76e-4,-0.14168 -0.02705,-0.29887 -0.05896,-0.34932 -0.04944,-0.0782 -0.07916,-0.0724 -0.201306,0.0389 -0.332298,0.30288 -0.745954,0.35807 -1.093876,0.14594 -0.112071,-0.0683 -0.217091,-0.12424 -0.233379,-0.12424 -0.08191,0 -0.0096,0.16195 0.157089,0.3518 0.102687,0.11695 0.186702,0.23765 0.186702,0.26821 0,0.0306 0.149208,0.0402 0.331575,0.0214 0.237339,-0.0245 0.383254,-0.006 0.513429,0.064 0.171399,0.0926 0.18812,0.0908 0.290766,-0.0304 0.06596,-0.0779 0.108533,-0.23023 0.107956,-0.38624 z m -3.270824,0.0746 c 0.282688,-0.006 0.289896,-0.0106 0.254059,-0.17377 -0.02029,-0.0924 -0.0097,-0.2394 0.02349,-0.32674 0.05834,-0.15345 0.05097,-0.15986 -0.219124,-0.1903 -0.175205,-0.0198 -0.337663,-0.0861 -0.43537,-0.17794 l -0.15587,-0.14643 -0.118924,0.15478 c -0.14621,0.1903 -0.159208,0.61741 -0.02659,0.87386 0.09068,0.17535 0.101889,0.17945 0.241243,0.0881 0.08038,-0.0527 0.277069,-0.0984 0.437087,-0.1016 z m 1.191027,-0.26998 c 0.36645,0 0.400434,-0.0112 0.400434,-0.13188 0,-0.10257 -0.04855,-0.13976 -0.21841,-0.16733 -0.120125,-0.0195 -0.299261,-0.093 -0.398079,-0.16337 -0.162841,-0.11596 -0.195722,-0.11961 -0.351056,-0.039 -0.09426,0.0489 -0.194751,0.12576 -0.223307,0.17079 -0.06158,0.0971 -0.07007,0.43389 -0.01457,0.57851 0.03356,0.0874 0.06574,0.0769 0.221905,-0.0727 0.161554,-0.15478 0.228909,-0.175 0.583087,-0.175 z m 1.481077,0.008 c 0.255516,-0.10676 0.459788,-0.35994 0.511105,-0.63348 0.0717,-0.38219 -0.253225,-0.83395 -0.671202,-0.93319 -0.165052,-0.0392 -0.167327,-0.0358 -0.109775,0.1649 0.11193,0.39028 -0.116285,0.82518 -0.550294,1.04868 -0.122752,0.0632 -0.131956,0.0888 -0.06226,0.17273 0.09563,0.11522 0.406928,0.26024 0.566148,0.26374 0.061,10e-4 0.203324,-0.0362 0.316277,-0.0834 z m -0.769472,-0.4772 c 0.221177,-0.11351 0.388845,-0.37186 0.419846,-0.64691 0.06801,-0.60337 -0.487005,-1.0409 -1.063627,-0.83848 -0.201715,0.0708 -0.253842,0.11786 -0.236932,0.21387 0.08109,0.46037 0.07562,0.65607 -0.02422,0.86647 -0.10313,0.21733 -0.102736,0.23009 0.0098,0.31648 0.250657,0.19245 0.621308,0.22912 0.895162,0.0886 z m -1.300559,-0.13839 c 0.280229,-0.18665 0.45468,-0.54442 0.402108,-0.82465 -0.160639,-0.85628 -1.36954,-0.91458 -1.595096,-0.0769 -0.190226,0.70644 0.595008,1.29986 1.192988,0.90157 z m 2.221787,-1.30771 c 0.02347,-0.35814 -0.109808,-0.63078 -0.375497,-0.76818 -0.256168,-0.13247 -0.622577,-0.13144 -0.826728,0.002 -0.149284,0.0978 -0.402815,0.44331 -0.403345,0.54966 -1.3e-4,0.0257 0.127182,0.0467 0.282911,0.0467 0.310739,0 0.596753,0.12024 0.726432,0.30538 0.07438,0.1062 0.344627,0.19131 0.515155,0.16225 0.03423,-0.006 0.07071,-0.13998 0.08107,-0.2981 z m -1.829212,-0.036 c 0.01808,-0.0293 -0.03547,-0.11739 -0.118989,-0.19585 -0.196949,-0.18503 -0.302653,-0.51277 -0.252169,-0.78188 0.04549,-0.24247 0.0094,-0.25698 -0.308461,-0.12415 -0.250453,0.10464 -0.465538,0.42239 -0.465924,0.68831 -2.61e-4,0.18412 0.0038,0.18642 0.295378,0.16647 0.235871,-0.0161 0.339692,0.0111 0.513469,0.13469 0.24412,0.17365 0.289488,0.18879 0.336696,0.11241 z m 0.39416,-0.64551 c 0.190588,-0.20095 0.514066,-0.32027 0.767451,-0.28308 0.214556,0.0315 0.227109,-0.0326 0.06006,-0.30655 -0.239613,-0.39298 -0.74869,-0.50583 -1.12818,-0.25009 -0.286608,0.19314 -0.378182,0.38975 -0.348324,0.74784 0.0186,0.22315 0.07014,0.34576 0.204116,0.4856 l 0.179226,0.18707 0.05235,-0.20554 c 0.02879,-0.11305 0.124777,-0.28191 0.213301,-0.37525 z"
       style="opacity:1;fill:#0a425a;fill-opacity:1;stroke-width:0.06223394"
       inkscape:connector-curvature="0" />
    <path
       id="path53-3-1"
       d="m 21.610026,292.49919 c -0.559221,-0.17184 -1.140434,-0.77306 -1.418827,-1.46766 -0.296063,-0.7387 -0.377905,-1.31686 -0.373375,-2.63764 0.0038,-1.10956 0.01837,-1.2669 0.169951,-1.83591 0.204784,-0.76872 0.635814,-1.65736 1.000798,-2.06331 1.607722,-1.78817 3.665919,0.14662 3.817337,3.58846 0.07569,1.7205 -0.262157,3.11051 -0.932879,3.83816 -0.413901,0.44903 -0.773737,0.60028 -1.476661,0.62069 -0.325172,0.009 -0.679027,-0.01 -0.786344,-0.0428 z m 1.551181,-0.17237 c 1.03675,-0.4586 1.537875,-1.70454 1.544303,-3.83958 0.0045,-1.49477 -0.288907,-2.64589 -0.914132,-3.58636 -0.445497,-0.67012 -0.929628,-0.98784 -1.505258,-0.98784 -1.463702,0 -2.627695,2.55002 -2.388644,5.23292 0.172038,1.93081 0.748468,2.97295 1.811244,3.27461 0.37922,0.10763 1.102814,0.0609 1.452487,-0.0937 z m -1.449813,-0.005 c -0.767611,-0.25093 -1.31719,-1.0229 -1.555177,-2.1845 -0.564605,-2.7558 0.347191,-5.71627 1.879383,-6.10208 1.188588,-0.29929 2.335026,1.37847 2.540053,3.71725 0.148256,1.69116 -0.21899,3.38313 -0.882769,4.06711 -0.374568,0.38597 -0.684931,0.51405 -1.296514,0.53505 -0.290944,0.01 -0.599183,-0.005 -0.684976,-0.0328 z m 1.26166,-0.10565 c 0.887969,-0.30256 1.405129,-1.33581 1.536363,-3.06955 0.146837,-1.93991 -0.339533,-3.77881 -1.222048,-4.62037 -0.335058,-0.31951 -0.621241,-0.45039 -0.98435,-0.45015 -1.313374,9.4e-4 -2.383168,2.28012 -2.2401,4.7727 0.107988,1.88139 0.641674,3.04354 1.544588,3.36348 0.347037,0.12297 1.010516,0.12486 1.365547,0.004 z m -1.075526,-0.26716 c -0.13609,-0.073 -0.272127,-0.22361 -0.365281,-0.40453 -0.122782,-0.23845 -0.17842,-0.28826 -0.321954,-0.28826 -0.200403,0 -0.519418,-0.2457 -0.65206,-0.5022 -0.10431,-0.20171 -0.117378,-0.4786 -0.03306,-0.70039 0.04764,-0.1253 0.03076,-0.17835 -0.09405,-0.29561 -0.289941,-0.27238 -0.329004,-0.77205 -0.08697,-1.11246 0.103288,-0.14527 0.103033,-0.15986 -0.0055,-0.31117 -0.196336,-0.27345 -0.208195,-0.55713 -0.03734,-0.89283 0.128611,-0.25269 0.142271,-0.3309 0.08843,-0.50632 -0.09539,-0.31082 -0.0097,-0.62842 0.235892,-0.87398 0.165003,-0.165 0.214827,-0.26654 0.214827,-0.43781 0,-0.44055 0.377235,-0.83914 0.79417,-0.83914 0.109608,0 0.203165,-0.0389 0.223942,-0.093 0.113156,-0.29488 0.793871,-0.43866 1.165917,-0.24627 0.200749,0.10381 0.429185,0.4259 0.429564,0.60566 1.31e-4,0.0609 0.0979,0.19657 0.217282,0.30138 0.271986,0.23881 0.3875,0.58434 0.289418,0.8657 -0.06362,0.18251 -0.05351,0.21902 0.113286,0.40899 0.188846,0.21508 0.251562,0.43364 0.248139,0.86471 -0.0012,0.13692 0.01576,0.3934 0.03744,0.56997 0.02909,0.23691 0.012,0.37881 -0.06521,0.54152 -0.09594,0.20218 -0.09641,0.23221 -0.0056,0.36183 0.161541,0.23063 0.131342,0.75024 -0.05658,0.97357 -0.113612,0.13502 -0.155696,0.25803 -0.155995,0.45597 -7.14e-4,0.41984 -0.372033,0.86081 -0.725894,0.86189 -0.09786,2.3e-4 -0.145852,0.0494 -0.174168,0.17836 -0.04031,0.18354 -0.272759,0.43872 -0.511259,0.56125 -0.202489,0.10403 -0.522953,0.0847 -0.767428,-0.0464 z m 0.796932,-0.0645 c 0.238495,-0.12245 0.485091,-0.45683 0.417521,-0.56616 -0.02112,-0.0342 -0.100029,-0.0621 -0.175374,-0.0621 -0.07534,0 -0.209353,-0.0671 -0.297799,-0.14912 -0.194342,-0.1802 -0.430702,-0.17548 -0.740309,0.0148 -0.119801,0.0736 -0.252826,0.13397 -0.295612,0.1341 -0.210837,7.1e-4 0.04472,0.46121 0.343416,0.61891 0.294805,0.15566 0.459532,0.15776 0.748157,0.01 z m -0.934277,-0.78738 c 0.17781,-0.12454 0.174307,-0.17791 -0.01741,-0.26526 -0.329771,-0.15026 -0.522584,-0.79432 -0.339954,-1.13556 0.05654,-0.10564 0.0432,-0.12035 -0.108909,-0.12015 -0.366286,4.8e-4 -0.764556,0.42182 -0.764556,0.80881 0,0.22781 0.196395,0.56781 0.39954,0.69169 0.233024,0.1421 0.643225,0.1522 0.831292,0.0205 z m 1.869052,-0.0292 c 0.220507,-0.13444 0.385362,-0.44603 0.384986,-0.72766 -4.76e-4,-0.38171 -0.399541,-0.76436 -0.797073,-0.76436 -0.179252,0 -0.180487,0.002 -0.118184,0.23589 0.09775,0.36622 0.01385,0.65433 -0.263473,0.90489 -0.221672,0.20027 -0.23325,0.22611 -0.138265,0.3087 0.233414,0.20294 0.638596,0.22143 0.932009,0.0425 z m -0.856158,-0.40609 c 0.193791,-0.18566 0.323248,-0.52561 0.26718,-0.70161 -0.01827,-0.0574 -0.06101,-0.17891 -0.09499,-0.27014 l -0.06177,-0.16588 -0.215029,0.12687 c -0.258712,0.15264 -0.76356,0.13071 -0.953777,-0.0414 -0.116241,-0.1052 -0.123582,-0.10104 -0.217188,0.12299 -0.124802,0.2987 -0.122178,0.45164 0.01203,0.70114 0.258765,0.48108 0.882025,0.59357 1.263539,0.22806 z m 1.423003,-0.79766 c 0.22722,-0.36765 0.134691,-0.89506 -0.194918,-1.11103 -0.369861,-0.24234 -0.857984,-0.18116 -0.857984,0.10753 0,0.0875 -0.04201,0.25966 -0.09335,0.38254 -0.05134,0.12288 -0.09318,0.227 -0.09297,0.23138 2.12e-4,0.004 0.125732,0.0114 0.278939,0.0156 0.321899,0.009 0.560428,0.14445 0.706826,0.4018 0.05662,0.0995 0.107667,0.18114 0.113432,0.18136 0.0058,1.8e-4 0.06878,-0.0939 0.140028,-0.20921 z m -3.395996,-0.19162 c 0.110106,-0.084 0.314636,-0.171 0.45451,-0.19336 l 0.254316,-0.0407 -0.09112,-0.18266 c -0.05819,-0.11664 -0.08338,-0.31105 -0.0697,-0.53789 l 0.02142,-0.35519 -0.20964,-0.0201 c -0.477369,-0.0457 -0.879454,0.31089 -0.879454,0.77985 0,0.24838 0.18703,0.7027 0.289281,0.7027 0.01661,0 0.120281,-0.0687 0.230387,-0.15269 z m 1.882055,-0.12538 c 0.390724,-0.25601 0.479391,-0.79872 0.192045,-1.17545 -0.293116,-0.3843 -0.787162,-0.43962 -1.155806,-0.12943 -0.35185,0.29606 -0.401178,0.75865 -0.119133,1.11721 0.262267,0.33342 0.735327,0.4154 1.082894,0.18767 z m 1.64253,-1.36246 c -4.76e-4,-0.14168 -0.02705,-0.29887 -0.05896,-0.34932 -0.04944,-0.0782 -0.07916,-0.0724 -0.201307,0.0389 -0.332297,0.30288 -0.745953,0.35807 -1.093876,0.14594 -0.112071,-0.0683 -0.21709,-0.12424 -0.233378,-0.12424 -0.08191,0 -0.0096,0.16195 0.157089,0.3518 0.102687,0.11695 0.186701,0.23765 0.186701,0.26821 0,0.0306 0.149209,0.0402 0.331575,0.0214 0.237339,-0.0245 0.383255,-0.006 0.51343,0.064 0.171399,0.0926 0.18812,0.0908 0.290766,-0.0304 0.06596,-0.0779 0.108533,-0.23023 0.107956,-0.38624 z m -3.270824,0.0746 c 0.282688,-0.006 0.289896,-0.0106 0.254058,-0.17377 -0.02029,-0.0924 -0.0097,-0.2394 0.02349,-0.32674 0.05834,-0.15345 0.05097,-0.15986 -0.219123,-0.1903 -0.175205,-0.0198 -0.337663,-0.0861 -0.43537,-0.17794 l -0.15587,-0.14643 -0.118924,0.15478 c -0.146211,0.1903 -0.159208,0.61741 -0.02659,0.87386 0.09068,0.17535 0.101889,0.17945 0.241243,0.0881 0.08038,-0.0527 0.277068,-0.0984 0.437087,-0.1016 z m 1.191027,-0.26998 c 0.36645,0 0.400434,-0.0112 0.400434,-0.13188 0,-0.10257 -0.04855,-0.13976 -0.21841,-0.16733 -0.120126,-0.0195 -0.299262,-0.093 -0.39808,-0.16337 -0.162841,-0.11596 -0.195721,-0.11961 -0.351055,-0.039 -0.09426,0.0489 -0.194752,0.12576 -0.223308,0.17079 -0.06158,0.0971 -0.07007,0.43389 -0.01457,0.57851 0.03356,0.0874 0.06574,0.0769 0.221906,-0.0727 0.161553,-0.15478 0.228909,-0.175 0.583087,-0.175 z m 1.481077,0.008 c 0.255516,-0.10676 0.459788,-0.35994 0.511105,-0.63348 0.0717,-0.38219 -0.253225,-0.83395 -0.671202,-0.93319 -0.165053,-0.0392 -0.167327,-0.0358 -0.109775,0.1649 0.11193,0.39028 -0.116285,0.82518 -0.550295,1.04868 -0.122751,0.0632 -0.131955,0.0888 -0.06226,0.17273 0.09563,0.11522 0.406929,0.26024 0.566149,0.26374 0.061,0.001 0.203324,-0.0362 0.316276,-0.0834 z m -0.769473,-0.4772 c 0.221177,-0.11351 0.388846,-0.37186 0.419847,-0.64691 0.06801,-0.60337 -0.487006,-1.0409 -1.063627,-0.83848 -0.201715,0.0708 -0.253843,0.11786 -0.236932,0.21387 0.08109,0.46037 0.07562,0.65607 -0.02422,0.86647 -0.10313,0.21733 -0.102736,0.23009 0.0098,0.31648 0.250656,0.19245 0.621308,0.22912 0.895162,0.0886 z m -1.300558,-0.13839 c 0.280228,-0.18665 0.45468,-0.54442 0.402107,-0.82465 -0.160638,-0.85628 -1.369539,-0.91458 -1.595096,-0.0769 -0.190225,0.70644 0.595009,1.29986 1.192989,0.90157 z m 2.221787,-1.30771 c 0.02347,-0.35814 -0.109808,-0.63078 -0.375497,-0.76818 -0.256168,-0.13247 -0.622577,-0.13144 -0.826728,0.002 -0.149285,0.0978 -0.402815,0.44331 -0.403345,0.54966 -1.31e-4,0.0257 0.127182,0.0467 0.28291,0.0467 0.310739,0 0.596754,0.12024 0.726432,0.30538 0.07438,0.1062 0.344628,0.19131 0.515156,0.16225 0.03423,-0.006 0.07071,-0.13998 0.08107,-0.2981 z m -1.829213,-0.036 c 0.01808,-0.0293 -0.03547,-0.11739 -0.118988,-0.19585 -0.196949,-0.18503 -0.302654,-0.51277 -0.252169,-0.78188 0.04549,-0.24247 0.0094,-0.25698 -0.308461,-0.12415 -0.250453,0.10464 -0.465538,0.42239 -0.465924,0.68831 -2.62e-4,0.18412 0.0038,0.18642 0.295378,0.16647 0.235871,-0.0161 0.339692,0.0111 0.513469,0.13469 0.24412,0.17365 0.289488,0.18879 0.336695,0.11241 z m 0.39416,-0.64551 c 0.190589,-0.20095 0.514066,-0.32027 0.767452,-0.28308 0.214555,0.0315 0.227109,-0.0326 0.06006,-0.30655 -0.239614,-0.39298 -0.748691,-0.50583 -1.12818,-0.25009 -0.286609,0.19314 -0.378182,0.38975 -0.348324,0.74784 0.0186,0.22315 0.07014,0.34576 0.204116,0.4856 l 0.179225,0.18707 0.05235,-0.20554 c 0.02879,-0.11305 0.124777,-0.28191 0.2133,-0.37525 z"
       style="fill:#0a425a;fill-opacity:1;stroke-width:0.06223394;opacity:1"
       inkscape:connector-curvature="0" />
    <path
       id="path53-3-0"
       d="m 13.458306,285.41655 c -0.559221,-0.17184 -1.140435,-0.77306 -1.418828,-1.46766 -0.296063,-0.7387 -0.377904,-1.31686 -0.373374,-2.63764 0.0038,-1.10956 0.01837,-1.2669 0.16995,-1.83591 0.204784,-0.76872 0.635814,-1.65736 1.000798,-2.06331 1.607722,-1.78817 3.66592,0.14662 3.817338,3.58846 0.07569,1.7205 -0.262157,3.11051 -0.93288,3.83816 -0.4139,0.44903 -0.773737,0.60028 -1.47666,0.62069 -0.325173,0.009 -0.679027,-0.01 -0.786344,-0.0428 z m 1.551181,-0.17237 c 1.03675,-0.4586 1.537875,-1.70454 1.544303,-3.83958 0.0045,-1.49477 -0.288907,-2.64589 -0.914132,-3.58636 -0.445497,-0.67012 -0.929628,-0.98784 -1.505258,-0.98784 -1.463703,0 -2.627695,2.55002 -2.388644,5.23292 0.172038,1.93081 0.748468,2.97295 1.811244,3.27461 0.37922,0.10763 1.102814,0.0609 1.452487,-0.0937 z m -1.449813,-0.005 c -0.767611,-0.25093 -1.31719,-1.0229 -1.555177,-2.1845 -0.564605,-2.7558 0.347191,-5.71627 1.879383,-6.10208 1.188588,-0.29929 2.335026,1.37847 2.540053,3.71725 0.148256,1.69116 -0.21899,3.38313 -0.882769,4.06711 -0.374568,0.38597 -0.684931,0.51405 -1.296514,0.53505 -0.290944,0.01 -0.599183,-0.005 -0.684976,-0.0328 z m 1.26166,-0.10565 c 0.887969,-0.30256 1.405129,-1.33581 1.536363,-3.06955 0.146837,-1.93991 -0.339533,-3.77881 -1.222048,-4.62037 -0.335059,-0.31951 -0.621242,-0.45039 -0.98435,-0.45015 -1.313374,9.4e-4 -2.383168,2.28012 -2.2401,4.7727 0.107987,1.88139 0.641674,3.04354 1.544587,3.36348 0.347037,0.12297 1.010517,0.12486 1.365548,0.004 z m -1.075527,-0.26716 c -0.13609,-0.073 -0.272127,-0.22361 -0.365281,-0.40453 -0.122782,-0.23845 -0.17842,-0.28826 -0.321953,-0.28826 -0.200404,0 -0.519419,-0.2457 -0.65206,-0.5022 -0.10431,-0.20171 -0.117378,-0.4786 -0.03306,-0.70039 0.04764,-0.1253 0.03076,-0.17835 -0.09405,-0.29561 -0.289941,-0.27238 -0.329004,-0.77205 -0.08697,-1.11246 0.103288,-0.14527 0.103033,-0.15986 -0.0054,-0.31117 -0.196336,-0.27345 -0.208195,-0.55713 -0.03734,-0.89283 0.12861,-0.25269 0.142271,-0.3309 0.08843,-0.50632 -0.09539,-0.31082 -0.0097,-0.62842 0.235892,-0.87398 0.165003,-0.165 0.214826,-0.26654 0.214826,-0.43781 0,-0.44055 0.377236,-0.83914 0.794171,-0.83914 0.109608,0 0.203164,-0.0389 0.223941,-0.093 0.113156,-0.29488 0.793871,-0.43866 1.165918,-0.24627 0.200749,0.10381 0.429185,0.4259 0.429563,0.60566 1.31e-4,0.0609 0.0979,0.19657 0.217282,0.30138 0.271987,0.23881 0.3875,0.58434 0.289418,0.8657 -0.06362,0.18251 -0.05351,0.21902 0.113287,0.40899 0.188845,0.21508 0.251562,0.43364 0.248138,0.86471 -0.0012,0.13692 0.01576,0.3934 0.03744,0.56997 0.02909,0.23691 0.012,0.37881 -0.06521,0.54152 -0.09594,0.20218 -0.09641,0.23221 -0.0056,0.36183 0.161541,0.23063 0.131342,0.75024 -0.05658,0.97357 -0.113611,0.13502 -0.155696,0.25803 -0.155994,0.45597 -7.15e-4,0.41984 -0.372033,0.86081 -0.725895,0.86189 -0.09786,2.3e-4 -0.145852,0.0494 -0.174167,0.17836 -0.04031,0.18354 -0.27276,0.43872 -0.511259,0.56125 -0.202489,0.10403 -0.522954,0.0847 -0.767429,-0.0464 z m 0.796933,-0.0645 c 0.238494,-0.12245 0.485091,-0.45683 0.417521,-0.56616 -0.02112,-0.0342 -0.10003,-0.0621 -0.175374,-0.0621 -0.07534,0 -0.209353,-0.0671 -0.297799,-0.14912 -0.194343,-0.1802 -0.430702,-0.17548 -0.74031,0.0148 -0.1198,0.0736 -0.252825,0.13397 -0.295611,0.1341 -0.210837,7.1e-4 0.04472,0.46121 0.343415,0.61891 0.294805,0.15566 0.459533,0.15776 0.748158,0.01 z m -0.934277,-0.78738 c 0.17781,-0.12454 0.174306,-0.17791 -0.01741,-0.26526 -0.329772,-0.15026 -0.522585,-0.79432 -0.339954,-1.13556 0.05654,-0.10564 0.0432,-0.12035 -0.10891,-0.12015 -0.366286,4.8e-4 -0.764555,0.42182 -0.764555,0.80881 0,0.22781 0.196395,0.56781 0.39954,0.69169 0.233023,0.1421 0.643225,0.1522 0.831291,0.0205 z m 1.869052,-0.0292 c 0.220507,-0.13444 0.385362,-0.44603 0.384985,-0.72766 -4.76e-4,-0.38171 -0.39954,-0.76436 -0.797072,-0.76436 -0.179253,0 -0.180488,0.002 -0.118184,0.23589 0.09775,0.36622 0.01385,0.65433 -0.263474,0.90489 -0.221672,0.20027 -0.23325,0.22611 -0.138265,0.3087 0.233415,0.20294 0.638596,0.22143 0.93201,0.0425 z m -0.856159,-0.40609 c 0.193792,-0.18566 0.323249,-0.52561 0.267181,-0.70161 -0.01828,-0.0574 -0.06101,-0.17891 -0.09499,-0.27014 l -0.06177,-0.16588 -0.21503,0.12687 c -0.258712,0.15264 -0.76356,0.13071 -0.953776,-0.0414 -0.116241,-0.1052 -0.123582,-0.10104 -0.217189,0.12299 -0.124801,0.2987 -0.122178,0.45164 0.01203,0.70114 0.258766,0.48108 0.882025,0.59357 1.26354,0.22806 z m 1.423004,-0.79766 c 0.22722,-0.36765 0.134691,-0.89506 -0.194919,-1.11103 -0.369861,-0.24234 -0.857983,-0.18116 -0.857983,0.10753 0,0.0875 -0.04201,0.25966 -0.09335,0.38254 -0.05134,0.12288 -0.09318,0.227 -0.09297,0.23138 2.11e-4,0.004 0.125732,0.0114 0.278939,0.0156 0.321898,0.009 0.560428,0.14445 0.706825,0.4018 0.05662,0.0995 0.107667,0.18114 0.113433,0.18136 0.0058,1.8e-4 0.06878,-0.0939 0.140028,-0.20921 z m -3.395997,-0.19162 c 0.110107,-0.084 0.314636,-0.171 0.454511,-0.19336 l 0.254316,-0.0407 -0.09112,-0.18266 c -0.05819,-0.11664 -0.08338,-0.31105 -0.0697,-0.53789 l 0.02142,-0.35519 -0.20964,-0.0201 c -0.477369,-0.0457 -0.879454,0.31089 -0.879454,0.77985 0,0.24838 0.187029,0.7027 0.289281,0.7027 0.01661,0 0.12028,-0.0687 0.230387,-0.15269 z m 1.882055,-0.12538 c 0.390724,-0.25601 0.479391,-0.79872 0.192046,-1.17545 -0.293116,-0.3843 -0.787162,-0.43962 -1.155806,-0.12943 -0.351851,0.29606 -0.401179,0.75865 -0.119134,1.11721 0.262267,0.33342 0.735328,0.4154 1.082894,0.18767 z m 1.642531,-1.36246 c -4.77e-4,-0.14168 -0.02705,-0.29887 -0.05896,-0.34932 -0.04944,-0.0782 -0.07916,-0.0724 -0.201307,0.0389 -0.332298,0.30288 -0.745954,0.35807 -1.093876,0.14594 -0.112071,-0.0683 -0.217091,-0.12424 -0.233378,-0.12424 -0.08191,0 -0.0096,0.16195 0.157088,0.3518 0.102688,0.11695 0.186702,0.23765 0.186702,0.26821 0,0.0306 0.149208,0.0402 0.331575,0.0214 0.237339,-0.0245 0.383255,-0.006 0.51343,0.064 0.171398,0.0926 0.18812,0.0908 0.290766,-0.0304 0.06596,-0.0779 0.108532,-0.23023 0.107955,-0.38624 z m -3.270825,0.0746 c 0.282689,-0.006 0.289897,-0.0106 0.254059,-0.17377 -0.02029,-0.0924 -0.0097,-0.2394 0.02349,-0.32674 0.05834,-0.15345 0.05097,-0.15986 -0.219124,-0.1903 -0.175204,-0.0198 -0.337662,-0.0861 -0.43537,-0.17794 l -0.155869,-0.14643 -0.118924,0.15478 c -0.146211,0.1903 -0.159209,0.61741 -0.02659,0.87386 0.09068,0.17535 0.101889,0.17945 0.241243,0.0881 0.08038,-0.0527 0.277068,-0.0984 0.437086,-0.1016 z m 1.191027,-0.26998 c 0.36645,0 0.400434,-0.0112 0.400434,-0.13188 0,-0.10257 -0.04855,-0.13976 -0.218409,-0.16733 -0.120126,-0.0195 -0.299262,-0.093 -0.39808,-0.16337 -0.162841,-0.11596 -0.195721,-0.11961 -0.351056,-0.039 -0.09426,0.0489 -0.194751,0.12576 -0.223307,0.17079 -0.06158,0.0971 -0.07007,0.43389 -0.01457,0.57851 0.03356,0.0874 0.06574,0.0769 0.221905,-0.0727 0.161554,-0.15478 0.228909,-0.175 0.583087,-0.175 z m 1.481077,0.008 c 0.255517,-0.10676 0.459789,-0.35994 0.511106,-0.63348 0.0717,-0.38219 -0.253225,-0.83395 -0.671203,-0.93319 -0.165052,-0.0392 -0.167327,-0.0358 -0.109774,0.1649 0.111929,0.39028 -0.116286,0.82518 -0.550295,1.04868 -0.122752,0.0632 -0.131955,0.0888 -0.06226,0.17273 0.09563,0.11522 0.406929,0.26024 0.566148,0.26374 0.061,10e-4 0.203325,-0.0362 0.316277,-0.0834 z m -0.769472,-0.4772 c 0.221177,-0.11351 0.388845,-0.37186 0.419846,-0.64691 0.06801,-0.60337 -0.487005,-1.0409 -1.063626,-0.83848 -0.201716,0.0708 -0.253843,0.11786 -0.236933,0.21387 0.08109,0.46037 0.07562,0.65607 -0.02422,0.86647 -0.10313,0.21733 -0.102735,0.23009 0.0098,0.31648 0.250657,0.19245 0.621308,0.22912 0.895162,0.0886 z m -1.300558,-0.13839 c 0.280228,-0.18665 0.454679,-0.54442 0.402107,-0.82465 -0.160639,-0.85628 -1.369539,-0.91458 -1.595096,-0.0769 -0.190226,0.70644 0.595008,1.29986 1.192989,0.90157 z m 2.221786,-1.30771 c 0.02347,-0.35814 -0.109807,-0.63078 -0.375497,-0.76818 -0.256168,-0.13247 -0.622576,-0.13144 -0.826727,0.002 -0.149285,0.0978 -0.402815,0.44331 -0.403345,0.54966 -1.31e-4,0.0257 0.127181,0.0467 0.28291,0.0467 0.310739,0 0.596753,0.12024 0.726432,0.30538 0.07438,0.1062 0.344627,0.19131 0.515156,0.16225 0.03423,-0.006 0.07071,-0.13998 0.08107,-0.2981 z m -1.829212,-0.036 c 0.01808,-0.0293 -0.03547,-0.11739 -0.118989,-0.19585 -0.196948,-0.18503 -0.302653,-0.51277 -0.252169,-0.78188 0.04549,-0.24247 0.0094,-0.25698 -0.30846,-0.12415 -0.250454,0.10464 -0.465538,0.42239 -0.465925,0.68831 -2.61e-4,0.18412 0.0038,0.18642 0.295379,0.16647 0.235871,-0.0161 0.339691,0.0111 0.513468,0.13469 0.24412,0.17365 0.289489,0.18879 0.336696,0.11241 z m 0.39416,-0.64551 c 0.190589,-0.20095 0.514066,-0.32027 0.767451,-0.28308 0.214556,0.0315 0.22711,-0.0326 0.06006,-0.30655 -0.239613,-0.39298 -0.74869,-0.50583 -1.12818,-0.25009 -0.286608,0.19314 -0.378182,0.38975 -0.348323,0.74784 0.01861,0.22315 0.07014,0.34576 0.204116,0.4856 l 0.179225,0.18707 0.05235,-0.20554 c 0.02879,-0.11305 0.124777,-0.28191 0.213301,-0.37525 z"
       style="fill:#0a425a;fill-opacity:1;stroke-width:0.06223394;opacity:1"
       inkscape:connector-curvature="0" />
  </g>
</svg>
