<?xml version="1.0" encoding="UTF-8" standalone="no"?>
<svg
   xmlns:dc="http://purl.org/dc/elements/1.1/"
   xmlns:cc="http://creativecommons.org/ns#"
   xmlns:rdf="http://www.w3.org/1999/02/22-rdf-syntax-ns#"
   xmlns:svg="http://www.w3.org/2000/svg"
   xmlns="http://www.w3.org/2000/svg"
   xmlns:sodipodi="http://sodipodi.sourceforge.net/DTD/sodipodi-0.dtd"
   xmlns:inkscape="http://www.inkscape.org/namespaces/inkscape"
   height="100px"
   width="100px"
   fill="#000000"
   xml:space="preserve"
   version="1.1"
   style="shape-rendering:geometricPrecision;text-rendering:geometricPrecision;image-rendering:optimizeQuality;"
   viewBox="0 0 333 333"
   x="0px"
   y="0px"
   fill-rule="evenodd"
   clip-rule="evenodd"
   id="svg10"
   sodipodi:docname="telephone.svg"
   inkscape:version="0.92.4 (5da689c313, 2019-01-14)"><metadata
     id="metadata14"><rdf:RDF><cc:Work
         rdf:about=""><dc:format>image/svg+xml</dc:format><dc:type
           rdf:resource="http://purl.org/dc/dcmitype/StillImage" /><dc:title /></cc:Work></rdf:RDF></metadata><sodipodi:namedview
     pagecolor="#ffffff"
     bordercolor="#666666"
     borderopacity="1"
     objecttolerance="10"
     gridtolerance="10"
     guidetolerance="10"
     inkscape:pageopacity="0"
     inkscape:pageshadow="2"
     inkscape:window-width="1920"
     inkscape:window-height="1046"
     id="namedview12"
     showgrid="false"
     inkscape:zoom="7.7714062"
     inkscape:cx="20.983373"
     inkscape:cy="50"
     inkscape:window-x="-11"
     inkscape:window-y="-11"
     inkscape:window-maximized="1"
     inkscape:current-layer="svg10" /><defs
     id="defs4"><style
       type="text/css"
       id="style2">
   
    .fil0 {fill:#000000}
   
  </style></defs><circle
     style="fill:#cccccc;fill-opacity:0.94117647;stroke-width:3.32999969"
     id="path815"
     cx="166.5"
     cy="166.5"
     r="166.5085" /><g
     id="g8"
     style="fill:#0a425a;fill-opacity:1"
     transform="matrix(0.77022,0,0,0.77022,38.262224,38.104147)"><path
       class="fil0"
       d="m 93,136 30,-31 c 0,0 10,-16 -6,-47 C 100,27 49,24 37,56 4,153 180,329 277,296 c 33,-11 29,-63 -2,-80 -30,-16 -46,-5 -46,-5 l -32,29 C 163,214 119,171 93,136 Z m 112,112 30,-27 c 0,0 6,-7 32,3 26,10 -38,33 -62,24 z M 57,134 c 0,0 -25,-65 -1,-83 24,-17 54,9 42,24 -13,15 -36,3 -36,3 0,0 -8,38 -5,56 z"
       id="path6"
       style="fill:#0a425a;fill-opacity:1"
       inkscape:connector-curvature="0" /></g></svg>