<?xml version="1.0" encoding="UTF-8" standalone="no"?>
<svg
   width="1200pt"
   height="1200pt"
   version="1.1"
   viewBox="0 0 1200 1200"
   id="svg14"
   sodipodi:docname="update_fIle_description.svg"
   inkscape:version="1.2.2 (b0a8486541, 2022-12-01)"
   xmlns:inkscape="http://www.inkscape.org/namespaces/inkscape"
   xmlns:sodipodi="http://sodipodi.sourceforge.net/DTD/sodipodi-0.dtd"
   xmlns="http://www.w3.org/2000/svg"
   xmlns:svg="http://www.w3.org/2000/svg">
  <defs
     id="defs18" />
  <sodipodi:namedview
     id="namedview16"
     pagecolor="#ffffff"
     bordercolor="#666666"
     borderopacity="1.0"
     inkscape:showpageshadow="2"
     inkscape:pageopacity="0.0"
     inkscape:pagecheckerboard="0"
     inkscape:deskcolor="#d1d1d1"
     inkscape:document-units="pt"
     showgrid="false"
     inkscape:zoom="0.528125"
     inkscape:cx="748.87574"
     inkscape:cy="799.05325"
     inkscape:window-width="1920"
     inkscape:window-height="1043"
     inkscape:window-x="1920"
     inkscape:window-y="0"
     inkscape:window-maximized="1"
     inkscape:current-layer="svg14" />
  <g
     id="g12"
     style="fill:#0a425a;fill-opacity:1">
    <path
       d="m850.78 638.95-121.8 122.77h18.676v28.125h-46.777l-112.71 112.5h159.48v28.125h-187.58l-72.34 72.57-139.3 30.555 22.32-103.12h-127v-28.125h133.11l1.875-8.3711 2.9102-2.668 100.98-101.46h-238.88v-28.125h266.92l112.48-112.5h-379.4v-28.125h407.45l199.59-201.33v-213.52h-154.69v70.312h-398.44v-70.312h-157.03v918.75h710.16zm-607.03-158.48h292.97v28.125h-292.97z"
       id="path2"
       style="fill:#0a425a;fill-opacity:1" />
    <path
       d="m667.97 145.31h-96.145l-2.3438-11.25c-7.0312-33.477-37.805-57.852-73.141-57.852-16.938 0.20312-33.324 6.0352-46.582 16.574-13.258 10.543-22.637 25.191-26.652 41.648l-2.5977 10.879h-94.727v103.12h342.19z"
       id="path4"
       style="fill:#0a425a;fill-opacity:1" />
    <path
       d="m1058.4 392.55-69.816-69.949-33 33.09 69.789 69.918z"
       id="path6"
       style="fill:#0a425a;fill-opacity:1" />
    <path
       d="m480.71 970.8 524.82-525.29-69.766-69.898-524.3 525.81z"
       id="path8"
       style="fill:#0a425a;fill-opacity:1" />
    <path
       d="m385.2 997.13 67.391-14.691-52.723-52.824z"
       id="path10"
       style="fill:#0a425a;fill-opacity:1" />
  </g>
</svg>
