<?xml version="1.0" encoding="UTF-8" standalone="no"?>
<svg
   xmlns:dc="http://purl.org/dc/elements/1.1/"
   xmlns:cc="http://creativecommons.org/ns#"
   xmlns:rdf="http://www.w3.org/1999/02/22-rdf-syntax-ns#"
   xmlns:svg="http://www.w3.org/2000/svg"
   xmlns="http://www.w3.org/2000/svg"
   xmlns:sodipodi="http://sodipodi.sourceforge.net/DTD/sodipodi-0.dtd"
   xmlns:inkscape="http://www.inkscape.org/namespaces/inkscape"
   height="100px"
   width="100px"
   fill="#000000"
   version="1.1"
   x="0px"
   y="0px"
   viewBox="0 0 100 100"
   enable-background="new 0 0 100 100"
   xml:space="preserve"
   id="svg16"
   sodipodi:docname="veto_rond.svg"
   inkscape:version="1.0.1 (1.0.1+r74)"><metadata
     id="metadata22"><rdf:RDF><cc:Work
         rdf:about=""><dc:format>image/svg+xml</dc:format><dc:type
           rdf:resource="http://purl.org/dc/dcmitype/StillImage" /><dc:title /></cc:Work></rdf:RDF></metadata><defs
     id="defs20" /><sodipodi:namedview
     pagecolor="#ffffff"
     bordercolor="#666666"
     borderopacity="1"
     objecttolerance="10"
     gridtolerance="10"
     guidetolerance="10"
     inkscape:pageopacity="0"
     inkscape:pageshadow="2"
     inkscape:window-width="1920"
     inkscape:window-height="1016"
     id="namedview18"
     showgrid="false"
     inkscape:zoom="2.36"
     inkscape:cx="-25.847457"
     inkscape:cy="48.09322"
     inkscape:window-x="0"
     inkscape:window-y="27"
     inkscape:window-maximized="1"
     inkscape:current-layer="svg16"
     inkscape:document-rotation="0" /><circle
     style="fill:#b3b3b3;fill-opacity:0.94117647;stroke-width:0.99999994"
     id="path815"
     cx="50"
     cy="50"
     r="50.002552" /><g
     id="g825"
     style="fill:#0a425a;fill-opacity:1"
     transform="matrix(0.84479113,0,0,0.84479113,7.7604433,7.7600209)"><path
       style="fill:#0a425a;fill-opacity:1"
       id="path2"
       d="m 47.903,16.65 0.569,30.712 c 0.979,-0.304 2.012,-0.549 3.07,-0.759 L 52.097,16.65 c 1.292,-0.734 2.173,-2.106 2.173,-3.698 0,-2.358 -1.911,-4.27 -4.27,-4.27 -2.359,0 -4.27,1.912 -4.27,4.27 0,1.592 0.881,2.964 2.173,3.698 z"
       inkscape:connector-curvature="0" /><path
       style="fill:#0a425a;fill-opacity:1"
       id="path4"
       d="m 35.7,34.459 c 8.528,0 6.071,3.68 11.422,4.077 L 46.75,18.473 c -2.088,-1.487 -6.524,-4.335 -9.884,-4.335 -5.021,0 -9.013,4.583 -15.872,6.531 C 12.955,22.951 5,22.762 5,24.576 c 0,2.174 5.437,2.768 5.437,2.768 0,0 -0.356,2.876 5.278,3.024 0,0 -0.089,2.313 4.566,1.957 0,0 0.801,2.165 4.922,1.601 0,0 0.208,2.432 5.516,0.652 0,0 1.631,1.602 4.981,-0.119 z"
       inkscape:connector-curvature="0" /><path
       style="fill:#0a425a;fill-opacity:1"
       id="path6"
       d="m 95,24.576 c 0,-1.813 -7.955,-1.625 -15.994,-3.907 -6.858,-1.947 -10.852,-6.531 -15.872,-6.531 -3.36,0 -7.796,2.848 -9.884,4.335 l -0.372,20.063 c 5.351,-0.397 2.894,-4.077 11.422,-4.077 3.351,1.72 4.981,0.119 4.981,0.119 5.308,1.779 5.516,-0.652 5.516,-0.652 4.122,0.563 4.922,-1.601 4.922,-1.601 4.655,0.356 4.566,-1.957 4.566,-1.957 5.635,-0.148 5.278,-3.024 5.278,-3.024 0,0 5.437,-0.594 5.437,-2.768 z"
       inkscape:connector-curvature="0" /><path
       style="fill:#0a425a;fill-opacity:1"
       id="path8"
       d="m 62.724,38.667 c -0.114,-0.016 -0.233,-0.023 -0.351,-0.035 -1.998,-0.892 -8.096,0.882 -8.096,2.676 0,1.804 6.543,2.887 8.429,1.692 1.303,0.311 1.743,0.989 1.743,1.308 0,1.495 -5.012,2.243 -8.327,2.737 -3.042,0.454 -6.187,0.923 -8.703,1.947 -4.265,1.734 -5.161,4.578 -5.161,6.658 0,2.582 1.197,4.397 2.783,5.803 1.053,-0.805 2.189,-1.46 3.196,-2.041 0.159,-0.092 0.306,-0.178 0.454,-0.265 0.008,-0.005 0.015,-0.009 0.023,-0.014 0.056,-0.032 0.116,-0.067 0.17,-0.1 0,0 -10e-4,-0.001 -0.002,-0.001 1.094,-0.646 1.911,-1.179 2.461,-1.67 l 0.072,-3.925 c -1.183,0.289 -2.159,0.619 -2.812,1.016 l 0.082,4.437 c -1.371,-0.98 -2.157,-1.931 -2.157,-3.24 0,-2.651 4.237,-3.488 10.224,-4.382 2.758,-0.412 5.363,-0.8 7.455,-1.575 3.729,-1.381 4.513,-3.691 4.513,-5.385 0,-2.332 -1.877,-5.093 -5.996,-5.641 z"
       inkscape:connector-curvature="0" /><path
       style="fill:#0a425a;fill-opacity:1"
       id="path10"
       d="m 46.972,47.894 c 0.21,-0.085 0.426,-0.166 0.644,-0.245 -1.23,-0.228 -2.492,-0.417 -3.738,-0.603 -3.316,-0.495 -8.328,-1.243 -8.328,-2.737 0,-0.319 0.441,-0.997 1.744,-1.308 1.886,1.195 8.428,0.112 8.428,-1.692 0,-1.794 -6.098,-3.568 -8.096,-2.676 -0.117,0.012 -0.236,0.019 -0.35,0.035 -4.12,0.548 -5.996,3.309 -5.996,5.642 0,1.694 0.783,4.004 4.512,5.385 1.907,0.707 4.242,1.092 6.729,1.466 0.881,-1.208 2.271,-2.38 4.451,-3.267 z"
       inkscape:connector-curvature="0" /><path
       style="fill:#0a425a;fill-opacity:1"
       id="path12"
       d="m 50.963,64.139 c 3.02,-1.742 6.778,-3.911 6.778,-8.487 0,-0.967 -0.193,-2.099 -0.829,-3.207 -1.837,0.274 -3.602,0.559 -5.086,0.897 1.054,0.582 1.646,1.319 1.646,2.31 0,1.969 -1.754,3.122 -4.642,4.789 -2.793,1.611 -6.27,3.617 -6.27,7.625 0,2.641 1.65,4.573 3.174,5.935 0.538,-0.552 1.04,-0.948 1.446,-1.268 0.287,-0.22 0.537,-0.408 0.763,-0.579 0.293,-0.221 0.721,-0.611 0.721,-0.611 l 0.253,-0.204 0.644,-0.517 c 0.38,-0.305 1.028,-0.823 1.558,-1.366 l 0.074,-3.996 c 1.26,0.859 1.979,1.635 1.979,2.606 0,1.12 -1.035,2.199 -2.716,3.558 -0.051,0.041 -0.64,0.569 -0.698,0.62 -0.379,0.325 -0.999,0.773 -1.844,1.421 -0.421,0.332 -0.899,0.71 -1.402,1.236 -0.25,0.263 -0.504,0.565 -0.738,0.928 -0.232,0.361 -0.442,0.787 -0.573,1.258 -0.13,0.472 -0.172,0.971 -0.131,1.444 l 0.044,0.333 c 0.021,0.119 0.042,0.229 0.072,0.342 0.056,0.224 0.128,0.443 0.217,0.651 0.354,0.846 0.917,1.481 1.467,1.979 0.48,0.432 0.967,0.78 1.436,1.104 0.056,-0.07 0.112,-0.142 0.172,-0.214 0.357,-0.431 0.738,-0.831 1.106,-1.218 0.006,-0.007 0.013,-0.014 0.019,-0.021 l 0.218,-0.229 c 0.371,-0.392 0.789,-0.843 1.101,-1.276 l 0.045,-2.427 c -0.165,0.083 -0.329,0.166 -0.497,0.252 -0.297,0.155 -0.684,0.365 -0.968,0.567 -0.205,0.146 -0.447,0.364 -0.447,0.364 l 0.04,2.212 C 48.902,80.728 48.72,80.507 48.563,80.285 48.236,79.829 48.028,79.378 47.98,79 c -0.014,-0.095 -0.019,-0.186 -0.016,-0.274 -10e-4,-0.043 0.004,-0.092 0.008,-0.129 0.003,-0.014 0.007,-0.026 0.009,-0.038 10e-4,-0.002 0.002,-0.02 0.004,-0.041 l 0.005,-0.06 c 0.029,-0.153 0.074,-0.277 0.139,-0.385 0.128,-0.209 0.357,-0.432 0.686,-0.665 0.323,-0.23 0.723,-0.451 1.115,-0.656 0.796,-0.409 1.58,-0.787 2.137,-1.109 0.14,-0.079 0.758,-0.445 1.048,-0.678 1.685,-1.351 4.326,-3.56 4.326,-6.899 0,-2.213 -1.062,-3.815 -2.481,-5.078 -1.123,0.863 -2.331,1.561 -3.402,2.179 -0.123,0.071 -0.243,0.141 -0.362,0.21 -0.004,0.003 -0.008,0.005 -0.013,0.008 -0.018,0.01 -0.035,0.021 -0.053,0.03 -0.932,0.545 -1.737,1.041 -2.294,1.495 l 0.078,4.185 c -1.301,-1.117 -2.083,-2.058 -2.083,-3.028 -0.001,-1.439 1.561,-2.444 4.132,-3.928 z"
       inkscape:connector-curvature="0" /><path
       style="fill:#0a425a;fill-opacity:1"
       id="path14"
       d="m 54.227,75.828 c -0.034,-0.053 -0.069,-0.102 -0.104,-0.152 -0.145,0.117 -0.283,0.229 -0.413,0.332 l -0.121,0.089 -0.573,0.365 c -0.109,0.065 -0.233,0.14 -0.367,0.214 -0.396,0.229 -0.899,0.484 -1.434,0.754 0.313,0.226 0.532,0.44 0.657,0.644 0.064,0.107 0.109,0.231 0.139,0.385 l 0.005,0.06 c 0.002,0.021 0.003,0.039 0.004,0.041 0.002,0.012 0.006,0.024 0.01,0.038 0.003,0.037 0.008,0.086 0.008,0.129 0.003,0.089 -0.002,0.18 -0.017,0.274 -0.048,0.378 -0.256,0.829 -0.583,1.285 -0.324,0.458 -0.746,0.918 -1.184,1.38 -0.438,0.464 -0.897,0.934 -1.317,1.438 -0.418,0.505 -0.801,1.054 -1.045,1.653 -0.247,0.598 -0.325,1.235 -0.245,1.782 0.083,0.589 0.373,1.033 0.663,1.345 0.296,0.313 0.599,0.514 0.852,0.66 0.027,0.016 0.048,0.024 0.075,0.039 l 0.037,2.009 c 0,0.401 0.325,0.727 0.727,0.727 0.402,0 0.726,-0.325 0.727,-0.727 l 0.037,-2.01 c 0.026,-0.014 0.047,-0.022 0.075,-0.038 0.253,-0.146 0.556,-0.348 0.852,-0.66 0.29,-0.312 0.58,-0.756 0.663,-1.345 0.081,-0.547 0.002,-1.185 -0.245,-1.782 -0.143,-0.353 -0.338,-0.686 -0.556,-1.003 -0.253,0.171 -0.478,0.333 -0.708,0.497 V 84.24 c -0.107,0.076 -0.207,0.151 -0.308,0.227 -0.021,0.017 -0.048,0.033 -0.069,0.049 0,0 10e-4,10e-4 10e-4,10e-4 -0.044,0.034 -0.093,0.067 -0.136,0.101 -0.452,0.353 -0.775,0.673 -0.988,0.98 -0.061,0.087 -0.112,0.177 -0.158,0.269 l 0.045,2.459 c -0.191,-0.185 -0.399,-0.414 -0.57,-0.707 -0.184,-0.315 -0.31,-0.714 -0.27,-1.107 0.036,-0.429 0.19,-0.858 0.464,-1.251 0.274,-0.396 0.661,-0.76 1.111,-1.109 0.45,-0.352 0.961,-0.689 1.5,-1.055 0.537,-0.367 1.105,-0.758 1.662,-1.26 0.551,-0.498 1.113,-1.134 1.468,-1.979 0.089,-0.208 0.162,-0.428 0.217,-0.651 0.03,-0.113 0.051,-0.223 0.072,-0.342 l 0.044,-0.333 c 0.042,-0.474 0,-0.973 -0.131,-1.444 -0.131,-0.473 -0.341,-0.899 -0.573,-1.26 z m -3.394,9.048 c 0.115,0.125 0.22,0.253 0.311,0.384 0.274,0.393 0.429,0.822 0.464,1.251 0.041,0.394 -0.085,0.792 -0.27,1.107 -0.17,0.293 -0.378,0.522 -0.569,0.707 z"
       inkscape:connector-curvature="0" /></g></svg>
