<?xml version="1.0" encoding="UTF-8" standalone="no"?>
<svg
   xmlns:dc="http://purl.org/dc/elements/1.1/"
   xmlns:cc="http://creativecommons.org/ns#"
   xmlns:rdf="http://www.w3.org/1999/02/22-rdf-syntax-ns#"
   xmlns:svg="http://www.w3.org/2000/svg"
   xmlns="http://www.w3.org/2000/svg"
   xmlns:sodipodi="http://sodipodi.sourceforge.net/DTD/sodipodi-0.dtd"
   xmlns:inkscape="http://www.inkscape.org/namespaces/inkscape"
   height="100px"
   width="100px"
   fill="#000000"
   version="1.1"
   x="0px"
   y="0px"
   viewBox="0 0 80 80"
   enable-background="new 0 0 80 80"
   xml:space="preserve"
   id="svg20"
   sodipodi:docname="virement.svg"
   inkscape:version="0.92.4 (5da689c313, 2019-01-14)"><metadata
     id="metadata26"><rdf:RDF><cc:Work
         rdf:about=""><dc:format>image/svg+xml</dc:format><dc:type
           rdf:resource="http://purl.org/dc/dcmitype/StillImage" /><dc:title></dc:title></cc:Work></rdf:RDF></metadata><defs
     id="defs24" /><sodipodi:namedview
     pagecolor="#ffffff"
     bordercolor="#666666"
     borderopacity="1"
     objecttolerance="10"
     gridtolerance="10"
     guidetolerance="10"
     inkscape:pageopacity="0"
     inkscape:pageshadow="2"
     inkscape:window-width="1920"
     inkscape:window-height="1016"
     id="namedview22"
     showgrid="false"
     inkscape:zoom="2.36"
     inkscape:cx="50"
     inkscape:cy="50"
     inkscape:window-x="0"
     inkscape:window-y="27"
     inkscape:window-maximized="1"
     inkscape:current-layer="svg20" /><g
     id="g18"
     style="fill:#0a425a;fill-opacity:1"><path
       d="M69.0020447,46.0015259h-5.7678833c1.9337158-7.4819336,0.1637573-15.347168-4.7311401-21.2667236h5.7576294   c0.5527344,0,1-0.4472656,1-1s-0.4472656-1-1-1h-8c-0.1300659,0-0.2597046,0.0264893-0.3818359,0.0769653   c-0.244873,0.1013184-0.4398193,0.2962036-0.5411377,0.5411377c-0.0505371,0.1221313-0.0770264,0.25177-0.0770264,0.381897v8   c0,0.5527344,0.4472656,1,1,1s1-0.4472656,1-1v-5.3588867c4.3652344,5.5163574,5.8374023,12.7728271,3.8951416,19.6256104   H35.0020447c-1.6599731,0-3,1.3400269-3,3v0.9969482h40v-0.9969482   C72.0020447,47.3415527,70.6520691,46.0015259,69.0020447,46.0015259z"
       id="path2"
       style="fill:#0a425a;fill-opacity:1" /><rect
       x="32.0020447"
       y="51.9984741"
       width="40"
       height="3"
       id="rect4"
       style="fill:#0a425a;fill-opacity:1" /><path
       d="M32.0020447,57.0015259v12c0,1.6500244,1.3400269,3,3,3h34c1.6500244,0,3-1.3499756,3-3v-12H32.0020447z    M39.0020447,60.0015259h8c0.5499878,0,1,0.4400024,1,1c0,0.5500488-0.4500122,1-1,1h-8c-0.5599976,0-1-0.4499512-1-1   C38.0020447,60.4415283,38.4420471,60.0015259,39.0020447,60.0015259z M50.0020447,66.0015259h-11c-0.5599976,0-1-0.4499512-1-1   c0-0.5599976,0.4400024-1,1-1h11c0.5499878,0,1,0.4400024,1,1C51.0020447,65.5515747,50.5520325,66.0015259,50.0020447,66.0015259z    M62.0020447,67.0015259c0,0.5500488-0.4500122,1-1,1c-0.5599976,0-1-0.4499512-1-1v-7c0-0.5599976,0.4400024-1,1-1   c0.5499878,0,1,0.4400024,1,1V67.0015259z M66.0020447,67.0015259c0,0.5500488-0.4500122,1-1,1c-0.5599976,0-1-0.4499512-1-1v-7   c0-0.5599976,0.4400024-1,1-1c0.5499878,0,1,0.4400024,1,1V67.0015259z"
       id="path6"
       style="fill:#0a425a;fill-opacity:1" /><path
       d="M47.0020447,13.9715576c-2.7399902,0-4.9699707-2.2300415-4.9699707-4.9700317c0-0.5599976-0.4500122-1-1-1H14.9720764   c-0.5599976,0-1,0.4400024-1,1c0,2.7399902-2.2300415,4.9700317-4.9700317,4.9700317c-0.5499878,0-1,0.4400024-1,1v12.0599976   c0,0.5499878,0.4500122,1,1,1c2.7399902,0,4.9700317,2.2299805,4.9700317,4.9699707c0,0.5500488,0.4400024,1,1,1h1.789978   c-1.9299927,7.4800415-0.1599731,15.3400269,4.7299805,21.2600098h-5.7599487c-0.5500488,0-1,0.4500122-1,1s0.4499512,1,1,1h8   c0.1299438,0,0.2599487-0.0299683,0.3799438-0.0800171c0.25-0.0999756,0.4400024-0.289978,0.5500488-0.539978   c0.0499878-0.1199951,0.0700073-0.25,0.0700073-0.3800049v-8c0-0.5499878-0.4500122-1-1-1c-0.5500488,0-1,0.4500122-1,1v5.3599854   c-4.3600464-5.5199585-5.8300171-12.7699585-3.8900146-19.6199951H41.032074c0.5499878,0,1-0.4499512,1-1   c0-2.7399902,2.2299805-4.9699707,4.9699707-4.9699707c0.5499878,0,1-0.4500122,1-1V14.9715576   C48.0020447,14.4115601,47.5520325,13.9715576,47.0020447,13.9715576z M18.9920349,21.9915161h-6c-0.5499878,0-1-0.4399414-1-1   c0-0.5499878,0.4500122-1,1-1h6c0.5599976,0,1,0.4500122,1,1C19.9920349,21.5515747,19.5520325,21.9915161,18.9920349,21.9915161z    M28.0020447,29.0015259c-3.3099976,0-6-3.5899658-6-8c0-4.4099731,2.6900024-8,6-8s6,3.5900269,6,8   C34.0020447,25.4115601,31.3120422,29.0015259,28.0020447,29.0015259z M42.9920349,21.9915161h-6c-0.5499878,0-1-0.4399414-1-1   c0-0.5499878,0.4500122-1,1-1h6c0.5599976,0,1,0.4500122,1,1C43.9920349,21.5515747,43.5520325,21.9915161,42.9920349,21.9915161z"
       id="path8"
       style="fill:#0a425a;fill-opacity:1" /><path
       d="M11.9675598,8.9983521c0-0.3522949,0.0722046-0.6856079,0.1842651-0.9998779H8.9979553c-0.5499878,0-1,0.4400024-1,1   v3.1538086c0.31427-0.1120605,0.647583-0.1842041,0.9998779-0.1842041   C10.6355286,11.9680786,11.9675598,10.6360474,11.9675598,8.9983521z"
       id="path10"
       style="fill:#0a425a;fill-opacity:1" /><path
       d="M46.9978333,11.9680786c0.352356,0,0.685791,0.0721436,1.0001221,0.1842651V8.9984741c0-0.5599976-0.4500122-1-1-1   h-3.1540527c0.1120605,0.31427,0.1842041,0.647583,0.1842041,0.9998779   C44.0281067,10.6360474,45.3601379,11.9680786,46.9978333,11.9680786z"
       id="path12"
       style="fill:#0a425a;fill-opacity:1" /><path
       d="M8.9978333,30.0286255c-0.3522949,0-0.6856079-0.0722046-0.9998779-0.1842651v3.1541138c0,0.5500488,0.4500122,1,1,1   h3.1539307c-0.1121216-0.3143311-0.1843262-0.6477051-0.1843262-1.0001221   C11.9675598,31.3606567,10.6355286,30.0286255,8.9978333,30.0286255z"
       id="path14"
       style="fill:#0a425a;fill-opacity:1" /><path
       d="M44.0281067,32.9983521c0,0.352417-0.0721436,0.685791-0.1842651,1.0001221h3.1541138c0.5499878,0,1-0.4499512,1-1   v-3.1541748c-0.3143311,0.1121216-0.6477661,0.1843262-1.0001221,0.1843262   C45.3601379,30.0286255,44.0281067,31.3606567,44.0281067,32.9983521z"
       id="path16"
       style="fill:#0a425a;fill-opacity:1" /></g></svg>