<?xml version="1.0" encoding="UTF-8" standalone="no"?>
<!-- Created with Inkscape (http://www.inkscape.org/) -->

<svg
   xmlns:dc="http://purl.org/dc/elements/1.1/"
   xmlns:cc="http://creativecommons.org/ns#"
   xmlns:rdf="http://www.w3.org/1999/02/22-rdf-syntax-ns#"
   xmlns:svg="http://www.w3.org/2000/svg"
   xmlns="http://www.w3.org/2000/svg"
   xmlns:sodipodi="http://sodipodi.sourceforge.net/DTD/sodipodi-0.dtd"
   xmlns:inkscape="http://www.inkscape.org/namespaces/inkscape"
   width="100"
   height="100"
   viewBox="0 0 26.458333 26.458334"
   version="1.1"
   id="svg8"
   inkscape:version="0.92.4 (5da689c313, 2019-01-14)"
   sodipodi:docname="visi.svg">
  <defs
     id="defs2" />
  <sodipodi:namedview
     id="base"
     pagecolor="#ffffff"
     bordercolor="#666666"
     borderopacity="1.0"
     inkscape:pageopacity="0.0"
     inkscape:pageshadow="2"
     inkscape:zoom="7.9195959"
     inkscape:cx="10.183489"
     inkscape:cy="57.006168"
     inkscape:document-units="mm"
     inkscape:current-layer="layer1"
     showgrid="false"
     units="px"
     inkscape:window-width="1600"
     inkscape:window-height="836"
     inkscape:window-x="0"
     inkscape:window-y="27"
     inkscape:window-maximized="1"
     inkscape:snap-global="false" />
  <metadata
     id="metadata5">
    <rdf:RDF>
      <cc:Work
         rdf:about="">
        <dc:format>image/svg+xml</dc:format>
        <dc:type
           rdf:resource="http://purl.org/dc/dcmitype/StillImage" />
        <dc:title></dc:title>
      </cc:Work>
    </rdf:RDF>
  </metadata>
  <g
     inkscape:label="Calque 1"
     inkscape:groupmode="layer"
     id="layer1"
     transform="translate(0,-270.54165)">
    <circle
       style="fill:#b3b3b3;fill-opacity:0.94117647;stroke-width:0.26458332"
       id="path815"
       cx="13.229167"
       cy="283.77081"
       r="13.229842" />
    <path
       style="fill:#8f230a;fill-opacity:1;stroke-width:0.22622445"
       inkscape:connector-curvature="0"
       d="m 16.133443,281.22716 c 0.02975,-0.009 0.05853,-0.0223 0.08512,-0.0402 0.107034,-0.0733 0.15492,-0.20698 0.118554,-0.33139 L 15.9582,279.55925 c 1.871146,-0.9547 2.847363,-2.8609 2.332811,-4.62124 -0.599476,-2.05087 -3.035934,-3.1495 -5.431186,-2.44936 -2.395253,0.70014 -3.8564291,2.93806 -3.2569532,4.98893 0.5457142,1.86695 2.6033532,2.96294 4.8206052,2.58918 l 1.443812,1.1102 c 0.07658,0.0596 0.176036,0.0765 0.266149,0.0502 z m -3.105979,-8.16338 c 2.078231,-0.60747 4.181388,0.30881 4.688135,2.04245 0.451019,1.54298 -0.490865,3.23362 -2.239391,4.02001 -0.136229,0.0613 -0.206653,0.21384 -0.164701,0.35736 l 0.192697,0.65924 -0.821485,-0.6317 c -0.06813,-0.0525 -0.15548,-0.0731 -0.239929,-0.0564 -1.962231,0.38265 -3.796002,-0.53931 -4.265299,-2.14483 -0.5065957,-1.73392 0.771742,-3.63863 2.849973,-4.2461 z"
       id="path2-3"
       sodipodi:nodetypes="ccccssscccccccccccccc" />
    <g
       id="g4805"
       transform="translate(2.271791,-4.0090429)"
       style="fill:#0a425a;fill-opacity:1">
      <g
         id="g24"
         transform="matrix(0.26458333,0,0,0.26458333,-1.9906172,273.7668)"
         style="fill:#0a425a;fill-opacity:1">
        <path
           id="path12"
           d="m 68.3,40 c 0,-3.6 2.9,-6.5 6.5,-6.4 3.4,0 6.3,2.9 6.3,6.3 0.1,3.6 -2.8,6.5 -6.4,6.5 -3.5,0 -6.4,-2.9 -6.4,-6.4"
           class="st1"
           inkscape:connector-curvature="0"
           style="fill:#0a425a;fill-opacity:1" />
        <g
           id="g22"
           style="fill:#0a425a;fill-opacity:1">
          <path
             id="path14"
             d="m 19.8,40 c 0,-3.6 2.9,-6.5 6.5,-6.4 3.4,0 6.3,2.9 6.3,6.3 0.1,3.6 -2.8,6.5 -6.4,6.5 -3.5,0 -6.4,-2.9 -6.4,-6.4"
             class="st1"
             inkscape:connector-curvature="0"
             style="fill:#0a425a;fill-opacity:1" />
          <g
             id="g20"
             style="fill:#0a425a;fill-opacity:1">
            <path
               id="path16"
               d="m 33.1,67.3 h -0.4 l -13.1,-0.7 3.4,-8.7 6.4,3.2 0.7,0.3 c 0.2,0.1 0.5,0.2 0.8,0.2 L 43.1,61.4 43,57.9 31.8,56.2 21.5,48.4 16.7,47 7.8,69.4 7.7,69.6 c -0.2,0.6 -0.4,1.3 -0.3,2.1 0.1,2.7 2.5,4.8 5.2,4.6 l 17.2,-1.1 0.6,15.7 5.5,0.2 0.9,-20 c -0.1,-2 -1.6,-3.7 -3.7,-3.8 z"
               inkscape:connector-curvature="0"
               style="fill:#0a425a;fill-opacity:1" />
            <path
               id="path18"
               d="m 66.9,67.3 h 0.4 L 80.4,66.6 77,57.8 70.5,61 69.8,61.3 c -0.2,0.1 -0.5,0.2 -0.8,0.2 l -12.2,-0.2 0.1,-3.5 11.2,-1.7 10.3,-7.9 4.8,-1.3 8.9,22.4 0.1,0.2 c 0.2,0.6 0.4,1.3 0.3,2.1 -0.1,2.7 -2.5,4.8 -5.2,4.6 L 70.1,75.1 69.5,90.8 64,91 63.1,71 c 0.2,-1.9 1.7,-3.6 3.8,-3.7 z"
               inkscape:connector-curvature="0"
               style="fill:#0a425a;fill-opacity:1" />
          </g>
        </g>
      </g>
      <rect
         style="stroke-width:0.26458332;fill:#0a425a;fill-opacity:1"
         id="rect26"
         height="1.1112499"
         width="5.7150002"
         y="290.85889"
         x="8.3810501" />
      <rect
         style="stroke-width:0.26458332;fill:#0a425a;fill-opacity:1"
         id="rect28"
         height="6.7733335"
         width="1.0583333"
         y="291.25577"
         x="10.709383" />
    </g>
    <path
       id="path53"
       d="m 13.690141,279.10945 c -0.361174,-0.111 -0.736551,-0.49928 -0.916352,-0.94788 -0.191214,-0.4771 -0.244071,-0.85051 -0.241145,-1.70354 0.0025,-0.71661 0.01187,-0.81823 0.109763,-1.18572 0.13226,-0.49647 0.410641,-1.07041 0.646368,-1.33259 1.03835,-1.1549 2.367641,0.0947 2.465435,2.31762 0.04888,1.11119 -0.169314,2.00892 -0.602502,2.47887 -0.267318,0.29001 -0.499719,0.3877 -0.953705,0.40088 -0.210013,0.006 -0.438551,-0.006 -0.507862,-0.0277 z m 1.001834,-0.11136 c 0.669587,-0.29618 0.99324,-1.10088 0.997391,-2.4798 0.003,-0.9654 -0.186591,-1.70885 -0.590394,-2.31626 -0.287725,-0.4328 -0.600402,-0.63799 -0.972173,-0.63799 -0.945336,0 -1.697103,1.64693 -1.542712,3.37969 0.111111,1.24701 0.4834,1.92008 1.169796,2.11491 0.24492,0.0695 0.712256,0.0394 0.938092,-0.0605 z m -0.936365,-0.002 c -0.495763,-0.16206 -0.850709,-0.66065 -1.004414,-1.41087 -0.364651,-1.77984 0.224234,-3.69187 1.213803,-3.94104 0.767653,-0.1933 1.508081,0.89029 1.640499,2.40079 0.09575,1.09224 -0.141435,2.18501 -0.570138,2.62676 -0.241916,0.24928 -0.442364,0.332 -0.837357,0.34556 -0.187906,0.006 -0.386983,-0.004 -0.442393,-0.0212 z m 0.814845,-0.0682 c 0.573498,-0.19541 0.907507,-0.86274 0.992264,-1.98247 0.09483,-1.25291 -0.219288,-2.44056 -0.789262,-2.98408 -0.216398,-0.20636 -0.40123,-0.29088 -0.635745,-0.29074 -0.848245,6.1e-4 -1.539174,1.47262 -1.446773,3.08247 0.06975,1.2151 0.414427,1.96567 0.997576,2.1723 0.224134,0.0794 0.652644,0.0806 0.88194,0.002 z m -0.69463,-0.17255 c -0.08789,-0.0472 -0.175754,-0.14442 -0.235917,-0.26127 -0.0793,-0.15399 -0.115237,-0.18617 -0.207935,-0.18617 -0.129431,0 -0.335468,-0.15868 -0.421134,-0.32435 -0.06737,-0.13027 -0.07581,-0.3091 -0.02135,-0.45234 0.03077,-0.081 0.01986,-0.11514 -0.06074,-0.19092 -0.18726,-0.17593 -0.212488,-0.49863 -0.05617,-0.71849 0.06671,-0.0939 0.06654,-0.1032 -0.0035,-0.20097 -0.126807,-0.17688 -0.134467,-0.36009 -0.02412,-0.57691 0.08306,-0.1632 0.09189,-0.21371 0.05712,-0.32701 -0.06161,-0.20074 -0.0063,-0.40586 0.152351,-0.56445 0.106571,-0.10663 0.138746,-0.17215 0.138746,-0.28278 0,-0.28452 0.243639,-0.54195 0.512916,-0.54195 0.07079,0 0.131214,-0.0251 0.144633,-0.0601 0.07308,-0.19045 0.512724,-0.28331 0.753012,-0.15906 0.129654,0.067 0.277189,0.27507 0.277434,0.39117 8.4e-5,0.0394 0.06323,0.12696 0.140332,0.19465 0.175662,0.15424 0.250267,0.37739 0.186921,0.55911 -0.04109,0.11786 -0.03455,0.14146 0.07316,0.26415 0.121965,0.13891 0.162472,0.28007 0.16026,0.55848 -7.59e-4,0.0884 0.01017,0.25408 0.02419,0.36811 0.01878,0.15301 0.0078,0.24466 -0.04211,0.34974 -0.06196,0.13058 -0.06226,0.14998 -0.0037,0.23369 0.104337,0.14895 0.08483,0.48454 -0.03654,0.62879 -0.07338,0.0872 -0.100554,0.16665 -0.100755,0.29448 -4.56e-4,0.27115 -0.240278,0.55596 -0.468821,0.55666 -0.06321,1.5e-4 -0.09419,0.0319 -0.112482,0.11514 -0.02604,0.11855 -0.176163,0.28335 -0.330199,0.36248 -0.130777,0.0671 -0.33775,0.0546 -0.495644,-0.03 z m 0.514701,-0.0417 c 0.154032,-0.0791 0.313297,-0.29504 0.269656,-0.36565 -0.01364,-0.0221 -0.06461,-0.0401 -0.113262,-0.0401 -0.04866,0 -0.135211,-0.0434 -0.192333,-0.0964 -0.125518,-0.11644 -0.278171,-0.11337 -0.478131,0.009 -0.07737,0.0475 -0.163288,0.0865 -0.190922,0.0866 -0.13617,4.5e-4 0.02888,0.29787 0.221796,0.39972 0.190401,0.10048 0.29679,0.1019 0.483199,0.006 z m -0.603406,-0.50853 c 0.114835,-0.0804 0.112577,-0.1149 -0.01123,-0.17131 -0.212984,-0.0971 -0.337512,-0.51301 -0.21956,-0.73341 0.03652,-0.0682 0.0279,-0.0778 -0.07034,-0.0775 -0.236565,3.1e-4 -0.493789,0.27243 -0.493789,0.52237 0,0.14713 0.126842,0.36673 0.258044,0.44674 0.150499,0.0917 0.415428,0.0982 0.536891,0.0132 z m 1.207132,-0.0188 c 0.142416,-0.0868 0.248887,-0.28807 0.248644,-0.46997 -3.04e-4,-0.24652 -0.258044,-0.49365 -0.514791,-0.49365 -0.115768,0 -0.116572,10e-4 -0.07633,0.15234 0.06313,0.23653 0.009,0.4226 -0.170166,0.58442 -0.143167,0.12935 -0.150645,0.14605 -0.0893,0.19939 0.150751,0.13106 0.412439,0.143 0.601941,0.0274 z M 14.4413,277.92365 c 0.125161,-0.11992 0.208771,-0.33947 0.172559,-0.45315 -0.01182,-0.037 -0.0394,-0.11549 -0.06134,-0.17447 l -0.0399,-0.10711 -0.138878,0.0819 c -0.16709,0.0986 -0.493147,0.0844 -0.615999,-0.0267 -0.07508,-0.068 -0.07982,-0.0652 -0.140271,0.0794 -0.0806,0.19291 -0.07891,0.29169 0.0078,0.45283 0.167124,0.3107 0.569657,0.38336 0.816059,0.14729 z m 0.91905,-0.51518 c 0.146751,-0.23744 0.08699,-0.57807 -0.125889,-0.71755 -0.238875,-0.15652 -0.55413,-0.11704 -0.55413,0.0694 0,0.0565 -0.02713,0.1677 -0.06029,0.24707 -0.03316,0.0793 -0.06018,0.14661 -0.06004,0.14944 1.37e-4,0.002 0.0812,0.007 0.180154,0.0106 0.207899,0.006 0.361953,0.0933 0.456504,0.2595 0.03658,0.0643 0.06954,0.11704 0.07326,0.11715 0.0037,1.2e-4 0.04443,-0.0606 0.09044,-0.13512 z m -2.193311,-0.12402 c 0.07111,-0.0543 0.203207,-0.11041 0.293545,-0.12488 l 0.164251,-0.0262 -0.05885,-0.11798 c -0.03758,-0.0753 -0.05385,-0.2009 -0.04502,-0.34739 l 0.01383,-0.22943 -0.135396,-0.013 c -0.30831,-0.0294 -0.567998,0.20079 -0.567998,0.50367 0,0.16042 0.120794,0.45384 0.186834,0.45384 0.01076,0 0.07768,-0.0443 0.148796,-0.0986 z m 1.215528,-0.081 c 0.25235,-0.16535 0.309616,-0.51586 0.124033,-0.75918 -0.189309,-0.2482 -0.508389,-0.28392 -0.746479,-0.0836 -0.227243,0.19121 -0.259102,0.48997 -0.07695,0.72155 0.169386,0.21534 0.474913,0.26829 0.699389,0.12121 z M 15.4434,276.3235 c -3.04e-4,-0.0915 -0.01747,-0.19304 -0.03808,-0.22562 -0.03193,-0.0505 -0.05113,-0.0468 -0.130015,0.0251 -0.214615,0.19562 -0.481775,0.23126 -0.706482,0.0942 -0.07238,-0.0441 -0.140208,-0.0803 -0.150728,-0.0803 -0.0529,0 -0.0061,0.10463 0.101453,0.22721 0.06632,0.0755 0.120582,0.1535 0.120582,0.17323 0,0.0197 0.09637,0.026 0.214148,0.0138 0.153286,-0.0158 0.247526,-0.004 0.3316,0.0414 0.110697,0.0598 0.121497,0.0586 0.187791,-0.0196 0.04261,-0.0504 0.0701,-0.14869 0.06972,-0.24946 z m -2.11247,0.0482 c 0.182576,-0.004 0.187231,-0.007 0.164085,-0.11219 -0.0131,-0.0597 -0.0063,-0.15461 0.01517,-0.21101 0.03769,-0.0991 0.03292,-0.1032 -0.141522,-0.12291 -0.113156,-0.0128 -0.21808,-0.0557 -0.281184,-0.11491 l -0.100672,-0.0946 -0.07681,0.10001 c -0.09443,0.12291 -0.102824,0.39876 -0.01718,0.56439 0.05856,0.11325 0.0658,0.11585 0.155806,0.057 0.05191,-0.034 0.178946,-0.0636 0.282294,-0.0656 z m 0.769227,-0.17437 c 0.236674,0 0.258622,-0.007 0.258622,-0.0851 0,-0.0662 -0.03135,-0.0903 -0.141061,-0.10805 -0.07758,-0.0125 -0.193278,-0.0601 -0.2571,-0.10557 -0.105176,-0.075 -0.126406,-0.0772 -0.22673,-0.0252 -0.06088,0.0316 -0.12578,0.0812 -0.144223,0.1103 -0.03978,0.0628 -0.04525,0.28023 -0.0095,0.37363 0.02168,0.0565 0.04246,0.0496 0.143318,-0.0469 0.104337,-0.10001 0.147842,-0.11302 0.376588,-0.11302 z m 0.956558,0.005 c 0.165025,-0.0689 0.296955,-0.23247 0.330098,-0.40914 0.04631,-0.24684 -0.163546,-0.53861 -0.433498,-0.6027 -0.106595,-0.0253 -0.108072,-0.023 -0.07089,0.10651 0.07229,0.25206 -0.0751,0.53294 -0.355409,0.67729 -0.07927,0.0408 -0.08522,0.0573 -0.04022,0.1116 0.06176,0.0745 0.262817,0.16808 0.365649,0.17033 0.03939,9.2e-4 0.131318,-0.0234 0.204268,-0.0538 z m -0.496966,-0.3082 c 0.142848,-0.0733 0.251137,-0.24017 0.271159,-0.41781 0.04393,-0.38968 -0.314534,-0.67227 -0.686946,-0.54153 -0.130278,0.0457 -0.163945,0.0761 -0.153023,0.13812 0.05237,0.29734 0.04884,0.42373 -0.01564,0.55961 -0.0666,0.14037 -0.06635,0.14861 0.0063,0.20441 0.161887,0.12429 0.401273,0.14798 0.578141,0.0572 z m -0.839968,-0.0891 c 0.180986,-0.12055 0.293656,-0.35161 0.259702,-0.5326 -0.103746,-0.55304 -0.88452,-0.59069 -1.030196,-0.0497 -0.122858,0.45626 0.384287,0.83952 0.770494,0.58228 z m 1.434945,-0.84458 c 0.01516,-0.23131 -0.07092,-0.4074 -0.242515,-0.49614 -0.165447,-0.0856 -0.402093,-0.0849 -0.533944,10e-4 -0.09642,0.0631 -0.260158,0.28631 -0.260501,0.35499 -8.4e-5,0.0165 0.08214,0.0301 0.182718,0.0301 0.200691,0 0.385415,0.0777 0.469168,0.19723 0.04804,0.0686 0.222579,0.12355 0.332714,0.10473 0.02211,-0.004 0.04567,-0.0904 0.05236,-0.19253 z m -1.1814,-0.0233 c 0.0117,-0.0189 -0.02291,-0.0758 -0.07685,-0.12649 -0.1272,-0.11949 -0.19547,-0.33117 -0.162865,-0.50498 0.02938,-0.1566 0.0061,-0.16597 -0.199219,-0.0802 -0.161757,0.0676 -0.300669,0.2728 -0.300919,0.44456 -1.69e-4,0.11891 0.0025,0.12039 0.190771,0.10746 0.152338,-0.0106 0.219391,0.007 0.331625,0.087 0.157665,0.11219 0.186967,0.12193 0.217456,0.0726 z m 0.254569,-0.4169 c 0.123092,-0.12979 0.332011,-0.20685 0.49566,-0.18283 0.138571,0.0203 0.14668,-0.021 0.03879,-0.19799 -0.154755,-0.25381 -0.483544,-0.32669 -0.728638,-0.16152 -0.185107,0.12474 -0.24425,0.25172 -0.224965,0.483 0.01202,0.14411 0.0453,0.22331 0.131828,0.31362 l 0.115756,0.12082 0.03381,-0.13275 c 0.01859,-0.073 0.08059,-0.18207 0.13776,-0.24235 z"
       style="fill:#0a425a;fill-opacity:1;stroke-width:0.04019392"
       inkscape:connector-curvature="0" />
  </g>
</svg>
