<?xml version="1.0" encoding="UTF-8" standalone="no"?>
<svg
   xmlns:dc="http://purl.org/dc/elements/1.1/"
   xmlns:cc="http://creativecommons.org/ns#"
   xmlns:rdf="http://www.w3.org/1999/02/22-rdf-syntax-ns#"
   xmlns:svg="http://www.w3.org/2000/svg"
   xmlns="http://www.w3.org/2000/svg"
   xmlns:sodipodi="http://sodipodi.sourceforge.net/DTD/sodipodi-0.dtd"
   xmlns:inkscape="http://www.inkscape.org/namespaces/inkscape"
   inkscape:version="1.0 (4035a4fb49, 2020-05-01)"
   sodipodi:docname="webmin.svg"
   id="svg14"
   xml:space="preserve"
   style="enable-background:new 0 0 173.228 176.972;"
   viewBox="0 0 173.228 176.972"
   y="0px"
   x="0px"
   version="1.1"
   fill="#000000"
   width="100px"
   height="100px"><metadata
     id="metadata20"><rdf:RDF><cc:Work
         rdf:about=""><dc:format>image/svg+xml</dc:format><dc:type
           rdf:resource="http://purl.org/dc/dcmitype/StillImage" /><dc:title></dc:title></cc:Work></rdf:RDF></metadata><defs
     id="defs18" /><sodipodi:namedview
     inkscape:current-layer="svg14"
     inkscape:window-maximized="1"
     inkscape:window-y="-8"
     inkscape:window-x="-8"
     inkscape:cy="38.871462"
     inkscape:cx="-12.470996"
     inkscape:zoom="4.25"
     showgrid="false"
     id="namedview16"
     inkscape:window-height="1017"
     inkscape:window-width="1920"
     inkscape:pageshadow="2"
     inkscape:pageopacity="0"
     guidetolerance="10"
     gridtolerance="10"
     objecttolerance="10"
     borderopacity="1"
     bordercolor="#666666"
     pagecolor="#ffffff" /><g
     transform="matrix(0.83654096,0,0,0.83654096,14.15776,14.463755)"
     style="fill:#0a425a"
     id="g12"><path
       style="fill:#0a425a"
       id="path2"
       d="m 111.393,94.845 c -0.178,0 -0.354,-0.005 -0.533,-0.014 C 107.38,94.65 95.504,93.809 88.438,90.58 l -0.806,-0.368 v 4.82 h 85.595 v -9 h -51.653 c -0.725,5.013 -5.025,8.813 -10.181,8.813 z" /><path
       style="fill:#0a425a"
       id="path4"
       d="m 82.241,6.531 h 80.653 v 51.004 h -63.87 c 0.091,0.265 0.172,0.536 0.242,0.812 0.414,1.636 0.807,3.367 1.179,5.187 h 1.949 V 73.2 c 3.251,0.553 6.959,0.926 9.532,1.061 4.185,0.221 7.656,2.928 9.071,6.608 h 21.729 V 74.202 H 132.394 V 63.533 h 36.5 v -63 H 74.778 c 2.861,1.503 5.395,3.547 7.463,5.998 z" /><path
       style="fill:#0a425a"
       id="path6"
       d="m 77.13,32.065 c 0.235,-0.014 0.479,-0.021 0.733,-0.021 1.368,0 3.313,0.225 5.356,0.892 1.637,-3.12 2.568,-6.669 2.568,-10.437 0,-12.427 -10.072,-22.5 -22.5,-22.5 -12.426,0 -22.5,10.073 -22.5,22.5 0,3.421 0.767,6.662 2.133,9.565 h 34.21 z" /><path
       style="fill:#0a425a"
       id="path8"
       d="m 56.667,39.472 c 12.683,0 23,10.317 23,23 v 48.5 H 89 c 6.755,0 12.25,5.495 12.25,12.25 0,2.38 -0.693,4.595 -1.872,6.477 l 14.951,37.917 c 1.9,4.819 6.515,7.761 11.399,7.76 1.495,0 3.016,-0.275 4.49,-0.856 6.294,-2.482 9.384,-9.596 6.902,-15.89 l -20.438,-51.834 c -1.845,-4.681 -6.365,-7.757 -11.396,-7.757 h -17.653 -2.3 V 67.816 c 0.713,0.406 1.491,0.691 2.3,0.866 v 2.357 16.645 l 1.762,0.805 c 6.873,3.141 19.18,3.921 21.577,4.046 0.142,0.007 0.281,0.011 0.422,0.011 4.226,0 7.757,-3.313 7.98,-7.581 0.231,-4.411 -3.158,-8.175 -7.568,-8.408 -3.257,-0.172 -8.089,-0.692 -11.769,-1.459 -0.813,-6.09 -1.818,-11.518 -3,-16.187 C 91.37,36.51 81.838,34.081 77.198,34.365 H 39.106 c -2.023,-0.073 -5.237,0.303 -8.758,2.633 -0.332,0.22 -0.667,0.457 -1.004,0.713 -0.693,0.526 -1.353,1.127 -1.998,1.762 h 29.321 z" /><path
       style="fill:#0a425a"
       id="path10"
       d="M 78.896,165.472 H 56.543 c 0.005,-0.125 0.019,-0.248 0.019,-0.375 V 132.472 H 56.666 89 c 5.087,0 9.25,-4.162 9.25,-9.25 v 0 c 0,-5.087 -4.163,-9.25 -9.25,-9.25 H 76.59 c 0.038,-0.497 0.076,-0.994 0.076,-1.5 v -50 c 0,-11 -9,-20 -20,-20 H 20 c -11,0 -20,9 -20,20 v 50 c 0,11 9,20 20,20 h 18.063 v 32.625 c 0,0.127 0.014,0.25 0.019,0.375 H 15.729 c -3.163,0 -5.75,2.588 -5.75,5.75 v 0 c 0,3.162 2.587,5.75 5.75,5.75 h 63.167 c 3.163,0 5.75,-2.587 5.75,-5.75 v 0 c 0,-3.162 -2.587,-5.75 -5.75,-5.75 z" /></g></svg>
