<?xml version="1.0" encoding="UTF-8" standalone="no"?>
<!-- Created with Inkscape (http://www.inkscape.org/) -->

<svg
   xmlns:dc="http://purl.org/dc/elements/1.1/"
   xmlns:cc="http://creativecommons.org/ns#"
   xmlns:rdf="http://www.w3.org/1999/02/22-rdf-syntax-ns#"
   xmlns:svg="http://www.w3.org/2000/svg"
   xmlns="http://www.w3.org/2000/svg"
   xmlns:sodipodi="http://sodipodi.sourceforge.net/DTD/sodipodi-0.dtd"
   xmlns:inkscape="http://www.inkscape.org/namespaces/inkscape"
   width="171mm"
   height="135mm"
   viewBox="0 0 171 135"
   version="1.1"
   id="svg960"
   inkscape:version="0.92.4 (5da689c313, 2019-01-14)"
   sodipodi:docname="coproscopies.svg">
  <defs
     id="defs954" />
  <sodipodi:namedview
     id="base"
     pagecolor="#ffffff"
     bordercolor="#666666"
     borderopacity="1.0"
     inkscape:pageopacity="0.0"
     inkscape:pageshadow="2"
     inkscape:zoom="0.81484375"
     inkscape:cx="200.57526"
     inkscape:cy="239.44639"
     inkscape:document-units="mm"
     inkscape:current-layer="layer1"
     showgrid="false"
     inkscape:window-width="1366"
     inkscape:window-height="745"
     inkscape:window-x="-8"
     inkscape:window-y="-8"
     inkscape:window-maximized="1" />
  <metadata
     id="metadata957">
    <rdf:RDF>
      <cc:Work
         rdf:about="">
        <dc:format>image/svg+xml</dc:format>
        <dc:type
           rdf:resource="http://purl.org/dc/dcmitype/StillImage" />
        <dc:title></dc:title>
      </cc:Work>
    </rdf:RDF>
  </metadata>
  <g
     inkscape:label="Calque 1"
     inkscape:groupmode="layer"
     id="layer1"
     transform="translate(0,-162)">
    <path
       inkscape:connector-curvature="0"
       id="path6"
       d="m 76.034558,224.40453 v -9.56559 c 0,-4.27752 -2.804549,-7.90849 -6.669847,-9.1619 1.336543,-0.57283 3.503218,-1.31109 5.754472,-1.28397 l 0.02191,-1.32112 c -1.815973,-0.0181 -3.599961,0.3573 -5.338713,0.99815 0.441715,-0.84688 0.747564,-1.89897 0.899895,-3.14434 0.126055,-1.02199 -0.970642,-1.70357 -1.832037,-1.21728 -1.220005,0.68675 -2.228235,0.42744 -3.541521,0.0141 -1.588751,-0.50134 -2.850762,-0.74716 -4.107247,0.54895 -0.321892,0.33094 -0.460593,0.86474 -0.337377,1.29825 0.27025,0.94686 0.627345,1.76973 1.055519,2.46138 -1.711937,-0.60848 -3.458712,-0.9669 -5.24663,-0.94866 l 0.02193,1.32114 c 1.456496,-0.0344 3.443626,0.29646 5.659728,1.21477 -3.962228,1.19489 -6.857653,4.87474 -6.857653,9.2214 v 9.56559 c -0.966335,0.37529 -1.655934,1.3094 -1.655934,2.40716 v 0.34385 c 0,1.42693 1.160511,2.58742 2.586792,2.58742 h 18.655848 c 1.426268,0 2.586777,-1.16051 2.586777,-2.58742 v -0.34385 c 0,-1.09776 -0.689582,-2.03189 -1.655922,-2.40716 z M 64.931375,200.98155 c 1.588251,0.50145 2.935575,0.76745 4.438181,-0.0503 -0.219983,1.5969 -0.925045,4.10241 -3.177689,4.26562 -2.483577,0.17089 -3.596987,-2.44422 -4.022741,-4.00565 0.809009,-0.83421 1.58647,-0.58053 2.762249,-0.20965 z m -8.093233,13.85739 c 0,-3.70193 2.43366,-6.84369 5.784231,-7.91611 l -1.844055,2.85284 1.109545,0.71735 2.539936,-3.92941 c 0.22703,-0.0201 0.455593,-0.0338 0.687419,-0.0348 v 3.15591 h 1.321133 v -3.15591 c 0.190248,7.8e-4 0.377051,0.0161 0.564122,0.0285 l 2.492926,3.93823 1.115997,-0.70701 -1.844943,-2.91456 c 3.435003,1.02096 5.948962,4.20279 5.948962,7.96494 v 9.38533 H 56.838142 Z m 19.531215,12.3166 c 0,0.69798 -0.567669,1.26629 -1.265654,1.26629 H 56.447867 c -0.697982,0 -1.265659,-0.56831 -1.265659,-1.26629 v -0.34383 c 0,-0.69799 0.567677,-1.2663 1.265659,-1.2663 h 18.655836 c 0.697985,0 1.265654,0.56831 1.265654,1.2663 z"
       style="fill:#0a425a;fill-opacity:1;stroke-width:0.66056627" />
    <g
       transform="matrix(0.25264628,0,0,0.25264628,34.015141,242.23537)"
       data-name="Enveloppe Grid"
       id="g14"
       style="fill:#0a425a;fill-opacity:1">
      <path
         inkscape:connector-curvature="0"
         d="m 124,44 h -8 l -7.2,-7.16 -3.12,-3.12 a 3.71,3.71 0 0 0 -0.56,-0.56 2.12,2.12 0 0 0 -2.24,0 3.71,3.71 0 0 0 -0.56,0.56 L 99.2,36.84 92,44 h -8 l 7.16,-7.16 11.16,-11.12 a 3.71,3.71 0 0 1 0.56,-0.56 2.12,2.12 0 0 1 2.24,0 3.71,3.71 0 0 1 0.56,0.56 l 11.16,11.12 z"
         id="path4"
         style="fill:#0a425a;fill-opacity:1" />
      <path
         inkscape:connector-curvature="0"
         d="m 104.6,88.6 a 1,1 0 0 0 -1.2,0 L 104,88 Z"
         id="path6-8"
         style="fill:#0a425a;fill-opacity:1" />
      <path
         inkscape:connector-curvature="0"
         d="m 149.92,55.2 v 26.88 l -25.2,25.2 a 1,1 0 0 1 -1.44,0 L 104.8,88.8 104.6,88.6 104,88 84.72,107.28 a 1,1 0 0 1 -1.44,0 L 64,88 57.92,81.92 V 55.2 a 4,4 0 0 1 4,-4 h 84 a 4,4 0 0 1 4,4 z"
         id="path8"
         style="fill:#0a425a;fill-opacity:1" />
      <path
         inkscape:connector-curvature="0"
         d="m 163.68,83.72 a 3.71,3.71 0 0 0 -0.56,-0.56 L 160.68,80.68 160,80 156,76 v 8 l -31.16,31.16 a 0.36,0.36 0 0 1 -0.24,0.24 L 124,116 104.8,96.8 104.6,96.6 a 1,1 0 0 0 -1.2,0 l -18.68,18.68 a 1,1 0 0 1 -1.44,0 L 65.2,97.2 57.92,89.92 56,88 52,84 v -8 l -7.12,7.16 A 3.71,3.71 0 0 0 44.32,83.72 2,2 0 0 0 44,84.84 V 154 a 5,5 0 0 0 0.28,1.72 5.91,5.91 0 0 0 4,4 A 5,5 0 0 0 50,160 h 108 a 5,5 0 0 0 1.72,-0.28 5.91,5.91 0 0 0 4,-4 A 5,5 0 0 0 164,154 V 84.84 a 2,2 0 0 0 -0.32,-1.12 z M 53,146.56 a 1,1 0 0 1 -1,-1 V 94.4 a 1,1 0 0 1 1,-1 1,1 0 0 1 0.72,0.32 l 25.56,25.56 a 1.07,1.07 0 0 1 0,1.44 L 53.72,146.28 A 1.15,1.15 0 0 1 53,146.56 Z M 149.6,152 H 58.44 a 1,1 0 0 1 -1,-1 1.15,1.15 0 0 1 0.28,-0.72 L 103.4,104.6 a 1,1 0 0 1 1.2,0 l 0.2,0.2 38.88,38.88 6.6,6.6 a 1,1 0 0 1 0.32,0.72 1,1 0 0 1 -1,1 z m 6.4,-6.44 a 1,1 0 0 1 -1,1 1.15,1.15 0 0 1 -0.72,-0.28 l -2.6,-2.6 -23,-23 a 1.07,1.07 0 0 1 0,-1.44 l 25.56,-25.56 a 1,1 0 0 1 0.72,-0.32 1,1 0 0 1 1,1 z"
         id="path10"
         style="fill:#0a425a;fill-opacity:1" />
      <path
         inkscape:connector-curvature="0"
         d="m 104.6,88.6 a 1,1 0 0 0 -1.2,0 L 104,88 Z"
         id="path12"
         style="fill:#0a425a;fill-opacity:1" />
    </g>
    <circle
       style="opacity:0.4510002;fill:#000000;fill-opacity:1;stroke:none;stroke-width:0.51523763;stroke-linecap:round;stroke-miterlimit:4;stroke-dasharray:none;stroke-opacity:1"
       id="path844"
       cx="65.214966"
       cy="218.83238"
       r="1.7066667" />
    <circle
       style="opacity:0.4510002;fill:#000000;fill-opacity:1;stroke:none;stroke-width:0.51523763;stroke-linecap:round;stroke-miterlimit:4;stroke-dasharray:none;stroke-opacity:1"
       id="path844-8"
       cx="72.698051"
       cy="221.06418"
       r="1.7066667" />
    <circle
       style="opacity:0.4510002;fill:#000000;fill-opacity:1;stroke:none;stroke-width:0.51523763;stroke-linecap:round;stroke-miterlimit:4;stroke-dasharray:none;stroke-opacity:1"
       id="path844-1"
       cx="69.678535"
       cy="217.65082"
       r="1.7066667" />
    <circle
       style="opacity:0.4510002;fill:#000000;fill-opacity:1;stroke:none;stroke-width:0.51523763;stroke-linecap:round;stroke-miterlimit:4;stroke-dasharray:none;stroke-opacity:1"
       id="path844-0"
       cx="60.313766"
       cy="215.94417"
       r="1.7066667" />
    <circle
       style="opacity:0.4510002;fill:#000000;fill-opacity:1;stroke:none;stroke-width:0.51523763;stroke-linecap:round;stroke-miterlimit:4;stroke-dasharray:none;stroke-opacity:1"
       id="path844-3"
       cx="61.407784"
       cy="220.93289"
       r="1.7066667" />
    <circle
       style="opacity:0.4510002;fill:#000000;fill-opacity:1;stroke:none;stroke-width:0.51523763;stroke-linecap:round;stroke-miterlimit:4;stroke-dasharray:none;stroke-opacity:1"
       id="path844-04"
       cx="68.365715"
       cy="222.377"
       r="1.7066667" />
    <rect
       style="opacity:1;fill:none;fill-opacity:1;stroke:#000000;stroke-width:0.18506919;stroke-linecap:round;stroke-miterlimit:4;stroke-dasharray:none;stroke-opacity:1"
       id="rect885"
       width="10.722661"
       height="4.1820879"
       x="62.500511"
       y="211.01816" />
    <path
       style="fill:#0a425a;fill-opacity:1;stroke:#000000;stroke-width:0.82620162px;stroke-linecap:butt;stroke-linejoin:miter;stroke-opacity:1"
       d="m 63.742707,212.44102 h 7.921529"
       id="path887"
       inkscape:connector-curvature="0" />
    <path
       style="fill:#0a425a;fill-opacity:1;stroke:#000000;stroke-width:0.82620162px;stroke-linecap:butt;stroke-linejoin:miter;stroke-opacity:1"
       d="m 63.990255,214.17386 h 3.589443"
       id="path893"
       inkscape:connector-curvature="0" />
    <path
       inkscape:connector-curvature="0"
       id="path6-4"
       d="m 122.57263,274.7896 v -9.56557 c 0,-4.27752 -2.80455,-7.90851 -6.66985,-9.1619 1.33654,-0.57285 3.50322,-1.31111 5.75449,-1.28397 l 0.0219,-1.32112 c -1.816,-0.0181 -3.59998,0.35728 -5.33874,0.99815 0.44174,-0.84688 0.74759,-1.89899 0.8999,-3.14436 0.12605,-1.02199 -0.97062,-1.70355 -1.83204,-1.21726 -1.22002,0.68673 -2.22823,0.42742 -3.54151,0.0141 -1.58876,-0.50132 -2.85077,-0.74714 -4.10726,0.54897 -0.32189,0.33092 -0.46059,0.86474 -0.33737,1.29823 0.27024,0.94686 0.62736,1.76975 1.05552,2.4614 -1.71193,-0.6085 -3.45871,-0.96692 -5.24663,-0.94866 l 0.0219,1.32112 c 1.45651,-0.0342 3.44363,0.29648 5.65974,1.21479 -3.96224,1.19489 -6.85766,4.87472 -6.85766,9.22138 v 9.56559 c -0.96634,0.37529 -1.65592,1.30942 -1.65592,2.40716 v 0.34385 c 0,1.42693 1.1605,2.58742 2.58677,2.58742 h 18.65585 c 1.42629,0 2.5868,-1.16049 2.5868,-2.58742 v -0.34385 c 0,-1.09776 -0.6896,-2.03187 -1.65594,-2.40716 z m -11.10318,-23.42296 c 1.58825,0.50143 2.93557,0.76745 4.43818,-0.0503 -0.21999,1.59692 -0.92505,4.10241 -3.17769,4.26562 -2.48358,0.17089 -3.59699,-2.44422 -4.02274,-4.00565 0.80901,-0.83419 1.58646,-0.58051 2.76225,-0.20965 z m -8.09324,13.85739 c 0,-3.70195 2.43366,-6.84369 5.78425,-7.91612 l -1.84406,2.85285 1.10954,0.71733 2.53994,-3.92941 c 0.22701,-0.0201 0.45558,-0.0338 0.68741,-0.0348 v 3.15591 h 1.32114 v -3.15591 c 0.19019,5.2e-4 0.37704,0.0161 0.56411,0.0285 l 2.49295,3.93823 1.11598,-0.70699 -1.84495,-2.91458 c 3.43501,1.02097 5.94899,4.20281 5.94899,7.96494 v 9.38533 h -17.8753 z m 19.53124,12.31658 c 0,0.698 -0.56769,1.26631 -1.26568,1.26631 h -18.65583 c -0.69798,0 -1.26567,-0.56831 -1.26567,-1.26631 v -0.34383 c 0,-0.69797 0.56769,-1.26628 1.26567,-1.26628 h 18.65583 c 0.69799,0 1.26568,0.56831 1.26568,1.26628 z"
       style="fill:#0a425a;fill-opacity:1;stroke-width:0.66056627" />
    <circle
       style="opacity:0.4510002;fill:#000000;fill-opacity:1;stroke:none;stroke-width:0.51523763;stroke-linecap:round;stroke-miterlimit:4;stroke-dasharray:none;stroke-opacity:1"
       id="path844-4"
       cx="111.75304"
       cy="269.21744"
       r="1.7066667" />
    <circle
       style="opacity:0.4510002;fill:#000000;fill-opacity:1;stroke:none;stroke-width:0.51523763;stroke-linecap:round;stroke-miterlimit:4;stroke-dasharray:none;stroke-opacity:1"
       id="path844-8-4"
       cx="119.23611"
       cy="271.44925"
       r="1.7066667" />
    <circle
       style="opacity:0.4510002;fill:#000000;fill-opacity:1;stroke:none;stroke-width:0.51523763;stroke-linecap:round;stroke-miterlimit:4;stroke-dasharray:none;stroke-opacity:1"
       id="path844-1-7"
       cx="116.21663"
       cy="268.03589"
       r="1.7066667" />
    <circle
       style="opacity:0.4510002;fill:#000000;fill-opacity:1;stroke:none;stroke-width:0.51523763;stroke-linecap:round;stroke-miterlimit:4;stroke-dasharray:none;stroke-opacity:1"
       id="path844-0-6"
       cx="106.85184"
       cy="266.32925"
       r="1.7066667" />
    <circle
       style="opacity:0.4510002;fill:#000000;fill-opacity:1;stroke:none;stroke-width:0.51523763;stroke-linecap:round;stroke-miterlimit:4;stroke-dasharray:none;stroke-opacity:1"
       id="path844-3-3"
       cx="107.94587"
       cy="271.31796"
       r="1.7066667" />
    <circle
       style="opacity:0.4510002;fill:#000000;fill-opacity:1;stroke:none;stroke-width:0.51523763;stroke-linecap:round;stroke-miterlimit:4;stroke-dasharray:none;stroke-opacity:1"
       id="path844-04-1"
       cx="114.90379"
       cy="272.76205"
       r="1.7066667" />
    <rect
       style="opacity:1;fill:none;fill-opacity:1;stroke:#000000;stroke-width:0.18506919;stroke-linecap:round;stroke-miterlimit:4;stroke-dasharray:none;stroke-opacity:1"
       id="rect885-7"
       width="10.722661"
       height="4.1820879"
       x="109.03859"
       y="261.40323" />
    <path
       style="fill:#0a425a;fill-opacity:1;stroke:#000000;stroke-width:0.82620162px;stroke-linecap:butt;stroke-linejoin:miter;stroke-opacity:1"
       d="m 110.28078,262.82611 h 7.92153"
       id="path887-5"
       inkscape:connector-curvature="0" />
    <path
       style="fill:#0a425a;fill-opacity:1;stroke:#000000;stroke-width:0.82620162px;stroke-linecap:butt;stroke-linejoin:miter;stroke-opacity:1"
       d="m 110.52832,264.55893 h 3.58945"
       id="path893-9"
       inkscape:connector-curvature="0" />
    <path
       inkscape:connector-curvature="0"
       id="path6-6"
       d="m 120.09564,233.59969 v -9.56561 c 0,-4.2775 -2.80455,-7.90848 -6.66985,-9.16187 1.33653,-0.57286 3.5032,-1.31111 5.75446,-1.28397 l 0.0219,-1.32114 c -1.81597,-0.0181 -3.59994,0.35729 -5.33869,0.99816 0.44171,-0.84688 0.74756,-1.89898 0.89987,-3.14435 0.12606,-1.02197 -0.97062,-1.70355 -1.83203,-1.21727 -1.22,0.68673 -2.22824,0.42742 -3.54152,0.0141 -1.58875,-0.50133 -2.85077,-0.74714 -4.10724,0.54897 -0.32191,0.33092 -0.46061,0.86473 -0.33739,1.29822 0.27026,0.94686 0.62734,1.76976 1.05552,2.46141 -1.71193,-0.60848 -3.4587,-0.96692 -5.24663,-0.94867 l 0.0219,1.32112 c 1.45651,-0.0342 3.44363,0.29648 5.65974,1.21477 -3.96224,1.19491 -6.857663,4.87475 -6.857663,9.22141 v 9.5656 c -0.96632,0.37527 -1.65592,1.30939 -1.65592,2.40717 v 0.34383 c 0,1.42693 1.16051,2.58744 2.586783,2.58744 h 18.65585 c 1.42628,0 2.58679,-1.16051 2.58679,-2.58744 v -0.34383 c 0,-1.09778 -0.6896,-2.0319 -1.65594,-2.40719 z m -11.1032,-23.42297 c 1.58825,0.50142 2.93557,0.76744 4.4382,-0.0503 -0.21998,1.59691 -0.92507,4.10243 -3.17771,4.26563 -2.48358,0.17089 -3.59698,-2.44423 -4.02273,-4.00564 0.809,-0.83422 1.58646,-0.58054 2.76224,-0.20967 z m -8.09322,13.85738 c 0,-3.70195 2.43365,-6.84371 5.78423,-7.91612 l -1.84406,2.85286 1.10954,0.71733 2.53994,-3.92942 c 0.22702,-0.0201 0.45559,-0.0338 0.68741,-0.0348 v 3.15592 h 1.32114 v -3.15592 c 0.19019,8.1e-4 0.37704,0.0161 0.56413,0.0285 l 2.49293,3.93826 1.11598,-0.70701 -1.84492,-2.91458 c 3.43498,1.02096 5.94896,4.20281 5.94896,7.96493 v 9.38533 h -17.87528 z m 19.53122,12.3166 c 0,0.69797 -0.56769,1.2663 -1.26565,1.2663 h -18.65585 c -0.697993,0 -1.265663,-0.56833 -1.265663,-1.2663 v -0.34385 c 0,-0.69796 0.56767,-1.26629 1.265663,-1.26629 h 18.65585 c 0.69796,0 1.26565,0.56833 1.26565,1.26629 z"
       style="fill:#0a425a;fill-opacity:1;stroke-width:0.66056627" />
    <circle
       style="opacity:0.4510002;fill:#000000;fill-opacity:1;stroke:none;stroke-width:0.51523763;stroke-linecap:round;stroke-miterlimit:4;stroke-dasharray:none;stroke-opacity:1"
       id="path844-2"
       cx="109.27602"
       cy="228.02751"
       r="1.7066667" />
    <circle
       style="opacity:0.4510002;fill:#000000;fill-opacity:1;stroke:none;stroke-width:0.51523763;stroke-linecap:round;stroke-miterlimit:4;stroke-dasharray:none;stroke-opacity:1"
       id="path844-8-1"
       cx="116.75911"
       cy="230.25932"
       r="1.7066667" />
    <circle
       style="opacity:0.4510002;fill:#000000;fill-opacity:1;stroke:none;stroke-width:0.51523763;stroke-linecap:round;stroke-miterlimit:4;stroke-dasharray:none;stroke-opacity:1"
       id="path844-1-78"
       cx="113.73962"
       cy="226.84599"
       r="1.7066667" />
    <circle
       style="opacity:0.4510002;fill:#000000;fill-opacity:1;stroke:none;stroke-width:0.51523763;stroke-linecap:round;stroke-miterlimit:4;stroke-dasharray:none;stroke-opacity:1"
       id="path844-0-5"
       cx="104.37485"
       cy="225.13934"
       r="1.7066667" />
    <circle
       style="opacity:0.4510002;fill:#000000;fill-opacity:1;stroke:none;stroke-width:0.51523763;stroke-linecap:round;stroke-miterlimit:4;stroke-dasharray:none;stroke-opacity:1"
       id="path844-3-7"
       cx="105.46885"
       cy="230.12805"
       r="1.7066667" />
    <circle
       style="opacity:0.4510002;fill:#000000;fill-opacity:1;stroke:none;stroke-width:0.51523763;stroke-linecap:round;stroke-miterlimit:4;stroke-dasharray:none;stroke-opacity:1"
       id="path844-04-4"
       cx="112.42682"
       cy="231.57214"
       r="1.7066667" />
    <rect
       style="opacity:1;fill:none;fill-opacity:1;stroke:#000000;stroke-width:0.18506919;stroke-linecap:round;stroke-miterlimit:4;stroke-dasharray:none;stroke-opacity:1"
       id="rect885-1"
       width="10.722661"
       height="4.1820879"
       x="106.56158"
       y="220.2133" />
    <path
       style="fill:#0a425a;fill-opacity:1;stroke:#000000;stroke-width:0.82620162px;stroke-linecap:butt;stroke-linejoin:miter;stroke-opacity:1"
       d="m 107.80379,221.63618 h 7.92153"
       id="path887-8"
       inkscape:connector-curvature="0" />
    <path
       style="fill:#0a425a;fill-opacity:1;stroke:#000000;stroke-width:0.82620162px;stroke-linecap:butt;stroke-linejoin:miter;stroke-opacity:1"
       d="m 108.05134,223.36901 h 3.58944"
       id="path893-5"
       inkscape:connector-curvature="0" />
    <path
       style="fill:#ffffff;stroke:#ffffff;stroke-width:0.82620162px;stroke-linecap:butt;stroke-linejoin:miter;stroke-opacity:1"
       d="m 50.255884,257.10047 h 17.24171"
       id="path961"
       inkscape:connector-curvature="0"
       sodipodi:nodetypes="cc" />
    <path
       style="fill:#ffffff;stroke:#ffffff;stroke-width:0.72811288px;stroke-linecap:butt;stroke-linejoin:miter;stroke-opacity:1"
       d="m 50.255884,259.63859 h 13.39077"
       id="path961-9"
       inkscape:connector-curvature="0"
       sodipodi:nodetypes="cc" />
    <path
       style="fill:#ffffff;stroke:#ffffff;stroke-width:0.82620162px;stroke-linecap:butt;stroke-linejoin:miter;stroke-opacity:1"
       d="m 50.255884,262.1767 h 17.24171"
       id="path961-7"
       inkscape:connector-curvature="0"
       sodipodi:nodetypes="cc" />
    <path
       style="fill:#0a425a;fill-opacity:1;stroke-width:0.25198126"
       inkscape:connector-curvature="0"
       d="m 52.350388,249.77694 0.964432,-5.8348 c 0.01669,-0.10394 0.01468,-0.20624 -0.0054,-0.30344 -0.06679,-0.33534 -0.334235,-0.61009 -0.691551,-0.66972 -0.460882,-0.076 -0.896227,0.23603 -0.972467,0.69676 l -0.61719,3.73502 c -3.179412,-3.51427 -4.667774,-6.7692 -5.234725,-9.60272 -0.641271,-3.21569 -0.09797,-5.92134 0.632492,-7.87183 0.730392,-1.9481 1.653095,-3.12697 1.729367,-3.22087 0.003,-0.004 0.003,-0.004 0.003,-0.004 l 9.53e-4,-1.8e-4 c 0.16753,-0.20384 0.223983,-0.46333 0.176115,-0.70396 -0.03691,-0.18396 -0.134841,-0.35772 -0.291571,-0.48651 -0.360406,-0.29702 -0.893154,-0.24533 -1.190627,0.1148 -0.0391,0.0491 -1.075012,1.31233 -1.931771,3.49934 -0.854792,2.18406 -1.525834,5.30823 -0.787138,9.00541 0.627035,3.14621 2.276545,6.6822 5.611475,10.37564 l -3.804276,-0.59648 v 0 c -0.461789,-0.0724 -0.893923,0.24303 -0.966947,0.7044 -0.07264,0.46166 0.242882,0.89415 0.704532,0.96674 l 5.706091,0.89493 c 0.458431,0.072 0.889171,-0.23952 0.965341,-0.6979 z"
       id="path2"
       inkscape:transform-center-x="5.1980058"
       inkscape:transform-center-y="1.3759674" />
    <path
       style="fill:#0a425a;fill-opacity:1;stroke-width:0.25198126"
       inkscape:connector-curvature="0"
       d="m 75.072018,258.01795 5.307711,2.60827 c 0.09469,0.046 0.193204,0.0736 0.292078,0.0824 0.340348,0.033 0.680595,-0.14375 0.840888,-0.46869 0.205869,-0.41928 0.03277,-0.9262 -0.386267,-1.13225 l -3.397669,-1.66945 c 4.282687,-2.02916 7.828727,-2.51418 10.705269,-2.23873 3.263875,0.31464 5.697376,1.61612 7.353821,2.8787 1.654188,1.26183 2.516388,2.48563 2.584268,2.58579 0.004,0.004 0.004,0.004 0.004,0.004 l -8e-5,0.001 c 0.14676,0.21925 0.37892,0.34824 0.62313,0.37189 0.18677,0.0181 0.38142,-0.0257 0.54998,-0.13872 0.38846,-0.25927 0.492823,-0.78426 0.23394,-1.17304 -0.0356,-0.0517 -0.94598,-1.40817 -2.79241,-2.85997 -1.84418,-1.44909 -4.641491,-2.99371 -8.394466,-3.35411 -3.193248,-0.30822 -7.054928,0.24994 -11.554039,2.37623 l 1.669593,-3.46997 v 0 c 0.202653,-0.42123 0.02553,-0.92603 -0.395153,-1.12916 -0.421027,-0.20284 -0.926191,-0.0257 -1.129004,0.39535 l -2.504571,5.20456 c -0.201285,0.41813 -0.02734,0.92046 0.389403,1.12574 z"
       id="path2-5"
       inkscape:transform-center-x="0.50344594"
       inkscape:transform-center-y="-9.6857681" />
    <path
       style="fill:#0a425a;fill-opacity:1;stroke-width:0.25198126"
       inkscape:connector-curvature="0"
       d="m 74.09251,247.83695 5.721219,-1.49754 c 0.101729,-0.0271 0.194209,-0.0708 0.274928,-0.12847 0.27899,-0.19763 0.420867,-0.55388 0.329693,-0.90448 -0.118415,-0.45184 -0.580837,-0.72219 -1.032644,-0.60402 l -3.662244,0.95877 c 1.913218,-4.33573 4.278847,-7.02152 6.635247,-8.69415 2.675076,-1.89627 5.367241,-2.50294 7.44606,-2.63092 2.076647,-0.12706 3.529233,0.23502 3.64608,0.2664 0.006,7e-4 0.006,7e-4 0.006,7e-4 l 4.63e-4,6.9e-4 c 0.254441,0.07 0.514392,0.0161 0.714632,-0.12606 0.152995,-0.10876 0.271711,-0.26891 0.32541,-0.46453 0.124447,-0.45018 -0.139927,-0.9156 -0.590085,-1.04047 -0.06072,-0.0161 -1.636521,-0.44678 -3.982829,-0.33773 -2.34281,0.10957 -5.469211,0.77026 -8.544264,2.95173 -2.617437,1.85496 -5.174038,4.80247 -7.187477,9.35323 l -1.005945,-3.71705 v 0 c -0.122034,-0.4512 -0.586266,-0.71725 -1.037349,-0.59587 -0.451163,0.12183 -0.717487,0.58622 -0.595634,1.03738 l 1.508416,5.57559 c 0.121029,0.44796 0.581139,0.71433 1.030754,0.59706 z"
       id="path2-3"
       inkscape:transform-center-x="4.3147293"
       inkscape:transform-center-y="-2.4250859" />
  </g>
</svg>
