<?xml version="1.0" encoding="UTF-8" standalone="no"?>
<svg
   xmlns:dc="http://purl.org/dc/elements/1.1/"
   xmlns:cc="http://creativecommons.org/ns#"
   xmlns:rdf="http://www.w3.org/1999/02/22-rdf-syntax-ns#"
   xmlns:svg="http://www.w3.org/2000/svg"
   xmlns="http://www.w3.org/2000/svg"
   xmlns:sodipodi="http://sodipodi.sourceforge.net/DTD/sodipodi-0.dtd"
   xmlns:inkscape="http://www.inkscape.org/namespaces/inkscape"
   height="135"
   width="171"
   xml:space="preserve"
   version="1.1"
   style="clip-rule:evenodd;fill:#1a1a1a;fill-rule:evenodd;image-rendering:optimizeQuality;shape-rendering:geometricPrecision;text-rendering:geometricPrecision"
   viewBox="0 0 1349.19 297"
   x="0px"
   y="0px"
   id="svg10"
   sodipodi:docname="observer.svg"
   inkscape:version="0.92.4 (5da689c313, 2019-01-14)"><metadata
     id="metadata14"><rdf:RDF><cc:Work
         rdf:about=""><dc:format>image/svg+xml</dc:format><dc:type
           rdf:resource="http://purl.org/dc/dcmitype/StillImage" /><dc:title></dc:title></cc:Work></rdf:RDF></metadata><sodipodi:namedview
     pagecolor="#ffffff"
     bordercolor="#666666"
     borderopacity="1"
     objecttolerance="10"
     gridtolerance="10"
     guidetolerance="10"
     inkscape:pageopacity="0"
     inkscape:pageshadow="2"
     inkscape:window-width="1366"
     inkscape:window-height="745"
     id="namedview12"
     showgrid="false"
     inkscape:zoom="0.97127746"
     inkscape:cx="-264.46176"
     inkscape:cy="-33.744833"
     inkscape:window-x="-8"
     inkscape:window-y="-8"
     inkscape:window-maximized="1"
     inkscape:current-layer="svg10" /><defs
     id="defs4"><style
       type="text/css"
       id="style2">
   
    .fil0 {fill:#1A1A1A}
   
  </style></defs><g
     id="g8"
     transform="translate(280.095,-168.17093)"><path
       class="fil0"
       d="m 141,220 c -37,0 -129,-41 -131,-72 0,-8 64,-46 131,-46 57,1 121,21 150,58 -21,-13 -46,-22 -70,-27 2,7 4,14 4,22 0,30 -24,54 -54,54 -30,0 -55,-24 -55,-54 0,-9 2,-18 6,-25 -49,5 -87,20 -87,30 0,23 106,60 106,60 z M 471,106 C 552,23 672,7 789,48 682,-35 537,-7 471,106 Z m 98,27 c -3,7 -5,14 -5,22 0,30 25,54 55,54 30,0 54,-24 54,-54 0,-9 -2,-18 -6,-25 50,5 87,20 87,30 1,23 -106,60 -105,60 36,0 129,-41 130,-72 1,-8 -64,-46 -131,-46 -56,1 -121,21 -150,58 22,-13 46,-22 71,-27 z m 98,-3 -6,-1 c 5,7 8,16 8,26 0,24 -19,43 -43,43 -24,0 -43,-19 -43,-43 0,-10 3,-18 8,-25 6,-1 12,-2 17,-2 l -1,1 c 2,-1 3,-1 5,-1 7,0 12,6 12,13 0,7 -5,12 -12,12 -7,0 -13,-5 -13,-12 0,-2 0,-3 1,-4 -4,5 -6,11 -6,18 0,17 14,32 32,32 18,0 32,-15 32,-32 0,-12 -6,-21 -15,-27 8,0 16,1 24,2 z M 319,106 C 237,23 117,7 0,48 107,-35 252,-7 319,106 Z m -121,24 c -5,-1 -11,-2 -17,-2 l 1,1 c -1,-1 -3,-1 -4,-1 -7,0 -13,6 -13,13 0,7 6,12 13,12 7,0 12,-5 12,-12 0,-2 0,-3 0,-4 3,5 5,11 5,18 0,17 -14,32 -32,32 -17,0 -32,-15 -32,-32 0,-12 6,-21 15,-27 -8,0 -16,1 -24,2 l 7,-1 c -6,7 -9,16 -9,26 0,24 20,43 43,43 24,0 44,-19 44,-43 0,-10 -3,-18 -9,-25 z"
       id="path6"
       inkscape:connector-curvature="0"
       style="fill:#1a1a1a" /></g></svg>