<?xml version="1.0" encoding="UTF-8" standalone="no"?>
<svg
   xmlns:dc="http://purl.org/dc/elements/1.1/"
   xmlns:cc="http://creativecommons.org/ns#"
   xmlns:rdf="http://www.w3.org/1999/02/22-rdf-syntax-ns#"
   xmlns:svg="http://www.w3.org/2000/svg"
   xmlns="http://www.w3.org/2000/svg"
   xmlns:sodipodi="http://sodipodi.sourceforge.net/DTD/sodipodi-0.dtd"
   xmlns:inkscape="http://www.inkscape.org/namespaces/inkscape"
   height="136.54111"
   width="114.77112"
   version="1.1"
   x="0px"
   y="0px"
   viewBox="0 0 114.77112 136.5411"
   enable-background="new 0 0 100 100"
   xml:space="preserve"
   id="svg12"
   sodipodi:docname="res_ttt.svg"
   style="fill:#000000"
   inkscape:version="0.92.4 (5da689c313, 2019-01-14)"><metadata
     id="metadata18"><rdf:RDF><cc:Work
         rdf:about=""><dc:format>image/svg+xml</dc:format><dc:type
           rdf:resource="http://purl.org/dc/dcmitype/StillImage" /><dc:title></dc:title></cc:Work></rdf:RDF></metadata><defs
     id="defs16" /><sodipodi:namedview
     pagecolor="#ffffff"
     bordercolor="#666666"
     borderopacity="1"
     objecttolerance="10"
     gridtolerance="10"
     guidetolerance="10"
     inkscape:pageopacity="0"
     inkscape:pageshadow="2"
     inkscape:window-width="1920"
     inkscape:window-height="1016"
     id="namedview14"
     showgrid="false"
     fit-margin-top="0"
     fit-margin-left="0"
     fit-margin-right="0"
     fit-margin-bottom="0"
     inkscape:zoom="2.36"
     inkscape:cx="196.78629"
     inkscape:cy="36.898805"
     inkscape:window-x="0"
     inkscape:window-y="27"
     inkscape:window-maximized="1"
     inkscape:current-layer="g834" /><g
     id="g834"
     transform="translate(18.740201,-4.6611676)"><path
       inkscape:connector-curvature="0"
       id="path2-8"
       d="m 75.563665,104.20228 -46,-28.999999 c -0.5,-0.3 -1.1,-0.3 -1.6,0 l -45.999999,28.999999 c -0.7,0.4 -0.9,1.3 -0.5,2 l 1.9,2.9 c 0.4,0.7 1.3,0.9 2,0.5 l 11.1999993,-7.1 v 37.3 c 0,0.8 0.6,1.4 1.4,1.4 h 3.5 c 0.8,0 1.4,-0.6 1.4,-1.4 V 98.502281 l 25.8999997,-16.3 25.9,16.3 v 41.299999 c 0,0.8 0.6,1.4 1.4,1.4 h 3.5 c 0.8,0 1.4,-0.6 1.4,-1.4 v -37.3 l 11.2,7.1 c 0.7,0.4 1.6,0.2 2,-0.5 l 1.9,-2.9 c 0.4,-0.7 0.2,-1.6 -0.5,-2 z" /><path
       inkscape:connector-curvature="0"
       d="m 22.473425,115.05173 c 0.405797,3.72696 -0.890536,7.95057 8.569447,7.95057 7.263273,0 10.121169,-2.989 13.147534,-6.15321 1.465554,-1.53208 2.979813,-3.1159 4.995191,-4.43183 1.919801,-1.01646 2.259048,-2.31821 0.729463,-2.84347 -0.600815,-0.20644 -2.294742,-0.55946 -5.057178,0.61107 -2.649486,1.08175 -4.822254,3.28746 -6.921859,5.41986 -1.907092,1.93588 -3.332686,4.36749 -6.183672,4.36749 -2.162488,0 -1.228303,-2.15202 -1.352437,-3.57868 -0.326177,-3.77341 -0.774013,-8.94224 -9.57356,-8.94224 -13.4290453,0 -14.4734016,8.40178 -14.4734016,10.97721 0,1.47132 1.7935623,2.14046 3.45869,2.14046 a 2.9514392,1.1892 0 0 0 2.5009496,-0.63583 7.0153434,2.826637 0 0 0 0.851374,-1.50435 c -0.283789,-5.18377 4.256885,-8.11861 6.746707,-8.10877 2.550043,0.0138 2.334648,2.62367 2.562752,4.732 z"
       id="path4-5-6"
       style="fill:#ff0000;fill-opacity:1;stroke-width:0.36028072" /><path
       style="stroke-width:0.96102864"
       inkscape:connector-curvature="0"
       d="m 9.3678133,66.345248 c 0.1165093,0.160621 0.1647256,0.359029 0.1334547,0.555489 -0.031422,0.197409 -0.137755,0.370243 -0.298225,0.485804 l -0.085962,0.06319 1.721073,3.291611 c 0.170054,0.331656 0.07658,0.729384 -0.223913,0.948191 l -0.176974,0.127529 0.23382,0.322345 c 0.0094,0.01416 0.01805,0.0272 0.02637,0.04215 l 2.078029,2.864784 c 0.12449,0.171624 0.08612,0.412689 -0.0855,0.53718 -0.171623,0.12449 -0.412689,0.08612 -0.537179,-0.0855 l -2.107555,-2.905489 c -0.0094,-0.01416 -0.01805,-0.02719 -0.02637,-0.04215 L 9.8153851,72.269845 9.6349591,72.40072 C 9.3336712,72.618428 8.9235788,72.584292 8.6615638,72.31682 L 6.0706203,69.660382 5.985909,69.72183 C 5.6634144,69.956598 5.1760401,69.876102 4.9436654,69.556916 L -3.6215733,57.749974 -4.431283,58.337312 c -0.1716226,0.12449 -0.4126889,0.08612 -0.5371787,-0.0855 -0.1244907,-0.171624 -0.08612,-0.41269 0.085504,-0.537181 l 1.1210494,-0.813177 1.522e-4,-9.56e-4 c 0,0 0,0 0,0 l 0.4180556,-0.303245 -1.7086987,-2.354468 -1.5391078,1.116423 c -0.1716235,0.124489 -0.4126889,0.08612 -0.5371797,-0.0855 -0.1244897,-0.171623 -0.086119,-0.41269 0.085504,-0.537181 l 6.04641255,-4.385886 c 0.085811,-0.06224 0.1894594,-0.0837 0.2862657,-0.06829 0.096805,0.01541 0.1886695,0.06798 0.2509144,0.153795 0.1244904,0.171622 0.086119,0.412689 -0.085504,0.537178 l -1.54020845,1.117229 1.70869985,2.354468 0.5390725,-0.391028 c 0.0011,-7.59e-4 0.00203,-6.11e-4 0.00217,-0.0015 L 1.1635739,53.327897 c 0.085811,-0.06225 0.1894587,-0.0837 0.2862649,-0.06829 0.096806,0.01541 0.1886699,0.06798 0.2509149,0.153795 0.1244903,0.171622 0.086119,0.412688 -0.085504,0.537178 L 0.80554134,54.53792 1.788695,55.893302 c 8.046e-4,0.0011 0.00173,0.0013 0.00255,0.0023 8.044e-4,0.0011 6.58e-4,0.002 0.00143,0.0032 l 0.7118288,0.981332 c 8.046e-4,0.0011 0.00173,0.0013 0.00255,0.0023 8.044e-4,0.0011 6.58e-4,0.002 0.00143,0.0032 l 0.00559,0.0077 0.2354144,0.324543 0.3527432,0.486276 0.6934746,0.956029 0.3527223,0.486264 0.6934745,0.95603 0.3527224,0.486265 0.1611989,0.22223 c 8.044e-4,0.0011 0.00173,0.0013 0.00255,0.0023 8.043e-4,0.0011 6.58e-4,0.002 0.00143,0.0032 l 0.3279838,0.452161 0.3830469,0.528071 c 8.043e-4,0.0011 0.00173,0.0013 0.00255,0.0023 8.043e-4,0.0011 6.58e-4,0.002 0.00143,0.0032 z m -0.1853287,5.431689 0.1903274,-0.138059 0.056107,-0.0407 0.5401718,-0.391825 c 0.011009,-0.008 0.023786,-0.0089 0.034644,-0.0159 l 0.152251,-0.09449 -1.6675431,-3.187724 -1.7888402,1.29757 z m -11.8914194,-19.234868 -1.7206324,1.248096 1.7085506,2.355416 0.8251108,-0.59851 0.8955198,-0.649585 z m 2.47266655,2.751466 v 0 l -2.34346565,1.700718 c 0,0 0,0 0,0 L -2.9977896,57.2975 5.5331317,69.099947 5.8850278,68.845532 c 0.00111,-8.05e-4 0.00126,-0.0017 0.00234,-0.0026 l 2.5083393,-1.819455 c 0.00106,-8.11e-4 0.00314,-0.0014 0.00426,-0.0023 L 8.7446771,66.799771 7.8205758,65.5258 7.4400756,65.800964 c -0.1716229,0.12449 -0.4126895,0.08612 -0.5371798,-0.0855 -0.1244902,-0.171623 -0.086119,-0.41269 0.085504,-0.537179 l 0.3817581,-0.27691 -0.2633447,-0.36305 -0.9527279,0.691081 c -0.1716232,0.124491 -0.4126899,0.08612 -0.5371801,-0.0855 -0.1244904,-0.171622 -0.086119,-0.412689 0.085504,-0.53718 L 6.6551299,63.915637 6.3909871,63.551488 6.0103362,63.8276 C 5.8384107,63.953989 5.5984444,63.91482 5.473953,63.7432 5.3494627,63.571577 5.386734,63.331308 5.558349,63.206817 l 0.3817588,-0.27691 -0.2641425,-0.36415 -0.9527282,0.691081 c -0.1716232,0.124491 -0.4126897,0.08612 -0.5371799,-0.0855 -0.1244902,-0.171622 -0.086119,-0.412689 0.085504,-0.537179 L 5.2242889,61.943079 5.064686,61.72305 4.960944,61.580031 4.5791928,61.856942 c -0.171623,0.12449 -0.4126895,0.08612 -0.5371798,-0.0855 -0.1244902,-0.171624 -0.086119,-0.41269 0.085504,-0.53718 L 4.5092679,60.957347 4.2554994,60.6075 3.8737483,60.88441 c -0.1716232,0.124491 -0.4126899,0.08612 -0.5371801,-0.0855 -0.1244904,-0.171623 -0.086119,-0.412689 0.085504,-0.53718 l 0.3817515,-0.276911 -0.2633449,-0.363048 -0.9527281,0.69108 c -0.1716231,0.12449 -0.4126896,0.08612 -0.5371799,-0.0855 -0.1244902,-0.171623 -0.086119,-0.412689 0.085504,-0.53718 L 3.0888023,58.999084 2.8246597,58.634935 2.4440084,58.911048 c -0.1719251,0.126388 -0.4118917,0.08722 -0.5363832,-0.0844 -0.1244902,-0.171624 -0.087219,-0.411892 0.084396,-0.536383 l 0.3817513,-0.276911 -0.2473846,-0.341046 -0.016759,-0.0231 -0.955273,0.688729 c -0.17162321,0.124491 -0.41268973,0.08612 -0.53717985,-0.0855 -0.1244904,-0.171622 -0.086119,-0.41269 0.0855037,-0.53718 L 1.6554077,57.024177 1.3920629,56.661128 1.0103118,56.938039 c -0.17162316,0.12449 -0.41268985,0.08612 -0.53718005,-0.0855 -0.1244904,-0.171623 -0.08612,-0.412689 0.085504,-0.53718 L 0.94038721,56.038448 0.18147565,54.992207 Z"
       id="path2-4" /></g><g
     id="g891"
     transform="translate(13.135593)"><path
       inkscape:connector-curvature="0"
       id="path2"
       d="M 60.03,0.11 C 58.97,0.34 58.27,0.75 57.3,1.68 56.83,2.13 51.46,7.28 45.36,13.11 38.57,19.61 34.05,24 33.7,24.43 c -3.6,4.48 -4.75,10.32 -3.12,15.83 0.14,0.47 0.26,0.87 0.26,0.89 0,0.04 -5.44,5.26 -5.69,5.46 l -0.2,0.16 -0.56,-0.55 c -0.32,-0.31 -0.66,-0.6 -0.76,-0.66 -0.3,-0.15 -1.06,-0.11 -1.35,0.07 -0.43,0.26 -3.56,3.31 -3.72,3.6 -0.23,0.43 -0.2,1.08 0.07,1.47 0.17,0.26 4.58,4.92 8.39,8.86 l 0.49,0.51 -0.17,0.64 c -0.38,1.45 -0.95,5.44 -1.07,7.49 -0.06,1.07 0.03,1.41 0.48,1.91 0.92,1.02 2.54,0.82 3.19,-0.39 0.15,-0.31 0.18,-0.49 0.17,-1.17 -0.02,-1.18 -0.45,-4.79 -0.76,-6.35 -0.05,-0.25 -0.04,-0.25 0.4,0.19 0.26,0.25 0.57,0.49 0.7,0.53 0.34,0.14 0.89,0.11 1.19,-0.03 0.4,-0.19 3.56,-3.23 3.79,-3.64 0.36,-0.66 0.21,-1.3 -0.46,-2.03 -0.23,-0.25 -0.37,-0.46 -0.32,-0.5 0.14,-0.12 4.25,-4.05 4.98,-4.76 l 0.73,-0.71 1.02,0.34 c 4.23,1.45 8.93,1.18 12.88,-0.72 1.54,-0.74 2.83,-1.58 3.94,-2.56 0.26,-0.22 5.67,-5.4 12.05,-11.5 8.45,-8.1 11.66,-11.22 11.86,-11.55 0.95,-1.58 1.06,-4.13 0.21,-5.52 C 82.06,19.31 64.44,0.94 64.01,0.64 63.37,0.21 62.77,0.04 61.64,0.01 60.93,-0.02 60.45,0.02 60.03,0.11 Z m 2.65,1.86 c 0.28,0.11 2.21,2.09 9.2,9.39 6.12,6.39 8.9,9.35 9.01,9.59 0.37,0.82 0.24,2.37 -0.26,3.25 -0.16,0.29 -3.54,3.58 -11.89,11.57 -6.42,6.14 -11.98,11.41 -12.36,11.71 -4.36,3.41 -10.17,4.2 -15.27,2.08 -0.46,-0.19 -0.9,-0.37 -0.98,-0.39 -0.1,-0.03 -1.09,0.86 -3.44,3.12 -1.81,1.74 -3.32,3.16 -3.36,3.16 -0.03,0 -1.18,-1.18 -2.56,-2.62 -1.38,-1.44 -2.96,-3.08 -3.51,-3.66 l -1.01,-1.04 3.09,-2.96 c 1.7,-1.64 3.22,-3.09 3.38,-3.25 l 0.29,-0.27 -0.31,-0.84 c -1.53,-4.1 -1.35,-8.33 0.49,-12.18 0.54,-1.12 1.04,-1.93 1.82,-2.91 C 35.73,24.82 58.9,2.58 59.46,2.26 59.67,2.13 60.06,1.97 60.32,1.9 60.93,1.73 62.2,1.76 62.68,1.97 Z M 23.45,47.83 c 0.64,0.71 7.8,8.2 9.06,9.47 l 1.2,1.22 -1.32,1.27 c -0.72,0.7 -1.35,1.26 -1.38,1.25 -0.03,-0.02 -2.45,-2.51 -5.37,-5.56 l -5.3,-5.53 1.3,-1.26 c 0.72,-0.69 1.34,-1.26 1.37,-1.26 0.03,0 0.23,0.18 0.44,0.4 z"
       style="fill:#000000;stroke-width:0.1"
       transform="translate(18.740201,-1.5071728e-4)" /><path
       inkscape:connector-curvature="0"
       id="path4"
       d="m 33.32,36.54 c 0.01,0.99 0.55,3.38 1.06,4.63 l 0.31,0.76 -0.32,0.33 c -0.18,0.18 -1.65,1.6 -3.29,3.15 l -2.96,2.83 2.62,2.62 2.62,2.62 0.22,-0.2 c 1.64,-1.5 5.01,-4.52 6.44,-5.79 0.19,-0.15 0.2,-0.15 0.97,0.32 3.52,2.12 7.81,2.08 12.31,-0.12 2.25,-1.1 2.6,-1.38 7.02,-5.61 2.18,-2.09 4.41,-4.23 4.95,-4.75 L 66.25,36.38 49.79,36.37 H 33.32 Z"
       style="fill:#000000;stroke-width:0.1"
       transform="translate(18.740201,-1.5071728e-4)" /><rect
       transform="rotate(-133.65922)"
       y="22.358297"
       x="-85.359619"
       height="22.941307"
       width="28.826918"
       id="rect856"
       style="opacity:1;fill:#f2f2f2;fill-opacity:1;fill-rule:evenodd;stroke:#ffffff;stroke-width:0.55926865;stroke-linecap:round;stroke-miterlimit:4;stroke-dasharray:none;stroke-opacity:1" /><g
       style="fill:#008080"
       id="g841"
       transform="matrix(-0.17256394,-0.18242059,0.18242059,-0.17256394,73.330622,46.285581)"><polygon
         style="fill:#008080"
         points="42.12,77.83 37.08,83.94 54.15,83.94 49.11,77.83 "
         id="polygon4" /><path
         style="fill:#008080"
         d="m 51.67,67.66 h -1.36 v 2.5 h 1.36 a 1.835,1.835 0 0 1 0,3.67 H 38.9 v 2.5 h 12.77 a 4.335,4.335 0 0 0 0,-8.67 z"
         id="path6"
         inkscape:connector-curvature="0" /><path
         style="fill:#008080"
         d="m 47.12,26.6 c 1.63,0.94 3.95,0 5.17,-2.12 a 5,5 0 0 0 0.61,-3.55 0.75,0.75 0 0 1 0.29,-0.77 9.88,9.88 0 0 1 5.81,-1.6 c 7.51,0 10.85,3.48 10.85,11.29 V 39 A 19.17,19.17 0 0 1 50.71,58.16 H 38.42 a 6,6 0 0 0 0,12 h 2.51 v -2.5 h -2.51 a 3.5,3.5 0 0 1 0,-7 h 12.3 A 21.68,21.68 0 0 0 72.37,39 v -9.14 c 0,-9.15 -4.49,-13.79 -13.35,-13.79 a 11.92,11.92 0 0 0 -7.77,2.43 0.74,0.74 0 0 1 -0.61,0.16 4.4,4.4 0 0 0 -4.27,2.41 c -1.22,2.11 -0.88,4.59 0.75,5.53 z"
         id="path8"
         inkscape:connector-curvature="0" /><path
         style="fill:#008080"
         d="m 41.89,52.41 q 0.88,0.19 1.77,0.28 h 0.07 a 17.8,17.8 0 0 0 3.77,0 h 0.07 q 0.89,-0.1 1.77,-0.28 A 18,18 0 0 0 63.6,35.56 h -36 a 18,18 0 0 0 14.29,16.85 z"
         id="path10"
         inkscape:connector-curvature="0" /><path
         style="fill:#008080"
         d="m 42.43,54 v 2.62 h 6.38 V 54 l -0.64,0.08 -0.77,0.1 c -0.57,0.05 -1.13,0.08 -1.7,0.09 h -0.16 c -0.57,0 -1.13,0 -1.7,-0.09 l -0.77,-0.1 z"
         id="path12"
         inkscape:connector-curvature="0" /><path
         style="fill:#008080"
         d="m 43.9,32.52 a 0.74,0.74 0 0 0 0.35,0.09 0.75,0.75 0 0 0 0.66,-0.39 l 2.15,-4 a 3.37,3.37 0 0 1 -1.3,-0.76 l -2.18,4 a 0.75,0.75 0 0 0 0.32,1.06 z"
         id="path14"
         inkscape:connector-curvature="0" /><polygon
         style="fill:#008080"
         points="42.43,72.33 48.81,72.33 48.81,70.91 48.81,66.91 48.81,62.16 42.43,62.16 42.43,66.91 42.43,70.91 "
         id="polygon16" /></g></g></svg>