<?xml version="1.0" encoding="UTF-8" standalone="no"?>
<svg
   width="1200pt"
   height="1200pt"
   version="1.1"
   viewBox="0 0 1200 1200"
   id="svg18"
   sodipodi:docname="doc.svg"
   inkscape:version="1.2.2 (b0a8486541, 2022-12-01)"
   xmlns:inkscape="http://www.inkscape.org/namespaces/inkscape"
   xmlns:sodipodi="http://sodipodi.sourceforge.net/DTD/sodipodi-0.dtd"
   xmlns="http://www.w3.org/2000/svg"
   xmlns:svg="http://www.w3.org/2000/svg">
  <defs
     id="defs22">
    <rect
       x="609.39258"
       y="686.02856"
       width="893.49945"
       height="534.90466"
       id="rect517" />
  </defs>
  <sodipodi:namedview
     id="namedview20"
     pagecolor="#ffffff"
     bordercolor="#666666"
     borderopacity="1.0"
     inkscape:showpageshadow="2"
     inkscape:pageopacity="0.0"
     inkscape:pagecheckerboard="0"
     inkscape:deskcolor="#d1d1d1"
     inkscape:document-units="pt"
     showgrid="false"
     inkscape:zoom="0.528125"
     inkscape:cx="699.64497"
     inkscape:cy="799.05325"
     inkscape:window-width="1920"
     inkscape:window-height="1011"
     inkscape:window-x="0"
     inkscape:window-y="32"
     inkscape:window-maximized="1"
     inkscape:current-layer="svg18" />
  <g
     id="g16"
     style="fill:#0000ff">
    <path
       d="m1020.4 116.88h-699.57c-6.2109 0-11.25 5.0391-11.25 11.25v30.555h-34.934c-6.2109 0-11.25 5.0391-11.25 11.25v33.703c-33.734 5.7734-53.684 19.125-53.684 36.734 0 19.801 24.18 31.738 53.684 36.797v167.58c-33.734 5.7734-53.684 19.125-53.684 36.734 0 19.801 24.18 31.738 53.684 36.797v167.58c-33.734 5.7734-53.684 19.125-53.684 36.719 0 19.801 24.18 31.738 53.684 36.797v167.59c-33.734 5.7734-53.684 19.125-53.684 36.719 0 19.801 24.18 31.738 53.684 36.797v71.387c0 6.2109 5.0391 11.25 11.25 11.25h699.55c6.2109 0 11.25-5.0391 11.25-11.25v-30.539h34.949c6.2109 0 11.25-5.0391 11.25-11.25v-901.95c0-6.2227-5.0391-11.25-11.25-11.25zm-788.21 123.57c0.55469-2.4297 9.4648-9.6445 31.199-13.996v27.734c-19.316-3.957-30.402-10.406-31.199-13.738zm0 241.11c0.55469-2.4297 9.4648-9.6445 31.199-13.996v27.734c-19.316-3.957-30.402-10.406-31.199-13.738zm0 241.11c0.55469-2.4297 9.4805-9.6445 31.199-13.996v27.719c-19.332-3.9453-30.418-10.395-31.199-13.723zm0 241.11c0.55469-2.4297 9.4805-9.6445 31.199-13.996v27.719c-19.332-3.9297-30.418-10.379-31.199-13.723zm53.715 96.84v-57.629c4.0195 0.22656 8.0547 0.375 12.059 0.375 42.512 0 88.262-12.406 88.262-39.676 0-6.2109-5.0391-11.297-11.25-11.297s-11.25 4.9961-11.25 11.203c-1.1406 5.1602-24.914 17.25-65.762 17.25-4.2461 0-8.1914-0.19531-12.059-0.43359v-218.55c4.0195 0.22656 8.0547 0.375 12.059 0.375 42.512 0 88.262-12.406 88.262-39.676 0-6.2109-5.0391-11.297-11.25-11.297s-11.25 4.9961-11.25 11.203c-1.1406 5.1602-24.914 17.25-65.762 17.25-4.2461 0-8.1914-0.19531-12.059-0.43359v-218.52c4.0195 0.22656 8.0547 0.375 12.059 0.375 42.512 0 88.262-12.422 88.262-39.676 0-6.2109-5.0391-11.297-11.25-11.297s-11.234 4.9961-11.234 11.203c-1.1719 5.1602-24.945 17.25-65.773 17.25-4.2461 0-8.1914-0.19531-12.059-0.43359v-218.55c4.0195 0.22656 8.0547 0.375 12.059 0.375 42.512 0 88.262-12.422 88.262-39.676 0-6.2109-5.0391-11.297-11.25-11.297-6.2109 0-11.234 4.9961-11.234 11.203-1.1719 5.1602-24.945 17.25-65.773 17.25-4.2461 0-8.1914-0.19531-12.059-0.43359v-75.914h34.906 0.03125 0.03125 277.52v256.86c0 6.2109 5.0391 11.25 11.25 11.25h353.31v22.711h-418.18c-65.398 0-118.41 53.012-118.41 118.41 0 65.398 53.012 118.41 118.41 118.41h418.18v321.14c0 0.046875-0.03125 0.089844-0.03125 0.14844 0 0.058593 0.03125 0.089843 0.03125 0.14844v30.391zm427.85-800.16 226.16 166.32h-319.02l-0.003906-234.62zm183.58 384.99c9.7188 0 20.504-2.1133 26.836-4.6484l4.8594 25.141c-5.9258 2.9531-19.215 6.1211-36.539 6.1211-49.246 0-74.594-30.629-74.594-71.191 0-48.586 34.664-75.629 77.762-75.629 16.664 0 29.355 3.3906 35.07 6.3281l-6.5703 25.559c-6.5391-2.7461-15.613-5.2812-27.047-5.2812-25.547 0-45.406 15.422-45.406 47.113 0.015625 28.535 16.922 46.488 45.629 46.488zm-93.941-48.148c0 46.68-28.305 75-69.93 75-42.238 0-66.945-31.906-66.945-72.465 0-42.676 27.238-74.578 69.285-74.578 43.707-0.003906 67.59 32.742 67.59 72.043zm-151.41-1.9062c0 27.254-9.9297 46.051-23.672 57.66-15 12.465-37.801 18.391-65.684 18.391-16.695 0-28.531-1.0508-36.57-2.1133v-139.84c11.836-1.9062 27.238-2.9531 43.531-2.9531 27.047 0 44.566 4.8594 58.305 15.211 14.805 10.973 24.09 28.508 24.09 53.648zm357.16 423.43h-23.699v-580.8c0-1.5742-0.44922-3.0742-1.0664-4.5-0.16406-0.35938-0.31641-0.69141-0.52344-1.0352-0.76562-1.3359-1.6953-2.5781-3-3.5391l-364.56-268.11c-1.5312-1.125-3.3438-1.7109-5.2031-1.9492-0.28516-0.046875-0.53906-0.12109-0.82422-0.13672-0.21094-0.015624-0.42188-0.10547-0.62891-0.10547h-277.56l-0.007813-19.273h677.07z"
       id="path2"
       style="fill:#0000ff" />
    <path
       d="m572.95 551.25c-7.1836 0-11.836 0.62891-14.594 1.2617v93.148c2.7617 0.64453 7.1992 0.64453 11.219 0.64453 29.145 0.21094 48.164-15.855 48.164-49.859 0.21094-29.566-17.098-45.195-44.789-45.195z"
       id="path4"
       style="fill:#0000ff" />
    <path
       d="m700.52 599.19c0 27.887 13.094 47.535 34.637 47.535 21.766 0 34.215-20.715 34.215-48.375 0-25.559-12.238-47.535-34.426-47.535-21.766 0-34.426 20.715-34.426 48.375z"
       id="path6"
       style="fill:#0000ff" />
    <path
       d="m455.62 923.18h40.23l18.148-135.59 18.887 135.59h40.23l23.535-160.26h12.766v-4.2305h-37.785v4.2305h12.508l-16.918 133.76-19.621-137.99h-40.23l-19.125 137.99-18.629-133.76h12.492v-4.2305h-65.25v4.2305h12.512z"
       id="path8"
       style="fill:#0000ff" />
    <path
       d="m624.42 829.38h293.13v15h-293.13z"
       id="path10"
       style="fill:#0000ff" />
    <path
       d="m624.42 915.68h293.13v15h-293.13z"
       id="path12"
       style="fill:#0000ff" />
    <path
       d="m426.34 1002h491.2v15h-491.2z"
       id="path14"
       style="fill:#0000ff" />
  </g>
  <rect
     style="fill:#0000ff;stroke:#d35f5f;stroke-width:0.9"
     id="rect461"
     width="440.2977"
     height="177.1638"
     x="509.81384"
     y="508.58023" />
  <text
     xml:space="preserve"
     transform="matrix(0.75,0,0,0.92152093,108.78885,-368.45594)"
     id="text515"
     style="font-size:200px;line-height:1.25;font-family:Roboto;-inkscape-font-specification:'Roboto, Normal';text-decoration-color:#000000;letter-spacing:0px;word-spacing:0px;white-space:pre;shape-inside:url(#rect517);display:inline;fill:#000000;stroke-width:0.902148;-inkscape-stroke:none;stop-color:#000000"><tspan
       x="609.39258"
       y="861.0293"
       id="tspan1079"><tspan
         style="font-weight:bold;-inkscape-font-specification:'Roboto Bold';fill:#ffffff"
         id="tspan1077">
</tspan></tspan><tspan
       x="609.39258"
       y="1111.0293"
       id="tspan1083"><tspan
         style="font-weight:bold;-inkscape-font-specification:'Roboto Bold';fill:#ffffff"
         id="tspan1081">ODT</tspan></tspan></text>
</svg>
