<?xml version="1.0" encoding="UTF-8" standalone="no"?>
<svg
   width="1200pt"
   height="1200pt"
   version="1.1"
   viewBox="0 0 1200 1200"
   id="svg18"
   sodipodi:docname="ods.svg"
   inkscape:version="1.2.2 (b0a8486541, 2022-12-01)"
   xmlns:inkscape="http://www.inkscape.org/namespaces/inkscape"
   xmlns:sodipodi="http://sodipodi.sourceforge.net/DTD/sodipodi-0.dtd"
   xmlns="http://www.w3.org/2000/svg"
   xmlns:svg="http://www.w3.org/2000/svg">
  <defs
     id="defs22">
    <rect
       x="609.39258"
       y="686.02856"
       width="893.49945"
       height="534.90466"
       id="rect517" />
  </defs>
  <sodipodi:namedview
     id="namedview20"
     pagecolor="#ffffff"
     bordercolor="#666666"
     borderopacity="1.0"
     inkscape:showpageshadow="2"
     inkscape:pageopacity="0.0"
     inkscape:pagecheckerboard="0"
     inkscape:deskcolor="#d1d1d1"
     inkscape:document-units="pt"
     showgrid="false"
     inkscape:zoom="0.528125"
     inkscape:cx="699.64497"
     inkscape:cy="799.05325"
     inkscape:window-width="1920"
     inkscape:window-height="1011"
     inkscape:window-x="0"
     inkscape:window-y="32"
     inkscape:window-maximized="1"
     inkscape:current-layer="svg18" />
  <g
     id="g16"
     style="fill:#008000">
    <path
       d="m999.72 116.88h-699.57c-6.2109 0-11.25 5.0391-11.25 11.25v30.555h-34.949c-6.2109 0-11.25 5.0391-11.25 11.25v33.703c-33.719 5.7734-53.684 19.125-53.684 36.734 0 19.801 24.18 31.738 53.684 36.797v167.58c-33.719 5.7734-53.684 19.125-53.684 36.734 0 19.801 24.18 31.738 53.684 36.797v167.58c-33.719 5.7734-53.684 19.125-53.684 36.719 0 19.801 24.18 31.738 53.684 36.797v167.59c-33.719 5.7734-53.684 19.125-53.684 36.719 0 19.801 24.18 31.738 53.684 36.797v71.387c0 6.2109 5.0391 11.25 11.25 11.25h699.57c6.2109 0 11.25-5.0391 11.25-11.25v-30.539h34.949c6.2109 0 11.25-5.0391 11.25-11.25v-901.95c0-6.2227-5.0234-11.25-11.25-11.25zm-788.2 123.57c0.55469-2.4297 9.4805-9.6445 31.199-13.996v27.719c-19.336-3.9414-30.418-10.391-31.199-13.723zm0 241.11c0.55469-2.4297 9.4805-9.6445 31.199-13.996v27.719c-19.336-3.9414-30.418-10.391-31.199-13.723zm0 241.11c0.55469-2.4297 9.4805-9.6445 31.199-13.98v27.719c-19.352-3.9609-30.434-10.41-31.199-13.738zm0 241.11c0.55469-2.4297 9.4805-9.6445 31.199-13.98v27.719c-19.352-3.9609-30.434-10.41-31.199-13.738zm53.699 96.84v-57.629c4.0352 0.22656 8.0547 0.375 12.074 0.375 42.496 0 88.246-12.406 88.246-39.676 0-6.2109-5.0391-11.297-11.25-11.297-6.2109 0-11.25 4.9961-11.25 11.203-1.1406 5.1758-24.898 17.25-65.746 17.25-4.2461 0-8.1914-0.19531-12.074-0.43359v-218.54c4.0352 0.22656 8.0547 0.375 12.074 0.375 42.496 0 88.246-12.406 88.246-39.676 0-6.2109-5.0391-11.297-11.25-11.297-6.2109 0-11.25 4.9961-11.25 11.203-1.1406 5.1758-24.898 17.25-65.746 17.25-4.2461 0-8.1914-0.19531-12.074-0.43359v-218.53c4.0352 0.22656 8.0547 0.375 12.074 0.375 42.496 0 88.246-12.422 88.246-39.676 0-6.2109-5.0391-11.297-11.25-11.297-6.2109 0-11.234 4.9961-11.234 11.203-1.1719 5.1602-24.93 17.25-65.762 17.25-4.2461 0-8.1914-0.19531-12.074-0.43359v-218.55c4.0352 0.22656 8.0547 0.375 12.074 0.375 42.496 0 88.246-12.422 88.246-39.676 0-6.2109-5.0391-11.297-11.25-11.297-6.2109 0-11.234 4.9961-11.234 11.203-1.1719 5.1602-24.93 17.25-65.762 17.25-4.2461 0-8.1914-0.19531-12.074-0.43359v-75.914h34.922 0.03125 0.03125 277.5v256.86c0 6.2109 5.0391 11.25 11.25 11.25h353.32v22.711h-418.2c-65.398 0-118.41 53.012-118.41 118.41 0 65.398 53.012 118.41 118.41 118.41h418.2v321.14c0 0.046875-0.03125 0.089844-0.03125 0.14844 0 0.058593 0.03125 0.089843 0.03125 0.14844v30.391zm421.04-805.19 232.98 171.34h-319.04v-234.61zm113.07 354.75c-23.672-8.2344-39.074-21.328-39.074-42.047 0-24.301 20.281-42.887 53.863-42.887 16.051 0 27.887 3.3906 36.344 7.1836l-7.1836 25.98c-5.6992-2.7461-15.84-6.75-29.773-6.75s-20.699 6.3281-20.699 13.727c0 9.0898 8.0234 13.109 26.398 20.07 25.156 9.3008 36.977 22.395 36.977 42.465 0 23.879-18.391 44.145-57.465 44.145-16.262 0-32.309-4.2148-40.336-8.6562l6.5547-26.609c8.6562 4.4414 21.977 8.8633 35.699 8.8633 14.789 0 22.605-6.1211 22.605-15.406-0.046875-8.8867-6.7969-13.957-23.91-20.078zm-54.48 32.73v27.047h-88.934v-142.38h32.309v115.34zm-227.48-115.34h36.977l12.449 25.98c4.2305 8.6719 7.3945 15.629 10.785 23.672h0.42188c3.3906-9.0898 6.1211-15.422 9.7031-23.672l12.047-25.98h36.766l-40.156 69.512 42.254 72.871h-37.184l-12.887-25.77c-5.2969-9.9297-8.6562-17.324-12.676-25.559h-0.42188c-2.9531 8.2344-6.5547 15.629-10.98 25.559l-11.836 25.77h-36.75l41.191-72.031zm471.11 491.25h-23.699v-580.8c0-1.5742-0.44922-3.0742-1.0664-4.5-0.16406-0.35938-0.31641-0.69141-0.52344-1.0352-0.76563-1.3359-1.6953-2.5781-3-3.5391l-364.57-268.11c-1.5312-1.125-3.3438-1.7109-5.2031-1.9492-0.28516-0.046875-0.53906-0.12109-0.82422-0.13672-0.21094-0.015624-0.42188-0.10547-0.62891-0.10547h-277.55l-0.003906-19.273h677.07z"
       id="path2"
       style="fill:#008000" />
    <path
       d="m535.25 771.57h-141.98c-6.2109 0-11.25 5.0391-11.25 11.25v58.68c0 6.2109 5.0391 11.25 11.25 11.25h141.98c6.2109 0 11.25-5.0391 11.25-11.25v-58.68c0-6.2266-5.043-11.25-11.25-11.25zm-11.25 58.68h-119.48v-36.18h119.48z"
       id="path4"
       style="fill:#008000" />
    <path
       d="m535.25 869.48h-141.98c-6.2109 0-11.25 5.0391-11.25 11.25v58.68c0 6.2109 5.0391 11.25 11.25 11.25h141.98c6.2109 0 11.25-5.0391 11.25-11.25v-58.68c0-6.2109-5.043-11.25-11.25-11.25zm-11.25 58.68h-119.48v-36.18h119.48z"
       id="path6"
       style="fill:#008000" />
    <path
       d="m719.09 771.57h-141.96c-6.2109 0-11.25 5.0391-11.25 11.25v58.68c0 6.2109 5.0391 11.25 11.25 11.25h141.96c6.2109 0 11.25-5.0391 11.25-11.25v-58.68c0-6.2266-5.0273-11.25-11.25-11.25zm-11.25 58.68h-119.46v-36.18h119.46z"
       id="path8"
       style="fill:#008000" />
    <path
       d="m577.12 880.73h141.96v58.68h-141.96z"
       id="path10"
       style="fill:#008000" />
    <path
       d="m902.95 771.57h-141.98c-6.2109 0-11.25 5.0391-11.25 11.25l0.003907 58.68c0 6.2109 5.0391 11.25 11.25 11.25h141.98c6.2109 0 11.25-5.0391 11.25-11.25v-58.68c-0.003906-6.2266-5.043-11.25-11.254-11.25zm-11.25 58.68h-119.48v-36.18h119.48z"
       id="path12"
       style="fill:#008000" />
    <path
       d="m760.98 880.73h141.96v58.68h-141.96z"
       id="path14"
       style="fill:#008000" />
  </g>
  <rect
     style="fill:#008000;stroke:#d35f5f;stroke-width:0.9"
     id="rect461"
     width="440.2977"
     height="177.1638"
     x="470.3511"
     y="504.7991" />
  <text
     xml:space="preserve"
     transform="matrix(0.75,0,0,0.92152093,60.919319,-370.16279)"
     id="text515"
     style="font-size:200px;line-height:1.25;font-family:Roboto;-inkscape-font-specification:'Roboto, Normal';text-decoration-color:#000000;letter-spacing:0px;word-spacing:0px;white-space:pre;shape-inside:url(#rect517);display:inline;fill:#000000;stroke-width:0.902148;-inkscape-stroke:none;stop-color:#000000"><tspan
       x="609.39258"
       y="861.0293"
       id="tspan884"><tspan
         style="font-weight:bold;-inkscape-font-specification:'Roboto Bold';fill:#ffffff"
         id="tspan882">
</tspan></tspan><tspan
       x="609.39258"
       y="1111.0293"
       id="tspan888"><tspan
         style="font-weight:bold;-inkscape-font-specification:'Roboto Bold';fill:#ffffff"
         id="tspan886">ODS</tspan></tspan></text>
</svg>
