<?xml version="1.0" encoding="UTF-8" standalone="no"?>
<svg
   width="1200pt"
   height="1200pt"
   version="1.1"
   viewBox="0 0 1200 1200"
   id="svg12"
   sodipodi:docname="pdf.svg"
   inkscape:version="1.2.2 (b0a8486541, 2022-12-01)"
   xmlns:inkscape="http://www.inkscape.org/namespaces/inkscape"
   xmlns:sodipodi="http://sodipodi.sourceforge.net/DTD/sodipodi-0.dtd"
   xmlns="http://www.w3.org/2000/svg"
   xmlns:svg="http://www.w3.org/2000/svg">
  <defs
     id="defs16" />
  <sodipodi:namedview
     id="namedview14"
     pagecolor="#ffffff"
     bordercolor="#666666"
     borderopacity="1.0"
     inkscape:showpageshadow="2"
     inkscape:pageopacity="0.0"
     inkscape:pagecheckerboard="0"
     inkscape:deskcolor="#d1d1d1"
     inkscape:document-units="pt"
     showgrid="false"
     inkscape:zoom="0.528125"
     inkscape:cx="699.64497"
     inkscape:cy="799.05325"
     inkscape:window-width="1920"
     inkscape:window-height="1043"
     inkscape:window-x="1920"
     inkscape:window-y="0"
     inkscape:window-maximized="1"
     inkscape:current-layer="svg12" />
  <g
     id="g10"
     style="fill:#aa0000;fill-opacity:1">
    <path
       d="m999.72 116.88h-699.57c-6.2109 0-11.25 5.0391-11.25 11.25v30.555h-34.949c-6.2109 0-11.25 5.0391-11.25 11.25v33.703c-33.719 5.7734-53.684 19.125-53.684 36.734 0 19.801 24.18 31.738 53.684 36.797v167.58c-33.719 5.7734-53.684 19.125-53.684 36.734 0 19.801 24.18 31.738 53.684 36.797v167.58c-33.719 5.7734-53.684 19.125-53.684 36.719 0 19.801 24.18 31.738 53.684 36.797v167.59c-33.719 5.7734-53.684 19.125-53.684 36.719 0 19.801 24.18 31.738 53.684 36.797v71.387c0 6.2109 5.0391 11.25 11.25 11.25h699.57c6.2109 0 11.25-5.0391 11.25-11.25v-30.539h34.949c6.2109 0 11.25-5.0391 11.25-11.25v-901.95c0-6.2227-5.0234-11.25-11.25-11.25zm-788.2 123.57c0.55469-2.4297 9.4805-9.6445 31.199-13.996v27.719c-19.336-3.9414-30.418-10.391-31.199-13.723zm0 241.11c0.55469-2.4297 9.4805-9.6445 31.199-13.996v27.719c-19.336-3.9414-30.418-10.391-31.199-13.723zm0 241.11c0.55469-2.4297 9.4805-9.6445 31.199-13.98v27.719c-19.352-3.9609-30.434-10.41-31.199-13.738zm0 241.11c0.55469-2.4297 9.4805-9.6445 31.199-13.98v27.719c-19.352-3.9609-30.434-10.41-31.199-13.738zm53.699 96.84v-57.629c4.0352 0.22656 8.0547 0.375 12.074 0.375 42.496 0 88.246-12.406 88.246-39.676 0-6.2109-5.0391-11.297-11.25-11.297-6.2109 0-11.25 4.9961-11.25 11.203-1.1406 5.1758-24.898 17.25-65.746 17.25-4.2461 0-8.1914-0.19531-12.074-0.43359v-218.54c4.0352 0.22656 8.0547 0.375 12.074 0.375 42.496 0 88.246-12.406 88.246-39.676 0-6.2109-5.0391-11.297-11.25-11.297-6.2109 0-11.25 4.9961-11.25 11.203-1.1406 5.1758-24.898 17.25-65.746 17.25-4.2461 0-8.1914-0.19531-12.074-0.43359v-218.53c4.0352 0.22656 8.0547 0.375 12.074 0.375 42.496 0 88.246-12.422 88.246-39.676 0-6.2109-5.0391-11.297-11.25-11.297-6.2109 0-11.234 4.9961-11.234 11.203-1.1719 5.1602-24.93 17.25-65.762 17.25-4.2461 0-8.1914-0.19531-12.074-0.43359v-218.55c4.0352 0.22656 8.0547 0.375 12.074 0.375 42.496 0 88.246-12.422 88.246-39.676 0-6.2109-5.0391-11.297-11.25-11.297-6.2109 0-11.234 4.9961-11.234 11.203-1.1719 5.1602-24.93 17.25-65.762 17.25-4.2461 0-8.1914-0.19531-12.074-0.43359v-75.914h34.922 0.03125 0.03125 277.5v256.86c0 6.2109 5.0391 11.25 11.25 11.25h353.32v22.711h-418.2c-65.398 0-118.41 53.012-118.41 118.41 0 65.398 53.012 118.41 118.41 118.41h418.2v321.14c0 0.046875-0.03125 0.089844-0.03125 0.14844 0 0.058593 0.03125 0.089843 0.03125 0.14844v30.391zm421.04-805.19 232.98 171.34h-319.04v-234.61zm193.34 331.1v26.191h-51.121v57.238h-32.309v-142.38h87.047v26.414h-54.719v32.535zm-104.54 8.8633c0 27.254-9.9297 46.051-23.656 57.66-15 12.465-37.816 18.391-65.699 18.391-16.68 0-28.516-1.0508-36.555-2.1133v-139.84c11.82-1.9062 27.238-2.9531 43.516-2.9531 27.047 0 44.578 4.8594 58.305 15.211 14.805 10.973 24.09 28.508 24.09 53.648zm-146.36-24.508c0 13.949-4.6484 25.77-13.094 33.797-10.98 10.352-27.254 15-46.273 15-4.2148 0-8.0234-0.22656-10.965-0.62891v50.91h-31.906v-140.48c9.9297-1.6953 23.879-2.9531 43.516-2.9531 19.844 0 34.02 3.7969 43.516 11.414 9.0859 7.1641 15.207 19 15.207 32.938zm359.77 447.94h-23.699v-580.8c0-1.5742-0.44922-3.0742-1.0664-4.5-0.16406-0.35938-0.31641-0.69141-0.52344-1.0352-0.76563-1.3359-1.6953-2.5781-3-3.5391l-364.57-268.11c-1.5312-1.125-3.3438-1.7109-5.2031-1.9492-0.28516-0.046875-0.53906-0.12109-0.82422-0.13672-0.21094-0.015624-0.42188-0.10547-0.62891-0.10547h-277.55l-0.003906-19.273h677.07z"
       id="path2"
       style="fill:#aa0000;fill-opacity:1" />
    <path
       d="m558.36 594.12c2.7461 0.62891 6.1211 0.83984 10.77 0.83984 17.113 0 27.676-8.6562 27.676-23.234 0-13.109-9.0742-20.926-25.141-20.926-6.5547 0-10.98 0.62891-13.305 1.2617z"
       id="path4"
       style="fill:#aa0000;fill-opacity:1" />
    <path
       d="m696.05 551.25c-7.1836 0-11.836 0.62891-14.594 1.2617v93.148c2.7617 0.64453 7.1836 0.64453 11.203 0.64453 29.145 0.21094 48.164-15.855 48.164-49.859 0.21094-29.566-17.102-45.195-44.773-45.195z"
       id="path6"
       style="fill:#aa0000;fill-opacity:1" />
    <path
       d="m780.6 946.02c-4.2891 4.4531-4.1562 11.566 0.26953 15.887 2.5664 2.5195 9.1641 10.844 8.8516 19.035-0.21094 5.0391-3 9.7344-7.6211 13.664-3.5391 2.0859-14.07 1.3203-29.371-17.371-0.73438-0.71875-73.906-72.898-79.352-201.11-0.015625-0.52344-0.25391-0.97656-0.34375-1.4688-2.25-15.945-13.363-22.59-14.461-23.191-15.719-7.8164-28.109-5.9414-35.73-2.9688-18.434 7.1992-26.145 26.34-26.969 28.484-2.2031 5.8203 0.71875 12.301 6.5234 14.52 5.8203 2.1914 12.285-0.71875 14.52-6.5234 0.046875-0.12109 4.875-11.926 14.113-15.523 4.9492-1.9492 10.664-1.2734 16.484 1.5586 3.375 2.4297 6.8867 12.344-4.4688 33.719-0.35938 0.91406-36.09 90.449-146.09 146.76-34.5 13.949-29.789 39.105-29.398 40.859 4.6367 16.949 14.281 24.914 21.57 28.621 6.75 3.4336 13.738 4.5156 19.949 4.5156 10.02 0 17.941-2.8516 19.273-3.375 5.7734-2.2031 8.6406-8.6562 6.4805-14.445-2.1914-5.7891-8.6094-8.6992-14.461-6.5859-3.3594 1.2305-13.695 3.6133-21.148-0.22656-4.7109-2.4297-7.9805-7.1562-9.7031-13.289-0.25391-2.4883 1.5586-6.8398 8.0547-11.129 2.7148-1.2891 5.2188-2.6836 7.8438-4.0039 3.3008-1.3633 7.0664-2.6719 11.746-3.8086 1.0039-0.32812 102.46-32.297 234.18 38.789 10.289 7.8906 19.469 10.395 26.746 10.395 10.172 0 16.648-4.6211 17.445-5.2031 13.273-11.07 16.395-22.965 16.648-31.004 0.66016-19.664-14.07-34.305-15.766-35.926-4.4688-4.2812-11.547-4.0703-15.82 0.33984zm-220.65-6.9609c55.996-41.488 84.914-87.734 96.75-110.58 11.699 63.84 37.727 109.84 56.879 136.61-63.645-25.035-117.43-28.32-153.63-26.027z"
       id="path8"
       style="fill:#aa0000;fill-opacity:1" />
  </g>
</svg>
