<?xml version="1.0" encoding="UTF-8" standalone="no"?>
<svg
   width="1200pt"
   height="1200pt"
   version="1.1"
   viewBox="0 0 1200 1200"
   id="svg8"
   sodipodi:docname="noun-svg-4114694.svg"
   inkscape:version="1.2.2 (b0a8486541, 2022-12-01)"
   xmlns:inkscape="http://www.inkscape.org/namespaces/inkscape"
   xmlns:sodipodi="http://sodipodi.sourceforge.net/DTD/sodipodi-0.dtd"
   xmlns="http://www.w3.org/2000/svg"
   xmlns:svg="http://www.w3.org/2000/svg">
  <defs
     id="defs12" />
  <sodipodi:namedview
     id="namedview10"
     pagecolor="#ffffff"
     bordercolor="#666666"
     borderopacity="1.0"
     inkscape:showpageshadow="2"
     inkscape:pageopacity="0.0"
     inkscape:pagecheckerboard="0"
     inkscape:deskcolor="#d1d1d1"
     inkscape:document-units="pt"
     showgrid="false"
     inkscape:zoom="0.528125"
     inkscape:cx="748.87574"
     inkscape:cy="799.05325"
     inkscape:window-width="1920"
     inkscape:window-height="1043"
     inkscape:window-x="1920"
     inkscape:window-y="0"
     inkscape:window-maximized="1"
     inkscape:current-layer="svg8" />
  <g
     id="g6"
     style="fill:#d40055">
    <path
       d="m999.72 116.88h-699.57c-6.2109 0-11.25 5.0391-11.25 11.25v30.555h-34.949c-6.2109 0-11.25 5.0391-11.25 11.25v33.703c-33.719 5.7734-53.684 19.125-53.684 36.734 0 19.801 24.18 31.738 53.684 36.797v167.58c-33.719 5.7734-53.684 19.125-53.684 36.734 0 19.801 24.18 31.738 53.684 36.797v167.58c-33.719 5.7734-53.684 19.125-53.684 36.719 0 19.801 24.18 31.738 53.684 36.797v167.59c-33.719 5.7734-53.684 19.125-53.684 36.719 0 19.801 24.18 31.738 53.684 36.797v71.387c0 6.2109 5.0391 11.25 11.25 11.25h699.57c6.2109 0 11.25-5.0391 11.25-11.25v-30.539h34.949c6.2109 0 11.25-5.0391 11.25-11.25v-901.95c0-6.2227-5.0234-11.25-11.25-11.25zm-788.2 123.57c0.55469-2.4297 9.4805-9.6445 31.199-13.996v27.719c-19.336-3.9414-30.418-10.391-31.199-13.723zm0 241.11c0.55469-2.4297 9.4805-9.6445 31.199-13.996v27.719c-19.336-3.9414-30.418-10.391-31.199-13.723zm0 241.11c0.55469-2.4297 9.4805-9.6445 31.199-13.98v27.719c-19.352-3.9609-30.434-10.41-31.199-13.738zm0 241.11c0.55469-2.4297 9.4805-9.6445 31.199-13.98v27.719c-19.352-3.9609-30.434-10.41-31.199-13.738zm53.699 96.84v-57.629c4.0352 0.22656 8.0547 0.375 12.074 0.375 42.496 0 88.246-12.406 88.246-39.676 0-6.2109-5.0391-11.297-11.25-11.297-6.2109 0-11.25 4.9961-11.25 11.203-1.1406 5.1758-24.898 17.25-65.746 17.25-4.2461 0-8.1914-0.19531-12.074-0.43359v-218.54c4.0352 0.22656 8.0547 0.375 12.074 0.375 42.496 0 88.246-12.406 88.246-39.676 0-6.2109-5.0391-11.297-11.25-11.297-6.2109 0-11.25 4.9961-11.25 11.203-1.1406 5.1758-24.898 17.25-65.746 17.25-4.2461 0-8.1914-0.19531-12.074-0.43359v-218.53c4.0352 0.22656 8.0547 0.375 12.074 0.375 42.496 0 88.246-12.422 88.246-39.676 0-6.2109-5.0391-11.297-11.25-11.297-6.2109 0-11.234 4.9961-11.234 11.203-1.1719 5.1602-24.93 17.25-65.762 17.25-4.2461 0-8.1914-0.19531-12.074-0.43359v-218.55c4.0352 0.22656 8.0547 0.375 12.074 0.375 42.496 0 88.246-12.422 88.246-39.676 0-6.2109-5.0391-11.297-11.25-11.297-6.2109 0-11.234 4.9961-11.234 11.203-1.1719 5.1602-24.93 17.25-65.762 17.25-4.2461 0-8.1914-0.19531-12.074-0.43359v-75.914h34.922 0.03125 0.03125 277.5v256.86c0 6.2109 5.0391 11.25 11.25 11.25h353.32v22.711h-418.2c-65.398 0-118.41 53.012-118.41 118.41 0 65.398 53.012 118.41 118.41 118.41h418.2v321.14c0 0.046875-0.03125 0.089844-0.03125 0.14844 0 0.058593 0.03125 0.089843 0.03125 0.14844v30.391zm421.04-805.19 232.98 171.34h-319.04v-234.61zm157.27 390.02c7.3789 0 13.305-0.85547 15.84-2.1133v-29.773h-21.977v-25.141h53.023v75c-9.9141 3.3906-28.727 8.0234-47.535 8.0234-25.965 0-44.773-6.5547-57.871-19.215-13.094-12.254-20.297-30.855-20.07-51.766 0.21094-47.324 34.648-74.371 81.328-74.371 18.391 0 32.535 3.6016 39.512 6.9766l-6.75 25.77c-7.8164-3.375-17.535-6.1211-33.18-6.1211-26.82 0-47.113 15.211-47.113 46.051 0.003906 29.371 18.395 46.68 44.793 46.68zm-85.512-117.87-47.953 142.38h-37.605l-45.629-142.38h35.281l17.324 60.211c4.8594 16.891 9.2852 33.148 12.676 50.91h0.62891c3.6016-17.113 8.0234-34.02 12.887-50.281l18.164-60.84zm-197.7 82.605c-23.672-8.2344-39.074-21.328-39.074-42.047 0-24.301 20.281-42.887 53.863-42.887 16.051 0 27.887 3.3906 36.344 7.1836l-7.1836 25.98c-5.6992-2.7461-15.84-6.75-29.773-6.75s-20.699 6.3281-20.699 13.727c0 9.0898 8.0234 13.109 26.398 20.07 25.156 9.3008 36.977 22.395 36.977 42.465 0 23.879-18.375 44.145-57.465 44.145-16.262 0-32.309-4.2148-40.336-8.6562l6.5547-26.609c8.6562 4.4414 21.977 8.8633 35.699 8.8633 14.789 0 22.605-6.1211 22.605-15.406-0.042969-8.8867-6.793-13.957-23.91-20.078zm428.16 408.64h-23.699v-580.8c0-1.5742-0.44922-3.0742-1.0664-4.5-0.16406-0.35938-0.31641-0.69141-0.52344-1.0352-0.76563-1.3359-1.6953-2.5781-3-3.5391l-364.57-268.11c-1.5312-1.125-3.3438-1.7109-5.2031-1.9492-0.28516-0.046875-0.53906-0.12109-0.82422-0.13672-0.21094-0.015624-0.42188-0.10547-0.62891-0.10547h-277.55l-0.003906-19.273h677.07z"
       id="path2"
       style="fill:#d40055" />
    <path
       d="m899.02 749.91c-12.047 0-22.078 8.1016-25.262 19.125-0.39062-0.058594-0.73438-0.22656-1.1406-0.22656h-188.39c-0.96094 0-1.875 0.22656-2.7148 0.55469l-29.461-29.461c-2.9258-2.9258-7.6797-2.9258-10.605 0l-28.922 28.922h-185.28c-0.40625 0-0.75 0.16406-1.1406 0.22656-3.1797-11.012-13.215-19.125-25.262-19.125-14.578 0-26.398 11.82-26.398 26.398s11.82 26.398 26.398 26.398c12.047 0 22.078-8.1133 25.262-19.141 0.39062 0.058594 0.73438 0.22656 1.1406 0.22656h153.11c-73.816 26.895-124.7 96.691-126.03 177.63l-32.371 32.355c-1.4102 1.4102-2.1914 3.3164-2.1914 5.3086 0 1.9961 0.79688 3.8984 2.1914 5.3086l34.426 34.426c1.4102 1.4102 3.3164 2.1914 5.3086 2.1914 1.9961 0 3.8984-0.79688 5.3086-2.1914l34.41-34.426c2.9258-2.9258 2.9258-7.6797 0-10.605l-32.086-32.086c1.3633-82.441 58.531-152.22 138.27-170.11l33.887 33.887c1.4102 1.4102 3.3164 2.1914 5.3086 2.1914 1.9961 0 3.8984-0.79688 5.3086-2.1914l33.871-33.887c79.801 17.863 136.92 87.523 138.27 170.11l-32.102 32.086c-1.4102 1.4102-2.1914 3.3164-2.1914 5.3086 0 1.9961 0.79688 3.8984 2.1914 5.3086l34.426 34.426c1.4102 1.4102 3.3164 2.1914 5.3086 2.1914 1.9961 0 3.8984-0.79687 5.3086-2.1914l34.41-34.426c2.9258-2.9258 2.9258-7.6797 0-10.605l-32.355-32.355c-1.3359-81.105-52.215-150.8-126.11-177.63h159.52c0.40625 0 0.75-0.16406 1.1406-0.22656 3.1641 11.023 13.215 19.141 25.262 19.141 14.578 0 26.398-11.82 26.398-26.398 0.019531-14.574-11.844-26.438-26.426-26.438zm-437.35 273-23.82-23.82 23.82-23.805 23.805 23.805zm370.17 0-23.82-23.82 23.82-23.805 23.805 23.805zm-185.09-213.33-24.391-24.391c0.58594-1.3047 0.92969-2.7305 0.66016-4.2461-0.058594-0.375-0.28516-0.67578-0.39063-1.0195l24.121-24.121 23.477 23.477c-0.21094 0.52344-0.49609 0.98828-0.60156 1.5742-0.28516 1.7539 0.14844 3.4219 0.97656 4.8594z"
       id="path4"
       style="fill:#d40055" />
  </g>
</svg>
