<?xml version="1.0" encoding="UTF-8" standalone="no"?>
<svg
   width="1200pt"
   height="1200pt"
   version="1.1"
   viewBox="0 0 1200 1200"
   id="svg14"
   sodipodi:docname="txt.svg"
   inkscape:version="1.2.2 (b0a8486541, 2022-12-01)"
   xmlns:inkscape="http://www.inkscape.org/namespaces/inkscape"
   xmlns:sodipodi="http://sodipodi.sourceforge.net/DTD/sodipodi-0.dtd"
   xmlns="http://www.w3.org/2000/svg"
   xmlns:svg="http://www.w3.org/2000/svg">
  <defs
     id="defs18" />
  <sodipodi:namedview
     id="namedview16"
     pagecolor="#ffffff"
     bordercolor="#666666"
     borderopacity="1.0"
     inkscape:showpageshadow="2"
     inkscape:pageopacity="0.0"
     inkscape:pagecheckerboard="0"
     inkscape:deskcolor="#d1d1d1"
     inkscape:document-units="pt"
     showgrid="false"
     inkscape:zoom="0.528125"
     inkscape:cx="699.64497"
     inkscape:cy="799.05325"
     inkscape:window-width="1920"
     inkscape:window-height="1011"
     inkscape:window-x="0"
     inkscape:window-y="32"
     inkscape:window-maximized="1"
     inkscape:current-layer="svg14" />
  <g
     id="g12"
     style="fill:#808080">
    <path
       d="m370.65 923.18h40.23l18.152-135.59 18.883 135.59h40.23l23.535-160.26h12.766v-4.2305h-37.785v4.2305h12.512l-16.922 133.76-19.621-137.99h-40.23l-19.125 137.99-18.629-133.76h12.496v-4.2305h-65.25v4.2305h12.508z"
       id="path2"
       style="fill:#808080" />
    <path
       d="m539.45 829.38h293.13v15h-293.13z"
       id="path4"
       style="fill:#808080" />
    <path
       d="m539.45 915.68h293.13v15h-293.13z"
       id="path6"
       style="fill:#808080" />
    <path
       d="m341.37 1002h491.2v15h-491.2z"
       id="path8"
       style="fill:#808080" />
    <path
       d="m952.89 116.88h-699.57c-6.2109 0-11.25 5.0391-11.25 11.25v30.555h-34.934c-6.2109 0-11.25 5.0391-11.25 11.25v33.703c-33.734 5.7734-53.684 19.125-53.684 36.734 0 19.801 24.18 31.738 53.684 36.797v167.58c-33.734 5.7734-53.684 19.125-53.684 36.734 0 19.801 24.18 31.738 53.684 36.797v167.58c-33.734 5.7734-53.684 19.125-53.684 36.719 0 19.801 24.18 31.738 53.684 36.797v167.59c-33.734 5.7734-53.684 19.125-53.684 36.719 0 19.801 24.18 31.738 53.684 36.797v71.387c0 6.2109 5.0391 11.25 11.25 11.25h699.55c6.2109 0 11.25-5.0391 11.25-11.25v-30.539h34.949c6.2109 0 11.25-5.0391 11.25-11.25v-901.95c0-6.2227-5.0391-11.25-11.25-11.25zm-788.21 123.57c0.55469-2.4297 9.4648-9.6445 31.199-13.996v27.734c-19.316-3.957-30.402-10.406-31.199-13.738zm0 241.11c0.55469-2.4297 9.4648-9.6445 31.199-13.996v27.734c-19.316-3.957-30.402-10.406-31.199-13.738zm0 241.11c0.55469-2.4297 9.4805-9.6445 31.199-13.996v27.719c-19.332-3.9453-30.418-10.395-31.199-13.723zm0 241.11c0.55469-2.4297 9.4805-9.6445 31.199-13.996v27.719c-19.332-3.9297-30.418-10.379-31.199-13.723zm53.715 96.84v-57.629c4.0195 0.22656 8.0547 0.375 12.059 0.375 42.512 0 88.262-12.406 88.262-39.676 0-6.2109-5.0391-11.297-11.25-11.297s-11.25 4.9961-11.25 11.203c-1.1406 5.1602-24.914 17.25-65.762 17.25-4.2461 0-8.1914-0.19531-12.059-0.43359v-218.55c4.0195 0.22656 8.0547 0.375 12.059 0.375 42.512 0 88.262-12.406 88.262-39.676 0-6.2109-5.0391-11.297-11.25-11.297s-11.25 4.9961-11.25 11.203c-1.1406 5.1602-24.914 17.25-65.762 17.25-4.2461 0-8.1914-0.19531-12.059-0.43359v-218.52c4.0195 0.22656 8.0547 0.375 12.059 0.375 42.512 0 88.262-12.422 88.262-39.676 0-6.2109-5.0391-11.297-11.25-11.297s-11.234 4.9961-11.234 11.203c-1.1719 5.1602-24.945 17.25-65.773 17.25-4.2461 0-8.1914-0.19531-12.059-0.43359v-218.55c4.0195 0.22656 8.0547 0.375 12.059 0.375 42.512 0 88.262-12.422 88.262-39.676 0-6.2109-5.0391-11.297-11.25-11.297-6.2109 0-11.234 4.9961-11.234 11.203-1.1719 5.1602-24.945 17.25-65.773 17.25-4.2461 0-8.1914-0.19531-12.059-0.43359v-75.914h34.906 0.03125 0.03125 277.52v256.86c0 6.2109 5.0391 11.25 11.25 11.25h353.31v22.711h-418.18c-65.398 0-118.41 53.012-118.41 118.41 0 65.398 53.012 118.41 118.41 118.41h418.18v321.14c0 0.046875-0.03125 0.089844-0.03125 0.14844 0 0.058593 0.03125 0.089843 0.03125 0.14844v30.391zm427.85-800.16 226.16 166.32h-319.02l-0.003906-234.62zm66.777 294.16v-27.047h109.45v27.047h-38.879v115.34h-32.309v-115.34zm-129.01-27.047h36.977l12.449 25.98c4.2461 8.6719 7.4102 15.629 10.785 23.672h0.43359c3.375-9.0898 6.1211-15.422 9.6914-23.672l12.047-25.98h36.766l-40.141 69.512 42.238 72.871h-37.184l-12.887-25.77c-5.2812-9.9297-8.6406-17.324-12.66-25.559h-0.43359c-2.9531 8.2344-6.5391 15.629-10.98 25.559l-11.836 25.77h-36.734l41.191-72.031zm-121.23 27.047v-27.047h109.45v27.047h-38.879v115.34h-32.309v-115.34zm478.86 464.2h-23.699v-580.8c0-1.5742-0.44922-3.0742-1.0664-4.5-0.16406-0.35938-0.31641-0.69141-0.52344-1.0352-0.76562-1.3359-1.6953-2.5781-3-3.5391l-364.56-268.11c-1.5312-1.125-3.3438-1.7109-5.2031-1.9492-0.28516-0.046875-0.53906-0.12109-0.82422-0.13672-0.21094-0.015624-0.42188-0.10547-0.62891-0.10547h-277.56l-0.007813-19.273h677.07z"
       id="path10"
       style="fill:#808080" />
  </g>
</svg>
