<?xml version="1.0" encoding="UTF-8" standalone="no"?>
<svg
   width="1200pt"
   height="1200pt"
   version="1.1"
   viewBox="0 0 1200 1200"
   id="svg12"
   sodipodi:docname="webp.svg"
   inkscape:version="1.2.2 (b0a8486541, 2022-12-01)"
   xmlns:inkscape="http://www.inkscape.org/namespaces/inkscape"
   xmlns:sodipodi="http://sodipodi.sourceforge.net/DTD/sodipodi-0.dtd"
   xmlns="http://www.w3.org/2000/svg"
   xmlns:svg="http://www.w3.org/2000/svg">
  <defs
     id="defs16">
    <rect
       x="609.39257"
       y="686.02857"
       width="893.49944"
       height="534.90466"
       id="rect517" />
  </defs>
  <sodipodi:namedview
     id="namedview14"
     pagecolor="#ffffff"
     bordercolor="#666666"
     borderopacity="1.0"
     inkscape:showpageshadow="2"
     inkscape:pageopacity="0.0"
     inkscape:pagecheckerboard="0"
     inkscape:deskcolor="#d1d1d1"
     inkscape:document-units="pt"
     showgrid="false"
     inkscape:zoom="0.528125"
     inkscape:cx="699.64497"
     inkscape:cy="799.05325"
     inkscape:window-width="1920"
     inkscape:window-height="1043"
     inkscape:window-x="1920"
     inkscape:window-y="0"
     inkscape:window-maximized="1"
     inkscape:current-layer="g1309" />
  <g
     id="g1309">
    <g
       id="g1889"
       style="fill:#ff00cc">
      <g
         id="g10"
         style="fill-opacity:1;fill:#ff00cc">
        <path
           d="m992.95 116.88h-699.57c-6.2109 0-11.25 5.0391-11.25 11.25v30.555h-34.949c-6.2109 0-11.25 5.0391-11.25 11.25v33.703c-33.719 5.7734-53.684 19.125-53.684 36.734 0 19.801 24.18 31.738 53.684 36.797v167.58c-33.719 5.7734-53.684 19.125-53.684 36.734 0 19.801 24.18 31.738 53.684 36.797v167.58c-33.719 5.7734-53.684 19.125-53.684 36.719 0 19.801 24.18 31.738 53.684 36.797v167.59c-33.719 5.7734-53.684 19.125-53.684 36.719 0 19.801 24.18 31.738 53.684 36.797v71.387c0 6.2109 5.0391 11.25 11.25 11.25h699.57c6.2109 0 11.25-5.0391 11.25-11.25v-30.539h34.949c6.2109 0 11.25-5.0391 11.25-11.25v-901.95c0-6.2227-5.0391-11.25-11.25-11.25zm-788.22 123.57c0.55469-2.4297 9.4805-9.6445 31.199-13.996v27.719c-19.32-3.9414-30.402-10.391-31.199-13.723zm0 241.11c0.55469-2.4297 9.4805-9.6445 31.199-13.996v27.719c-19.32-3.9414-30.402-10.391-31.199-13.723zm0 241.11c0.55469-2.4297 9.4805-9.6445 31.199-13.98v27.719c-19.332-3.9609-30.418-10.41-31.199-13.738zm0 241.11c0.55469-2.4297 9.4805-9.6445 31.199-13.98v27.719c-19.332-3.9609-30.418-10.41-31.199-13.738zm53.699 96.84v-57.629c4.0352 0.22656 8.0547 0.375 12.074 0.375 42.496 0 88.246-12.406 88.246-39.676 0-6.2109-5.0391-11.297-11.25-11.297-6.2109 0-11.25 4.9961-11.25 11.203-1.1406 5.1758-24.898 17.25-65.746 17.25-4.2461 0-8.1914-0.19531-12.074-0.43359v-218.54c4.0352 0.22656 8.0547 0.375 12.074 0.375 42.496 0 88.246-12.406 88.246-39.676 0-6.2109-5.0391-11.297-11.25-11.297-6.2109 0-11.25 4.9961-11.25 11.203-1.1406 5.1758-24.898 17.25-65.746 17.25-4.2461 0-8.1914-0.19531-12.074-0.43359v-218.53c4.0352 0.22656 8.0547 0.375 12.074 0.375 42.496 0 88.246-12.422 88.246-39.676 0-6.2109-5.0391-11.297-11.25-11.297-6.2109 0-11.234 4.9961-11.234 11.203-1.1719 5.1602-24.93 17.25-65.762 17.25-4.2461 0-8.1914-0.19531-12.074-0.43359v-218.55c4.0352 0.22656 8.0547 0.375 12.074 0.375 42.496 0 88.246-12.422 88.246-39.676 0-6.2109-5.0391-11.297-11.25-11.297-6.2109 0-11.234 4.9961-11.234 11.203-1.1719 5.1602-24.93 17.25-65.762 17.25-4.2461 0-8.1914-0.19531-12.074-0.43359v-75.914h34.922 0.03125 0.03125 277.5v256.86c0 6.2109 5.0391 11.25 11.25 11.25h353.32v22.711h-418.2c-65.398 0-118.41 53.012-118.41 118.41 0 65.398 53.012 118.41 118.41 118.41h418.2v321.14c0 0.046875-0.03125 0.089844-0.03125 0.14844 0 0.058593 0.03125 0.089843 0.03125 0.14844v30.391zm421.05-805.19 232.98 171.34h-319.04v-234.61zm189.59 390.02c7.3789 0 13.305-0.85547 15.84-2.1133v-29.773h-21.977v-25.141h53.023v75c-9.9141 3.3906-28.727 8.0234-47.535 8.0234-25.965 0-44.773-6.5547-57.871-19.215-13.094-12.254-20.297-30.855-20.07-51.766 0.21094-47.324 34.648-74.371 81.328-74.371 18.391 0 32.535 3.6016 39.512 6.9766l-6.75 25.77c-7.8164-3.375-17.535-6.1211-33.18-6.1211-26.82 0-47.113 15.211-47.113 46.051 0.003906 29.371 18.395 46.68 44.793 46.68zm-188.18-18.359v42.871h-29.578v-142.38h37.605l29.578 52.184c8.4453 15 16.906 32.73 23.234 48.797h0.64453c-2.1289-18.809-2.7617-38.023-2.7617-59.371v-41.625h29.578v142.38h-33.797l-30.422-54.914c-8.4453-15.211-17.746-33.602-24.703-50.281l-0.64453 0.21094c0.83203 18.809 1.2656 38.879 1.2656 62.129zm-50.023-56.203c0 13.949-4.6484 25.77-13.094 33.797-10.98 10.352-27.254 15-46.273 15-4.2148 0-8.0234-0.22656-10.965-0.62891v50.91h-31.906v-140.48c9.9297-1.6953 23.879-2.9531 43.516-2.9531 19.844 0 34.02 3.7969 43.516 11.414 9.0703 7.1641 15.207 19 15.207 32.938zm350.83 447.94h-23.699v-580.8c0-1.5742-0.44922-3.0742-1.0664-4.5-0.16406-0.35938-0.31641-0.69141-0.52344-1.0352-0.76562-1.3359-1.6953-2.5781-3-3.5391l-364.57-268.11c-1.5312-1.125-3.3438-1.7109-5.2188-1.9492-0.28516-0.046875-0.53906-0.12109-0.82422-0.13672-0.21094-0.015624-0.42188-0.10547-0.62891-0.10547h-277.55v-19.273h677.07v879.45z"
           id="path2"
           style="fill-opacity:1;fill:#ff00cc" />
        <path
           d="m560.52 594.12c2.7461 0.62891 6.1211 0.83984 10.77 0.83984 17.113 0 27.676-8.6562 27.676-23.234 0-13.109-9.0742-20.926-25.141-20.926-6.5547 0-10.98 0.62891-13.305 1.2617z"
           id="path4"
           style="fill-opacity:1;fill:#ff00cc" />
        <path
           d="m613.92 798.66c-30.84 0-55.934 25.094-55.934 55.934s25.094 55.934 55.934 55.934 55.922-25.094 55.922-55.934c-0.003906-30.84-25.098-55.934-55.922-55.934zm0 89.355c-18.434 0-33.434-15-33.434-33.434 0-18.434 15-33.434 33.434-33.434s33.422 15 33.422 33.434c-0.003906 18.434-15.004 33.434-33.422 33.434z"
           id="path6"
           style="fill-opacity:1;fill:#ff00cc" />
        <path
           d="m880.45 757h-449.95c-6.2109 0-11.25 5.0391-11.25 11.25v241.44c0 0.074219 0.046875 0.14844 0.046875 0.22656 0.015625 0.88672 0.30078 1.7109 0.52344 2.5664 0.14844 0.57031 0.16406 1.1836 0.40625 1.7109 0.25391 0.57031 0.70313 1.0195 1.0508 1.5469 0.46484 0.70312 0.85547 1.4414 1.4531 2.0234 0.058593 0.058594 0.074219 0.14844 0.14844 0.21094 0.46484 0.42188 1.0352 0.60156 1.5469 0.94531 0.66016 0.43359 1.2617 0.91406 1.9961 1.2148 0.83984 0.32812 1.7109 0.40625 2.5938 0.52344 0.51172 0.074219 0.96094 0.30078 1.5 0.30078 0.074219 0 0.13672-0.046875 0.21094-0.046875 0.91406-0.015625 1.7852-0.30078 2.6562-0.53906 0.53906-0.14844 1.125-0.16406 1.6211-0.39062 0.55469-0.23828 1.0195-0.70312 1.5469-1.0352 0.70312-0.46484 1.4414-0.85547 2.0234-1.4688 0.058593-0.058594 0.14844-0.089844 0.21094-0.14844l78.09-84.734 119.3 68.07c5.2969 3.0469 12 1.2734 15.18-3.8984l104.97-171.29 114.51 190.02c0.32812 0.53906 0.89844 0.78125 1.2891 1.2461 0.34375 0.39062 0.70312 0.71875 1.0938 1.0508 2.0703 1.8438 4.5312 3.1484 7.2734 3.1484 1.9805 0 3.9766-0.51172 5.7891-1.6055 2.1016-1.2617 3.4336-3.1641 4.3359-5.25 0.089844-0.21094 0.19531-0.39062 0.28516-0.60156 0.34375-0.96094 0.52344-1.9336 0.60156-2.9688 0.046875-0.39062 0.22656-0.73438 0.22656-1.1406l-0.007812-241.13c-0.015625-6.207-5.0547-11.25-11.266-11.25zm-124.02 35.551h-0.046875c-3.9141 0-7.5469 2.0391-9.6016 5.3711l-108.95 177.78-117.6-67.109c-4.5742-2.5938-10.289-1.7109-13.859 2.1445l-64.648 70.141 0.003906-201.38h427.45v189.72l-103.18-171.23c-2.0078-3.3555-5.6523-5.4258-9.5703-5.4414z"
           id="path8"
           style="fill-opacity:1;fill:#ff00cc" />
      </g>
      <rect
         style="fill:#ff00cc;stroke:none;stroke-width:0.9"
         id="rect461"
         width="440.2977"
         height="177.1638"
         x="485.08585"
         y="498.77631" />
    </g>
    <text
       xml:space="preserve"
       transform="matrix(0.75,0,0,0.92152093,32.786145,-371.84547)"
       id="text515"
       style="font-size:200px;line-height:1.25;font-family:Roboto;-inkscape-font-specification:'Roboto, Normal';text-decoration-color:#000000;letter-spacing:0px;word-spacing:0px;white-space:pre;shape-inside:url(#rect517);display:inline;fill:#000000;stroke-width:0.902148;-inkscape-stroke:none;stop-color:#000000"><tspan
         x="609.39258"
         y="861.0293"
         id="tspan1907"><tspan
           style="font-weight:bold;-inkscape-font-specification:'Roboto Bold';fill:#ffffff"
           id="tspan1905">
</tspan></tspan><tspan
         x="609.39258"
         y="1111.0293"
         id="tspan1911"><tspan
           style="font-weight:bold;-inkscape-font-specification:'Roboto Bold';fill:#ffffff"
           id="tspan1909">WEBP</tspan></tspan></text>
  </g>
</svg>
