<?xml version="1.0" encoding="UTF-8" standalone="no"?>
<svg
   xmlns:dc="http://purl.org/dc/elements/1.1/"
   xmlns:cc="http://creativecommons.org/ns#"
   xmlns:rdf="http://www.w3.org/1999/02/22-rdf-syntax-ns#"
   xmlns:svg="http://www.w3.org/2000/svg"
   xmlns="http://www.w3.org/2000/svg"
   xmlns:sodipodi="http://sodipodi.sourceforge.net/DTD/sodipodi-0.dtd"
   xmlns:inkscape="http://www.inkscape.org/namespaces/inkscape"
   version="1.1"
   x="0px"
   y="0px"
   viewBox="0 0 315.00467 122.97207"
   enable-background="new 0 0 100 100"
   xml:space="preserve"
   id="svg4"
   sodipodi:docname="intestin.svg"
   width="315.00467"
   height="122.97207"
   inkscape:version="0.92.1 r15371"><metadata
     id="metadata10"><rdf:RDF><cc:Work
         rdf:about=""><dc:format>image/svg+xml</dc:format><dc:type
           rdf:resource="http://purl.org/dc/dcmitype/StillImage" /><dc:title></dc:title></cc:Work></rdf:RDF></metadata><defs
     id="defs8" /><sodipodi:namedview
     pagecolor="#ffffff"
     bordercolor="#666666"
     borderopacity="1"
     objecttolerance="10"
     gridtolerance="10"
     guidetolerance="10"
     inkscape:pageopacity="0"
     inkscape:pageshadow="2"
     inkscape:window-width="1920"
     inkscape:window-height="986"
     id="namedview6"
     showgrid="false"
     fit-margin-top="0"
     fit-margin-left="0"
     fit-margin-right="0"
     fit-margin-bottom="0"
     inkscape:zoom="2.36"
     inkscape:cx="106.8655"
     inkscape:cy="37.545026"
     inkscape:window-x="-11"
     inkscape:window-y="-11"
     inkscape:window-maximized="1"
     inkscape:current-layer="svg4" /><path
     d="m 127.07562,109.0142 c -0.47249,-0.22108 -1.11996,-0.60593 -1.94593,-1.15781 -1.41395,-0.8827 -2.5374,-1.73918 -3.36338,-2.5662 -1.06045,-0.93673 -1.76743,-1.84726 -2.12092,-2.73159 -0.35348,-0.88269 -0.23449,-1.3789 0.35349,-1.48862 0.47248,-0.0557 1.23895,0.24728 2.30292,0.91053 1.41394,0.93837 2.53389,1.6835 3.35987,2.23375 1.65194,1.04973 3.48237,2.06999 5.4878,3.0624 3.41936,1.76538 7.31472,3.0362 11.67906,3.80753 2.5969,0.38485 5.13081,0.57973 7.60873,0.57973 l 3.18487,0.0835 0.71047,0.16704 -0.35698,0.24728 c -1.29845,0.44216 -2.35891,0.71729 -3.18488,0.82701 -2.47791,0.44217 -5.5438,0.49785 -9.20117,0.16704 -5.1973,-0.49948 -10.03062,-1.87838 -14.51395,-4.14161 z M 103.007,36.59746 c 0,-2.594033 0.29399,-4.718061 0.88547,-6.373722 0.23799,-0.661609 0.47249,-1.021892 0.71048,-1.075934 0.23449,0.109722 0.47248,0.468367 0.70697,1.075934 0.59148,1.103774 1.35795,3.198324 2.29941,6.290202 0.71048,2.592395 1.29846,4.772102 1.77094,6.537486 0.70697,3.199962 1.17946,6.427764 1.41745,9.683406 0,5.35183 -1.06396,9.904488 -3.18839,13.656337 l -3.00638,3.972931 -2.30292,1.986466 -2.12092,1.324856 c 0.35349,1.434579 0.64748,3.421044 0.88547,5.961035 0.94496,8.717194 2.12092,14.868195 3.53837,18.45628 0.23449,0.717289 1.06046,2.345113 2.4779,4.881823 l 1.23896,2.31727 1.94593,2.06999 c 2.47791,2.42699 5.90078,4.5805 10.26512,6.4556 5.1903,2.15023 10.38061,3.53077 15.57092,4.1367 9.55465,1.38053 18.8748,0.96621 27.96046,-1.24134 l 2.83139,-0.82701 1.41745,-0.33244 3.35988,-1.48862 1.94942,-1.15946 c 2.12093,-1.32485 4.01087,-3.06076 5.6628,-5.21427 2.23991,-2.97888 3.65736,-6.59316 4.24534,-10.841217 0.35699,-2.426993 0.41299,-5.710475 0.1785,-9.850446 -0.23449,-3.972931 -1.00447,-9.185561 -2.29942,-15.642803 l -1.94592,-10.677457 c -0.71049,-4.744263 -0.82598,-8.222625 -0.3535,-10.426898 l 0.52848,-1.821063 c 0.23799,0.109722 0.53198,0.717289 0.88547,1.821063 l 7.25523,20.855433 c 1.77094,5.46319 3.00639,10.7315 3.71686,15.808205 0.11897,0.550249 0.23799,1.102136 0.35699,1.655661 1.06046,0.496207 2.47792,1.157816 4.24535,1.984828 6.96124,2.869157 14.15697,4.496978 21.5872,4.883463 8.37869,0.496207 15.86841,-0.386485 22.47266,-2.648075 3.65737,-1.213497 6.48876,-2.456471 8.49419,-3.724009 3.65386,-2.263228 6.31027,-4.965345 7.96221,-8.111265 l 0.88547,-3.889411 c -0.2345,-1.434579 -0.58799,-2.785638 -1.06047,-4.056452 l -1.94592,-7.69694 c -0.2345,-1.655661 -0.29399,-2.896997 -0.1785,-3.724009 l 0.53199,-1.902945 1.06395,-1.241337 1.23896,-0.745129 c 2.71589,-1.819426 6.72675,-3.006719 12.03255,-3.558606 2.7124,-0.330805 6.31026,-0.497845 10.79361,-0.497845 4.48333,0.109722 9.61763,0.414325 15.39592,0.910532 l 14.33197,1.159453 c 1.41746,0.109723 2.24342,0.221083 2.47791,0.330805 l -2.47791,0.330805 c -2.83139,0.330804 -7.78371,0.414324 -14.86394,0.247284 h -14.86746 c -8.49418,0.221083 -14.03798,1.269177 -16.63488,3.14592 l -0.70697,0.496207 -0.1785,0.248922 0.35699,4.469139 3.71686,11.753391 v 1.406739 l -1.06396,3.722371 c -1.88643,3.863209 -5.07132,7.145053 -9.55465,9.850446 -2.5969,1.601618 -6.19477,3.116442 -10.79359,4.55102 -2.47792,0.71729 -4.42384,1.213497 -5.83779,1.490259 l -5.13432,0.827012 -1.94592,0.16704 c -3.30388,0.330804 -5.83779,0.496207 -7.60872,0.496207 h -4.07035 l -3.89186,-0.329167 c -4.60233,-0.386485 -9.37964,-1.269177 -14.33546,-2.649713 -4.48334,-1.542663 -7.66472,-2.9232 -9.55464,-4.136696 -0.2345,-0.11136 -0.4725,-0.247285 -0.70698,-0.414325 0.11548,1.821064 0.0595,3.642127 -0.175,5.461553 -0.71047,4.80158 -2.18392,8.77287 -4.42383,11.91879 -1.53295,2.31727 -3.71686,4.41346 -6.54826,6.2902 l -4.07035,2.23375 -3.18488,1.3265 -5.4878,1.5705 c -5.07131,1.26918 -10.55911,2.04215 -16.45639,2.31727 -6.36976,0.33244 -12.50504,0.0557 -18.40581,-0.82701 -6.36977,-0.71729 -12.62053,-2.42699 -18.75581,-5.13075 -5.4248,-2.42699 -9.43565,-5.04886 -12.03256,-7.86398 l -3.36337,-5.13074 c -1.179457,-2.92484 -1.826933,-4.664022 -1.945928,-5.215909 -1.65194,-5.571275 -2.005426,-11.917157 -1.063961,-19.03437 0.237991,-1.601618 0.472482,-2.980517 0.710474,-4.138333 -4.483334,2.040508 -10.265121,3.365364 -17.341859,3.972931 -3.77636,0.330805 -8.0812,0.442165 -12.918022,0.330805 -4.955817,-0.109723 -13.331006,-0.607567 -25.12907,-1.490259 -10.265119,-0.661609 -18.048831,-0.827012 -23.358135,-0.496207 -2.005426,0.109722 -4.483335,0.358645 -7.433726,0.743492 -1.8864303,0.221082 -2.9468913,0.276762 -3.1848813,0.16704 -0.353487,-0.221083 0.293989,-0.66161 1.945927,-1.324857 2.0054263,-0.717289 4.5428333,-1.324856 7.6087193,-1.819425 5.428299,-0.882692 13.859487,-1.159454 25.304064,-0.82865 15.098441,0.551887 23.239139,0.82865 24.422096,0.82865 5.190308,0.05404 8.903671,-0.08352 11.147087,-0.414325 6.135274,-0.497845 10.912597,-1.711341 14.33547,-3.643764 l 2.477909,-1.405101 1.770934,-1.572141 2.831396,-3.393204 c 2.005426,-3.199962 3.244376,-7.366136 3.716866,-12.498521 0.22749,-4.911303 0.22749,-10.261496 -0.0105,-16.053852 z M 80.534338,23.104888 c -0.587979,0 -1.000964,-0.414325 -1.238955,-1.242974 -0.353486,-0.881054 -0.353486,-1.819426 0,-2.813478 0.472483,-1.378898 1.595941,-2.702117 3.363376,-3.972931 3.184883,-2.040508 7.493222,-3.504564 12.918021,-4.387256 3.184883,-0.496207 5.83778,-0.7434914 7.96221,-0.7434914 2.35891,-0.05568 3.65386,0.02784 3.89185,0.2472844 -0.11899,0.221083 -1.17945,0.551887 -3.18488,0.992414 l -6.901744,1.488621 c -4.598831,1.213496 -7.962206,2.510513 -10.086628,3.891049 -1.532942,0.936734 -2.712399,1.956988 -3.538368,3.0624 -0.706974,1.102136 -1.238955,1.876743 -1.592442,2.31727 -0.591477,0.720565 -1.119958,1.105412 -1.59244,1.161092 z M 24.263419,57.038568 C 16.476208,56.707763 10.634923,56.570201 6.7430677,56.624243 c -0.353487,0 -1.945928,0.05568 -4.777323,0.16704 -1.17945701,0.05404 -1.83043301,0.02784 -1.94942801,-0.08352 -0.118996,-0.11136 0.412984,-0.304602 1.59244101,-0.579727 1.298452,-0.275125 2.890893,-0.524047 4.777323,-0.745129 C 10.631424,54.8867 16.651202,54.693458 24.434914,54.80318 c 2.477908,0 6.429261,0.02784 11.85756,0.08352 4.955817,-0.05568 9.201161,-0.193242 12.739529,-0.414325 5.190308,-0.330804 8.847672,-1.021891 10.972093,-2.069985 2.239917,-0.938372 3.657366,-2.675915 4.245344,-5.214268 0.591478,-2.538353 0,-6.925609 -1.767435,-13.16013 l -0.531981,-1.737544 c 0,-0.717289 -0.05949,-1.269176 -0.174993,-1.657298 l -0.178493,-3.144282 c -0.119,-2.042146 -0.119,-3.972931 0,-5.793994 0.353486,-3.475087 1.238954,-6.511284 2.652902,-9.103679 0.825969,-1.545939 1.770935,-2.8691574 2.834895,-3.9745694 2.005426,-2.040508 4.483334,-3.724009 7.433724,-5.047228 3.184883,-1.380536 7.017242,-2.40079 11.504075,-3.06239898 6.254269,-0.77297 14.037976,-0.66161 23.358136,0.330804 8.96666,1.15781698 15.51142,2.59239498 19.64127,4.30373598 5.1903,2.040508 9.26066,4.634541 12.21105,7.7788234 2.35892,2.761072 3.95136,5.961034 4.77732,9.601523 1.65194,-1.765383 3.95136,-3.339162 6.90175,-4.71806 3.77286,-1.821064 8.25619,-3.14592 13.4465,-3.972932 4.83681,-0.827011 10.20563,-1.159453 16.1064,-0.992414 4.48333,0.16704 9.08217,0.68945 13.79999,1.572141 5.3093,1.103774 9.43915,2.482673 12.38955,4.136696 5.0713,2.594033 8.78816,5.903717 11.14707,9.932328 1.65195,2.97888 2.65641,6.069119 3.00989,9.269081 l 0.35349,3.972932 c 0.35349,-0.221083 0.82247,-0.496207 1.41395,-0.82865 l 2.8314,-1.405101 c 4.71782,-1.765383 9.32015,-2.952677 13.79998,-3.560244 2.71591,-0.442165 5.13432,-0.717289 7.25874,-0.827012 6.96124,-0.497844 14.33197,-0.579727 22.11918,-0.247284 l 43.1779,2.896997 1.23896,0.330805 c 0,0.109722 -0.41299,0.247284 -1.23896,0.414324 -2.4779,0.330805 -5.07131,0.551887 -7.78721,0.66161 -4.71782,0.275124 -11.38508,0.330804 -19.99476,0.165402 l -15.92441,-0.330805 c -6.60776,-0.165402 -13.33451,-0.02784 -20.17325,0.414325 -6.72326,0.330805 -12.62403,1.297016 -17.69535,2.896997 l -2.6529,0.992414 c -1.53294,0.553525 -2.35892,0.882692 -2.47791,0.994052 -1.64844,0.717289 -2.88739,1.295379 -3.71686,1.737543 0.23799,1.655661 0.23799,3.835369 0,6.539124 l -1.06047,10.67582 c -0.59147,3.586447 -0.88196,6.015077 -0.88196,7.284253 -0.11896,3.199962 -0.41298,5.517232 -0.88547,6.951811 l -0.71398,1.244612 -0.70697,-1.157817 c -0.70697,-1.434578 -1.47344,-3.781326 -2.29941,-7.035331 -0.23449,-0.772969 -0.41298,-1.876743 -0.53198,-3.309684 -0.2345,-2.48431 -0.35348,-3.835369 -0.35348,-4.056451 l -1.94594,-25.077286 c -0.70697,-3.476725 -1.71143,-6.316404 -3.00638,-8.523952 -2.12443,-3.422682 -5.13432,-6.124799 -9.02617,-8.111265 -2.12442,-1.269176 -5.24981,-2.34511 -9.37966,-3.227802 -3.30038,-0.772969 -6.95773,-1.269176 -10.96859,-1.490258 -4.60232,-0.276763 -8.90717,-0.109723 -12.91802,0.497844 -3.89186,0.442165 -7.66821,1.378899 -11.32558,2.813478 -2.5969,0.992414 -5.07481,2.34511 -7.43372,4.056451 -1.06046,0.827011 -2.12442,1.848903 -3.18489,3.062399 0,0.661609 0,1.295379 0,1.902946 0,2.096188 -0.17848,4.469138 -0.52848,7.118851 -0.35348,2.923199 -0.65097,5.076705 -0.88545,6.453966 l -0.1785,21.105993 c 0.47248,7.06317 0.76647,11.890953 0.88546,14.484986 0.35349,5.792357 0.41299,10.426897 0.17849,13.903622 l -0.35348,2.40079 -1.06396,-2.40079 c -0.35348,-1.103774 -1.47344,-5.738315 -3.35987,-13.903622 -0.47249,-2.594033 -1.35795,-7.421816 -2.6529,-14.484986 -0.94498,-5.019388 -1.29846,-12.138239 -1.06397,-21.353278 0.58798,-6.676686 0.82597,-11.145824 0.70698,-13.409052 -0.23449,-5.902079 -2.06493,-10.757702 -5.48431,-14.566869 -2.2434,-2.426992 -5.48778,-4.4412984 -9.73314,-6.0412794 -3.30387,-1.378898 -8.67267,-2.510512 -16.10289,-3.391566 -7.314734,-0.882692 -13.506005,-0.994052 -18.580817,-0.332443 -5.897282,0.77297 -10.205623,2.703755 -12.918023,5.7939954 -0.944964,0.938371 -1.767434,2.012668 -2.477908,3.227802 -1.298452,1.986465 -2.120921,4.71806 -2.477907,8.193147 -0.237992,1.159454 -0.356988,3.008357 -0.356988,5.546709 l 0.178494,4.718061 0.178494,0.330805 v 0.247284 l 0.174993,0.82865 c 0.825968,3.365364 1.298451,5.628592 1.413947,6.788046 0.353487,2.702117 0.237991,5.130748 -0.353487,7.282616 -1.179456,3.254004 -3.482371,5.654794 -6.901745,7.199095 -3.422873,1.434579 -8.434688,2.31727 -15.042443,2.648075 -4.129847,0.165402 -8.728677,0.165402 -13.799989,0 -5.4283,-0.22272 -9.379653,-0.360282 -11.857562,-0.415962 z"
     id="path2"
     inkscape:connector-curvature="0"
     style="clip-rule:evenodd;fill-rule:evenodd;stroke-width:2.3940661" /></svg>