<svg height='100px' width='100px'  fill="#000000" xmlns="http://www.w3.org/2000/svg" xmlns:xlink="http://www.w3.org/1999/xlink" version="1.1" x="0px" y="0px" viewBox="0 0 100 100" style="enable-background:new 0 0 100 100;" xml:space="preserve"><g><path d="M98.2,19.4c-1.7-1.2-5.1,0.5-6.1,1.9L78.4,40.7l6.3,4.5l13.7-19.5C99.4,24.3,99.9,20.6,98.2,19.4z"></path><path d="M62.1,63.8C61.3,65,58.8,71,59.7,73c-0.1,0-0.1,0.1-0.1,0.1c-0.4,0.5-0.7,1-1.1,1.5c-0.5,0.7,0.6,1.4,1,0.7   c0.4-0.5,0.7-1,1.1-1.5c0-0.1,0.1-0.1,0.1-0.2c2.2,0.1,7-4.2,7.8-5.4l15.4-21.8l-6.3-4.5L62.1,63.8z"></path></g><path d="M57.7,76.7c-0.1-0.4-0.4-0.6-0.8-0.5c-1.4,0.4-3.4,0.3-4.4-1.1c0-0.1-0.1-0.1-0.1-0.2c1.3-1.9,1.7-3.4,1.2-4.6  c-0.1-0.1-0.2-0.3-0.4-0.3c-0.2-0.1-0.4,0-0.5,0c-1.6,0.9-2.4,2.8-1.8,4.6c-0.6,0.8-1.2,1.6-1.9,2.2c-1.1,1-4.1,3.4-7,2.8  c-2.7-0.6-4.1-3.2-4.2-7.8c1-0.4,2-0.9,2.8-1.5c1.9-1.4,3.1-3.6,3.4-5.9c0.2-1.6,0.2-4.7-1.6-5.3c-2.2-0.7-3.9,2.6-4.5,4  c-0.8,2-1.3,4.2-1.4,7.2c0,0.2,0,0.3,0,0.5c-2.2,0.6-4.7,0.8-5.5,0.1c-0.2-0.2-0.3-0.4-0.2-0.8c0-0.3-0.1-0.6-0.5-0.7  c-0.3-0.1-0.7,0.1-0.8,0.4c-0.5,1.3-1.4,2.4-2.5,3.1c-0.5,0.3-1,0.4-1.5,0.6c-0.4,0.1-0.7,0.2-1.1,0.4c-0.9,0.4-1.1,1-1.3,1.7L23,76  c-0.1,0.5-0.4,0.8-0.8,1c-0.6,0.2-1.3,0.2-1.9-0.2c-1-0.5-1.7-1.5-2-2.7c3-2.7,4.9-6.2,5-9.8c0.1-1.6-0.2-2.6-0.8-2.9  c-0.4-0.2-0.9-0.1-1.5,0.3c-1.4,1-2.5,2.9-3.4,5.5c-0.8,2.5-1.1,4.6-0.8,6.3c-0.4,0.3-0.7,0.5-1,0.7c-3.7,2.4-8.4,3.5-14.5,3.3  c-0.4,0-0.6,0.3-0.7,0.6c0,0.4,0.3,0.7,0.6,0.7c6.4,0.2,11.3-0.9,15.2-3.5c0.2-0.2,0.5-0.3,0.7-0.5c0.6,1.6,1.9,3.3,3.9,3.4  c0.9,0.1,1.8-0.1,2.3-0.6c0.3-0.3,0.5-0.6,0.7-1c0.1-0.2,0.1-0.3,0.1-0.5c0-0.1,0-0.2,0.1-0.3c0.3-0.5,0.9-0.9,1.5-1  c1.8-0.5,3.2-1.6,4.2-3.2c0.8,0.8,2.4,0.9,3.6,0.9c1,0,1.9-0.1,2.9-0.4c0.1,2.6,0.7,5.8,2.7,7.5c1,0.9,2.2,1.3,3.6,1.3  c0.2,0,0.4,0,0.6,0c3.3-0.3,6-2.6,7.3-4c0.3-0.4,0.6-0.7,0.9-1c1.4,1.7,3.9,2,5.8,1.5C57.6,77.4,57.8,77.1,57.7,76.7z M41.7,60.5  c0,0,0.1,0,0.1,0c0.3,0.1,0.5,0.3,0.6,0.7c0.1,0.4,0.2,0.9,0.3,1.4c0.1,1-0.1,2-0.4,3c-0.7,2.1-2.3,3.8-4.4,4.7c0,0-0.1,0-0.1,0.1  c0-1,0.2-2,0.3-3.1c0.4-2.6,1.2-4.6,2.4-6.1C40.8,60.8,41.3,60.5,41.7,60.5z M18.4,69.3L18.4,69.3c0.3-1.3,0.7-2.4,1.1-3.4l0.1-0.2  c0.4-0.8,1.1-2.3,1.7-2.6c0.1,0,0.2-0.1,0.3-0.1c0.1,0,0.1,0,0.2,0c0.1,0.1,0.4,0.6-0.1,2.7c-0.2,1.2-0.7,2.3-1.3,3.4  c-0.6,1.2-1.5,2.3-2.5,3.3C18,71.3,18.2,70.1,18.4,69.3z"></path></svg>