<svg xmlns="http://www.w3.org/2000/svg" xmlns:xlink="http://www.w3.org/1999/xlink" version="1.1" x="0px" y="0px" viewBox="0 0 100 100" style="enable-background:new 0 0 100 100;" xml:space="preserve"><g><path d="M72.1,41.6c-2.5-3-5.9-5.2-9.5-6c0,0,0,0,0,0c-2.3-2.7-5.7-4.2-9.3-4.2c-3.2,0-6.2,1.2-8.5,3.4c-1.5-1.2-3.3-1.8-5.2-1.8   c-3.8,0-7,2.5-8.1,5.9h0c-7,0-12.7,5.6-12.7,12.6c0,6.9,5.7,12.6,12.7,12.6h6.8c0.9,1.2,2.1,2.2,3.6,2.9c1.5,0.6,3.3,1,5.1,1   c2.7,0,5.6-0.7,7.8-2c1.3,4.1,5.1,6.2,8.5,6.2c0.2,0,0.4,0,0.7,0c3.2-0.3,6.9-2.6,7.2-8.2c1.4-0.2,2.7-0.7,3.9-1.3c0,0,0,0,0.1,0   c0.2-0.1,0.3-0.2,0.5-0.3c3.2-2,5.3-5.6,5.3-9.6C80.9,47.3,77.1,42.8,72.1,41.6z M78.4,55.6c0-1.1-0.3-2.1-0.6-3.1   c-0.9-2.2-2.9-4.3-6.1-4.5c0,0,0,0-0.1,0c0,0-1.7-0.1-3.8-3c-0.3-0.4-1-0.5-1.4-0.2c-0.4,0.3-0.5,1-0.2,1.4c0.7,0.9,1.4,1.7,2,2.2   c-6.3,1.7-9.2,1.1-10.6,0.2c-0.8-0.5-1.3-1.3-1.5-2.3c-0.1-0.5-0.6-0.9-1.2-0.8c-0.5,0.1-0.9,0.6-0.8,1.2c0.3,1.6,1.1,2.9,2.4,3.7   c1.1,0.7,2.6,1.1,4.3,1.1c-0.7,0.9-1.2,2.1-1.2,3.7c0,0.6,0.4,1,1,1s1-0.4,1-1c0-3.2,3.1-3.9,3.2-3.9c0,0,0,0,0,0   c1.2-0.2,2.6-0.5,4-0.9c4.7-1.3,6.5,1.6,7,2.9c1.1,2.8,0.4,6.2-1.6,7.4c-1.4,0.8-3.1,1.3-4.8,1.3h-5.1c-0.6,0-1,0.4-1,1s0.4,1,1,1   h4.8c-0.3,4.1-2.9,5.8-5.3,6c-2.9,0.2-6.4-1.6-7.3-5.4c0.1-0.1,0.2-0.2,0.3-0.3c5.1-4.9,8.2-5.7,11.9-3.3c0.5,0.3,1.1,0.2,1.4-0.3   c0.3-0.5,0.2-1.1-0.3-1.4c-1.5-1-2.9-1.5-4.3-1.6c0.5-0.7,0.8-1.5,0.8-2.5c0-0.6-0.4-1-1-1c-0.6,0-1,0.4-1,1   c-0.1,2-2.5,3.1-2.5,3.2c0,0,0,0,0,0c-2.1,0.8-4.2,2.5-6.4,4.6c-0.2,0.2-0.4,0.3-0.6,0.5c0,0,0,0,0,0c-3.1,2.4-8.6,3.2-12.2,1.7   c-1.8-0.8-3.9-2.5-3.9-6.2c0-2.7,0.8-4.6,2.4-5.8c0.4-0.3,0.8-0.5,1.3-0.7c0.2-0.1,0.4-0.1,0.6-0.3c4.2-1.4,10.1,0.3,10.1,0.3   c0.5,0.2,1.1-0.1,1.2-0.7s-0.1-1.1-0.7-1.2c-0.2-0.1-3.8-1.1-7.6-0.9c0.1-0.2,0.2-0.3,0.2-0.5c0.2-0.8,0.3-2-0.8-3.5   c-0.3-0.4-1-0.5-1.4-0.2c-0.4,0.3-0.5,1-0.2,1.4c0.7,0.9,0.6,1.4,0.5,1.6c-0.3,0.8-1.4,1.5-2.3,1.9c-0.2,0.1-0.3,0.1-0.5,0.2   c0,0,0,0-0.1,0c0,0-0.1,0-0.1,0c-0.6,0.3-1.1,0.5-1.6,0.9c-2.2,1.6-3.2,4.1-3.2,7.4c0,1.1,0.2,2.2,0.5,3.1h-5.8   c-5.9,0-10.7-4.7-10.7-10.6c0-5.7,4.6-10.4,10.4-10.6c0,0.1,0,0.3,0,0.4c0,0.4,0,0.7,0.1,1.1c0.1,0.5,0.5,0.9,1,0.9   c0,0,0.1,0,0.1,0c0.5-0.1,0.9-0.6,0.9-1.1c0-0.3-0.1-0.5-0.1-0.8c0-3.5,2.9-6.4,6.4-6.4c2.4,0,4.6,1.3,5.7,3.4   c0.3,0.5,0.9,0.7,1.4,0.4c0.5-0.3,0.7-0.9,0.4-1.4c-0.2-0.5-0.5-0.9-0.8-1.3c1.9-1.8,4.4-2.8,7.1-2.8c2.1,0,4.2,0.7,5.9,1.9   c-1.2,0-2.5,0.2-3.6,0.5c-0.5,0.1-0.9,0.7-0.7,1.2s0.7,0.9,1.2,0.7c1.1-0.3,2.2-0.4,3.4-0.4c3.4,0,6.9,1.5,9.6,4   c-0.5,0-0.9,0.5-0.9,1c0,0.6,0.4,1,1,1h0.3c5.2,0,9.5,4.2,9.5,9.4C78.9,53.7,78.7,54.7,78.4,55.6z"></path><path d="M37.3,49.4c-2.3-0.8-1.8-3.4-1.7-3.7c0.1-0.5-0.2-1.1-0.7-1.2c-0.5-0.1-1.1,0.2-1.2,0.7c-0.1,0.6-0.2,1.5-0.1,2.4   c-1.8,0.2-4.4,1.2-5.6,4.2c-1.8-0.3-3.4,0.3-3.5,0.3c-0.5,0.2-0.8,0.8-0.5,1.3c0.2,0.5,0.8,0.8,1.3,0.5c0,0,1.6-0.7,3,0   c0.8,0.4,1.4,1.1,1.8,2.2c0.1,0.4,0.5,0.7,0.9,0.7c0.1,0,0.2,0,0.3-0.1c0.5-0.2,0.8-0.7,0.6-1.3c-0.5-1.3-1.2-2.3-2.1-3   c1.2-3,3.9-3,4.5-3c0.5,0.7,1.2,1.3,2.3,1.7c0.1,0,0.2,0.1,0.3,0.1c0.4,0,0.8-0.3,0.9-0.7C38.1,50.2,37.8,49.6,37.3,49.4z"></path><path d="M61.7,40.9c-0.1,0-0.9,0.4-1.5,1.1c-9.5-3.7-16.8,0.1-19,1.6c-0.4-0.4-0.8-0.7-1.2-0.8c-0.5-0.2-1.1,0-1.3,0.5   c-0.2,0.5,0,1.1,0.5,1.3c0.2,0.1,1.6,0.8,1.4,2.4c-0.1,0.5,0.3,1,0.9,1.1c0,0,0.1,0,0.1,0c0.5,0,0.9-0.4,1-0.9c0.1-0.8,0-1.4-0.2-2   c1.9-1.3,8.5-4.8,17.2-1.4c0,0.6,0.1,1.3,0.4,2.1c0.2,0.4,0.5,0.6,0.9,0.6c0.1,0,0.3,0,0.4-0.1c0.5-0.2,0.7-0.8,0.5-1.3   c-0.3-0.6-0.3-1-0.2-1.4c0.2-0.6,0.9-0.9,1-0.9c0.5-0.2,0.8-0.8,0.6-1.3C62.8,41,62.2,40.7,61.7,40.9z"></path><path d="M45.7,57.6c-0.8-0.5-1.7-0.7-2.4-0.7c0,0,0,0,0,0c-0.5,0-1,0.5-1,1c0,0.5,0.5,1,1,1c0.4,0,2.4,0.1,2.5,2.5   c0,0.5,0.5,0.9,1,0.9c0,0,0,0,0.1,0c0.6,0,1-0.5,0.9-1c-0.1-1-0.3-1.7-0.7-2.3c2.8-2.7,5.9-0.6,6.3-0.3c-0.1,0.6-0.2,1.2,0,2   c0.1,0.5,0.5,0.8,1,0.8c0.1,0,0.1,0,0.2,0c0.5-0.1,0.9-0.6,0.8-1.2c-0.3-2.1,1.1-2.9,1.3-3c0.5-0.2,0.7-0.8,0.5-1.3   c-0.2-0.5-0.8-0.7-1.3-0.5c-0.4,0.2-1,0.6-1.5,1.3C52.4,55.7,48.7,54.6,45.7,57.6z"></path><path d="M50,27.3c0.6,0,1-0.4,1-1V22c0-0.6-0.4-1-1-1s-1,0.4-1,1v4.3C49,26.9,49.4,27.3,50,27.3z"></path><path d="M50,72.7c-0.6,0-1,0.4-1,1V78c0,0.6,0.4,1,1,1s1-0.4,1-1v-4.3C51,73.1,50.6,72.7,50,72.7z"></path><path d="M70.4,30.7c0.3,0,0.5-0.1,0.7-0.3l3.7-3.7c0.4-0.4,0.4-1,0-1.4c-0.4-0.4-1-0.4-1.4,0L69.7,29c-0.4,0.4-0.4,1,0,1.4   C69.9,30.6,70.2,30.7,70.4,30.7z"></path><path d="M28.9,69.5l-3.7,3.7c-0.4,0.4-0.4,1,0,1.4c0.2,0.2,0.5,0.3,0.7,0.3c0.3,0,0.5-0.1,0.7-0.3l3.7-3.7c0.4-0.4,0.4-1,0-1.4   C29.9,69.2,29.3,69.2,28.9,69.5z"></path><path d="M28.9,30.5c0.2,0.2,0.4,0.3,0.7,0.3c0.3,0,0.5-0.1,0.7-0.3c0.4-0.4,0.4-1,0-1.4l-3.7-3.7c-0.4-0.4-1-0.4-1.4,0   c-0.4,0.4-0.4,1,0,1.4L28.9,30.5z"></path><path d="M73.4,71.8c-0.4-0.4-1-0.4-1.4,0c-0.4,0.4-0.4,1,0,1.4l2.6,2.6c0.2,0.2,0.4,0.3,0.7,0.3c0.3,0,0.5-0.1,0.7-0.3   c0.4-0.4,0.4-1,0-1.4L73.4,71.8z"></path><path d="M91.5,49h-4.6c-0.6,0-1,0.4-1,1s0.4,1,1,1h4.6c0.6,0,1-0.4,1-1S92.1,49,91.5,49z"></path><path d="M13.1,49H8.5c-0.6,0-1,0.4-1,1s0.4,1,1,1h4.6c0.6,0,1-0.4,1-1S13.7,49,13.1,49z"></path></g></svg>