<svg xmlns="http://www.w3.org/2000/svg" xmlns:xlink="http://www.w3.org/1999/xlink" version="1.1" x="0px" y="0px" viewBox="-247 370.9 100 100" style="enable-background:new -247 370.9 100 100;" xml:space="preserve"><path d="M-151,420.5c-2.9-6-7.9-10.6-14-13c2.5-5.9,2.8-12.6,0.6-18.9c-0.1-0.3-0.3-0.5-0.6-0.6c-6.1-2.2-12.8-2-18.7,0.5  c-2.5-5.9-7-10.7-12.8-13.5c-0.3-0.1-0.6-0.1-0.9,0c-5.9,2.8-10.6,7.8-13,13.7c-5.9-2.4-12.6-2.7-18.7-0.5c-0.3,0.1-0.5,0.3-0.6,0.6  c-2.2,6.1-2,12.8,0.5,18.7c-5.9,2.4-10.9,7-13.7,12.9c-0.1,0.3-0.1,0.6,0,0.9c2.8,5.9,7.8,10.6,13.7,12.9  c-2.5,5.9-2.8,12.6-0.5,18.9c0.1,0.3,0.3,0.5,0.6,0.6c2.8,1,5.8,1.5,8.7,1.5c3.4,0,6.9-0.7,10.1-2c2.4,5.9,7,10.9,12.9,13.6  c0.1,0.1,0.3,0.1,0.4,0.1s0.3,0,0.6-0.1c5.8-2.8,10.4-7.7,12.9-13.6c3.1,1.3,6.5,2,9.8,2c3,0,6-0.5,8.9-1.7c0.3-0.1,0.5-0.3,0.6-0.6  c2.2-6.1,2-12.8-0.4-18.6c5.9-2.4,10.9-7,13.6-12.9C-150.9,421.1-150.9,420.8-151,420.5z M-166,389.8c2.9,8.6,0.6,18.2-5.7,24.5  c-2.2,2.2-4.8,3.9-7.6,5.1c-0.3-4-2-7.6-4.5-10.4l10.8-10.8c0.4-0.4,0.4-1,0-1.4c-0.4-0.4-1-0.4-1.4,0l-10.8,10.8  c-2.8-2.5-6.5-4.2-10.5-4.5c1.2-2.9,2.9-5.5,5.2-7.7C-184.1,389.1-174.5,386.9-166,389.8z M-197,436.7c-8.7,0-15.8-7.1-15.8-15.8  s7.1-15.8,15.8-15.8s15.8,7.1,15.8,15.8S-188.3,436.7-197,436.7z M-197,377.1c5.2,2.5,9.3,7,11.5,12.2c-2.3,1.2-4.5,2.8-6.5,4.7  c-1.6,1.6-2.9,3.4-4,5.3v-11.3c0-0.6-0.4-1-1-1s-1,0.4-1,1v11.6c-1.1-1.9-2.5-3.7-4.1-5.3c-1.9-1.9-4.1-3.5-6.4-4.6  C-206.3,384.2-202.2,379.7-197,377.1z M-228,389.9c8.6-2.9,18.2-0.6,24.4,5.8c2.2,2.2,4,4.7,5.2,7.5c-4,0.3-7.6,2-10.4,4.5  l-10.8-10.8c-0.4-0.4-1-0.4-1.4,0c-0.4,0.4-0.4,1,0,1.4l10.8,10.8c-2.5,2.8-4.2,6.5-4.5,10.5c-2.8-1.2-5.4-2.9-7.6-5.1  C-228.7,408-230.9,398.4-228,389.9z M-240.8,420.9c2.6-5.3,7.1-9.4,12.4-11.5c1.2,2.3,2.8,4.5,4.7,6.4c1.7,1.6,3.5,3,5.5,4.1H-230  c-0.6,0-1,0.4-1,1s0.4,1,1,1h11.7c-2,1.1-3.8,2.6-5.5,4.2c-1.9,1.9-3.4,4-4.6,6.4C-233.7,430.2-238.1,426.1-240.8,420.9z   M-227.9,452.1c-2.9-8.5-0.7-18.1,5.7-24.5c2.2-2.2,4.7-4,7.5-5.2c0.3,3.9,2,7.5,4.5,10.3l-10.8,10.8c-0.4,0.4-0.4,1,0,1.4  c0.2,0.2,0.4,0.3,0.7,0.3s0.5-0.1,0.7-0.3l10.8-10.8c2.9,2.6,6.6,4.2,10.6,4.5c-1.2,2.9-3,5.5-5.2,7.8  C-209.8,452.8-219.4,455-227.9,452.1z M-196.9,464.7c-5.3-2.6-9.4-7.1-11.5-12.4c2.4-1.2,4.6-2.7,6.5-4.4c1.5-1.6,2.8-3.3,3.9-5.2  v11.1c0,0.6,0.4,1,1,1c0.3,0,0.5-0.1,0.7-0.3c0.2-0.2,0.3-0.4,0.3-0.7v-11.6c1.1,2,2.5,3.8,4.1,5.4c2,2,4.2,3.5,6.5,4.8  C-187.6,457.6-191.7,462-196.9,464.7z M-166,451.9c-8.6,3-17.9,0.8-24.4-5.8c-2.2-2.2-3.9-4.7-5.1-7.5c3.9-0.3,7.5-2,10.3-4.5  l10.8,10.8c0.2,0.2,0.4,0.3,0.7,0.3s0.5-0.1,0.7-0.3c0.4-0.4,0.4-1,0-1.4l-10.8-10.8c2.5-2.8,4.2-6.5,4.5-10.5  c2.8,1.2,5.4,2.9,7.6,5.1C-165.3,433.8-163.1,443.4-166,451.9z M-165.5,432.3c-1.2-2.3-2.8-4.5-4.7-6.4c-1.6-1.6-3.4-2.9-5.3-4h11.4  c0.3,0,0.5-0.1,0.7-0.3c0.2-0.2,0.3-0.4,0.3-0.7c0-0.6-0.4-1-1-1h-12c2.1-1.1,4-2.6,5.7-4.3c1.9-1.9,3.5-4.1,4.6-6.4  c5.4,2.2,10,6.3,12.7,11.6C-155.7,426.1-160.2,430.2-165.5,432.3z"></path></svg>